<?xml version="1.0" encoding="utf-8"?>
<!-- Generator: Adobe Illustrator 26.0.1, SVG Export Plug-In . SVG Version: 6.00 Build 0)  -->
<svg version="1.1" id="레이어_1" xmlns="http://www.w3.org/2000/svg" xmlns:xlink="http://www.w3.org/1999/xlink" x="0px"
	 y="0px" viewBox="0 0 232 107" style="enable-background:new 0 0 232 107;" xml:space="preserve">
<style type="text/css">
	.st0{fill:none;}
	.st1{fill-rule:evenodd;clip-rule:evenodd;fill:#DC4438;}
	.st2{enable-background:new    ;}
	.st3{fill:#DC4438;}
</style>
<rect class="st0" width="232" height="107"/>
<g transform="translate(-1501 -716)">
	<path class="st1" d="M1501,769.5c0-16.8,13.7-30.5,30.5-30.5s30.5,13.7,30.5,30.5s-13.7,30.5-30.5,30.5S1501,786.3,1501,769.5z"/>
	<g class="st2">
		<path class="st3" d="M1580.8,772.6h10.7c0.7,0,1.6,0,2.8,0c1.2,0,2.5-0.1,3.8-0.2c1.3-0.1,2.7-0.2,4-0.3c1.3-0.1,2.4-0.3,3.3-0.4
			v4c-1.4,0.2-3.1,0.4-5,0.6s-3.9,0.2-6,0.3v12.2h-4.6v-12.1h-9.1V772.6z M1583.2,761.3c0-1.1,0.2-2.1,0.6-3.1c0.4-1,1-1.8,1.9-2.6
			c0.8-0.8,1.8-1.4,2.9-1.8c1.2-0.5,2.5-0.7,4-0.7c1.4,0,2.8,0.2,3.9,0.7c1.2,0.5,2.1,1.1,2.9,1.8c0.8,0.7,1.4,1.6,1.9,2.6
			c0.4,1,0.7,2,0.7,3.1c0,1.1-0.2,2.1-0.7,3.1c-0.4,1-1.1,1.9-1.9,2.6c-0.8,0.8-1.8,1.4-2.9,1.8c-1.2,0.4-2.5,0.7-3.9,0.7
			c-1.5,0-2.8-0.2-4-0.7c-1.2-0.4-2.1-1-2.9-1.8c-0.8-0.8-1.4-1.6-1.9-2.6C1583.4,763.4,1583.2,762.4,1583.2,761.3z M1587.8,761.3
			c0,1.1,0.4,2.2,1.2,3.1s2,1.4,3.6,1.4c1.6,0,2.8-0.5,3.6-1.4c0.8-0.9,1.2-1.9,1.2-3.1c0-1.1-0.4-2.2-1.2-3.1
			c-0.8-0.9-2-1.4-3.6-1.4c-1.6,0-2.8,0.5-3.6,1.4S1587.8,760.2,1587.8,761.3z M1611.3,752.8v36.7h-4.6v-36.7H1611.3z"/>
		<path class="st3" d="M1616.9,758.1h21.4v3.3h-21.4V758.1z M1627.6,774.4c-3.1,0-5.4-0.6-7.1-1.7c-1.7-1.1-2.5-2.5-2.5-4.1
			c0-1.6,0.8-2.9,2.5-4.1c1.6-1.1,4-1.7,7.1-1.7c3.1,0,5.4,0.6,7.1,1.7c1.7,1.1,2.5,2.5,2.5,4.1c0,1.6-0.8,2.9-2.5,4.1
			C1633,773.8,1630.6,774.4,1627.6,774.4z M1621.8,752.6h11.4v3.4h-11.4V752.6z M1623.6,776.7h22.5c0.4,0,0.7,0.1,0.9,0.3
			s0.3,0.5,0.3,0.9v10c0,0.4-0.1,0.7-0.3,0.9s-0.5,0.2-0.9,0.2h-22.5c-0.4,0-0.7-0.1-0.9-0.2s-0.2-0.5-0.2-0.9v-10
			c0-0.4,0.1-0.7,0.2-0.9S1623.2,776.7,1623.6,776.7z M1627.6,766c-1.4,0-2.6,0.2-3.5,0.7s-1.3,1.1-1.3,1.9c0,0.9,0.4,1.6,1.3,1.9
			c0.9,0.4,2,0.6,3.5,0.6c1.4,0,2.6-0.2,3.5-0.6c0.9-0.4,1.3-1,1.3-1.9c0-0.8-0.4-1.5-1.3-1.9C1630.2,766.2,1629,766,1627.6,766z
			 M1642.6,785.4v-5h-15.5v5H1642.6z M1637.8,764.1h4.9v-11.3h4.6v22.5h-4.6V768h-4.9V764.1z"/>
	</g>
	<g class="st2">
		<path class="st3" d="M1666.3,759.6h5.5v5.3h-5.5V759.6z M1672,779c0,2-0.4,3.7-1.3,5c-0.9,1.3-2.2,2-3.9,2.3v-1.7
			c0.7-0.2,1.2-0.6,1.6-1.2c0.4-0.6,0.5-1.4,0.5-2.3h-2.5v-5h4.8c0.3,0,0.5,0.1,0.7,0.2c0.2,0.2,0.2,0.4,0.2,0.7V779z"/>
		<path class="st3" d="M1676.2,771.8v-2.7c1.4-0.2,2.4-0.5,2.8-1.1c0.5-0.6,0.7-1.6,0.7-2.9v-9.5c0-1.7,0.4-2.9,1.3-3.5
			c0.8-0.6,2.2-0.9,4.2-0.9h2.7v3.4l-1.8,0.1c-0.7,0.1-1.1,0.2-1.5,0.3c-0.3,0.2-0.5,0.6-0.5,1.4v9.6c0,1.2-0.3,2.2-0.8,2.9
			c-0.6,0.7-1.4,1.2-2.5,1.5c1.1,0.3,2,0.8,2.5,1.6c0.5,0.7,0.8,1.7,0.8,2.9v10.1c0,0.8,0.2,1.2,0.5,1.4s0.8,0.3,1.5,0.3l1.8,0.1
			v3.4h-2.7c-2,0-3.4-0.3-4.2-0.9c-0.8-0.6-1.3-1.7-1.3-3.5v-10.2c0-1.3-0.2-2.3-0.7-2.9C1678.6,772.4,1677.6,772,1676.2,771.8z"/>
	</g>
</g>
</svg>
