<?xml version="1.0" encoding="utf-8"?>
<!-- Generator: Adobe Illustrator 26.0.1, SVG Export Plug-In . SVG Version: 6.00 Build 0)  -->
<svg version="1.1" id="레이어_1" xmlns="http://www.w3.org/2000/svg" xmlns:xlink="http://www.w3.org/1999/xlink" x="0px"
	 y="0px" viewBox="0 0 2305 425" style="enable-background:new 0 0 2305 425;" xml:space="preserve">
<style type="text/css">
	.st0{fill:none;}
	.st1{enable-background:new    ;}
	.st2{fill:#DEEBF7;}
	.st3{fill:#FFFFFF;}
	.st4{fill:none;stroke:#3774B3;stroke-width:3.4375;stroke-miterlimit:8;stroke-dasharray:13.75,10.3125;}
	.st5{fill:#D9D9D9;}
</style>
<rect class="st0" width="2305" height="425"/>
<g transform="translate(-496 -1125)">
	<g class="st1">
		<path d="M603.8,1506.1h4.8c3.4,0,5.9,0.9,7.8,2.6c1.8,1.8,2.7,4.4,2.7,7.8c0,3.5-0.9,6.1-2.7,7.8c-1.8,1.7-4.4,2.6-7.8,2.6h-4.8
			c-0.2,0-0.3,0-0.4-0.1s-0.1-0.2-0.1-0.4v-19.9c0-0.2,0-0.3,0.1-0.4S603.6,1506.1,603.8,1506.1z M605.5,1525.1h3.7
			c2.7,0,4.6-0.8,5.8-2.3c1.2-1.5,1.8-3.6,1.8-6.2c0-3.1-0.8-5.3-2.4-6.6c-1.6-1.4-3.8-2-6.5-1.9h-2.4V1525.1z"/>
		<path d="M628.1,1515.4v-6.4h2.1v6.4h6v2h-6v6.4h-2.1v-6.4h-6v-2H628.1z"/>
		<path d="M647.1,1507v19.9h-2.2v-18c-0.5,0.5-1.1,1.1-1.9,1.6c-0.8,0.5-1.6,1-2.5,1.4v-2.1c0.8-0.4,1.6-0.8,2.3-1.4
			s1.5-1.2,2.1-1.9h1.6c0.2,0,0.3,0,0.4,0.1C647.1,1506.6,647.1,1506.8,647.1,1507z"/>
		<path d="M653.9,1519.9l8.2-13.4c0.1-0.1,0.1-0.2,0.2-0.3c0.1-0.1,0.2-0.1,0.3-0.1h1.9c0.2,0,0.3,0,0.4,0.1
			c0.1,0.1,0.1,0.2,0.1,0.4v13.8h3.1v1.9h-3.1v4.5h-2.2v-4.5h-8.7c-0.2,0-0.3,0-0.4-0.1c-0.1-0.1-0.1-0.2-0.1-0.4v-1.2
			c0-0.1,0-0.3,0.1-0.4C653.8,1520.2,653.9,1520,653.9,1519.9z M663,1511.2l0.1-2.6l-7.2,11.8h7.2V1511.2z"/>
	</g>
	<g class="st1">
		<path d="M760.7,1506.1h4.8c3.4,0,5.9,0.9,7.8,2.6c1.8,1.8,2.7,4.4,2.7,7.8c0,3.5-0.9,6.1-2.7,7.8c-1.8,1.7-4.4,2.6-7.8,2.6h-4.8
			c-0.2,0-0.3,0-0.4-0.1s-0.1-0.2-0.1-0.4v-19.9c0-0.2,0-0.3,0.1-0.4S760.5,1506.1,760.7,1506.1z M762.4,1525.1h3.7
			c2.7,0,4.6-0.8,5.8-2.3c1.2-1.5,1.8-3.6,1.8-6.2c0-3.1-0.8-5.3-2.4-6.6c-1.6-1.4-3.8-2-6.5-1.9h-2.4V1525.1z"/>
		<path d="M785,1515.4v-6.4h2.1v6.4h6v2h-6v6.4H785v-6.4h-6v-2H785z"/>
		<path d="M804,1507v19.9h-2.2v-18c-0.5,0.5-1.1,1.1-1.9,1.6c-0.8,0.5-1.6,1-2.5,1.4v-2.1c0.8-0.4,1.6-0.8,2.3-1.4s1.5-1.2,2.1-1.9
			h1.6c0.2,0,0.3,0,0.4,0.1C804,1506.6,804,1506.8,804,1507z"/>
		<path d="M822,1521.2c0-0.7-0.1-1.3-0.4-1.8c-0.3-0.5-0.6-0.9-1-1.2c-0.4-0.3-0.9-0.6-1.5-0.7c-0.6-0.1-1.1-0.2-1.7-0.3h-1.1
			c-0.2,0-0.4,0-0.4-0.1c0,0-0.1-0.2-0.1-0.4v-1c0-0.2,0-0.4,0.1-0.4c0-0.1,0.2-0.1,0.4-0.1h0.9c0.6,0,1.1-0.1,1.6-0.2
			c0.5-0.1,1-0.4,1.4-0.7c0.4-0.3,0.7-0.6,1-1.1c0.2-0.5,0.4-1,0.4-1.7c0-1.2-0.4-2.1-1.2-2.7c-0.8-0.6-1.8-1-2.9-1
			c-1.2,0-2.2,0.3-2.9,1c-0.7,0.6-1.1,1.5-1.2,2.7h-2.2c0-1.7,0.6-3.1,1.8-4.1c1.2-1,2.7-1.5,4.6-1.5c0.8,0,1.6,0.1,2.4,0.3
			c0.8,0.2,1.4,0.5,2,1c0.6,0.4,1,1,1.4,1.7s0.5,1.5,0.5,2.5c0,1.2-0.4,2.2-1.1,3.1c-0.8,0.9-1.8,1.5-3,1.7c1.4,0.2,2.5,0.8,3.3,1.7
			c0.8,1,1.3,2.1,1.3,3.5c0,1-0.2,1.9-0.6,2.7c-0.4,0.7-0.9,1.3-1.5,1.8c-0.6,0.5-1.4,0.8-2.2,1c-0.8,0.2-1.7,0.3-2.5,0.3
			c-2,0-3.6-0.5-4.8-1.6c-1.2-1.1-1.8-2.5-1.8-4.4h2.2c0.1,1.3,0.6,2.4,1.3,3.1c0.8,0.7,1.8,1,3.1,1c1.4,0,2.5-0.4,3.3-1.1
			C821.6,1523.6,822,1522.6,822,1521.2z"/>
	</g>
	<g class="st1">
		<path d="M917.6,1506.1h4.8c3.4,0,6,0.9,7.8,2.6c1.8,1.8,2.7,4.4,2.7,7.8c0,3.5-0.9,6.1-2.7,7.8c-1.8,1.7-4.4,2.6-7.8,2.6h-4.8
			c-0.2,0-0.3,0-0.4-0.1s-0.1-0.2-0.1-0.4v-19.9c0-0.2,0-0.3,0.1-0.4S917.4,1506.1,917.6,1506.1z M919.3,1525.1h3.7
			c2.7,0,4.6-0.8,5.8-2.3c1.2-1.5,1.8-3.6,1.8-6.2c0-3.1-0.8-5.3-2.4-6.6c-1.6-1.4-3.8-2-6.5-1.9h-2.4V1525.1z"/>
		<path d="M941.9,1515.4v-6.4h2.1v6.4h6v2h-6v6.4h-2.1v-6.4h-6v-2H941.9z"/>
		<path d="M960.9,1507v19.9h-2.2v-18c-0.5,0.5-1.1,1.1-1.9,1.6c-0.8,0.5-1.6,1-2.5,1.4v-2.1c0.8-0.4,1.6-0.8,2.3-1.4
			c0.7-0.6,1.5-1.2,2.1-1.9h1.6c0.2,0,0.3,0,0.4,0.1C960.9,1506.6,960.9,1506.8,960.9,1507z"/>
		<path d="M968.3,1524.8c0.3-0.3,0.7-0.7,1.2-1.1s1-0.9,1.5-1.5c0.5-0.5,1.1-1.1,1.6-1.7c0.6-0.6,1.1-1.2,1.7-1.9
			c0.5-0.6,1.1-1.3,1.5-1.9c0.5-0.6,0.9-1.3,1.3-1.9c0.4-0.6,0.7-1.2,0.9-1.7s0.3-1,0.3-1.5c0-1.2-0.4-2.1-1.1-2.7
			c-0.7-0.6-1.6-0.9-2.7-0.9c-1.1,0-2,0.4-2.6,1.1s-1,1.7-1,2.9h-2.3c0-0.9,0.1-1.7,0.4-2.5s0.7-1.4,1.3-1.9
			c0.5-0.5,1.2-0.9,1.9-1.2c0.7-0.3,1.5-0.4,2.4-0.4c1.7,0,3.2,0.5,4.3,1.4c1.2,0.9,1.7,2.3,1.7,4c0,1.2-0.4,2.4-1.1,3.7
			s-1.6,2.5-2.6,3.8c-1,1.2-2.1,2.4-3.2,3.4c-1.1,1.1-2,2-2.7,2.7H981v1.9h-12.3c-0.2,0-0.3,0-0.3-0.1c0-0.1-0.1-0.2-0.1-0.3V1524.8
			z"/>
	</g>
	<g class="st1">
		<path d="M1074.5,1506.1h4.8c3.4,0,5.9,0.9,7.8,2.6c1.8,1.8,2.7,4.4,2.7,7.8c0,3.5-0.9,6.1-2.7,7.8c-1.8,1.7-4.4,2.6-7.8,2.6h-4.8
			c-0.2,0-0.3,0-0.4-0.1s-0.1-0.2-0.1-0.4v-19.9c0-0.2,0-0.3,0.1-0.4S1074.3,1506.1,1074.5,1506.1z M1076.2,1525.1h3.7
			c2.7,0,4.6-0.8,5.8-2.3c1.2-1.5,1.8-3.6,1.8-6.2c0-3.1-0.8-5.3-2.4-6.6c-1.6-1.4-3.8-2-6.5-1.9h-2.4V1525.1z"/>
		<path d="M1098.8,1515.4v-6.4h2.1v6.4h6v2h-6v6.4h-2.1v-6.4h-6v-2H1098.8z"/>
		<path d="M1117.9,1507v19.9h-2.2v-18c-0.5,0.5-1.1,1.1-1.9,1.6c-0.8,0.5-1.6,1-2.5,1.4v-2.1c0.8-0.4,1.6-0.8,2.3-1.4
			s1.5-1.2,2.1-1.9h1.6c0.2,0,0.3,0,0.4,0.1C1117.8,1506.6,1117.9,1506.8,1117.9,1507z"/>
		<path d="M1133.6,1507v19.9h-2.2v-18c-0.5,0.5-1.1,1.1-1.9,1.6c-0.8,0.5-1.6,1-2.5,1.4v-2.1c0.8-0.4,1.6-0.8,2.3-1.4
			s1.5-1.2,2.1-1.9h1.6c0.2,0,0.3,0,0.4,0.1C1133.6,1506.6,1133.6,1506.8,1133.6,1507z"/>
	</g>
	<g class="st1">
		<path d="M1231.4,1506.1h4.8c3.4,0,5.9,0.9,7.8,2.6c1.8,1.8,2.7,4.4,2.7,7.8c0,3.5-0.9,6.1-2.7,7.8c-1.8,1.7-4.4,2.6-7.8,2.6h-4.8
			c-0.2,0-0.3,0-0.4-0.1s-0.1-0.2-0.1-0.4v-19.9c0-0.2,0-0.3,0.1-0.4S1231.2,1506.1,1231.4,1506.1z M1233.1,1525.1h3.7
			c2.7,0,4.6-0.8,5.8-2.3c1.2-1.5,1.8-3.6,1.8-6.2c0-3.1-0.8-5.3-2.4-6.6c-1.6-1.4-3.8-2-6.5-1.9h-2.4V1525.1z"/>
		<path d="M1255.7,1515.4v-6.4h2.1v6.4h6v2h-6v6.4h-2.1v-6.4h-6v-2H1255.7z"/>
		<path d="M1274.8,1507v19.9h-2.2v-18c-0.5,0.5-1.1,1.1-1.9,1.6c-0.8,0.5-1.6,1-2.5,1.4v-2.1c0.8-0.4,1.6-0.8,2.3-1.4
			s1.5-1.2,2.1-1.9h1.6c0.2,0,0.3,0,0.4,0.1C1274.7,1506.6,1274.8,1506.8,1274.8,1507z"/>
		<path d="M1288.7,1505.6c1.4,0,2.5,0.3,3.4,1c0.9,0.7,1.6,1.5,2.1,2.5c0.5,1,0.8,2.2,1,3.5c0.2,1.3,0.3,2.6,0.3,3.9
			c0,1.3-0.1,2.6-0.3,3.9c-0.2,1.3-0.5,2.5-1,3.5c-0.5,1-1.2,1.9-2.1,2.5c-0.9,0.6-2,1-3.4,1c-1.4,0-2.5-0.3-3.4-1
			c-0.9-0.6-1.5-1.5-2-2.5c-0.5-1-0.8-2.2-1-3.5s-0.3-2.6-0.3-3.9c0-1.3,0.1-2.6,0.3-3.9c0.2-1.3,0.5-2.5,1-3.5c0.5-1,1.1-1.9,2-2.5
			C1286.2,1505.9,1287.3,1505.6,1288.7,1505.6z M1288.7,1507.5c-1,0-1.8,0.3-2.4,1s-1,1.4-1.3,2.4c-0.3,0.9-0.5,1.9-0.5,3
			s-0.1,1.9-0.1,2.7c0,0.8,0,1.7,0.1,2.7c0.1,1,0.2,2,0.5,2.9c0.3,0.9,0.7,1.7,1.3,2.3c0.6,0.6,1.4,1,2.4,1s1.8-0.3,2.4-1
			c0.6-0.6,1-1.4,1.3-2.3c0.3-0.9,0.5-1.9,0.6-2.9c0.1-1,0.1-1.9,0.1-2.7c0-0.8,0-1.7-0.1-2.7c-0.1-1-0.3-2-0.6-3
			c-0.3-0.9-0.7-1.7-1.3-2.4C1290.5,1507.9,1289.7,1507.5,1288.7,1507.5z"/>
	</g>
	<g class="st1">
		<path d="M1395.2,1506.1h4.8c3.4,0,6,0.9,7.8,2.6c1.8,1.8,2.7,4.4,2.7,7.8c0,3.5-0.9,6.1-2.7,7.8c-1.8,1.7-4.4,2.6-7.8,2.6h-4.8
			c-0.2,0-0.3,0-0.4-0.1s-0.1-0.2-0.1-0.4v-19.9c0-0.2,0-0.3,0.1-0.4S1395,1506.1,1395.2,1506.1z M1396.9,1525.1h3.7
			c2.7,0,4.6-0.8,5.8-2.3c1.2-1.5,1.8-3.6,1.8-6.2c0-3.1-0.8-5.3-2.4-6.6c-1.6-1.4-3.8-2-6.5-1.9h-2.4V1525.1z"/>
		<path d="M1419.5,1515.4v-6.4h2.1v6.4h6v2h-6v6.4h-2.1v-6.4h-6v-2H1419.5z"/>
		<path d="M1443.4,1516.1c0,3.8-0.6,6.6-1.9,8.4c-1.3,1.9-3,2.8-5.1,2.8c-1.7,0-3.1-0.5-4.2-1.4c-1.1-1-1.7-2.2-1.8-3.9h2.2
			c0,1.1,0.4,1.9,1.2,2.5s1.7,0.9,2.7,0.9c1,0,1.8-0.3,2.4-0.8c0.6-0.6,1.2-1.3,1.5-2.2c0.4-0.9,0.6-1.9,0.8-3
			c0.1-1.1,0.2-2.2,0.2-3.3c-0.4,1.2-1.1,2.1-2,2.7c-0.9,0.6-2,0.9-3.2,0.9c-1.8,0-3.3-0.6-4.4-1.9c-1.1-1.2-1.7-2.9-1.7-5
			c0-1,0.1-1.8,0.4-2.7c0.3-0.8,0.7-1.6,1.3-2.2c0.6-0.6,1.2-1.1,2-1.5c0.8-0.4,1.7-0.5,2.7-0.5c0.9,0,1.8,0.1,2.6,0.4
			c0.8,0.3,1.6,0.8,2.2,1.5c0.6,0.7,1.1,1.8,1.5,3.1C1443.2,1512.3,1443.4,1514,1443.4,1516.1z M1436.6,1518c0.6,0,1.2-0.1,1.7-0.4
			c0.5-0.3,1-0.6,1.4-1c0.4-0.4,0.7-1,0.9-1.5c0.2-0.6,0.3-1.2,0.3-1.8c0-0.7-0.1-1.4-0.3-2.1c-0.2-0.7-0.5-1.2-0.9-1.7
			c-0.4-0.5-0.8-0.8-1.3-1.1c-0.5-0.3-1.1-0.4-1.7-0.4c-1.4,0-2.5,0.5-3.2,1.5c-0.8,1-1.1,2.2-1.1,3.6c0,0.7,0.1,1.3,0.3,2
			c0.2,0.6,0.5,1.1,0.8,1.6c0.4,0.5,0.8,0.8,1.3,1.1C1435.2,1517.9,1435.9,1518,1436.6,1518z"/>
	</g>
	<g class="st1">
		<path d="M1552.1,1506.1h4.8c3.4,0,5.9,0.9,7.8,2.6c1.8,1.8,2.7,4.4,2.7,7.8c0,3.5-0.9,6.1-2.7,7.8c-1.8,1.7-4.4,2.6-7.8,2.6h-4.8
			c-0.2,0-0.3,0-0.4-0.1s-0.1-0.2-0.1-0.4v-19.9c0-0.2,0-0.3,0.1-0.4S1551.9,1506.1,1552.1,1506.1z M1553.8,1525.1h3.7
			c2.7,0,4.6-0.8,5.8-2.3c1.2-1.5,1.8-3.6,1.8-6.2c0-3.1-0.8-5.3-2.4-6.6c-1.6-1.4-3.8-2-6.5-1.9h-2.4V1525.1z"/>
		<path d="M1576.4,1515.4v-6.4h2.1v6.4h6v2h-6v6.4h-2.1v-6.4h-6v-2H1576.4z"/>
		<path d="M1596.4,1516.4c1.2,0.3,2.2,0.9,2.9,1.8c0.7,0.9,1,1.9,1,3.1c0,1.9-0.6,3.4-1.9,4.4c-1.2,1-2.9,1.6-4.9,1.6
			c-2,0-3.6-0.5-4.9-1.6s-1.8-2.5-1.8-4.4c0-1,0.3-2,1-3s1.7-1.6,2.9-2.1c-1.2-0.2-2.1-0.8-2.7-1.7c-0.6-0.9-1-1.9-1-3.1
			c0-1.8,0.6-3.1,1.8-4.1c1.2-1,2.8-1.5,4.7-1.5c1.9,0,3.5,0.5,4.7,1.5c1.2,1,1.8,2.3,1.8,4.1c0,0.5-0.1,1-0.3,1.5
			c-0.2,0.5-0.4,1-0.7,1.4c-0.3,0.4-0.7,0.8-1.2,1.2C1597.4,1516,1596.9,1516.2,1596.4,1516.4z M1593.6,1525.5
			c1.4,0,2.5-0.4,3.3-1.1c0.8-0.7,1.2-1.7,1.2-3c0-0.7-0.1-1.3-0.4-1.8c-0.3-0.5-0.6-0.9-1-1.3c-0.4-0.3-0.9-0.6-1.4-0.8
			c-0.5-0.2-1.1-0.3-1.6-0.3c-0.6,0-1.1,0.1-1.7,0.3c-0.5,0.2-1,0.4-1.4,0.8c-0.4,0.3-0.8,0.8-1,1.3c-0.3,0.5-0.4,1.1-0.4,1.8
			c0,1.2,0.4,2.2,1.2,3C1591.1,1525.1,1592.2,1525.5,1593.6,1525.5z M1593.6,1515.2c1.2,0,2.2-0.3,3-1c0.8-0.6,1.2-1.6,1.2-2.7
			c0-1.1-0.4-2-1.2-2.7c-0.8-0.7-1.8-1-3-1s-2.2,0.3-3,1s-1.2,1.6-1.2,2.7c0,1.2,0.4,2.1,1.2,2.7
			C1591.4,1514.9,1592.4,1515.2,1593.6,1515.2z"/>
	</g>
	<g class="st1">
		<path d="M1709,1506.1h4.8c3.4,0,5.9,0.9,7.8,2.6c1.8,1.8,2.7,4.4,2.7,7.8c0,3.5-0.9,6.1-2.7,7.8s-4.4,2.6-7.8,2.6h-4.8
			c-0.2,0-0.3,0-0.4-0.1c-0.1-0.1-0.1-0.2-0.1-0.4v-19.9c0-0.2,0-0.3,0.1-0.4C1708.7,1506.2,1708.8,1506.1,1709,1506.1z
			 M1710.7,1525.1h3.7c2.7,0,4.6-0.8,5.8-2.3c1.2-1.5,1.8-3.6,1.8-6.2c0-3.1-0.8-5.3-2.4-6.6c-1.6-1.4-3.8-2-6.5-1.9h-2.4V1525.1z"
			/>
		<path d="M1733.3,1515.4v-6.4h2.1v6.4h6v2h-6v6.4h-2.1v-6.4h-6v-2H1733.3z"/>
		<path d="M1756.3,1508.8l-7.3,18.1h-2.5l7.7-18.5h-10.3v-1.9h12.1c0.2,0,0.3,0,0.4,0.1s0.1,0.2,0.1,0.4v1.1c0,0.1,0,0.3-0.1,0.4
			C1756.4,1508.6,1756.4,1508.7,1756.3,1508.8z"/>
	</g>
	<g class="st1">
		<path d="M1865.9,1506.1h4.8c3.4,0,6,0.9,7.8,2.6c1.8,1.8,2.7,4.4,2.7,7.8c0,3.5-0.9,6.1-2.7,7.8c-1.8,1.7-4.4,2.6-7.8,2.6h-4.8
			c-0.2,0-0.3,0-0.4-0.1s-0.1-0.2-0.1-0.4v-19.9c0-0.2,0-0.3,0.1-0.4S1865.7,1506.1,1865.9,1506.1z M1867.6,1525.1h3.7
			c2.7,0,4.6-0.8,5.8-2.3c1.2-1.5,1.8-3.6,1.8-6.2c0-3.1-0.8-5.3-2.4-6.6c-1.6-1.4-3.8-2-6.5-1.9h-2.4V1525.1z"/>
		<path d="M1890.2,1515.4v-6.4h2.1v6.4h6v2h-6v6.4h-2.1v-6.4h-6v-2H1890.2z"/>
		<path d="M1900.7,1517.3c0-1.9,0.2-3.5,0.5-4.9s0.8-2.6,1.5-3.5c0.6-0.9,1.4-1.6,2.2-2.1c0.9-0.5,1.8-0.7,2.8-0.7
			c1.7,0,3.1,0.5,4.1,1.4c1.1,1,1.7,2.3,1.9,3.9h-2.2c-0.1-1-0.4-1.9-1.2-2.5c-0.7-0.6-1.6-0.9-2.6-0.9c-1,0-1.8,0.3-2.5,0.9
			c-0.7,0.6-1.2,1.4-1.6,2.3c-0.4,0.9-0.7,1.9-0.8,3c-0.2,1.1-0.2,2.1-0.2,3c0.4-1.2,1.1-2.1,2.1-2.7c1-0.6,2.1-0.9,3.3-0.9
			c1.8,0,3.3,0.6,4.4,1.9c1.1,1.3,1.6,2.9,1.6,5c0,1-0.1,1.9-0.4,2.7c-0.3,0.8-0.7,1.6-1.3,2.2c-0.5,0.6-1.2,1.1-2,1.5
			s-1.7,0.5-2.7,0.5c-1.5,0-2.9-0.4-3.9-1.2c-1.1-0.8-1.8-1.8-2.3-3.1c-0.3-0.8-0.5-1.6-0.6-2.5S1900.7,1518.6,1900.7,1517.3z
			 M1907.5,1515.3c-0.6,0-1.2,0.1-1.8,0.4c-0.5,0.3-1,0.6-1.4,1c-0.4,0.4-0.7,1-0.9,1.5c-0.2,0.6-0.3,1.2-0.3,1.8
			c0,0.8,0.1,1.5,0.3,2.1s0.5,1.2,0.9,1.7c0.4,0.5,0.8,0.9,1.3,1.1s1.1,0.4,1.8,0.4c1.4,0,2.5-0.5,3.2-1.5c0.8-1,1.1-2.2,1.1-3.6
			c0-0.7-0.1-1.3-0.3-1.9s-0.5-1.1-0.8-1.6c-0.4-0.5-0.8-0.8-1.3-1.1C1908.8,1515.5,1908.2,1515.3,1907.5,1515.3z"/>
	</g>
	<g class="st1">
		<path d="M2022.8,1506.1h4.8c3.4,0,6,0.9,7.8,2.6c1.8,1.8,2.7,4.4,2.7,7.8c0,3.5-0.9,6.1-2.7,7.8c-1.8,1.7-4.4,2.6-7.8,2.6h-4.8
			c-0.2,0-0.3,0-0.4-0.1s-0.1-0.2-0.1-0.4v-19.9c0-0.2,0-0.3,0.1-0.4S2022.6,1506.1,2022.8,1506.1z M2024.5,1525.1h3.7
			c2.7,0,4.6-0.8,5.8-2.3c1.2-1.5,1.8-3.6,1.8-6.2c0-3.1-0.8-5.3-2.4-6.6c-1.6-1.4-3.8-2-6.5-1.9h-2.4V1525.1z"/>
		<path d="M2047.1,1515.4v-6.4h2.1v6.4h6v2h-6v6.4h-2.1v-6.4h-6v-2H2047.1z"/>
		<path d="M2058.8,1518.4c-0.2,0-0.3,0-0.3-0.1c0,0-0.1-0.2-0.1-0.4l0.3-11c0-0.2,0-0.3,0.1-0.4c0.1-0.1,0.2-0.1,0.4-0.1h10.7v1.9
			h-9l-0.4,6.9c0.4-0.6,1-1,1.8-1.4c0.8-0.3,1.7-0.5,2.7-0.5c0.8,0,1.6,0.1,2.3,0.4c0.7,0.3,1.3,0.7,1.9,1.3
			c0.5,0.6,0.9,1.3,1.3,2.2c0.3,0.9,0.5,1.9,0.5,3.1c0,1-0.2,2-0.5,2.8c-0.3,0.9-0.7,1.6-1.3,2.2c-0.6,0.6-1.3,1.1-2.1,1.4
			c-0.8,0.3-1.7,0.5-2.6,0.5c-1.8,0-3.3-0.5-4.5-1.4c-1.2-0.9-1.9-2.3-2-4.1h2.2c0.2,1.1,0.6,2,1.4,2.6c0.8,0.6,1.7,0.9,2.9,0.9
			c1.2,0,2.2-0.5,3-1.4c0.8-0.9,1.2-2.2,1.2-3.7c0-1.7-0.4-3-1.2-3.9s-1.8-1.3-2.9-1.3c-0.9,0-1.8,0.2-2.5,0.7
			c-0.7,0.5-1.2,1.1-1.4,1.9c0,0.1-0.1,0.2-0.1,0.2c0,0.1,0,0.1-0.1,0.1c0,0-0.1,0.1-0.2,0.1c-0.1,0-0.1,0-0.2,0H2058.8z"/>
	</g>
	<g class="st1">
		<path d="M2179.7,1506.1h4.8c3.4,0,6,0.9,7.8,2.6c1.8,1.8,2.7,4.4,2.7,7.8c0,3.5-0.9,6.1-2.7,7.8c-1.8,1.7-4.4,2.6-7.8,2.6h-4.8
			c-0.2,0-0.3,0-0.4-0.1c-0.1-0.1-0.1-0.2-0.1-0.4v-19.9c0-0.2,0-0.3,0.1-0.4C2179.4,1506.2,2179.5,1506.1,2179.7,1506.1z
			 M2181.4,1525.1h3.7c2.7,0,4.6-0.8,5.8-2.3c1.2-1.5,1.8-3.6,1.8-6.2c0-3.1-0.8-5.3-2.4-6.6c-1.6-1.4-3.8-2-6.5-1.9h-2.4V1525.1z"
			/>
		<path d="M2204,1515.4v-6.4h2.1v6.4h6v2h-6v6.4h-2.1v-6.4h-6v-2H2204z"/>
		<path d="M2214.1,1519.9l8.2-13.4c0.1-0.1,0.1-0.2,0.2-0.3c0.1-0.1,0.2-0.1,0.3-0.1h1.9c0.2,0,0.3,0,0.4,0.1
			c0.1,0.1,0.1,0.2,0.1,0.4v13.8h3.1v1.9h-3.1v4.5h-2.2v-4.5h-8.7c-0.2,0-0.3,0-0.4-0.1c-0.1-0.1-0.1-0.2-0.1-0.4v-1.2
			c0-0.1,0-0.3,0.1-0.4C2213.9,1520.2,2214,1520,2214.1,1519.9z M2223.1,1511.2l0.1-2.6l-7.2,11.8h7.2V1511.2z"/>
	</g>
	<g class="st1">
		<path d="M2336.6,1506.1h4.8c3.4,0,6,0.9,7.8,2.6c1.8,1.8,2.7,4.4,2.7,7.8c0,3.5-0.9,6.1-2.7,7.8c-1.8,1.7-4.4,2.6-7.8,2.6h-4.8
			c-0.2,0-0.3,0-0.4-0.1s-0.1-0.2-0.1-0.4v-19.9c0-0.2,0-0.3,0.1-0.4S2336.4,1506.1,2336.6,1506.1z M2338.3,1525.1h3.7
			c2.7,0,4.6-0.8,5.8-2.3c1.2-1.5,1.8-3.6,1.8-6.2c0-3.1-0.8-5.3-2.4-6.6c-1.6-1.4-3.8-2-6.5-1.9h-2.4V1525.1z"/>
		<path d="M2360.9,1515.4v-6.4h2.1v6.4h6v2h-6v6.4h-2.1v-6.4h-6v-2H2360.9z"/>
		<path d="M2382.2,1521.2c0-0.7-0.1-1.3-0.4-1.8c-0.3-0.5-0.6-0.9-1-1.2c-0.4-0.3-0.9-0.6-1.5-0.7s-1.1-0.2-1.7-0.3h-1.1
			c-0.2,0-0.4,0-0.4-0.1s-0.1-0.2-0.1-0.4v-1c0-0.2,0-0.4,0.1-0.4c0-0.1,0.2-0.1,0.4-0.1h0.9c0.6,0,1.1-0.1,1.6-0.2
			c0.5-0.1,1-0.4,1.4-0.7c0.4-0.3,0.7-0.6,1-1.1c0.2-0.5,0.4-1,0.4-1.7c0-1.2-0.4-2.1-1.2-2.7c-0.8-0.6-1.8-1-2.9-1
			c-1.2,0-2.2,0.3-2.9,1c-0.7,0.6-1.1,1.5-1.2,2.7h-2.2c0-1.7,0.6-3.1,1.8-4.1c1.2-1,2.7-1.5,4.6-1.5c0.8,0,1.6,0.1,2.4,0.3
			c0.8,0.2,1.4,0.5,2,1c0.6,0.4,1,1,1.4,1.7c0.3,0.7,0.5,1.5,0.5,2.5c0,1.2-0.4,2.2-1.1,3.1c-0.8,0.9-1.8,1.5-3,1.7
			c1.4,0.2,2.5,0.8,3.3,1.7c0.8,1,1.3,2.1,1.3,3.5c0,1-0.2,1.9-0.6,2.7s-0.9,1.3-1.5,1.8c-0.6,0.5-1.4,0.8-2.2,1
			c-0.8,0.2-1.7,0.3-2.5,0.3c-2,0-3.6-0.5-4.8-1.6c-1.2-1.1-1.8-2.5-1.8-4.4h2.2c0.1,1.3,0.6,2.4,1.3,3.1s1.8,1,3.1,1
			c1.4,0,2.5-0.4,3.3-1.1C2381.8,1523.6,2382.2,1522.6,2382.2,1521.2z"/>
	</g>
	<g class="st1">
		<path d="M2493.5,1506.1h4.8c3.4,0,5.9,0.9,7.8,2.6c1.8,1.8,2.7,4.4,2.7,7.8c0,3.5-0.9,6.1-2.7,7.8s-4.4,2.6-7.8,2.6h-4.8
			c-0.2,0-0.3,0-0.4-0.1s-0.1-0.2-0.1-0.4v-19.9c0-0.2,0-0.3,0.1-0.4S2493.3,1506.1,2493.5,1506.1z M2495.2,1525.1h3.7
			c2.7,0,4.6-0.8,5.8-2.3c1.2-1.5,1.8-3.6,1.8-6.2c0-3.1-0.8-5.3-2.4-6.6c-1.6-1.4-3.8-2-6.5-1.9h-2.4V1525.1z"/>
		<path d="M2517.8,1515.4v-6.4h2.1v6.4h6v2h-6v6.4h-2.1v-6.4h-6v-2H2517.8z"/>
		<path d="M2528.4,1524.8c0.3-0.3,0.7-0.7,1.2-1.1s1-0.9,1.5-1.5c0.5-0.5,1.1-1.1,1.6-1.7s1.1-1.2,1.7-1.9c0.5-0.6,1.1-1.3,1.5-1.9
			c0.5-0.6,0.9-1.3,1.3-1.9c0.4-0.6,0.7-1.2,0.9-1.7c0.2-0.5,0.3-1,0.3-1.5c0-1.2-0.4-2.1-1.1-2.7s-1.6-0.9-2.7-0.9
			c-1.1,0-2,0.4-2.6,1.1s-1,1.7-1,2.9h-2.3c0-0.9,0.1-1.7,0.4-2.5c0.3-0.7,0.7-1.4,1.3-1.9c0.5-0.5,1.2-0.9,1.9-1.2
			c0.7-0.3,1.5-0.4,2.4-0.4c1.7,0,3.2,0.5,4.3,1.4c1.2,0.9,1.7,2.3,1.7,4c0,1.2-0.4,2.4-1.1,3.7s-1.6,2.5-2.6,3.8
			c-1,1.2-2.1,2.4-3.2,3.4c-1.1,1.1-2,2-2.7,2.7h10.1v1.9h-12.3c-0.2,0-0.3,0-0.3-0.1c0-0.1-0.1-0.2-0.1-0.3V1524.8z"/>
	</g>
	<g class="st1">
		<path d="M2650.4,1506.1h4.8c3.4,0,5.9,0.9,7.8,2.6c1.8,1.8,2.7,4.4,2.7,7.8c0,3.5-0.9,6.1-2.7,7.8s-4.4,2.6-7.8,2.6h-4.8
			c-0.2,0-0.3,0-0.4-0.1c-0.1-0.1-0.1-0.2-0.1-0.4v-19.9c0-0.2,0-0.3,0.1-0.4C2650.1,1506.2,2650.2,1506.1,2650.4,1506.1z
			 M2652.1,1525.1h3.7c2.7,0,4.6-0.8,5.8-2.3c1.2-1.5,1.8-3.6,1.8-6.2c0-3.1-0.8-5.3-2.4-6.6c-1.6-1.4-3.8-2-6.5-1.9h-2.4V1525.1z"
			/>
		<path d="M2674.7,1515.4v-6.4h2.1v6.4h6v2h-6v6.4h-2.1v-6.4h-6v-2H2674.7z"/>
		<path d="M2693.8,1507v19.9h-2.2v-18c-0.5,0.5-1.1,1.1-1.9,1.6c-0.8,0.5-1.6,1-2.5,1.4v-2.1c0.8-0.4,1.6-0.8,2.3-1.4
			c0.7-0.6,1.5-1.2,2.1-1.9h1.6c0.2,0,0.3,0,0.4,0.1C2693.7,1506.6,2693.8,1506.8,2693.8,1507z"/>
	</g>
	<rect x="1645" y="1126" class="st2" width="1156" height="361"/>
	<g class="st1">
		<path class="st3" d="M2146.9,1303.1c0-3.2,0.3-6,0.9-8.3c0.6-2.3,1.5-4.3,2.5-5.8c1.1-1.5,2.4-2.6,3.8-3.4
			c1.5-0.7,3.1-1.1,4.8-1.1c1.6,0,3.2,0.4,4.6,1.1c1.5,0.8,2.8,1.9,3.8,3.4c1.1,1.5,2,3.4,2.6,5.7c0.6,2.3,1,5.1,1,8.2
			s-0.3,5.9-1,8.2c-0.6,2.3-1.5,4.2-2.6,5.8c-1.1,1.5-2.4,2.7-3.8,3.4c-1.4,0.8-3,1.1-4.6,1.1c-1.7,0-3.3-0.4-4.7-1.1
			c-1.5-0.7-2.8-1.9-3.9-3.4c-1.1-1.5-2-3.5-2.6-5.8C2147.2,1309,2146.9,1306.3,2146.9,1303.1z M2151.2,1303.1c0,2,0.2,3.9,0.5,5.6
			c0.3,1.8,0.8,3.3,1.4,4.6c0.7,1.4,1.5,2.4,2.4,3.2c1,0.8,2.1,1.2,3.5,1.2c1.3,0,2.5-0.4,3.4-1.2c1-0.8,1.8-1.8,2.4-3.2
			c0.6-1.3,1.1-2.9,1.4-4.6c0.3-1.8,0.5-3.7,0.5-5.6c0-1.9-0.2-3.8-0.5-5.6c-0.3-1.8-0.8-3.3-1.4-4.7c-0.6-1.3-1.4-2.4-2.4-3.2
			s-2.1-1.2-3.4-1.2c-1.4,0-2.5,0.4-3.5,1.2c-1,0.8-1.8,1.9-2.4,3.2c-0.7,1.4-1.1,2.9-1.4,4.7
			C2151.3,1299.4,2151.2,1301.2,2151.2,1303.1z M2184.9,1283.4v48.8h-4.3v-48.8H2184.9z"/>
		<path class="st3" d="M2218.1,1308.6c0,0.4-0.1,0.7-0.2,0.9c-0.2,0.2-0.5,0.2-0.9,0.2h-19.9c-0.4,0-0.7-0.1-0.9-0.2
			c-0.1-0.2-0.2-0.5-0.2-0.9v-23.4h4.3v8.5h13.6v-8.5h4.2v10.1h10.4v-11.8h4.4v35.8h-4.4V1299h-10.4V1308.6z M2200.3,1306h13.6v-8.6
			h-13.6V1306z M2202.5,1331.3c-0.4,0-0.7-0.1-0.9-0.2s-0.2-0.5-0.2-0.9v-14.4h4.5v11.8h28.3v3.7H2202.5z"/>
	</g>
	<g class="st1">
		<path class="st3" d="M2301.2,1314.6h-20v17.7h-4.5v-17.7h-20.1v-3.7h44.6V1314.6z M2296.2,1306c-1.4-0.3-3-0.8-4.6-1.4
			c-1.7-0.6-3.3-1.4-4.9-2.3c-1.6-0.9-3.1-2-4.4-3.3c-1.4-1.3-2.5-2.7-3.3-4.3c-0.9,1.5-2,2.9-3.2,4.1c-1.3,1.2-2.7,2.3-4.2,3.2
			c-1.5,1-3.1,1.8-4.8,2.4c-1.7,0.6-3.4,1.2-5,1.6l-3.1-3.3c2.3-0.5,4.5-1.1,6.6-2c2.1-0.8,4-1.8,5.6-3c1.6-1.2,2.9-2.5,3.9-4
			s1.6-3.1,1.8-4.9h-14.4v-3.7h33.7v3.8h-14.4c0.1,1.9,0.8,3.7,2,5.2s2.6,2.9,4.3,4c1.7,1.2,3.6,2.1,5.6,2.9c2,0.8,4,1.3,5.9,1.7
			L2296.2,1306z"/>
	</g>
	<path class="st4" d="M1645.5,1487.1v-360.6"/>
	<rect x="496" y="1126" class="st3" width="1149" height="361"/>
	<g class="st1">
		<path class="st5" d="M1020.9,1321.2c-2.5-1.7-5-3.8-7.3-6.4c-2.3-2.6-4.1-5.6-5.2-8.9c-0.5,1.7-1.2,3.3-2.1,4.9
			c-0.9,1.6-2,3.1-3.1,4.6c-1.1,1.4-2.4,2.8-3.7,4c-1.3,1.2-2.6,2.3-3.8,3.1l-3.6-3c4.4-2.8,7.8-6.2,10.3-10.5
			c2.5-4.2,3.7-9.2,3.7-14.9v-4.2h-10.5v-3.7h25.6v3.7h-10.6v4.9c0,5.2,1.1,9.8,3.3,13.6c2.2,3.8,5.6,7,10.1,9.7L1020.9,1321.2z
			 M1033.7,1283.5v48.7h-4.3v-48.7H1033.7z"/>
		<path class="st5" d="M1044.5,1308.9c-0.4,0-0.7-0.1-0.9-0.2s-0.2-0.5-0.2-0.9v-22.9h4.3v20.2h4.9c1.8,0,3.7-0.1,5.7-0.2
			c2-0.1,3.9-0.3,5.7-0.4c1.8-0.2,3.5-0.4,5-0.6c1.5-0.2,2.6-0.4,3.4-0.6v3.7c-0.9,0.2-2.1,0.5-3.5,0.7c-1.5,0.3-3.1,0.5-5,0.7
			c-1.8,0.2-3.8,0.3-5.9,0.5c-2.1,0.1-4.2,0.2-6.2,0.2H1044.5z M1048.4,1314.6h4.4v12.8h27.9v3.7h-31.1c-0.4,0-0.7-0.1-0.9-0.2
			s-0.2-0.5-0.2-0.9V1314.6z M1074.8,1319v-35.6h4.3v12h6.7v3.8h-6.7v19.7H1074.8z"/>
	</g>
	<g class="st1">
		<path class="st5" d="M1149,1314.6h-20v17.7h-4.5v-17.7h-20.1v-3.7h44.6V1314.6z M1143.9,1306c-1.4-0.3-3-0.8-4.6-1.4
			c-1.7-0.6-3.3-1.4-4.9-2.3c-1.6-0.9-3.1-2-4.4-3.3c-1.4-1.3-2.5-2.7-3.3-4.3c-0.9,1.5-2,2.9-3.2,4.1c-1.3,1.2-2.7,2.3-4.2,3.2
			c-1.5,1-3.1,1.8-4.8,2.4c-1.7,0.6-3.4,1.2-5,1.6l-3.1-3.3c2.3-0.5,4.5-1.1,6.6-2c2.1-0.8,4-1.8,5.6-3c1.6-1.2,2.9-2.5,3.9-4
			c1-1.5,1.6-3.1,1.8-4.9h-14.4v-3.7h33.7v3.8h-14.4c0.1,1.9,0.8,3.7,2,5.2c1.2,1.5,2.6,2.9,4.3,4c1.7,1.2,3.6,2.1,5.6,2.9
			c2,0.8,4,1.3,5.9,1.7L1143.9,1306z"/>
	</g>
</g>
</svg>
