<?xml version="1.0" encoding="utf-8"?>
<!-- Generator: Adobe Illustrator 26.0.1, SVG Export Plug-In . SVG Version: 6.00 Build 0)  -->
<svg version="1.1" id="레이어_1" xmlns="http://www.w3.org/2000/svg" xmlns:xlink="http://www.w3.org/1999/xlink" x="0px"
	 y="0px" viewBox="0 0 2934 1102" style="enable-background:new 0 0 2934 1102;" xml:space="preserve">
<style type="text/css">
	.st0{fill:none;}
	.st1{fill:#255DF0;}
	.st2{fill:#0F3AA8;}
	.st3{enable-background:new    ;}
	.st4{fill:#FFFFFF;}
	.st5{fill:#1767FF;fill-opacity:0.8;}
	.st6{fill:#595959;}
	.st7{fill:none;stroke:#1767FF;stroke-width:4.5833;stroke-miterlimit:8;stroke-opacity:0.8;}
	.st8{fill:#98E294;}
	.st9{fill-rule:evenodd;clip-rule:evenodd;fill:#98E294;}
	.st10{fill-rule:evenodd;clip-rule:evenodd;fill:#FFFFFF;}
	.st11{fill:#FFE054;}
	.st12{fill-rule:evenodd;clip-rule:evenodd;fill:#FFE054;}
	.st13{fill:#FF9900;}
	.st14{fill-rule:evenodd;clip-rule:evenodd;fill:#FF9900;}
	.st15{fill:#C00000;}
	.st16{fill-rule:evenodd;clip-rule:evenodd;fill:#C00000;}
	.st17{fill:#FF00FF;}
	.st18{fill-rule:evenodd;clip-rule:evenodd;fill:#FF00FF;}
	.st19{fill:#5260D0;}
	.st20{fill-rule:evenodd;clip-rule:evenodd;fill:#5260D0;}
	.st21{fill:#254488;}
	.st22{fill-rule:evenodd;clip-rule:evenodd;fill:#254488;}
	.st23{fill-rule:evenodd;clip-rule:evenodd;}
	.st24{fill:none;stroke:#3F6FF0;stroke-width:4.5833;stroke-miterlimit:8;}
	.st25{fill:#CAD9FF;}
	.st26{fill:none;stroke:#7F7F7F;stroke-width:4.5833;stroke-miterlimit:8;}
</style>
<rect class="st0" width="2934" height="1102"/>
<rect x="9" y="3" class="st1" width="2922" height="425"/>
<rect x="11" y="14" class="st2" width="1241" height="112"/>
<g class="st3">
	<path class="st4" d="M1925.4,41.8c0.8,0,1.4,0.2,1.8,0.5c0.4,0.4,0.5,1,0.5,1.8c-1,9.1-4.2,16.8-9.7,23s-13.3,11-23.6,14.4
		l-5.8-6.8c8-2.2,14.3-5.3,19.1-9.5c4.8-4.2,7.9-9.3,9.4-15.5h-24.4v-8h32.7V41.8z M1902.2,83.7h43.8c0.8,0,1.4,0.2,1.8,0.5
		c0.4,0.4,0.5,1,0.5,1.8v24c0,0.9-0.2,1.5-0.5,1.8c-0.4,0.3-1,0.5-1.8,0.5h-43.8c-0.9,0-1.5-0.2-1.8-0.5s-0.5-0.9-0.5-1.8V86.1
		c0-0.8,0.2-1.4,0.5-1.8C1900.7,83.9,1901.3,83.7,1902.2,83.7z M1939.1,104.6v-13h-29.9v13H1939.1z M1948.3,38.8v16.4h9.7v7.9h-9.7
		v17.8h-9.4V38.8H1948.3z"/>
	<path class="st4" d="M1962.1,58.7c0-2.7,0.5-5.1,1.5-7.5c1-2.3,2.3-4.3,4-6.1c1.8-1.7,3.9-3.1,6.3-4.1s5-1.5,7.9-1.5
		c3.3,0,6.3,0.7,9,2s4.9,3,6.6,5.2h15.7v-7.8h9.5v42.3h-9.5V70.4h-15.4c-1.8,2.3-4,4.1-6.7,5.4s-5.8,2-9.2,2c-2.9,0-5.5-0.5-7.9-1.5
		s-4.5-2.3-6.3-4c-1.7-1.7-3.1-3.7-4-6.1C1962.6,63.9,1962.1,61.4,1962.1,58.7z M1981.8,69.9c3.2,0,5.7-1.1,7.5-3.4
		c1.9-2.2,2.8-4.9,2.8-7.8c0-3.1-0.9-5.7-2.8-7.9s-4.4-3.3-7.5-3.3c-3.2,0-5.7,1.1-7.6,3.2s-2.7,4.8-2.7,8c0,3,0.9,5.6,2.7,7.8
		S1978.6,69.9,1981.8,69.9z M1974.9,84.2h45.3c0.8,0,1.4,0.2,1.8,0.5c0.4,0.4,0.5,1,0.5,1.8V110c0,0.9-0.2,1.5-0.5,1.8
		c-0.4,0.3-1,0.5-1.8,0.5h-45.3c-0.9,0-1.5-0.2-1.8-0.5s-0.5-0.9-0.5-1.8V86.6c0-0.8,0.2-1.4,0.5-1.8
		C1973.4,84.4,1974,84.2,1974.9,84.2z M2013.3,104.7V92h-31.4v12.7H2013.3z M2001.1,54.4c0.2,0.7,0.3,1.4,0.4,2.2
		c0.1,0.7,0.1,1.4,0.1,2.2c0,0.7,0,1.4-0.1,2.1c-0.1,0.7-0.2,1.3-0.3,1.9h12v-8.3h-12.1V54.4z"/>
	<path class="st4" d="M2037.4,76.1v-35h9.3v11h16.5v-11h9.3v7.8h13.2v-10h9.3v45.7h-9.3v-13h-13.2v4.6c0,0.9-0.2,1.5-0.5,1.8
		c-0.4,0.3-1,0.5-1.8,0.5h-30.5c-0.9,0-1.5-0.2-1.8-0.5C2037.6,77.6,2037.4,77,2037.4,76.1z M2069.3,84.8c3.8,0,7.2,0.3,10.5,1
		c3.2,0.7,6,1.6,8.4,2.9c2.3,1.3,4.2,2.8,5.5,4.7c1.3,1.9,2,3.9,2,6.3s-0.7,4.6-2,6.4s-3.2,3.4-5.5,4.6c-2.4,1.2-5.2,2.1-8.4,2.8
		c-3.2,0.6-6.7,1-10.5,1s-7.3-0.3-10.5-1c-3.2-0.6-5.9-1.6-8.3-2.8c-2.3-1.3-4.1-2.8-5.4-4.6c-1.3-1.8-1.9-4-1.9-6.4
		c0-2.3,0.7-4.4,2-6.2s3.2-3.4,5.6-4.6c2.4-1.3,5.2-2.3,8.3-2.9C2062.1,85.2,2065.6,84.8,2069.3,84.8z M2063.2,70.5V60h-16.5v10.5
		H2063.2z M2069.3,92.2c-4.8,0-8.7,0.7-11.7,2s-4.5,3.1-4.5,5.4s1.5,4.1,4.5,5.5s6.9,2.1,11.7,2.1c4.9,0,8.8-0.7,11.7-2.1
		s4.4-3.2,4.4-5.4c0-2.3-1.5-4.1-4.4-5.4C2078.1,92.9,2074.2,92.2,2069.3,92.2z M2072.5,56.5v7.3h13.2v-7.3H2072.5z"/>
</g>
<g class="st3">
	<path class="st4" d="M2167.5,80.5c-3.7-1.7-7-3.7-10-6s-5.3-4.8-6.8-7.4c-1.1,2.7-3.3,5.4-6.6,8.1s-6.8,5.2-10.7,7.3l-7-6.2
		c6.1-2.4,10.9-5.6,14.2-9.5c3.3-4,5-8.5,5-13.4V50h-13.4v-8h36.9v7.8h-13.5v3.5c0,4.8,1.6,9,4.8,12.6c3.2,3.6,7.5,6.2,12.8,7.8
		L2167.5,80.5z M2166.2,83.2c3.8,0,7.3,0.4,10.5,1.1s6,1.7,8.4,3.1c2.3,1.3,4.2,3,5.5,4.9c1.4,1.9,2,4.2,2,6.6c0,2.5-0.7,4.8-2,6.7
		c-1.4,1.9-3.2,3.6-5.5,4.9c-2.4,1.3-5.2,2.3-8.4,3s-6.8,1-10.6,1s-7.3-0.3-10.5-1s-6-1.7-8.3-3c-2.4-1.3-4.2-3-5.5-4.9
		s-2-4.2-2-6.7c0-2.4,0.7-4.6,2-6.6c1.4-1.9,3.2-3.6,5.6-5c2.4-1.3,5.2-2.4,8.4-3.1C2159.1,83.5,2162.5,83.2,2166.2,83.2z
		 M2166.2,90.5c-4.8,0-8.7,0.7-11.8,2.2c-3,1.4-4.6,3.4-4.6,6s1.5,4.7,4.6,6.2s7,2.3,11.7,2.3c4.9,0,8.8-0.8,11.8-2.3
		s4.5-3.6,4.5-6.1c0-2.6-1.5-4.6-4.5-6C2175.1,91.3,2171.2,90.5,2166.2,90.5z M2181.9,83.8v-21h-13.8V55h13.8V38.8h9.3v45.1
		L2181.9,83.8L2181.9,83.8z"/>
	<path class="st4" d="M2259,79.7c0,0.9-0.2,1.5-0.5,1.8c-0.4,0.3-1,0.5-1.8,0.5h-18.4v14.9h29.5v8h-68.6v-8h29.4V82h-18.4
		c-0.9,0-1.5-0.2-1.8-0.5s-0.5-0.9-0.5-1.8V41h9.5v12.1h32.3V41h9.4L2259,79.7L2259,79.7z M2249.7,74V61h-32.3v13H2249.7z"/>
</g>
<g class="st3">
	<path class="st4" d="M282.3,168.8h-12.8v1.5c0,2.7,0.5,5.1,1.4,7.3s2.2,4.1,3.7,5.8c1.6,1.7,3.3,3.2,5.3,4.4s4.1,2.2,6.3,2.8
		l-3.7,4.2c-1.3-0.5-2.7-1.2-4.2-2.1c-1.5-0.9-3-1.9-4.5-3c-1.5-1.2-2.8-2.5-4.2-3.9c-1.3-1.4-2.4-3-3.3-4.8
		c-1.2,3.4-3.3,6.4-6.3,9.1c-3,2.7-6.3,4.9-9.9,6.6l-4.3-3.9c2.3-0.9,4.5-2.1,6.6-3.5s3.9-3.1,5.5-5c1.6-1.8,2.9-4,3.8-6.3
		c0.9-2.4,1.4-5,1.4-7.9v-1.3h-12.8v-5h31.6v5H282.3z M259.8,201.4h37.4c0.6,0,1,0.1,1.2,0.3s0.3,0.6,0.3,1.2v20.3
		c0,0.6-0.1,1-0.3,1.2s-0.6,0.3-1.2,0.3h-37.4c-0.6,0-1-0.1-1.2-0.3s-0.3-0.6-0.3-1.2v-20.3c0-0.6,0.1-1,0.3-1.2
		C258.8,201.5,259.2,201.4,259.8,201.4z M263.9,220H293v-13.8h-29.1V220z M298.5,160.8v14.4h8v5.1h-8v17.8h-5.6v-37.3H298.5z"/>
	<path class="st4" d="M317.4,185v-23.5h5.6v7.4h32.3v-7.4h5.7V185c0,0.6-0.1,1-0.3,1.2s-0.6,0.3-1.2,0.3h-17.4v8h26.7v5h-59.3v-5
		h26.7v-8h-17.4c-0.6,0-1-0.1-1.2-0.3S317.4,185.6,317.4,185z M359.3,205.9c0.6,0,1,0.1,1.2,0.3s0.3,0.6,0.3,1.2v18.5H355v-15.1
		h-38.3v-5h42.6V205.9z M323,181.6h32.3v-8.1H323V181.6z"/>
	<path class="st4" d="M406.4,164.5c0.6,0,1,0.1,1.2,0.3s0.3,0.6,0.3,1.2c-0.2,5.1-1.1,9.9-2.5,14.4s-3.4,8.7-5.8,12.6
		c-2.4,3.9-5.3,7.4-8.6,10.6c-3.3,3.2-7,5.9-11,8.3l-4.7-3.9c7.5-3.9,13.6-9.2,18.2-15.7s7.2-14.1,7.9-22.7h-22.3v-5h27.3V164.5z
		 M421.5,225.5v-64.7h5.8v64.7H421.5z"/>
</g>
<g class="st3">
	<path class="st4" d="M438.7,321.7c1.6,0,3.1,0.3,4.5,0.8s2.5,1.3,3.4,2.2c1,0.9,1.7,2,2.2,3.3s0.8,2.7,0.8,4.2c0,3.1-1,5.6-3.1,7.5
		c-2,1.9-4.7,2.9-8,2.9c-1.7,0-3.2-0.3-4.6-0.8s-2.5-1.3-3.4-2.2c-1-0.9-1.7-2-2.2-3.3s-0.8-2.7-0.8-4.1c0-1.5,0.3-2.9,0.8-4.2
		c0.5-1.3,1.2-2.4,2.2-3.3s2.1-1.7,3.5-2.2S437,321.7,438.7,321.7z M438.6,324.4c-2.6,0-4.5,0.8-5.9,2.2c-1.3,1.5-1.9,3.3-1.9,5.5
		s0.6,4,1.9,5.5s3.2,2.2,5.9,2.2c2.5,0,4.5-0.8,5.8-2.2s2-3.3,2-5.5s-0.7-4-2-5.5S441.1,324.4,438.6,324.4z M461.5,357.2h-24.2v5.2
		h26.2v2.6H435c-0.4,0-0.6-0.1-0.8-0.2c-0.1-0.1-0.2-0.4-0.2-0.8v-8.6c0-0.3,0.1-0.6,0.2-0.7s0.4-0.2,0.8-0.2h24.2v-5.2h-25.1v-2.7
		h27.4c0.3,0,0.6,0.1,0.7,0.2s0.2,0.4,0.2,0.7v8.7c0,0.4-0.1,0.6-0.2,0.8C462.1,357.1,461.8,357.2,461.5,357.2z M459.3,321.2h3.1
		v23.1h-3.1V321.2z"/>
</g>
<g class="st3">
	<path class="st4" d="M1075.6,166.8c0.6,0,1,0.1,1.2,0.3s0.3,0.6,0.3,1.2c-0.8,8-3.8,14.7-8.8,20.1c-5.1,5.4-11.9,9.6-20.5,12.4
		l-3.7-4.2c3.1-0.9,6.1-2,9-3.4s5.6-3.1,8-5.2c2.4-2,4.4-4.4,6.1-7.1c1.7-2.7,2.9-5.7,3.6-9.2h-23.1v-5L1075.6,166.8L1075.6,166.8z
		 M1055.9,203.8h37.6c0.6,0,1,0.1,1.2,0.3s0.3,0.6,0.3,1.2v20.9c0,0.6-0.1,1-0.3,1.2c-0.2,0.2-0.6,0.3-1.2,0.3h-37.6
		c-0.6,0-1-0.1-1.2-0.3s-0.3-0.6-0.3-1.2v-20.9c0-0.6,0.1-1,0.3-1.2C1054.9,203.9,1055.3,203.8,1055.9,203.8z M1060.1,223h29.3
		v-14.4l-29.3,0.1V223z M1103.8,183.9h-9v16.4h-5.7v-36.4h5.7v15h9V183.9z"/>
	<path class="st4" d="M1109,180.8c0-2.2,0.4-4.4,1.2-6.4c0.8-2,2-3.7,3.5-5.2s3.2-2.6,5.3-3.5c2.1-0.9,4.3-1.3,6.8-1.3
		c2.9,0,5.5,0.6,7.9,1.8s4.2,2.8,5.7,4.8h15.4v-7.2h5.8v36.6h-5.8v-10.1h-15.3c-1.5,2-3.4,3.7-5.8,4.9s-5,1.8-8,1.8
		c-2.5,0-4.8-0.4-6.8-1.3c-2.1-0.9-3.8-2-5.3-3.5s-2.7-3.2-3.5-5.1C1109.4,185.2,1109,183.1,1109,180.8z M1114.9,180.7
		c0,3.1,0.9,5.8,2.8,8s4.6,3.3,8.1,3.3c3.4,0,6.1-1.1,8-3.3s2.8-4.8,2.8-8c0-3.1-0.9-5.7-2.8-7.9s-4.6-3.3-8-3.3
		c-3.5,0-6.2,1.1-8.1,3.3S1114.9,177.7,1114.9,180.7z M1120.1,204h38.9c0.6,0,1,0.1,1.2,0.3s0.3,0.6,0.3,1.2v20.7
		c0,0.6-0.1,1-0.3,1.2c-0.2,0.2-0.6,0.3-1.2,0.3h-38.9c-0.6,0-1-0.1-1.2-0.3s-0.3-0.6-0.3-1.2v-20.7c0-0.6,0.1-1,0.3-1.2
		S1119.6,204,1120.1,204z M1124.4,223h30.4v-14.2h-30.4V223z M1141.9,175.9c0.2,0.8,0.4,1.6,0.5,2.4c0.1,0.8,0.2,1.7,0.2,2.5
		s-0.1,1.6-0.2,2.4c-0.1,0.8-0.3,1.5-0.5,2.2h12.8v-9.5L1141.9,175.9L1141.9,175.9z"/>
</g>
<g class="st3">
	<path class="st4" d="M1225.7,167.5c0.6,0,1,0.1,1.2,0.3s0.3,0.6,0.3,1.2c-0.2,5.1-1.1,9.9-2.5,14.4s-3.4,8.7-5.8,12.6
		c-2.4,3.9-5.3,7.4-8.6,10.6c-3.3,3.2-7,5.9-11,8.3l-4.7-3.9c7.5-3.9,13.6-9.2,18.2-15.7s7.2-14.1,7.9-22.7h-22.3v-5h27.3V167.5z
		 M1240.8,228.5v-64.7h5.8v64.7H1240.8z"/>
	<path class="st4" d="M1288.7,166.8c0.6,0,1,0.1,1.2,0.3s0.3,0.6,0.3,1.2c-0.4,4.3-1.4,8.3-3,12s-3.7,6.9-6.3,9.9
		c-2.6,3-5.6,5.6-9.1,7.8c-3.5,2.3-7.3,4.1-11.4,5.7l-3.9-4.3c7.6-2.5,13.8-6.2,18.7-11c4.8-4.8,7.7-10.3,8.6-16.6h-23v-5
		L1288.7,166.8L1288.7,166.8z M1267.6,206.4h5.8v15.8h36.8v5h-41c-0.6,0-1-0.1-1.2-0.3s-0.3-0.6-0.3-1.2v-19.3H1267.6z M1308,163.8
		v19.5h9v5.1h-9v22.7h-5.6v-47.3H1308z"/>
</g>
<g class="st3">
	<path class="st4" d="M1961.9,170.8h31.5v4.9h-12.8v4c0,2.4,0.4,4.7,1.2,6.8s1.9,3.9,3.2,5.6c1.6,2.2,3.5,4,5.8,5.5
		c2.2,1.5,4.5,2.6,6.6,3.4c-0.7,0.7-1.4,1.4-2.1,2.3c-0.7,0.8-1.3,1.5-1.7,2.1c-1.3-0.6-2.7-1.4-4.3-2.4c-1.5-1-3-2.2-4.5-3.5
		c-1.4-1.2-2.7-2.5-4-4c-1.2-1.5-2.3-3.1-3.2-4.9c-0.7,1.8-1.5,3.6-2.6,5.1c-1,1.6-2.2,3.1-3.5,4.4c-1.5,1.4-3,2.7-4.7,3.9
		s-3.4,2.2-5.1,3.1c-0.4-0.5-1.1-1.1-2.1-2c-0.9-0.8-1.7-1.5-2.4-2c2.6-1.1,5-2.6,7.4-4.3s4.3-3.8,6-6.1c1.3-1.8,2.3-3.8,3-6
		c0.8-2.2,1.1-4.6,1.1-7.2v-3.9h-12.9L1961.9,170.8L1961.9,170.8z M1971.6,231.2c-0.6,0-1-0.1-1.2-0.3s-0.3-0.6-0.3-1.2v-19.2h5.9
		v15.8h37.7v5h-42.1V231.2z M2006.2,167.8h5.7v47.5h-5.7v-27.1h-13.5v-5.1h13.5V167.8z"/>
	<path class="st4" d="M2021.5,210.5h7.7l-0.3-33.8h-5.9v-5.1h35.5v5.1h-6.2l-0.1,33.4c2-0.1,3.9-0.2,5.6-0.4s3.4-0.4,5-0.6v5
		c-1.8,0.3-3.6,0.5-5.7,0.7c-2,0.2-4.1,0.3-6.3,0.4c-2.1,0.1-4.3,0.2-6.4,0.3c-2.1,0-4.2,0.1-6.1,0.1h-16.7v-5.1H2021.5z
		 M2034.9,210.5h1.6c1.7,0,3.4,0,5,0c1.7,0,3.3-0.1,4.8-0.1l0.3-33.7h-12L2034.9,210.5z M2081.4,194.3h-9.6v38.3h-5.8v-64.8h5.8V189
		h9.6V194.3z"/>
</g>
<g class="st3">
	<path class="st4" d="M2128.5,182.3c4.7,0,8.5,0.8,11.4,2.4c2.9,1.6,4.4,3.7,4.4,6.4c0,2.3-1.2,4.2-3.5,5.8c-2.4,1.6-5.4,2.6-9,3
		v5.3c1.2,0,2.7,0,4.3-0.1c1.7-0.1,3.4-0.2,5.2-0.4c1.8-0.1,3.5-0.3,5.2-0.5s3.1-0.4,4.3-0.5v4.6c-1.6,0.3-3.4,0.5-5.4,0.7
		s-4.1,0.4-6.3,0.5s-4.4,0.3-6.6,0.3c-2.2,0.1-4.4,0.1-6.4,0h-18.5v-4.7h18.1V200c-3.8-0.3-6.9-1.3-9.3-2.9
		c-2.4-1.6-3.6-3.6-3.6-5.9c0-2.7,1.5-4.8,4.4-6.4C2120,183.1,2123.8,182.3,2128.5,182.3z M2110.3,175.1h35.7v4.2h-35.7V175.1z
		 M2157.2,215.8c0.6,0,1,0.1,1.2,0.3s0.3,0.6,0.3,1.2v15.5h-5.8v-12.3h-37.3v-4.7H2157.2z M2128.5,186.4c-3,0-5.3,0.5-7,1.4
		s-2.6,2.1-2.6,3.7c0,1.5,0.9,2.6,2.6,3.5c1.7,0.9,4.1,1.3,7,1.3s5.3-0.4,7-1.3c1.7-0.9,2.6-2,2.6-3.5c0-1.6-0.9-2.8-2.6-3.7
		C2133.8,186.8,2131.4,186.4,2128.5,186.4z M2119.3,167.5h18.1v4.2h-18.1V167.5z M2158.8,167.8v20.4h9.1v5.1h-9.1v19.3h-5.6v-44.7
		h5.6V167.8z"/>
	<path class="st4" d="M2229.4,201.8h-15.9v6.1h6.4c0.6,0,1,0.1,1.2,0.3s0.3,0.6,0.3,1.2v11c0,0.6-0.1,1-0.3,1.2s-0.6,0.3-1.2,0.3
		h-35.6v5.8h38.8v4.2h-43.4c-0.6,0-1-0.1-1.2-0.3s-0.3-0.6-0.3-1.2v-11c0-0.6,0.1-1,0.3-1.2s0.6-0.3,1.2-0.3h35.6v-5.7H2178V208h8.3
		v-6.1h-16.2v-4.3h59.2L2229.4,201.8L2229.4,201.8z M2179.6,192.6c-0.6,0-1-0.1-1.2-0.3s-0.3-0.6-0.3-1.2v-10.7c0-0.6,0.1-1,0.3-1.2
		s0.6-0.3,1.2-0.3h35.3v-5.5H2178v-4.2h41.5c0.6,0,1,0.1,1.2,0.3s0.3,0.6,0.3,1.2v10.7c0,0.6-0.1,1-0.3,1.2s-0.6,0.3-1.2,0.3h-35.3
		v5.5h38.3v4.2H2179.6z M2207.7,207.9v-6.1h-15.6v6.1H2207.7z"/>
</g>
<g class="st3">
	<path class="st4" d="M2492.2,200.9h59.3v4.8h-26.6v8c6.5,0.3,11.5,1.6,14.9,3.9c3.4,2.2,5.1,5,5.1,8.2c0,3.5-2,6.4-6,8.7
		s-9.7,3.4-17.2,3.4s-13.2-1.1-17.2-3.4c-4-2.3-6-5.1-6-8.7c0-3.2,1.7-5.9,5.1-8.2c3.4-2.2,8.4-3.5,14.9-3.9v-8h-26.6v-4.8H2492.2z
		 M2544.1,178.5h-18.9c0.5,1.9,1.5,3.6,3.1,5.1s3.5,2.7,5.7,3.8c2.1,1,4.5,1.9,6.9,2.6s4.9,1.2,7.2,1.5l-3.5,4.5
		c-1.8-0.3-3.8-0.8-6-1.4s-4.4-1.4-6.5-2.4c-2.1-0.9-4.1-2.1-6-3.4c-1.9-1.3-3.3-2.9-4.3-4.8c-1.2,1.7-2.6,3.2-4.3,4.5
		s-3.6,2.5-5.5,3.4c-2,1-4.1,1.8-6.4,2.4c-2.2,0.7-4.5,1.2-6.7,1.6l-3.5-4.5c2.5-0.4,5.1-0.9,7.6-1.6c2.6-0.7,4.9-1.5,7-2.6
		c2.1-1,4-2.3,5.4-3.7c1.5-1.4,2.5-3.1,3-5.1h-18.9v-4.8h44.6L2544.1,178.5L2544.1,178.5z M2505.1,225.7c0,2.3,1.5,4.2,4.5,5.6
		c3,1.4,7.1,2.1,12.2,2.1c4.9,0,8.9-0.7,12-2.1c3.1-1.4,4.6-3.2,4.6-5.6c0-2.4-1.5-4.3-4.6-5.6s-7.1-2-12-2c-5.1,0-9.2,0.6-12.2,1.9
		C2506.7,221.3,2505.1,223.2,2505.1,225.7z"/>
	<path class="st4" d="M2556,201.7h59.2v5H2556V201.7z M2607.8,178.6h-18.9c0.3,2,1.3,3.8,2.9,5.4c1.6,1.6,3.5,3,5.7,4.2
		s4.5,2.1,7.1,2.9c2.5,0.8,4.9,1.3,7.2,1.5l-3.6,4.3c-1.8-0.3-3.8-0.8-5.9-1.5s-4.3-1.5-6.4-2.4c-2.1-1-4.1-2.2-5.9-3.6
		c-1.8-1.4-3.3-2.9-4.5-4.7c-2.4,3.3-5.7,6-9.8,8s-8.4,3.4-13,4.3l-3.7-4.4c2.5-0.4,5.1-1,7.7-1.7c2.6-0.8,5-1.7,7.2-2.9
		c2.1-1.2,4-2.5,5.4-4.1s2.4-3.3,2.7-5.2h-18.8v-4.9h44.5v4.8H2607.8z M2562.4,225c0-3.7,2-6.7,5.9-9.1c4-2.4,9.7-3.6,17.2-3.6
		s13.2,1.2,17.2,3.6c4,2.4,6,5.4,6,9.1s-2,6.8-6,9.2s-9.7,3.6-17.2,3.6s-13.2-1.2-17.2-3.6C2564.4,231.7,2562.4,228.7,2562.4,225z
		 M2568.8,225.1c0,2.6,1.5,4.6,4.5,6.1s7.1,2.2,12.2,2.2c4.9,0,8.9-0.7,12-2.2c3.1-1.4,4.6-3.4,4.6-6s-1.5-4.7-4.6-6.2
		s-7.1-2.3-12-2.3c-5.1,0-9.2,0.7-12.2,2.2C2570.3,220.4,2568.8,222.4,2568.8,225.1z"/>
	<path class="st4" d="M2623,197.9c0-4.2,0.4-7.9,1.2-11s1.9-5.7,3.4-7.7s3.2-3.5,5.1-4.5c1.9-1,4.1-1.5,6.4-1.5
		c2.1,0,4.2,0.5,6.1,1.5c1.9,1,3.7,2.5,5.1,4.6c1.5,2,2.6,4.5,3.5,7.6c0.8,3.1,1.3,6.7,1.3,10.9s-0.4,7.8-1.3,10.9
		c-0.9,3.1-2,5.6-3.5,7.7c-1.5,2-3.2,3.6-5.1,4.6c-1.9,1-4,1.5-6.2,1.5s-4.3-0.5-6.3-1.5c-1.9-1-3.7-2.5-5.1-4.5
		c-1.5-2-2.6-4.6-3.4-7.7C2623.4,205.8,2623,202.1,2623,197.9z M2628.7,197.9c0,2.6,0.2,5.1,0.6,7.5c0.4,2.4,1,4.4,1.9,6.2
		s2,3.2,3.2,4.2c1.3,1,2.8,1.5,4.6,1.5s3.3-0.5,4.5-1.5c1.3-1,2.3-2.4,3.2-4.2c0.8-1.8,1.4-3.8,1.9-6.2c0.4-2.4,0.6-4.9,0.6-7.5
		s-0.2-5-0.6-7.4s-1-4.4-1.9-6.2c-0.8-1.8-1.9-3.2-3.2-4.2c-1.3-1.1-2.8-1.6-4.6-1.6s-3.4,0.5-4.7,1.6s-2.4,2.5-3.2,4.3
		c-0.9,1.8-1.5,3.9-1.9,6.2C2628.9,193,2628.7,195.4,2628.7,197.9z M2673.4,171.8v64.8h-5.8v-64.8H2673.4z"/>
	<path class="st4" d="M2705.4,186.1c4.7,0,8.5,0.8,11.4,2.5s4.3,4,4.3,6.9c0,2.5-1.2,4.6-3.5,6.2c-2.4,1.7-5.4,2.7-9,3.1v5.5
		c1.3,0,2.8,0,4.5-0.1s3.4-0.2,5.2-0.4c1.8-0.1,3.4-0.3,5.1-0.5c1.6-0.2,3-0.4,4.2-0.5v4.5c-3.3,0.5-7.3,0.9-11.9,1.2
		c-4.6,0.3-9.3,0.5-14,0.5h-17.2v-4.6h18v-5.5c-3.7-0.4-6.7-1.4-9.1-3.1s-3.5-3.8-3.5-6.2c0-2.9,1.4-5.2,4.3-6.9
		C2696.9,187,2700.7,186.1,2705.4,186.1z M2687.3,179.3h35.7v4.2h-35.7V179.3z M2696.3,235.2c-0.6,0-1-0.1-1.2-0.3s-0.3-0.6-0.3-1.2
		v-14.6h6.1v11.1h37.1v5H2696.3z M2705.4,190c-3,0-5.3,0.5-7,1.5s-2.6,2.4-2.6,4.1c0,1.6,0.9,2.9,2.6,3.9c1.7,1,4,1.5,7,1.5
		s5.3-0.5,7-1.5s2.6-2.3,2.6-3.9c0-1.8-0.9-3.1-2.6-4.1C2710.7,190.5,2708.3,190,2705.4,190z M2696.3,171.5h18.1v4.2h-18.1V171.5z
		 M2735.6,171.9v20.7h9.1v5.2h-9.1v24h-5.6v-49.9H2735.6z"/>
	<path class="st4" d="M2806.1,205.8h-15.9v6.1h6.4c0.6,0,1,0.1,1.2,0.3s0.3,0.6,0.3,1.2v11c0,0.6-0.1,1-0.3,1.2s-0.6,0.3-1.2,0.3
		H2761v5.8h38.8v4.2h-43.4c-0.6,0-1-0.1-1.2-0.3s-0.3-0.6-0.3-1.2v-11c0-0.6,0.1-1,0.3-1.2s0.6-0.3,1.2-0.3h35.6v-5.7h-37.2V212h8.3
		v-6.1h-16.2v-4.3h59.2L2806.1,205.8L2806.1,205.8z M2756.3,196.6c-0.6,0-1-0.1-1.2-0.3s-0.3-0.6-0.3-1.2v-10.7c0-0.6,0.1-1,0.3-1.2
		s0.6-0.3,1.2-0.3h35.3v-5.5h-36.8v-4.2h41.5c0.6,0,1,0.1,1.2,0.3s0.3,0.6,0.3,1.2v10.7c0,0.6-0.1,1-0.3,1.2s-0.6,0.3-1.2,0.3H2761
		v5.5h38.3v4.2H2756.3z M2784.4,211.9v-6.1h-15.6v6.1H2784.4z"/>
</g>
<g class="st3">
	<path class="st4" d="M2818.9,169.8l3,6.5l2.9-6.5l3.2,1.7l-4,6.2l6.7-0.6v3.4l-6.6-0.6l3.9,6.3l-3.2,1.7l-2.9-6.6l-3,6.7l-3.2-1.8
		l4.1-6.3l-6.6,0.5V177l6.6,0.6l-4.2-6.1L2818.9,169.8z"/>
</g>
<g class="st3">
	<path d="M67.6,447l3.2,6.9L74,447l2.6,1.4l-4.2,6.5l7-0.5v2.8l-7.1-0.5l4.2,6.7l-2.6,1.4l-3.1-7.1l-3.2,7.2l-2.6-1.5l4.3-6.7
		l-7,0.5v-2.8l6.9,0.5l-4.4-6.5L67.6,447z"/>
</g>
<g class="st3">
	<path d="M115.9,447.1c0.3,0,0.6,0.1,0.7,0.2c0.1,0.2,0.2,0.4,0.2,0.7c-0.7,5.1-2.6,9.6-5.9,13.4s-8,6.8-14,8.9l-2.4-2.4
		c5.6-1.8,10-4.2,13.1-7.2c3.2-3,5.1-6.7,5.9-11H97.2v-2.6H115.9z M127.8,488h-25c-0.4,0-0.6-0.1-0.7-0.2s-0.2-0.4-0.2-0.7V473
		c0-0.3,0.1-0.6,0.2-0.7s0.4-0.2,0.7-0.2h25c0.3,0,0.6,0.1,0.7,0.2c0.1,0.1,0.2,0.4,0.2,0.7v14c0,0.4-0.1,0.6-0.2,0.7
		C128.4,487.9,128.2,488,127.8,488z M105,474.7v10.7h20.7v-10.7H105z M125.5,445h3.1v10.5h6.4v2.7h-6.4v11.4h-3.1
		C125.5,469.6,125.5,445,125.5,445z"/>
	<path d="M149.8,445.5c2,0,3.8,0.4,5.4,1.3c1.6,0.9,2.8,2,3.8,3.3h10.7V445h3.1v24.7h-3.1v-7.3h-10.5c-0.9,1.5-2.2,2.7-3.9,3.6
		c-1.6,0.9-3.5,1.3-5.6,1.3c-1.7,0-3.2-0.3-4.6-0.9c-1.4-0.6-2.5-1.4-3.5-2.4c-0.9-1-1.7-2.1-2.2-3.5c-0.5-1.3-0.8-2.7-0.8-4.2
		s0.3-2.9,0.8-4.2c0.5-1.3,1.3-2.5,2.3-3.5c0.9-1,2.1-1.8,3.5-2.3C146.6,445.8,148.1,445.5,149.8,445.5z M149.8,448.2
		c-2.5,0-4.5,0.8-5.8,2.4s-2,3.5-2,5.7c0,1.1,0.2,2.2,0.5,3.2s0.8,1.9,1.5,2.7c0.7,0.8,1.5,1.3,2.4,1.8c1,0.4,2.1,0.7,3.4,0.7
		c1.3,0,2.4-0.2,3.4-0.7c1-0.4,1.8-1,2.5-1.8s1.2-1.7,1.6-2.7c0.4-1,0.5-2,0.5-3.2c0-2.2-0.7-4.1-2.1-5.7
		C154.3,449,152.3,448.2,149.8,448.2z M171.9,488h-25.8c-0.4,0-0.6-0.1-0.7-0.2c-0.1-0.1-0.2-0.4-0.2-0.7V473c0-0.3,0.1-0.6,0.2-0.7
		c0.1-0.1,0.4-0.2,0.7-0.2h25.8c0.3,0,0.6,0.1,0.7,0.2c0.1,0.1,0.2,0.4,0.2,0.7v14c0,0.4-0.1,0.6-0.2,0.7
		C172.5,487.9,172.3,488,171.9,488z M148.3,474.7v10.7h21.5v-10.7H148.3z M160.3,452.7c0.2,0.6,0.3,1.2,0.4,1.8
		c0.1,0.6,0.1,1.3,0.1,1.9s0,1.2-0.1,1.7c-0.1,0.6-0.2,1.1-0.4,1.6h9.3v-7.1h-9.3V452.7z"/>
	<path d="M181.9,447.6h22.7v2.6h-9.9v4.5c0,4.6,1.1,8.7,3.2,12.2s5.3,6.5,9.5,9l-2.5,2.4c-2.5-1.7-4.9-3.8-7-6.2
		c-2.1-2.4-3.7-5.3-4.8-8.5c-0.4,1.5-1,3-1.7,4.5c-0.8,1.5-1.7,2.9-2.7,4.3s-2.1,2.7-3.3,3.9c-1.2,1.2-2.5,2.3-3.8,3.3l-3-2.2
		c4.1-2.6,7.4-5.9,9.6-9.9c2.3-4,3.4-8.5,3.4-13.7v-3.5h-9.7V447.6z M210.5,445h3.2v17h6.7v2.7h-6.7v23.8h-3.2V445z"/>
</g>
<g class="st3">
	<path d="M234.9,464.7h39.9v2.6h-18.4v5.8c4.5,0.2,7.9,1.1,10.4,2.6c2.4,1.5,3.7,3.4,3.7,5.6c0,2.4-1.4,4.3-4.1,5.8
		s-6.5,2.3-11.5,2.3c-4.9,0-8.8-0.8-11.5-2.3s-4.1-3.5-4.1-5.8c0-2.2,1.2-4,3.7-5.6c2.4-1.5,5.9-2.4,10.3-2.6v-5.8h-18.4V464.7z
		 M240.1,446.3h29.6v2.5h-13c0.1,1.2,0.5,2.4,1.4,3.5s2,2.1,3.5,2.9c1.4,0.9,3.1,1.6,5,2.3c1.9,0.6,3.9,1.1,6,1.4l-2.2,2.4
		c-3.3-0.7-6.4-1.8-9.2-3.2c-2.8-1.5-4.9-3.3-6.2-5.6c-1.6,2.3-3.6,4.1-6.1,5.5s-5.6,2.5-9.5,3.3l-2.2-2.4c4.8-0.8,8.6-2.1,11.4-3.9
		c2.8-1.8,4.3-3.9,4.5-6.2H240v-2.5H240.1z M254.9,475.5c-1.8,0-3.4,0.1-4.9,0.4s-2.8,0.6-3.9,1.1c-1.1,0.5-2,1.1-2.6,1.8
		c-0.6,0.7-0.9,1.5-0.9,2.4c0,0.8,0.3,1.6,0.9,2.3c0.6,0.7,1.5,1.3,2.6,1.8s2.4,0.9,3.9,1.2c1.5,0.3,3.2,0.4,4.9,0.4
		c1.8,0,3.4-0.1,4.9-0.4s2.8-0.6,3.9-1.1s1.9-1.1,2.5-1.8c0.6-0.7,0.9-1.5,0.9-2.3c0-0.9-0.3-1.7-0.9-2.4c-0.6-0.7-1.5-1.3-2.5-1.7
		c-1.1-0.5-2.4-0.9-3.9-1.1C258.3,475.7,256.6,475.5,254.9,475.5z"/>
</g>
<g class="st3">
	<path d="M291.1,464.7H331v2.6h-18.4v5.8c4.5,0.2,7.9,1.1,10.4,2.6c2.4,1.5,3.7,3.4,3.7,5.6c0,2.4-1.4,4.3-4.1,5.8
		s-6.5,2.3-11.5,2.3c-4.9,0-8.8-0.8-11.5-2.3s-4.1-3.5-4.1-5.8c0-2.2,1.2-4,3.7-5.6c2.4-1.5,5.9-2.4,10.3-2.6v-5.8h-18.4V464.7z
		 M296.2,446.3h29.6v2.5h-13c0.1,1.2,0.5,2.4,1.4,3.5s2,2.1,3.5,2.9c1.4,0.9,3.1,1.6,5,2.3c1.9,0.6,3.9,1.1,6,1.4l-2.2,2.4
		c-3.3-0.7-6.4-1.8-9.2-3.2c-2.8-1.5-4.9-3.3-6.2-5.6c-1.6,2.3-3.6,4.1-6.1,5.5s-5.6,2.5-9.5,3.3l-2.2-2.4c4.8-0.8,8.6-2.1,11.4-3.9
		s4.3-3.9,4.5-6.2h-13.1v-2.5H296.2z M311,475.5c-1.8,0-3.4,0.1-4.9,0.4s-2.8,0.6-3.9,1.1s-2,1.1-2.6,1.8c-0.6,0.7-0.9,1.5-0.9,2.4
		c0,0.8,0.3,1.6,0.9,2.3c0.6,0.7,1.5,1.3,2.6,1.8s2.4,0.9,3.9,1.2c1.5,0.3,3.2,0.4,4.9,0.4c1.8,0,3.4-0.1,4.9-0.4s2.8-0.6,3.9-1.1
		s1.9-1.1,2.5-1.8c0.6-0.7,0.9-1.5,0.9-2.3c0-0.9-0.3-1.7-0.9-2.4c-0.6-0.7-1.5-1.3-2.5-1.7c-1.1-0.5-2.4-0.9-3.9-1.1
		C314.4,475.7,312.8,475.5,311,475.5z"/>
	<path d="M333.8,465.5h39.9v2.6h-39.9V465.5z M338.9,446.3h29.6v2.5h-13c0.1,1.2,0.5,2.4,1.4,3.6c0.9,1.1,2,2.2,3.5,3.1
		c1.4,0.9,3.1,1.8,5,2.5s3.9,1.2,6,1.5l-2.2,2.4c-3.3-0.7-6.4-1.8-9.2-3.2s-4.9-3.3-6.2-5.6c-1.6,2.3-3.6,4.1-6.1,5.5
		s-5.6,2.5-9.5,3.3l-2.2-2.4c4.8-0.8,8.6-2.2,11.4-4.2s4.3-4.1,4.5-6.5h-13.1v-2.5H338.9z M353.7,472.2c2.4,0,4.6,0.2,6.5,0.7
		s3.5,1.1,4.8,1.9s2.3,1.7,3,2.7s1,2.1,1,3.3c0,1.2-0.3,2.3-1,3.3s-1.7,1.9-3,2.7c-1.3,0.8-2.9,1.3-4.8,1.8
		c-1.9,0.4-4.1,0.7-6.5,0.7c-2.5,0-4.7-0.2-6.6-0.7c-1.9-0.4-3.5-1-4.8-1.8s-2.3-1.7-3-2.7s-1-2.1-1-3.3c0-1.1,0.3-2.2,1-3.3
		c0.7-1,1.7-2,3-2.7c1.3-0.8,2.9-1.4,4.8-1.9C349.1,472.5,351.3,472.2,353.7,472.2z M353.7,474.7c-3.6,0-6.5,0.6-8.7,1.7
		c-2.3,1.1-3.4,2.6-3.4,4.4c0,0.8,0.3,1.6,0.9,2.4s1.4,1.4,2.5,1.9c1,0.6,2.3,1,3.8,1.3s3.1,0.5,4.9,0.5s3.4-0.2,4.9-0.5
		s2.7-0.7,3.8-1.2c1-0.6,1.9-1.2,2.5-1.9c0.6-0.7,0.9-1.5,0.9-2.4c0-1.8-1.1-3.2-3.4-4.3S357.3,474.7,353.7,474.7z"/>
</g>
<g class="st3">
	<path d="M394.5,461.2c0-1.7,0.9-3.2,2.7-4.3c1.8-1.1,4.3-1.7,7.6-1.7c3.2,0,5.7,0.6,7.5,1.7s2.7,2.5,2.7,4.3c0,1.6-0.7,2.9-2.2,3.9
		c-1.5,1.1-3.6,1.7-6.3,1.9v4.2c1.1,0,2.3-0.1,3.5-0.1s2.5-0.1,3.8-0.2c1.2-0.1,2.4-0.2,3.6-0.3c1.1-0.1,2.1-0.3,2.9-0.4v2.5
		c-2,0.3-4,0.6-6,0.7s-4,0.3-6.1,0.3s-4.2,0.1-6.3,0.1c-2.1,0-4.4,0-6.6,0h-4.8v-2.5h12.7V467c-2.8-0.2-5-0.8-6.5-1.9
		C395.2,464.1,394.5,462.7,394.5,461.2z M392.5,450.6h24.1v2.4h-24.1V450.6z M411.9,461.3c0-1.1-0.7-2-2-2.6c-1.3-0.7-3.1-1-5.3-1
		c-2.2,0-4,0.3-5.3,1s-2,1.6-2,2.6s0.7,1.8,2,2.5c1.3,0.6,3.1,1,5.3,1c2.2,0,4-0.3,5.3-1C411.3,463.1,411.9,462.3,411.9,461.3z
		 M398.7,487.5c-0.4,0-0.6-0.1-0.7-0.2s-0.2-0.4-0.2-0.7v-9.9h3.1v8.2h25.3v2.6H398.7z M398.6,444.9h12.1v2.4h-12.1V444.9z
		 M421.6,445h3.1v14.8h6.3v2.7h-6.3v16.1h-3.1V445z"/>
	<path d="M434.8,447.6h22.7v2.6h-9.9v4.5c0,4.6,1.1,8.7,3.2,12.2s5.3,6.5,9.5,9l-2.5,2.4c-2.5-1.7-4.9-3.8-7-6.2
		c-2.1-2.4-3.7-5.3-4.8-8.5c-0.4,1.5-1,3-1.7,4.5c-0.8,1.5-1.7,2.9-2.7,4.3s-2.1,2.7-3.3,3.9c-1.2,1.2-2.5,2.3-3.8,3.3l-3-2.2
		c4.1-2.6,7.4-5.9,9.6-9.9c2.3-4,3.4-8.5,3.4-13.7v-3.5h-9.7L434.8,447.6L434.8,447.6z M463.3,445h3.2v17h6.7v2.7h-6.7v23.8h-3.2
		V445z"/>
	<path d="M507.8,460.5h-24.3v8h26.9v2.5h-14.1v8.8H515v2.6h-40v-2.6h18.5V471h-12c-0.4,0-0.6-0.1-0.7-0.2c-0.1-0.2-0.2-0.4-0.2-0.7
		v-11.3c0-0.3,0.1-0.5,0.2-0.7c0.1-0.1,0.4-0.2,0.7-0.2h24.2v-8.2h-25.3v-2.5h27.4c0.3,0,0.6,0.1,0.7,0.2c0.1,0.2,0.2,0.4,0.2,0.7
		v11.5c0,0.3-0.1,0.6-0.2,0.7C508.4,460.5,508.2,460.5,507.8,460.5z"/>
</g>
<g class="st3">
	<path d="M534.9,466.3c-0.4,0-0.6-0.1-0.7-0.2c-0.1-0.1-0.2-0.4-0.2-0.7v-19.1h3.1v17.3l6.5-0.1c1.2,0,2.6-0.1,4.2-0.2
		c1.5-0.1,3.1-0.3,4.6-0.5s2.9-0.3,4.2-0.5s2.3-0.4,3.1-0.6v2.7c-0.8,0.2-1.8,0.4-2.9,0.6c-1.1,0.2-2.4,0.4-3.8,0.5
		c-1.3,0.2-2.7,0.3-4.2,0.4s-2.9,0.2-4.2,0.2c-1.2,0.1-2.4,0.1-3.5,0.1s-2.1,0-3,0s-1.6,0-2.2,0
		C535.2,466.3,534.9,466.3,534.9,466.3z M565.3,488h-25.8c-0.4,0-0.6-0.1-0.7-0.2c-0.1-0.1-0.2-0.4-0.2-0.7V473
		c0-0.3,0.1-0.6,0.2-0.7c0.1-0.1,0.4-0.2,0.7-0.2h25.8c0.3,0,0.6,0.1,0.7,0.2c0.1,0.1,0.2,0.4,0.2,0.7v14c0,0.4-0.1,0.6-0.2,0.7
		C565.8,487.9,565.6,488,565.3,488z M541.7,474.7v10.7h21.4v-10.7H541.7z M563.1,445h3.1v24.6h-3.1V455h-12.7v-2.6h12.7V445z"/>
	<path d="M586.2,446c2.8,0,5.2,1.2,7.1,3.7c1.9,2.4,2.9,6.1,3.1,11h9.8V445h3.1v43.5h-3.1v-25.1h-9.8c-0.1,5.3-1.1,9.2-3,11.8
		c-1.9,2.6-4.3,3.9-7.3,3.9s-5.5-1.4-7.4-4.1s-2.9-6.9-2.9-12.4s1-9.6,2.9-12.3C580.6,447.4,583.1,446,586.2,446z M586.2,448.7
		c-2.3,0-4,1.2-5.3,3.7s-2,5.8-2,10s0.7,7.6,2,10c1.3,2.5,3.1,3.7,5.3,3.7s4-1.2,5.3-3.7s1.9-5.8,1.9-10s-0.7-7.5-1.9-10
		C590.2,450,588.4,448.7,586.2,448.7z"/>
	<path d="M637.3,447.7c0.3,0,0.6,0.1,0.7,0.2s0.2,0.4,0.2,0.7c-0.6,6.5-2.4,12.3-5.4,17.3s-7.5,9.3-13.5,13l-2.8-2
		c5.5-2.9,9.8-6.6,12.9-11c3.1-4.4,4.9-9.6,5.5-15.5h-15.5v-2.6h17.9V447.7z M646.9,445h3.2v18h6.8v2.8h-6.8v22.7h-3.2V445z"/>
	<path d="M658.7,466.8h39.9v2.6h-39.9V466.8z M665.1,460c-0.4,0-0.6-0.1-0.7-0.2c-0.1-0.1-0.2-0.4-0.2-0.7v-13.9h3v12.2h26.9v2.6
		H665.1z M665.2,487.5c-0.4,0-0.6-0.1-0.7-0.2c-0.1-0.1-0.2-0.4-0.2-0.7v-12.7h2.9v11h27.6v2.6L665.2,487.5L665.2,487.5z"/>
</g>
<g class="st3">
	<path d="M737.4,476.4c0,0.4-0.1,0.6-0.2,0.8c-0.1,0.1-0.4,0.2-0.7,0.2h-18.1c-0.4,0-0.6-0.1-0.7-0.2c-0.1-0.1-0.1-0.4-0.1-0.8
		v-29.2h3.1v11.7h13.7v-11.7h3.1L737.4,476.4L737.4,476.4z M720.6,461.5v13.2h13.7v-13.2H720.6z M746.6,445h3.1v43.5h-3.1V445z"/>
	<path d="M756.6,463.2h39.9v2.5H785v5h5.1c0.3,0,0.6,0.1,0.7,0.2c0.1,0.1,0.2,0.4,0.2,0.7v7.8c0,0.4-0.1,0.6-0.2,0.7
		c-0.1,0.1-0.4,0.2-0.7,0.2h-24.8v5H792v2.5h-28.9c-0.4,0-0.6-0.1-0.7-0.2c-0.1-0.1-0.2-0.4-0.2-0.7v-8c0-0.3,0.1-0.6,0.2-0.7
		c0.1-0.1,0.4-0.2,0.7-0.2h24.7v-4.7h-25.7v-2.5h6v-5h-11.5V463.2z M776.5,444.7c2.2,0,4.3,0.2,6.1,0.5c1.8,0.4,3.4,0.8,4.7,1.5
		s2.3,1.4,3.1,2.4c0.7,0.9,1.1,2,1.1,3.2s-0.4,2.3-1.1,3.2s-1.8,1.7-3.1,2.4c-1.3,0.7-2.9,1.1-4.7,1.5c-1.8,0.3-3.9,0.5-6.1,0.5
		c-4.5,0-8.1-0.7-10.9-2c-2.7-1.3-4.1-3.2-4.1-5.6s1.4-4.2,4.1-5.5C768.4,445.3,772,444.7,776.5,444.7z M776.5,447.1
		c-1.7,0-3.3,0.1-4.8,0.4s-2.7,0.6-3.7,1c-1.1,0.5-1.9,1-2.5,1.6s-0.9,1.3-0.9,2.1c0,0.8,0.3,1.4,0.9,2.1c0.6,0.6,1.4,1.2,2.5,1.6
		c1,0.5,2.3,0.9,3.7,1.1c1.5,0.3,3,0.4,4.8,0.4c1.7,0,3.3-0.1,4.7-0.4c1.5-0.3,2.7-0.6,3.7-1.1s1.9-1,2.5-1.6s0.9-1.3,0.9-2.1
		c0-0.8-0.3-1.5-0.9-2.1c-0.6-0.6-1.4-1.2-2.5-1.6c-1-0.4-2.3-0.8-3.7-1C779.8,447.2,778.2,447.1,776.5,447.1z M782,470.8v-5h-10.8
		v5H782z"/>
	<path d="M832.1,460.5h-24.3v8h26.9v2.5h-14.1v8.8h18.6v2.6h-40.1v-2.6h18.5V471h-12c-0.4,0-0.6-0.1-0.7-0.2
		c-0.1-0.2-0.2-0.4-0.2-0.7v-11.3c0-0.3,0.1-0.5,0.2-0.7c0.1-0.1,0.4-0.2,0.7-0.2H830v-8.2h-25.3v-2.5h27.4c0.3,0,0.6,0.1,0.7,0.2
		c0.1,0.2,0.2,0.4,0.2,0.7v11.5c0,0.3-0.1,0.6-0.2,0.7C832.7,460.5,832.4,460.5,832.1,460.5z"/>
</g>
<g class="st3">
	<path d="M849.1,483.3c0,2.1-0.5,3.7-1.4,4.8c-0.9,1-2,1.7-3.1,1.9v-1.2c0.7-0.2,1.3-0.7,1.6-1.6c0.4-0.9,0.5-1.8,0.4-2.9h-2.4v-4.5
		h4c0.3,0,0.5,0.1,0.6,0.2s0.2,0.4,0.2,0.7v2.6H849.1z"/>
</g>
<g class="st3">
	<path d="M871,447.6h22.7v2.6h-9.9v4.5c0,4.6,1.1,8.7,3.2,12.2s5.3,6.5,9.5,9l-2.5,2.4c-2.5-1.7-4.9-3.8-7-6.2
		c-2.1-2.4-3.7-5.3-4.8-8.5c-0.4,1.5-1,3-1.7,4.5c-0.8,1.5-1.7,2.9-2.7,4.3s-2.1,2.7-3.3,3.9c-1.2,1.2-2.5,2.3-3.8,3.3l-3-2.2
		c4.1-2.6,7.4-5.9,9.6-9.9c2.3-4,3.4-8.5,3.4-13.7v-3.5H871V447.6z M899.6,445h3.2v17h6.7v2.7h-6.7v23.8h-3.2V445z"/>
	<path d="M921.4,447.1h3.1v7.1c0,5.4,0.8,9.8,2.4,13.2c1.6,3.4,4.1,6.1,7.3,7.9l-2.5,2.3c-2.3-1.7-4.2-3.6-5.7-5.7
		c-1.5-2.2-2.6-4.6-3.2-7.2c-0.7,2.9-1.8,5.6-3.5,8.1c-1.6,2.5-3.7,4.7-6.3,6.7l-2.9-2c4-2.7,6.8-6.1,8.6-10c1.8-4,2.7-8.7,2.7-14.4
		L921.4,447.1L921.4,447.1z M937.1,445.7h3.1v40.7h-3.1v-24.8h-7.9v-2.8h7.9V445.7z M945.6,445h3v43.5h-3V445z"/>
	<path d="M955.7,451.6h24.9v2.6h-24.9V451.6z M957.6,464.5c0-2.3,0.9-4,2.7-5.4c1.8-1.3,4.4-2,7.8-2c3.3,0,5.9,0.7,7.8,2
		c1.8,1.3,2.8,3.1,2.8,5.4s-0.9,4.1-2.8,5.4c-1.8,1.3-4.4,2-7.8,2c-3.4,0-6-0.7-7.8-2C958.5,468.5,957.6,466.7,957.6,464.5z
		 M975.5,464.5c0-1.6-0.7-2.8-2-3.6c-1.3-0.8-3.1-1.2-5.4-1.2s-4,0.4-5.4,1.2c-1.3,0.8-2,2-2,3.6s0.7,2.8,2,3.6
		c1.3,0.8,3.1,1.2,5.4,1.2s4-0.4,5.4-1.2C974.8,467.2,975.5,466,975.5,464.5z M961.6,445h12.9v2.6h-12.9V445z M963.3,487.5
		c-0.4,0-0.6-0.1-0.7-0.2c-0.1-0.1-0.2-0.4-0.2-0.7v-11.5h3.1v9.8h25.2v2.6L963.3,487.5L963.3,487.5z M986.1,445h3.1v13.4h6.3v2.7
		h-6.3v16.2h-3.1V445z"/>
</g>
<g class="st3">
	<path d="M1033.1,476.4c0,0.4-0.1,0.6-0.2,0.8c-0.1,0.1-0.4,0.2-0.7,0.2h-18.1c-0.4,0-0.6-0.1-0.7-0.2c-0.1-0.1-0.1-0.4-0.1-0.8
		v-29.2h3.1v11.7h13.7v-11.7h3.1v29.2H1033.1z M1016.3,461.5v13.2h13.7v-13.2H1016.3z M1042.2,445h3.1v43.5h-3.1V445z"/>
	<path d="M1052.2,463.2h39.9v2.5h-11.5v5h5.1c0.3,0,0.6,0.1,0.7,0.2s0.2,0.4,0.2,0.7v7.8c0,0.4-0.1,0.6-0.2,0.7s-0.4,0.2-0.7,0.2
		h-24.8v5h26.7v2.5h-28.9c-0.4,0-0.6-0.1-0.7-0.2s-0.2-0.4-0.2-0.7v-8c0-0.3,0.1-0.6,0.2-0.7s0.4-0.2,0.7-0.2h24.7v-4.7h-25.7v-2.5
		h6v-5h-11.5L1052.2,463.2L1052.2,463.2z M1072.1,444.7c2.2,0,4.3,0.2,6.1,0.5c1.8,0.4,3.4,0.8,4.7,1.5c1.3,0.7,2.3,1.4,3.1,2.4
		c0.7,0.9,1.1,2,1.1,3.2s-0.4,2.3-1.1,3.2s-1.8,1.7-3.1,2.4c-1.3,0.7-2.9,1.1-4.7,1.5c-1.8,0.3-3.9,0.5-6.1,0.5
		c-4.5,0-8.1-0.7-10.9-2c-2.7-1.3-4.1-3.2-4.1-5.6s1.4-4.2,4.1-5.5C1064,445.3,1067.6,444.7,1072.1,444.7z M1072.1,447.1
		c-1.7,0-3.3,0.1-4.8,0.4s-2.7,0.6-3.7,1c-1.1,0.5-1.9,1-2.5,1.6s-0.9,1.3-0.9,2.1c0,0.8,0.3,1.4,0.9,2.1c0.6,0.6,1.4,1.2,2.5,1.6
		c1,0.5,2.3,0.9,3.7,1.1c1.5,0.3,3,0.4,4.8,0.4c1.7,0,3.3-0.1,4.7-0.4c1.5-0.3,2.7-0.6,3.7-1.1s1.9-1,2.5-1.6s0.9-1.3,0.9-2.1
		c0-0.8-0.3-1.5-0.9-2.1s-1.4-1.2-2.5-1.6c-1-0.4-2.3-0.8-3.7-1C1075.4,447.2,1073.8,447.1,1072.1,447.1z M1077.6,470.8v-5h-10.8v5
		H1077.6z"/>
	<path d="M1095,467.8h39.9v2.6H1095V467.8z M1114.9,444.7c2.2,0,4.3,0.2,6.1,0.7c1.8,0.5,3.4,1.1,4.7,1.9c1.3,0.8,2.3,1.8,3.1,2.9
		c0.7,1.1,1.1,2.4,1.1,3.7c0,1.4-0.4,2.7-1.1,3.8s-1.8,2.1-3.1,2.9c-1.3,0.8-2.9,1.4-4.7,1.9c-1.8,0.4-3.9,0.6-6.1,0.6
		c-2.3,0-4.3-0.2-6.1-0.6c-1.8-0.4-3.4-1-4.7-1.9c-1.3-0.8-2.4-1.8-3.1-2.9s-1.1-2.4-1.1-3.8s0.4-2.6,1.1-3.7s1.7-2.1,3.1-2.9
		c1.3-0.8,2.9-1.4,4.7-1.9C1110.5,444.9,1112.6,444.7,1114.9,444.7z M1101.4,487.5c-0.4,0-0.6-0.1-0.7-0.2s-0.2-0.4-0.2-0.7v-12.1
		h2.9v10.4h27.6v2.6L1101.4,487.5L1101.4,487.5z M1114.9,447.1c-1.7,0-3.3,0.2-4.8,0.6s-2.7,0.9-3.7,1.5c-1.1,0.6-1.9,1.3-2.5,2.2
		c-0.6,0.8-0.9,1.7-0.9,2.7s0.3,1.8,0.9,2.6c0.6,0.8,1.4,1.5,2.5,2.1c1,0.6,2.3,1.1,3.7,1.4c1.5,0.3,3,0.5,4.8,0.5
		c1.7,0,3.3-0.2,4.7-0.5c1.5-0.3,2.7-0.8,3.7-1.4s1.9-1.3,2.5-2.1c0.6-0.8,0.9-1.7,0.9-2.6s-0.3-1.8-0.9-2.7
		c-0.6-0.8-1.4-1.6-2.5-2.2c-1-0.6-2.3-1.1-3.7-1.5C1118.1,447.3,1116.6,447.1,1114.9,447.1z"/>
</g>
<g class="st3">
	<path d="M1163.5,445.4c2.1,0,3.9,0.4,5.6,1.3s2.9,2.1,3.8,3.7h10.6V445h3.1v32.4h-3.1v-14.2H1173c-0.9,1.6-2.2,2.8-3.8,3.7
		c-1.6,0.9-3.5,1.3-5.6,1.3c-1.7,0-3.2-0.3-4.6-0.9s-2.5-1.4-3.5-2.4s-1.7-2.2-2.3-3.6c-0.5-1.4-0.8-2.9-0.8-4.5
		c0-1.7,0.3-3.2,0.8-4.6s1.3-2.6,2.3-3.6s2.2-1.8,3.5-2.4S1161.8,445.4,1163.5,445.4z M1163.5,448.2c-2.5,0-4.5,0.8-5.9,2.5
		s-2.1,3.7-2.1,6.1s0.7,4.5,2.1,6.1s3.3,2.5,5.9,2.5s4.5-0.8,5.9-2.5c1.4-1.6,2.1-3.7,2.1-6.1s-0.7-4.5-2.1-6.1
		C1168,449,1166,448.2,1163.5,448.2z M1159.8,487.5c-0.4,0-0.6-0.1-0.7-0.2s-0.2-0.4-0.2-0.7v-13.3h3.1v11.6h26v2.6H1159.8z
		 M1174.1,453c0.2,0.6,0.3,1.2,0.4,1.8c0.1,0.6,0.1,1.3,0.1,2s0,1.3-0.1,1.9s-0.2,1.2-0.4,1.8h9.4V453H1174.1z"/>
	<path d="M1214.4,446.7c0.3,0,0.6,0.1,0.7,0.2c0.1,0.2,0.2,0.4,0.2,0.7v10.6c0,0.3-0.1,0.6-0.2,0.7s-0.4,0.2-0.7,0.2h-14.8v7.3
		l7.1-0.1c1,0,2.2,0,3.7-0.1s2.9-0.2,4.4-0.4c1.5-0.2,2.9-0.3,4.3-0.5s2.5-0.4,3.4-0.6v2.6c-0.8,0.2-1.8,0.3-3,0.5s-2.6,0.4-4,0.5
		c-1.4,0.2-2.9,0.4-4.3,0.5c-1.5,0.1-2.8,0.2-3.9,0.2c-1.2,0.1-2.4,0.1-3.6,0.1c-1.1,0-2.1,0-3,0s-1.6,0-2.2,0s-0.9,0-1,0
		c-0.4,0-0.6-0.1-0.7-0.2s-0.2-0.4-0.2-0.7v-10.8c0-0.3,0.1-0.5,0.2-0.7s0.4-0.2,0.7-0.2h14.8v-7.4h-15.8v-2.5L1214.4,446.7
		L1214.4,446.7z M1214.7,473.2c4.7,0,8.4,0.8,11,2.3s3.9,3.4,3.9,5.7c0,2.4-1.3,4.3-3.9,5.8s-6.3,2.3-11,2.3s-8.4-0.8-11-2.3
		s-4-3.5-4-5.8s1.3-4.2,4-5.7S1210,473.2,1214.7,473.2z M1214.7,475.7c-1.6,0-3.2,0.1-4.6,0.4s-2.7,0.6-3.7,1.1s-1.9,1-2.5,1.7
		s-0.9,1.5-0.9,2.4s0.3,1.7,0.9,2.4c0.6,0.7,1.4,1.3,2.5,1.7c1.1,0.5,2.3,0.8,3.7,1.1c1.4,0.2,2.9,0.4,4.6,0.4
		c1.6,0,3.2-0.1,4.6-0.4s2.7-0.6,3.7-1.1s1.9-1,2.5-1.7s0.9-1.5,0.9-2.4s-0.3-1.7-0.9-2.4c-0.6-0.7-1.4-1.3-2.4-1.7
		c-1-0.5-2.3-0.8-3.7-1.1C1217.9,475.9,1216.3,475.7,1214.7,475.7z M1226,445h3.1v27.5h-3.1v-11.3h-8.1v-2.6h8.1v-5.2h-8.1v-2.6h8.1
		V445z"/>
	<path d="M1240.7,448h14v2.6h-11.9v23.7l6-0.1c0.6,0,1.3,0,2.2-0.1c0.9-0.1,1.7-0.1,2.6-0.2s1.7-0.1,2.5-0.2s1.4-0.2,1.9-0.3v2.8
		c-0.4,0.1-1,0.1-1.7,0.2s-1.6,0.2-2.5,0.2c-0.9,0.1-1.8,0.2-2.8,0.2c-1,0.1-1.9,0.1-2.7,0.1c-1.1,0.1-2.1,0.1-3,0.1s-1.7,0-2.4,0
		c-0.7,0-1.2,0-1.7,0c-0.4,0-0.7,0-0.7,0c-0.4,0-0.6-0.1-0.7-0.2s-0.2-0.4-0.2-0.7v-27.2c0-0.3,0.1-0.5,0.2-0.7
		C1240.1,448.1,1240.3,448,1240.7,448z M1259.9,445.7h3.1v15.7h6.4V445h3.1v43.5h-3.1v-24.2h-6.4v22.1h-3.1V445.7z"/>
	<path d="M1289.4,446.3c2.5,0,4.7,1.2,6.4,3.7c1.7,2.5,2.6,6.2,2.8,11.2h5.5v-15.5h3.1v40.7h-3.1V464h-5.5
		c-0.2,5.1-1.1,8.8-2.8,11.3c-1.7,2.5-3.8,3.7-6.4,3.7c-2.7,0-4.9-1.3-6.6-4s-2.6-6.8-2.6-12.3s0.9-9.6,2.6-12.3
		C1284.4,447.7,1286.6,446.3,1289.4,446.3z M1289.3,449c-1.8,0-3.3,1.2-4.4,3.7s-1.7,5.8-1.7,10s0.6,7.5,1.7,10s2.6,3.7,4.4,3.7
		s3.3-1.2,4.5-3.7c1.2-2.4,1.8-5.8,1.8-10s-0.6-7.5-1.8-10S1291.1,449,1289.3,449z M1312.3,445h3.1v43.5h-3.1V445z"/>
</g>
<g class="st3">
	<path d="M1337.8,476.9c-0.4,0-0.6-0.1-0.7-0.2s-0.2-0.4-0.2-0.7v-27.4c0-0.3,0.1-0.5,0.2-0.7s0.4-0.2,0.7-0.2h10.7v2.7h-8.6v23.8h3
		c0.9,0,1.9-0.1,3-0.2s2.1-0.3,3-0.4v2.7c-0.4,0.1-0.8,0.2-1.4,0.2c-0.6,0.1-1.2,0.1-1.9,0.2c-0.7,0-1.4,0.1-2.1,0.1s-1.3,0-1.8,0
		L1337.8,476.9z M1350.9,476.9c-0.4,0-0.6-0.1-0.7-0.2s-0.2-0.4-0.2-0.7v-27.4c0-0.3,0.1-0.5,0.2-0.7s0.4-0.2,0.7-0.2h11.1v2.7h-8.9
		v23.8c0.1,0,0.6,0,1.6-0.1c0.9,0,1.9-0.1,2.8-0.2c1-0.1,2.1-0.2,3.4-0.4c1.3-0.2,2.2-0.4,2.9-0.5v2.8c-0.4,0.1-0.8,0.2-1.4,0.3
		c-0.6,0.1-1.2,0.2-1.9,0.2c-0.7,0.1-1.3,0.2-2,0.2c-0.7,0.1-1.2,0.1-1.7,0.1c-0.8,0.1-1.4,0.1-2,0.1s-1.1,0.1-1.6,0.1s-0.9,0-1.2,0
		C1351.5,476.9,1351.2,476.9,1350.9,476.9z M1365.6,445h3v15.3h6.2v2.7h-6.2v25.5h-3V445z"/>
	<path d="M1397.5,447.3c0.3,0,0.6,0.1,0.7,0.2c0.1,0.2,0.2,0.4,0.2,0.7v14.5c0,0.3-0.1,0.6-0.2,0.7s-0.4,0.2-0.7,0.2h-15.4v11.3
		l7.8-0.1c1.5,0,3-0.1,4.6-0.2s3.1-0.3,4.5-0.4c1.4-0.2,2.7-0.3,3.9-0.5c1.1-0.2,2-0.3,2.6-0.5v2.7c-0.7,0.1-1.5,0.3-2.6,0.4
		c-1.1,0.2-2.3,0.3-3.6,0.5c-1.3,0.2-2.7,0.3-4.1,0.4s-2.9,0.2-4.3,0.2c-1.3,0.1-2.6,0.1-3.9,0.1s-2.4,0-3.4,0s-1.8,0-2.5,0
		c-0.6,0-1,0-1,0c-0.4,0-0.6-0.1-0.7-0.2s-0.2-0.4-0.2-0.7v-14.8c0-0.3,0.1-0.5,0.2-0.7s0.4-0.2,0.7-0.2h15.3v-11.1h-16.2v-2.6h18.3
		V447.3z M1407.3,445h3.2v16.3h6.8v2.7h-6.8v24.5h-3.2V445z"/>
</g>
<g class="st3">
	<path d="M1434.8,454.1h22.9v2.6h-9.9v2c0,2,0.3,3.9,0.9,5.7c0.6,1.8,1.5,3.5,2.5,5s2.3,2.9,3.7,4.2c1.4,1.2,2.9,2.3,4.5,3l-2.2,2.3
		c-2.6-1.8-4.9-3.7-6.7-6s-3.2-4.6-4.2-7.3c-0.9,2.6-2.3,5.1-4.2,7.5s-4.2,4.5-6.9,6.5l-2.9-2.2c3.7-2.3,6.7-5,9-8.2
		s3.4-6.8,3.4-10.7v-2h-9.9L1434.8,454.1L1434.8,454.1z M1439.6,445.9h13.1v2.6h-13.1V445.9z M1463.9,445h3.2v17.2h6.7v2.7h-6.7
		v23.6h-3.2V445z"/>
	<path d="M1488,446c3,0,5.5,1.4,7.5,4.1s2.9,6.9,2.9,12.3c0,5.5-1,9.6-2.9,12.4c-2,2.7-4.5,4.1-7.5,4.1s-5.5-1.4-7.5-4.1
		s-2.9-6.9-2.9-12.4s1-9.6,2.9-12.3C1482.5,447.4,1485,446,1488,446z M1488,448.7c-2.3,0-4.1,1.2-5.4,3.7s-2,5.8-2,10s0.7,7.6,2,10
		c1.3,2.5,3.1,3.7,5.4,3.7s4-1.2,5.4-3.7c1.3-2.5,2-5.8,2-10s-0.7-7.5-2-10C1492.1,450,1490.3,448.7,1488,448.7z M1507.9,445h3.1
		v43.5h-3.1V445z"/>
	<path d="M1539,447.7c0.3,0,0.6,0.1,0.7,0.2s0.2,0.4,0.2,0.7c-0.6,6.5-2.4,12.3-5.4,17.3s-7.5,9.3-13.5,13l-2.8-2
		c5.5-2.9,9.8-6.6,12.9-11s4.9-9.6,5.5-15.5h-15.5v-2.6h17.9V447.7z M1548.7,445h3.2v18h6.8v2.8h-6.8v22.7h-3.2V445z"/>
</g>
<g class="st3">
	<path d="M1586.3,445.5c1.6,0,3.1,0.3,4.5,0.9s2.5,1.3,3.5,2.3s1.7,2.1,2.3,3.5c0.5,1.3,0.8,2.8,0.8,4.3c0,1.6-0.3,3-0.8,4.3
		s-1.3,2.5-2.3,3.5s-2.2,1.7-3.5,2.3s-2.9,0.8-4.5,0.8c-1.7,0-3.2-0.3-4.6-0.9s-2.5-1.4-3.5-2.4c-0.9-1-1.7-2.1-2.2-3.5
		c-0.5-1.3-0.8-2.7-0.8-4.2s0.3-2.9,0.8-4.2c0.5-1.3,1.3-2.5,2.3-3.5c0.9-1,2.1-1.8,3.5-2.3C1583.1,445.8,1584.6,445.5,1586.3,445.5
		z M1586.6,472.2h3v2c0,1.9,0.6,3.8,1.7,5.7c1.1,1.9,2.6,3.6,4.4,5c1.6-1.2,3-2.8,4.2-4.8s1.8-4.1,1.8-6.2v-1.6h3v1.8
		c0,1.3,0.3,2.5,0.8,3.8s1.3,2.5,2.2,3.6c0.9,1.1,1.9,2.2,3.1,3.1c1.1,0.9,2.3,1.6,3.5,2.2l-2.5,2.1c-1.9-1.1-3.5-2.5-4.9-3.9
		s-2.6-3.2-3.6-5c-0.9,1.7-2,3.3-3.3,4.8c-1.3,1.4-2.7,2.7-4.3,3.9c-1.8-1.4-3.3-2.8-4.6-4.2c-1.3-1.5-2.3-3-3-4.5
		c-1,1.9-2.2,3.6-3.6,5.1s-3,2.8-4.9,4l-2.5-2.1c1.1-0.6,2.3-1.3,3.4-2.3c1.1-0.9,2.1-1.9,3-3s1.6-2.3,2.2-3.6
		c0.6-1.3,0.8-2.6,0.8-3.9v-2H1586.6z M1586.3,448.2c-2.5,0-4.5,0.8-5.8,2.4s-2,3.5-2,5.7c0,1.1,0.2,2.2,0.5,3.2s0.8,1.9,1.5,2.7
		c0.7,0.8,1.5,1.3,2.5,1.8c1,0.4,2.1,0.7,3.4,0.7s2.4-0.2,3.4-0.7c1-0.4,1.8-1,2.5-1.8s1.2-1.7,1.6-2.7s0.5-2,0.5-3.2
		c0-2.2-0.7-4.1-2.1-5.7C1590.8,449,1588.8,448.2,1586.3,448.2z M1606.3,445h3.1v25.3h-3.1V445z"/>
	<path d="M1616,465.6h39.9v2.6H1616V465.6z M1635.9,444.7c2.2,0,4.3,0.2,6.1,0.6c1.8,0.4,3.4,1,4.7,1.7c1.3,0.7,2.3,1.6,3.1,2.6
		c0.7,1,1.1,2.2,1.1,3.4c0,1.3-0.4,2.5-1.1,3.5s-1.8,1.9-3.1,2.6c-1.3,0.8-2.9,1.3-4.7,1.7c-1.8,0.4-3.9,0.6-6.1,0.6
		c-2.3,0-4.3-0.2-6.1-0.6c-1.8-0.4-3.4-0.9-4.7-1.7c-1.3-0.7-2.4-1.6-3.1-2.6s-1.1-2.2-1.1-3.5c0-1.2,0.4-2.4,1.1-3.4
		s1.7-1.9,3.1-2.6c1.3-0.8,2.9-1.3,4.7-1.7S1633.6,444.7,1635.9,444.7z M1649.4,488h-27c-0.4,0-0.6-0.1-0.7-0.2s-0.2-0.4-0.2-0.7
		v-12.9c0-0.3,0.1-0.6,0.2-0.7s0.4-0.2,0.7-0.2h27c0.3,0,0.6,0.1,0.7,0.2s0.2,0.4,0.2,0.7V487c0,0.4-0.1,0.6-0.2,0.7
		C1650,487.9,1649.8,488,1649.4,488z M1635.9,447c-1.7,0-3.3,0.2-4.8,0.5s-2.7,0.7-3.7,1.2c-1.1,0.6-1.9,1.2-2.5,1.9
		c-0.6,0.7-0.9,1.5-0.9,2.4c0,0.8,0.3,1.7,0.9,2.4c0.6,0.8,1.4,1.4,2.5,2c1,0.6,2.3,1,3.7,1.3c1.5,0.3,3,0.5,4.8,0.5
		c1.7,0,3.3-0.2,4.7-0.5c1.5-0.3,2.7-0.7,3.7-1.3c1-0.6,1.9-1.2,2.5-2s0.9-1.6,0.9-2.4s-0.3-1.6-0.9-2.4c-0.6-0.7-1.4-1.4-2.5-1.9
		c-1-0.5-2.3-0.9-3.7-1.2S1637.6,447,1635.9,447z M1624.5,475.7v9.7h22.8v-9.7H1624.5z"/>
</g>
<path class="st5" d="M348.5,625.2h76.7v4.6h-76.7V625.2z M420.7,613.8l27.5,13.8l-27.5,13.8V613.8z"/>
<path class="st5" d="M765.5,625.2h76.7v4.6h-76.7V625.2z M837.7,613.8l27.5,13.8l-27.5,13.8V613.8z"/>
<path class="st5" d="M1181.5,625.2h76.7v4.6h-76.7V625.2z M1253.7,613.8l27.5,13.8l-27.5,13.8V613.8z"/>
<path class="st5" d="M2450.2,756.7L2550.7,646l-3.4-3.1l-100.5,110.7L2450.2,756.7z M2556.1,657.1l8.3-29.6l-28.7,11.1L2556.1,657.1
	z"/>
<path class="st5" d="M1600.3,626.1l85.7,109.6l-3.6,2.8l-85.7-109.6L1600.3,626.1z M1692.2,725l6.1,30.1l-27.8-13.2L1692.2,725z"/>
<g class="st3">
	<path class="st6" d="M137.5,721.6h18.4c0.5,0,0.9,0.1,1.1,0.3c0.2,0.2,0.3,0.6,0.3,1.1v28.3c0,0.5-0.1,0.9-0.3,1.1
		c-0.2,0.2-0.6,0.3-1.1,0.3h-18.4c-0.5,0-0.9-0.1-1.1-0.3c-0.2-0.2-0.3-0.5-0.3-1.1V723c0-0.5,0.1-0.9,0.3-1.1
		C136.6,721.7,136.9,721.6,137.5,721.6z M151.6,748v-21.6h-10V748H151.6z M164.6,763.7V719h5.6v44.8L164.6,763.7L164.6,763.7z"/>
	<path class="st6" d="M199,720.8c0.5,0,0.9,0.1,1.1,0.3c0.2,0.2,0.3,0.6,0.3,1.1c-0.6,5.5-2.5,10.1-5.9,13.9
		c-3.3,3.8-8,6.6-14.2,8.7l-3.5-4.1c4.8-1.3,8.6-3.2,11.5-5.7s4.8-5.6,5.6-9.4h-14.7v-4.8H199z M185,746h26.4c0.5,0,0.9,0.1,1.1,0.3
		c0.2,0.2,0.3,0.6,0.3,1.1v14.4c0,0.5-0.1,0.9-0.3,1.1c-0.2,0.2-0.6,0.3-1.1,0.3H185c-0.5,0-0.9-0.1-1.1-0.3
		c-0.2-0.2-0.3-0.6-0.3-1.1v-14.4c0-0.5,0.1-0.9,0.3-1.1C184.1,746.1,184.5,746,185,746z M207.2,758.5v-7.8h-18v7.8H207.2z
		 M212.8,718.9v9.9h5.9v4.8h-5.9v10.7h-5.6V719h5.6V718.9z"/>
	<path class="st6" d="M221.1,730.9c0-1.6,0.3-3.1,0.9-4.5c0.6-1.4,1.4-2.6,2.4-3.7c1.1-1,2.3-1.9,3.8-2.5c1.4-0.6,3-0.9,4.8-0.9
		c2,0,3.8,0.4,5.4,1.2s2.9,1.8,4,3.1h9.5V719h5.7v25.5h-5.7V738h-9.2c-1.1,1.4-2.4,2.5-4.1,3.3c-1.6,0.8-3.5,1.2-5.5,1.2
		c-1.7,0-3.3-0.3-4.8-0.9c-1.5-0.6-2.7-1.4-3.8-2.4c-1-1-1.8-2.2-2.4-3.6C221.4,734,221.1,732.5,221.1,730.9z M233,737.7
		c1.9,0,3.4-0.7,4.5-2s1.7-2.9,1.7-4.7c0-1.9-0.6-3.5-1.7-4.8c-1.1-1.3-2.6-2-4.5-2s-3.5,0.6-4.6,1.9c-1.1,1.3-1.6,2.9-1.6,4.8
		c0,1.8,0.6,3.4,1.6,4.7C229.5,737,231,737.7,233,737.7z M228.8,746.3h27.3c0.5,0,0.9,0.1,1.1,0.3s0.3,0.6,0.3,1.1v14.1
		c0,0.5-0.1,0.9-0.3,1.1c-0.2,0.2-0.6,0.3-1.1,0.3h-27.3c-0.5,0-0.9-0.1-1.1-0.3c-0.2-0.2-0.3-0.6-0.3-1.1v-14.1
		c0-0.5,0.1-0.9,0.3-1.1S228.3,746.3,228.8,746.3z M251.9,758.6V751H233v7.6H251.9z M244.6,728.3c0.1,0.4,0.2,0.9,0.2,1.3
		c0.1,0.4,0.1,0.9,0.1,1.3s0,0.8-0.1,1.2c0,0.4-0.1,0.8-0.2,1.1h7.2v-5h-7.2V728.3z"/>
</g>
<g class="st3">
	<path class="st6" d="M489.4,740.3c3.6-1.4,6.5-3.3,8.5-5.8c2-2.4,3-5.1,3-8.1v-1h-8v-4.7h22.2v4.7H507v1c0,2.8,0.9,5.2,2.7,7.4
		c1.8,2.1,4.4,3.8,7.9,5l-3.5,4c-0.9-0.4-1.9-0.9-2.9-1.5c-1-0.6-2-1.3-2.9-2s-1.8-1.4-2.5-2.2c-0.8-0.8-1.3-1.6-1.7-2.3
		c-0.8,1.8-2.2,3.5-4.1,5c-1.9,1.6-4,3-6.3,4.1L489.4,740.3z M499.2,746.8h26.3c0.5,0,0.9,0.1,1.1,0.3s0.3,0.6,0.3,1.1v13.6
		c0,0.5-0.1,0.9-0.3,1.1c-0.2,0.2-0.6,0.3-1.1,0.3h-26.3c-0.5,0-0.9-0.1-1.1-0.3s-0.3-0.6-0.3-1.1v-13.6c0-0.5,0.1-0.9,0.3-1.1
		S498.6,746.8,499.2,746.8z M521.3,758.5v-7.1h-17.9v7.1H521.3z M526.9,719v9.5h5.6v4.9h-5.6V745h-5.7v-26H526.9z"/>
	<path class="st6" d="M538.3,735.8v-16.5h5.6v4.4H564v-4.4h5.6v16.5c0,0.5-0.1,0.9-0.3,1.1c-0.2,0.2-0.6,0.3-1.1,0.3h-11.4v4.2h17.8
		v4.8h-41.2v-4.8H551v-4.2h-11.4c-0.5,0-0.9-0.1-1.1-0.3C538.3,736.8,538.3,736.4,538.3,735.8z M568,749.7c0.5,0,0.9,0.1,1.1,0.3
		c0.2,0.2,0.3,0.6,0.3,1.1V764h-5.8v-9.5h-25.7v-4.8H568z M563.9,732.7v-4.6h-20.1v4.6H563.9z"/>
	<path class="st6" d="M600.3,721.5c0.5,0,0.9,0.1,1.1,0.3c0.2,0.2,0.3,0.6,0.3,1.1c-0.4,6.9-2.1,13.1-5.2,18.5
		c-3.1,5.5-7.6,10.1-13.7,13.9l-4.8-3.8c5.4-2.9,9.5-6.5,12.4-10.7s4.5-9.1,4.9-14.6h-14.9v-4.8L600.3,721.5L600.3,721.5z M615,719
		v44.8h-5.7V719H615z"/>
</g>
<g class="st3">
	<path class="st6" d="M640.3,758.8c-0.5,0-0.9-0.1-1.1-0.3c-0.2-0.2-0.3-0.5-0.3-1.1v-35.1c0-0.5,0.1-0.9,0.3-1.1
		c0.2-0.2,0.5-0.3,1.1-0.3h21.4v4.8h-17.2V737h17.1v4.8h-17.1v12.3h18v4.8L640.3,758.8L640.3,758.8z"/>
	<path class="st6" d="M683.3,723v35.6h-5.6v-29.9c-0.1,0.1-0.9,0.6-2.2,1.3c-1.3,0.8-3.1,1.7-5.4,2.9v-5.2c1.6-0.7,3.1-1.5,4.4-2.5
		c1.3-1,2.6-2.1,3.9-3.5h3.7c0.5,0,0.9,0.1,1.1,0.3C683.2,722.2,683.3,722.5,683.3,723z"/>
</g>
<g class="st3">
	<path class="st6" d="M485.8,796c0-1.7,0.2-3.4,0.6-5.2s1-3.5,1.7-5.2s1.6-3.4,2.7-5s2.2-3.1,3.5-4.4h1.7c-2.3,3.1-4.1,6.3-5.3,9.7
		c-1.2,3.4-1.9,6.7-1.9,10s0.6,6.6,1.9,10s3,6.7,5.3,9.7h-1.7c-1.3-1.3-2.5-2.8-3.5-4.4s-2-3.2-2.7-4.9s-1.3-3.4-1.7-5.2
		S485.8,797.8,485.8,796z"/>
</g>
<g class="st3">
	<path class="st6" d="M515.8,779.8c0.3,0,0.5,0.1,0.6,0.2c0.1,0.1,0.2,0.3,0.2,0.6c-0.5,4.3-2.2,8-4.9,11.2s-6.7,5.7-11.7,7.5l-2-2
		c4.7-1.5,8.3-3.5,11-6c2.6-2.5,4.3-5.6,4.9-9.2h-13.7v-2.2L515.8,779.8L515.8,779.8z M525.8,814h-20.9c-0.3,0-0.5-0.1-0.6-0.2
		c-0.1-0.1-0.2-0.3-0.2-0.6v-11.8c0-0.3,0.1-0.5,0.2-0.6s0.3-0.2,0.6-0.2h20.9c0.3,0,0.5,0.1,0.6,0.2c0.1,0.1,0.2,0.3,0.2,0.6v11.8
		c0,0.3-0.1,0.5-0.2,0.6C526.3,813.9,526.1,814,525.8,814z M506.7,802.8v9H524v-9H506.7z M523.9,778h2.6v8.8h5.3v2.3h-5.3v9.6h-2.6
		V778z"/>
	<path class="st6" d="M544.2,778.5c1.7,0,3.2,0.4,4.5,1.1s2.4,1.6,3.2,2.8h8.9V778h2.6v20.7h-2.6v-6.1H552c-0.8,1.3-1.9,2.3-3.2,3
		c-1.4,0.7-2.9,1.1-4.7,1.1c-1.4,0-2.7-0.2-3.8-0.7s-2.1-1.1-2.9-2c-0.8-0.8-1.4-1.8-1.8-2.9c-0.4-1.1-0.7-2.3-0.7-3.5
		c0-1.3,0.2-2.4,0.7-3.5c0.4-1.1,1.1-2.1,1.9-2.9c0.8-0.8,1.8-1.5,2.9-1.9C541.5,778.7,542.8,778.5,544.2,778.5z M544.2,780.8
		c-2.1,0-3.8,0.7-4.9,2c-1.1,1.4-1.7,2.9-1.7,4.8c0,0.9,0.1,1.8,0.4,2.6c0.3,0.8,0.7,1.6,1.3,2.2c0.5,0.6,1.2,1.1,2.1,1.5
		c0.8,0.4,1.8,0.6,2.8,0.6c1.1,0,2-0.2,2.8-0.6c0.8-0.4,1.5-0.9,2.1-1.5c0.6-0.7,1-1.4,1.3-2.2s0.5-1.7,0.5-2.6
		c0-1.8-0.6-3.4-1.7-4.8C547.9,781.4,546.3,780.8,544.2,780.8z M562.7,814h-21.6c-0.3,0-0.5-0.1-0.6-0.2s-0.2-0.3-0.2-0.6v-11.8
		c0-0.3,0.1-0.5,0.2-0.6s0.3-0.2,0.6-0.2h21.6c0.3,0,0.5,0.1,0.6,0.2s0.2,0.3,0.2,0.6v11.8c0,0.3-0.1,0.5-0.2,0.6S563,814,562.7,814
		z M542.9,802.8v9h18v-9H542.9z M553,784.5c0.2,0.5,0.3,1,0.4,1.5c0.1,0.5,0.1,1.1,0.1,1.6s0,1-0.1,1.5s-0.2,0.9-0.3,1.4h7.8v-5.9
		L553,784.5L553,784.5z"/>
	<path class="st6" d="M586.7,790h-12.4v6.3l5.9-0.1c0.8,0,1.9,0,3.1-0.1c1.2-0.1,2.5-0.2,3.7-0.3c1.3-0.1,2.5-0.3,3.6-0.5
		s2.1-0.3,2.9-0.5v2.2c-0.7,0.1-1.5,0.3-2.5,0.4c-1,0.2-2.2,0.3-3.4,0.4c-1.2,0.2-2.4,0.3-3.6,0.4c-1.2,0.1-2.3,0.2-3.3,0.2
		c-1,0.1-2,0.1-3,0.1s-1.8,0-2.5,0s-1.3,0-1.8,0s-0.8,0-0.8,0c-0.3,0-0.5-0.1-0.6-0.2c-0.1-0.1-0.2-0.3-0.2-0.6v-9.1
		c0-0.2,0.1-0.4,0.2-0.6c0.1-0.1,0.3-0.2,0.6-0.2H585v-6.3h-13.2v-2.1h14.9c0.3,0,0.5,0.1,0.6,0.2c0.1,0.1,0.2,0.3,0.2,0.6v9
		c0,0.3-0.1,0.5-0.2,0.6C587.2,790,587,790,586.7,790z M598.2,802.6c0.3,0,0.5,0.1,0.6,0.2c0.1,0.1,0.2,0.3,0.2,0.6v11.3h-2.6v-9.8
		h-21.2v-2.2L598.2,802.6L598.2,802.6z M596.4,778h2.6v22.7h-2.6v-8.9h-6.8v-2.2h6.8v-5h-6.8v-2.2h6.8V778z"/>
</g>
<g class="st3">
	<path class="st6" d="M628.6,778.4c1.3,0,2.4,0.2,3.5,0.6c1.1,0.4,2,1,2.8,1.7s1.4,1.6,1.9,2.5c0.5,1,0.8,2,0.9,3.2h7.7V778h2.6
		v19.3h-2.6v-8.7h-7.7c-0.3,2.2-1.3,4-3,5.4c-1.6,1.4-3.7,2-6.1,2c-1.4,0-2.7-0.2-3.8-0.7s-2.1-1.1-2.9-1.9
		c-0.8-0.8-1.4-1.7-1.8-2.8c-0.4-1.1-0.6-2.2-0.6-3.4s0.2-2.4,0.7-3.5c0.4-1.1,1.1-2,1.8-2.8c0.8-0.8,1.8-1.4,2.9-1.9
		C626,778.6,627.2,778.4,628.6,778.4z M628.6,780.6c-2.1,0-3.8,0.6-4.9,1.9c-1.1,1.3-1.7,2.8-1.7,4.7c0,1.8,0.6,3.4,1.7,4.7
		c1.1,1.3,2.7,1.9,4.9,1.9c2.1,0,3.7-0.6,4.8-1.9s1.7-2.8,1.7-4.7c0-1.8-0.6-3.4-1.7-4.7C632.3,781.3,630.7,780.6,628.6,780.6z
		 M624,813.3v-14l2.4,0.2v4.5h7.7v-4.8h2.4v13.2c1.9-1,3.4-2.5,4.6-4.3s1.7-3.9,1.7-6.1v-2.8h2.7v2.8c0,2.2,0.6,4.2,1.7,6
		s2.7,3.3,4.6,4.5l-2,1.8c-1.5-1.1-2.7-2.3-3.8-3.6s-1.7-2.6-1.9-3.7c-0.5,1.4-1.2,2.7-2.1,3.8c-0.9,1.1-2.1,2.4-3.5,3.6l-2-1.7v0.5
		c0,0.3-0.1,0.5-0.2,0.6s-0.3,0.2-0.6,0.2h-11c-0.3,0-0.5-0.1-0.6-0.2C624.1,813.8,624,813.6,624,813.3z M626.4,806.1v5.8h7.7v-5.8
		H626.4z"/>
	<path class="st6" d="M653.5,795.3h33.4v2.2h-33.4V795.3z M670.2,777.8c1.9,0,3.6,0.2,5.1,0.5s2.9,0.8,4,1.5
		c1.1,0.6,1.9,1.3,2.6,2.2c0.6,0.9,0.9,1.8,0.9,2.9c0,1.1-0.3,2.1-0.9,2.9c-0.6,0.9-1.5,1.6-2.6,2.2c-1.1,0.6-2.4,1.1-4,1.4
		c-1.5,0.3-3.2,0.5-5.1,0.5c-1.9,0-3.6-0.2-5.1-0.5s-2.9-0.8-4-1.4c-1.1-0.6-2-1.3-2.6-2.2s-0.9-1.8-0.9-2.9c0-1,0.3-2,0.9-2.9
		c0.6-0.9,1.4-1.6,2.6-2.2c1.1-0.6,2.4-1.1,4-1.5C666.6,777.9,668.3,777.8,670.2,777.8z M681.5,814h-22.6c-0.3,0-0.5-0.1-0.6-0.2
		c-0.1-0.1-0.2-0.3-0.2-0.6v-10.8c0-0.3,0.1-0.5,0.2-0.6c0.1-0.1,0.3-0.2,0.6-0.2h22.6c0.3,0,0.5,0.1,0.6,0.2s0.2,0.3,0.2,0.6v10.8
		c0,0.3-0.1,0.5-0.2,0.6S681.8,814,681.5,814z M670.2,779.7c-1.4,0-2.8,0.1-4,0.4c-1.2,0.3-2.3,0.6-3.1,1c-0.9,0.5-1.6,1-2.1,1.6
		s-0.7,1.3-0.7,2s0.2,1.4,0.7,2s1.2,1.2,2.1,1.6c0.9,0.5,1.9,0.8,3.1,1.1c1.2,0.3,2.5,0.4,4,0.4c1.4,0,2.7-0.1,4-0.4
		c1.2-0.3,2.3-0.6,3.1-1.1c0.9-0.5,1.6-1,2.1-1.6s0.8-1.3,0.8-2s-0.3-1.4-0.8-2s-1.2-1.2-2.1-1.6c-0.9-0.4-1.9-0.8-3.1-1
		C672.9,779.9,671.6,779.7,670.2,779.7z M660.7,803.8v8.1h19.1v-8.1H660.7z"/>
</g>
<g class="st3">
	<path class="st6" d="M699.6,796c0,1.7-0.2,3.5-0.6,5.2c-0.4,1.8-1,3.5-1.7,5.2c-0.8,1.7-1.7,3.3-2.7,4.9c-1.1,1.6-2.2,3.1-3.5,4.4
		h-1.7c2.3-3.1,4.1-6.3,5.3-9.7c1.3-3.4,1.9-6.8,1.9-10s-0.6-6.6-1.9-10c-1.3-3.4-3-6.6-5.3-9.7h1.7c1.3,1.4,2.4,2.8,3.5,4.4
		c1.1,1.6,2,3.2,2.7,5c0.7,1.7,1.3,3.4,1.7,5.2C699.3,792.6,699.6,794.3,699.6,796z"/>
</g>
<g class="st3">
	<path class="st6" d="M911.7,740.3c3.6-1.4,6.5-3.3,8.5-5.8c2-2.4,3-5.1,3-8.1v-1h-8v-4.7h22.2v4.7h-8.1v1c0,2.8,0.9,5.2,2.7,7.4
		c1.8,2.1,4.4,3.8,7.9,5l-3.5,4c-0.9-0.4-1.9-0.9-2.9-1.5s-2-1.3-2.9-2s-1.8-1.4-2.5-2.2c-0.8-0.8-1.3-1.6-1.7-2.3
		c-0.8,1.8-2.2,3.5-4.1,5c-1.9,1.6-4,3-6.3,4.1L911.7,740.3z M921.5,746.8h26.3c0.5,0,0.9,0.1,1.1,0.3s0.3,0.6,0.3,1.1v13.6
		c0,0.5-0.1,0.9-0.3,1.1c-0.2,0.2-0.6,0.3-1.1,0.3h-26.3c-0.5,0-0.9-0.1-1.1-0.3c-0.2-0.2-0.3-0.6-0.3-1.1v-13.6
		c0-0.5,0.1-0.9,0.3-1.1C920.6,746.9,921,746.8,921.5,746.8z M943.6,758.5v-7.1h-17.9v7.1H943.6z M949.2,719v9.5h5.6v4.9h-5.6V745
		h-5.7v-26H949.2z"/>
	<path class="st6" d="M960.6,735.8v-16.5h5.6v4.4h20.1v-4.4h5.6v16.5c0,0.5-0.1,0.9-0.3,1.1c-0.2,0.2-0.6,0.3-1.1,0.3h-11.4v4.2
		h17.8v4.8h-41.2v-4.8h17.7v-4.2H962c-0.5,0-0.9-0.1-1.1-0.3C960.7,736.8,960.6,736.4,960.6,735.8z M990.4,749.7
		c0.5,0,0.9,0.1,1.1,0.3c0.2,0.2,0.3,0.6,0.3,1.1V764H986v-9.5h-25.7v-4.8H990.4z M986.3,732.7v-4.6h-20.1v4.6H986.3z"/>
	<path class="st6" d="M1022.7,721.5c0.5,0,0.9,0.1,1.1,0.3c0.2,0.2,0.3,0.6,0.3,1.1c-0.4,6.9-2.1,13.1-5.2,18.5
		c-3.1,5.5-7.6,10.1-13.7,13.9l-4.8-3.8c5.4-2.9,9.5-6.5,12.4-10.7s4.5-9.1,4.9-14.6h-14.9v-4.8L1022.7,721.5L1022.7,721.5z
		 M1037.4,719v44.8h-5.7V719H1037.4z"/>
</g>
<g class="st3">
	<path class="st6" d="M1062.7,758.8c-0.5,0-0.9-0.1-1.1-0.3s-0.3-0.5-0.3-1.1v-35.1c0-0.5,0.1-0.9,0.3-1.1c0.2-0.2,0.5-0.3,1.1-0.3
		h21.4v4.8h-17.2V737h17.1v4.8h-17.1v12.3h18v4.8L1062.7,758.8L1062.7,758.8z"/>
	<path class="st6" d="M1089.2,757.2V754c1.2-1.1,2.8-2.7,4.7-4.7c2-2,3.9-4,5.7-6.2c1.9-2.2,3.5-4.4,4.9-6.5s2-3.9,2-5.4
		c0-2-0.5-3.4-1.5-4.3c-1-0.9-2.4-1.4-4.1-1.4s-3.1,0.6-4.1,1.8s-1.5,3-1.5,5.2h-5.8c0-1.8,0.3-3.4,0.9-4.9s1.4-2.7,2.4-3.7
		s2.2-1.8,3.6-2.4c1.4-0.5,2.9-0.8,4.5-0.8s3.1,0.2,4.5,0.7s2.6,1.1,3.6,2s1.9,1.9,2.5,3.2c0.6,1.2,0.9,2.7,0.9,4.3
		c0,2.2-0.6,4.4-1.9,6.7s-2.8,4.5-4.6,6.5c-1.7,2.1-3.5,4-5.3,5.7s-3.2,3.1-4.2,4.1h16.8v4.8h-22.6c-0.5,0-0.9-0.1-1.1-0.3
		C1089.3,758.1,1089.2,757.8,1089.2,757.2z"/>
</g>
<g class="st3">
	<path class="st6" d="M908.2,796c0-1.7,0.2-3.4,0.6-5.2c0.4-1.8,1-3.5,1.7-5.2s1.6-3.4,2.7-5c1.1-1.6,2.2-3.1,3.5-4.4h1.7
		c-2.3,3.1-4.1,6.3-5.3,9.7s-1.9,6.7-1.9,10s0.6,6.6,1.9,10c1.3,3.4,3,6.7,5.3,9.7h-1.7c-1.3-1.3-2.5-2.8-3.5-4.4s-2-3.2-2.7-4.9
		s-1.3-3.4-1.7-5.2S908.2,797.8,908.2,796z"/>
</g>
<g class="st3">
	<path class="st6" d="M938.2,779.8c0.3,0,0.5,0.1,0.6,0.2c0.1,0.1,0.2,0.3,0.2,0.6c-0.5,4.3-2.2,8-4.9,11.2s-6.7,5.7-11.7,7.5l-2-2
		c4.7-1.5,8.3-3.5,11-6c2.6-2.5,4.3-5.6,4.9-9.2h-13.7v-2.2L938.2,779.8L938.2,779.8z M948.2,814h-20.9c-0.3,0-0.5-0.1-0.6-0.2
		c-0.1-0.1-0.2-0.3-0.2-0.6v-11.8c0-0.3,0.1-0.5,0.2-0.6c0.1-0.1,0.3-0.2,0.6-0.2h20.9c0.3,0,0.5,0.1,0.6,0.2
		c0.1,0.1,0.2,0.3,0.2,0.6v11.8c0,0.3-0.1,0.5-0.2,0.6C948.7,813.9,948.5,814,948.2,814z M929.1,802.8v9h17.3v-9H929.1z M946.3,778
		h2.6v8.8h5.3v2.3h-5.3v9.6h-2.6V778z"/>
	<path class="st6" d="M966.6,778.5c1.7,0,3.2,0.4,4.5,1.1s2.4,1.6,3.2,2.8h8.9V778h2.6v20.7h-2.6v-6.1h-8.8c-0.8,1.3-1.9,2.3-3.2,3
		c-1.4,0.7-2.9,1.1-4.7,1.1c-1.4,0-2.7-0.2-3.8-0.7s-2.1-1.1-2.9-2c-0.8-0.8-1.4-1.8-1.8-2.9c-0.4-1.1-0.7-2.3-0.7-3.5
		c0-1.3,0.2-2.4,0.7-3.5c0.4-1.1,1.1-2.1,1.9-2.9c0.8-0.8,1.8-1.5,2.9-1.9C963.9,778.7,965.2,778.5,966.6,778.5z M966.5,780.8
		c-2.1,0-3.8,0.7-4.9,2c-1.1,1.4-1.7,2.9-1.7,4.8c0,0.9,0.1,1.8,0.4,2.6c0.3,0.8,0.7,1.6,1.3,2.2c0.5,0.6,1.2,1.1,2.1,1.5
		c0.8,0.4,1.8,0.6,2.8,0.6c1.1,0,2-0.2,2.8-0.6c0.8-0.4,1.5-0.9,2.1-1.5c0.6-0.7,1-1.4,1.3-2.2s0.5-1.7,0.5-2.6
		c0-1.8-0.6-3.4-1.7-4.8C970.3,781.4,968.7,780.8,966.5,780.8z M985.1,814h-21.6c-0.3,0-0.5-0.1-0.6-0.2s-0.2-0.3-0.2-0.6v-11.8
		c0-0.3,0.1-0.5,0.2-0.6s0.3-0.2,0.6-0.2h21.6c0.3,0,0.5,0.1,0.6,0.2s0.2,0.3,0.2,0.6v11.8c0,0.3-0.1,0.5-0.2,0.6
		S985.4,814,985.1,814z M965.3,802.8v9h18v-9H965.3z M975.4,784.5c0.2,0.5,0.3,1,0.4,1.5c0.1,0.5,0.1,1.1,0.1,1.6s0,1-0.1,1.5
		s-0.2,0.9-0.3,1.4h7.8v-5.9L975.4,784.5L975.4,784.5z"/>
	<path class="st6" d="M1009.1,790h-12.4v6.3l5.9-0.1c0.8,0,1.9,0,3.1-0.1c1.2-0.1,2.5-0.2,3.7-0.3c1.3-0.1,2.5-0.3,3.6-0.5
		s2.1-0.3,2.9-0.5v2.2c-0.7,0.1-1.5,0.3-2.5,0.4c-1,0.2-2.2,0.3-3.4,0.4c-1.2,0.2-2.4,0.3-3.6,0.4c-1.2,0.1-2.3,0.2-3.3,0.2
		c-1,0.1-2,0.1-3,0.1s-1.8,0-2.5,0s-1.3,0-1.8,0s-0.8,0-0.8,0c-0.3,0-0.5-0.1-0.6-0.2c-0.1-0.1-0.2-0.3-0.2-0.6v-9.1
		c0-0.2,0.1-0.4,0.2-0.6c0.1-0.1,0.3-0.2,0.6-0.2h12.4v-6.3h-13.2v-2.1h14.9c0.3,0,0.5,0.1,0.6,0.2c0.1,0.1,0.2,0.3,0.2,0.6v9
		c0,0.3-0.1,0.5-0.2,0.6C1009.6,790,1009.4,790,1009.1,790z M1020.6,802.6c0.3,0,0.5,0.1,0.6,0.2c0.1,0.1,0.2,0.3,0.2,0.6v11.3h-2.6
		v-9.8h-21.2v-2.2L1020.6,802.6L1020.6,802.6z M1018.8,778h2.6v22.7h-2.6v-8.9h-6.8v-2.2h6.8v-5h-6.8v-2.2h6.8V778z"/>
</g>
<g class="st3">
	<path class="st6" d="M1051.1,778.5c1.4,0,2.6,0.2,3.8,0.7c1.1,0.5,2.1,1.1,2.9,1.9s1.5,1.8,1.9,2.9s0.7,2.3,0.7,3.6
		s-0.2,2.5-0.7,3.6s-1.1,2.1-1.9,2.9c-0.8,0.8-1.8,1.5-3,1.9c-1.1,0.5-2.4,0.7-3.8,0.7s-2.7-0.2-3.8-0.7c-1.1-0.5-2.1-1.1-2.9-2
		c-0.8-0.8-1.4-1.8-1.8-2.9c-0.4-1.1-0.7-2.3-0.7-3.5c0-1.3,0.2-2.4,0.7-3.5c0.4-1.1,1.1-2.1,1.9-2.9c0.8-0.8,1.8-1.5,2.9-1.9
		S1049.7,778.5,1051.1,778.5z M1051.3,800.8h2.5v1.6c0,1.6,0.5,3.2,1.4,4.8c1,1.6,2.2,3,3.6,4.2c1.3-1,2.5-2.4,3.5-4
		c1-1.7,1.5-3.4,1.5-5.2v-1.3h2.5v1.5c0,1.1,0.2,2.1,0.7,3.2c0.5,1.1,1.1,2.1,1.8,3c0.8,1,1.6,1.8,2.6,2.6s1.9,1.4,3,1.8l-2.1,1.8
		c-1.6-1-2.9-2.1-4.1-3.3s-2.2-2.6-3-4.2c-0.8,1.4-1.7,2.8-2.7,4c-1.1,1.2-2.2,2.3-3.6,3.3c-1.5-1.1-2.8-2.3-3.9-3.5
		s-1.9-2.5-2.5-3.8c-0.8,1.6-1.8,3-3,4.2c-1.2,1.3-2.5,2.4-4.1,3.3l-2-1.8c1-0.5,1.9-1.1,2.8-1.9c0.9-0.8,1.8-1.6,2.5-2.5
		s1.3-1.9,1.8-3s0.7-2.2,0.7-3.3L1051.3,800.8L1051.3,800.8z M1051.1,780.8c-2.1,0-3.8,0.7-4.9,2c-1.1,1.4-1.7,2.9-1.7,4.8
		c0,0.9,0.1,1.8,0.4,2.6s0.7,1.6,1.3,2.2c0.5,0.6,1.2,1.1,2.1,1.5c0.8,0.4,1.8,0.6,2.8,0.6c1.1,0,2-0.2,2.8-0.6
		c0.8-0.4,1.5-0.9,2.1-1.5c0.6-0.7,1-1.4,1.3-2.2s0.5-1.7,0.5-2.6c0-1.8-0.6-3.4-1.7-4.8C1054.8,781.4,1053.2,780.8,1051.1,780.8z
		 M1067.8,778h2.6v21.2h-2.6V778z"/>
	<path class="st6" d="M1075.9,795.3h33.4v2.2h-33.4V795.3z M1092.6,777.8c1.9,0,3.6,0.2,5.1,0.5s2.9,0.8,4,1.5
		c1.1,0.6,1.9,1.3,2.6,2.2s0.9,1.8,0.9,2.9c0,1.1-0.3,2.1-0.9,2.9c-0.6,0.9-1.5,1.6-2.6,2.2c-1.1,0.6-2.4,1.1-4,1.4
		s-3.2,0.5-5.1,0.5s-3.6-0.2-5.1-0.5s-2.9-0.8-4-1.4c-1.1-0.6-2-1.3-2.6-2.2s-0.9-1.8-0.9-2.9c0-1,0.3-2,0.9-2.9s1.4-1.6,2.6-2.2
		c1.1-0.6,2.4-1.1,4-1.5S1090.7,777.8,1092.6,777.8z M1103.9,814h-22.6c-0.3,0-0.5-0.1-0.6-0.2c-0.1-0.1-0.2-0.3-0.2-0.6v-10.8
		c0-0.3,0.1-0.5,0.2-0.6s0.3-0.2,0.6-0.2h22.6c0.3,0,0.5,0.1,0.6,0.2s0.2,0.3,0.2,0.6v10.8c0,0.3-0.1,0.5-0.2,0.6
		S1104.2,814,1103.9,814z M1092.6,779.7c-1.4,0-2.8,0.1-4,0.4c-1.2,0.3-2.3,0.6-3.1,1c-0.9,0.5-1.6,1-2.1,1.6s-0.7,1.3-0.7,2
		s0.2,1.4,0.7,2s1.2,1.2,2.1,1.6c0.9,0.5,1.9,0.8,3.1,1.1s2.5,0.4,4,0.4c1.4,0,2.7-0.1,4-0.4c1.2-0.3,2.3-0.6,3.1-1.1
		c0.9-0.5,1.6-1,2.1-1.6s0.8-1.3,0.8-2s-0.3-1.4-0.8-2s-1.2-1.2-2.1-1.6c-0.9-0.4-1.9-0.8-3.1-1
		C1095.3,779.9,1094,779.7,1092.6,779.7z M1083,803.8v8.1h19.1v-8.1H1083z"/>
</g>
<g class="st3">
	<path class="st6" d="M1121.9,796c0,1.7-0.2,3.5-0.6,5.2c-0.4,1.8-1,3.5-1.7,5.2c-0.8,1.7-1.7,3.3-2.7,4.9c-1.1,1.6-2.2,3.1-3.5,4.4
		h-1.7c2.3-3.1,4.1-6.3,5.3-9.7c1.3-3.4,1.9-6.8,1.9-10s-0.6-6.6-1.9-10s-3-6.6-5.3-9.7h1.7c1.3,1.4,2.4,2.8,3.5,4.4
		c1.1,1.6,2,3.2,2.7,5c0.7,1.7,1.3,3.4,1.7,5.2C1121.7,792.6,1121.9,794.3,1121.9,796z"/>
</g>
<g class="st3">
	<path class="st6" d="M1353.9,720.8c0.5,0,0.9,0.1,1.1,0.3s0.3,0.6,0.3,1.1c-0.6,5.5-2.5,10.1-5.9,13.9c-3.3,3.8-8,6.6-14.2,8.7
		l-3.5-4.1c4.8-1.3,8.6-3.2,11.5-5.7s4.8-5.6,5.6-9.4h-14.7v-4.8H1353.9z M1339.9,746h26.4c0.5,0,0.9,0.1,1.1,0.3s0.3,0.6,0.3,1.1
		v14.4c0,0.5-0.1,0.9-0.3,1.1c-0.2,0.2-0.6,0.3-1.1,0.3h-26.4c-0.5,0-0.9-0.1-1.1-0.3s-0.3-0.6-0.3-1.1v-14.4c0-0.5,0.1-0.9,0.3-1.1
		C1339,746.1,1339.4,746,1339.9,746z M1362.1,758.5v-7.8h-18v7.8H1362.1z M1367.6,718.9v9.9h5.9v4.8h-5.9v10.7h-5.6V719h5.6V718.9z"
		/>
	<path class="st6" d="M1376,730.9c0-1.6,0.3-3.1,0.9-4.5s1.4-2.6,2.4-3.7c1.1-1,2.3-1.9,3.8-2.5c1.4-0.6,3-0.9,4.8-0.9
		c2,0,3.8,0.4,5.4,1.2s2.9,1.8,4,3.1h9.5V719h5.7v25.5h-5.7V738h-9.2c-1.1,1.4-2.4,2.5-4.1,3.3c-1.6,0.8-3.5,1.2-5.5,1.2
		c-1.7,0-3.3-0.3-4.8-0.9c-1.5-0.6-2.7-1.4-3.8-2.4c-1-1-1.8-2.2-2.4-3.6C1376.3,734,1376,732.5,1376,730.9z M1387.8,737.7
		c1.9,0,3.4-0.7,4.5-2s1.7-2.9,1.7-4.7c0-1.9-0.6-3.5-1.7-4.8s-2.6-2-4.5-2s-3.5,0.6-4.6,1.9c-1.1,1.3-1.6,2.9-1.6,4.8
		c0,1.8,0.6,3.4,1.6,4.7C1384.4,737,1385.9,737.7,1387.8,737.7z M1383.7,746.3h27.3c0.5,0,0.9,0.1,1.1,0.3s0.3,0.6,0.3,1.1v14.1
		c0,0.5-0.1,0.9-0.3,1.1c-0.2,0.2-0.6,0.3-1.1,0.3h-27.3c-0.5,0-0.9-0.1-1.1-0.3s-0.3-0.6-0.3-1.1v-14.1c0-0.5,0.1-0.9,0.3-1.1
		S1383.2,746.3,1383.7,746.3z M1406.8,758.6V751h-18.9v7.6H1406.8z M1399.4,728.3c0.1,0.4,0.2,0.9,0.2,1.3c0.1,0.4,0.1,0.9,0.1,1.3
		s0,0.8-0.1,1.2c0,0.4-0.1,0.8-0.2,1.1h7.2v-5h-7.2V728.3z"/>
</g>
<g class="st3">
	<path class="st6" d="M1428.7,757.3c0,2.5-0.5,4.5-1.6,6s-2.7,2.5-4.8,2.8V764c0.9-0.2,1.5-0.7,1.9-1.5s0.6-1.7,0.6-2.8h-3v-6.2h5.8
		c0.3,0,0.6,0.1,0.8,0.3c0.2,0.2,0.3,0.5,0.3,0.8L1428.7,757.3L1428.7,757.3z"/>
</g>
<g class="st3">
	<path class="st6" d="M1469.7,720.8c0.5,0,0.9,0.1,1.1,0.3s0.3,0.6,0.3,1.1c-0.6,5.2-2.5,9.8-5.6,13.8c-3.2,4-8,7-14.4,9.1l-3.5-4.1
		c4.9-1.4,8.8-3.4,11.6-6c2.9-2.6,4.7-5.8,5.5-9.4h-14.5v-4.8L1469.7,720.8L1469.7,720.8z M1469.6,745.7c2.3,0,4.4,0.2,6.3,0.6
		c2,0.4,3.6,1,5.1,1.9c1.4,0.8,2.5,1.8,3.3,2.9c0.8,1.2,1.2,2.5,1.2,4s-0.4,2.9-1.2,4.1c-0.8,1.2-1.9,2.1-3.3,2.9
		c-1.4,0.8-3.1,1.4-5.1,1.8c-1.9,0.4-4.1,0.6-6.4,0.6s-4.4-0.2-6.3-0.6c-1.9-0.4-3.6-1-5-1.8s-2.5-1.8-3.3-2.9
		c-0.8-1.2-1.2-2.5-1.2-4.1c0-1.5,0.4-2.8,1.2-3.9c0.8-1.2,1.9-2.2,3.4-3c1.4-0.8,3.1-1.4,5.1-1.9
		C1465.3,745.9,1467.3,745.7,1469.6,745.7z M1469.6,750.1c-2.9,0-5.3,0.4-7.1,1.3c-1.8,0.9-2.8,2.1-2.8,3.6c0,1.6,0.9,2.8,2.8,3.7
		s4.2,1.4,7.1,1.4s5.3-0.5,7.1-1.4c1.8-0.9,2.7-2.2,2.7-3.7c0-1.6-0.9-2.8-2.7-3.6C1474.9,750.5,1472.5,750.1,1469.6,750.1z
		 M1479.3,745.5v-6.1h-8.5v-4.7h8.5v-5.2h-7.6v-4.7h7.6v-5.9h5.7v26.6L1479.3,745.5L1479.3,745.5z"/>
	<path class="st6" d="M1490.3,739h41.2v4.8h-41.2V739z M1495.1,720h31.7v4.8h-12.5c0.3,1.2,1,2.2,2,3s2.2,1.6,3.6,2.2
		c1.4,0.6,2.9,1.1,4.6,1.5s3.4,0.7,5.1,0.9l-3.4,4.1c-1.5-0.2-3-0.5-4.5-1c-1.5-0.4-3-0.9-4.3-1.4c-1.4-0.6-2.7-1.2-3.8-2
		c-1.1-0.8-2.1-1.6-2.8-2.6c-0.8,1-1.8,1.8-2.9,2.6s-2.4,1.4-3.7,2c-1.3,0.6-2.7,1.1-4.2,1.5s-3,0.7-4.4,0.9l-3.5-4
		c2-0.3,3.9-0.7,5.6-1.2s3.3-1,4.7-1.6c1.3-0.6,2.4-1.4,3.3-2.2s1.5-1.7,1.8-2.8H1495V720H1495.1z M1510.9,746.8
		c5.4,0,9.5,0.8,12.3,2.5c2.9,1.7,4.3,3.8,4.3,6.4c0,2.6-1.4,4.8-4.2,6.4c-2.8,1.6-6.9,2.5-12.3,2.5s-9.6-0.8-12.4-2.5
		s-4.2-3.8-4.2-6.4c0-2.6,1.4-4.7,4.2-6.4S1505.5,746.8,1510.9,746.8z M1510.9,751c-3.2,0-5.7,0.4-7.5,1.2s-2.8,1.9-2.8,3.3
		c0,1.5,0.9,2.6,2.8,3.4c1.8,0.8,4.3,1.2,7.5,1.2c3.1,0,5.6-0.4,7.5-1.2c1.8-0.8,2.8-1.9,2.8-3.4c0-1.4-0.9-2.5-2.8-3.3
		S1514.1,751,1510.9,751z"/>
</g>
<g class="st3">
	<path class="st6" d="M1325.1,796c0-1.7,0.2-3.4,0.6-5.2s1-3.5,1.7-5.2s1.6-3.4,2.7-5s2.2-3.1,3.5-4.4h1.7c-2.3,3.1-4.1,6.3-5.3,9.7
		c-1.2,3.4-1.9,6.7-1.9,10s0.6,6.6,1.9,10s3,6.7,5.3,9.7h-1.7c-1.3-1.3-2.5-2.8-3.5-4.4s-2-3.2-2.7-4.9s-1.3-3.4-1.7-5.2
		S1325.1,797.8,1325.1,796z"/>
</g>
<g class="st3">
	<path class="st6" d="M1355.1,779.8c0.3,0,0.5,0.1,0.6,0.2c0.1,0.1,0.2,0.3,0.2,0.6c-0.5,4.3-2.2,8-4.9,11.2s-6.7,5.7-11.7,7.5l-2-2
		c4.7-1.5,8.3-3.5,11-6c2.6-2.5,4.3-5.6,4.9-9.2h-13.7v-2.2L1355.1,779.8L1355.1,779.8z M1365.1,814h-20.9c-0.3,0-0.5-0.1-0.6-0.2
		c-0.1-0.1-0.2-0.3-0.2-0.6v-11.8c0-0.3,0.1-0.5,0.2-0.6s0.3-0.2,0.6-0.2h20.9c0.3,0,0.5,0.1,0.6,0.2c0.1,0.1,0.2,0.3,0.2,0.6v11.8
		c0,0.3-0.1,0.5-0.2,0.6C1365.5,813.9,1365.3,814,1365.1,814z M1346,802.8v9h17.3v-9H1346z M1363.1,778h2.6v8.8h5.3v2.3h-5.3v9.6
		h-2.6V778z"/>
</g>
<g class="st3">
	<path class="st6" d="M1383.8,778.5c1.7,0,3.2,0.4,4.5,1.1s2.4,1.6,3.2,2.8h8.9V778h2.6v20.7h-2.6v-6.1h-8.8c-0.8,1.3-1.9,2.3-3.2,3
		c-1.4,0.7-2.9,1.1-4.7,1.1c-1.4,0-2.7-0.2-3.8-0.7c-1.1-0.5-2.1-1.1-2.9-2c-0.8-0.8-1.4-1.8-1.8-2.9c-0.4-1.1-0.7-2.3-0.7-3.5
		c0-1.3,0.2-2.4,0.7-3.5c0.4-1.1,1.1-2.1,1.9-2.9c0.8-0.8,1.8-1.5,2.9-1.9C1381.1,778.7,1382.4,778.5,1383.8,778.5z M1383.8,780.8
		c-2.1,0-3.8,0.7-4.9,2c-1.1,1.4-1.7,2.9-1.7,4.8c0,0.9,0.1,1.8,0.4,2.6s0.7,1.6,1.3,2.2c0.5,0.6,1.2,1.1,2.1,1.5
		c0.8,0.4,1.8,0.6,2.8,0.6c1.1,0,2-0.2,2.8-0.6c0.8-0.4,1.5-0.9,2.1-1.5c0.6-0.7,1-1.4,1.3-2.2s0.5-1.7,0.5-2.6
		c0-1.8-0.6-3.4-1.7-4.8C1387.6,781.4,1385.9,780.8,1383.8,780.8z M1402.3,814h-21.6c-0.3,0-0.5-0.1-0.6-0.2s-0.2-0.3-0.2-0.6v-11.8
		c0-0.3,0.1-0.5,0.2-0.6s0.3-0.2,0.6-0.2h21.6c0.3,0,0.5,0.1,0.6,0.2s0.2,0.3,0.2,0.6v11.8c0,0.3-0.1,0.5-0.2,0.6
		S1402.6,814,1402.3,814z M1382.5,802.8v9h18v-9H1382.5z M1392.6,784.5c0.2,0.5,0.3,1,0.4,1.5s0.1,1.1,0.1,1.6s0,1-0.1,1.5
		s-0.2,0.9-0.3,1.4h7.8v-5.9L1392.6,784.5L1392.6,784.5z"/>
	<path class="st6" d="M1426.3,790h-12.4v6.3l5.9-0.1c0.8,0,1.9,0,3.1-0.1s2.5-0.2,3.7-0.3c1.3-0.1,2.5-0.3,3.6-0.5s2.1-0.3,2.9-0.5
		v2.2c-0.7,0.1-1.5,0.3-2.5,0.4c-1,0.2-2.2,0.3-3.4,0.4c-1.2,0.2-2.4,0.3-3.6,0.4c-1.2,0.1-2.3,0.2-3.3,0.2c-1,0.1-2,0.1-3,0.1
		s-1.8,0-2.5,0s-1.3,0-1.8,0s-0.8,0-0.8,0c-0.3,0-0.5-0.1-0.6-0.2c-0.1-0.1-0.2-0.3-0.2-0.6v-9.1c0-0.2,0.1-0.4,0.2-0.6
		c0.1-0.1,0.3-0.2,0.6-0.2h12.4v-6.3h-13.2v-2.1h14.9c0.3,0,0.5,0.1,0.6,0.2c0.1,0.1,0.2,0.3,0.2,0.6v9c0,0.3-0.1,0.5-0.2,0.6
		C1426.8,790,1426.6,790,1426.3,790z M1437.8,802.6c0.3,0,0.5,0.1,0.6,0.2c0.1,0.1,0.2,0.3,0.2,0.6v11.3h-2.6v-9.8h-21.2v-2.2
		L1437.8,802.6L1437.8,802.6z M1436.1,778h2.6v22.7h-2.6v-8.9h-6.8v-2.2h6.8v-5h-6.8v-2.2h6.8V778z"/>
</g>
<g class="st3">
	<path class="st6" d="M1468,778.5c1.4,0,2.6,0.2,3.8,0.7c1.1,0.5,2.1,1.1,2.9,1.9c0.8,0.8,1.5,1.8,1.9,2.9s0.7,2.3,0.7,3.6
		s-0.2,2.5-0.7,3.6s-1.1,2.1-1.9,2.9c-0.8,0.8-1.8,1.5-3,1.9c-1.1,0.5-2.4,0.7-3.8,0.7s-2.7-0.2-3.8-0.7c-1.1-0.5-2.1-1.1-2.9-2
		c-0.8-0.8-1.4-1.8-1.8-2.9c-0.4-1.1-0.7-2.3-0.7-3.5c0-1.3,0.2-2.4,0.7-3.5c0.4-1.1,1.1-2.1,1.9-2.9c0.8-0.8,1.8-1.5,2.9-1.9
		C1465.3,778.7,1466.6,778.5,1468,778.5z M1468.2,800.8h2.5v1.6c0,1.6,0.5,3.2,1.4,4.8s2.2,3,3.6,4.2c1.3-1,2.5-2.4,3.5-4
		c1-1.7,1.5-3.4,1.5-5.2v-1.3h2.5v1.5c0,1.1,0.2,2.1,0.7,3.2c0.5,1.1,1.1,2.1,1.8,3c0.8,1,1.6,1.8,2.6,2.6s1.9,1.4,3,1.8l-2.1,1.8
		c-1.6-1-2.9-2.1-4.1-3.3s-2.2-2.6-3-4.2c-0.8,1.4-1.7,2.8-2.7,4c-1.1,1.2-2.2,2.3-3.6,3.3c-1.5-1.1-2.8-2.3-3.9-3.5
		s-1.9-2.5-2.5-3.8c-0.8,1.6-1.8,3-3,4.2c-1.2,1.3-2.5,2.4-4.1,3.3l-2-1.8c1-0.5,1.9-1.1,2.8-1.9c0.9-0.8,1.8-1.6,2.5-2.5
		s1.3-1.9,1.8-3s0.7-2.2,0.7-3.3L1468.2,800.8L1468.2,800.8z M1467.9,780.8c-2.1,0-3.8,0.7-4.9,2c-1.1,1.4-1.7,2.9-1.7,4.8
		c0,0.9,0.1,1.8,0.4,2.6s0.7,1.6,1.3,2.2c0.5,0.6,1.2,1.1,2.1,1.5c0.8,0.4,1.8,0.6,2.8,0.6s2-0.2,2.8-0.6c0.8-0.4,1.5-0.9,2.1-1.5
		c0.6-0.7,1-1.4,1.3-2.2s0.5-1.7,0.5-2.6c0-1.8-0.6-3.4-1.7-4.8C1471.7,781.4,1470.1,780.8,1467.9,780.8z M1484.7,778h2.6v21.2h-2.6
		V778z"/>
	<path class="st6" d="M1492.8,795.3h33.4v2.2h-33.4V795.3z M1509.4,777.8c1.9,0,3.6,0.2,5.1,0.5s2.9,0.8,4,1.5
		c1.1,0.6,1.9,1.3,2.6,2.2s0.9,1.8,0.9,2.9c0,1.1-0.3,2.1-0.9,2.9c-0.6,0.9-1.5,1.6-2.6,2.2c-1.1,0.6-2.4,1.1-4,1.4
		c-1.5,0.3-3.2,0.5-5.1,0.5s-3.6-0.2-5.1-0.5s-2.9-0.8-4-1.4c-1.1-0.6-2-1.3-2.6-2.2s-0.9-1.8-0.9-2.9c0-1,0.3-2,0.9-2.9
		s1.4-1.6,2.6-2.2c1.1-0.6,2.4-1.1,4-1.5C1505.8,777.9,1507.6,777.8,1509.4,777.8z M1520.8,814h-22.6c-0.3,0-0.5-0.1-0.6-0.2
		s-0.2-0.3-0.2-0.6v-10.8c0-0.3,0.1-0.5,0.2-0.6s0.3-0.2,0.6-0.2h22.6c0.3,0,0.5,0.1,0.6,0.2s0.2,0.3,0.2,0.6v10.8
		c0,0.3-0.1,0.5-0.2,0.6S1521.1,814,1520.8,814z M1509.4,779.7c-1.4,0-2.8,0.1-4,0.4c-1.2,0.3-2.3,0.6-3.1,1c-0.9,0.5-1.6,1-2.1,1.6
		s-0.7,1.3-0.7,2s0.2,1.4,0.7,2s1.2,1.2,2.1,1.6c0.9,0.5,1.9,0.8,3.1,1.1s2.5,0.4,4,0.4c1.4,0,2.7-0.1,4-0.4s2.3-0.6,3.1-1.1
		c0.9-0.5,1.6-1,2.1-1.6s0.8-1.3,0.8-2s-0.3-1.4-0.8-2s-1.2-1.2-2.1-1.6c-0.9-0.4-1.9-0.8-3.1-1
		C1512.2,779.9,1510.9,779.7,1509.4,779.7z M1499.9,803.8v8.1h19.1v-8.1H1499.9z"/>
</g>
<g class="st3">
	<path class="st6" d="M1538.8,796c0,1.7-0.2,3.5-0.6,5.2s-1,3.5-1.7,5.2c-0.8,1.7-1.7,3.3-2.7,4.9c-1.1,1.6-2.2,3.1-3.5,4.4h-1.7
		c2.3-3.1,4.1-6.3,5.3-9.7c1.3-3.4,1.9-6.8,1.9-10s-0.6-6.6-1.9-10s-3-6.6-5.3-9.7h1.7c1.3,1.4,2.4,2.8,3.5,4.4c1.1,1.6,2,3.2,2.7,5
		c0.7,1.7,1.3,3.4,1.7,5.2S1538.8,794.3,1538.8,796z"/>
</g>
<g class="st3">
	<path class="st6" d="M1791.7,846.8c0.5,0,0.9,0.1,1.1,0.3s0.3,0.6,0.3,1.1c-0.6,5.5-2.5,10.1-5.8,13.9s-8,6.6-14.2,8.7l-3.5-4.1
		c4.8-1.3,8.6-3.2,11.5-5.7s4.8-5.6,5.7-9.4H1772v-4.8H1791.7z M1777.7,872h26.4c0.5,0,0.9,0.1,1.1,0.3s0.3,0.6,0.3,1.1v14.4
		c0,0.5-0.1,0.9-0.3,1.1c-0.2,0.2-0.6,0.3-1.1,0.3h-26.4c-0.5,0-0.9-0.1-1.1-0.3s-0.3-0.6-0.3-1.1v-14.4c0-0.5,0.1-0.9,0.3-1.1
		C1776.8,872.1,1777.2,872,1777.7,872z M1799.9,884.5v-7.8h-18v7.8H1799.9z M1805.5,844.9v9.9h5.8v4.8h-5.8v10.7h-5.7V845h5.7V844.9
		z"/>
	<path class="st6" d="M1813.8,856.9c0-1.6,0.3-3.1,0.9-4.5s1.4-2.6,2.4-3.7c1.1-1,2.3-1.9,3.8-2.5c1.4-0.6,3-0.9,4.8-0.9
		c2,0,3.8,0.4,5.4,1.2s2.9,1.8,4,3.1h9.5V845h5.7v25.5h-5.7V864h-9.2c-1.1,1.4-2.4,2.5-4.1,3.3c-1.6,0.8-3.5,1.2-5.5,1.2
		c-1.7,0-3.3-0.3-4.8-0.9c-1.5-0.6-2.7-1.4-3.8-2.4c-1-1-1.8-2.2-2.4-3.6C1814.1,860,1813.8,858.5,1813.8,856.9z M1825.7,863.7
		c1.9,0,3.4-0.7,4.5-2s1.7-2.9,1.7-4.7c0-1.9-0.6-3.5-1.7-4.8s-2.6-2-4.5-2s-3.5,0.6-4.5,1.9c-1.1,1.3-1.7,2.9-1.7,4.8
		c0,1.8,0.6,3.4,1.7,4.7S1823.8,863.7,1825.7,863.7z M1821.5,872.3h27.3c0.5,0,0.9,0.1,1.1,0.3s0.3,0.6,0.3,1.1v14.1
		c0,0.5-0.1,0.9-0.3,1.1c-0.2,0.2-0.6,0.3-1.1,0.3h-27.3c-0.5,0-0.9-0.1-1.1-0.3s-0.3-0.6-0.3-1.1v-14.1c0-0.5,0.1-0.9,0.3-1.1
		S1821,872.3,1821.5,872.3z M1844.6,884.6V877h-18.9v7.6H1844.6z M1837.3,854.3c0.1,0.4,0.2,0.9,0.2,1.3c0,0.4,0.1,0.9,0.1,1.3
		s0,0.8-0.1,1.2c0,0.4-0.1,0.8-0.2,1.1h7.2v-5h-7.2V854.3z"/>
</g>
<g class="st3">
	<path class="st6" d="M1866.6,883.3c0,2.5-0.5,4.5-1.6,6s-2.7,2.5-4.8,2.8V890c0.9-0.2,1.5-0.7,2-1.5c0.4-0.8,0.6-1.7,0.5-2.8h-3
		v-6.2h5.8c0.3,0,0.6,0.1,0.8,0.3c0.2,0.2,0.3,0.5,0.3,0.8L1866.6,883.3L1866.6,883.3z"/>
</g>
<g class="st3">
	<path class="st6" d="M1908,873.3c4.5,0.3,7.9,1.2,10.2,2.7c2.3,1.5,3.5,3.5,3.5,5.8c0,2.6-1.4,4.7-4.2,6.3
		c-2.8,1.6-6.9,2.3-12.3,2.3s-9.6-0.8-12.4-2.3c-2.8-1.6-4.2-3.7-4.2-6.3c0-2.4,1.2-4.3,3.5-5.8s5.7-2.4,10.1-2.7V869h-17.5v-4.7
		h41.2v4.7H1908V873.3z M1889.3,846.1h31.7v4.8h-12.5c0.3,1.2,1,2.2,2,3s2.2,1.5,3.7,2c1.4,0.6,2.9,1,4.6,1.4
		c1.7,0.3,3.4,0.6,5.1,0.8l-3.4,4.1c-1.5-0.2-3-0.5-4.5-0.8s-3-0.8-4.3-1.3c-1.4-0.5-2.7-1.1-3.8-1.8c-1.1-0.7-2.1-1.6-2.8-2.5
		c-0.8,1-1.8,1.8-2.9,2.5s-2.4,1.3-3.7,1.9c-1.3,0.5-2.7,1-4.2,1.3c-1.5,0.4-3,0.6-4.4,0.8l-3.5-4c2-0.3,3.9-0.7,5.6-1.1
		c1.8-0.4,3.3-0.9,4.7-1.4c1.3-0.6,2.5-1.2,3.3-2c0.9-0.8,1.5-1.6,1.8-2.7h-12.5L1889.3,846.1L1889.3,846.1z M1905.2,877.5
		c-3.2,0-5.7,0.4-7.5,1.1c-1.8,0.7-2.8,1.8-2.8,3.2c0,1.5,0.9,2.6,2.8,3.3c1.8,0.7,4.3,1,7.5,1c3.1,0,5.6-0.3,7.5-1s2.8-1.8,2.8-3.3
		c0-1.4-0.9-2.5-2.8-3.2C1910.8,877.9,1908.3,877.5,1905.2,877.5z"/>
	<path class="st6" d="M1928.2,865h41.2v4.8h-41.2V865z M1932.9,846h31.7v4.8h-12.5c0.3,1.2,1,2.2,2,3s2.2,1.6,3.7,2.2
		c1.4,0.6,2.9,1.1,4.6,1.5s3.4,0.7,5.1,0.9l-3.4,4.1c-1.5-0.2-3-0.5-4.5-1c-1.5-0.4-3-0.9-4.3-1.4c-1.4-0.6-2.7-1.2-3.8-2
		c-1.1-0.8-2.1-1.6-2.8-2.6c-0.8,1-1.8,1.8-2.9,2.6s-2.4,1.4-3.7,2c-1.3,0.6-2.7,1.1-4.2,1.5s-3,0.7-4.4,0.9l-3.5-4
		c2-0.3,3.9-0.7,5.6-1.2s3.3-1,4.7-1.6c1.3-0.6,2.5-1.4,3.3-2.2c0.9-0.8,1.5-1.7,1.8-2.8h-12.5L1932.9,846L1932.9,846z
		 M1948.8,872.8c5.4,0,9.5,0.8,12.3,2.5s4.3,3.8,4.3,6.4c0,2.6-1.4,4.8-4.2,6.4c-2.8,1.6-6.9,2.5-12.3,2.5s-9.6-0.8-12.4-2.5
		s-4.2-3.8-4.2-6.4c0-2.6,1.4-4.7,4.2-6.4C1939.2,873.6,1943.4,872.8,1948.8,872.8z M1948.8,877c-3.2,0-5.7,0.4-7.5,1.2
		s-2.8,1.9-2.8,3.3c0,1.5,0.9,2.6,2.8,3.4c1.8,0.8,4.3,1.2,7.5,1.2c3.1,0,5.6-0.4,7.5-1.2s2.8-1.9,2.8-3.4c0-1.4-0.9-2.5-2.8-3.3
		C1954.4,877.5,1951.9,877,1948.8,877z"/>
</g>
<g class="st3">
	<path class="st6" d="M1763,922c0-1.7,0.2-3.4,0.6-5.2s1-3.5,1.7-5.2s1.6-3.4,2.7-5s2.2-3.1,3.5-4.4h1.7c-2.3,3.1-4.1,6.3-5.3,9.7
		c-1.2,3.4-1.9,6.7-1.9,10s0.6,6.6,1.9,10s3,6.7,5.3,9.7h-1.7c-1.3-1.3-2.5-2.8-3.5-4.4c-1.1-1.6-2-3.2-2.7-4.9s-1.3-3.4-1.7-5.2
		S1763,923.8,1763,922z"/>
</g>
<g class="st3">
	<path class="st6" d="M1792.9,905.8c0.3,0,0.5,0.1,0.6,0.2c0.1,0.1,0.2,0.3,0.2,0.6c-0.5,4.3-2.2,8-4.9,11.2s-6.7,5.7-11.7,7.5l-2-2
		c4.7-1.5,8.3-3.5,11-6s4.3-5.6,4.9-9.2h-13.7v-2.2L1792.9,905.8L1792.9,905.8z M1802.9,940H1782c-0.3,0-0.5-0.1-0.6-0.2
		s-0.2-0.3-0.2-0.6v-11.8c0-0.3,0.1-0.5,0.2-0.6s0.3-0.2,0.6-0.2h20.9c0.3,0,0.5,0.1,0.6,0.2c0.1,0.1,0.2,0.3,0.2,0.6v11.8
		c0,0.3-0.1,0.5-0.2,0.6C1803.4,939.9,1803.2,940,1802.9,940z M1783.8,928.8v9h17.3v-9H1783.8z M1801,904h2.6v8.8h5.3v2.3h-5.3v9.6
		h-2.6V904z"/>
</g>
<g class="st3">
	<path class="st6" d="M1821.7,904.5c1.7,0,3.2,0.4,4.5,1.1s2.4,1.6,3.2,2.8h8.9V904h2.6v20.7h-2.6v-6.1h-8.8c-0.8,1.3-1.9,2.3-3.2,3
		c-1.4,0.7-2.9,1.1-4.7,1.1c-1.4,0-2.7-0.2-3.8-0.7c-1.1-0.5-2.1-1.1-2.9-2c-0.8-0.8-1.4-1.8-1.8-2.9s-0.7-2.3-0.7-3.5
		c0-1.3,0.2-2.4,0.7-3.5c0.4-1.1,1.1-2.1,1.9-2.9c0.8-0.8,1.8-1.5,2.9-1.9S1820.2,904.5,1821.7,904.5z M1821.6,906.8
		c-2.1,0-3.8,0.7-4.9,2c-1.1,1.4-1.7,2.9-1.7,4.8c0,0.9,0.1,1.8,0.4,2.6s0.7,1.6,1.3,2.2c0.5,0.6,1.2,1.1,2.1,1.5s1.8,0.6,2.8,0.6
		c1.1,0,2-0.2,2.8-0.6s1.5-0.9,2.1-1.5c0.6-0.7,1-1.4,1.3-2.2s0.5-1.7,0.5-2.6c0-1.8-0.6-3.4-1.7-4.8
		C1825.4,907.4,1823.8,906.8,1821.6,906.8z M1840.2,940h-21.6c-0.3,0-0.5-0.1-0.6-0.2s-0.2-0.3-0.2-0.6v-11.8c0-0.3,0.1-0.5,0.2-0.6
		s0.3-0.2,0.6-0.2h21.6c0.3,0,0.5,0.1,0.6,0.2s0.2,0.3,0.2,0.6v11.8c0,0.3-0.1,0.5-0.2,0.6S1840.4,940,1840.2,940z M1820.4,928.8v9
		h18v-9H1820.4z M1830.4,910.5c0.2,0.5,0.3,1,0.4,1.5s0.1,1.1,0.1,1.6s0,1-0.1,1.5s-0.2,0.9-0.3,1.4h7.8v-5.9L1830.4,910.5
		L1830.4,910.5z"/>
	<path class="st6" d="M1864.2,916h-12.4v6.3l5.9-0.1c0.8,0,1.9,0,3.1-0.1s2.5-0.2,3.7-0.3c1.3-0.1,2.5-0.3,3.6-0.5s2.1-0.3,2.9-0.5
		v2.2c-0.7,0.1-1.5,0.3-2.5,0.4c-1,0.2-2.2,0.3-3.4,0.4c-1.2,0.2-2.4,0.3-3.6,0.4c-1.2,0.1-2.3,0.2-3.3,0.2c-1,0.1-2,0.1-3,0.1
		c-0.9,0-1.8,0-2.5,0s-1.3,0-1.8,0s-0.8,0-0.8,0c-0.3,0-0.5-0.1-0.6-0.2s-0.2-0.3-0.2-0.6v-9.1c0-0.2,0.1-0.4,0.2-0.6
		c0.1-0.1,0.3-0.2,0.6-0.2h12.4v-6.3h-13.2v-2.1h14.9c0.3,0,0.5,0.1,0.6,0.2c0.1,0.1,0.2,0.3,0.2,0.6v9c0,0.3-0.1,0.5-0.2,0.6
		C1864.6,916,1864.4,916,1864.2,916z M1875.7,928.6c0.3,0,0.5,0.1,0.6,0.2c0.1,0.1,0.2,0.3,0.2,0.6v11.3h-2.6v-9.8h-21.2v-2.2
		L1875.7,928.6L1875.7,928.6z M1873.9,904h2.6v22.7h-2.6v-8.9h-6.8v-2.2h6.8v-5h-6.8v-2.2h6.8V904z"/>
</g>
<g class="st3">
	<path class="st6" d="M1905.8,904.4c1.3,0,2.4,0.2,3.5,0.6c1.1,0.4,2,1,2.8,1.7s1.4,1.6,1.9,2.5c0.5,1,0.8,2,0.9,3.2h7.7V904h2.6
		v19.3h-2.6v-8.7h-7.7c-0.3,2.2-1.3,4-3,5.4c-1.6,1.4-3.7,2-6.2,2c-1.4,0-2.7-0.2-3.8-0.7c-1.1-0.5-2.1-1.1-2.9-1.9
		c-0.8-0.8-1.4-1.7-1.8-2.8s-0.6-2.2-0.6-3.4s0.2-2.4,0.7-3.5s1.1-2,1.8-2.8c0.8-0.8,1.8-1.4,2.9-1.9
		C1903.1,904.6,1904.4,904.4,1905.8,904.4z M1905.7,906.6c-2.1,0-3.8,0.6-4.9,1.9c-1.1,1.3-1.7,2.8-1.7,4.7c0,1.8,0.6,3.4,1.7,4.7
		s2.7,1.9,4.9,1.9c2.1,0,3.7-0.6,4.8-1.9c1.1-1.3,1.7-2.8,1.7-4.7c0-1.8-0.6-3.4-1.7-4.7C1909.4,907.3,1907.8,906.6,1905.7,906.6z
		 M1901.1,939.3v-14l2.4,0.2v4.5h7.7v-4.8h2.4v13.2c1.9-1,3.4-2.5,4.6-4.3c1.1-1.8,1.7-3.9,1.7-6.1v-2.8h2.7v2.8
		c0,2.2,0.6,4.2,1.7,6s2.7,3.3,4.6,4.5l-2,1.8c-1.5-1.1-2.7-2.3-3.8-3.6c-1.1-1.4-1.7-2.6-1.9-3.7c-0.5,1.4-1.2,2.7-2.1,3.8
		s-2.1,2.4-3.5,3.6l-2-1.7v0.5c0,0.3-0.1,0.5-0.2,0.6s-0.3,0.2-0.6,0.2h-11c-0.3,0-0.5-0.1-0.6-0.2
		C1901.2,939.8,1901.1,939.6,1901.1,939.3z M1903.5,932.1v5.8h7.7v-5.8H1903.5z"/>
	<path class="st6" d="M1930.6,921.3h33.4v2.2h-33.4V921.3z M1947.3,903.8c1.9,0,3.6,0.2,5.1,0.5s2.9,0.8,4,1.5
		c1.1,0.6,1.9,1.3,2.6,2.2c0.6,0.9,0.9,1.8,0.9,2.9c0,1.1-0.3,2.1-0.9,2.9c-0.6,0.9-1.5,1.6-2.6,2.2c-1.1,0.6-2.4,1.1-4,1.4
		c-1.5,0.3-3.2,0.5-5.1,0.5s-3.6-0.2-5.1-0.5s-2.9-0.8-4-1.4c-1.1-0.6-2-1.3-2.6-2.2s-0.9-1.8-0.9-2.9c0-1,0.3-2,0.9-2.9
		s1.4-1.6,2.6-2.2c1.1-0.6,2.4-1.1,4-1.5C1943.7,903.9,1945.4,903.8,1947.3,903.8z M1958.6,940H1936c-0.3,0-0.5-0.1-0.6-0.2
		s-0.2-0.3-0.2-0.6v-10.8c0-0.3,0.1-0.5,0.2-0.6s0.3-0.2,0.6-0.2h22.6c0.3,0,0.5,0.1,0.6,0.2s0.2,0.3,0.2,0.6v10.8
		c0,0.3-0.1,0.5-0.2,0.6S1958.9,940,1958.6,940z M1947.3,905.7c-1.4,0-2.8,0.1-4,0.4c-1.2,0.3-2.3,0.6-3.1,1c-0.9,0.5-1.6,1-2.1,1.6
		s-0.7,1.3-0.7,2s0.2,1.4,0.7,2s1.2,1.2,2.1,1.6c0.9,0.5,1.9,0.8,3.1,1.1s2.5,0.4,4,0.4c1.4,0,2.7-0.1,4-0.4s2.3-0.6,3.1-1.1
		c0.9-0.5,1.6-1,2.1-1.6s0.8-1.3,0.8-2s-0.3-1.4-0.8-2s-1.2-1.2-2.1-1.6c-0.9-0.4-1.9-0.8-3.1-1
		C1950,905.9,1948.7,905.7,1947.3,905.7z M1937.8,929.8v8.1h19.1v-8.1H1937.8z"/>
</g>
<g class="st3">
	<path class="st6" d="M1976.7,922c0,1.7-0.2,3.5-0.6,5.2s-1,3.5-1.7,5.2c-0.8,1.7-1.7,3.3-2.7,4.9c-1.1,1.6-2.2,3.1-3.5,4.4h-1.7
		c2.3-3.1,4.1-6.3,5.3-9.7c1.3-3.4,1.9-6.8,1.9-10s-0.6-6.6-1.9-10s-3-6.6-5.3-9.7h1.7c1.3,1.4,2.4,2.8,3.5,4.4c1.1,1.6,2,3.2,2.7,5
		c0.7,1.7,1.3,3.4,1.7,5.2S1976.7,920.3,1976.7,922z"/>
</g>
<path class="st5" d="M2014.5,753.2h93.6v4.6h-93.6L2014.5,753.2L2014.5,753.2z M2103.5,741.8l27.5,13.8l-27.5,13.8V741.8z"/>
<path class="st5" d="M2116.5,911.2h424v4.6h-424V911.2z M2535.9,899.8l27.5,13.8l-27.5,13.8V899.8z"/>
<path class="st5" d="M1598.5,625.2h942.9v4.6h-942.9L1598.5,625.2L1598.5,625.2z M2536.8,613.8l27.5,13.8l-27.5,13.8V613.8z"/>
<g class="st3">
	<path class="st6" d="M2691.9,752c-2.5-0.3-4.5-1.1-6-2.3s-2.2-2.8-2.2-4.6c0-2.1,1-3.8,3-5.1s4.7-2,8.1-2c3.3,0,6,0.6,8,2
		c2,1.3,3.1,3,3.1,5.1c0,1.8-0.7,3.3-2.2,4.5s-3.4,2-5.8,2.4v3.6c0.9,0,1.9-0.1,3-0.1s2.2-0.1,3.3-0.2c1.1-0.1,2.2-0.2,3.2-0.3
		s2-0.2,2.8-0.3v4.8c-3.1,0.4-6.8,0.7-11.2,0.9s-9,0.3-14,0.3h-5.2v-4.8h11.9V752H2691.9z M2682.1,731.7h25.3v4.5h-25.3V731.7z
		 M2687.7,724.6h14v4.4h-14V724.6z M2694.8,742c-1.8,0-3.2,0.3-4,0.9c-0.9,0.6-1.3,1.3-1.3,2.2s0.4,1.6,1.3,2.2
		c0.9,0.6,2.2,0.8,4,0.8s3.1-0.3,4-0.8c0.9-0.6,1.3-1.3,1.3-2.2s-0.4-1.6-1.3-2.2C2698,742.3,2696.6,742,2694.8,742z M2711.5,768.7
		V724h5.7v44.8L2711.5,768.7L2711.5,768.7z"/>
	<path class="st6" d="M2727,740.8v-16.5h5.6v4.4h20v-4.4h5.7v16.5c0,0.5-0.1,0.9-0.3,1.1c-0.2,0.2-0.6,0.3-1.1,0.3h-11.3v4.2h17.8
		v4.8H2722v-4.8h17.7v-4.2h-11.4c-0.5,0-0.9-0.1-1.1-0.3C2727.1,741.8,2727,741.4,2727,740.8z M2756.7,754.7c0.5,0,0.9,0.1,1.1,0.3
		c0.2,0.2,0.3,0.6,0.3,1.1V769h-5.8v-9.5h-25.7v-4.8H2756.7z M2752.6,737.7v-4.6h-20v4.6H2752.6z"/>
</g>
<g class="st3">
	<path class="st6" d="M2702,1041.4c-2.1-1.5-4.1-3.2-6-5.3c-1.9-2.1-3.3-4.2-4.2-6.4c-0.4,1.1-0.9,2.2-1.6,3.4
		c-0.7,1.1-1.5,2.3-2.4,3.4s-1.9,2.2-3,3.2s-2.2,1.9-3.3,2.8l-4.6-3.7c4.1-2.6,7.1-5.7,9-9.4c1.9-3.7,2.9-7.7,3-12.1v-9.6h5.9v9.9
		c0,4.4,1,8.2,2.9,11.5s4.8,6.2,8.7,8.5L2702,1041.4z M2708.7,1050.7V1006h5.6v16.8h6.2v5h-6.2v22.9L2708.7,1050.7L2708.7,1050.7z"
		/>
	<path class="st6" d="M2725.8,1007.8h18.5c0.5,0,0.9,0.1,1.1,0.3s0.3,0.6,0.3,1.1v18c0,0.5-0.1,0.9-0.3,1.1s-0.6,0.3-1.1,0.3h-18.6
		c-0.5,0-0.9-0.1-1.1-0.3c-0.2-0.2-0.3-0.5-0.3-1.1v-18.1c0-0.5,0.1-0.9,0.3-1.1S2725.3,1007.8,2725.8,1007.8z M2743.5,1032.7
		c2.3,0,4.4,0.2,6.3,0.6c1.9,0.4,3.6,1,5,1.9c1.4,0.8,2.5,1.8,3.3,2.9c0.8,1.2,1.2,2.5,1.2,4s-0.4,2.9-1.2,4.1s-1.9,2.1-3.3,2.9
		c-1.4,0.8-3.1,1.4-5,1.8s-4,0.6-6.4,0.6c-2.3,0-4.4-0.2-6.3-0.6c-1.9-0.4-3.6-1-5-1.8s-2.5-1.8-3.3-2.9c-0.8-1.2-1.2-2.5-1.2-4.1
		c0-1.5,0.4-2.8,1.2-3.9s1.9-2.2,3.4-3c1.4-0.8,3.1-1.4,5-1.9C2739.2,1032.9,2741.3,1032.7,2743.5,1032.7z M2740.2,1023.9v-11.5
		H2730v11.5H2740.2z M2743.5,1037.1c-2.9,0-5.2,0.4-7.1,1.3c-1.8,0.9-2.7,2.1-2.7,3.6c0,1.6,0.9,2.8,2.7,3.7c1.8,0.9,4.2,1.4,7,1.4
		c2.9,0,5.3-0.5,7.1-1.4s2.7-2.2,2.7-3.7c0-1.6-0.9-2.8-2.7-3.6C2748.9,1037.5,2746.5,1037.1,2743.5,1037.1z M2752.7,1032.8V1006
		h5.7v9.6h5.8v4.8h-5.8v12.5L2752.7,1032.8L2752.7,1032.8z"/>
</g>
<g class="st3">
	<path class="st6" d="M2267.4,880.8h-5.5v-37.9h5.5V880.8z"/>
	<path class="st6" d="M2303.3,853.2h-5.8c-0.3-2.2-1.2-3.8-2.5-4.7c-1.4-1-3-1.4-4.9-1.4c-2,0-3.6,0.4-4.9,1.3
		c-1.3,0.9-2.4,2-3.1,3.4c-0.8,1.4-1.4,3-1.7,4.8s-0.5,3.6-0.5,5.4c0,1.9,0.2,3.7,0.5,5.5s0.9,3.3,1.7,4.8c0.8,1.4,1.8,2.5,3.1,3.4
		c1.3,0.8,3,1.3,4.9,1.3s3.5-0.5,4.9-1.4c1.3-0.9,2.3-2.6,2.8-5.2h5.8c-0.2,1.9-0.8,3.6-1.5,5c-0.8,1.4-1.8,2.6-3,3.5
		c-1.2,1-2.6,1.7-4.2,2.2c-1.5,0.5-3.1,0.7-4.8,0.7c-2.8,0-5.3-0.5-7.3-1.6s-3.7-2.5-5-4.3s-2.2-3.9-2.9-6.2
		c-0.6-2.4-0.9-4.9-0.9-7.5c0-2.5,0.3-4.9,0.9-7.3c0.6-2.4,1.6-4.5,2.9-6.3c1.3-1.8,3-3.3,5-4.4c2-1.1,4.4-1.7,7.2-1.7
		c1.6,0,3.2,0.2,4.7,0.6c1.5,0.4,2.9,1.1,4.1,2c1.2,0.9,2.3,2,3.1,3.4C2302.6,849.7,2303.1,851.3,2303.3,853.2z"/>
	<path class="st6" d="M2308.9,843h5.6v24.5c0.1,3.2,0.9,5.5,2.3,7c1.5,1.5,3.4,2.3,5.9,2.3s4.5-0.8,5.9-2.3s2.2-3.9,2.4-7V843h5.7
		v24.5c-0.1,2-0.4,3.9-1,5.6c-0.6,1.7-1.5,3.2-2.6,4.5c-1.2,1.3-2.6,2.3-4.3,3s-3.7,1.1-6,1.1s-4.3-0.4-6-1.1
		c-1.7-0.7-3.2-1.7-4.3-3s-2-2.8-2.6-4.5s-0.9-3.6-0.9-5.6L2308.9,843L2308.9,843z"/>
</g>
<path class="st7" d="M2014.5,755.5l102.3,157.9"/>
<rect x="86" y="556" class="st8" width="150" height="142"/>
<path class="st9" d="M31,627c0-39.2,25.1-71,56-71s56,31.8,56,71s-25.1,71-56,71S31,666.2,31,627z"/>
<g class="st3">
	<path class="st4" d="M53.7,638.9l7.4-0.6c0.4,3,1.2,5.4,2.5,7.3c1.3,1.9,3.3,3.4,6,4.6c2.7,1.2,5.7,1.8,9.1,1.8
		c3,0,5.6-0.4,7.9-1.3c2.3-0.9,4-2.1,5.1-3.7c1.1-1.6,1.7-3.2,1.7-5.1c0-1.9-0.5-3.5-1.6-4.9s-2.9-2.6-5.3-3.5
		c-1.6-0.6-5.1-1.6-10.6-2.9c-5.5-1.3-9.3-2.5-11.5-3.7c-2.8-1.5-5-3.3-6.3-5.5c-1.4-2.2-2.1-4.7-2.1-7.4c0-3,0.9-5.8,2.6-8.4
		c1.7-2.6,4.2-4.6,7.5-5.9c3.3-1.4,6.9-2,10.9-2c4.4,0,8.3,0.7,11.7,2.1c3.4,1.4,6,3.5,7.8,6.3s2.8,5.9,2.9,9.4l-7.5,0.6
		c-0.4-3.8-1.8-6.6-4.1-8.5c-2.3-1.9-5.8-2.9-10.4-2.9c-4.8,0-8.2,0.9-10.4,2.6c-2.2,1.7-3.3,3.8-3.3,6.3c0,2.1,0.8,3.9,2.3,5.3
		c1.5,1.4,5.5,2.8,11.9,4.2s10.8,2.7,13.2,3.8c3.5,1.6,6,3.6,7.7,6.1c1.6,2.4,2.5,5.3,2.5,8.5s-0.9,6.1-2.7,8.9
		c-1.8,2.8-4.4,5-7.8,6.5c-3.4,1.6-7.2,2.3-11.4,2.3c-5.4,0-9.9-0.8-13.5-2.4c-3.6-1.6-6.5-3.9-8.6-7.1
		C54.9,646.4,53.8,642.9,53.7,638.9z"/>
</g>
<path class="st9" d="M116,595.2c0-21.6,17.6-39.2,39.2-39.2h153.6c21.7,0,39.2,17.6,39.2,39.2v63.6c0,21.6-17.6,39.2-39.2,39.2
	H155.2c-21.7,0-39.2-17.6-39.2-39.2V595.2z"/>
<path class="st10" d="M121,599.7c0-18.6,15.1-33.7,33.7-33.7h153.6c18.6,0,33.7,15.1,33.7,33.7v54.6c0,18.6-15.1,33.7-33.7,33.7
	H154.7c-18.6,0-33.7-15.1-33.7-33.7V599.7z"/>
<rect x="503" y="556" class="st11" width="150" height="142"/>
<path class="st12" d="M448,627c0-39.2,25.1-71,56-71s56,31.8,56,71s-25.1,71-56,71S448,666.2,448,627z"/>
<g class="st3">
	<path class="st4" d="M473,658v-59.4h43v7h-35.1v18.2h32.9v7h-32.9V651h36.5v7H473z"/>
</g>
<path class="st12" d="M533,595.2c0-21.6,17.6-39.2,39.2-39.2h153.6c21.7,0,39.2,17.6,39.2,39.2v63.6c0,21.6-17.6,39.2-39.2,39.2
	H572.2c-21.7,0-39.2-17.6-39.2-39.2V595.2z"/>
<path class="st10" d="M537,599.7c0-18.6,15.1-33.7,33.7-33.7h153.6c18.6,0,33.7,15.1,33.7,33.7v54.6c0,18.6-15.1,33.7-33.7,33.7
	H570.7c-18.6,0-33.7-15.1-33.7-33.7V599.7z"/>
<rect x="919" y="556" class="st13" width="150" height="142"/>
<path class="st14" d="M864,627c0-39.2,25.1-71,56-71s56,31.8,56,71s-25.1,71-56,71S864,666.2,864,627z"/>
<g class="st3">
	<path class="st4" d="M889.4,658v-59.4h43v7h-35.1v18.2h32.9v7h-32.9V651h36.5v7H889.4z"/>
</g>
<path class="st14" d="M949,595.2c0-21.6,17.6-39.2,39.2-39.2h153.6c21.6,0,39.2,17.6,39.2,39.2v63.6c0,21.6-17.6,39.2-39.2,39.2
	H988.2c-21.6,0-39.2-17.6-39.2-39.2V595.2z"/>
<path class="st10" d="M954,599.7c0-18.6,15.1-33.7,33.7-33.7h153.6c18.6,0,33.7,15.1,33.7,33.7v54.6c0,18.6-15.1,33.7-33.7,33.7
	H987.7c-18.6,0-33.7-15.1-33.7-33.7V599.7z"/>
<rect x="1336" y="556" class="st15" width="150" height="142"/>
<path class="st16" d="M1281,627c0-39.2,25.1-71,56-71s56,31.8,56,71s-25.1,71-56,71S1281,666.2,1281,627z"/>
<g class="st3">
	<path class="st4" d="M1319,658v-59.4h7.9V658H1319z"/>
</g>
<g class="st3">
	<path class="st4" d="M1352.8,658h-4.4v-28c-1.1,1-2.4,2-4.2,3c-1.7,1-3.3,1.8-4.6,2.3V631c2.5-1.2,4.6-2.6,6.4-4.2
		c1.8-1.6,3.1-3.2,3.9-4.8h2.8L1352.8,658L1352.8,658z"/>
</g>
<path class="st16" d="M1365,595.2c0-21.6,17.6-39.2,39.2-39.2h154.6c21.6,0,39.2,17.6,39.2,39.2v63.6c0,21.6-17.6,39.2-39.2,39.2
	h-154.6c-21.6,0-39.2-17.6-39.2-39.2V595.2z"/>
<path class="st10" d="M1370,599.7c0-18.6,15.1-33.7,33.7-33.7h153.6c18.6,0,33.7,15.1,33.7,33.7v54.6c0,18.6-15.1,33.7-33.7,33.7
	h-153.6c-18.6,0-33.7-15.1-33.7-33.7V599.7z"/>
<rect x="1752" y="684" class="st17" width="150" height="141"/>
<path class="st18" d="M1697,754.5c0-38.9,25.1-70.5,56-70.5s56,31.6,56,70.5s-25.1,70.5-56,70.5S1697,793.4,1697,754.5z"/>
<g class="st3">
	<path class="st4" d="M1735.7,785v-59.4h7.9V785H1735.7z"/>
</g>
<g class="st3">
	<path class="st4" d="M1776,780.8v4.2h-23.7c0-1.1,0.1-2.1,0.5-3.1c0.6-1.6,1.6-3.2,2.9-4.8s3.2-3.4,5.8-5.4
		c3.9-3.2,6.5-5.7,7.9-7.6c1.4-1.9,2.1-3.6,2.1-5.3s-0.6-3.2-1.9-4.4c-1.2-1.2-2.9-1.8-4.9-1.8c-2.1,0-3.8,0.6-5.1,1.9
		s-1.9,3-1.9,5.3l-4.5-0.5c0.3-3.4,1.5-5.9,3.5-7.7s4.7-2.6,8.1-2.6s6.2,1,8.2,2.9s3,4.3,3,7.1c0,1.4-0.3,2.8-0.9,4.2
		s-1.6,2.8-2.9,4.4c-1.4,1.5-3.6,3.6-6.8,6.3c-2.6,2.2-4.3,3.7-5.1,4.5c-0.7,0.8-1.4,1.6-1.9,2.4L1776,780.8L1776,780.8z"/>
</g>
<path class="st18" d="M1782,722.9c0-21.5,17.4-38.9,38.9-38.9H1975c21.5,0,38.9,17.4,38.9,38.9V786c0,21.5-17.4,38.9-38.9,38.9
	h-154.1c-21.5,0-38.9-17.4-38.9-38.9V722.9z"/>
<path class="st10" d="M1787,727c0-18.8,15.2-34,34-34h153c18.8,0,34,15.2,34,34v55c0,18.8-15.2,34-34,34h-153c-18.8,0-34-15.2-34-34
	V727z"/>
<rect x="2186" y="684" class="st19" width="150" height="141"/>
<path class="st20" d="M2131,754.5c0-38.9,25.1-70.5,56-70.5s56,31.6,56,70.5s-25.1,70.5-56,70.5S2131,793.4,2131,754.5z"/>
<g class="st3">
	<path class="st4" d="M2153.6,785v-59.4h7.9V750h30.9v-24.4h7.9V785h-7.9v-28h-30.9v28H2153.6z"/>
</g>
<path class="st20" d="M2215,722.9c0-21.5,17.4-38.9,38.9-38.9H2409c21.5,0,38.9,17.4,38.9,38.9V786c0,21.5-17.4,38.9-38.9,38.9
	h-155.1c-21.5,0-38.9-17.4-38.9-38.9V722.9z"/>
<path class="st10" d="M2221,727c0-18.8,15.2-34,34-34h151c18.8,0,34,15.2,34,34v55c0,18.8-15.2,34-34,34h-151c-18.8,0-34-15.2-34-34
	V727z"/>
<rect x="2618" y="556" class="st21" width="150" height="142"/>
<path class="st22" d="M2563,627c0-39.2,25.1-71,56-71s56,31.8,56,71s-25.1,71-56,71S2563,666.2,2563,627z"/>
<g class="st3">
	<path class="st4" d="M2586.1,658v-59.4h26.3c5.3,0,9.3,0.5,12.1,1.6s5,3,6.6,5.7s2.5,5.7,2.5,9c0,4.2-1.4,7.8-4.1,10.7
		c-2.7,2.9-6.9,4.7-12.6,5.5c2.1,1,3.7,2,4.7,3c2.3,2.1,4.5,4.7,6.5,7.9l10.3,16.2h-9.9l-7.9-12.4c-2.3-3.6-4.2-6.3-5.7-8.2
		s-2.8-3.2-4-4s-2.4-1.3-3.6-1.6c-0.9-0.2-2.4-0.3-4.4-0.3h-9.1V658H2586.1z M2594,624.8h16.9c3.6,0,6.4-0.4,8.4-1.1
		c2-0.7,3.6-1.9,4.6-3.6c1.1-1.6,1.6-3.4,1.6-5.3c0-2.8-1-5.1-3.1-6.9c-2-1.8-5.3-2.7-9.7-2.7H2594V624.8z"/>
</g>
<path class="st22" d="M2648,595.2c0-21.6,17.6-39.2,39.2-39.2h153.6c21.6,0,39.2,17.6,39.2,39.2v63.6c0,21.6-17.6,39.2-39.2,39.2
	h-153.6c-21.6,0-39.2-17.6-39.2-39.2V595.2z"/>
<path class="st10" d="M2653,599.7c0-18.6,15.1-33.7,33.7-33.7h153.6c18.6,0,33.7,15.1,33.7,33.7v54.6c0,18.6-15.1,33.7-33.7,33.7
	h-153.6c-18.6,0-33.7-15.1-33.7-33.7V599.7z"/>
<rect x="2618" y="842" width="150" height="141"/>
<path class="st23" d="M2563,912.5c0-38.9,25.1-70.5,56-70.5s56,31.6,56,70.5s-25.1,70.5-56,70.5S2563,951.4,2563,912.5z"/>
<g class="st3">
	<path class="st4" d="M2586,943v-59.4h20.5c4.6,0,8.1,0.3,10.6,0.9c3.4,0.8,6.3,2.2,8.7,4.3c3.1,2.6,5.5,6,7,10.2
		c1.6,4.1,2.3,8.8,2.3,14.1c0,4.5-0.5,8.5-1.6,12s-2.4,6.4-4.1,8.7c-1.6,2.3-3.5,4.1-5.4,5.4c-2,1.3-4.3,2.3-7.1,3s-6,1-9.5,1H2586
		V943z M2593.9,936h12.7c3.9,0,7-0.4,9.2-1.1c2.2-0.7,4-1.8,5.3-3.1c1.9-1.9,3.3-4.4,4.4-7.5s1.6-7,1.6-11.4c0-6.2-1-11-3.1-14.3
		c-2-3.3-4.5-5.6-7.4-6.7c-2.1-0.8-5.5-1.2-10.2-1.2h-12.5V936z"/>
</g>
<path class="st23" d="M2648,880.9c0-21.5,17.4-38.9,38.9-38.9H2841c21.5,0,38.9,17.4,38.9,38.9V944c0,21.5-17.4,38.9-38.9,38.9
	h-154.1c-21.5,0-38.9-17.4-38.9-38.9V880.9z"/>
<path class="st10" d="M2653,885c0-18.8,15.2-34,34-34h153c18.8,0,34,15.2,34,34v55c0,18.8-15.2,34-34,34h-153c-18.8,0-34-15.2-34-34
	V885z"/>
<path class="st24" d="M610.5,194.5v151.9"/>
<path class="st24" d="M1793.5,194.5v151.9"/>
<path class="st24" d="M2383.5,194.5v151.9"/>
<g class="st3">
	<path class="st4" d="M1113.8,321.7c1.6,0,3.1,0.3,4.5,0.8s2.5,1.3,3.4,2.2c1,0.9,1.7,2,2.2,3.3s0.8,2.7,0.8,4.2
		c0,3.1-1,5.6-3.1,7.5c-2,1.9-4.7,2.9-8,2.9c-1.7,0-3.2-0.3-4.6-0.8s-2.5-1.3-3.4-2.2c-1-0.9-1.7-2-2.2-3.3s-0.8-2.7-0.8-4.1
		c0-1.5,0.3-2.9,0.8-4.2c0.5-1.3,1.2-2.4,2.2-3.3s2.1-1.7,3.5-2.2C1110.6,322,1112.1,321.7,1113.8,321.7z M1113.8,324.4
		c-2.6,0-4.5,0.8-5.9,2.2c-1.3,1.5-1.9,3.3-1.9,5.5s0.6,4,1.9,5.5s3.2,2.2,5.9,2.2c2.5,0,4.5-0.8,5.8-2.2s2-3.3,2-5.5s-0.7-4-2-5.5
		S1116.3,324.4,1113.8,324.4z M1136.7,357.2h-24.2v5.2h26.2v2.6h-28.6c-0.4,0-0.6-0.1-0.8-0.2c-0.1-0.1-0.2-0.4-0.2-0.8v-8.6
		c0-0.3,0.1-0.6,0.2-0.7s0.4-0.2,0.8-0.2h24.2v-5.2h-25.1v-2.7h27.4c0.3,0,0.6,0.1,0.7,0.2s0.2,0.4,0.2,0.7v8.7
		c0,0.4-0.1,0.6-0.2,0.8C1137.3,357.1,1137,357.2,1136.7,357.2z M1134.5,321.2h3.1v23.1h-3.1V321.2z"/>
</g>
<g class="st3">
	<path class="st4" d="M1663.6,321.7c1.6,0,3.1,0.3,4.5,0.8s2.5,1.3,3.4,2.2c1,0.9,1.7,2,2.2,3.3s0.8,2.7,0.8,4.2
		c0,3.1-1,5.6-3.1,7.5c-2,1.9-4.7,2.9-8,2.9c-1.7,0-3.2-0.3-4.6-0.8s-2.5-1.3-3.5-2.2c-1-0.9-1.7-2-2.2-3.3s-0.8-2.7-0.8-4.1
		c0-1.5,0.3-2.9,0.8-4.2c0.5-1.3,1.2-2.4,2.2-3.3s2.1-1.7,3.5-2.2C1660.4,322,1661.9,321.7,1663.6,321.7z M1663.6,324.4
		c-2.6,0-4.5,0.8-5.8,2.2s-2,3.3-2,5.5s0.7,4,2,5.5s3.2,2.2,5.8,2.2c2.5,0,4.5-0.8,5.8-2.2c1.4-1.5,2-3.3,2-5.5s-0.7-4-2-5.5
		C1668.1,325.2,1666.1,324.4,1663.6,324.4z M1686.5,357.2h-24.2v5.2h26.2v2.6H1660c-0.4,0-0.6-0.1-0.8-0.2c-0.1-0.1-0.2-0.4-0.2-0.8
		v-8.6c0-0.3,0.1-0.6,0.2-0.7s0.4-0.2,0.8-0.2h24.2v-5.2H1659v-2.7h27.5c0.3,0,0.6,0.1,0.7,0.2c0.2,0.2,0.2,0.4,0.2,0.7v8.7
		c0,0.4-0.1,0.6-0.2,0.8C1687.1,357.1,1686.8,357.2,1686.5,357.2z M1684.3,321.2h3.2v23.1h-3.2V321.2z"/>
</g>
<rect x="649" y="318" class="st25" width="155" height="53"/>
<rect x="1238" y="318" class="st25" width="160" height="53"/>
<g class="st3">
	<path class="st1" d="M665.5,360v-29.3h3.9V360H665.5z"/>
	<path class="st1" d="M688.3,360h-3.6v-23c-0.9,0.8-2,1.7-3.4,2.5s-2.7,1.4-3.8,1.9v-3.5c2-0.9,3.8-2.1,5.3-3.4s2.6-2.7,3.2-3.9h2.3
		V360z"/>
</g>
<g class="st3">
	<path class="st1" d="M738.6,342.5c1.8,1.9,3.3,3.4,4.6,4.4s2.5,1.8,3.7,2.3v0.9c-1.3,0.6-2.6,1.5-3.8,2.5s-2.7,2.5-4.4,4.4H737
		c1.3-2.7,2.6-4.7,3.9-6.2H709v-2h32c-1-1.3-1.7-2.3-2.1-2.9c-0.4-0.6-1-1.7-1.8-3.3L738.6,342.5L738.6,342.5z"/>
</g>
<g class="st3">
	<path class="st1" d="M763.1,360v-29.3h13c2.6,0,4.6,0.3,6,0.8s2.4,1.5,3.3,2.8c0.8,1.3,1.2,2.8,1.2,4.4c0,2.1-0.7,3.8-2,5.3
		c-1.3,1.4-3.4,2.3-6.2,2.7c1,0.5,1.8,1,2.3,1.5c1.1,1,2.2,2.3,3.2,3.9l5.1,8h-4.9l-3.9-6.1c-1.1-1.8-2.1-3.1-2.8-4s-1.4-1.6-2-2
		s-1.2-0.6-1.8-0.8c-0.4-0.1-1.2-0.1-2.2-0.1H767v13L763.1,360L763.1,360z M767,343.6h8.3c1.8,0,3.2-0.2,4.2-0.5s1.8-1,2.3-1.8
		s0.8-1.7,0.8-2.6c0-1.4-0.5-2.5-1.5-3.4s-2.6-1.3-4.8-1.3H767V343.6z"/>
</g>
<g class="st3">
	<path class="st1" d="M1255.9,360v-29.3h3.9V360H1255.9z"/>
	<path class="st1" d="M1278.8,360h-3.6v-23c-0.9,0.8-2,1.7-3.4,2.5s-2.7,1.4-3.8,1.9v-3.5c2-0.9,3.8-2.1,5.3-3.4s2.6-2.7,3.2-3.9
		h2.3V360z"/>
</g>
<g class="st3">
	<path class="st1" d="M1329.1,342.5c1.8,1.9,3.3,3.4,4.6,4.4c1.3,1,2.5,1.8,3.7,2.3v0.9c-1.3,0.6-2.6,1.5-3.8,2.5
		c-1.2,1-2.7,2.5-4.4,4.4h-1.5c1.3-2.7,2.6-4.7,3.9-6.2h-31.9v-2h31.9c-1-1.3-1.7-2.3-2.1-2.9s-1-1.7-1.8-3.3L1329.1,342.5
		L1329.1,342.5z"/>
</g>
<g class="st3">
	<path class="st1" d="M1354.5,360v-29.3h3.9V360H1354.5z"/>
	<path class="st1" d="M1382.7,356.5v3.5h-19.4c0-0.9,0.1-1.7,0.4-2.5c0.5-1.3,1.3-2.6,2.4-3.9s2.7-2.8,4.7-4.4
		c3.2-2.6,5.3-4.7,6.5-6.2s1.7-3,1.7-4.3c0-1.4-0.5-2.6-1.5-3.6s-2.4-1.5-4-1.5c-1.7,0-3.1,0.5-4.2,1.6s-1.6,2.5-1.6,4.3l-3.7-0.4
		c0.3-2.8,1.2-4.9,2.9-6.3c1.7-1.4,3.9-2.2,6.7-2.2c2.8,0,5,0.8,6.7,2.3c1.6,1.6,2.5,3.5,2.5,5.8c0,1.2-0.2,2.3-0.7,3.5
		c-0.5,1.1-1.3,2.3-2.4,3.6c-1.1,1.3-3,3-5.6,5.2c-2.2,1.8-3.6,3-4.2,3.7c-0.6,0.6-1.1,1.3-1.5,2h14.3V356.5z"/>
</g>
<path class="st24" d="M1203.5,277.5v68.1"/>
<rect x="6.5" y="2.5" class="st26" width="2925" height="1097"/>
</svg>
