<?xml version="1.0" encoding="utf-8"?>
<!-- Generator: Adobe Illustrator 26.0.1, SVG Export Plug-In . SVG Version: 6.00 Build 0)  -->
<svg version="1.1" id="레이어_1" xmlns="http://www.w3.org/2000/svg" xmlns:xlink="http://www.w3.org/1999/xlink" x="0px"
	 y="0px" viewBox="0 0 232 107" style="enable-background:new 0 0 232 107;" xml:space="preserve">
<style type="text/css">
	.st0{fill:none;}
	.st1{enable-background:new    ;}
	.st2{fill:#109D59;}
	.st3{fill-rule:evenodd;clip-rule:evenodd;fill:#109D59;}
</style>
<rect class="st0" width="232" height="107"/>
<g transform="translate(-1501 -499)">
	<g class="st1">
		<path class="st2" d="M1599.9,556.4c-1.8-0.8-3.5-1.8-4.9-3c-1.5-1.1-2.6-2.4-3.3-3.7c-0.5,1.3-1.6,2.6-3.2,4
			c-1.6,1.4-3.4,2.5-5.3,3.6l-3.4-3.1c3-1.2,5.4-2.7,7-4.7c1.6-2,2.5-4.2,2.5-6.6v-1.7h-6.6v-3.9h18.2v3.9h-6.7v1.7
			c0,2.4,0.8,4.4,2.4,6.2c1.6,1.8,3.7,3.1,6.3,3.9L1599.9,556.4z M1599.3,557.7c1.9,0,3.6,0.2,5.2,0.5c1.6,0.4,3,0.9,4.2,1.5
			c1.1,0.7,2.1,1.5,2.7,2.4s1,2,1,3.3c0,1.3-0.3,2.4-1,3.3s-1.6,1.8-2.7,2.4c-1.2,0.7-2.6,1.1-4.2,1.5c-1.6,0.3-3.3,0.5-5.2,0.5
			s-3.6-0.2-5.2-0.5c-1.6-0.3-3-0.8-4.1-1.5c-1.2-0.7-2.1-1.5-2.7-2.4c-0.6-1-1-2.1-1-3.3c0-1.2,0.3-2.3,1-3.2
			c0.7-1,1.6-1.8,2.8-2.5c1.2-0.7,2.6-1.2,4.1-1.5C1595.7,557.9,1597.5,557.7,1599.3,557.7z M1599.3,561.3c-2.4,0-4.3,0.4-5.8,1.1
			c-1.5,0.7-2.3,1.7-2.3,3c0,1.3,0.8,2.3,2.3,3.1s3.5,1.1,5.8,1.1c2.4,0,4.4-0.4,5.8-1.1c1.5-0.8,2.2-1.8,2.2-3c0-1.3-0.7-2.3-2.2-3
			C1603.7,561.7,1601.7,561.3,1599.3,561.3z M1607,558v-10.4h-6.8v-3.9h6.8v-8h4.6V558H1607z"/>
		<path class="st2" d="M1614.4,553.3c2.9-1.4,5.2-3.2,6.9-5.3c1.7-2.2,2.6-4.6,2.6-7.3v-4.1h4.9v4c0,1.3,0.2,2.6,0.7,3.7
			c0.5,1.2,1.1,2.3,2,3.2c0.8,1,1.8,1.8,2.8,2.5c1.1,0.7,2.2,1.3,3.4,1.8l-2.9,3.5c-0.9-0.4-1.8-0.9-2.6-1.5
			c-0.9-0.6-1.7-1.2-2.4-1.8c-0.8-0.6-1.4-1.3-2-1.9c-0.6-0.7-1-1.3-1.4-1.9c-0.2,0.7-0.6,1.4-1.2,2.1c-0.6,0.7-1.2,1.5-1.9,2.2
			c-0.7,0.7-1.6,1.4-2.5,2.1c-0.9,0.7-1.8,1.2-2.7,1.7L1614.4,553.3z M1633.5,557.7c1.9,0,3.6,0.2,5.2,0.5c1.6,0.4,3,0.9,4.1,1.5
			c1.1,0.7,2,1.5,2.7,2.4c0.7,1,1,2,1,3.3c0,1.3-0.3,2.4-1,3.3c-0.7,1-1.6,1.8-2.7,2.4c-1.2,0.7-2.6,1.1-4.1,1.5s-3.3,0.5-5.2,0.5
			c-1.9,0-3.6-0.2-5.2-0.5c-1.6-0.3-2.9-0.8-4.1-1.5c-1.1-0.7-2-1.5-2.7-2.4c-0.6-1-1-2.1-1-3.3c0-1.2,0.3-2.3,1-3.2
			s1.6-1.8,2.7-2.5c1.2-0.7,2.5-1.2,4.1-1.5C1630,557.9,1631.7,557.7,1633.5,557.7z M1633.5,561.3c-2.4,0-4.3,0.4-5.8,1.1
			c-1.5,0.7-2.2,1.7-2.2,3c0,1.3,0.7,2.3,2.2,3.1c1.5,0.8,3.4,1.1,5.8,1.1c2.4,0,4.3-0.4,5.8-1.1c1.5-0.8,2.2-1.8,2.2-3
			c0-1.3-0.7-2.3-2.2-3C1637.9,561.7,1636,561.3,1633.5,561.3z M1640.6,557.8v-22h4.6v8h4.8v3.9h-4.8v10.1H1640.6z"/>
	</g>
	<g class="st1">
		<path class="st2" d="M1672,547.9h-5.5v-5.2h5.5V547.9z M1672,564.2h-5.5V559h5.5V564.2z"/>
		<path class="st2" d="M1686.9,554c0,1.8-0.2,3.7-0.5,5.5c-0.4,1.8-0.9,3.6-1.6,5.3c-0.7,1.7-1.5,3.3-2.5,4.8c-1,1.5-2.2,2.8-3.5,4
			h-3.6c2.7-3.4,4.4-6.8,5.4-10.1c0.9-3.3,1.4-6.5,1.4-9.5c0-3-0.5-6.2-1.4-9.5c-0.9-3.3-2.7-6.7-5.4-10.1h3.6
			c1.3,1.2,2.5,2.6,3.5,4.1c1,1.5,1.9,3.1,2.5,4.8c0.7,1.7,1.2,3.5,1.6,5.3C1686.8,550.3,1686.9,552.2,1686.9,554z"/>
	</g>
	<path class="st3" d="M1501,553.5c0-16.8,13.7-30.5,30.5-30.5s30.5,13.7,30.5,30.5s-13.7,30.5-30.5,30.5S1501,570.3,1501,553.5z"/>
</g>
</svg>
