<?xml version="1.0" encoding="utf-8"?>
<!-- Generator: Adobe Illustrator 26.0.1, SVG Export Plug-In . SVG Version: 6.00 Build 0)  -->
<svg version="1.1" id="레이어_1" xmlns="http://www.w3.org/2000/svg" xmlns:xlink="http://www.w3.org/1999/xlink" x="0px"
	 y="0px" viewBox="0 0 210.8 107" style="enable-background:new 0 0 210.8 107;" xml:space="preserve">
<style type="text/css">
	.st0{fill:none;}
	.st1{enable-background:new    ;}
	.st2{fill:#109D59;}
	.st3{fill-rule:evenodd;clip-rule:evenodd;fill:#109D59;}
</style>
<rect class="st0" width="343" height="107"/>
<g transform="translate(-1956 -513)">
	<g class="st1">
		<path class="st2" d="M2037,582v-29.3h20.1v5h-14.2v6.9h12.3v5h-12.3V582H2037z"/>
		<path class="st2" d="M2061.8,582v-29.3h5.9V582H2061.8z"/>
		<path class="st2" d="M2073.4,582v-29.3h5.8l12,19.6v-19.6h5.5V582h-5.9l-11.8-19.1V582H2073.4z"/>
		<path class="st2" d="M2103,582v-29.3h21.8v5H2109v6.5h14.7v4.9H2109v8h16.4v4.9L2103,582L2103,582z"/>
		<path class="st2" d="M2142.7,566.4v-5.6h5.6v5.6H2142.7z M2142.7,582v-5.6h5.6v5.6H2142.7z"/>
		<path class="st2" d="M2153.7,590.6c1.1-2.4,1.9-4.2,2.3-5.5c0.5-1.3,0.9-2.7,1.3-4.4c0.4-1.7,0.7-3.2,0.9-4.7s0.3-3,0.3-4.6
			c0-3.2-0.3-6.2-1-9s-1.9-6.3-3.8-10.3h3.8c2,2.9,3.6,5.9,4.7,9.1c1.1,3.2,1.7,6.5,1.7,9.8c0,2.8-0.4,5.8-1.3,9
			c-1,3.6-2.6,7.1-4.9,10.6L2153.7,590.6L2153.7,590.6z"/>
	</g>
	<path class="st3" d="M1956,567c0-17.1,13.7-31,30.5-31s30.5,13.9,30.5,31s-13.7,31-30.5,31S1956,584.1,1956,567z"/>
</g>
</svg>
