<?xml version="1.0" encoding="utf-8"?>
<!-- Generator: Adobe Illustrator 26.0.1, SVG Export Plug-In . SVG Version: 6.00 Build 0)  -->
<svg version="1.1" id="레이어_1" xmlns="http://www.w3.org/2000/svg" xmlns:xlink="http://www.w3.org/1999/xlink" x="0px"
	 y="0px" viewBox="0 0 315 106" style="enable-background:new 0 0 315 106;" xml:space="preserve">
<style type="text/css">
	.st0{fill:none;}
	.st1{fill-rule:evenodd;clip-rule:evenodd;fill:#F5B401;}
	.st2{enable-background:new    ;}
	.st3{fill:#F5B401;}
</style>
<rect class="st0" width="356" height="106"/>
<g transform="translate(-1956 -622)">
	<path class="st1" d="M1956,675.5c0-16.8,13.7-30.5,30.5-30.5s30.5,13.7,30.5,30.5s-13.7,30.5-30.5,30.5S1956,692.3,1956,675.5z"/>
	<g class="st2">
		<path class="st3" d="M2041.1,690l-7-29.3h6.1l4.4,20.2l5.4-20.2h7l5.1,20.5l4.5-20.5h6l-7.1,29.3h-6.3l-5.8-21.9l-5.8,21.9H2041.1
			z"/>
		<path class="st3" d="M2099.8,690h-6.4l-2.6-6.7h-11.7l-2.4,6.7h-6.3l11.4-29.3h6.3L2099.8,690z M2088.9,678.4l-4-10.9l-4,10.9
			H2088.9z"/>
		<path class="st3" d="M2103,690v-29.3h12.5c3.1,0,5.4,0.3,6.8,0.8c1.4,0.5,2.6,1.5,3.4,2.8c0.9,1.3,1.3,2.9,1.3,4.6
			c0,2.2-0.6,4-1.9,5.5c-1.3,1.4-3.2,2.3-5.8,2.7c1.3,0.7,2.3,1.6,3.2,2.5c0.8,0.9,2,2.5,3.4,4.8l3.6,5.7h-7.1l-4.3-6.4
			c-1.5-2.3-2.6-3.7-3.1-4.3s-1.2-1-1.8-1.2s-1.6-0.3-3-0.3h-1.2V690H2103z M2108.9,673.1h4.4c2.8,0,4.6-0.1,5.3-0.4
			c0.7-0.2,1.3-0.7,1.7-1.2c0.4-0.6,0.6-1.3,0.6-2.2c0-1-0.3-1.8-0.8-2.4c-0.5-0.6-1.3-1-2.2-1.2c-0.5-0.1-1.9-0.1-4.3-0.1h-4.6
			L2108.9,673.1L2108.9,673.1z"/>
		<path class="st3" d="M2132.6,690v-29.3h5.8l12,19.6v-19.6h5.5V690h-5.9l-11.8-19.1V690H2132.6z"/>
		<path class="st3" d="M2162,690v-29.3h5.9V690H2162z"/>
		<path class="st3" d="M2173.6,690v-29.3h5.8l12,19.6v-19.6h5.5V690h-5.9l-11.8-19.1V690H2173.6z"/>
		<path class="st3" d="M2216.8,679.2v-4.9h12.8V686c-1.2,1.2-3,2.3-5.4,3.2s-4.7,1.4-7.2,1.4c-3.1,0-5.7-0.6-8-1.9
			c-2.3-1.3-4-3.1-5.1-5.5s-1.7-5-1.7-7.8c0-3.1,0.6-5.8,1.9-8.1c1.3-2.4,3.2-4.2,5.6-5.5c1.9-1,4.2-1.5,7-1.5
			c3.6,0,6.5,0.8,8.5,2.3s3.4,3.6,4,6.3l-5.9,1.1c-0.4-1.4-1.2-2.6-2.3-3.4c-1.1-0.8-2.6-1.3-4.3-1.3c-2.6,0-4.6,0.8-6.2,2.5
			c-1.5,1.6-2.3,4.1-2.3,7.3c0,3.5,0.8,6.1,2.3,7.8s3.6,2.6,6.1,2.6c1.2,0,2.5-0.2,3.7-0.7s2.3-1.1,3.2-1.8v-3.7L2216.8,679.2
			L2216.8,679.2z"/>
		<path class="st3" d="M2247.5,674.4v-5.6h5.6v5.6H2247.5z M2247.5,690v-5.6h5.6v5.6H2247.5z"/>
		<path class="st3" d="M2269.4,698.6h-3.9c-2-3.1-3.6-6.3-4.7-9.6c-1.1-3.3-1.6-6.5-1.6-9.7c0-3.9,0.7-7.5,2-11
			c1.1-3,2.6-5.7,4.4-8.3h3.8c-1.8,4-3.1,7.5-3.8,10.3s-1,5.8-1,9c0,2.2,0.2,4.4,0.6,6.7c0.4,2.3,1,4.5,1.7,6.5
			C2267.4,694.1,2268.2,696.1,2269.4,698.6z"/>
	</g>
</g>
</svg>
