<?xml version="1.0" encoding="utf-8"?>
<!-- Generator: Adobe Illustrator 26.0.1, SVG Export Plug-In . SVG Version: 6.00 Build 0)  -->
<svg version="1.1" id="레이어_1" xmlns="http://www.w3.org/2000/svg" xmlns:xlink="http://www.w3.org/1999/xlink" x="0px"
	 y="0px" viewBox="0 0 259 106" style="enable-background:new 0 0 259 106;" xml:space="preserve">
<style type="text/css">
	.st0{fill:none;}
	.st1{fill-rule:evenodd;clip-rule:evenodd;fill:#DC4438;}
	.st2{enable-background:new    ;}
	.st3{fill:#DC4438;}
</style>
<rect class="st0" width="343" height="106"/>
<g transform="translate(-1956 -730)">
	<path class="st1" d="M1956,783.5c0-16.8,13.7-30.5,30.5-30.5s30.5,13.7,30.5,30.5s-13.7,30.5-30.5,30.5S1956,800.3,1956,783.5z"/>
	<g class="st2">
		<path class="st3" d="M2063.4,798h-6.4l-2.6-6.7h-11.7l-2.4,6.7h-6.3l11.4-29.3h6.3L2063.4,798z M2052.5,786.4l-4-10.9l-4,10.9
			H2052.5z"/>
		<path class="st3" d="M2066.7,798v-29.1h5.9v24.2h14.7v4.9L2066.7,798L2066.7,798z"/>
		<path class="st3" d="M2091.6,798v-29.3h21.8v5h-15.8v6.5h14.7v4.9h-14.7v8h16.4v4.9L2091.6,798L2091.6,798z"/>
		<path class="st3" d="M2118.9,798v-29.3h12.5c3.1,0,5.4,0.3,6.8,0.8c1.4,0.5,2.6,1.5,3.4,2.8c0.9,1.3,1.3,2.9,1.3,4.6
			c0,2.2-0.6,4-1.9,5.5s-3.2,2.3-5.8,2.7c1.3,0.7,2.3,1.6,3.2,2.5c0.8,0.9,2,2.5,3.4,4.8l3.6,5.7h-7.1l-4.3-6.4
			c-1.5-2.3-2.6-3.7-3.1-4.3s-1.2-1-1.8-1.2s-1.6-0.3-3-0.3h-1.2V798H2118.9z M2124.9,781.1h4.4c2.8,0,4.6-0.1,5.3-0.4
			c0.7-0.2,1.3-0.7,1.7-1.2c0.4-0.6,0.6-1.3,0.6-2.2c0-1-0.3-1.8-0.8-2.4c-0.5-0.6-1.3-1-2.2-1.2c-0.5-0.1-1.9-0.1-4.3-0.1h-4.6
			L2124.9,781.1L2124.9,781.1z"/>
		<path class="st3" d="M2155.1,798v-24.4h-8.7v-5h23.3v5h-8.7V798H2155.1z"/>
		<path class="st3" d="M2185.8,792.4h5.6v4c0,1.6-0.1,2.9-0.4,3.9c-0.3,0.9-0.8,1.8-1.6,2.5s-1.8,1.3-3,1.8l-1.1-2.3
			c1.1-0.4,1.9-0.9,2.4-1.6c0.5-0.7,0.7-1.6,0.8-2.7h-2.7V792.4z M2185.8,782.4v-5.6h5.6v5.6H2185.8z"/>
		<path class="st3" d="M2196.8,789.8V785c1-0.1,1.7-0.2,2.2-0.4s0.9-0.6,1.3-1.2s0.6-1.3,0.7-2.1c0.1-0.6,0.2-1.8,0.2-3.3
			c0-2.6,0.1-4.4,0.4-5.4c0.2-1,0.7-1.8,1.3-2.5c0.6-0.6,1.5-1.1,2.7-1.5c0.8-0.2,2.1-0.4,3.8-0.4h1.1v4.8c-1.5,0-2.4,0.1-2.9,0.2
			c-0.4,0.2-0.7,0.4-0.9,0.8c-0.2,0.3-0.3,0.9-0.3,1.8c0,0.8-0.1,2.4-0.2,4.8c-0.1,1.3-0.2,2.4-0.5,3.2s-0.6,1.5-1.1,2
			c-0.4,0.5-1.1,1.1-2,1.7c0.8,0.5,1.4,1,1.9,1.6s0.9,1.3,1.2,2.2s0.4,2,0.5,3.5c0.1,2.2,0.1,3.6,0.1,4.2c0,0.9,0.1,1.5,0.3,1.8
			s0.5,0.6,1,0.8c0.4,0.2,1.4,0.3,2.8,0.3v4.8h-1.1c-1.8,0-3.2-0.1-4.1-0.4c-1-0.3-1.8-0.8-2.4-1.4c-0.7-0.7-1.1-1.5-1.3-2.5
			s-0.3-2.5-0.3-4.6c0-2.5-0.1-4.1-0.3-4.8c-0.3-1.1-0.7-1.8-1.3-2.3C2199,790.1,2198.1,789.9,2196.8,789.8z"/>
	</g>
</g>
</svg>
