<?xml version="1.0" encoding="utf-8"?>
<!-- Generator: Adobe Illustrator 25.3.1, SVG Export Plug-In . SVG Version: 6.00 Build 0)  -->
<svg version="1.1" id="레이어_1" xmlns="http://www.w3.org/2000/svg" xmlns:xlink="http://www.w3.org/1999/xlink" x="0px"
	 y="0px" viewBox="0 0 2426 607" style="enable-background:new 0 0 2426 607;" xml:space="preserve">
<style type="text/css">
	.st0{fill:none;}
	.st1{fill:#EEEFEF;}
	.st2{fill-rule:evenodd;clip-rule:evenodd;fill:#706092;}
	.st3{fill-rule:evenodd;clip-rule:evenodd;fill:#FFFFFF;}
	.st4{fill-rule:evenodd;clip-rule:evenodd;fill:#E8E4DC;}
	.st5{fill:#4EA5A8;}
	.st6{fill:#4677C2;}
	.st7{fill:none;stroke:#D9D9D9;stroke-width:3.4375;stroke-linecap:round;stroke-miterlimit:8;}
	.st8{enable-background:new    ;}
	.st9{fill:#262626;}
	.st10{fill:#9D9D9D;}
	.st11{fill:#FFFFFF;}
	.st12{fill:#858380;}
	.st13{fill-rule:evenodd;clip-rule:evenodd;fill:#9D9D9D;}
</style>
<rect class="st0" width="2426" height="607"/>
<g transform="translate(-418 -480)">
	<rect x="418" y="480" class="st1" width="2426" height="607"/>
	<path class="st2" d="M437,586.8c0-9.9,8-17.8,17.8-17.8h2342.3c9.9,0,17.8,8,17.8,17.8v88.3c0,9.9-8,17.8-17.8,17.8H454.8
		c-9.9,0-17.8-8-17.8-17.8V586.8z"/>
	<path class="st3" d="M437,727.9c0-10.4,8.5-18.9,18.9-18.9h2340.2c10.4,0,18.9,8.5,18.9,18.9v199.2c0,10.4-8.4,18.9-18.9,18.9
		H455.9c-10.4,0-18.9-8.5-18.9-18.9V727.9z"/>
	<path class="st4" d="M447.8,569H855v124H447.8c-6,0-10.8-8-10.8-17.8v-88.3C437,577,441.8,569,447.8,569z"/>
	<rect x="1345" y="569" class="st5" width="490" height="124"/>
	<rect x="1835" y="569" class="st6" width="490" height="124"/>
	<path class="st7" d="M1345.5,736.5v69.3"/>
	<path class="st7" d="M1835.5,736.5v69.3"/>
	<path class="st7" d="M2325.5,736.5v69.3"/>
	<g class="st8">
		<path class="st9" d="M452.3,524c0-3.5,0.5-6.4,1.6-8.8c0.8-1.8,1.8-3.3,3.2-4.7s2.8-2.4,4.4-3.1c2.1-0.9,4.6-1.4,7.4-1.4
			c5.1,0,9.1,1.6,12.2,4.7s4.6,7.5,4.6,13.1c0,5.5-1.5,9.9-4.5,13s-7,4.7-12.1,4.7c-5.1,0-9.2-1.6-12.2-4.7S452.3,529.5,452.3,524z
			 M459.5,523.8c0,3.9,0.9,6.8,2.7,8.8s4.1,3,6.8,3s5-1,6.8-3s2.7-5,2.7-9c0-3.9-0.9-6.9-2.6-8.8s-4-2.9-6.9-2.9s-5.2,1-6.9,2.9
			S459.5,519.8,459.5,523.8z"/>
		<path class="st9" d="M512.7,523.5l-6.5,1.2c-0.2-1.3-0.7-2.3-1.5-2.9s-1.8-1-3-1c-1.6,0-2.9,0.6-3.9,1.7s-1.5,3-1.5,5.7
			c0,3,0.5,5,1.5,6.3s2.3,1.8,4,1.8c1.2,0,2.3-0.4,3.1-1.1s1.4-1.9,1.7-3.7l6.5,1.1c-0.7,3-2,5.2-3.9,6.7s-4.5,2.3-7.7,2.3
			c-3.6,0-6.5-1.1-8.7-3.4s-3.2-5.5-3.2-9.5c0-4.1,1.1-7.3,3.3-9.6s5.1-3.4,8.8-3.4c3,0,5.4,0.7,7.2,2S511.9,520.8,512.7,523.5z"/>
		<path class="st9" d="M539.4,523.5l-6.5,1.2c-0.2-1.3-0.7-2.3-1.5-2.9s-1.8-1-3-1c-1.6,0-2.9,0.6-3.9,1.7s-1.5,3-1.5,5.7
			c0,3,0.5,5,1.5,6.3s2.3,1.8,4,1.8c1.2,0,2.3-0.4,3.1-1.1s1.4-1.9,1.7-3.7l6.5,1.1c-0.7,3-2,5.2-3.9,6.7s-4.5,2.3-7.7,2.3
			c-3.6,0-6.5-1.1-8.7-3.4s-3.2-5.5-3.2-9.5c0-4.1,1.1-7.3,3.3-9.6s5.1-3.4,8.8-3.4c3,0,5.4,0.7,7.2,2S538.6,520.8,539.4,523.5z"/>
		<path class="st9" d="M560.8,541v-3.7c-0.9,1.3-2.1,2.4-3.6,3.1s-3,1.1-4.7,1.1c-1.7,0-3.2-0.4-4.5-1.1s-2.3-1.8-2.9-3.1
			s-0.9-3.2-0.9-5.5v-15.8h6.6v11.4c0,3.5,0.1,5.6,0.4,6.4s0.7,1.4,1.3,1.9s1.5,0.7,2.4,0.7c1.1,0,2.1-0.3,3-0.9s1.5-1.4,1.8-2.3
			s0.5-3.2,0.5-6.7v-10.5h6.6V541H560.8z"/>
		<path class="st9" d="M580,541h-6.6v-24.9h6.1v3.5c1-1.7,2-2.8,2.8-3.3s1.8-0.8,2.8-0.8c1.5,0,2.9,0.4,4.3,1.2l-2,5.7
			c-1.1-0.7-2.1-1.1-3.1-1.1c-0.9,0-1.7,0.3-2.3,0.8s-1.1,1.4-1.5,2.8s-0.6,4.1-0.6,8.3V541z"/>
		<path class="st9" d="M598.7,541h-6.6v-24.9h6.1v3.5c1-1.7,2-2.8,2.8-3.3s1.8-0.8,2.8-0.8c1.5,0,2.9,0.4,4.3,1.2l-2,5.7
			c-1.1-0.7-2.1-1.1-3.1-1.1c-0.9,0-1.7,0.3-2.3,0.8s-1.1,1.4-1.5,2.8s-0.6,4.1-0.6,8.3V541z"/>
		<path class="st9" d="M625.5,533.1l6.6,1.1c-0.8,2.4-2.2,4.2-4,5.5s-4.1,1.9-6.8,1.9c-4.3,0-7.5-1.4-9.6-4.2
			c-1.6-2.3-2.5-5.1-2.5-8.6c0-4.1,1.1-7.4,3.2-9.7s4.9-3.5,8.2-3.5c3.7,0,6.6,1.2,8.8,3.7s3.2,6.2,3.1,11.2h-16.5
			c0,2,0.6,3.5,1.6,4.6s2.3,1.6,3.8,1.6c1,0,1.9-0.3,2.6-0.8S625.1,534.3,625.5,533.1z M625.9,526.4c0-1.9-0.5-3.4-1.5-4.3
			s-2.1-1.5-3.4-1.5c-1.4,0-2.6,0.5-3.6,1.6s-1.4,2.5-1.4,4.3H625.9z"/>
		<path class="st9" d="M660.4,541h-6.6v-12.7c0-2.7-0.1-4.4-0.4-5.2s-0.7-1.4-1.4-1.8s-1.4-0.7-2.3-0.7c-1.1,0-2.2,0.3-3.1,0.9
			s-1.5,1.5-1.9,2.5s-0.5,2.9-0.5,5.7V541h-6.6v-24.9h6.1v3.7c2.2-2.8,4.9-4.2,8.2-4.2c1.5,0,2.8,0.3,4,0.8s2.1,1.2,2.7,2
			s1,1.7,1.3,2.8s0.4,2.5,0.4,4.4V541z"/>
		<path class="st9" d="M688.8,523.5l-6.5,1.2c-0.2-1.3-0.7-2.3-1.5-2.9s-1.8-1-3-1c-1.6,0-2.9,0.6-3.9,1.7s-1.5,3-1.5,5.7
			c0,3,0.5,5,1.5,6.3s2.3,1.8,4,1.8c1.2,0,2.3-0.4,3.1-1.1s1.4-1.9,1.7-3.7l6.5,1.1c-0.7,3-2,5.2-3.9,6.7s-4.5,2.3-7.7,2.3
			c-3.6,0-6.5-1.1-8.7-3.4s-3.2-5.5-3.2-9.5c0-4.1,1.1-7.3,3.3-9.6s5.1-3.4,8.8-3.4c3,0,5.4,0.7,7.2,2S688,520.8,688.8,523.5z"/>
		<path class="st9" d="M708.2,533.1l6.6,1.1c-0.8,2.4-2.2,4.2-4,5.5s-4.1,1.9-6.8,1.9c-4.3,0-7.5-1.4-9.6-4.2
			c-1.6-2.3-2.5-5.1-2.5-8.6c0-4.1,1.1-7.4,3.2-9.7s4.9-3.5,8.2-3.5c3.7,0,6.6,1.2,8.8,3.7s3.2,6.2,3.1,11.2h-16.5
			c0,2,0.6,3.5,1.6,4.6s2.3,1.6,3.8,1.6c1,0,1.9-0.3,2.6-0.8S707.8,534.3,708.2,533.1z M708.6,526.4c0-1.9-0.5-3.4-1.5-4.3
			s-2.1-1.5-3.4-1.5c-1.4,0-2.6,0.5-3.6,1.6s-1.4,2.5-1.4,4.3H708.6z"/>
		<path class="st9" d="M732.1,529.8l6.8-0.7c0.4,2.3,1.2,3.9,2.5,5s2.9,1.6,5,1.6c2.2,0,3.9-0.5,5.1-1.4s1.7-2.1,1.7-3.3
			c0-0.8-0.2-1.5-0.7-2.1s-1.3-1.1-2.5-1.5c-0.8-0.3-2.7-0.8-5.6-1.5c-3.7-0.9-6.3-2.1-7.8-3.4c-2.1-1.9-3.2-4.2-3.2-6.9
			c0-1.8,0.5-3.4,1.5-4.9s2.4-2.7,4.3-3.5s4.1-1.2,6.8-1.2c4.3,0,7.6,0.9,9.7,2.8s3.3,4.4,3.4,7.6l-6.9,0.3c-0.3-1.8-0.9-3-1.9-3.8
			s-2.4-1.2-4.4-1.2c-2,0-3.6,0.4-4.7,1.2c-0.7,0.5-1.1,1.2-1.1,2.1c0,0.8,0.3,1.5,1,2.1c0.9,0.7,3,1.5,6.4,2.3s5.9,1.6,7.5,2.5
			s2.9,2,3.8,3.5s1.4,3.3,1.4,5.5c0,2-0.5,3.8-1.6,5.5s-2.6,3-4.6,3.8s-4.5,1.3-7.5,1.3c-4.3,0-7.7-1-10-3S732.6,533.7,732.1,529.8z
			"/>
		<path class="st9" d="M777.2,516.1v5.2h-4.5v10c0,2,0,3.2,0.1,3.6s0.3,0.6,0.6,0.8s0.7,0.3,1.1,0.3c0.6,0,1.5-0.2,2.6-0.6l0.6,5.1
			c-1.5,0.7-3.3,1-5.2,1c-1.2,0-2.3-0.2-3.2-0.6s-1.7-0.9-2.1-1.5s-0.8-1.5-0.9-2.6c-0.1-0.8-0.2-2.3-0.2-4.6v-10.9h-3v-5.2h3v-4.9
			l6.6-3.8v8.8H777.2z"/>
		<path class="st9" d="M786.7,523.7l-6-1.1c0.7-2.4,1.8-4.2,3.5-5.3s4.1-1.7,7.3-1.7c2.9,0,5.1,0.3,6.6,1s2.4,1.6,3,2.6
			s0.9,3,0.9,5.9l-0.1,7.7c0,2.2,0.1,3.8,0.3,4.8s0.6,2.2,1.2,3.3h-6.5c-0.2-0.4-0.4-1.1-0.6-1.9c-0.1-0.4-0.2-0.6-0.2-0.8
			c-1.1,1.1-2.3,1.9-3.6,2.5s-2.6,0.8-4.1,0.8c-2.6,0-4.6-0.7-6.1-2.1s-2.2-3.1-2.2-5.3c0-1.4,0.3-2.7,1-3.8s1.6-1.9,2.8-2.5
			s3-1.1,5.2-1.5c3.1-0.6,5.2-1.1,6.4-1.6v-0.7c0-1.3-0.3-2.2-0.9-2.7s-1.8-0.8-3.5-0.8c-1.2,0-2.1,0.2-2.7,0.7
			S787.1,522.5,786.7,523.7z M795.5,529c-0.8,0.3-2.2,0.6-4,1s-3,0.8-3.6,1.1c-0.9,0.6-1.3,1.4-1.3,2.3c0,0.9,0.3,1.7,1,2.4
			s1.6,1,2.6,1c1.2,0,2.3-0.4,3.4-1.2c0.8-0.6,1.3-1.3,1.6-2.2c0.2-0.6,0.3-1.6,0.3-3.2V529z"/>
		<path class="st9" d="M819.9,516.1v5.2h-4.5v10c0,2,0,3.2,0.1,3.6s0.3,0.6,0.6,0.8s0.7,0.3,1.1,0.3c0.6,0,1.5-0.2,2.6-0.6l0.6,5.1
			c-1.5,0.7-3.3,1-5.2,1c-1.2,0-2.3-0.2-3.2-0.6s-1.7-0.9-2.1-1.5s-0.8-1.5-0.9-2.6c-0.1-0.8-0.2-2.3-0.2-4.6v-10.9h-3v-5.2h3v-4.9
			l6.6-3.8v8.8H819.9z"/>
		<path class="st9" d="M840.9,541v-3.7c-0.9,1.3-2.1,2.4-3.6,3.1s-3,1.1-4.7,1.1c-1.7,0-3.2-0.4-4.5-1.1s-2.3-1.8-2.9-3.1
			s-0.9-3.2-0.9-5.5v-15.8h6.6v11.4c0,3.5,0.1,5.6,0.4,6.4s0.7,1.4,1.3,1.9s1.5,0.7,2.4,0.7c1.1,0,2.1-0.3,3-0.9s1.5-1.4,1.8-2.3
			s0.5-3.2,0.5-6.7v-10.5h6.6V541H840.9z"/>
		<path class="st9" d="M851.5,533.9l6.6-1c0.3,1.3,0.9,2.3,1.7,2.9s2.1,1,3.6,1c1.7,0,3-0.3,3.8-0.9c0.6-0.4,0.9-1,0.9-1.8
			c0-0.5-0.2-0.9-0.5-1.2c-0.3-0.3-1.1-0.6-2.2-0.9c-5.3-1.2-8.7-2.2-10.1-3.2c-2-1.3-3-3.2-3-5.6c0-2.2,0.9-4,2.6-5.4
			s4.3-2.2,7.9-2.2c3.4,0,5.9,0.6,7.6,1.7s2.8,2.8,3.4,4.9l-6.2,1.1c-0.3-1-0.8-1.7-1.5-2.2s-1.8-0.8-3.2-0.8c-1.7,0-3,0.2-3.7,0.7
			c-0.5,0.3-0.8,0.8-0.8,1.3c0,0.5,0.2,0.9,0.7,1.2c0.6,0.4,2.6,1.1,6.2,1.9s6,1.8,7.3,2.9c1.4,1.2,2.1,2.8,2.1,4.9
			c0,2.3-1,4.2-2.9,5.9s-4.7,2.5-8.5,2.5c-3.4,0-6.1-0.7-8.1-2.1S852.1,536.3,851.5,533.9z"/>
	</g>
	<g class="st8">
		<path class="st9" d="M889.5,529.2c0-1.5,0.2-3,0.5-4.6c0.3-1.6,0.8-3.1,1.5-4.7c0.7-1.5,1.5-3,2.4-4.4c0.9-1.4,2-2.8,3.2-4h2.2
			c-2.2,2.9-3.8,5.9-4.9,8.9c-1,3-1.6,6-1.6,8.9c0,2.9,0.5,5.9,1.6,8.9c1,3,2.7,6,4.9,8.9H897c-1.2-1.2-2.2-2.5-3.2-4
			c-0.9-1.4-1.7-2.9-2.4-4.5c-0.6-1.5-1.1-3.1-1.5-4.7C889.7,532.3,889.5,530.8,889.5,529.2z"/>
		<path class="st9" d="M923.8,541.9l-6.8-23.6l-6.7,23.6c0,0.1-0.1,0.3-0.2,0.3c-0.1,0.1-0.2,0.1-0.4,0.1h-2.4c-0.1,0-0.3,0-0.4-0.1
			c-0.1-0.1-0.2-0.2-0.2-0.3l-7.7-27.2h3.1l6.3,24l6.8-23.6c0-0.1,0.1-0.2,0.2-0.3c0.1-0.1,0.2-0.1,0.4-0.1h2.4c0.2,0,0.3,0,0.4,0.1
			c0.1,0.1,0.2,0.2,0.2,0.3l6.8,23.6l6.4-24h3.2l-7.8,27.2c0,0.1-0.1,0.3-0.2,0.3s-0.2,0.1-0.4,0.1h-2.4c-0.1,0-0.3,0-0.4-0.1
			S923.8,542.1,923.8,541.9z"/>
		<path class="st9" d="M953.1,532.9c0,0.3,0,0.5-0.1,0.6c-0.1,0.1-0.3,0.1-0.5,0.1H939c0,1,0.1,1.9,0.3,2.7c0.2,0.8,0.6,1.6,1,2.2
			c0.5,0.6,1.1,1.1,1.9,1.5c0.7,0.3,1.7,0.5,2.7,0.5c1.2,0,2.2-0.4,3.1-1.2c0.9-0.8,1.5-1.9,1.8-3.3h3.1c-0.6,2.4-1.6,4.1-3.1,5.2
			s-3.3,1.6-5.6,1.6c-1.4,0-2.7-0.3-3.7-0.8c-1-0.5-1.9-1.3-2.6-2.2c-0.7-0.9-1.2-2-1.5-3.2c-0.3-1.2-0.5-2.5-0.5-3.8
			c0-1.3,0.2-2.5,0.5-3.7c0.3-1.2,0.9-2.3,1.6-3.2c0.7-0.9,1.6-1.7,2.6-2.2c1.1-0.6,2.3-0.8,3.7-0.8c1.5,0,2.8,0.3,3.9,0.8
			c1.1,0.5,2,1.2,2.7,2.1c0.7,0.9,1.2,1.9,1.5,3.2C953,530.2,953.1,531.5,953.1,532.9z M939.1,531.3h11.1c-0.1-1.8-0.7-3.2-1.6-4.3
			c-0.9-1.1-2.3-1.6-4.1-1.6c-1.7,0-3,0.6-3.9,1.8C939.8,528.3,939.2,529.7,939.1,531.3z"/>
		<path class="st9" d="M973.9,532.9c0,0.3,0,0.5-0.1,0.6c-0.1,0.1-0.3,0.1-0.5,0.1h-13.5c0,1,0.1,1.9,0.3,2.7c0.2,0.8,0.6,1.6,1,2.2
			c0.5,0.6,1.1,1.1,1.9,1.5c0.7,0.3,1.7,0.5,2.7,0.5c1.2,0,2.2-0.4,3.1-1.2c0.9-0.8,1.5-1.9,1.8-3.3h3.1c-0.6,2.4-1.6,4.1-3.1,5.2
			s-3.3,1.6-5.6,1.6c-1.4,0-2.7-0.3-3.7-0.8c-1-0.5-1.9-1.3-2.6-2.2c-0.7-0.9-1.2-2-1.5-3.2c-0.3-1.2-0.5-2.5-0.5-3.8
			c0-1.3,0.2-2.5,0.5-3.7c0.3-1.2,0.9-2.3,1.6-3.2c0.7-0.9,1.6-1.7,2.6-2.2c1.1-0.6,2.3-0.8,3.7-0.8c1.5,0,2.8,0.3,3.9,0.8
			c1.1,0.5,2,1.2,2.7,2.1c0.7,0.9,1.2,1.9,1.5,3.2C973.8,530.2,973.9,531.5,973.9,532.9z M959.9,531.3H971c-0.1-1.8-0.7-3.2-1.6-4.3
			c-0.9-1.1-2.3-1.6-4.1-1.6c-1.7,0-3,0.6-3.9,1.8C960.6,528.3,960,529.7,959.9,531.3z"/>
		<path class="st9" d="M981.7,514.6v16.1l8.2-7.1h3.7l-9.5,8.1l10.1,10.7h-3.7l-9-9.6v9.6h-2.7v-27.8H981.7z"/>
	</g>
	<g class="st8">
		<path class="st9" d="M1035.9,523.3h-3.8v-3.8h3.8V523.3z M1035.9,538.4h-3.8v-3.8h3.8V538.4z"/>
		<path class="st9" d="M1054.3,514.7h6.4c4.4,0,7.9,1.2,10.3,3.5c2.4,2.3,3.6,5.8,3.6,10.4s-1.2,8-3.6,10.3
			c-2.4,2.3-5.8,3.5-10.3,3.5h-6.4c-0.2,0-0.4,0-0.5-0.1c-0.1-0.1-0.1-0.3-0.1-0.6v-26.2c0-0.2,0-0.4,0.1-0.5
			C1053.8,514.8,1054,514.7,1054.3,514.7z M1056.5,539.8h4.8c3.5,0,6.1-1,7.7-3c1.6-2,2.4-4.8,2.4-8.2c0-4-1.1-7-3.2-8.8
			c-2.1-1.8-5-2.6-8.6-2.5h-3.2V539.8z"/>
		<path class="st9" d="M1090.2,530.7v-1.4c-0.1-1.5-0.6-2.6-1.3-3.1c-0.7-0.6-1.7-0.9-3-0.9c-1.1,0-2,0.2-2.8,0.7
			c-0.8,0.4-1.2,1.3-1.3,2.7h-3.1c0-1,0.3-1.8,0.7-2.6c0.4-0.7,1-1.3,1.6-1.8c0.7-0.4,1.4-0.8,2.3-1c0.9-0.2,1.7-0.4,2.6-0.4
			c2.1,0,3.8,0.5,5.1,1.6c1.2,1,1.9,2.7,1.8,4.9v10.1c0,0.4,0,0.9,0,1.5c0,0.5,0.1,1,0.1,1.4h-2.7l-0.1-2c-0.5,0.7-1.4,1.3-2.4,1.8
			c-1.1,0.5-2.2,0.8-3.3,0.8c-1.8,0-3.3-0.5-4.5-1.5c-1.2-1-1.9-2.5-1.9-4.4c0-1.3,0.3-2.4,1-3.3c0.7-0.9,1.6-1.6,2.8-2.1
			c0.6-0.3,1.3-0.5,2-0.6c0.7-0.1,1.5-0.2,2.2-0.3c0.7,0,1.5,0,2.2,0C1088.9,530.7,1089.6,530.7,1090.2,530.7z M1081,537.1
			c0,1.3,0.4,2.1,1.1,2.7c0.8,0.5,1.7,0.8,2.7,0.8c1.1,0,2.1-0.2,2.8-0.6c0.7-0.4,1.3-1,1.6-1.6c0.4-0.7,0.6-1.5,0.8-2.4
			c0.1-0.9,0.2-1.8,0.2-2.8c-0.7,0-1.6,0-2.6,0s-2.1,0.1-3.1,0.3c-1,0.2-1.8,0.6-2.5,1.2C1081.4,535.1,1081,536,1081,537.1z"/>
		<path class="st9" d="M1095.8,523.5h3.1l6,15.7l5.9-15.7h3.1l-10.5,26.1h-3l2.9-7.4L1095.8,523.5z"/>
	</g>
	<g class="st8">
		<path class="st9" d="M1208.5,518.1v5.4h4.2v2.4h-4.2v11.8c0,1.2,0.2,2,0.6,2.3s1,0.6,1.7,0.6c0.4,0,0.8,0,1.1-0.1
			c0.3-0.1,0.6-0.2,0.9-0.3v2.4c-0.4,0.1-0.8,0.2-1.2,0.3c-0.4,0.1-0.8,0.1-1.2,0.1c-0.7,0-1.3-0.1-1.9-0.2
			c-0.6-0.1-1.1-0.4-1.5-0.7c-0.4-0.4-0.7-0.9-1-1.5c-0.2-0.6-0.4-1.4-0.4-2.4v-12.2h-3.7v-2.4h3.7v-5.4H1208.5z"/>
		<path class="st9" d="M1224,523c1.5,0,2.8,0.3,3.9,0.9c1.1,0.6,2.1,1.3,2.8,2.3c0.7,0.9,1.3,2,1.6,3.2c0.4,1.2,0.5,2.4,0.5,3.7
			c0,1.3-0.2,2.5-0.5,3.7c-0.4,1.2-0.9,2.3-1.6,3.2c-0.7,0.9-1.7,1.7-2.8,2.2c-1.1,0.6-2.4,0.8-3.9,0.8c-1.5,0-2.8-0.3-4-0.8
			c-1.1-0.6-2-1.3-2.7-2.2c-0.7-0.9-1.2-2-1.6-3.2c-0.3-1.2-0.5-2.4-0.5-3.7c0-1.3,0.2-2.5,0.5-3.7c0.3-1.2,0.9-2.3,1.6-3.2
			c0.7-0.9,1.6-1.7,2.7-2.3C1221.1,523.3,1222.4,523,1224,523z M1229.9,533c0-0.9-0.1-1.7-0.4-2.6c-0.2-0.9-0.6-1.7-1.1-2.5
			c-0.5-0.7-1.1-1.3-1.8-1.8c-0.7-0.5-1.6-0.7-2.7-0.7c-1,0-1.9,0.2-2.7,0.7c-0.7,0.5-1.3,1.1-1.8,1.8c-0.5,0.7-0.8,1.6-1,2.5
			c-0.2,0.9-0.3,1.8-0.3,2.6c0,0.9,0.1,1.8,0.3,2.7c0.2,0.9,0.5,1.7,1,2.4c0.5,0.7,1.1,1.3,1.8,1.8c0.7,0.5,1.6,0.7,2.7,0.7
			c1,0,1.9-0.2,2.7-0.7c0.7-0.5,1.3-1,1.8-1.8c0.5-0.7,0.8-1.5,1.1-2.4C1229.7,534.8,1229.9,533.9,1229.9,533z"/>
	</g>
	<g class="st8">
		<path class="st9" d="M1320.3,529.2c0,1.5-0.2,3.1-0.5,4.7c-0.3,1.6-0.8,3.1-1.5,4.7c-0.7,1.6-1.5,3-2.4,4.5c-0.9,1.4-2,2.8-3.1,4
			h-2.2c2.2-2.9,3.8-5.8,4.8-8.9c1.1-3,1.6-6,1.6-8.9c0-2.9-0.5-5.8-1.6-8.9c-1.1-3-2.7-6-4.8-8.9h2.2c1.2,1.2,2.2,2.6,3.1,4
			c0.9,1.4,1.7,2.9,2.4,4.4c0.6,1.6,1.1,3.1,1.5,4.7C1320.2,526.2,1320.3,527.7,1320.3,529.2z"/>
	</g>
	<rect x="855" y="569" class="st10" width="490" height="124"/>
	<g class="st8">
		<path class="st11" d="M996.3,647v-34.4h6.9V647H996.3z"/>
		<path class="st11" d="M1032.4,647h-6.6v-12.7c0-2.7-0.1-4.4-0.4-5.2s-0.7-1.4-1.4-1.8s-1.4-0.7-2.3-0.7c-1.1,0-2.2,0.3-3.1,0.9
			s-1.5,1.5-1.9,2.5s-0.5,2.9-0.5,5.7V647h-6.6v-24.9h6.1v3.7c2.2-2.8,4.9-4.2,8.2-4.2c1.5,0,2.8,0.3,4,0.8s2.1,1.2,2.7,2
			s1,1.7,1.3,2.8s0.4,2.5,0.4,4.4V647z"/>
		<path class="st11" d="M1036.2,622.1h3.7v-1.9c0-2.1,0.2-3.7,0.7-4.7s1.3-1.9,2.5-2.5s2.7-1,4.5-1c1.9,0,3.7,0.3,5.5,0.8l-0.9,4.6
			c-1-0.2-2.1-0.4-3-0.4c-1,0-1.6,0.2-2.1,0.7s-0.6,1.3-0.6,2.6v1.8h4.9v5.2h-4.9V647h-6.6v-19.7h-3.7V622.1z"/>
		<path class="st11" d="M1069.5,639.1l6.6,1.1c-0.8,2.4-2.2,4.2-4,5.5s-4.1,1.9-6.8,1.9c-4.3,0-7.5-1.4-9.6-4.2
			c-1.6-2.3-2.5-5.1-2.5-8.6c0-4.1,1.1-7.4,3.2-9.7s4.9-3.5,8.2-3.5c3.7,0,6.6,1.2,8.8,3.7s3.2,6.2,3.1,11.2h-16.5
			c0,2,0.6,3.5,1.6,4.6s2.3,1.6,3.8,1.6c1,0,1.9-0.3,2.6-0.8S1069.2,640.3,1069.5,639.1z M1069.9,632.4c0-1.9-0.5-3.4-1.5-4.3
			s-2.1-1.5-3.4-1.5c-1.4,0-2.6,0.5-3.6,1.6s-1.4,2.5-1.4,4.3H1069.9z"/>
		<path class="st11" d="M1103.5,629.5l-6.5,1.2c-0.2-1.3-0.7-2.3-1.5-2.9s-1.8-1-3-1c-1.6,0-2.9,0.6-3.9,1.7s-1.5,3-1.5,5.7
			c0,3,0.5,5,1.5,6.3s2.3,1.8,4,1.8c1.2,0,2.3-0.4,3.1-1.1s1.4-1.9,1.7-3.7l6.5,1.1c-0.7,3-2,5.2-3.9,6.7s-4.5,2.3-7.7,2.3
			c-3.6,0-6.5-1.1-8.7-3.4s-3.2-5.5-3.2-9.5c0-4.1,1.1-7.3,3.3-9.6s5.1-3.4,8.8-3.4c3,0,5.4,0.7,7.2,2S1102.7,626.8,1103.5,629.5z"
			/>
		<path class="st11" d="M1119.9,622.1v5.2h-4.5v10c0,2,0,3.2,0.1,3.6s0.3,0.6,0.6,0.8s0.7,0.3,1.1,0.3c0.6,0,1.5-0.2,2.6-0.6
			l0.6,5.1c-1.5,0.7-3.3,1-5.2,1c-1.2,0-2.3-0.2-3.2-0.6s-1.7-0.9-2.1-1.5s-0.8-1.5-0.9-2.6c-0.1-0.8-0.2-2.3-0.2-4.6v-10.9h-3v-5.2
			h3v-4.9l6.6-3.8v8.8H1119.9z"/>
		<path class="st11" d="M1124.5,618.7v-6.1h6.6v6.1H1124.5z M1124.5,647v-24.9h6.6V647H1124.5z"/>
		<path class="st11" d="M1136.3,634.2c0-2.2,0.5-4.3,1.6-6.4s2.6-3.6,4.6-4.7s4.2-1.6,6.6-1.6c3.8,0,6.9,1.2,9.3,3.7
			s3.6,5.5,3.6,9.3c0,3.8-1.2,6.9-3.6,9.4s-5.5,3.7-9.2,3.7c-2.3,0-4.5-0.5-6.5-1.5s-3.6-2.5-4.7-4.5S1136.3,637.1,1136.3,634.2z
			 M1143,634.6c0,2.5,0.6,4.4,1.8,5.7s2.6,2,4.3,2s3.2-0.7,4.3-2s1.7-3.2,1.7-5.7c0-2.4-0.6-4.3-1.7-5.6s-2.6-2-4.3-2
			s-3.2,0.7-4.3,2S1143,632.1,1143,634.6z"/>
		<path class="st11" d="M1183.5,647v-3.7c-0.9,1.3-2.1,2.4-3.6,3.1s-3,1.1-4.7,1.1c-1.7,0-3.2-0.4-4.5-1.1s-2.3-1.8-2.9-3.1
			s-0.9-3.2-0.9-5.5v-15.8h6.6v11.4c0,3.5,0.1,5.6,0.4,6.4s0.7,1.4,1.3,1.9s1.5,0.7,2.4,0.7c1.1,0,2.1-0.3,3-0.9s1.5-1.4,1.8-2.3
			s0.5-3.2,0.5-6.7v-10.5h6.6V647H1183.5z"/>
		<path class="st11" d="M1194.1,639.9l6.6-1c0.3,1.3,0.9,2.3,1.7,2.9s2.1,1,3.6,1c1.7,0,3-0.3,3.8-0.9c0.6-0.4,0.9-1,0.9-1.8
			c0-0.5-0.2-0.9-0.5-1.2c-0.3-0.3-1.1-0.6-2.2-0.9c-5.3-1.2-8.7-2.2-10.1-3.2c-2-1.3-3-3.2-3-5.6c0-2.2,0.9-4,2.6-5.4
			s4.3-2.2,7.9-2.2c3.4,0,5.9,0.6,7.6,1.7s2.8,2.8,3.4,4.9l-6.2,1.1c-0.3-1-0.8-1.7-1.5-2.2s-1.8-0.8-3.2-0.8c-1.7,0-3,0.2-3.7,0.7
			c-0.5,0.3-0.8,0.8-0.8,1.3c0,0.5,0.2,0.9,0.7,1.2c0.6,0.4,2.6,1.1,6.2,1.9s6,1.8,7.3,2.9c1.4,1.2,2.1,2.8,2.1,4.9
			c0,2.3-1,4.2-2.9,5.9s-4.7,2.5-8.5,2.5c-3.4,0-6.1-0.7-8.1-2.1S1194.8,642.3,1194.1,639.9z"/>
	</g>
	<g class="st8">
		<path class="st11" d="M1551.8,647v-34.4h6.9V647H1551.8z"/>
		<path class="st11" d="M1587.3,634.4l6.7,2.1c-1,3.8-2.7,6.5-5.1,8.4s-5.4,2.7-9.1,2.7c-4.6,0-8.3-1.6-11.2-4.7s-4.4-7.4-4.4-12.8
			c0-5.7,1.5-10.2,4.4-13.3s6.8-4.7,11.6-4.7c4.2,0,7.6,1.2,10.2,3.7c1.6,1.5,2.7,3.6,3.5,6.3l-6.9,1.6c-0.4-1.8-1.3-3.2-2.5-4.2
			s-2.9-1.5-4.7-1.5c-2.5,0-4.6,0.9-6.2,2.7s-2.4,4.8-2.4,8.9c0,4.3,0.8,7.4,2.3,9.3s3.6,2.8,6.1,2.8c1.8,0,3.4-0.6,4.8-1.8
			S1586.8,636.9,1587.3,634.4z"/>
		<path class="st11" d="M1600,612.6h6.9v18.6c0,3,0.1,4.9,0.3,5.7c0.3,1.4,1,2.5,2.1,3.4s2.6,1.3,4.6,1.3c2,0,3.5-0.4,4.5-1.2
			s1.6-1.8,1.8-3s0.3-3.1,0.3-5.8v-19h6.9v18c0,4.1-0.2,7-0.6,8.7s-1.1,3.1-2.1,4.3s-2.4,2.1-4,2.8s-3.9,1-6.6,1
			c-3.3,0-5.8-0.4-7.5-1.1s-3-1.7-4-3s-1.6-2.5-1.9-3.8c-0.5-2-0.7-4.9-0.7-8.7V612.6z"/>
	</g>
	<g class="st8">
		<path class="st11" d="M2018.5,612.6h12.7c2.9,0,5,0.2,6.5,0.7c2,0.6,3.7,1.6,5.2,3.2s2.5,3.4,3.3,5.6s1.1,4.9,1.1,8.1
			c0,2.8-0.4,5.3-1.1,7.3c-0.9,2.5-2.1,4.5-3.7,6.1c-1.2,1.2-2.8,2.1-4.9,2.7c-1.5,0.5-3.6,0.7-6.1,0.7h-13.1V612.6z M2025.4,618.5
			v22.8h5.2c1.9,0,3.3-0.1,4.2-0.3c1.1-0.3,2.1-0.8,2.8-1.4s1.3-1.8,1.8-3.3s0.7-3.6,0.7-6.3s-0.2-4.7-0.7-6.1s-1.1-2.5-2-3.3
			s-1.9-1.3-3.2-1.6c-1-0.2-2.9-0.3-5.7-0.3H2025.4z"/>
		<path class="st11" d="M2067.5,639.1l6.6,1.1c-0.8,2.4-2.2,4.2-4,5.5s-4.1,1.9-6.8,1.9c-4.3,0-7.5-1.4-9.6-4.2
			c-1.6-2.3-2.5-5.1-2.5-8.6c0-4.1,1.1-7.4,3.2-9.7s4.9-3.5,8.2-3.5c3.7,0,6.6,1.2,8.8,3.7s3.2,6.2,3.1,11.2H2058
			c0,2,0.6,3.5,1.6,4.6s2.3,1.6,3.8,1.6c1,0,1.9-0.3,2.6-0.8S2067.2,640.3,2067.5,639.1z M2067.9,632.4c0-1.9-0.5-3.4-1.5-4.3
			s-2.1-1.5-3.4-1.5c-1.4,0-2.6,0.5-3.6,1.6s-1.4,2.5-1.4,4.3H2067.9z"/>
		<path class="st11" d="M2084.8,629.7l-6-1.1c0.7-2.4,1.8-4.2,3.5-5.3s4.1-1.7,7.3-1.7c2.9,0,5.1,0.3,6.6,1s2.4,1.6,3,2.6
			s0.9,3,0.9,5.9l-0.1,7.7c0,2.2,0.1,3.8,0.3,4.8s0.6,2.2,1.2,3.3h-6.5c-0.2-0.4-0.4-1.1-0.6-1.9c-0.1-0.4-0.2-0.6-0.2-0.8
			c-1.1,1.1-2.3,1.9-3.6,2.5s-2.6,0.8-4.1,0.8c-2.6,0-4.6-0.7-6.1-2.1s-2.2-3.1-2.2-5.3c0-1.4,0.3-2.7,1-3.8s1.6-1.9,2.8-2.5
			s3-1.1,5.2-1.5c3.1-0.6,5.2-1.1,6.4-1.6v-0.7c0-1.3-0.3-2.2-0.9-2.7s-1.8-0.8-3.5-0.8c-1.2,0-2.1,0.2-2.7,0.7
			S2085.2,628.5,2084.8,629.7z M2093.6,635c-0.8,0.3-2.2,0.6-4,1s-3,0.8-3.6,1.1c-0.9,0.6-1.3,1.4-1.3,2.3c0,0.9,0.3,1.7,1,2.4
			s1.6,1,2.6,1c1.2,0,2.3-0.4,3.4-1.2c0.8-0.6,1.3-1.3,1.6-2.2c0.2-0.6,0.3-1.6,0.3-3.2V635z"/>
		<path class="st11" d="M2117.9,622.1v5.2h-4.5v10c0,2,0,3.2,0.1,3.6s0.3,0.6,0.6,0.8s0.7,0.3,1.1,0.3c0.6,0,1.5-0.2,2.6-0.6
			l0.6,5.1c-1.5,0.7-3.3,1-5.2,1c-1.2,0-2.3-0.2-3.2-0.6s-1.7-0.9-2.1-1.5s-0.8-1.5-0.9-2.6c-0.1-0.8-0.2-2.3-0.2-4.6v-10.9h-3v-5.2
			h3v-4.9l6.6-3.8v8.8H2117.9z"/>
		<path class="st11" d="M2129.1,612.6v12.6c2.1-2.5,4.7-3.7,7.6-3.7c1.5,0,2.9,0.3,4.1,0.8s2.1,1.3,2.8,2.2s1,1.8,1.3,2.9
			s0.3,2.7,0.3,4.9V647h-6.6v-13.1c0-2.6-0.1-4.3-0.4-5s-0.7-1.3-1.3-1.7s-1.4-0.6-2.4-0.6c-1.1,0-2.1,0.3-2.9,0.8s-1.5,1.3-1.9,2.4
			s-0.6,2.7-0.6,4.7V647h-6.6v-34.4H2129.1z"/>
	</g>
	<g class="st8">
		<path class="st11" d="M2539.6,612.4v-5.8h15v13.7c-1.5,1.4-3.6,2.6-6.3,3.7s-5.6,1.6-8.4,1.6c-3.6,0-6.7-0.8-9.4-2.3
			s-4.7-3.7-6-6.5s-2-5.9-2-9.2c0-3.6,0.8-6.8,2.2-9.5s3.7-4.9,6.6-6.4c2.2-1.1,4.9-1.7,8.2-1.7c4.3,0,7.6,0.9,10,2.7
			s3.9,4.3,4.6,7.4l-6.9,1.3c-0.5-1.7-1.4-3-2.7-4s-3-1.5-5-1.5c-3,0-5.4,1-7.2,2.9s-2.7,4.8-2.7,8.6c0,4.1,0.9,7.1,2.7,9.2
			s4.2,3.1,7.1,3.1c1.5,0,2.9-0.3,4.4-0.9s2.7-1.3,3.8-2.1v-4.4H2539.6z"/>
		<path class="st11" d="M2561,590.6h12.7c2.9,0,5,0.2,6.5,0.7c2,0.6,3.7,1.6,5.2,3.2s2.5,3.4,3.3,5.6s1.1,4.9,1.1,8.1
			c0,2.8-0.4,5.3-1.1,7.3c-0.9,2.5-2.1,4.5-3.7,6.1c-1.2,1.2-2.8,2.1-4.9,2.7c-1.5,0.5-3.6,0.7-6.1,0.7H2561V590.6z M2567.9,596.5
			v22.8h5.2c1.9,0,3.3-0.1,4.2-0.3c1.1-0.3,2.1-0.8,2.8-1.4s1.3-1.8,1.8-3.3s0.7-3.6,0.7-6.3s-0.2-4.7-0.7-6.1s-1.1-2.5-2-3.3
			s-1.9-1.3-3.2-1.6c-1-0.2-2.9-0.3-5.7-0.3H2567.9z"/>
		<path class="st11" d="M2595.6,625v-34.4h11.1c4.2,0,7,0.2,8.2,0.5c2,0.5,3.6,1.6,4.9,3.4s2,4,2,6.7c0,2.1-0.4,3.9-1.1,5.3
			s-1.7,2.6-2.9,3.4s-2.4,1.4-3.6,1.6c-1.7,0.3-4.1,0.5-7.2,0.5h-4.5v13H2595.6z M2602.6,596.5v9.8h3.8c2.7,0,4.6-0.2,5.5-0.5
			s1.6-0.9,2.2-1.7s0.8-1.7,0.8-2.7c0-1.2-0.4-2.3-1.1-3.1s-1.7-1.3-2.8-1.5c-0.8-0.2-2.5-0.2-5-0.2H2602.6z"/>
	</g>
	<g class="st8">
		<path class="st11" d="M2347.2,679.8c-1.8-2.3-3.3-4.9-4.6-7.9s-1.9-6.2-1.9-9.4c0-2.9,0.5-5.6,1.4-8.2c1.1-3,2.8-6.1,5-9.1h2.3
			c-1.5,2.5-2.4,4.3-2.9,5.4c-0.7,1.7-1.3,3.4-1.7,5.2c-0.5,2.3-0.8,4.5-0.8,6.8c0,5.8,1.8,11.6,5.4,17.4H2347.2z"/>
	</g>
	<g class="st8">
		<path class="st11" d="M2371.8,662.7l3.5,0.9c-0.7,2.9-2.1,5.1-4,6.6c-1.9,1.5-4.2,2.3-7,2.3c-2.9,0-5.2-0.6-7-1.7
			c-1.8-1.2-3.2-2.8-4.1-5c-0.9-2.2-1.4-4.6-1.4-7.1c0-2.8,0.5-5.2,1.6-7.2c1.1-2.1,2.6-3.6,4.5-4.7c1.9-1.1,4.1-1.6,6.4-1.6
			c2.6,0,4.9,0.7,6.7,2c1.8,1.3,3.1,3.2,3.8,5.7l-3.5,0.8c-0.6-1.9-1.5-3.3-2.7-4.2c-1.2-0.9-2.6-1.3-4.4-1.3c-2,0-3.7,0.5-5.1,1.5
			c-1.4,1-2.3,2.3-2.9,3.9c-0.6,1.6-0.8,3.3-0.8,5.1c0,2.3,0.3,4.2,1,5.9c0.7,1.7,1.7,2.9,3.1,3.8c1.4,0.8,2.9,1.2,4.5,1.2
			c2,0,3.6-0.6,5-1.7C2370.4,666.6,2371.3,664.9,2371.8,662.7z"/>
		<path class="st11" d="M2378,662.4c0-3.6,1-6.2,3-7.9c1.6-1.4,3.7-2.1,6-2.1c2.6,0,4.8,0.9,6.5,2.6c1.7,1.7,2.5,4.1,2.5,7.2
			c0,2.5-0.4,4.4-1.1,5.8c-0.7,1.4-1.8,2.5-3.2,3.3c-1.4,0.8-3,1.2-4.6,1.2c-2.7,0-4.9-0.9-6.5-2.6
			C2378.8,668.1,2378,665.6,2378,662.4z M2381.3,662.4c0,2.5,0.5,4.3,1.6,5.5c1.1,1.2,2.4,1.8,4,1.8c1.6,0,3-0.6,4-1.8
			s1.6-3.1,1.6-5.6c0-2.4-0.5-4.2-1.6-5.4c-1.1-1.2-2.4-1.8-4-1.8c-1.6,0-3,0.6-4,1.8S2381.3,659.9,2381.3,662.4z"/>
		<path class="st11" d="M2399.7,672v-19.2h2.9v2.7c0.6-0.9,1.4-1.7,2.4-2.3c1-0.6,2.1-0.9,3.4-0.9c1.4,0,2.6,0.3,3.5,0.9
			c0.9,0.6,1.6,1.4,1.9,2.5c1.5-2.2,3.5-3.4,5.9-3.4c1.9,0,3.4,0.5,4.4,1.6c1,1.1,1.5,2.7,1.5,4.9V672h-3.2v-12.1
			c0-1.3-0.1-2.2-0.3-2.8c-0.2-0.6-0.6-1-1.1-1.4c-0.6-0.3-1.2-0.5-2-0.5c-1.3,0-2.5,0.4-3.4,1.3c-0.9,0.9-1.3,2.3-1.3,4.3V672h-3.3
			v-12.5c0-1.4-0.3-2.5-0.8-3.3c-0.5-0.7-1.4-1.1-2.6-1.1c-0.9,0-1.8,0.2-2.5,0.7c-0.8,0.5-1.3,1.2-1.7,2.1c-0.3,0.9-0.5,2.3-0.5,4
			v10H2399.7z"/>
		<path class="st11" d="M2430.6,679.4v-26.5h3v2.5c0.7-1,1.5-1.7,2.4-2.2c0.9-0.5,1.9-0.7,3.2-0.7c1.6,0,3.1,0.4,4.3,1.3
			c1.3,0.8,2.2,2,2.8,3.6c0.6,1.5,1,3.2,1,5c0,2-0.4,3.7-1.1,5.3c-0.7,1.6-1.7,2.8-3.1,3.6s-2.8,1.3-4.2,1.3c-1.1,0-2.1-0.2-2.9-0.7
			c-0.9-0.5-1.6-1-2.1-1.7v9.3H2430.6z M2433.5,662.5c0,2.5,0.5,4.3,1.5,5.5s2.2,1.8,3.6,1.8c1.4,0,2.7-0.6,3.7-1.8
			c1-1.2,1.5-3.1,1.5-5.7c0-2.4-0.5-4.3-1.5-5.5s-2.2-1.8-3.6-1.8c-1.4,0-2.6,0.6-3.7,1.9C2434,658.2,2433.5,660,2433.5,662.5z"/>
		<path class="st11" d="M2463.7,669.6c-1.2,1-2.4,1.7-3.5,2.2c-1.1,0.4-2.3,0.6-3.6,0.6c-2.1,0-3.7-0.5-4.9-1.5
			c-1.1-1-1.7-2.3-1.7-3.9c0-0.9,0.2-1.8,0.6-2.6c0.4-0.8,1-1.4,1.7-1.9c0.7-0.5,1.5-0.8,2.3-1.1c0.6-0.2,1.6-0.3,2.9-0.5
			c2.6-0.3,4.6-0.7,5.8-1.1c0-0.4,0-0.7,0-0.8c0-1.3-0.3-2.3-0.9-2.8c-0.8-0.7-2.1-1.1-3.7-1.1c-1.5,0-2.7,0.3-3.4,0.8
			s-1.3,1.5-1.6,2.8l-3.2-0.4c0.3-1.4,0.8-2.5,1.4-3.3c0.7-0.8,1.6-1.5,2.9-1.9c1.3-0.5,2.7-0.7,4.4-0.7c1.6,0,3,0.2,4,0.6
			s1.8,0.9,2.3,1.5c0.5,0.6,0.8,1.3,1,2.2c0.1,0.6,0.2,1.6,0.2,3v4.3c0,3,0.1,4.9,0.2,5.7c0.1,0.8,0.4,1.6,0.8,2.3h-3.4
			C2464,671.3,2463.8,670.5,2463.7,669.6z M2463.4,662.4c-1.2,0.5-3,0.9-5.3,1.2c-1.3,0.2-2.3,0.4-2.8,0.7c-0.6,0.2-1,0.6-1.3,1.1
			c-0.3,0.5-0.5,1-0.5,1.5c0,0.9,0.3,1.6,1,2.2c0.7,0.6,1.6,0.9,2.9,0.9c1.3,0,2.4-0.3,3.3-0.8s1.7-1.3,2.2-2.2
			c0.3-0.7,0.5-1.8,0.5-3.3V662.4z"/>
		<path class="st11" d="M2471.7,672v-19.2h2.9v2.9c0.7-1.4,1.4-2.3,2.1-2.7c0.6-0.4,1.3-0.7,2.1-0.7c1.1,0,2.2,0.3,3.3,1l-1.1,3
			c-0.8-0.5-1.6-0.7-2.4-0.7c-0.7,0-1.3,0.2-1.9,0.6s-1,1-1.2,1.8c-0.4,1.2-0.5,2.4-0.5,3.8v10H2471.7z"/>
		<path class="st11" d="M2497.2,665.8l3.4,0.4c-0.5,2-1.5,3.5-2.9,4.6s-3.3,1.6-5.5,1.6c-2.8,0-5-0.9-6.7-2.6
			c-1.6-1.7-2.5-4.2-2.5-7.3c0-3.2,0.8-5.7,2.5-7.5s3.8-2.7,6.5-2.7c2.6,0,4.7,0.9,6.3,2.6c1.6,1.7,2.4,4.2,2.4,7.4
			c0,0.2,0,0.5,0,0.9h-14.3c0.1,2.1,0.7,3.7,1.8,4.8c1.1,1.1,2.4,1.7,4,1.7c1.2,0,2.2-0.3,3.1-0.9
			C2496,668.2,2496.7,667.2,2497.2,665.8z M2486.5,660.6h10.7c-0.1-1.6-0.6-2.8-1.2-3.6c-1-1.3-2.4-1.9-4-1.9
			c-1.5,0-2.7,0.5-3.8,1.5C2487.2,657.6,2486.6,658.9,2486.5,660.6z"/>
		<path class="st11" d="M2517.1,672v-2.4c-1.2,1.9-3,2.9-5.4,2.9c-1.5,0-2.9-0.4-4.2-1.3c-1.3-0.8-2.3-2-3-3.5
			c-0.7-1.5-1.1-3.2-1.1-5.2c0-1.9,0.3-3.7,1-5.2c0.6-1.6,1.6-2.8,2.9-3.6c1.3-0.8,2.7-1.2,4.3-1.2c1.2,0,2.2,0.2,3.1,0.7
			c0.9,0.5,1.6,1.1,2.2,1.9v-9.5h3.2V672H2517.1z M2506.8,662.4c0,2.5,0.5,4.3,1.6,5.5c1,1.2,2.3,1.8,3.7,1.8c1.4,0,2.6-0.6,3.6-1.7
			c1-1.2,1.5-2.9,1.5-5.3c0-2.6-0.5-4.6-1.5-5.8s-2.3-1.8-3.7-1.8c-1.4,0-2.7,0.6-3.6,1.8C2507.3,658,2506.8,659.9,2506.8,662.4z"/>
		<path class="st11" d="M2542.6,669.1l0.5,2.9c-0.9,0.2-1.7,0.3-2.5,0.3c-1.2,0-2.1-0.2-2.7-0.6c-0.7-0.4-1.1-0.9-1.4-1.5
			c-0.3-0.6-0.4-1.9-0.4-3.8v-11h-2.4v-2.5h2.4v-4.8l3.2-2v6.7h3.3v2.5h-3.3v11.2c0,0.9,0.1,1.5,0.2,1.8c0.1,0.3,0.3,0.5,0.6,0.6
			c0.3,0.2,0.6,0.2,1.1,0.2C2541.5,669.2,2542,669.2,2542.6,669.1z"/>
		<path class="st11" d="M2544.5,662.4c0-3.6,1-6.2,3-7.9c1.7-1.4,3.7-2.1,6-2.1c2.6,0,4.8,0.9,6.5,2.6s2.5,4.1,2.5,7.2
			c0,2.5-0.4,4.4-1.1,5.8c-0.7,1.4-1.8,2.5-3.2,3.3c-1.4,0.8-3,1.2-4.6,1.2c-2.7,0-4.9-0.9-6.5-2.6
			C2545.4,668.1,2544.5,665.6,2544.5,662.4z M2547.9,662.4c0,2.5,0.5,4.3,1.6,5.5c1.1,1.2,2.4,1.8,4,1.8c1.6,0,3-0.6,4-1.8
			s1.6-3.1,1.6-5.6c0-2.4-0.5-4.2-1.6-5.4c-1.1-1.2-2.4-1.8-4-1.8c-1.6,0-3,0.6-4,1.8C2548.4,658.1,2547.9,659.9,2547.9,662.4z"/>
	</g>
	<g class="st8">
		<path class="st11" d="M2576.5,679.4v-26.5h3v2.5c0.7-1,1.5-1.7,2.4-2.2c0.9-0.5,1.9-0.7,3.2-0.7c1.6,0,3.1,0.4,4.3,1.3
			c1.3,0.8,2.2,2,2.8,3.6c0.6,1.5,1,3.2,1,5c0,2-0.4,3.7-1.1,5.3c-0.7,1.6-1.7,2.8-3.1,3.6c-1.3,0.8-2.8,1.3-4.2,1.3
			c-1.1,0-2.1-0.2-2.9-0.7c-0.9-0.5-1.6-1-2.1-1.7v9.3H2576.5z M2579.4,662.5c0,2.5,0.5,4.3,1.5,5.5c1,1.2,2.2,1.8,3.6,1.8
			c1.4,0,2.7-0.6,3.7-1.8c1-1.2,1.5-3.1,1.5-5.7c0-2.4-0.5-4.3-1.5-5.5s-2.2-1.8-3.6-1.8c-1.4,0-2.6,0.6-3.7,1.9
			C2579.9,658.2,2579.4,660,2579.4,662.5z"/>
		<path class="st11" d="M2597,672v-19.2h2.9v2.9c0.7-1.4,1.4-2.3,2.1-2.7c0.6-0.4,1.3-0.7,2.1-0.7c1.1,0,2.2,0.3,3.3,1l-1.1,3
			c-0.8-0.5-1.6-0.7-2.4-0.7c-0.7,0-1.3,0.2-1.9,0.6c-0.6,0.4-1,1-1.2,1.8c-0.4,1.2-0.5,2.4-0.5,3.8v10H2597z"/>
		<path class="st11" d="M2622.5,665.8l3.4,0.4c-0.5,2-1.5,3.5-2.9,4.6s-3.3,1.6-5.5,1.6c-2.8,0-5-0.9-6.7-2.6
			c-1.6-1.7-2.5-4.2-2.5-7.3c0-3.2,0.8-5.7,2.5-7.5s3.8-2.7,6.5-2.7c2.6,0,4.7,0.9,6.3,2.6c1.6,1.7,2.4,4.2,2.4,7.4
			c0,0.2,0,0.5,0,0.9h-14.3c0.1,2.1,0.7,3.7,1.8,4.8c1.1,1.1,2.4,1.7,4,1.7c1.2,0,2.2-0.3,3.1-0.9S2622,667.2,2622.5,665.8z
			 M2611.8,660.6h10.7c-0.1-1.6-0.6-2.8-1.2-3.6c-1-1.3-2.4-1.9-4-1.9c-1.5,0-2.7,0.5-3.8,1.5
			C2612.5,657.6,2611.9,658.9,2611.8,660.6z"/>
	</g>
	<g class="st8">
		<path class="st11" d="M2629,664.1v-3.3h10v3.3H2629z"/>
	</g>
	<g class="st8">
		<path class="st11" d="M2642.7,662.4c0-3.6,1-6.2,3-7.9c1.6-1.4,3.7-2.1,6-2.1c2.6,0,4.8,0.9,6.5,2.6c1.7,1.7,2.5,4.1,2.5,7.2
			c0,2.5-0.4,4.4-1.1,5.8c-0.7,1.4-1.8,2.5-3.2,3.3c-1.4,0.8-3,1.2-4.6,1.2c-2.7,0-4.9-0.9-6.5-2.6
			C2643.6,668.1,2642.7,665.6,2642.7,662.4z M2646.1,662.4c0,2.5,0.5,4.3,1.6,5.5c1.1,1.2,2.4,1.8,4,1.8c1.6,0,3-0.6,4-1.8
			s1.6-3.1,1.6-5.6c0-2.4-0.5-4.2-1.6-5.4c-1.1-1.2-2.4-1.8-4-1.8c-1.6,0-3,0.6-4,1.8C2646.6,658.1,2646.1,659.9,2646.1,662.4z"/>
		<path class="st11" d="M2677.1,672v-2.8c-1.5,2.2-3.5,3.3-6.1,3.3c-1.1,0-2.2-0.2-3.2-0.7c-1-0.4-1.7-1-2.2-1.6s-0.8-1.5-1-2.4
			c-0.1-0.6-0.2-1.7-0.2-3v-11.9h3.3v10.6c0,1.7,0.1,2.8,0.2,3.4c0.2,0.9,0.6,1.5,1.3,2c0.7,0.5,1.5,0.7,2.5,0.7s1.9-0.2,2.7-0.7
			s1.5-1.2,1.8-2c0.4-0.9,0.5-2.1,0.5-3.7v-10.3h3.3V672H2677.1z"/>
		<path class="st11" d="M2692.2,669.1l0.5,2.9c-0.9,0.2-1.7,0.3-2.5,0.3c-1.2,0-2.1-0.2-2.7-0.6c-0.7-0.4-1.1-0.9-1.4-1.5
			c-0.3-0.6-0.4-1.9-0.4-3.8v-11h-2.4v-2.5h2.4v-4.8l3.2-2v6.7h3.3v2.5h-3.3v11.2c0,0.9,0.1,1.5,0.2,1.8s0.3,0.5,0.6,0.6
			c0.3,0.2,0.6,0.2,1.1,0.2C2691.1,669.2,2691.6,669.2,2692.2,669.1z"/>
		<path class="st11" d="M2698.4,672h-3v-26.5h3.3v9.4c1.4-1.7,3.1-2.6,5.3-2.6c1.2,0,2.3,0.2,3.4,0.7c1.1,0.5,1.9,1.1,2.6,2
			c0.7,0.9,1.2,1.9,1.6,3.1c0.4,1.2,0.6,2.5,0.6,3.9c0,3.3-0.8,5.8-2.4,7.6c-1.6,1.8-3.6,2.7-5.9,2.7c-2.3,0-4-0.9-5.3-2.8V672z
			 M2698.3,662.3c0,2.3,0.3,4,0.9,5c1,1.7,2.4,2.5,4.2,2.5c1.4,0,2.6-0.6,3.7-1.9c1-1.2,1.6-3.1,1.6-5.5c0-2.5-0.5-4.4-1.5-5.5
			c-1-1.2-2.2-1.8-3.6-1.8c-1.4,0-2.7,0.6-3.7,1.9C2698.8,658.1,2698.3,659.9,2698.3,662.3z"/>
		<path class="st11" d="M2715.9,672v-19.2h2.9v2.9c0.7-1.4,1.4-2.3,2.1-2.7c0.6-0.4,1.3-0.7,2.1-0.7c1.1,0,2.2,0.3,3.3,1l-1.1,3
			c-0.8-0.5-1.6-0.7-2.4-0.7c-0.7,0-1.3,0.2-1.9,0.6c-0.6,0.4-1,1-1.2,1.8c-0.4,1.2-0.5,2.4-0.5,3.8v10H2715.9z"/>
		<path class="st11" d="M2741.4,665.8l3.4,0.4c-0.5,2-1.5,3.5-2.9,4.6s-3.3,1.6-5.5,1.6c-2.8,0-5-0.9-6.7-2.6
			c-1.6-1.7-2.5-4.2-2.5-7.3c0-3.2,0.8-5.7,2.5-7.5s3.8-2.7,6.5-2.7c2.6,0,4.7,0.9,6.3,2.6c1.6,1.7,2.4,4.2,2.4,7.4
			c0,0.2,0,0.5,0,0.9h-14.3c0.1,2.1,0.7,3.7,1.8,4.8c1.1,1.1,2.4,1.7,4,1.7c1.2,0,2.2-0.3,3.1-0.9S2740.9,667.2,2741.4,665.8z
			 M2730.7,660.6h10.7c-0.1-1.6-0.6-2.8-1.2-3.6c-1-1.3-2.4-1.9-4-1.9c-1.5,0-2.7,0.5-3.8,1.5
			C2731.4,657.6,2730.8,658.9,2730.7,660.6z"/>
		<path class="st11" d="M2761.4,669.6c-1.2,1-2.4,1.7-3.5,2.2c-1.1,0.4-2.3,0.6-3.6,0.6c-2.1,0-3.7-0.5-4.9-1.5
			c-1.1-1-1.7-2.3-1.7-3.9c0-0.9,0.2-1.8,0.6-2.6c0.4-0.8,1-1.4,1.7-1.9c0.7-0.5,1.5-0.8,2.3-1.1c0.6-0.2,1.6-0.3,2.9-0.5
			c2.6-0.3,4.6-0.7,5.8-1.1c0-0.4,0-0.7,0-0.8c0-1.3-0.3-2.3-0.9-2.8c-0.8-0.7-2.1-1.1-3.7-1.1c-1.5,0-2.7,0.3-3.4,0.8
			c-0.7,0.5-1.3,1.5-1.6,2.8l-3.2-0.4c0.3-1.4,0.8-2.5,1.4-3.3c0.7-0.8,1.6-1.5,2.9-1.9c1.3-0.5,2.7-0.7,4.4-0.7c1.6,0,3,0.2,4,0.6
			c1,0.4,1.8,0.9,2.3,1.5c0.5,0.6,0.8,1.3,1,2.2c0.1,0.6,0.2,1.6,0.2,3v4.3c0,3,0.1,4.9,0.2,5.7c0.1,0.8,0.4,1.6,0.8,2.3h-3.4
			C2761.7,671.3,2761.5,670.5,2761.4,669.6z M2761.1,662.4c-1.2,0.5-3,0.9-5.3,1.2c-1.3,0.2-2.3,0.4-2.8,0.7c-0.6,0.2-1,0.6-1.3,1.1
			c-0.3,0.5-0.5,1-0.5,1.5c0,0.9,0.3,1.6,1,2.2c0.7,0.6,1.6,0.9,2.9,0.9c1.3,0,2.4-0.3,3.3-0.8s1.7-1.3,2.1-2.2
			c0.3-0.7,0.5-1.8,0.5-3.3V662.4z"/>
		<path class="st11" d="M2769.4,672v-26.5h3.3v15.1l7.7-7.8h4.2l-7.3,7.1l8.1,12.1h-4l-6.3-9.8l-2.3,2.2v7.6H2769.4z"/>
		<path class="st11" d="M2790.1,679.8h-2.3c3.6-5.8,5.4-11.6,5.4-17.4c0-2.3-0.3-4.5-0.8-6.7c-0.4-1.8-1-3.5-1.7-5.2
			c-0.5-1.1-1.4-2.9-2.9-5.4h2.3c2.3,3,3.9,6.1,5,9.1c0.9,2.6,1.4,5.4,1.4,8.2c0,3.3-0.6,6.4-1.9,9.4
			C2793.4,674.9,2791.8,677.5,2790.1,679.8z"/>
	</g>
	<path class="st4" d="M437,932.8V722.2c0-7.3,5.9-13.2,13.2-13.2H855v237H450.2C442.9,946,437,940.1,437,932.8z"/>
	<g class="st8">
		<path class="st12" d="M538.6,787l-7-29.3h6.1l4.4,20.2l5.4-20.2h7l5.1,20.5l4.5-20.5h6L563,787h-6.3l-5.8-21.9L545,787H538.6z"/>
		<path class="st12" d="M584.7,780.2l5.6,0.9c-0.7,2.1-1.9,3.6-3.4,4.7c-1.6,1.1-3.5,1.6-5.8,1.6c-3.7,0-6.4-1.2-8.2-3.6
			c-1.4-1.9-2.1-4.4-2.1-7.3c0-3.5,0.9-6.3,2.8-8.3s4.2-3,7-3c3.2,0,5.7,1,7.5,3.1c1.8,2.1,2.7,5.3,2.6,9.6h-14.1
			c0,1.7,0.5,3,1.4,3.9c0.9,0.9,1.9,1.4,3.2,1.4c0.9,0,1.6-0.2,2.2-0.7S584.4,781.3,584.7,780.2z M585,774.5c0-1.6-0.5-2.9-1.3-3.7
			c-0.8-0.8-1.8-1.3-2.9-1.3c-1.2,0-2.2,0.4-3,1.3c-0.8,0.9-1.2,2.1-1.2,3.6H585z"/>
		<path class="st12" d="M607.5,780.2l5.6,0.9c-0.7,2.1-1.9,3.6-3.4,4.7c-1.6,1.1-3.5,1.6-5.8,1.6c-3.7,0-6.4-1.2-8.2-3.6
			c-1.4-1.9-2.1-4.4-2.1-7.3c0-3.5,0.9-6.3,2.8-8.3s4.2-3,7-3c3.2,0,5.7,1,7.5,3.1c1.8,2.1,2.7,5.3,2.6,9.6h-14.1
			c0,1.7,0.5,3,1.4,3.9c0.9,0.9,1.9,1.4,3.2,1.4c0.9,0,1.6-0.2,2.2-0.7S607.2,781.3,607.5,780.2z M607.8,774.5
			c0-1.6-0.5-2.9-1.3-3.7c-0.8-0.8-1.8-1.3-2.9-1.3c-1.2,0-2.2,0.4-3,1.3c-0.8,0.9-1.2,2.1-1.2,3.6H607.8z"/>
		<path class="st12" d="M617.8,787v-29.3h5.6v15.6l6.6-7.5h6.9l-7.3,7.8l7.8,13.5h-6.1l-5.3-9.5l-2.6,2.7v6.8H617.8z"/>
		<path class="st12" d="M640.8,787v-29.3h5.6V787H640.8z"/>
		<path class="st12" d="M649.5,765.7h6l5.1,15.1l5-15.1h5.8l-7.5,20.5l-1.3,3.7c-0.5,1.2-1,2.2-1.4,2.8c-0.4,0.7-1,1.2-1.5,1.6
			c-0.6,0.4-1.3,0.7-2.1,1c-0.8,0.2-1.8,0.3-2.9,0.3c-1.1,0-2.1-0.1-3.2-0.3l-0.5-4.4c0.9,0.2,1.7,0.3,2.4,0.3
			c1.3,0,2.3-0.4,2.9-1.2c0.6-0.8,1.1-1.7,1.4-2.9L649.5,765.7z"/>
		<path class="st12" d="M696.1,765.7v4.5h-3.8v8.6c0,1.7,0,2.7,0.1,3c0.1,0.3,0.2,0.5,0.5,0.7c0.3,0.2,0.6,0.3,1,0.3
			c0.5,0,1.3-0.2,2.3-0.5l0.5,4.4c-1.3,0.6-2.8,0.8-4.4,0.8c-1,0-1.9-0.2-2.7-0.5c-0.8-0.3-1.4-0.8-1.8-1.3
			c-0.4-0.5-0.6-1.3-0.8-2.2c-0.1-0.7-0.2-2-0.2-4v-9.3H684v-4.5h2.6v-4.2l5.6-3.3v7.5H696.1z"/>
		<path class="st12" d="M698.7,776.1c0-1.9,0.5-3.7,1.4-5.4c0.9-1.7,2.2-3.1,3.9-4c1.7-0.9,3.6-1.4,5.7-1.4c3.2,0,5.9,1,7.9,3.1
			c2.1,2.1,3.1,4.7,3.1,7.9c0,3.2-1,5.9-3.1,8s-4.7,3.2-7.8,3.2c-1.9,0-3.8-0.4-5.6-1.3s-3.1-2.2-4-3.9
			C699.2,780.6,698.7,778.5,698.7,776.1z M704.5,776.4c0,2.1,0.5,3.7,1.5,4.8s2.2,1.7,3.7,1.7c1.5,0,2.7-0.6,3.7-1.7
			s1.5-2.8,1.5-4.9c0-2.1-0.5-3.7-1.5-4.8s-2.2-1.7-3.7-1.7c-1.5,0-2.7,0.6-3.7,1.7S704.5,774.3,704.5,776.4z"/>
		<path class="st12" d="M734.8,765.7v4.5H731v8.6c0,1.7,0,2.7,0.1,3c0.1,0.3,0.2,0.5,0.5,0.7c0.3,0.2,0.6,0.3,1,0.3
			c0.5,0,1.3-0.2,2.3-0.5l0.5,4.4c-1.3,0.6-2.8,0.8-4.4,0.8c-1,0-1.9-0.2-2.7-0.5c-0.8-0.3-1.4-0.8-1.8-1.3
			c-0.4-0.5-0.6-1.3-0.8-2.2c-0.1-0.7-0.2-2-0.2-4v-9.3h-2.6v-4.5h2.6v-4.2l5.6-3.3v7.5H734.8z"/>
		<path class="st12" d="M742.9,772.2l-5.1-0.9c0.6-2.1,1.6-3.6,3-4.6c1.4-1,3.5-1.5,6.2-1.5c2.5,0,4.4,0.3,5.6,0.9
			c1.2,0.6,2.1,1.3,2.6,2.3c0.5,0.9,0.8,2.6,0.8,5l-0.1,6.6c0,1.9,0.1,3.2,0.3,4.1c0.2,0.9,0.5,1.8,1,2.9h-5.6
			c-0.1-0.4-0.3-0.9-0.5-1.7c-0.1-0.3-0.2-0.6-0.2-0.7c-1,0.9-2,1.6-3.1,2.1c-1.1,0.5-2.3,0.7-3.5,0.7c-2.2,0-3.9-0.6-5.2-1.8
			c-1.3-1.2-1.9-2.7-1.9-4.5c0-1.2,0.3-2.3,0.9-3.2c0.6-0.9,1.4-1.7,2.4-2.2c1-0.5,2.5-0.9,4.5-1.3c2.6-0.5,4.5-1,5.5-1.4v-0.6
			c0-1.1-0.3-1.9-0.8-2.3c-0.5-0.5-1.5-0.7-3-0.7c-1,0-1.8,0.2-2.3,0.6C743.7,770.5,743.3,771.2,742.9,772.2z M750.4,776.8
			c-0.7,0.2-1.9,0.5-3.4,0.9c-1.6,0.3-2.6,0.7-3.1,1c-0.7,0.5-1.1,1.2-1.1,2c0,0.8,0.3,1.5,0.9,2c0.6,0.6,1.3,0.9,2.2,0.9
			c1,0,2-0.3,2.9-1c0.7-0.5,1.1-1.1,1.3-1.9c0.1-0.5,0.2-1.4,0.2-2.7V776.8z"/>
		<path class="st12" d="M761.5,787v-29.3h5.6V787H761.5z"/>
	</g>
	<g class="st8">
		<path class="st12" d="M530,869.7l3.5,0.9c-0.7,2.9-2.1,5.1-4,6.6c-1.9,1.5-4.2,2.3-7,2.3c-2.9,0-5.2-0.6-7-1.7
			c-1.8-1.2-3.1-2.8-4.1-5c-0.9-2.2-1.4-4.6-1.4-7.1c0-2.8,0.5-5.2,1.6-7.2c1.1-2.1,2.6-3.6,4.5-4.7c1.9-1.1,4.1-1.6,6.4-1.6
			c2.6,0,4.9,0.7,6.7,2c1.8,1.3,3.1,3.2,3.8,5.7l-3.5,0.8c-0.6-1.9-1.5-3.3-2.7-4.2c-1.2-0.9-2.6-1.3-4.4-1.3c-2,0-3.7,0.5-5.1,1.5
			c-1.4,1-2.3,2.3-2.9,3.9c-0.6,1.6-0.8,3.3-0.8,5.1c0,2.3,0.3,4.2,1,5.9c0.7,1.7,1.7,2.9,3.1,3.8c1.4,0.8,2.9,1.2,4.5,1.2
			c2,0,3.6-0.6,5-1.7C528.6,873.6,529.5,871.9,530,869.7z"/>
		<path class="st12" d="M536.2,869.4c0-3.6,1-6.2,3-7.9c1.6-1.4,3.7-2.1,6-2.1c2.6,0,4.8,0.9,6.5,2.6c1.7,1.7,2.5,4.1,2.5,7.2
			c0,2.5-0.4,4.4-1.1,5.8c-0.7,1.4-1.8,2.5-3.2,3.3c-1.4,0.8-3,1.2-4.6,1.2c-2.7,0-4.9-0.9-6.5-2.6
			C537,875.1,536.2,872.6,536.2,869.4z M539.5,869.4c0,2.5,0.5,4.3,1.6,5.5c1.1,1.2,2.4,1.8,4,1.8c1.6,0,3-0.6,4-1.8
			c1.1-1.2,1.6-3.1,1.6-5.6c0-2.4-0.5-4.2-1.6-5.4c-1.1-1.2-2.4-1.8-4-1.8c-1.6,0-3,0.6-4,1.8C540.1,865.1,539.5,866.9,539.5,869.4z
			"/>
		<path class="st12" d="M558,879v-19.2h2.9v2.7c0.6-0.9,1.4-1.7,2.4-2.3c1-0.6,2.1-0.9,3.4-0.9c1.4,0,2.6,0.3,3.5,0.9
			c0.9,0.6,1.6,1.4,1.9,2.5c1.5-2.2,3.5-3.4,5.9-3.4c1.9,0,3.4,0.5,4.4,1.6c1,1.1,1.5,2.7,1.5,4.9V879h-3.2v-12.1
			c0-1.3-0.1-2.2-0.3-2.8c-0.2-0.6-0.6-1-1.1-1.4c-0.6-0.3-1.2-0.5-2-0.5c-1.3,0-2.5,0.4-3.4,1.3c-0.9,0.9-1.3,2.3-1.3,4.3V879h-3.3
			v-12.5c0-1.4-0.3-2.5-0.8-3.3c-0.5-0.7-1.4-1.1-2.6-1.1c-0.9,0-1.8,0.2-2.5,0.7c-0.8,0.5-1.3,1.2-1.7,2.1c-0.3,0.9-0.5,2.3-0.5,4
			v10H558z"/>
		<path class="st12" d="M588.8,886.4v-26.5h3v2.5c0.7-1,1.5-1.7,2.4-2.2c0.9-0.5,1.9-0.7,3.2-0.7c1.6,0,3.1,0.4,4.3,1.3
			c1.3,0.8,2.2,2,2.8,3.6c0.6,1.5,1,3.2,1,5c0,2-0.4,3.7-1.1,5.3c-0.7,1.6-1.7,2.8-3.1,3.6c-1.3,0.8-2.8,1.3-4.2,1.3
			c-1.1,0-2.1-0.2-2.9-0.7c-0.9-0.5-1.6-1-2.1-1.7v9.3H588.8z M591.8,869.5c0,2.5,0.5,4.3,1.5,5.5c1,1.2,2.2,1.8,3.6,1.8
			c1.4,0,2.7-0.6,3.7-1.8c1-1.2,1.5-3.1,1.5-5.7c0-2.4-0.5-4.3-1.5-5.5c-1-1.2-2.2-1.8-3.6-1.8c-1.4,0-2.6,0.6-3.7,1.9
			C592.3,865.2,591.8,867,591.8,869.5z"/>
		<path class="st12" d="M621.9,876.6c-1.2,1-2.4,1.7-3.5,2.2c-1.1,0.4-2.3,0.6-3.6,0.6c-2.1,0-3.7-0.5-4.9-1.5
			c-1.1-1-1.7-2.3-1.7-3.9c0-0.9,0.2-1.8,0.6-2.6c0.4-0.8,1-1.4,1.7-1.9c0.7-0.5,1.5-0.8,2.3-1.1c0.6-0.2,1.6-0.3,2.9-0.5
			c2.6-0.3,4.6-0.7,5.8-1.1c0-0.4,0-0.7,0-0.8c0-1.3-0.3-2.3-0.9-2.8c-0.8-0.7-2.1-1.1-3.7-1.1c-1.5,0-2.7,0.3-3.4,0.8
			c-0.7,0.5-1.3,1.5-1.6,2.8l-3.2-0.4c0.3-1.4,0.8-2.5,1.4-3.3c0.7-0.8,1.6-1.5,2.9-1.9c1.3-0.5,2.7-0.7,4.4-0.7c1.6,0,3,0.2,4,0.6
			c1,0.4,1.8,0.9,2.3,1.5c0.5,0.6,0.8,1.3,1,2.2c0.1,0.6,0.2,1.6,0.2,3v4.3c0,3,0.1,4.9,0.2,5.7c0.1,0.8,0.4,1.6,0.8,2.3h-3.4
			C622.2,878.3,622,877.5,621.9,876.6z M621.6,869.4c-1.2,0.5-3,0.9-5.3,1.2c-1.3,0.2-2.3,0.4-2.8,0.7c-0.6,0.2-1,0.6-1.3,1.1
			c-0.3,0.5-0.5,1-0.5,1.5c0,0.9,0.3,1.6,1,2.2c0.7,0.6,1.6,0.9,2.9,0.9c1.3,0,2.4-0.3,3.3-0.8s1.7-1.3,2.1-2.2
			c0.3-0.7,0.5-1.8,0.5-3.3V869.4z"/>
		<path class="st12" d="M629.9,879v-19.2h2.9v2.9c0.7-1.4,1.4-2.3,2.1-2.7c0.6-0.4,1.3-0.7,2.1-0.7c1.1,0,2.2,0.3,3.3,1l-1.1,3
			c-0.8-0.5-1.6-0.7-2.4-0.7c-0.7,0-1.3,0.2-1.9,0.6c-0.6,0.4-1,1-1.2,1.8c-0.4,1.2-0.5,2.4-0.5,3.8v10H629.9z"/>
		<path class="st12" d="M655.4,872.8l3.4,0.4c-0.5,2-1.5,3.5-2.9,4.6c-1.4,1.1-3.3,1.6-5.5,1.6c-2.8,0-5-0.9-6.7-2.6
			c-1.6-1.7-2.5-4.2-2.5-7.3c0-3.2,0.8-5.7,2.5-7.5s3.8-2.7,6.5-2.7c2.6,0,4.7,0.9,6.3,2.6c1.6,1.7,2.4,4.2,2.4,7.4
			c0,0.2,0,0.5,0,0.9h-14.3c0.1,2.1,0.7,3.7,1.8,4.8c1.1,1.1,2.4,1.7,4,1.7c1.2,0,2.2-0.3,3.1-0.9
			C654.3,875.2,654.9,874.2,655.4,872.8z M644.8,867.6h10.7c-0.1-1.6-0.6-2.8-1.2-3.6c-1-1.3-2.4-1.9-4-1.9c-1.5,0-2.7,0.5-3.8,1.5
			C645.4,864.6,644.9,865.9,644.8,867.6z"/>
		<path class="st12" d="M675.3,879v-2.4c-1.2,1.9-3,2.9-5.4,2.9c-1.5,0-2.9-0.4-4.2-1.3c-1.3-0.8-2.3-2-3-3.5
			c-0.7-1.5-1.1-3.2-1.1-5.2c0-1.9,0.3-3.7,1-5.2c0.6-1.6,1.6-2.8,2.9-3.6c1.3-0.8,2.7-1.2,4.3-1.2c1.2,0,2.2,0.2,3.1,0.7
			c0.9,0.5,1.6,1.1,2.2,1.9v-9.5h3.2V879H675.3z M665,869.4c0,2.5,0.5,4.3,1.6,5.5c1,1.2,2.3,1.8,3.7,1.8c1.4,0,2.6-0.6,3.6-1.7
			c1-1.2,1.5-2.9,1.5-5.3c0-2.6-0.5-4.6-1.5-5.8s-2.3-1.8-3.7-1.8c-1.4,0-2.7,0.6-3.6,1.8C665.5,865,665,866.9,665,869.4z"/>
		<path class="st12" d="M700.8,876.1l0.5,2.9c-0.9,0.2-1.7,0.3-2.5,0.3c-1.2,0-2.1-0.2-2.7-0.6c-0.7-0.4-1.1-0.9-1.4-1.5
			c-0.3-0.6-0.4-1.9-0.4-3.8v-11h-2.4v-2.5h2.4v-4.8l3.2-2v6.7h3.3v2.5h-3.3v11.2c0,0.9,0.1,1.5,0.2,1.8c0.1,0.3,0.3,0.5,0.6,0.6
			c0.3,0.2,0.6,0.2,1.1,0.2C699.8,876.2,700.2,876.2,700.8,876.1z"/>
		<path class="st12" d="M702.8,869.4c0-3.6,1-6.2,3-7.9c1.6-1.4,3.7-2.1,6-2.1c2.6,0,4.8,0.9,6.5,2.6c1.7,1.7,2.5,4.1,2.5,7.2
			c0,2.5-0.4,4.4-1.1,5.8c-0.7,1.4-1.8,2.5-3.2,3.3c-1.4,0.8-3,1.2-4.6,1.2c-2.7,0-4.9-0.9-6.5-2.6
			C703.6,875.1,702.8,872.6,702.8,869.4z M706.1,869.4c0,2.5,0.5,4.3,1.6,5.5c1.1,1.2,2.4,1.8,4,1.8c1.6,0,3-0.6,4-1.8
			c1.1-1.2,1.6-3.1,1.6-5.6c0-2.4-0.5-4.2-1.6-5.4c-1.1-1.2-2.4-1.8-4-1.8c-1.6,0-3,0.6-4,1.8C706.7,865.1,706.1,866.9,706.1,869.4z
			"/>
		<path class="st12" d="M742,876.1l0.5,2.9c-0.9,0.2-1.7,0.3-2.5,0.3c-1.2,0-2.1-0.2-2.7-0.6c-0.7-0.4-1.1-0.9-1.4-1.5
			c-0.3-0.6-0.4-1.9-0.4-3.8v-11h-2.4v-2.5h2.4v-4.8l3.2-2v6.7h3.3v2.5h-3.3v11.2c0,0.9,0.1,1.5,0.2,1.8c0.1,0.3,0.3,0.5,0.6,0.6
			c0.3,0.2,0.6,0.2,1.1,0.2C740.9,876.2,741.4,876.2,742,876.1z"/>
		<path class="st12" d="M745.1,879v-26.5h3.3v9.5c1.5-1.8,3.4-2.6,5.7-2.6c1.4,0,2.7,0.3,3.7,0.8c1,0.6,1.8,1.3,2.2,2.3
			c0.5,1,0.7,2.4,0.7,4.3V879h-3.3v-12.2c0-1.6-0.4-2.8-1.1-3.6c-0.7-0.7-1.7-1.1-3-1.1c-1,0-1.9,0.3-2.7,0.8
			c-0.8,0.5-1.5,1.2-1.8,2c-0.4,0.9-0.5,2-0.5,3.5V879H745.1z"/>
		<path class="st12" d="M778.9,872.8l3.4,0.4c-0.5,2-1.5,3.5-2.9,4.6c-1.4,1.1-3.3,1.6-5.5,1.6c-2.8,0-5-0.9-6.7-2.6
			c-1.6-1.7-2.5-4.2-2.5-7.3c0-3.2,0.8-5.7,2.5-7.5s3.8-2.7,6.5-2.7c2.6,0,4.7,0.9,6.3,2.6c1.6,1.7,2.4,4.2,2.4,7.4
			c0,0.2,0,0.5,0,0.9H768c0.1,2.1,0.7,3.7,1.8,4.8c1.1,1.1,2.4,1.7,4,1.7c1.2,0,2.2-0.3,3.1-0.9
			C777.7,875.2,778.4,874.2,778.9,872.8z M768.2,867.6h10.7c-0.1-1.6-0.6-2.8-1.2-3.6c-1-1.3-2.4-1.9-4-1.9c-1.5,0-2.7,0.5-3.8,1.5
			C768.9,864.6,768.3,865.9,768.2,867.6z"/>
	</g>
	<g class="st8">
		<path class="st12" d="M529.9,930.4v-26.5h3v2.5c0.7-1,1.5-1.7,2.4-2.2c0.9-0.5,1.9-0.7,3.2-0.7c1.6,0,3.1,0.4,4.3,1.3
			c1.3,0.8,2.2,2,2.8,3.6c0.6,1.5,1,3.2,1,5c0,2-0.4,3.7-1.1,5.3c-0.7,1.6-1.7,2.8-3.1,3.6c-1.3,0.8-2.8,1.3-4.2,1.3
			c-1.1,0-2.1-0.2-2.9-0.7c-0.9-0.5-1.6-1-2.1-1.7v9.3H529.9z M532.8,913.5c0,2.5,0.5,4.3,1.5,5.5c1,1.2,2.2,1.8,3.6,1.8
			c1.4,0,2.7-0.6,3.7-1.8c1-1.2,1.5-3.1,1.5-5.7c0-2.4-0.5-4.3-1.5-5.5c-1-1.2-2.2-1.8-3.6-1.8c-1.4,0-2.6,0.6-3.7,1.9
			C533.4,909.2,532.8,911,532.8,913.5z"/>
		<path class="st12" d="M550.4,923v-19.2h2.9v2.9c0.7-1.4,1.4-2.3,2.1-2.7c0.6-0.4,1.3-0.7,2.1-0.7c1.1,0,2.2,0.3,3.3,1l-1.1,3
			c-0.8-0.5-1.6-0.7-2.4-0.7c-0.7,0-1.3,0.2-1.9,0.6c-0.6,0.4-1,1-1.2,1.8c-0.4,1.2-0.5,2.4-0.5,3.8v10H550.4z"/>
		<path class="st12" d="M575.9,916.8l3.4,0.4c-0.5,2-1.5,3.5-2.9,4.6c-1.4,1.1-3.3,1.6-5.5,1.6c-2.8,0-5-0.9-6.7-2.6
			c-1.6-1.7-2.5-4.2-2.5-7.3c0-3.2,0.8-5.7,2.5-7.5s3.8-2.7,6.5-2.7c2.6,0,4.7,0.9,6.3,2.6c1.6,1.7,2.4,4.2,2.4,7.4
			c0,0.2,0,0.5,0,0.9h-14.3c0.1,2.1,0.7,3.7,1.8,4.8c1.1,1.1,2.4,1.7,4,1.7c1.2,0,2.2-0.3,3.1-0.9
			C574.8,919.2,575.4,918.2,575.9,916.8z M565.3,911.6H576c-0.1-1.6-0.6-2.8-1.2-3.6c-1-1.3-2.4-1.9-4-1.9c-1.5,0-2.7,0.5-3.8,1.5
			C565.9,908.6,565.4,909.9,565.3,911.6z"/>
		<path class="st12" d="M588.7,923l-7.3-19.2h3.4l4.1,11.5c0.4,1.2,0.9,2.5,1.2,3.9c0.3-1,0.7-2.2,1.2-3.6l4.3-11.7h3.3l-7.3,19.2
			H588.7z"/>
		<path class="st12" d="M601.9,900.3v-3.7h3.3v3.7H601.9z M601.9,923v-19.2h3.3V923H601.9z"/>
		<path class="st12" d="M608.9,913.4c0-3.6,1-6.2,3-7.9c1.6-1.4,3.7-2.1,6-2.1c2.6,0,4.8,0.9,6.5,2.6c1.7,1.7,2.5,4.1,2.5,7.2
			c0,2.5-0.4,4.4-1.1,5.8c-0.7,1.4-1.8,2.5-3.2,3.3c-1.4,0.8-3,1.2-4.6,1.2c-2.7,0-4.9-0.9-6.5-2.6
			C609.7,919.1,608.9,916.6,608.9,913.4z M612.2,913.4c0,2.5,0.5,4.3,1.6,5.5c1.1,1.2,2.4,1.8,4,1.8c1.6,0,3-0.6,4-1.8
			c1.1-1.2,1.6-3.1,1.6-5.6c0-2.4-0.5-4.2-1.6-5.4c-1.1-1.2-2.4-1.8-4-1.8c-1.6,0-3,0.6-4,1.8C612.8,909.1,612.2,910.9,612.2,913.4z
			"/>
		<path class="st12" d="M643.3,923v-2.8c-1.5,2.2-3.5,3.3-6.1,3.3c-1.1,0-2.2-0.2-3.2-0.7c-1-0.4-1.7-1-2.2-1.6
			c-0.5-0.7-0.8-1.5-1-2.4c-0.1-0.6-0.2-1.7-0.2-3v-11.9h3.3v10.6c0,1.7,0.1,2.8,0.2,3.4c0.2,0.9,0.6,1.5,1.3,2
			c0.7,0.5,1.5,0.7,2.5,0.7s1.9-0.2,2.7-0.7c0.9-0.5,1.5-1.2,1.8-2c0.4-0.9,0.5-2.1,0.5-3.7v-10.3h3.3V923H643.3z"/>
		<path class="st12" d="M650,917.3l3.2-0.5c0.2,1.3,0.7,2.3,1.5,3c0.8,0.7,2,1,3.5,1c1.5,0,2.6-0.3,3.3-0.9s1.1-1.3,1.1-2.1
			c0-0.7-0.3-1.3-1-1.7c-0.4-0.3-1.6-0.7-3.3-1.1c-2.4-0.6-4-1.1-5-1.6c-0.9-0.4-1.6-1-2.1-1.8c-0.5-0.8-0.7-1.6-0.7-2.6
			c0-0.9,0.2-1.6,0.6-2.4c0.4-0.7,0.9-1.3,1.6-1.8c0.5-0.4,1.2-0.7,2.1-0.9c0.9-0.3,1.8-0.4,2.8-0.4c1.5,0,2.8,0.2,4,0.7
			c1.1,0.4,2,1,2.5,1.8c0.5,0.7,0.9,1.7,1.1,3l-3.2,0.4c-0.1-1-0.6-1.8-1.3-2.3c-0.7-0.6-1.7-0.8-2.9-0.8c-1.5,0-2.6,0.2-3.2,0.7
			c-0.6,0.5-1,1.1-1,1.7c0,0.4,0.1,0.8,0.4,1.1c0.3,0.3,0.7,0.6,1.2,0.9c0.3,0.1,1.3,0.4,2.9,0.8c2.3,0.6,3.9,1.1,4.8,1.5
			c0.9,0.4,1.6,1,2.1,1.7c0.5,0.7,0.8,1.7,0.8,2.8c0,1.1-0.3,2.1-0.9,3.1c-0.6,1-1.5,1.7-2.7,2.2c-1.2,0.5-2.5,0.8-4,0.8
			c-2.5,0-4.4-0.5-5.7-1.6C651.1,920.8,650.3,919.3,650,917.3z"/>
		<path class="st12" d="M683.6,923l-5.9-19.2h3.4l3.1,11.1l1.1,4.1c0-0.2,0.4-1.5,1-4l3.1-11.2h3.3l2.9,11.1l1,3.7l1.1-3.7l3.3-11.1
			h3.2l-6,19.2h-3.4l-3.1-11.5l-0.7-3.3L687,923H683.6z"/>
		<path class="st12" d="M719.9,916.8l3.4,0.4c-0.5,2-1.5,3.5-2.9,4.6c-1.4,1.1-3.3,1.6-5.5,1.6c-2.8,0-5-0.9-6.7-2.6
			c-1.6-1.7-2.5-4.2-2.5-7.3c0-3.2,0.8-5.7,2.5-7.5s3.8-2.7,6.5-2.7c2.6,0,4.7,0.9,6.3,2.6c1.6,1.7,2.4,4.2,2.4,7.4
			c0,0.2,0,0.5,0,0.9H709c0.1,2.1,0.7,3.7,1.8,4.8c1.1,1.1,2.4,1.7,4,1.7c1.2,0,2.2-0.3,3.1-0.9
			C718.7,919.2,719.4,918.2,719.9,916.8z M709.2,911.6h10.7c-0.1-1.6-0.6-2.8-1.2-3.6c-1-1.3-2.4-1.9-4-1.9c-1.5,0-2.7,0.5-3.8,1.5
			C709.9,908.6,709.3,909.9,709.2,911.6z"/>
		<path class="st12" d="M740.5,916.8l3.4,0.4c-0.5,2-1.5,3.5-2.9,4.6c-1.4,1.1-3.3,1.6-5.5,1.6c-2.8,0-5-0.9-6.7-2.6
			c-1.6-1.7-2.5-4.2-2.5-7.3c0-3.2,0.8-5.7,2.5-7.5s3.8-2.7,6.5-2.7c2.6,0,4.7,0.9,6.3,2.6c1.6,1.7,2.4,4.2,2.4,7.4
			c0,0.2,0,0.5,0,0.9h-14.3c0.1,2.1,0.7,3.7,1.8,4.8c1.1,1.1,2.4,1.7,4,1.7c1.2,0,2.2-0.3,3.1-0.9
			C739.3,919.2,740,918.2,740.5,916.8z M729.8,911.6h10.7c-0.1-1.6-0.6-2.8-1.2-3.6c-1-1.3-2.4-1.9-4-1.9c-1.5,0-2.7,0.5-3.8,1.5
			C730.5,908.6,729.9,909.9,729.8,911.6z"/>
		<path class="st12" d="M747.9,923v-26.5h3.3v15.1l7.7-7.8h4.2l-7.3,7.1l8.1,12.1h-4l-6.3-9.8l-2.3,2.2v7.6H747.9z"/>
	</g>
	<path class="st7" d="M1345.5,852.5v69.3"/>
	<path class="st7" d="M1835.5,852.5v69.3"/>
	<path class="st7" d="M2325.5,852.5v69.3"/>
	<path class="st13" d="M438,985.2c0-8.9,7.2-16.2,16.2-16.2h2344.7c8.9,0,16.2,7.2,16.2,16.2v64.7c0,8.9-7.2,16.2-16.2,16.2H454.2
		c-8.9,0-16.2-7.2-16.2-16.2V985.2z"/>
	<g class="st8">
		<path class="st11" d="M564.9,1019.2l5.7,1.8c-0.9,3.2-2.3,5.6-4.4,7.1c-2,1.6-4.6,2.3-7.8,2.3c-3.9,0-7.1-1.3-9.6-4
			c-2.5-2.7-3.8-6.3-3.8-10.9c0-4.9,1.3-8.7,3.8-11.4c2.5-2.7,5.8-4.1,9.9-4.1c3.6,0,6.5,1.1,8.7,3.2c1.3,1.3,2.3,3.1,3,5.4
			l-5.9,1.4c-0.3-1.5-1.1-2.7-2.2-3.6c-1.1-0.9-2.4-1.3-4-1.3c-2.2,0-3.9,0.8-5.3,2.3c-1.4,1.6-2,4.1-2,7.6c0,3.7,0.7,6.4,2,7.9
			c1.3,1.6,3.1,2.4,5.2,2.4c1.6,0,2.9-0.5,4.1-1.5C563.6,1022.9,564.4,1021.4,564.9,1019.2z"/>
		<path class="st11" d="M589.7,1030v-3.2c-0.8,1.1-1.8,2-3.1,2.7c-1.3,0.7-2.6,1-4,1c-1.4,0-2.7-0.3-3.8-0.9c-1.1-0.6-2-1.5-2.5-2.6
			c-0.5-1.1-0.8-2.7-0.8-4.7v-13.5h5.6v9.8c0,3,0.1,4.8,0.3,5.5c0.2,0.7,0.6,1.2,1.1,1.6c0.5,0.4,1.2,0.6,2.1,0.6
			c1,0,1.8-0.3,2.6-0.8c0.8-0.5,1.3-1.2,1.6-2c0.3-0.8,0.4-2.7,0.4-5.7v-9h5.6v21.3H589.7z"/>
		<path class="st11" d="M600.4,1008.7h5.2v2.9c1.9-2.3,4.1-3.4,6.6-3.4c1.4,0,2.5,0.3,3.5,0.8s1.8,1.4,2.5,2.5c0.9-1.1,1.9-2,3-2.5
			s2.2-0.8,3.5-0.8c1.6,0,2.9,0.3,4,1s1.9,1.6,2.4,2.8c0.4,0.9,0.6,2.4,0.6,4.4v13.6H626v-12.2c0-2.1-0.2-3.5-0.6-4.1
			c-0.5-0.8-1.3-1.2-2.4-1.2c-0.8,0-1.5,0.2-2.2,0.7c-0.7,0.5-1.2,1.2-1.5,2.1c-0.3,0.9-0.5,2.4-0.5,4.4v10.2h-5.6v-11.7
			c0-2.1-0.1-3.4-0.3-4s-0.5-1-0.9-1.3c-0.4-0.3-1-0.4-1.7-0.4c-0.9,0-1.6,0.2-2.3,0.7c-0.7,0.5-1.2,1.1-1.5,2
			c-0.3,0.9-0.5,2.3-0.5,4.4v10.3h-5.6V1008.7z"/>
		<path class="st11" d="M651.2,1030v-3.2c-0.8,1.1-1.8,2-3.1,2.7c-1.3,0.7-2.6,1-4,1c-1.4,0-2.7-0.3-3.8-0.9c-1.1-0.6-2-1.5-2.5-2.6
			c-0.5-1.1-0.8-2.7-0.8-4.7v-13.5h5.6v9.8c0,3,0.1,4.8,0.3,5.5c0.2,0.7,0.6,1.2,1.1,1.6c0.5,0.4,1.2,0.6,2.1,0.6
			c1,0,1.8-0.3,2.6-0.8c0.8-0.5,1.3-1.2,1.6-2c0.3-0.8,0.4-2.7,0.4-5.7v-9h5.6v21.3H651.2z"/>
		<path class="st11" d="M662.3,1030v-29.3h5.6v29.3H662.3z"/>
		<path class="st11" d="M677.9,1015.2l-5.1-0.9c0.6-2.1,1.6-3.6,3-4.6c1.4-1,3.5-1.5,6.2-1.5c2.5,0,4.4,0.3,5.6,0.9
			c1.2,0.6,2.1,1.3,2.6,2.3c0.5,0.9,0.8,2.6,0.8,5l-0.1,6.6c0,1.9,0.1,3.2,0.3,4.1c0.2,0.9,0.5,1.8,1,2.9h-5.6
			c-0.1-0.4-0.3-0.9-0.5-1.7c-0.1-0.3-0.2-0.6-0.2-0.7c-1,0.9-2,1.6-3.1,2.1c-1.1,0.5-2.3,0.7-3.5,0.7c-2.2,0-3.9-0.6-5.2-1.8
			c-1.3-1.2-1.9-2.7-1.9-4.5c0-1.2,0.3-2.3,0.9-3.2c0.6-0.9,1.4-1.7,2.4-2.2c1-0.5,2.5-0.9,4.5-1.3c2.6-0.5,4.5-1,5.5-1.4v-0.6
			c0-1.1-0.3-1.9-0.8-2.3c-0.5-0.5-1.5-0.7-3-0.7c-1,0-1.8,0.2-2.3,0.6C678.7,1013.5,678.2,1014.2,677.9,1015.2z M685.4,1019.8
			c-0.7,0.2-1.9,0.5-3.4,0.9c-1.6,0.3-2.6,0.7-3.1,1c-0.7,0.5-1.1,1.2-1.1,2c0,0.8,0.3,1.5,0.9,2c0.6,0.6,1.3,0.9,2.2,0.9
			c1,0,2-0.3,2.9-1c0.7-0.5,1.1-1.1,1.3-1.9c0.1-0.5,0.2-1.4,0.2-2.7V1019.8z"/>
		<path class="st11" d="M706.2,1008.7v4.5h-3.8v8.6c0,1.7,0,2.7,0.1,3c0.1,0.3,0.2,0.5,0.5,0.7c0.3,0.2,0.6,0.3,1,0.3
			c0.5,0,1.3-0.2,2.3-0.5l0.5,4.4c-1.3,0.6-2.8,0.8-4.4,0.8c-1,0-1.9-0.2-2.7-0.5c-0.8-0.3-1.4-0.8-1.8-1.3
			c-0.4-0.5-0.6-1.3-0.8-2.2c-0.1-0.7-0.2-2-0.2-4v-9.3h-2.6v-4.5h2.6v-4.2l5.6-3.3v7.5H706.2z"/>
		<path class="st11" d="M710.1,1005.9v-5.2h5.6v5.2H710.1z M710.1,1030v-21.3h5.6v21.3H710.1z"/>
		<path class="st11" d="M727.4,1030l-8.6-21.3h5.9l4,10.9l1.2,3.6c0.3-0.9,0.5-1.5,0.6-1.8c0.2-0.6,0.4-1.2,0.6-1.8l4-10.9h5.8
			l-8.4,21.3H727.4z"/>
		<path class="st11" d="M756.6,1023.2l5.6,0.9c-0.7,2.1-1.9,3.6-3.4,4.7c-1.6,1.1-3.5,1.6-5.8,1.6c-3.7,0-6.4-1.2-8.2-3.6
			c-1.4-1.9-2.1-4.4-2.1-7.3c0-3.5,0.9-6.3,2.8-8.3s4.2-3,7-3c3.2,0,5.7,1,7.5,3.1c1.8,2.1,2.7,5.3,2.6,9.6h-14.1
			c0,1.7,0.5,3,1.4,3.9c0.9,0.9,1.9,1.4,3.2,1.4c0.9,0,1.6-0.2,2.2-0.7S756.3,1024.3,756.6,1023.2z M757,1017.5
			c0-1.6-0.5-2.9-1.3-3.7c-0.8-0.8-1.8-1.3-2.9-1.3c-1.2,0-2.2,0.4-3,1.3c-0.8,0.9-1.2,2.1-1.2,3.6H757z"/>
	</g>
	<path class="st7" d="M1835.5,979.5v69.3"/>
	<g class="st8">
		<path class="st11" d="M1461.6,1030v-29.3h3.9v29.3H1461.6z"/>
		<path class="st11" d="M1471.9,1030v-21.3h3.2v3c1.6-2.3,3.8-3.5,6.8-3.5c1.3,0,2.5,0.2,3.5,0.7c1.1,0.5,1.9,1.1,2.4,1.8
			c0.5,0.7,0.9,1.6,1.1,2.7c0.1,0.7,0.2,1.8,0.2,3.5v13.1h-3.6v-12.9c0-1.5-0.1-2.6-0.4-3.3s-0.8-1.3-1.5-1.7
			c-0.7-0.4-1.6-0.7-2.5-0.7c-1.5,0-2.9,0.5-4,1.5c-1.1,1-1.7,2.8-1.7,5.5v11.6H1471.9z"/>
		<path class="st11" d="M1495.6,1030v-18.5h-3.2v-2.8h3.2v-2.3c0-1.4,0.1-2.5,0.4-3.2c0.3-0.9,1-1.7,1.8-2.3
			c0.9-0.6,2.1-0.9,3.7-0.9c1,0,2.1,0.1,3.4,0.4l-0.5,3.1c-0.7-0.1-1.5-0.2-2.1-0.2c-1.1,0-1.9,0.2-2.3,0.7
			c-0.5,0.5-0.7,1.3-0.7,2.6v2h4.1v2.8h-4.1v18.5H1495.6z"/>
		<path class="st11" d="M1520.7,1023.2l3.7,0.5c-0.6,2.2-1.7,3.9-3.3,5.1c-1.6,1.2-3.6,1.8-6.1,1.8c-3.1,0-5.6-1-7.4-2.9
			c-1.8-1.9-2.7-4.6-2.7-8.1c0-3.6,0.9-6.4,2.8-8.3c1.8-2,4.2-3,7.2-3c2.8,0,5.2,1,7,2.9c1.8,1.9,2.7,4.7,2.7,8.2c0,0.2,0,0.5,0,1
			h-15.9c0.1,2.3,0.8,4.1,2,5.4c1.2,1.2,2.7,1.9,4.4,1.9c1.3,0,2.4-0.3,3.4-1C1519.4,1025.8,1520.1,1024.7,1520.7,1023.2z
			 M1508.8,1017.3h11.9c-0.2-1.8-0.6-3.1-1.4-4c-1.1-1.4-2.6-2.1-4.5-2.1c-1.7,0-3,0.6-4.2,1.7
			C1509.6,1014,1508.9,1015.5,1508.8,1017.3z"/>
		<path class="st11" d="M1542.8,1022.2l3.5,0.5c-0.4,2.4-1.4,4.4-3,5.7c-1.6,1.4-3.6,2.1-5.9,2.1c-2.9,0-5.2-1-7-2.9
			c-1.8-1.9-2.7-4.6-2.7-8.2c0-2.3,0.4-4.3,1.1-6s1.9-3,3.5-3.9c1.6-0.9,3.2-1.3,5.1-1.3c2.3,0,4.2,0.6,5.7,1.8
			c1.5,1.2,2.4,2.8,2.8,5l-3.5,0.5c-0.3-1.4-0.9-2.5-1.8-3.2s-1.9-1.1-3.1-1.1c-1.8,0-3.3,0.7-4.4,2c-1.1,1.3-1.7,3.4-1.7,6.2
			c0,2.9,0.5,4.9,1.6,6.2c1.1,1.3,2.5,1.9,4.3,1.9c1.4,0,2.6-0.4,3.5-1.3C1541.9,1025.3,1542.5,1024,1542.8,1022.2z"/>
		<path class="st11" d="M1557.3,1026.8l0.5,3.2c-1,0.2-1.9,0.3-2.7,0.3c-1.3,0-2.3-0.2-3-0.6c-0.7-0.4-1.2-1-1.5-1.6
			c-0.3-0.7-0.4-2.1-0.4-4.3v-12.2h-2.6v-2.8h2.6v-5.3l3.6-2.2v7.4h3.6v2.8h-3.6v12.4c0,1,0.1,1.7,0.2,2c0.1,0.3,0.3,0.5,0.6,0.7
			c0.3,0.2,0.7,0.3,1.2,0.3C1556.1,1026.9,1556.6,1026.9,1557.3,1026.8z"/>
		<path class="st11" d="M1575.3,1023.2l3.7,0.5c-0.6,2.2-1.7,3.9-3.3,5.1c-1.6,1.2-3.6,1.8-6.1,1.8c-3.1,0-5.6-1-7.4-2.9
			c-1.8-1.9-2.7-4.6-2.7-8.1c0-3.6,0.9-6.4,2.8-8.3c1.8-2,4.2-3,7.2-3c2.8,0,5.2,1,7,2.9c1.8,1.9,2.7,4.7,2.7,8.2c0,0.2,0,0.5,0,1
			h-15.9c0.1,2.3,0.8,4.1,2,5.4c1.2,1.2,2.7,1.9,4.4,1.9c1.3,0,2.4-0.3,3.4-1C1574.1,1025.8,1574.8,1024.7,1575.3,1023.2z
			 M1563.5,1017.3h11.9c-0.2-1.8-0.6-3.1-1.4-4c-1.1-1.4-2.6-2.1-4.5-2.1c-1.7,0-3,0.6-4.2,1.7
			C1564.3,1014,1563.6,1015.5,1563.5,1017.3z"/>
		<path class="st11" d="M1597.4,1030v-2.7c-1.3,2.1-3.3,3.2-5.9,3.2c-1.7,0-3.3-0.5-4.7-1.4c-1.4-0.9-2.5-2.2-3.3-3.9
			c-0.8-1.7-1.2-3.6-1.2-5.8c0-2.1,0.4-4,1.1-5.8c0.7-1.7,1.8-3.1,3.2-4c1.4-0.9,3-1.4,4.7-1.4c1.3,0,2.4,0.3,3.4,0.8
			c1,0.5,1.8,1.2,2.4,2.1v-10.5h3.6v29.3H1597.4z M1586,1019.4c0,2.7,0.6,4.8,1.7,6.1c1.1,1.3,2.5,2,4.1,2c1.6,0,2.9-0.6,4-1.9
			c1.1-1.3,1.7-3.3,1.7-5.9c0-2.9-0.6-5-1.7-6.4s-2.5-2-4.1-2c-1.6,0-2.9,0.7-4,2C1586.5,1014.5,1586,1016.6,1586,1019.4z"/>
	</g>
	<g class="st8">
		<path class="st11" d="M2450.3,1030v-2.7c-1.3,2.1-3.3,3.2-5.9,3.2c-1.7,0-3.3-0.5-4.7-1.4c-1.4-0.9-2.5-2.2-3.3-3.9
			c-0.8-1.7-1.2-3.6-1.2-5.8c0-2.1,0.4-4,1.1-5.8s1.8-3.1,3.2-4c1.4-0.9,3-1.4,4.7-1.4c1.3,0,2.4,0.3,3.4,0.8c1,0.5,1.8,1.2,2.4,2.1
			v-10.5h3.6v29.3H2450.3z M2438.9,1019.4c0,2.7,0.6,4.8,1.7,6.1c1.1,1.3,2.5,2,4.1,2c1.6,0,2.9-0.6,4-1.9c1.1-1.3,1.7-3.3,1.7-5.9
			c0-2.9-0.6-5-1.7-6.4s-2.5-2-4.1-2c-1.6,0-2.9,0.7-4,2C2439.5,1014.5,2438.9,1016.6,2438.9,1019.4z"/>
		<path class="st11" d="M2473.9,1023.2l3.7,0.5c-0.6,2.2-1.7,3.9-3.3,5.1c-1.6,1.2-3.6,1.8-6.1,1.8c-3.1,0-5.6-1-7.4-2.9
			c-1.8-1.9-2.7-4.6-2.7-8.1c0-3.6,0.9-6.4,2.8-8.3c1.8-2,4.2-3,7.2-3c2.8,0,5.2,1,7,2.9c1.8,1.9,2.7,4.7,2.7,8.2c0,0.2,0,0.5,0,1
			h-15.9c0.1,2.3,0.8,4.1,2,5.4c1.2,1.2,2.7,1.9,4.4,1.9c1.3,0,2.4-0.3,3.4-1C2472.6,1025.8,2473.3,1024.7,2473.9,1023.2z
			 M2462.1,1017.3h11.9c-0.2-1.8-0.6-3.1-1.4-4c-1.1-1.4-2.6-2.1-4.5-2.1c-1.7,0-3,0.6-4.2,1.7
			C2462.8,1014,2462.2,1015.5,2462.1,1017.3z"/>
		<path class="st11" d="M2496,1027.4c-1.3,1.1-2.6,1.9-3.9,2.4c-1.2,0.5-2.6,0.7-4,0.7c-2.3,0-4.1-0.6-5.4-1.7
			c-1.3-1.1-1.9-2.6-1.9-4.4c0-1,0.2-2,0.7-2.9c0.5-0.9,1.1-1.6,1.9-2.1s1.6-0.9,2.6-1.2c0.7-0.2,1.8-0.4,3.2-0.5
			c2.9-0.3,5.1-0.8,6.4-1.2c0-0.5,0-0.8,0-0.9c0-1.5-0.3-2.5-1-3.1c-0.9-0.8-2.3-1.2-4.1-1.2c-1.7,0-2.9,0.3-3.8,0.9
			s-1.4,1.6-1.8,3.2l-3.5-0.5c0.3-1.5,0.8-2.7,1.6-3.7c0.7-0.9,1.8-1.6,3.2-2.1c1.4-0.5,3-0.8,4.8-0.8c1.8,0,3.3,0.2,4.4,0.6
			c1.1,0.4,2,1,2.5,1.6c0.5,0.6,0.9,1.5,1.1,2.5c0.1,0.6,0.2,1.7,0.2,3.3v4.8c0,3.3,0.1,5.5,0.2,6.4c0.2,0.9,0.5,1.7,0.9,2.6h-3.8
			C2496.4,1029.3,2496.1,1028.4,2496,1027.4z M2495.7,1019.3c-1.3,0.5-3.3,1-5.9,1.4c-1.5,0.2-2.5,0.5-3.1,0.7
			c-0.6,0.3-1.1,0.7-1.4,1.2c-0.3,0.5-0.5,1.1-0.5,1.7c0,1,0.4,1.8,1.1,2.4s1.8,1,3.2,1c1.4,0,2.6-0.3,3.7-0.9
			c1.1-0.6,1.9-1.4,2.4-2.5c0.4-0.8,0.6-2,0.6-3.6V1019.3z"/>
		<path class="st11" d="M2512.8,1026.8l0.5,3.2c-1,0.2-1.9,0.3-2.7,0.3c-1.3,0-2.3-0.2-3-0.6c-0.7-0.4-1.2-1-1.5-1.6
			c-0.3-0.7-0.4-2.1-0.4-4.3v-12.2h-2.6v-2.8h2.6v-5.3l3.6-2.2v7.4h3.6v2.8h-3.6v12.4c0,1,0.1,1.7,0.2,2c0.1,0.3,0.3,0.5,0.6,0.7
			c0.3,0.2,0.7,0.3,1.2,0.3C2511.6,1026.9,2512.2,1026.9,2512.8,1026.8z"/>
		<path class="st11" d="M2516.3,1030v-29.3h3.6v10.5c1.7-1.9,3.8-2.9,6.4-2.9c1.6,0,2.9,0.3,4.1,0.9c1.2,0.6,2,1.5,2.5,2.6
			c0.5,1.1,0.8,2.7,0.8,4.8v13.5h-3.6v-13.5c0-1.8-0.4-3.1-1.2-3.9c-0.8-0.8-1.9-1.2-3.3-1.2c-1.1,0-2.1,0.3-3,0.8
			c-0.9,0.6-1.6,1.3-2,2.3c-0.4,0.9-0.6,2.3-0.6,3.9v11.6H2516.3z"/>
		<path class="st11" d="M2537.7,1023.7l3.6-0.6c0.2,1.4,0.8,2.5,1.7,3.3c0.9,0.8,2.2,1.1,3.8,1.1c1.7,0,2.9-0.3,3.7-1
			s1.2-1.5,1.2-2.4c0-0.8-0.4-1.5-1.1-1.9c-0.5-0.3-1.7-0.7-3.7-1.2c-2.6-0.7-4.5-1.2-5.5-1.7s-1.8-1.2-2.3-2
			c-0.5-0.9-0.8-1.8-0.8-2.9c0-0.9,0.2-1.8,0.7-2.6c0.4-0.8,1-1.5,1.8-2c0.6-0.4,1.3-0.8,2.3-1.1c1-0.3,2-0.4,3.1-0.4
			c1.7,0,3.1,0.2,4.4,0.7c1.3,0.5,2.2,1.1,2.8,2c0.6,0.8,1,1.9,1.2,3.3l-3.5,0.5c-0.2-1.1-0.6-1.9-1.4-2.6c-0.8-0.6-1.9-0.9-3.3-0.9
			c-1.7,0-2.8,0.3-3.5,0.8c-0.7,0.5-1.1,1.2-1.1,1.9c0,0.5,0.1,0.9,0.4,1.3c0.3,0.4,0.8,0.7,1.4,1c0.4,0.1,1.4,0.4,3.2,0.9
			c2.5,0.7,4.3,1.2,5.3,1.7c1,0.4,1.8,1.1,2.4,1.9c0.6,0.8,0.9,1.9,0.9,3.1c0,1.2-0.3,2.3-1.1,3.4c-0.7,1.1-1.7,1.9-3,2.5
			c-1.3,0.6-2.8,0.9-4.5,0.9c-2.8,0-4.9-0.6-6.3-1.7C2539,1027.6,2538.1,1025.9,2537.7,1023.7z"/>
	</g>
</g>
</svg>
