<?xml version="1.0" encoding="utf-8"?>
<!-- Generator: Adobe Illustrator 25.3.1, SVG Export Plug-In . SVG Version: 6.00 Build 0)  -->
<svg version="1.1" id="레이어_1" xmlns="http://www.w3.org/2000/svg" xmlns:xlink="http://www.w3.org/1999/xlink" x="0px"
	 y="0px" viewBox="0 0 2423 1099" style="enable-background:new 0 0 2423 1099;" xml:space="preserve">
<style type="text/css">
	.st0{fill:none;}
	.st1{fill:#EEEFEF;}
	.st2{fill:#3774B3;}
	.st3{font-family:'Arial-BoldMT';}
	.st4{font-size:46px;}
	.st5{font-family:'ArialMT';}
	.st6{fill-rule:evenodd;clip-rule:evenodd;fill:#F7FAFF;}
	.st7{fill-rule:evenodd;clip-rule:evenodd;fill:#FFFFFF;}
	.st8{fill:none;stroke:#BDD7EE;stroke-width:2.2917;stroke-linejoin:round;stroke-miterlimit:10;stroke-dasharray:6.875,2.2917;}
	.st9{fill:none;stroke:#3774B3;stroke-width:6.875;stroke-linejoin:round;stroke-miterlimit:10;}
	.st10{font-size:41px;}
	.st11{fill:#335B8E;}
	.st12{font-size:37px;}
	.st13{fill:none;stroke:#9DC3E6;stroke-width:4.5833;stroke-linejoin:round;stroke-miterlimit:10;stroke-dasharray:13.75,4.5833;}
	.st14{font-size:55px;}
	.st15{fill:none;stroke:#F2F2F2;stroke-width:3.4375;stroke-linejoin:round;stroke-miterlimit:10;}
	.st16{fill:#3774B3;fill-opacity:0.651;}
	.st17{fill-rule:evenodd;clip-rule:evenodd;fill:#3774B3;}
	.st18{fill:#FFFFFF;}
	.st19{fill-rule:evenodd;clip-rule:evenodd;fill:#EEEFEF;}
</style>
<rect class="st0" width="2423" height="1099"/>
<g transform="translate(-421 -487)">
	<rect x="422" y="487" class="st1" width="2422" height="676"/>
	<text transform="matrix(1 0 0 1 453.578 550)" class="st2 st3 st4">Area restrictions</text>
	<text transform="matrix(1 0 0 1 453.578 614)" class="st5 st4">•</text>
	<text transform="matrix(1 0 0 1 515.453 614)" class="st5 st4">You can </text>
	<text transform="matrix(1 0 0 1 694.776 614)" class="st5 st4">restrict movement between areas with area restriction policy</text>
	<text transform="matrix(1 0 0 1 453.578 678)" class="st5 st4">•</text>
	<text transform="matrix(1 0 0 1 515.453 678)" class="st5 st4">Applying area restriction policy will surround the block</text>
	<text transform="matrix(1 0 0 1 453.578 742)" class="st5 st4">•</text>
	<text transform="matrix(1 0 0 1 515.453 742)" class="st5 st4">You can increase the length of the barrier by using more budgets</text>
	<text transform="matrix(1 0 0 1 453.578 1233)" class="st2 st3 st4">ICU Capacity</text>
	<text transform="matrix(1 0 0 1 453.578 1298)" class="st5 st4">•</text>
	<text transform="matrix(1 0 0 1 515.453 1298)" class="st5 st4">Increasing ICU will reduce the number of deaths, but costs </text>
	<text transform="matrix(1 0 0 1 1714.2679 1298)" class="st3 st4">$2,000 per week</text>
	<text transform="matrix(1 0 0 1 2072.908 1298)" class="st5 st4">for each additional bed</text>
	<path class="st6" d="M456,787h297.5v199.4H456V787z"/>
	<path class="st7" d="M753.4,787h376V904h-376V787z"/>
	<path class="st7" d="M1129.4,787h376V904h-376V787z"/>
	<path class="st7" d="M1505.5,787h376V904h-376V787z"/>
	<path class="st6" d="M753.4,904h376v82.5h-376V904z"/>
	<path class="st6" d="M1129.4,904h376v82.5h-376V904z"/>
	<path class="st6" d="M1505.5,904h376v82.5h-376V904z"/>
	<path class="st6" d="M456,986.5h297.5v82.5H456V986.5z"/>
	<path class="st6" d="M753.4,986.5h376v82.5h-376V986.5z"/>
	<path class="st6" d="M1129.4,986.5h376v82.5h-376V986.5z"/>
	<path class="st6" d="M1505.5,986.5h376v82.5h-376V986.5z"/>
	<path class="st8" d="M753.4,783.6v288.8"/>
	<path class="st8" d="M1129.4,902.8v169.6"/>
	<path class="st8" d="M1505.5,902.8v169.6"/>
	<path class="st8" d="M752.3,904h1129.2"/>
	<path class="st8" d="M456,986.5h1425.5"/>
	<path class="st9" d="M456,1069h1425.5"/>
	<path class="st9" d="M456,787h1425.5"/>
	<text transform="matrix(1 0 0 1 535.963 902)" class="st3 st10">Length</text>
	<text transform="matrix(1 0 0 1 934.573 861)" class="st3 st10">·</text>
	<text transform="matrix(1 0 0 1 1310.584 861)" class="st3 st10">·</text>
	<text transform="matrix(1 0 0 1 1686.593 861)" class="st3 st10">·</text>
	<text transform="matrix(1 0 0 1 887.594 960)" class="st11 st3 st10">Short</text>
	<text transform="matrix(1 0 0 1 1239.542 960)" class="st11 st3 st10">Medium</text>
	<text transform="matrix(1 0 0 1 1643.053 960)" class="st11 st3 st10">Long</text>
	<text transform="matrix(1 0 0 1 545.1296 1043)" class="st3 st10">Cost </text>
	<text transform="matrix(1 0 0 1 648.255 1043)" class="st3 st10">*</text>
	<text transform="matrix(1 0 0 1 878.427 1043)" class="st5 st10">$5,000</text>
	<text transform="matrix(1 0 0 1 1254.438 1043)" class="st5 st10">$7,000</text>
	<text transform="matrix(1 0 0 1 1630.453 1043)" class="st5 st10">$9,000</text>
	<text transform="matrix(1 0 0 1 488.9838 1121)" class="st5 st12">* $ for each wall per week</text>
	<path class="st7" d="M2007.6,513H2412v310.2h-404.4V513z"/>
	<path class="st7" d="M2412,513h404.4v310.2H2412V513z"/>
	<path class="st7" d="M2007.6,823.3H2412v310.3h-404.4V823.3z"/>
	<path class="st7" d="M2412,823.3h404.4v310.3H2412V823.3z"/>
	<path class="st13" d="M2412,509.6V1137"/>
	<path class="st13" d="M2004.2,823.3h815.7"/>
	<path class="st9" d="M2007.6,509.6V1137"/>
	<path class="st9" d="M2816.4,509.6V1137"/>
	<path class="st9" d="M2004.2,513h815.7"/>
	<path class="st9" d="M2004.2,1133.6h815.7"/>
	<text transform="matrix(1 0 0 1 2119.8701 688)" class="st5 st14">Block 1 </text>
	<text transform="matrix(1 0 0 1 2524.2561 688)" class="st5 st14">Block 2</text>
	<text transform="matrix(1 0 0 1 2119.8701 998)" class="st5 st14">Block 3</text>
	<text transform="matrix(1 0 0 1 2524.2561 998)" class="st5 st14">Block 4</text>
	<path class="st6" d="M456,1340.6h357.1v236.9H456V1340.6z"/>
	<path class="st7" d="M813.1,1340.6h97.2v104.9h-97.2V1340.6z"/>
	<path class="st7" d="M910.3,1340.6h97.2v104.9h-97.2V1340.6z"/>
	<path class="st7" d="M1007.5,1340.6h97.2v104.9h-97.2V1340.6z"/>
	<path class="st7" d="M1104.7,1340.6h107v104.9h-107V1340.6z"/>
	<path class="st7" d="M1211.7,1340.6h97.2v104.9h-97.2V1340.6z"/>
	<path class="st7" d="M1308.9,1340.6h97.2v104.9h-97.2V1340.6z"/>
	<path class="st7" d="M1406.2,1340.6h107v104.9h-107V1340.6z"/>
	<path class="st7" d="M1513.1,1340.6h97.2v104.9h-97.2V1340.6z"/>
	<path class="st7" d="M1610.3,1340.6h97.2v104.9h-97.2V1340.6z"/>
	<path class="st7" d="M1707.6,1340.6h97.2v104.9h-97.2V1340.6z"/>
	<path class="st7" d="M1804.8,1340.6h97.2v104.9h-97.2V1340.6z"/>
	<path class="st6" d="M813.1,1445.5h333.8v132H813.1V1445.5z"/>
	<path class="st6" d="M1146.9,1445.5H1471v132h-324.1V1445.5z"/>
	<path class="st6" d="M1471,1445.5h431v132h-431V1445.5z"/>
	<path class="st8" d="M813.1,1337.1v243.8"/>
	<path class="st15" d="M910.3,1337.1v109.5"/>
	<path class="st15" d="M1007.5,1337.1v109.5"/>
	<path class="st15" d="M1104.7,1337.1v109.5"/>
	<path class="st15" d="M1211.7,1337.1v109.5"/>
	<path class="st15" d="M1308.9,1337.1v109.5"/>
	<path class="st15" d="M1406.2,1337.1v109.5"/>
	<path class="st15" d="M1513.1,1337.1v109.5"/>
	<path class="st15" d="M1610.3,1337.1v109.5"/>
	<path class="st15" d="M1707.6,1337.1v109.5"/>
	<path class="st15" d="M1804.8,1337.1v109.5"/>
	<path class="st8" d="M811.9,1445.5H1902"/>
	<path class="st9" d="M456,1340.6h1446"/>
	<path class="st9" d="M456,1577.5h1446"/>
	<text transform="matrix(1 0 0 1 510.779 1425)" class="st3 st10">ICU capacity</text>
	<text transform="matrix(1 0 0 1 534.8415 1475)" class="st5 st10">(number of </text>
	<text transform="matrix(1 0 0 1 582.9665 1524)" class="st5 st10">beds)</text>
	<text transform="matrix(1 0 0 1 854.808 1408)" class="st3 st10">·</text>
	<text transform="matrix(1 0 0 1 952.026 1408)" class="st3 st10">·</text>
	<text transform="matrix(1 0 0 1 1049.245 1408)" class="st3 st10">·</text>
	<text transform="matrix(1 0 0 1 1151.344 1408)" class="st3 st10">·</text>
	<text transform="matrix(1 0 0 1 1253.442 1408)" class="st3 st10">·</text>
	<text transform="matrix(1 0 0 1 1350.661 1408)" class="st3 st10">·</text>
	<text transform="matrix(1 0 0 1 1452.76 1408)" class="st3 st10">·</text>
	<text transform="matrix(1 0 0 1 1554.8589 1408)" class="st3 st10">·</text>
	<text transform="matrix(1 0 0 1 1652.0791 1408)" class="st3 st10">·</text>
	<text transform="matrix(1 0 0 1 1749.2991 1408)" class="st3 st10">·</text>
	<text transform="matrix(1 0 0 1 1846.519 1408)" class="st3 st10">·</text>
	<text transform="matrix(1 0 0 1 839.058 1502)" class="st11 st3 st10">10</text>
	<text transform="matrix(1 0 0 1 839.058 1552)" class="st11 st5 st10">(Default)</text>
	<text transform="matrix(1 0 0 1 1829.8091 1502)" class="st11 st3 st10">20</text>
	<text transform="matrix(1 0 0 1 1770.219 1552)" class="st11 st5 st10">(Max)</text>
	<path class="st16" d="M1067.4,1505.8h580.5v3.4h-580.5V1505.8z M1072,1521.2l-27.5-13.8l27.5-13.8V1521.2z M1643.3,1493.8
		l27.5,13.8l-27.5,13.8V1493.8z"/>
	<rect x="2028" y="1342" class="st1" width="808" height="241"/>
	<path class="st17" d="M2052,1368.7c0-7.6,6.1-13.7,13.7-13.7h727.7c7.5,0,13.7,6.1,13.7,13.7v67.7c0,7.6-6.1,13.7-13.7,13.7h-727.7
		c-7.5,0-13.7-6.1-13.7-13.7V1368.7z"/>
	<text transform="matrix(1 0 0 1 2164.26 1420)" class="st18 st3 st4">Budget for next</text>
	<text transform="matrix(1 0 0 1 2515.458 1420)" class="st18 st3 st4">week</text>
	<text transform="matrix(1 0 0 1 2639.208 1420)" class="st18 st3 st4">($</text>
	<text transform="matrix(1 0 0 1 2679.885 1420)" class="st18 st3 st4">)</text>
	<path class="st7" d="M2052,1477.8c0-7.6,6.2-13.8,13.8-13.8h727.4c7.6,0,13.8,6.2,13.8,13.8v68.4c0,7.6-6.2,13.8-13.8,13.8h-727.4
		c-7.6,0-13.8-6.2-13.8-13.8V1477.8z"/>
	<path class="st19" d="M1923,901h28.5v-20l28.5,40l-28.5,40v-20H1923V901z"/>
	<path class="st19" d="M1923,1430h28.5v-20l28.5,40l-28.5,40v-20H1923V1430z"/>
	<path class="st19" d="M2458,1209v28.5h20l-40,28.5l-40-28.5h20V1209H2458z"/>
</g>
</svg>
