<?xml version="1.0" encoding="utf-8"?>
<!-- Generator: Adobe Illustrator 25.3.1, SVG Export Plug-In . SVG Version: 6.00 Build 0)  -->
<svg version="1.1" id="레이어_1" xmlns="http://www.w3.org/2000/svg" xmlns:xlink="http://www.w3.org/1999/xlink" x="0px"
	 y="0px" viewBox="0 0 3240 312" style="enable-background:new 0 0 3240 312;" xml:space="preserve">
<style type="text/css">
	.st0{fill:none;}
	.st1{fill:#EEEFEF;}
	.st2{fill-rule:evenodd;clip-rule:evenodd;fill:#3774B3;}
	.st3{fill:#706092;}
	.st4{fill-rule:evenodd;clip-rule:evenodd;fill:#FFFFFF;}
	.st5{fill-rule:evenodd;clip-rule:evenodd;fill:#9D9D9D;}
	.st6{fill:#4EA5A8;}
	.st7{fill:#4677C2;}
	.st8{fill:none;stroke:#D9D9D9;stroke-width:3.4375;stroke-linecap:round;stroke-miterlimit:8;}
	.st9{enable-background:new    ;}
	.st10{fill:#FFFFFF;}
</style>
<rect class="st0" width="3240" height="312"/>
<g transform="translate(-22 -259)">
	<rect x="22" y="259" class="st1" width="3240" height="312"/>
	<path class="st2" d="M246,296.8c0-9.9,8-17.8,17.8-17.8h2929.3c9.9,0,17.8,8,17.8,17.8v88.3c0,9.9-8,17.8-17.8,17.8H263.8
		c-9.9,0-17.8-8-17.8-17.8V296.8z"/>
	<rect x="2026" y="279" class="st3" width="593" height="124"/>
	<path class="st4" d="M246,436.8c0-9.9,8-17.8,17.8-17.8h2929.3c9.9,0,17.8,8,17.8,17.8v88.3c0,9.9-8,17.8-17.8,17.8H263.8
		c-9.9,0-17.8-8-17.8-17.8V436.8z"/>
	<path class="st5" d="M261.3,279H837v124H261.3c-8.4,0-15.3-8-15.3-17.8v-88.3C246,287,252.8,279,261.3,279z"/>
	<rect x="837" y="279" class="st6" width="596" height="124"/>
	<rect x="1432" y="279" class="st7" width="593" height="124"/>
	<path class="st8" d="M837.5,446.5v69.3"/>
	<g class="st9">
		<path class="st10" d="M437.5,332v-34.4h6.9V332H437.5z"/>
		<path class="st10" d="M473.6,332H467v-12.7c0-2.7-0.1-4.4-0.4-5.2s-0.7-1.4-1.4-1.8s-1.4-0.7-2.3-0.7c-1.1,0-2.2,0.3-3.1,0.9
			s-1.5,1.5-1.9,2.5s-0.5,2.9-0.5,5.7V332h-6.6v-24.9h6.1v3.7c2.2-2.8,4.9-4.2,8.2-4.2c1.5,0,2.8,0.3,4,0.8s2.1,1.2,2.7,2
			s1,1.7,1.3,2.8s0.4,2.5,0.4,4.4V332z"/>
		<path class="st10" d="M477.4,307.1h3.7v-1.9c0-2.1,0.2-3.7,0.7-4.7s1.3-1.9,2.5-2.5s2.7-1,4.5-1c1.9,0,3.7,0.3,5.5,0.8l-0.9,4.6
			c-1-0.2-2.1-0.4-3-0.4c-1,0-1.6,0.2-2.1,0.7s-0.6,1.3-0.6,2.6v1.8h4.9v5.2h-4.9V332h-6.6v-19.7h-3.7V307.1z"/>
		<path class="st10" d="M510.7,324.1l6.6,1.1c-0.8,2.4-2.2,4.2-4,5.5s-4.1,1.9-6.8,1.9c-4.3,0-7.5-1.4-9.6-4.2
			c-1.6-2.3-2.5-5.1-2.5-8.6c0-4.1,1.1-7.4,3.2-9.7s4.9-3.5,8.2-3.5c3.7,0,6.6,1.2,8.8,3.7s3.2,6.2,3.1,11.2h-16.5
			c0,2,0.6,3.5,1.6,4.6s2.3,1.6,3.8,1.6c1,0,1.9-0.3,2.6-0.8S510.3,325.3,510.7,324.1z M511.1,317.4c0-1.9-0.5-3.4-1.5-4.3
			s-2.1-1.5-3.4-1.5c-1.4,0-2.6,0.5-3.6,1.6s-1.4,2.5-1.4,4.3H511.1z"/>
		<path class="st10" d="M544.7,314.5l-6.5,1.2c-0.2-1.3-0.7-2.3-1.5-2.9s-1.8-1-3-1c-1.6,0-2.9,0.6-3.9,1.7s-1.5,3-1.5,5.7
			c0,3,0.5,5,1.5,6.3s2.3,1.8,4,1.8c1.2,0,2.3-0.4,3.1-1.1s1.4-1.9,1.7-3.7l6.5,1.1c-0.7,3-2,5.2-3.9,6.7s-4.5,2.3-7.7,2.3
			c-3.6,0-6.5-1.1-8.7-3.4s-3.2-5.5-3.2-9.5c0-4.1,1.1-7.3,3.3-9.6s5.1-3.4,8.8-3.4c3,0,5.4,0.7,7.2,2S543.9,311.8,544.7,314.5z"/>
		<path class="st10" d="M561.1,307.1v5.2h-4.5v10c0,2,0,3.2,0.1,3.6s0.3,0.6,0.6,0.8s0.7,0.3,1.1,0.3c0.6,0,1.5-0.2,2.6-0.6l0.6,5.1
			c-1.5,0.7-3.3,1-5.2,1c-1.2,0-2.3-0.2-3.2-0.6s-1.7-0.9-2.1-1.5s-0.8-1.5-0.9-2.6c-0.1-0.8-0.2-2.3-0.2-4.6v-10.9h-3v-5.2h3v-4.9
			l6.6-3.8v8.8H561.1z"/>
		<path class="st10" d="M565.7,303.7v-6.1h6.6v6.1H565.7z M565.7,332v-24.9h6.6V332H565.7z"/>
		<path class="st10" d="M577.5,319.2c0-2.2,0.5-4.3,1.6-6.4s2.6-3.6,4.6-4.7s4.2-1.6,6.6-1.6c3.8,0,6.9,1.2,9.3,3.7s3.6,5.5,3.6,9.3
			c0,3.8-1.2,6.9-3.6,9.4s-5.5,3.7-9.2,3.7c-2.3,0-4.5-0.5-6.5-1.5s-3.6-2.5-4.7-4.5S577.5,322.1,577.5,319.2z M584.2,319.6
			c0,2.5,0.6,4.4,1.8,5.7s2.6,2,4.3,2s3.2-0.7,4.3-2s1.7-3.2,1.7-5.7c0-2.4-0.6-4.3-1.7-5.6s-2.6-2-4.3-2s-3.2,0.7-4.3,2
			S584.2,317.1,584.2,319.6z"/>
		<path class="st10" d="M624.7,332v-3.7c-0.9,1.3-2.1,2.4-3.6,3.1s-3,1.1-4.7,1.1c-1.7,0-3.2-0.4-4.5-1.1s-2.3-1.8-2.9-3.1
			s-0.9-3.2-0.9-5.5v-15.8h6.6v11.4c0,3.5,0.1,5.6,0.4,6.4s0.7,1.4,1.3,1.9s1.5,0.7,2.4,0.7c1.1,0,2.1-0.3,3-0.9s1.5-1.4,1.8-2.3
			s0.5-3.2,0.5-6.7v-10.5h6.6V332H624.7z"/>
		<path class="st10" d="M635.3,324.9l6.6-1c0.3,1.3,0.9,2.3,1.7,2.9s2.1,1,3.6,1c1.7,0,3-0.3,3.8-0.9c0.6-0.4,0.9-1,0.9-1.8
			c0-0.5-0.2-0.9-0.5-1.2c-0.3-0.3-1.1-0.6-2.2-0.9c-5.3-1.2-8.7-2.2-10.1-3.2c-2-1.3-3-3.2-3-5.6c0-2.2,0.9-4,2.6-5.4
			s4.3-2.2,7.9-2.2c3.4,0,5.9,0.6,7.6,1.7s2.8,2.8,3.4,4.9l-6.2,1.1c-0.3-1-0.8-1.7-1.5-2.2s-1.8-0.8-3.2-0.8c-1.7,0-3,0.2-3.7,0.7
			c-0.5,0.3-0.8,0.8-0.8,1.3c0,0.5,0.2,0.9,0.7,1.2c0.6,0.4,2.6,1.1,6.2,1.9s6,1.8,7.3,2.9c1.4,1.2,2.1,2.8,2.1,4.9
			c0,2.3-1,4.2-2.9,5.9s-4.7,2.5-8.5,2.5c-3.4,0-6.1-0.7-8.1-2.1S635.9,327.3,635.3,324.9z"/>
	</g>
	<g class="st9">
		<path class="st10" d="M324.5,379v-26.5h9.1c2.1,0,3.6,0.1,4.7,0.4c1.5,0.3,2.8,1,3.9,1.9c1.4,1.2,2.4,2.7,3.1,4.5
			c0.7,1.8,1,3.9,1,6.3c0,2-0.2,3.8-0.7,5.3c-0.5,1.6-1.1,2.8-1.8,3.9c-0.7,1-1.5,1.8-2.4,2.4s-1.9,1-3.2,1.3
			c-1.2,0.3-2.7,0.5-4.3,0.5H324.5z M328,375.9h5.7c1.7,0,3.1-0.2,4.1-0.5c1-0.3,1.8-0.8,2.4-1.4c0.8-0.8,1.5-1.9,1.9-3.4
			c0.5-1.4,0.7-3.1,0.7-5.1c0-2.8-0.5-4.9-1.4-6.4c-0.9-1.5-2-2.5-3.3-3c-0.9-0.4-2.5-0.5-4.5-0.5H328V375.9z"/>
		<path class="st10" d="M363.3,376.6c-1.2,1-2.4,1.7-3.5,2.2c-1.1,0.4-2.3,0.6-3.6,0.6c-2.1,0-3.7-0.5-4.9-1.5
			c-1.1-1-1.7-2.3-1.7-3.9c0-0.9,0.2-1.8,0.6-2.6c0.4-0.8,1-1.4,1.7-1.9s1.5-0.8,2.3-1.1c0.6-0.2,1.6-0.3,2.9-0.5
			c2.6-0.3,4.6-0.7,5.8-1.1c0-0.4,0-0.7,0-0.8c0-1.3-0.3-2.3-0.9-2.8c-0.8-0.7-2.1-1.1-3.7-1.1c-1.5,0-2.7,0.3-3.4,0.8
			s-1.3,1.5-1.6,2.8l-3.2-0.4c0.3-1.4,0.8-2.5,1.4-3.3c0.7-0.8,1.6-1.5,2.9-1.9c1.3-0.5,2.7-0.7,4.4-0.7c1.6,0,3,0.2,4,0.6
			s1.8,0.9,2.3,1.5c0.5,0.6,0.8,1.3,1,2.2c0.1,0.6,0.2,1.6,0.2,3v4.3c0,3,0.1,4.9,0.2,5.7c0.1,0.8,0.4,1.6,0.8,2.3H364
			C363.6,378.3,363.4,377.5,363.3,376.6z M363,369.4c-1.2,0.5-3,0.9-5.3,1.2c-1.3,0.2-2.3,0.4-2.8,0.7c-0.6,0.2-1,0.6-1.3,1.1
			s-0.5,1-0.5,1.5c0,0.9,0.3,1.6,1,2.2s1.6,0.9,2.9,0.9c1.3,0,2.4-0.3,3.3-0.8s1.7-1.3,2.2-2.2c0.3-0.7,0.5-1.8,0.5-3.3V369.4z"/>
		<path class="st10" d="M371.4,356.3v-3.7h3.3v3.7H371.4z M371.4,379v-19.2h3.3V379H371.4z"/>
		<path class="st10" d="M379.5,379v-26.5h3.3V379H379.5z"/>
		<path class="st10" d="M387.7,386.4l-0.4-3.1c0.7,0.2,1.3,0.3,1.9,0.3c0.7,0,1.3-0.1,1.7-0.4s0.8-0.6,1.1-1c0.2-0.3,0.5-1.1,1-2.4
			c0.1-0.2,0.2-0.4,0.3-0.8l-7.3-19.2h3.5l4,11.1c0.5,1.4,1,2.9,1.4,4.4c0.4-1.5,0.8-3,1.3-4.4l4.1-11.2h3.3l-7.3,19.5
			c-0.8,2.1-1.4,3.6-1.8,4.4c-0.6,1.1-1.2,1.9-2,2.4c-0.7,0.5-1.6,0.8-2.7,0.8C389.1,386.8,388.4,386.7,387.7,386.4z"/>
	</g>
	<g class="st9">
		<path class="st10" d="M421.4,386.8c-1.8-2.3-3.3-4.9-4.6-7.9c-1.2-3-1.9-6.2-1.9-9.4c0-2.9,0.5-5.6,1.4-8.2c1.1-3,2.8-6.1,5-9.1
			h2.3c-1.5,2.5-2.4,4.3-2.9,5.4c-0.7,1.7-1.3,3.4-1.7,5.2c-0.5,2.3-0.8,4.5-0.8,6.8c0,5.8,1.8,11.6,5.4,17.4H421.4z"/>
		<path class="st10" d="M446.8,369.7l3.5,0.9c-0.7,2.9-2.1,5.1-4,6.6c-1.9,1.5-4.2,2.3-7,2.3c-2.9,0-5.2-0.6-7-1.7
			c-1.8-1.2-3.1-2.8-4.1-5c-0.9-2.2-1.4-4.6-1.4-7.1c0-2.8,0.5-5.2,1.6-7.2c1.1-2.1,2.6-3.6,4.5-4.7c1.9-1.1,4.1-1.6,6.4-1.6
			c2.6,0,4.9,0.7,6.7,2c1.8,1.3,3.1,3.2,3.8,5.7l-3.5,0.8c-0.6-1.9-1.5-3.3-2.7-4.2c-1.2-0.9-2.6-1.3-4.4-1.3c-2,0-3.7,0.5-5.1,1.5
			c-1.4,1-2.3,2.3-2.9,3.9c-0.6,1.6-0.8,3.3-0.8,5.1c0,2.3,0.3,4.2,1,5.9c0.7,1.7,1.7,2.9,3.1,3.8c1.4,0.8,2.9,1.2,4.5,1.2
			c2,0,3.6-0.6,5-1.7C445.4,373.6,446.3,371.9,446.8,369.7z"/>
		<path class="st10" d="M466.8,379v-2.8c-1.5,2.2-3.5,3.3-6.1,3.3c-1.1,0-2.2-0.2-3.2-0.7c-1-0.4-1.7-1-2.2-1.6
			c-0.5-0.7-0.8-1.5-1-2.4c-0.1-0.6-0.2-1.7-0.2-3v-11.9h3.3v10.6c0,1.7,0.1,2.8,0.2,3.4c0.2,0.9,0.6,1.5,1.3,2
			c0.7,0.5,1.5,0.7,2.5,0.7s1.9-0.2,2.7-0.7c0.9-0.5,1.5-1.2,1.8-2c0.4-0.9,0.5-2.1,0.5-3.7v-10.3h3.3V379H466.8z"/>
		<path class="st10" d="M474.8,379v-19.2h2.9v2.9c0.7-1.4,1.4-2.3,2.1-2.7c0.6-0.4,1.3-0.7,2.1-0.7c1.1,0,2.2,0.3,3.3,1l-1.1,3
			c-0.8-0.5-1.6-0.7-2.4-0.7c-0.7,0-1.3,0.2-1.9,0.6c-0.6,0.4-1,1-1.2,1.8c-0.4,1.2-0.5,2.4-0.5,3.8v10H474.8z"/>
		<path class="st10" d="M487.1,379v-19.2h2.9v2.9c0.7-1.4,1.4-2.3,2.1-2.7c0.6-0.4,1.3-0.7,2.1-0.7c1.1,0,2.2,0.3,3.3,1l-1.1,3
			c-0.8-0.5-1.6-0.7-2.4-0.7c-0.7,0-1.3,0.2-1.9,0.6c-0.6,0.4-1,1-1.2,1.8c-0.4,1.2-0.5,2.4-0.5,3.8v10H487.1z"/>
		<path class="st10" d="M512.6,372.8l3.4,0.4c-0.5,2-1.5,3.5-2.9,4.6c-1.4,1.1-3.3,1.6-5.5,1.6c-2.8,0-5-0.9-6.7-2.6
			c-1.6-1.7-2.5-4.2-2.5-7.3c0-3.2,0.8-5.7,2.5-7.5s3.8-2.7,6.5-2.7c2.6,0,4.7,0.9,6.3,2.6c1.6,1.7,2.4,4.2,2.4,7.4
			c0,0.2,0,0.5,0,0.9h-14.3c0.1,2.1,0.7,3.7,1.8,4.8c1.1,1.1,2.4,1.7,4,1.7c1.2,0,2.2-0.3,3.1-0.9
			C511.4,375.2,512.1,374.2,512.6,372.8z M501.9,367.6h10.7c-0.1-1.6-0.6-2.8-1.2-3.6c-1-1.3-2.4-1.9-4-1.9c-1.5,0-2.7,0.5-3.8,1.5
			C502.6,364.6,502,365.9,501.9,367.6z"/>
		<path class="st10" d="M520,379v-19.2h2.9v2.7c1.4-2.1,3.4-3.2,6.1-3.2c1.2,0,2.2,0.2,3.2,0.6c1,0.4,1.7,1,2.2,1.6
			c0.5,0.7,0.8,1.5,1,2.4c0.1,0.6,0.2,1.7,0.2,3.2V379h-3.3v-11.7c0-1.3-0.1-2.3-0.4-3s-0.7-1.2-1.3-1.6c-0.6-0.4-1.4-0.6-2.3-0.6
			c-1.4,0-2.6,0.4-3.6,1.3c-1,0.9-1.5,2.5-1.5,5V379H520z"/>
		<path class="st10" d="M547.7,376.1l0.5,2.9c-0.9,0.2-1.7,0.3-2.5,0.3c-1.2,0-2.1-0.2-2.7-0.6c-0.7-0.4-1.1-0.9-1.4-1.5
			c-0.3-0.6-0.4-1.9-0.4-3.8v-11h-2.4v-2.5h2.4v-4.8l3.2-2v6.7h3.3v2.5h-3.3v11.2c0,0.9,0.1,1.5,0.2,1.8c0.1,0.3,0.3,0.5,0.6,0.6
			c0.3,0.2,0.6,0.2,1.1,0.2C546.6,376.2,547.1,376.2,547.7,376.1z"/>
		<path class="st10" d="M548.4,379.5l7.7-27.4h2.6l-7.7,27.4H548.4z"/>
		<path class="st10" d="M580.5,369.7l3.5,0.9c-0.7,2.9-2.1,5.1-4,6.6c-1.9,1.5-4.2,2.3-7,2.3c-2.9,0-5.2-0.6-7-1.7
			c-1.8-1.2-3.1-2.8-4.1-5c-0.9-2.2-1.4-4.6-1.4-7.1c0-2.8,0.5-5.2,1.6-7.2c1.1-2.1,2.6-3.6,4.5-4.7c1.9-1.1,4.1-1.6,6.4-1.6
			c2.6,0,4.9,0.7,6.7,2c1.8,1.3,3.1,3.2,3.8,5.7l-3.5,0.8c-0.6-1.9-1.5-3.3-2.7-4.2c-1.2-0.9-2.6-1.3-4.4-1.3c-2,0-3.7,0.5-5.1,1.5
			c-1.4,1-2.3,2.3-2.9,3.9c-0.6,1.6-0.8,3.3-0.8,5.1c0,2.3,0.3,4.2,1,5.9c0.7,1.7,1.7,2.9,3.1,3.8c1.4,0.8,2.9,1.2,4.5,1.2
			c2,0,3.6-0.6,5-1.7C579.1,373.6,580,371.9,580.5,369.7z"/>
		<path class="st10" d="M600.4,379v-2.8c-1.5,2.2-3.5,3.3-6.1,3.3c-1.1,0-2.2-0.2-3.2-0.7c-1-0.4-1.7-1-2.2-1.6
			c-0.5-0.7-0.8-1.5-1-2.4c-0.1-0.6-0.2-1.7-0.2-3v-11.9h3.3v10.6c0,1.7,0.1,2.8,0.2,3.4c0.2,0.9,0.6,1.5,1.3,2
			c0.7,0.5,1.5,0.7,2.5,0.7s1.9-0.2,2.7-0.7c0.9-0.5,1.5-1.2,1.8-2c0.4-0.9,0.5-2.1,0.5-3.7v-10.3h3.3V379H600.4z"/>
		<path class="st10" d="M608.4,379v-19.2h2.9v2.7c0.6-0.9,1.4-1.7,2.4-2.3c1-0.6,2.1-0.9,3.4-0.9c1.4,0,2.6,0.3,3.5,0.9
			c0.9,0.6,1.6,1.4,1.9,2.5c1.5-2.2,3.5-3.4,5.9-3.4c1.9,0,3.4,0.5,4.4,1.6c1,1.1,1.5,2.7,1.5,4.9V379h-3.2v-12.1
			c0-1.3-0.1-2.2-0.3-2.8c-0.2-0.6-0.6-1-1.1-1.4c-0.6-0.3-1.2-0.5-2-0.5c-1.3,0-2.5,0.4-3.4,1.3c-0.9,0.9-1.3,2.3-1.3,4.3V379h-3.3
			v-12.5c0-1.4-0.3-2.5-0.8-3.3c-0.5-0.7-1.4-1.1-2.6-1.1c-0.9,0-1.8,0.2-2.5,0.7c-0.8,0.5-1.3,1.2-1.7,2.1c-0.3,0.9-0.5,2.3-0.5,4
			v10H608.4z"/>
		<path class="st10" d="M651.8,379v-2.8c-1.5,2.2-3.5,3.3-6.1,3.3c-1.1,0-2.2-0.2-3.2-0.7c-1-0.4-1.7-1-2.2-1.6
			c-0.5-0.7-0.8-1.5-1-2.4c-0.1-0.6-0.2-1.7-0.2-3v-11.9h3.3v10.6c0,1.7,0.1,2.8,0.2,3.4c0.2,0.9,0.6,1.5,1.3,2
			c0.7,0.5,1.5,0.7,2.5,0.7s1.9-0.2,2.7-0.7c0.9-0.5,1.5-1.2,1.8-2c0.4-0.9,0.5-2.1,0.5-3.7v-10.3h3.3V379H651.8z"/>
		<path class="st10" d="M659.8,379v-26.5h3.3V379H659.8z"/>
		<path class="st10" d="M680.6,376.6c-1.2,1-2.4,1.7-3.5,2.2c-1.1,0.4-2.3,0.6-3.6,0.6c-2.1,0-3.7-0.5-4.9-1.5
			c-1.1-1-1.7-2.3-1.7-3.9c0-0.9,0.2-1.8,0.6-2.6c0.4-0.8,1-1.4,1.7-1.9c0.7-0.5,1.5-0.8,2.3-1.1c0.6-0.2,1.6-0.3,2.9-0.5
			c2.6-0.3,4.6-0.7,5.8-1.1c0-0.4,0-0.7,0-0.8c0-1.3-0.3-2.3-0.9-2.8c-0.8-0.7-2.1-1.1-3.7-1.1c-1.5,0-2.7,0.3-3.4,0.8
			c-0.7,0.5-1.3,1.5-1.6,2.8l-3.2-0.4c0.3-1.4,0.8-2.5,1.4-3.3c0.7-0.8,1.6-1.5,2.9-1.9c1.3-0.5,2.7-0.7,4.4-0.7c1.6,0,3,0.2,4,0.6
			c1,0.4,1.8,0.9,2.3,1.5c0.5,0.6,0.8,1.3,1,2.2c0.1,0.6,0.2,1.6,0.2,3v4.3c0,3,0.1,4.9,0.2,5.7c0.1,0.8,0.4,1.6,0.8,2.3h-3.4
			C680.9,378.3,680.7,377.5,680.6,376.6z M680.3,369.4c-1.2,0.5-3,0.9-5.3,1.2c-1.3,0.2-2.3,0.4-2.8,0.7c-0.6,0.2-1,0.6-1.3,1.1
			c-0.3,0.5-0.5,1-0.5,1.5c0,0.9,0.3,1.6,1,2.2c0.7,0.6,1.6,0.9,2.9,0.9c1.3,0,2.4-0.3,3.3-0.8s1.7-1.3,2.1-2.2
			c0.3-0.7,0.5-1.8,0.5-3.3V369.4z"/>
		<path class="st10" d="M695.7,376.1l0.5,2.9c-0.9,0.2-1.7,0.3-2.5,0.3c-1.2,0-2.1-0.2-2.7-0.6c-0.7-0.4-1.1-0.9-1.4-1.5
			c-0.3-0.6-0.4-1.9-0.4-3.8v-11h-2.4v-2.5h2.4v-4.8l3.2-2v6.7h3.3v2.5h-3.3v11.2c0,0.9,0.1,1.5,0.2,1.8c0.1,0.3,0.3,0.5,0.6,0.6
			c0.3,0.2,0.6,0.2,1.1,0.2C694.7,376.2,695.1,376.2,695.7,376.1z"/>
		<path class="st10" d="M698.9,356.3v-3.7h3.3v3.7H698.9z M698.9,379v-19.2h3.3V379H698.9z"/>
		<path class="st10" d="M712.5,379l-7.3-19.2h3.4l4.1,11.5c0.4,1.2,0.9,2.5,1.2,3.9c0.3-1,0.7-2.2,1.2-3.6l4.3-11.7h3.3l-7.3,19.2
			H712.5z"/>
		<path class="st10" d="M738.8,372.8l3.4,0.4c-0.5,2-1.5,3.5-2.9,4.6c-1.4,1.1-3.3,1.6-5.5,1.6c-2.8,0-5-0.9-6.7-2.6
			c-1.6-1.7-2.5-4.2-2.5-7.3c0-3.2,0.8-5.7,2.5-7.5s3.8-2.7,6.5-2.7c2.6,0,4.7,0.9,6.3,2.6c1.6,1.7,2.4,4.2,2.4,7.4
			c0,0.2,0,0.5,0,0.9h-14.3c0.1,2.1,0.7,3.7,1.8,4.8c1.1,1.1,2.4,1.7,4,1.7c1.2,0,2.2-0.3,3.1-0.9
			C737.6,375.2,738.3,374.2,738.8,372.8z M728.1,367.6h10.7c-0.1-1.6-0.6-2.8-1.2-3.6c-1-1.3-2.4-1.9-4-1.9c-1.5,0-2.7,0.5-3.8,1.5
			C728.8,364.6,728.2,365.9,728.1,367.6z"/>
		<path class="st10" d="M748.3,386.8H746c3.6-5.8,5.4-11.6,5.4-17.4c0-2.3-0.3-4.5-0.8-6.7c-0.4-1.8-1-3.5-1.7-5.2
			c-0.5-1.1-1.4-2.9-2.9-5.4h2.3c2.3,3,3.9,6.1,5,9.1c0.9,2.6,1.4,5.4,1.4,8.2c0,3.3-0.6,6.4-1.9,9.4
			C751.6,381.9,750.1,384.5,748.3,386.8z"/>
	</g>
	<g class="st9">
		<path class="st10" d="M1090.4,332v-34.4h6.9V332H1090.4z"/>
		<path class="st10" d="M1126,319.4l6.7,2.1c-1,3.8-2.7,6.5-5.1,8.4s-5.4,2.7-9.1,2.7c-4.6,0-8.3-1.6-11.2-4.7s-4.4-7.4-4.4-12.8
			c0-5.7,1.5-10.2,4.4-13.3s6.8-4.7,11.6-4.7c4.2,0,7.6,1.2,10.2,3.7c1.6,1.5,2.7,3.6,3.5,6.3l-6.9,1.6c-0.4-1.8-1.3-3.2-2.5-4.2
			s-2.9-1.5-4.7-1.5c-2.5,0-4.6,0.9-6.2,2.7s-2.4,4.8-2.4,8.9c0,4.3,0.8,7.4,2.3,9.3s3.6,2.8,6.1,2.8c1.8,0,3.4-0.6,4.8-1.8
			S1125.4,321.9,1126,319.4z"/>
		<path class="st10" d="M1138.6,297.6h6.9v18.6c0,3,0.1,4.9,0.3,5.7c0.3,1.4,1,2.5,2.1,3.4s2.6,1.3,4.6,1.3c2,0,3.5-0.4,4.5-1.2
			s1.6-1.8,1.8-3s0.3-3.1,0.3-5.8v-19h6.9v18c0,4.1-0.2,7-0.6,8.7s-1.1,3.1-2.1,4.3s-2.4,2.1-4,2.8s-3.9,1-6.6,1
			c-3.3,0-5.8-0.4-7.5-1.1s-3-1.7-4-3s-1.6-2.5-1.9-3.8c-0.5-2-0.7-4.9-0.7-8.7V297.6z"/>
	</g>
	<g class="st9">
		<path class="st10" d="M972.6,386.8c-1.8-2.3-3.3-4.9-4.6-7.9c-1.2-3-1.9-6.2-1.9-9.4c0-2.9,0.5-5.6,1.4-8.2c1.1-3,2.8-6.1,5-9.1
			h2.3c-1.5,2.5-2.4,4.3-2.9,5.4c-0.7,1.7-1.3,3.4-1.7,5.2c-0.5,2.3-0.8,4.5-0.8,6.8c0,5.8,1.8,11.6,5.4,17.4H972.6z"/>
		<path class="st10" d="M998,369.7l3.5,0.9c-0.7,2.9-2.1,5.1-4,6.6c-1.9,1.5-4.2,2.3-7,2.3c-2.9,0-5.2-0.6-7-1.7
			c-1.8-1.2-3.1-2.8-4.1-5c-0.9-2.2-1.4-4.6-1.4-7.1c0-2.8,0.5-5.2,1.6-7.2c1.1-2.1,2.6-3.6,4.5-4.7c1.9-1.1,4.1-1.6,6.4-1.6
			c2.6,0,4.9,0.7,6.7,2c1.8,1.3,3.1,3.2,3.8,5.7l-3.5,0.8c-0.6-1.9-1.5-3.3-2.7-4.2s-2.6-1.3-4.4-1.3c-2,0-3.7,0.5-5.1,1.5
			s-2.3,2.3-2.9,3.9c-0.6,1.6-0.8,3.3-0.8,5.1c0,2.3,0.3,4.2,1,5.9c0.7,1.7,1.7,2.9,3.1,3.8s2.9,1.2,4.5,1.2c2,0,3.6-0.6,5-1.7
			C996.6,373.6,997.6,371.9,998,369.7z"/>
		<path class="st10" d="M1018,379v-2.8c-1.5,2.2-3.5,3.3-6.1,3.3c-1.1,0-2.2-0.2-3.2-0.7s-1.7-1-2.2-1.6c-0.5-0.7-0.8-1.5-1-2.4
			c-0.1-0.6-0.2-1.7-0.2-3v-11.9h3.3v10.6c0,1.7,0.1,2.8,0.2,3.4c0.2,0.9,0.6,1.5,1.3,2c0.7,0.5,1.5,0.7,2.5,0.7s1.9-0.2,2.7-0.7
			c0.9-0.5,1.5-1.2,1.8-2c0.4-0.9,0.5-2.1,0.5-3.7v-10.3h3.3V379H1018z"/>
		<path class="st10" d="M1026,379v-19.2h2.9v2.9c0.7-1.4,1.4-2.3,2.1-2.7c0.6-0.4,1.3-0.7,2.1-0.7c1.1,0,2.2,0.3,3.3,1l-1.1,3
			c-0.8-0.5-1.6-0.7-2.4-0.7c-0.7,0-1.3,0.2-1.9,0.6s-1,1-1.2,1.8c-0.4,1.2-0.5,2.4-0.5,3.8v10H1026z"/>
		<path class="st10" d="M1038.3,379v-19.2h2.9v2.9c0.7-1.4,1.4-2.3,2.1-2.7c0.6-0.4,1.3-0.7,2.1-0.7c1.1,0,2.2,0.3,3.3,1l-1.1,3
			c-0.8-0.5-1.6-0.7-2.4-0.7c-0.7,0-1.3,0.2-1.9,0.6s-1,1-1.2,1.8c-0.4,1.2-0.5,2.4-0.5,3.8v10H1038.3z"/>
		<path class="st10" d="M1063.8,372.8l3.4,0.4c-0.5,2-1.5,3.5-2.9,4.6c-1.4,1.1-3.3,1.6-5.5,1.6c-2.8,0-5-0.9-6.7-2.6
			c-1.6-1.7-2.5-4.2-2.5-7.3c0-3.2,0.8-5.7,2.5-7.5s3.8-2.7,6.5-2.7c2.6,0,4.7,0.9,6.3,2.6c1.6,1.7,2.4,4.2,2.4,7.4
			c0,0.2,0,0.5,0,0.9h-14.3c0.1,2.1,0.7,3.7,1.8,4.8c1.1,1.1,2.4,1.7,4,1.7c1.2,0,2.2-0.3,3.1-0.9
			C1062.6,375.2,1063.3,374.2,1063.8,372.8z M1053.1,367.6h10.7c-0.1-1.6-0.6-2.8-1.2-3.6c-1-1.3-2.4-1.9-4-1.9
			c-1.5,0-2.7,0.5-3.8,1.5C1053.8,364.6,1053.2,365.9,1053.1,367.6z"/>
		<path class="st10" d="M1071.2,379v-19.2h2.9v2.7c1.4-2.1,3.4-3.2,6.1-3.2c1.2,0,2.2,0.2,3.2,0.6c1,0.4,1.7,1,2.2,1.6
			c0.5,0.7,0.8,1.5,1,2.4c0.1,0.6,0.2,1.7,0.2,3.2V379h-3.3v-11.7c0-1.3-0.1-2.3-0.4-3s-0.7-1.2-1.3-1.6c-0.6-0.4-1.4-0.6-2.3-0.6
			c-1.4,0-2.6,0.4-3.6,1.3c-1,0.9-1.5,2.5-1.5,5V379H1071.2z"/>
		<path class="st10" d="M1098.9,376.1l0.5,2.9c-0.9,0.2-1.7,0.3-2.5,0.3c-1.2,0-2.1-0.2-2.7-0.6c-0.7-0.4-1.1-0.9-1.4-1.5
			s-0.4-1.9-0.4-3.8v-11h-2.4v-2.5h2.4v-4.8l3.2-2v6.7h3.3v2.5h-3.3v11.2c0,0.9,0.1,1.5,0.2,1.8c0.1,0.3,0.3,0.5,0.6,0.6
			c0.3,0.2,0.6,0.2,1.1,0.2C1097.9,376.2,1098.3,376.2,1098.9,376.1z"/>
		<path class="st10" d="M1099.7,379.5l7.7-27.4h2.6l-7.7,27.4H1099.7z"/>
		<path class="st10" d="M1112.7,379v-26.5h5.3l6.3,18.8c0.6,1.7,1,3.1,1.3,3.9c0.3-1,0.8-2.4,1.4-4.2l6.3-18.4h4.7V379h-3.4v-22.2
			l-7.7,22.2h-3.2l-7.7-22.5V379H1112.7z"/>
		<path class="st10" d="M1155.7,376.6c-1.2,1-2.4,1.7-3.5,2.2c-1.1,0.4-2.3,0.6-3.6,0.6c-2.1,0-3.7-0.5-4.9-1.5
			c-1.1-1-1.7-2.3-1.7-3.9c0-0.9,0.2-1.8,0.6-2.6c0.4-0.8,1-1.4,1.7-1.9c0.7-0.5,1.5-0.8,2.3-1.1c0.6-0.2,1.6-0.3,2.9-0.5
			c2.6-0.3,4.6-0.7,5.8-1.1c0-0.4,0-0.7,0-0.8c0-1.3-0.3-2.3-0.9-2.8c-0.8-0.7-2.1-1.1-3.7-1.1c-1.5,0-2.7,0.3-3.4,0.8
			c-0.7,0.5-1.3,1.5-1.6,2.8l-3.2-0.4c0.3-1.4,0.8-2.5,1.4-3.3c0.7-0.8,1.6-1.5,2.9-1.9c1.3-0.5,2.7-0.7,4.4-0.7c1.6,0,3,0.2,4,0.6
			c1,0.4,1.8,0.9,2.3,1.5c0.5,0.6,0.8,1.3,1,2.2c0.1,0.6,0.2,1.6,0.2,3v4.3c0,3,0.1,4.9,0.2,5.7c0.1,0.8,0.4,1.6,0.8,2.3h-3.4
			C1156,378.3,1155.8,377.5,1155.7,376.6z M1155.5,369.4c-1.2,0.5-3,0.9-5.3,1.2c-1.3,0.2-2.3,0.4-2.8,0.7c-0.6,0.2-1,0.6-1.3,1.1
			c-0.3,0.5-0.5,1-0.5,1.5c0,0.9,0.3,1.6,1,2.2c0.7,0.6,1.6,0.9,2.9,0.9c1.3,0,2.4-0.3,3.3-0.8s1.7-1.3,2.1-2.2
			c0.3-0.7,0.5-1.8,0.5-3.3V369.4z"/>
		<path class="st10" d="M1161.6,379l7-10l-6.5-9.2h4.1l2.9,4.5c0.6,0.9,1,1.6,1.3,2.1c0.5-0.8,1-1.5,1.5-2.1l3.2-4.5h3.9l-6.6,9
			l7.1,10.2h-4l-3.9-6l-1-1.6l-5,7.6H1161.6z"/>
		<path class="st10" d="M1182.3,356.3v-3.7h3.3v3.7H1182.3z M1182.3,379v-19.2h3.3V379H1182.3z"/>
		<path class="st10" d="M1190.5,379v-19.2h2.9v2.7c0.6-0.9,1.4-1.7,2.4-2.3c1-0.6,2.1-0.9,3.4-0.9c1.4,0,2.6,0.3,3.5,0.9
			c0.9,0.6,1.6,1.4,1.9,2.5c1.5-2.2,3.5-3.4,5.9-3.4c1.9,0,3.4,0.5,4.4,1.6c1,1.1,1.5,2.7,1.5,4.9V379h-3.2v-12.1
			c0-1.3-0.1-2.2-0.3-2.8s-0.6-1-1.1-1.4c-0.6-0.3-1.2-0.5-2-0.5c-1.3,0-2.5,0.4-3.4,1.3c-0.9,0.9-1.3,2.3-1.3,4.3V379h-3.3v-12.5
			c0-1.4-0.3-2.5-0.8-3.3s-1.4-1.1-2.6-1.1c-0.9,0-1.8,0.2-2.5,0.7c-0.8,0.5-1.3,1.2-1.7,2.1c-0.3,0.9-0.5,2.3-0.5,4v10H1190.5z"/>
		<path class="st10" d="M1233.9,379v-2.8c-1.5,2.2-3.5,3.3-6.1,3.3c-1.1,0-2.2-0.2-3.2-0.7c-1-0.4-1.7-1-2.2-1.6s-0.8-1.5-1-2.4
			c-0.1-0.6-0.2-1.7-0.2-3v-11.9h3.3v10.6c0,1.7,0.1,2.8,0.2,3.4c0.2,0.9,0.6,1.5,1.3,2c0.7,0.5,1.5,0.7,2.5,0.7s1.9-0.2,2.7-0.7
			s1.5-1.2,1.8-2c0.4-0.9,0.5-2.1,0.5-3.7v-10.3h3.3V379H1233.9z"/>
		<path class="st10" d="M1241.9,379v-19.2h2.9v2.7c0.6-0.9,1.4-1.7,2.4-2.3s2.1-0.9,3.4-0.9c1.4,0,2.6,0.3,3.5,0.9
			c0.9,0.6,1.5,1.4,1.9,2.5c1.5-2.2,3.5-3.4,5.9-3.4c1.9,0,3.4,0.5,4.4,1.6s1.5,2.7,1.5,4.9V379h-3.2v-12.1c0-1.3-0.1-2.2-0.3-2.8
			c-0.2-0.6-0.6-1-1.1-1.4c-0.6-0.3-1.2-0.5-2-0.5c-1.3,0-2.5,0.4-3.4,1.3c-0.9,0.9-1.3,2.3-1.3,4.3V379h-3.3v-12.5
			c0-1.4-0.3-2.5-0.8-3.3c-0.5-0.7-1.4-1.1-2.6-1.1c-0.9,0-1.8,0.2-2.5,0.7c-0.8,0.5-1.3,1.2-1.7,2.1c-0.3,0.9-0.5,2.3-0.5,4v10
			H1241.9z"/>
		<path class="st10" d="M1274.9,386.8h-2.3c3.6-5.8,5.4-11.6,5.4-17.4c0-2.3-0.3-4.5-0.8-6.7c-0.4-1.8-1-3.5-1.7-5.2
			c-0.5-1.1-1.4-2.9-2.9-5.4h2.3c2.3,3,3.9,6.1,5,9.1c0.9,2.6,1.4,5.4,1.4,8.2c0,3.3-0.6,6.4-1.9,9.4
			C1278.2,381.9,1276.6,384.5,1274.9,386.8z"/>
	</g>
	<g class="st9">
		<path class="st10" d="M1666.7,297.6h12.7c2.9,0,5,0.2,6.5,0.7c2,0.6,3.7,1.6,5.2,3.2s2.5,3.4,3.3,5.6s1.1,4.9,1.1,8.1
			c0,2.8-0.4,5.3-1.1,7.3c-0.9,2.5-2.1,4.5-3.7,6.1c-1.2,1.2-2.8,2.1-4.9,2.7c-1.5,0.5-3.6,0.7-6.1,0.7h-13.1V297.6z M1673.6,303.5
			v22.8h5.2c1.9,0,3.3-0.1,4.2-0.3c1.1-0.3,2.1-0.8,2.8-1.4s1.3-1.8,1.8-3.3s0.7-3.6,0.7-6.3s-0.2-4.7-0.7-6.1s-1.1-2.5-2-3.3
			s-1.9-1.3-3.2-1.6c-1-0.2-2.9-0.3-5.7-0.3H1673.6z"/>
		<path class="st10" d="M1715.7,324.1l6.6,1.1c-0.8,2.4-2.2,4.2-4,5.5s-4.1,1.9-6.8,1.9c-4.3,0-7.5-1.4-9.6-4.2
			c-1.6-2.3-2.5-5.1-2.5-8.6c0-4.1,1.1-7.4,3.2-9.7s4.9-3.5,8.2-3.5c3.7,0,6.6,1.2,8.8,3.7s3.2,6.2,3.1,11.2h-16.5
			c0,2,0.6,3.5,1.6,4.6s2.3,1.6,3.8,1.6c1,0,1.9-0.3,2.6-0.8S1715.4,325.3,1715.7,324.1z M1716.1,317.4c0-1.9-0.5-3.4-1.5-4.3
			s-2.1-1.5-3.4-1.5c-1.4,0-2.6,0.5-3.6,1.6s-1.4,2.5-1.4,4.3H1716.1z"/>
		<path class="st10" d="M1732.9,314.7l-6-1.1c0.7-2.4,1.8-4.2,3.5-5.3s4.1-1.7,7.3-1.7c2.9,0,5.1,0.3,6.6,1s2.4,1.6,3,2.6
			s0.9,3,0.9,5.9l-0.1,7.7c0,2.2,0.1,3.8,0.3,4.8s0.6,2.2,1.2,3.3h-6.5c-0.2-0.4-0.4-1.1-0.6-1.9c-0.1-0.4-0.2-0.6-0.2-0.8
			c-1.1,1.1-2.3,1.9-3.6,2.5s-2.6,0.8-4.1,0.8c-2.6,0-4.6-0.7-6.1-2.1s-2.2-3.1-2.2-5.3c0-1.4,0.3-2.7,1-3.8s1.6-1.9,2.8-2.5
			s3-1.1,5.2-1.5c3.1-0.6,5.2-1.1,6.4-1.6v-0.7c0-1.3-0.3-2.2-0.9-2.7s-1.8-0.8-3.5-0.8c-1.2,0-2.1,0.2-2.7,0.7
			S1733.3,313.5,1732.9,314.7z M1741.7,320c-0.8,0.3-2.2,0.6-4,1s-3,0.8-3.6,1.1c-0.9,0.6-1.3,1.4-1.3,2.3c0,0.9,0.3,1.7,1,2.4
			s1.6,1,2.6,1c1.2,0,2.3-0.4,3.4-1.2c0.8-0.6,1.3-1.3,1.6-2.2c0.2-0.6,0.3-1.6,0.3-3.2V320z"/>
		<path class="st10" d="M1766.1,307.1v5.2h-4.5v10c0,2,0,3.2,0.1,3.6s0.3,0.6,0.6,0.8s0.7,0.3,1.1,0.3c0.6,0,1.5-0.2,2.6-0.6
			l0.6,5.1c-1.5,0.7-3.3,1-5.2,1c-1.2,0-2.3-0.2-3.2-0.6s-1.7-0.9-2.1-1.5s-0.8-1.5-0.9-2.6c-0.1-0.8-0.2-2.3-0.2-4.6v-10.9h-3v-5.2
			h3v-4.9l6.6-3.8v8.8H1766.1z"/>
		<path class="st10" d="M1777.2,297.6v12.6c2.1-2.5,4.7-3.7,7.6-3.7c1.5,0,2.9,0.3,4.1,0.8s2.1,1.3,2.8,2.2s1,1.8,1.3,2.9
			s0.3,2.7,0.3,4.9V332h-6.6v-13.1c0-2.6-0.1-4.3-0.4-5s-0.7-1.3-1.3-1.7s-1.4-0.6-2.4-0.6c-1.1,0-2.1,0.3-2.9,0.8s-1.5,1.3-1.9,2.4
			s-0.6,2.7-0.6,4.7V332h-6.6v-34.4H1777.2z"/>
	</g>
	<g class="st9">
		<path class="st10" d="M1581.2,379v-26.5h9.1c2.1,0,3.6,0.1,4.7,0.4c1.5,0.3,2.8,1,3.9,1.9c1.4,1.2,2.4,2.7,3.1,4.5
			c0.7,1.8,1,3.9,1,6.3c0,2-0.2,3.8-0.7,5.3c-0.5,1.6-1.1,2.8-1.8,3.9c-0.7,1-1.5,1.8-2.4,2.4c-0.9,0.6-1.9,1-3.2,1.3
			c-1.2,0.3-2.7,0.5-4.3,0.5H1581.2z M1584.8,375.9h5.7c1.7,0,3.1-0.2,4.1-0.5c1-0.3,1.8-0.8,2.4-1.4c0.8-0.8,1.5-1.9,1.9-3.4
			c0.5-1.4,0.7-3.1,0.7-5.1c0-2.8-0.5-4.9-1.4-6.4c-0.9-1.5-2-2.5-3.3-3c-0.9-0.4-2.5-0.5-4.5-0.5h-5.6V375.9z"/>
		<path class="st10" d="M1620.1,376.6c-1.2,1-2.4,1.7-3.5,2.2c-1.1,0.4-2.3,0.6-3.6,0.6c-2.1,0-3.7-0.5-4.9-1.5
			c-1.1-1-1.7-2.3-1.7-3.9c0-0.9,0.2-1.8,0.6-2.6c0.4-0.8,1-1.4,1.7-1.9c0.7-0.5,1.5-0.8,2.3-1.1c0.6-0.2,1.6-0.3,2.9-0.5
			c2.6-0.3,4.6-0.7,5.8-1.1c0-0.4,0-0.7,0-0.8c0-1.3-0.3-2.3-0.9-2.8c-0.8-0.7-2.1-1.1-3.7-1.1c-1.5,0-2.7,0.3-3.4,0.8
			c-0.7,0.5-1.3,1.5-1.6,2.8l-3.2-0.4c0.3-1.4,0.8-2.5,1.4-3.3c0.7-0.8,1.6-1.5,2.9-1.9c1.3-0.5,2.7-0.7,4.4-0.7c1.6,0,3,0.2,4,0.6
			c1,0.4,1.8,0.9,2.3,1.5c0.5,0.6,0.8,1.3,1,2.2c0.1,0.6,0.2,1.6,0.2,3v4.3c0,3,0.1,4.9,0.2,5.7c0.1,0.8,0.4,1.6,0.8,2.3h-3.4
			C1620.4,378.3,1620.2,377.5,1620.1,376.6z M1619.8,369.4c-1.2,0.5-3,0.9-5.3,1.2c-1.3,0.2-2.3,0.4-2.8,0.7c-0.6,0.2-1,0.6-1.3,1.1
			c-0.3,0.5-0.5,1-0.5,1.5c0,0.9,0.3,1.6,1,2.2c0.7,0.6,1.6,0.9,2.9,0.9c1.3,0,2.4-0.3,3.3-0.8s1.7-1.3,2.1-2.2
			c0.3-0.7,0.5-1.8,0.5-3.3V369.4z"/>
		<path class="st10" d="M1628.1,356.3v-3.7h3.3v3.7H1628.1z M1628.1,379v-19.2h3.3V379H1628.1z"/>
		<path class="st10" d="M1636.3,379v-26.5h3.3V379H1636.3z"/>
		<path class="st10" d="M1644.4,386.4l-0.4-3.1c0.7,0.2,1.3,0.3,1.9,0.3c0.7,0,1.3-0.1,1.7-0.4s0.8-0.6,1.1-1c0.2-0.3,0.5-1.1,1-2.4
			c0.1-0.2,0.2-0.4,0.3-0.8l-7.3-19.2h3.5l4,11.1c0.5,1.4,1,2.9,1.4,4.4c0.4-1.5,0.8-3,1.3-4.4l4.1-11.2h3.3l-7.3,19.5
			c-0.8,2.1-1.4,3.6-1.8,4.4c-0.6,1.1-1.2,1.9-2,2.4c-0.7,0.5-1.6,0.8-2.7,0.8C1645.9,386.8,1645.2,386.7,1644.4,386.4z"/>
	</g>
	<g class="st9">
		<path class="st10" d="M1678.1,386.8c-1.8-2.3-3.3-4.9-4.6-7.9s-1.9-6.2-1.9-9.4c0-2.9,0.5-5.6,1.4-8.2c1.1-3,2.8-6.1,5-9.1h2.3
			c-1.5,2.5-2.4,4.3-2.9,5.4c-0.7,1.7-1.3,3.4-1.7,5.2c-0.5,2.3-0.8,4.5-0.8,6.8c0,5.8,1.8,11.6,5.4,17.4H1678.1z"/>
		<path class="st10" d="M1703.6,369.7l3.5,0.9c-0.7,2.9-2.1,5.1-4,6.6s-4.2,2.3-7,2.3c-2.9,0-5.2-0.6-7-1.7c-1.8-1.2-3.2-2.8-4.1-5
			c-0.9-2.2-1.4-4.6-1.4-7.1c0-2.8,0.5-5.2,1.6-7.2c1.1-2.1,2.6-3.6,4.5-4.7c1.9-1.1,4.1-1.6,6.4-1.6c2.6,0,4.9,0.7,6.7,2
			c1.8,1.3,3.1,3.2,3.8,5.7l-3.5,0.8c-0.6-1.9-1.5-3.3-2.7-4.2c-1.2-0.9-2.6-1.3-4.4-1.3c-2,0-3.7,0.5-5.1,1.5
			c-1.4,1-2.3,2.3-2.9,3.9c-0.6,1.6-0.8,3.3-0.8,5.1c0,2.3,0.3,4.2,1,5.9c0.7,1.7,1.7,2.9,3.1,3.8c1.4,0.8,2.9,1.2,4.5,1.2
			c2,0,3.6-0.6,5-1.7C1702.2,373.6,1703.1,371.9,1703.6,369.7z"/>
		<path class="st10" d="M1723.5,379v-2.8c-1.5,2.2-3.5,3.3-6.1,3.3c-1.1,0-2.2-0.2-3.2-0.7c-1-0.4-1.7-1-2.2-1.6s-0.8-1.5-1-2.4
			c-0.1-0.6-0.2-1.7-0.2-3v-11.9h3.3v10.6c0,1.7,0.1,2.8,0.2,3.4c0.2,0.9,0.6,1.5,1.3,2c0.7,0.5,1.5,0.7,2.5,0.7s1.9-0.2,2.7-0.7
			s1.5-1.2,1.8-2c0.4-0.9,0.5-2.1,0.5-3.7v-10.3h3.3V379H1723.5z"/>
		<path class="st10" d="M1731.5,379v-19.2h2.9v2.7c0.6-0.9,1.4-1.7,2.4-2.3s2.1-0.9,3.4-0.9c1.4,0,2.6,0.3,3.5,0.9
			c0.9,0.6,1.5,1.4,1.9,2.5c1.5-2.2,3.5-3.4,5.9-3.4c1.9,0,3.4,0.5,4.4,1.6s1.5,2.7,1.5,4.9V379h-3.2v-12.1c0-1.3-0.1-2.2-0.3-2.8
			c-0.2-0.6-0.6-1-1.1-1.4c-0.6-0.3-1.2-0.5-2-0.5c-1.3,0-2.5,0.4-3.4,1.3c-0.9,0.9-1.3,2.3-1.3,4.3V379h-3.3v-12.5
			c0-1.4-0.3-2.5-0.8-3.3c-0.5-0.7-1.4-1.1-2.6-1.1c-0.9,0-1.8,0.2-2.5,0.7c-0.8,0.5-1.3,1.2-1.7,2.1c-0.3,0.9-0.5,2.3-0.5,4v10
			H1731.5z"/>
		<path class="st10" d="M1774.9,379v-2.8c-1.5,2.2-3.5,3.3-6.1,3.3c-1.1,0-2.2-0.2-3.2-0.7s-1.7-1-2.2-1.6c-0.5-0.7-0.8-1.5-1-2.4
			c-0.1-0.6-0.2-1.7-0.2-3v-11.9h3.3v10.6c0,1.7,0.1,2.8,0.2,3.4c0.2,0.9,0.6,1.5,1.3,2c0.7,0.5,1.5,0.7,2.5,0.7s1.9-0.2,2.7-0.7
			c0.9-0.5,1.5-1.2,1.8-2c0.4-0.9,0.5-2.1,0.5-3.7v-10.3h3.3V379H1774.9z"/>
		<path class="st10" d="M1782.9,379v-26.5h3.3V379H1782.9z"/>
		<path class="st10" d="M1803.7,376.6c-1.2,1-2.4,1.7-3.5,2.2c-1.1,0.4-2.3,0.6-3.6,0.6c-2.1,0-3.7-0.5-4.9-1.5
			c-1.1-1-1.7-2.3-1.7-3.9c0-0.9,0.2-1.8,0.6-2.6c0.4-0.8,1-1.4,1.7-1.9s1.5-0.8,2.3-1.1c0.6-0.2,1.6-0.3,2.9-0.5
			c2.6-0.3,4.6-0.7,5.8-1.1c0-0.4,0-0.7,0-0.8c0-1.3-0.3-2.3-0.9-2.8c-0.8-0.7-2.1-1.1-3.7-1.1c-1.5,0-2.7,0.3-3.4,0.8
			s-1.3,1.5-1.6,2.8l-3.2-0.4c0.3-1.4,0.8-2.5,1.4-3.3c0.7-0.8,1.6-1.5,2.9-1.9c1.3-0.5,2.7-0.7,4.4-0.7c1.6,0,3,0.2,4,0.6
			s1.8,0.9,2.3,1.5c0.5,0.6,0.8,1.3,1,2.2c0.1,0.6,0.2,1.6,0.2,3v4.3c0,3,0.1,4.9,0.2,5.7c0.1,0.8,0.4,1.6,0.8,2.3h-3.4
			C1804,378.3,1803.8,377.5,1803.7,376.6z M1803.4,369.4c-1.2,0.5-3,0.9-5.3,1.2c-1.3,0.2-2.3,0.4-2.8,0.7c-0.6,0.2-1,0.6-1.3,1.1
			s-0.5,1-0.5,1.5c0,0.9,0.3,1.6,1,2.2s1.6,0.9,2.9,0.9c1.3,0,2.4-0.3,3.3-0.8s1.7-1.3,2.2-2.2c0.3-0.7,0.5-1.8,0.5-3.3V369.4z"/>
		<path class="st10" d="M1818.8,376.1l0.5,2.9c-0.9,0.2-1.7,0.3-2.5,0.3c-1.2,0-2.1-0.2-2.7-0.6c-0.7-0.4-1.1-0.9-1.4-1.5
			s-0.4-1.9-0.4-3.8v-11h-2.4v-2.5h2.4v-4.8l3.2-2v6.7h3.3v2.5h-3.3v11.2c0,0.9,0.1,1.5,0.2,1.8c0.1,0.3,0.3,0.5,0.6,0.6
			c0.3,0.2,0.6,0.2,1.1,0.2C1817.8,376.2,1818.3,376.2,1818.8,376.1z"/>
		<path class="st10" d="M1822,356.3v-3.7h3.3v3.7H1822z M1822,379v-19.2h3.3V379H1822z"/>
		<path class="st10" d="M1835.6,379l-7.3-19.2h3.4l4.1,11.5c0.4,1.2,0.9,2.5,1.2,3.9c0.3-1,0.7-2.2,1.2-3.6l4.3-11.7h3.3l-7.3,19.2
			H1835.6z"/>
		<path class="st10" d="M1861.9,372.8l3.4,0.4c-0.5,2-1.5,3.5-2.9,4.6c-1.4,1.1-3.3,1.6-5.5,1.6c-2.8,0-5-0.9-6.7-2.6
			c-1.6-1.7-2.5-4.2-2.5-7.3c0-3.2,0.8-5.7,2.5-7.5s3.8-2.7,6.5-2.7c2.6,0,4.7,0.9,6.3,2.6c1.6,1.7,2.4,4.2,2.4,7.4
			c0,0.2,0,0.5,0,0.9H1851c0.1,2.1,0.7,3.7,1.8,4.8c1.1,1.1,2.4,1.7,4,1.7c1.2,0,2.2-0.3,3.1-0.9
			C1860.7,375.2,1861.4,374.2,1861.9,372.8z M1851.2,367.6h10.7c-0.1-1.6-0.6-2.8-1.2-3.6c-1-1.3-2.4-1.9-4-1.9
			c-1.5,0-2.7,0.5-3.8,1.5C1851.9,364.6,1851.3,365.9,1851.2,367.6z"/>
		<path class="st10" d="M1871.5,386.8h-2.3c3.6-5.8,5.4-11.6,5.4-17.4c0-2.3-0.3-4.5-0.8-6.7c-0.4-1.8-1-3.5-1.7-5.2
			c-0.5-1.1-1.4-2.9-2.9-5.4h2.3c2.3,3,3.9,6.1,5,9.1c0.9,2.6,1.4,5.4,1.4,8.2c0,3.3-0.6,6.4-1.9,9.4
			C1874.8,381.9,1873.2,384.5,1871.5,386.8z"/>
	</g>
	<g class="st9">
		<path class="st10" d="M2287.9,319.4v-5.8h15v13.7c-1.5,1.4-3.6,2.6-6.3,3.7s-5.6,1.6-8.4,1.6c-3.6,0-6.7-0.8-9.4-2.3
			s-4.7-3.7-6-6.5s-2-5.9-2-9.2c0-3.6,0.8-6.8,2.2-9.5s3.7-4.9,6.6-6.4c2.2-1.1,4.9-1.7,8.2-1.7c4.3,0,7.6,0.9,10,2.7
			s3.9,4.3,4.6,7.4l-6.9,1.3c-0.5-1.7-1.4-3-2.7-4s-3-1.5-5-1.5c-3,0-5.4,1-7.2,2.9s-2.7,4.8-2.7,8.6c0,4.1,0.9,7.1,2.7,9.2
			s4.2,3.1,7.1,3.1c1.5,0,2.9-0.3,4.4-0.9s2.7-1.3,3.8-2.1v-4.4H2287.9z"/>
		<path class="st10" d="M2309.3,297.6h12.7c2.9,0,5,0.2,6.5,0.7c2,0.6,3.7,1.6,5.2,3.2s2.5,3.4,3.3,5.6s1.1,4.9,1.1,8.1
			c0,2.8-0.4,5.3-1.1,7.3c-0.9,2.5-2.1,4.5-3.7,6.1c-1.2,1.2-2.8,2.1-4.9,2.7c-1.5,0.5-3.6,0.7-6.1,0.7h-13.1V297.6z M2316.2,303.5
			v22.8h5.2c1.9,0,3.3-0.1,4.2-0.3c1.1-0.3,2.1-0.8,2.8-1.4s1.3-1.8,1.8-3.3s0.7-3.6,0.7-6.3s-0.2-4.7-0.7-6.1s-1.1-2.5-2-3.3
			s-1.9-1.3-3.2-1.6c-1-0.2-2.9-0.3-5.7-0.3H2316.2z"/>
		<path class="st10" d="M2344,332v-34.4h11.1c4.2,0,7,0.2,8.2,0.5c2,0.5,3.6,1.6,4.9,3.4s2,4,2,6.7c0,2.1-0.4,3.9-1.1,5.3
			s-1.7,2.6-2.9,3.4s-2.4,1.4-3.6,1.6c-1.7,0.3-4.1,0.5-7.2,0.5h-4.5v13H2344z M2350.9,303.5v9.8h3.8c2.7,0,4.6-0.2,5.5-0.5
			s1.6-0.9,2.2-1.7s0.8-1.7,0.8-2.7c0-1.2-0.4-2.3-1.1-3.1s-1.7-1.3-2.8-1.5c-0.8-0.2-2.5-0.2-5-0.2H2350.9z"/>
	</g>
	<g class="st9">
		<path class="st10" d="M2063.4,379v-26.5h9.1c2.1,0,3.6,0.1,4.7,0.4c1.5,0.3,2.8,1,3.9,1.9c1.4,1.2,2.4,2.7,3.1,4.5
			c0.7,1.8,1,3.9,1,6.3c0,2-0.2,3.8-0.7,5.3c-0.5,1.6-1.1,2.8-1.8,3.9c-0.7,1-1.5,1.8-2.4,2.4s-1.9,1-3.2,1.3
			c-1.2,0.3-2.7,0.5-4.3,0.5H2063.4z M2066.9,375.9h5.7c1.7,0,3.1-0.2,4.1-0.5c1-0.3,1.8-0.8,2.4-1.4c0.8-0.8,1.5-1.9,1.9-3.4
			c0.5-1.4,0.7-3.1,0.7-5.1c0-2.8-0.5-4.9-1.4-6.4c-0.9-1.5-2-2.5-3.3-3c-0.9-0.4-2.5-0.5-4.5-0.5h-5.6V375.9z"/>
		<path class="st10" d="M2102.2,376.6c-1.2,1-2.4,1.7-3.5,2.2c-1.1,0.4-2.3,0.6-3.6,0.6c-2.1,0-3.7-0.5-4.9-1.5
			c-1.1-1-1.7-2.3-1.7-3.9c0-0.9,0.2-1.8,0.6-2.6c0.4-0.8,1-1.4,1.7-1.9s1.5-0.8,2.3-1.1c0.6-0.2,1.6-0.3,2.9-0.5
			c2.6-0.3,4.6-0.7,5.8-1.1c0-0.4,0-0.7,0-0.8c0-1.3-0.3-2.3-0.9-2.8c-0.8-0.7-2.1-1.1-3.7-1.1c-1.5,0-2.7,0.3-3.4,0.8
			s-1.3,1.5-1.6,2.8l-3.2-0.4c0.3-1.4,0.8-2.5,1.4-3.3c0.7-0.8,1.6-1.5,2.9-1.9c1.3-0.5,2.7-0.7,4.4-0.7c1.6,0,3,0.2,4,0.6
			s1.8,0.9,2.3,1.5c0.5,0.6,0.8,1.3,1,2.2c0.1,0.6,0.2,1.6,0.2,3v4.3c0,3,0.1,4.9,0.2,5.7c0.1,0.8,0.4,1.6,0.8,2.3h-3.4
			C2102.5,378.3,2102.3,377.5,2102.2,376.6z M2101.9,369.4c-1.2,0.5-3,0.9-5.3,1.2c-1.3,0.2-2.3,0.4-2.8,0.7c-0.6,0.2-1,0.6-1.3,1.1
			s-0.5,1-0.5,1.5c0,0.9,0.3,1.6,1,2.2s1.6,0.9,2.9,0.9c1.3,0,2.4-0.3,3.3-0.8s1.7-1.3,2.2-2.2c0.3-0.7,0.5-1.8,0.5-3.3V369.4z"/>
		<path class="st10" d="M2110.3,356.3v-3.7h3.3v3.7H2110.3z M2110.3,379v-19.2h3.3V379H2110.3z"/>
		<path class="st10" d="M2118.4,379v-26.5h3.3V379H2118.4z"/>
		<path class="st10" d="M2126.5,386.4l-0.4-3.1c0.7,0.2,1.3,0.3,1.9,0.3c0.7,0,1.3-0.1,1.7-0.4s0.8-0.6,1.1-1c0.2-0.3,0.5-1.1,1-2.4
			c0.1-0.2,0.2-0.4,0.3-0.8l-7.3-19.2h3.5l4,11.1c0.5,1.4,1,2.9,1.4,4.4c0.4-1.5,0.8-3,1.3-4.4l4.1-11.2h3.3l-7.3,19.5
			c-0.8,2.1-1.4,3.6-1.8,4.4c-0.6,1.1-1.2,1.9-2,2.4c-0.7,0.5-1.6,0.8-2.7,0.8C2128,386.8,2127.3,386.7,2126.5,386.4z"/>
	</g>
	<g class="st9">
		<path class="st10" d="M2160.3,386.8c-1.8-2.3-3.3-4.9-4.6-7.9s-1.9-6.2-1.9-9.4c0-2.9,0.5-5.6,1.4-8.2c1.1-3,2.8-6.1,5-9.1h2.3
			c-1.5,2.5-2.4,4.3-2.9,5.4c-0.7,1.7-1.3,3.4-1.7,5.2c-0.5,2.3-0.8,4.5-0.8,6.8c0,5.8,1.8,11.6,5.4,17.4H2160.3z"/>
		<path class="st10" d="M2185.7,369.7l3.5,0.9c-0.7,2.9-2.1,5.1-4,6.6c-1.9,1.5-4.2,2.3-7,2.3c-2.9,0-5.2-0.6-7-1.7
			c-1.8-1.2-3.2-2.8-4.1-5c-0.9-2.2-1.4-4.6-1.4-7.1c0-2.8,0.5-5.2,1.6-7.2c1.1-2.1,2.6-3.6,4.5-4.7c1.9-1.1,4.1-1.6,6.4-1.6
			c2.7,0,4.9,0.7,6.7,2c1.8,1.3,3.1,3.2,3.8,5.7l-3.5,0.8c-0.6-1.9-1.5-3.3-2.7-4.2s-2.6-1.3-4.4-1.3c-2,0-3.7,0.5-5.1,1.5
			s-2.3,2.3-2.9,3.9c-0.6,1.6-0.8,3.3-0.8,5.1c0,2.3,0.3,4.2,1,5.9c0.7,1.7,1.7,2.9,3.1,3.8s2.9,1.2,4.5,1.2c2,0,3.6-0.6,5-1.7
			C2184.3,373.6,2185.2,371.9,2185.7,369.7z"/>
		<path class="st10" d="M2191.9,369.4c0-3.6,1-6.2,3-7.9c1.6-1.4,3.7-2.1,6-2.1c2.6,0,4.8,0.9,6.5,2.6c1.7,1.7,2.5,4.1,2.5,7.2
			c0,2.5-0.4,4.4-1.1,5.8c-0.7,1.4-1.8,2.5-3.2,3.3c-1.4,0.8-3,1.2-4.6,1.2c-2.7,0-4.9-0.9-6.5-2.6
			C2192.7,375.1,2191.9,372.6,2191.9,369.4z M2195.2,369.4c0,2.5,0.5,4.3,1.6,5.5c1.1,1.2,2.4,1.8,4,1.8c1.6,0,3-0.6,4-1.8
			c1.1-1.2,1.6-3.1,1.6-5.6c0-2.4-0.5-4.2-1.6-5.4c-1.1-1.2-2.4-1.8-4-1.8c-1.6,0-3,0.6-4,1.8S2195.2,366.9,2195.2,369.4z"/>
		<path class="st10" d="M2213.7,379v-19.2h2.9v2.7c0.6-0.9,1.4-1.7,2.4-2.3c1-0.6,2.1-0.9,3.4-0.9c1.4,0,2.6,0.3,3.5,0.9
			c0.9,0.6,1.5,1.4,1.9,2.5c1.5-2.2,3.5-3.4,5.9-3.4c1.9,0,3.4,0.5,4.4,1.6c1,1.1,1.5,2.7,1.5,4.9V379h-3.2v-12.1
			c0-1.3-0.1-2.2-0.3-2.8s-0.6-1-1.1-1.4c-0.6-0.3-1.2-0.5-2-0.5c-1.3,0-2.5,0.4-3.4,1.3c-0.9,0.9-1.3,2.3-1.3,4.3V379h-3.3v-12.5
			c0-1.4-0.3-2.5-0.8-3.3c-0.5-0.7-1.4-1.1-2.6-1.1c-0.9,0-1.8,0.2-2.5,0.7s-1.3,1.2-1.7,2.1c-0.3,0.9-0.5,2.3-0.5,4v10H2213.7z"/>
		<path class="st10" d="M2244.5,386.4v-26.5h3v2.5c0.7-1,1.5-1.7,2.4-2.2c0.9-0.5,1.9-0.7,3.2-0.7c1.6,0,3.1,0.4,4.3,1.3
			s2.2,2,2.8,3.6c0.6,1.5,1,3.2,1,5c0,2-0.4,3.7-1.1,5.3c-0.7,1.6-1.7,2.8-3.1,3.6c-1.3,0.8-2.8,1.3-4.2,1.3c-1.1,0-2.1-0.2-2.9-0.7
			c-0.9-0.5-1.6-1-2.1-1.7v9.3H2244.5z M2247.4,369.5c0,2.5,0.5,4.3,1.5,5.5s2.2,1.8,3.6,1.8c1.4,0,2.7-0.6,3.7-1.8
			c1-1.2,1.5-3.1,1.5-5.7c0-2.4-0.5-4.3-1.5-5.5c-1-1.2-2.2-1.8-3.6-1.8c-1.4,0-2.6,0.6-3.7,1.9C2248,365.2,2247.4,367,2247.4,369.5
			z"/>
		<path class="st10" d="M2277.6,376.6c-1.2,1-2.4,1.7-3.5,2.2c-1.1,0.4-2.3,0.6-3.6,0.6c-2.1,0-3.7-0.5-4.9-1.5
			c-1.1-1-1.7-2.3-1.7-3.9c0-0.9,0.2-1.8,0.6-2.6c0.4-0.8,1-1.4,1.7-1.9s1.5-0.8,2.3-1.1c0.6-0.2,1.6-0.3,2.9-0.5
			c2.6-0.3,4.6-0.7,5.8-1.1c0-0.4,0-0.7,0-0.8c0-1.3-0.3-2.3-0.9-2.8c-0.8-0.7-2.1-1.1-3.7-1.1c-1.5,0-2.7,0.3-3.4,0.8
			c-0.7,0.5-1.3,1.5-1.6,2.8l-3.2-0.4c0.3-1.4,0.8-2.5,1.4-3.3c0.7-0.8,1.6-1.5,2.9-1.9c1.3-0.5,2.7-0.7,4.4-0.7c1.6,0,3,0.2,4,0.6
			c1,0.4,1.8,0.9,2.3,1.5c0.5,0.6,0.8,1.3,1,2.2c0.1,0.6,0.2,1.6,0.2,3v4.3c0,3,0.1,4.9,0.2,5.7c0.1,0.8,0.4,1.6,0.8,2.3h-3.4
			C2277.9,378.3,2277.7,377.5,2277.6,376.6z M2277.3,369.4c-1.2,0.5-3,0.9-5.3,1.2c-1.3,0.2-2.3,0.4-2.8,0.7c-0.6,0.2-1,0.6-1.3,1.1
			s-0.5,1-0.5,1.5c0,0.9,0.3,1.6,1,2.2s1.6,0.9,2.9,0.9c1.3,0,2.4-0.3,3.3-0.8c1-0.5,1.7-1.3,2.1-2.2c0.3-0.7,0.5-1.8,0.5-3.3V369.4
			z"/>
		<path class="st10" d="M2285.6,379v-19.2h2.9v2.9c0.7-1.4,1.4-2.3,2.1-2.7s1.3-0.7,2.1-0.7c1.1,0,2.2,0.3,3.3,1l-1.1,3
			c-0.8-0.5-1.6-0.7-2.4-0.7c-0.7,0-1.3,0.2-1.9,0.6c-0.6,0.4-1,1-1.2,1.8c-0.4,1.2-0.5,2.4-0.5,3.8v10H2285.6z"/>
		<path class="st10" d="M2311.1,372.8l3.4,0.4c-0.5,2-1.5,3.5-2.9,4.6s-3.3,1.6-5.5,1.6c-2.8,0-5-0.9-6.7-2.6
			c-1.6-1.7-2.5-4.2-2.5-7.3c0-3.2,0.8-5.7,2.5-7.5s3.8-2.7,6.5-2.7c2.6,0,4.7,0.9,6.3,2.6c1.6,1.7,2.4,4.2,2.4,7.4
			c0,0.2,0,0.5,0,0.9h-14.3c0.1,2.1,0.7,3.7,1.8,4.8c1.1,1.1,2.4,1.7,4,1.7c1.2,0,2.2-0.3,3.1-0.9S2310.6,374.2,2311.1,372.8z
			 M2300.4,367.6h10.7c-0.1-1.6-0.6-2.8-1.2-3.6c-1-1.3-2.4-1.9-4-1.9c-1.5,0-2.7,0.5-3.8,1.5
			C2301.1,364.6,2300.5,365.9,2300.4,367.6z"/>
		<path class="st10" d="M2331,379v-2.4c-1.2,1.9-3,2.9-5.4,2.9c-1.5,0-2.9-0.4-4.2-1.3c-1.3-0.8-2.3-2-3-3.5
			c-0.7-1.5-1.1-3.2-1.1-5.2c0-1.9,0.3-3.7,1-5.2s1.6-2.8,2.9-3.6c1.3-0.8,2.7-1.2,4.3-1.2c1.2,0,2.2,0.2,3.1,0.7
			c0.9,0.5,1.6,1.1,2.2,1.9v-9.5h3.2V379H2331z M2320.7,369.4c0,2.5,0.5,4.3,1.6,5.5c1,1.2,2.3,1.8,3.7,1.8c1.4,0,2.6-0.6,3.6-1.7
			c1-1.2,1.5-2.9,1.5-5.3c0-2.6-0.5-4.6-1.5-5.8s-2.3-1.8-3.7-1.8c-1.4,0-2.7,0.6-3.6,1.8C2321.2,365,2320.7,366.9,2320.7,369.4z"/>
		<path class="st10" d="M2356.5,376.1l0.5,2.9c-0.9,0.2-1.7,0.3-2.5,0.3c-1.2,0-2.1-0.2-2.7-0.6c-0.7-0.4-1.1-0.9-1.4-1.5
			c-0.3-0.6-0.4-1.9-0.4-3.8v-11h-2.4v-2.5h2.4v-4.8l3.2-2v6.7h3.3v2.5h-3.3v11.2c0,0.9,0.1,1.5,0.2,1.8c0.1,0.3,0.3,0.5,0.6,0.6
			c0.3,0.2,0.6,0.2,1.1,0.2C2355.4,376.2,2355.9,376.2,2356.5,376.1z"/>
		<path class="st10" d="M2358.5,369.4c0-3.6,1-6.2,3-7.9c1.6-1.4,3.7-2.1,6-2.1c2.6,0,4.8,0.9,6.5,2.6c1.7,1.7,2.5,4.1,2.5,7.2
			c0,2.5-0.4,4.4-1.1,5.8c-0.7,1.4-1.8,2.5-3.2,3.3c-1.4,0.8-3,1.2-4.6,1.2c-2.7,0-4.9-0.9-6.5-2.6
			C2359.3,375.1,2358.5,372.6,2358.5,369.4z M2361.8,369.4c0,2.5,0.5,4.3,1.6,5.5c1.1,1.2,2.4,1.8,4,1.8c1.6,0,3-0.6,4-1.8
			s1.6-3.1,1.6-5.6c0-2.4-0.5-4.2-1.6-5.4c-1.1-1.2-2.4-1.8-4-1.8c-1.6,0-3,0.6-4,1.8S2361.8,366.9,2361.8,369.4z"/>
		<path class="st10" d="M2390.5,386.4v-26.5h3v2.5c0.7-1,1.5-1.7,2.4-2.2c0.9-0.5,1.9-0.7,3.2-0.7c1.6,0,3.1,0.4,4.3,1.3
			s2.2,2,2.8,3.6c0.6,1.5,1,3.2,1,5c0,2-0.4,3.7-1.1,5.3c-0.7,1.6-1.7,2.8-3.1,3.6c-1.3,0.8-2.8,1.3-4.2,1.3c-1.1,0-2.1-0.2-2.9-0.7
			c-0.9-0.5-1.6-1-2.1-1.7v9.3H2390.5z M2393.5,369.5c0,2.5,0.5,4.3,1.5,5.5s2.2,1.8,3.6,1.8c1.4,0,2.7-0.6,3.7-1.8
			c1-1.2,1.5-3.1,1.5-5.7c0-2.4-0.5-4.3-1.5-5.5c-1-1.2-2.2-1.8-3.6-1.8c-1.4,0-2.6,0.6-3.7,1.9C2394,365.2,2393.5,367,2393.5,369.5
			z"/>
		<path class="st10" d="M2411.1,379v-19.2h2.9v2.9c0.7-1.4,1.4-2.3,2.1-2.7c0.6-0.4,1.3-0.7,2.1-0.7c1.1,0,2.2,0.3,3.3,1l-1.1,3
			c-0.8-0.5-1.6-0.7-2.4-0.7c-0.7,0-1.3,0.2-1.9,0.6s-1,1-1.2,1.8c-0.4,1.2-0.5,2.4-0.5,3.8v10H2411.1z"/>
		<path class="st10" d="M2436.6,372.8l3.4,0.4c-0.5,2-1.5,3.5-2.9,4.6s-3.3,1.6-5.5,1.6c-2.8,0-5-0.9-6.7-2.6
			c-1.6-1.7-2.5-4.2-2.5-7.3c0-3.2,0.8-5.7,2.5-7.5s3.8-2.7,6.5-2.7c2.6,0,4.7,0.9,6.3,2.6c1.6,1.7,2.4,4.2,2.4,7.4
			c0,0.2,0,0.5,0,0.9h-14.3c0.1,2.1,0.7,3.7,1.8,4.8c1.1,1.1,2.4,1.7,4,1.7c1.2,0,2.2-0.3,3.1-0.9
			C2435.4,375.2,2436.1,374.2,2436.6,372.8z M2425.9,367.6h10.7c-0.1-1.6-0.6-2.8-1.2-3.6c-1-1.3-2.4-1.9-4-1.9
			c-1.5,0-2.7,0.5-3.8,1.5C2426.6,364.6,2426,365.9,2425.9,367.6z"/>
	</g>
	<g class="st9">
		<path class="st10" d="M2442.1,371.1v-3.3h10v3.3H2442.1z"/>
	</g>
	<g class="st9">
		<path class="st10" d="M2483.3,369.7l3.5,0.9c-0.7,2.9-2.1,5.1-4,6.6c-1.9,1.5-4.2,2.3-7,2.3c-2.9,0-5.2-0.6-7-1.7
			c-1.8-1.2-3.1-2.8-4.1-5c-0.9-2.2-1.4-4.6-1.4-7.1c0-2.8,0.5-5.2,1.6-7.2c1.1-2.1,2.6-3.6,4.5-4.7c1.9-1.1,4.1-1.6,6.4-1.6
			c2.6,0,4.9,0.7,6.7,2c1.8,1.3,3.1,3.2,3.8,5.7l-3.5,0.8c-0.6-1.9-1.5-3.3-2.7-4.2s-2.6-1.3-4.4-1.3c-2,0-3.7,0.5-5.1,1.5
			s-2.3,2.3-2.9,3.9c-0.6,1.6-0.8,3.3-0.8,5.1c0,2.3,0.3,4.2,1,5.9c0.7,1.7,1.7,2.9,3.1,3.8s2.9,1.2,4.5,1.2c2,0,3.6-0.6,5-1.7
			C2481.9,373.6,2482.8,371.9,2483.3,369.7z"/>
		<path class="st10" d="M2490.1,366.1c0-4.4,1.2-7.8,3.5-10.3c2.4-2.5,5.4-3.7,9.1-3.7c2.4,0,4.6,0.6,6.6,1.8c2,1.2,3.5,2.8,4.5,4.9
			c1,2.1,1.5,4.5,1.5,7.1c0,2.7-0.5,5.1-1.6,7.2s-2.6,3.7-4.6,4.8c-2,1.1-4.1,1.6-6.4,1.6c-2.5,0-4.7-0.6-6.7-1.8
			c-2-1.2-3.5-2.8-4.5-4.9S2490.1,368.4,2490.1,366.1z M2493.7,366.2c0,3.2,0.9,5.7,2.6,7.5c1.7,1.8,3.9,2.8,6.5,2.8
			c2.6,0,4.8-0.9,6.5-2.8c1.7-1.9,2.6-4.5,2.6-7.9c0-2.2-0.4-4-1.1-5.6c-0.7-1.6-1.8-2.9-3.2-3.7c-1.4-0.9-3-1.3-4.7-1.3
			c-2.5,0-4.6,0.9-6.4,2.6C2494.6,359.3,2493.7,362.2,2493.7,366.2z"/>
		<path class="st10" d="M2527.5,379l-10.3-26.5h3.8l6.9,19.2c0.6,1.5,1,3,1.4,4.3c0.4-1.4,0.9-2.9,1.4-4.3l7.2-19.2h3.6l-10.4,26.5
			H2527.5z"/>
		<path class="st10" d="M2545.2,379v-26.5h3.5V379H2545.2z"/>
		<path class="st10" d="M2554.9,379v-26.5h9.1c2.1,0,3.6,0.1,4.7,0.4c1.5,0.3,2.8,1,3.9,1.9c1.4,1.2,2.4,2.7,3.1,4.5
			c0.7,1.8,1,3.9,1,6.3c0,2-0.2,3.8-0.7,5.3c-0.5,1.6-1.1,2.8-1.8,3.9c-0.7,1-1.5,1.8-2.4,2.4c-0.9,0.6-1.9,1-3.2,1.3
			c-1.2,0.3-2.7,0.5-4.3,0.5H2554.9z M2558.4,375.9h5.7c1.7,0,3.1-0.2,4.1-0.5c1-0.3,1.8-0.8,2.4-1.4c0.8-0.8,1.5-1.9,1.9-3.4
			c0.5-1.4,0.7-3.1,0.7-5.1c0-2.8-0.5-4.9-1.4-6.4c-0.9-1.5-2-2.5-3.3-3c-0.9-0.4-2.5-0.5-4.5-0.5h-5.6V375.9z"/>
		<path class="st10" d="M2583.3,386.8h-2.3c3.6-5.8,5.4-11.6,5.4-17.4c0-2.3-0.3-4.5-0.8-6.7c-0.4-1.8-1-3.5-1.7-5.2
			c-0.5-1.1-1.4-2.9-2.9-5.4h2.3c2.3,3,3.9,6.1,5,9.1c0.9,2.6,1.4,5.4,1.4,8.2c0,3.3-0.6,6.4-1.9,9.4
			C2586.6,381.9,2585.1,384.5,2583.3,386.8z"/>
	</g>
	<g class="st9">
		<path class="st10" d="M2762.7,320.8l6.8-0.7c0.4,2.3,1.2,3.9,2.5,5s2.9,1.6,5,1.6c2.2,0,3.9-0.5,5.1-1.4s1.7-2.1,1.7-3.3
			c0-0.8-0.2-1.5-0.7-2.1s-1.3-1.1-2.5-1.5c-0.8-0.3-2.7-0.8-5.6-1.5c-3.7-0.9-6.3-2.1-7.8-3.4c-2.1-1.9-3.2-4.2-3.2-6.9
			c0-1.8,0.5-3.4,1.5-4.9s2.4-2.7,4.3-3.5s4.1-1.2,6.8-1.2c4.3,0,7.6,0.9,9.7,2.8s3.3,4.4,3.4,7.6l-6.9,0.3c-0.3-1.8-0.9-3-1.9-3.8
			s-2.4-1.2-4.4-1.2c-2,0-3.6,0.4-4.7,1.2c-0.7,0.5-1.1,1.2-1.1,2.1c0,0.8,0.3,1.5,1,2.1c0.9,0.7,3,1.5,6.4,2.3s5.9,1.6,7.5,2.5
			s2.9,2,3.8,3.5s1.4,3.3,1.4,5.5c0,2-0.5,3.8-1.6,5.5s-2.6,3-4.6,3.8s-4.5,1.3-7.5,1.3c-4.3,0-7.7-1-10-3
			S2763.1,324.7,2762.7,320.8z"/>
		<path class="st10" d="M2796.2,307.1h6.1v3.7c0.8-1.2,1.9-2.3,3.2-3s2.9-1.2,4.5-1.2c2.9,0,5.3,1.1,7.4,3.4s3,5.4,3,9.5
			c0,4.2-1,7.4-3,9.7s-4.5,3.5-7.4,3.5c-1.4,0-2.6-0.3-3.7-0.8s-2.3-1.5-3.5-2.8v12.5h-6.6V307.1z M2802.7,319.1
			c0,2.8,0.6,4.9,1.7,6.2s2.5,2,4.1,2c1.5,0,2.8-0.6,3.8-1.8s1.5-3.2,1.5-6c0-2.6-0.5-4.5-1.6-5.8s-2.3-1.9-3.9-1.9
			c-1.6,0-2.9,0.6-4,1.9S2802.7,316.7,2802.7,319.1z"/>
		<path class="st10" d="M2840.1,324.1l6.6,1.1c-0.8,2.4-2.2,4.2-4,5.5s-4.1,1.9-6.8,1.9c-4.3,0-7.5-1.4-9.6-4.2
			c-1.6-2.3-2.5-5.1-2.5-8.6c0-4.1,1.1-7.4,3.2-9.7s4.9-3.5,8.2-3.5c3.7,0,6.6,1.2,8.8,3.7s3.2,6.2,3.1,11.2h-16.5
			c0,2,0.6,3.5,1.6,4.6s2.3,1.6,3.8,1.6c1,0,1.9-0.3,2.6-0.8S2839.8,325.3,2840.1,324.1z M2840.5,317.4c0-1.9-0.5-3.4-1.5-4.3
			s-2.1-1.5-3.4-1.5c-1.4,0-2.6,0.5-3.6,1.6s-1.4,2.5-1.4,4.3H2840.5z"/>
		<path class="st10" d="M2875.1,332h-6.6v-12.7c0-2.7-0.1-4.4-0.4-5.2s-0.7-1.4-1.4-1.8s-1.4-0.7-2.3-0.7c-1.1,0-2.2,0.3-3.1,0.9
			s-1.5,1.5-1.9,2.5s-0.5,2.9-0.5,5.7V332h-6.6v-24.9h6.1v3.7c2.2-2.8,4.9-4.2,8.2-4.2c1.5,0,2.8,0.3,4,0.8s2.1,1.2,2.7,2
			s1,1.7,1.3,2.8s0.4,2.5,0.4,4.4V332z"/>
		<path class="st10" d="M2893.2,307.1v5.2h-4.5v10c0,2,0,3.2,0.1,3.6s0.3,0.6,0.6,0.8s0.7,0.3,1.1,0.3c0.6,0,1.5-0.2,2.6-0.6
			l0.6,5.1c-1.5,0.7-3.3,1-5.2,1c-1.2,0-2.3-0.2-3.2-0.6s-1.7-0.9-2.1-1.5s-0.8-1.5-0.9-2.6c-0.1-0.8-0.2-2.3-0.2-4.6v-10.9h-3v-5.2
			h3v-4.9l6.6-3.8v8.8H2893.2z"/>
		<path class="st10" d="M2911.1,297.6h13.7c2.7,0,4.7,0.1,6.1,0.3s2.5,0.7,3.6,1.4s1.9,1.7,2.6,2.9s1.1,2.5,1.1,4
			c0,1.6-0.4,3.1-1.3,4.4s-2,2.4-3.5,3c2.1,0.6,3.7,1.6,4.8,3.1s1.7,3.2,1.7,5.2c0,1.6-0.4,3.1-1.1,4.6s-1.7,2.7-3,3.5
			s-2.8,1.4-4.7,1.6c-1.2,0.1-3.9,0.2-8.4,0.2h-11.7V297.6z M2918.1,303.4v7.9h4.5c2.7,0,4.4,0,5-0.1c1.2-0.1,2.1-0.6,2.8-1.2
			s1-1.6,1-2.7c0-1.1-0.3-1.9-0.9-2.6s-1.5-1.1-2.6-1.2c-0.7-0.1-2.7-0.1-5.9-0.1H2918.1z M2918.1,317v9.2h6.4
			c2.5,0,4.1-0.1,4.8-0.2c1-0.2,1.9-0.6,2.5-1.4s1-1.7,1-2.9c0-1-0.2-1.9-0.8-2.6s-1.2-1.2-2.2-1.6s-3-0.5-6.2-0.5H2918.1z"/>
		<path class="st10" d="M2962.1,332v-3.7c-0.9,1.3-2.1,2.4-3.6,3.1s-3,1.1-4.7,1.1c-1.7,0-3.2-0.4-4.5-1.1s-2.3-1.8-2.9-3.1
			s-0.9-3.2-0.9-5.5v-15.8h6.6v11.4c0,3.5,0.1,5.6,0.4,6.4s0.7,1.4,1.3,1.9s1.5,0.7,2.4,0.7c1.1,0,2.1-0.3,3-0.9s1.5-1.4,1.8-2.3
			s0.5-3.2,0.5-6.7v-10.5h6.6V332H2962.1z"/>
		<path class="st10" d="M2997.9,332h-6.1v-3.7c-1,1.4-2.2,2.5-3.6,3.2s-2.8,1-4.2,1c-2.9,0-5.3-1.2-7.3-3.5s-3.1-5.5-3.1-9.6
			c0-4.2,1-7.4,3-9.6s4.5-3.3,7.5-3.3c2.8,0,5.2,1.2,7.2,3.5v-12.4h6.6V332z M2980.3,319c0,2.7,0.4,4.6,1.1,5.8
			c1.1,1.7,2.5,2.6,4.5,2.6c1.5,0,2.8-0.6,3.9-1.9s1.6-3.2,1.6-5.8c0-2.9-0.5-4.9-1.5-6.2s-2.4-1.9-4-1.9c-1.6,0-2.9,0.6-3.9,1.9
			S2980.3,316.5,2980.3,319z"/>
		<path class="st10" d="M3003.8,333.6l7.5,0.9c0.1,0.9,0.4,1.5,0.9,1.8c0.6,0.5,1.6,0.7,3,0.7c1.7,0,3-0.3,3.9-0.8
			c0.6-0.3,1-0.9,1.3-1.7c0.2-0.5,0.3-1.6,0.3-3V328c-2,2.7-4.5,4-7.5,4c-3.3,0-6-1.4-7.9-4.2c-1.5-2.2-2.3-5-2.3-8.3
			c0-4.2,1-7.4,3-9.6s4.5-3.3,7.5-3.3c3.1,0,5.6,1.4,7.6,4.1v-3.5h6.2v22.3c0,2.9-0.2,5.1-0.7,6.6s-1.2,2.6-2,3.4s-2,1.5-3.5,1.9
			s-3.3,0.7-5.5,0.7c-4.2,0-7.2-0.7-9-2.2s-2.6-3.3-2.6-5.5C3003.7,334.2,3003.7,334,3003.8,333.6z M3009.6,319
			c0,2.6,0.5,4.6,1.5,5.8s2.3,1.8,3.8,1.8c1.6,0,3-0.6,4.1-1.9s1.7-3.1,1.7-5.6c0-2.6-0.5-4.5-1.6-5.7s-2.4-1.9-4-1.9
			c-1.6,0-2.9,0.6-3.9,1.8S3009.6,316.5,3009.6,319z"/>
		<path class="st10" d="M3048.1,324.1l6.6,1.1c-0.8,2.4-2.2,4.2-4,5.5s-4.1,1.9-6.8,1.9c-4.3,0-7.5-1.4-9.6-4.2
			c-1.6-2.3-2.5-5.1-2.5-8.6c0-4.1,1.1-7.4,3.2-9.7s4.9-3.5,8.2-3.5c3.7,0,6.6,1.2,8.8,3.7s3.2,6.2,3.1,11.2h-16.5
			c0,2,0.6,3.5,1.6,4.6s2.3,1.6,3.8,1.6c1,0,1.9-0.3,2.6-0.8S3047.7,325.3,3048.1,324.1z M3048.5,317.4c0-1.9-0.5-3.4-1.5-4.3
			s-2.1-1.5-3.4-1.5c-1.4,0-2.6,0.5-3.6,1.6s-1.4,2.5-1.4,4.3H3048.5z"/>
		<path class="st10" d="M3071.8,307.1v5.2h-4.5v10c0,2,0,3.2,0.1,3.6s0.3,0.6,0.6,0.8s0.7,0.3,1.1,0.3c0.6,0,1.5-0.2,2.6-0.6
			l0.6,5.1c-1.5,0.7-3.3,1-5.2,1c-1.2,0-2.3-0.2-3.2-0.6s-1.7-0.9-2.1-1.5s-0.8-1.5-0.9-2.6c-0.1-0.8-0.2-2.3-0.2-4.6v-10.9h-3v-5.2
			h3v-4.9l6.6-3.8v8.8H3071.8z"/>
	</g>
	<g class="st9">
		<path class="st10" d="M2816.1,379v-23.4h-8.7v-3.1h21v3.1h-8.8V379H2816.1z"/>
		<path class="st10" d="M2826.2,369.4c0-3.6,1-6.2,3-7.9c1.6-1.4,3.7-2.1,6-2.1c2.6,0,4.8,0.9,6.5,2.6c1.7,1.7,2.5,4.1,2.5,7.2
			c0,2.5-0.4,4.4-1.1,5.8c-0.7,1.4-1.8,2.5-3.2,3.3c-1.4,0.8-3,1.2-4.6,1.2c-2.7,0-4.9-0.9-6.5-2.6
			C2827,375.1,2826.2,372.6,2826.2,369.4z M2829.6,369.4c0,2.5,0.5,4.3,1.6,5.5c1.1,1.2,2.4,1.8,4,1.8c1.6,0,3-0.6,4-1.8
			s1.6-3.1,1.6-5.6c0-2.4-0.5-4.2-1.6-5.4c-1.1-1.2-2.4-1.8-4-1.8c-1.6,0-3,0.6-4,1.8S2829.6,366.9,2829.6,369.4z"/>
		<path class="st10" d="M2855.1,376.1l0.5,2.9c-0.9,0.2-1.7,0.3-2.5,0.3c-1.2,0-2.1-0.2-2.7-0.6c-0.7-0.4-1.1-0.9-1.4-1.5
			c-0.3-0.6-0.4-1.9-0.4-3.8v-11h-2.4v-2.5h2.4v-4.8l3.2-2v6.7h3.3v2.5h-3.3v11.2c0,0.9,0.1,1.5,0.2,1.8c0.1,0.3,0.3,0.5,0.6,0.6
			c0.3,0.2,0.6,0.2,1.1,0.2C2854,376.2,2854.5,376.2,2855.1,376.1z"/>
		<path class="st10" d="M2870.8,376.6c-1.2,1-2.4,1.7-3.5,2.2c-1.1,0.4-2.3,0.6-3.6,0.6c-2.1,0-3.7-0.5-4.9-1.5
			c-1.1-1-1.7-2.3-1.7-3.9c0-0.9,0.2-1.8,0.6-2.6c0.4-0.8,1-1.4,1.7-1.9c0.7-0.5,1.5-0.8,2.3-1.1c0.6-0.2,1.6-0.3,2.9-0.5
			c2.6-0.3,4.6-0.7,5.8-1.1c0-0.4,0-0.7,0-0.8c0-1.3-0.3-2.3-0.9-2.8c-0.8-0.7-2.1-1.1-3.7-1.1c-1.5,0-2.7,0.3-3.4,0.8
			s-1.3,1.5-1.6,2.8l-3.2-0.4c0.3-1.4,0.8-2.5,1.4-3.3c0.7-0.8,1.6-1.5,2.9-1.9c1.3-0.5,2.7-0.7,4.4-0.7c1.6,0,3,0.2,4,0.6
			s1.8,0.9,2.3,1.5c0.5,0.6,0.8,1.3,1,2.2c0.1,0.6,0.2,1.6,0.2,3v4.3c0,3,0.1,4.9,0.2,5.7c0.1,0.8,0.4,1.6,0.8,2.3h-3.4
			C2871.1,378.3,2870.9,377.5,2870.8,376.6z M2870.5,369.4c-1.2,0.5-3,0.9-5.3,1.2c-1.3,0.2-2.3,0.4-2.8,0.7c-0.6,0.2-1,0.6-1.3,1.1
			c-0.3,0.5-0.5,1-0.5,1.5c0,0.9,0.3,1.6,1,2.2c0.7,0.6,1.6,0.9,2.9,0.9c1.3,0,2.4-0.3,3.3-0.8s1.7-1.3,2.2-2.2
			c0.3-0.7,0.5-1.8,0.5-3.3V369.4z"/>
		<path class="st10" d="M2878.8,379v-26.5h3.3V379H2878.8z"/>
		<path class="st10" d="M2903.6,386.8c-1.8-2.3-3.3-4.9-4.6-7.9s-1.9-6.2-1.9-9.4c0-2.9,0.5-5.6,1.4-8.2c1.1-3,2.8-6.1,5-9.1h2.3
			c-1.5,2.5-2.4,4.3-2.9,5.4c-0.7,1.7-1.3,3.4-1.7,5.2c-0.5,2.3-0.8,4.5-0.8,6.8c0,5.8,1.8,11.6,5.4,17.4H2903.6z"/>
	</g>
	<g class="st9">
		<path class="st10" d="M2911.7,379v-26.5h9.9c2,0,3.6,0.3,4.9,0.8c1.2,0.5,2.2,1.4,2.9,2.5s1,2.3,1,3.5c0,1.1-0.3,2.2-0.9,3.2
			s-1.5,1.8-2.8,2.4c1.6,0.5,2.8,1.3,3.7,2.4c0.9,1.1,1.3,2.5,1.3,4c0,1.2-0.3,2.4-0.8,3.5c-0.5,1.1-1.2,1.9-1.9,2.5
			c-0.8,0.6-1.7,1-2.9,1.3c-1.2,0.3-2.6,0.4-4.3,0.4H2911.7z M2915.2,363.6h5.7c1.6,0,2.7-0.1,3.3-0.3c0.9-0.3,1.6-0.7,2-1.3
			c0.5-0.6,0.7-1.4,0.7-2.3c0-0.9-0.2-1.7-0.6-2.3c-0.4-0.7-1-1.1-1.8-1.4c-0.8-0.2-2.1-0.4-4-0.4h-5.3V363.6z M2915.2,375.9h6.6
			c1.1,0,1.9,0,2.4-0.1c0.8-0.1,1.5-0.4,2-0.7s1-0.8,1.3-1.5c0.3-0.6,0.5-1.4,0.5-2.2c0-1-0.3-1.8-0.8-2.6c-0.5-0.7-1.2-1.2-2.1-1.5
			c-0.9-0.3-2.2-0.4-3.9-0.4h-6.1V375.9z"/>
		<path class="st10" d="M2936.6,379v-26.5h19.2v3.1h-15.6v8.1h14.7v3.1h-14.7v9h16.3v3.1H2936.6z"/>
		<path class="st10" d="M2968,379v-23.4h-8.7v-3.1h21v3.1h-8.8V379H2968z"/>
		<path class="st10" d="M2978.2,379l10.2-26.5h3.8L3003,379h-4l-3.1-8h-11.1l-2.9,8H2978.2z M2985.8,368.1h9l-2.8-7.3
			c-0.8-2.2-1.5-4.1-1.9-5.5c-0.3,1.7-0.8,3.4-1.4,5.1L2985.8,368.1z"/>
	</g>
	<g class="st9">
		<path class="st10" d="M3004.7,386.8h-2.3c3.6-5.8,5.4-11.6,5.4-17.4c0-2.3-0.3-4.5-0.8-6.7c-0.4-1.8-1-3.5-1.7-5.2
			c-0.5-1.1-1.4-2.9-2.9-5.4h2.3c2.3,3,3.9,6.1,5,9.1c0.9,2.6,1.4,5.4,1.4,8.2c0,3.3-0.6,6.4-1.9,9.4
			C3008,381.9,3006.5,384.5,3004.7,386.8z"/>
	</g>
	<path class="st8" d="M1431.5,446.5v69.3"/>
	<path class="st8" d="M2025.5,446.5v69.3"/>
	<path class="st8" d="M2619.5,446.5v69.3"/>
</g>
</svg>
