<?xml version="1.0" encoding="utf-8"?>
<!-- Generator: Adobe Illustrator 26.0.1, SVG Export Plug-In . SVG Version: 6.00 Build 0)  -->
<svg version="1.1" id="레이어_1" xmlns="http://www.w3.org/2000/svg" xmlns:xlink="http://www.w3.org/1999/xlink" x="0px"
	 y="0px" viewBox="0 0 3240 312" style="enable-background:new 0 0 3240 312;" xml:space="preserve">
<style type="text/css">
	.st0{fill:none;}
	.st1{fill:#EEEFEF;}
	.st2{fill-rule:evenodd;clip-rule:evenodd;fill:#3774B3;}
	.st3{fill:#706092;}
	.st4{fill-rule:evenodd;clip-rule:evenodd;fill:#FFFFFF;}
	.st5{fill-rule:evenodd;clip-rule:evenodd;fill:#9D9D9D;}
	.st6{fill:#4EA5A8;}
	.st7{fill:#4677C2;}
	.st8{fill:none;stroke:#D9D9D9;stroke-width:3.4375;stroke-linecap:round;stroke-miterlimit:8;}
	.st9{enable-background:new    ;}
	.st10{fill:#FFFFFF;}
</style>
<rect class="st0" width="3240" height="312"/>
<rect class="st1" width="3240" height="312"/>
<path class="st2" d="M224,37.8c0-9.9,8-17.8,17.8-17.8h2929.3c9.9,0,17.8,8,17.8,17.8v88.3c0,9.9-8,17.8-17.8,17.8H241.8
	c-9.9,0-17.8-8-17.8-17.8V37.8z"/>
<rect x="2004" y="20" class="st3" width="593" height="124"/>
<path class="st4" d="M224,177.8c0-9.9,8-17.8,17.8-17.8h2929.3c9.9,0,17.8,8,17.8,17.8v88.3c0,9.9-8,17.8-17.8,17.8H241.8
	c-9.9,0-17.8-8-17.8-17.8V177.8z"/>
<path class="st5" d="M239.3,20H815v124H239.3c-8.4,0-15.3-8-15.3-17.8V37.8C224,28,230.8,20,239.3,20z"/>
<rect x="815" y="20" class="st6" width="596" height="124"/>
<rect x="1410" y="20" class="st7" width="593" height="124"/>
<path class="st8" d="M815.5,187.5v69.3"/>
<g class="st9">
	<path class="st10" d="M479.7,38.2c0.5,0,0.8,0.1,1,0.3c0.2,0.2,0.3,0.6,0.3,1c-0.6,5.3-2.4,9.7-5.6,13.3c-3.2,3.6-7.7,6.4-13.6,8.3
		l-3.4-3.9c4.6-1.2,8.3-3.1,11-5.5c2.8-2.4,4.6-5.4,5.4-9h-14.1v-4.6H479.7z M466.2,62.4h25.3c0.5,0,0.8,0.1,1,0.3
		c0.2,0.2,0.3,0.6,0.3,1v13.8c0,0.5-0.1,0.9-0.3,1.1c-0.2,0.2-0.6,0.3-1,0.3h-25.3c-0.5,0-0.9-0.1-1.1-0.3s-0.3-0.5-0.3-1.1V63.8
		c0-0.5,0.1-0.8,0.3-1C465.4,62.5,465.7,62.4,466.2,62.4z M487.5,74.5V67h-17.3v7.5H487.5z M492.9,36.4v9.5h5.6v4.6h-5.6v10.3h-5.4
		V36.4H492.9z"/>
	<path class="st10" d="M500.9,47.9c0-1.5,0.3-3,0.8-4.3c0.6-1.3,1.3-2.5,2.3-3.5c1-1,2.2-1.8,3.6-2.4c1.4-0.6,2.9-0.9,4.6-0.9
		c1.9,0,3.6,0.4,5.2,1.1s2.8,1.8,3.8,3h9.1v-4.5h5.5V61h-5.5v-6.2h-8.9c-1,1.3-2.3,2.4-3.9,3.1c-1.6,0.8-3.3,1.1-5.3,1.1
		c-1.7,0-3.2-0.3-4.6-0.8c-1.4-0.6-2.6-1.3-3.6-2.3c-1-1-1.8-2.2-2.3-3.5C501.2,51,500.9,49.5,500.9,47.9z M512.3,54.4
		c1.8,0,3.3-0.6,4.3-1.9c1.1-1.3,1.6-2.8,1.6-4.5c0-1.8-0.5-3.3-1.6-4.6c-1.1-1.3-2.5-1.9-4.3-1.9c-1.9,0-3.3,0.6-4.4,1.9
		c-1.1,1.2-1.6,2.8-1.6,4.6c0,1.7,0.5,3.2,1.6,4.5C508.9,53.8,510.4,54.4,512.3,54.4z M508.3,62.7h26.2c0.5,0,0.8,0.1,1,0.3
		c0.2,0.2,0.3,0.6,0.3,1v13.5c0,0.5-0.1,0.9-0.3,1.1c-0.2,0.2-0.6,0.3-1,0.3h-26.2c-0.5,0-0.9-0.1-1.1-0.3c-0.2-0.2-0.3-0.5-0.3-1.1
		V64.1c0-0.5,0.1-0.8,0.3-1C507.4,62.8,507.8,62.7,508.3,62.7z M530.4,74.5v-7.3h-18.1v7.3H530.4z M523.4,45.4
		c0.1,0.4,0.2,0.8,0.2,1.2s0.1,0.8,0.1,1.2s0,0.8-0.1,1.2c0,0.4-0.1,0.8-0.2,1.1h6.9v-4.8H523.4z"/>
	<path class="st10" d="M540.3,67.9c3.8-2.3,6.7-5.1,8.7-8.5c2-3.4,3-7.5,3-12.3v-3.5h-8.6V39h23.2v4.5h-8.8v3.7
		c0,4.4,0.9,8.2,2.8,11.5c1.9,3.2,4.6,5.9,8.3,8l-3.9,3.7c-2-1.3-4-3-5.9-5c-1.9-2-3.2-4.1-4.2-6.3c-0.8,2.2-2.1,4.4-4,6.6
		c-1.9,2.2-3.9,4.1-6.1,5.7L540.3,67.9z M576.4,36.4v16.2h6v4.8h-6v21.9H571v-43H576.4z"/>
</g>
<g class="st9">
	<path class="st10" d="M376.5,108c-1.1,0-2.2-0.2-3.2-0.6c-1-0.4-1.9-0.9-2.6-1.6c-0.8-0.7-1.4-1.5-1.8-2.5c-0.4-0.9-0.6-2-0.6-3.1
		s0.2-2.2,0.6-3.2c0.4-1,1-1.8,1.8-2.5c0.7-0.7,1.6-1.2,2.6-1.6s2.1-0.6,3.2-0.6c1.1,0,2.2,0.2,3.2,0.6s1.9,0.9,2.6,1.6
		c0.8,0.7,1.4,1.6,1.8,2.5s0.7,2,0.7,3.1s-0.2,2.2-0.7,3.1c-0.4,1-1,1.8-1.8,2.5c-0.8,0.7-1.6,1.2-2.6,1.6
		C378.7,107.8,377.6,108,376.5,108z M371.1,100.2c0,1.5,0.5,2.7,1.5,3.8c1,1,2.3,1.5,3.9,1.5c1.6,0,2.9-0.5,3.9-1.5
		c1-1,1.5-2.3,1.5-3.8c0-1.5-0.5-2.7-1.6-3.8c-1-1-2.3-1.6-3.9-1.6c-0.8,0-1.5,0.1-2.2,0.4c-0.7,0.3-1.2,0.7-1.7,1.2
		c-0.5,0.5-0.8,1.1-1.1,1.7C371.2,98.8,371.1,99.5,371.1,100.2z M373.7,124.5c-0.3,0-0.5-0.1-0.6-0.2c-0.1-0.1-0.2-0.3-0.2-0.6v-6.5
		c0-0.3,0.1-0.5,0.2-0.6c0.1-0.1,0.3-0.2,0.6-0.2H391v-3.3h-18.1v-2.4h20.5c0.3,0,0.5,0.1,0.6,0.2c0.1,0.1,0.2,0.3,0.2,0.6v6.4
		c0,0.3-0.1,0.5-0.2,0.6c-0.1,0.1-0.3,0.2-0.6,0.2H376v3.5h18.9v2.4H373.7z M394.3,92v16.8h-2.9V92H394.3z"/>
	<path class="st10" d="M408.8,108c-1.1,0-2.2-0.2-3.2-0.6c-1-0.4-1.9-0.9-2.6-1.6c-0.8-0.7-1.4-1.5-1.8-2.5c-0.4-0.9-0.6-2-0.6-3.1
		s0.2-2.2,0.6-3.2c0.4-1,1-1.8,1.8-2.5c0.7-0.7,1.6-1.2,2.6-1.6s2.1-0.6,3.2-0.6c1.1,0,2.2,0.2,3.2,0.6s1.9,0.9,2.6,1.6
		c0.8,0.7,1.4,1.6,1.8,2.5s0.7,2,0.7,3.1s-0.2,2.2-0.7,3.1c-0.4,1-1,1.8-1.8,2.5c-0.8,0.7-1.6,1.2-2.6,1.6
		C410.9,107.8,409.9,108,408.8,108z M403.3,100.2c0,1.5,0.5,2.7,1.5,3.8c1,1,2.3,1.5,3.9,1.5c1.6,0,2.9-0.5,3.9-1.5
		c1-1,1.5-2.3,1.5-3.8c0-1.5-0.5-2.7-1.6-3.8c-1-1-2.3-1.6-3.9-1.6c-0.8,0-1.5,0.1-2.2,0.4c-0.7,0.3-1.2,0.7-1.7,1.2
		c-0.5,0.5-0.8,1.1-1.1,1.7C403.5,98.8,403.3,99.5,403.3,100.2z M405.9,124.5c-0.3,0-0.5-0.1-0.6-0.2c-0.1-0.1-0.2-0.3-0.2-0.6v-6.5
		c0-0.3,0.1-0.5,0.2-0.6c0.1-0.1,0.3-0.2,0.6-0.2h17.4v-3.3h-18.1v-2.4h20.5c0.3,0,0.5,0.1,0.6,0.2c0.1,0.1,0.2,0.3,0.2,0.6v6.4
		c0,0.3-0.1,0.5-0.2,0.6c-0.1,0.1-0.3,0.2-0.6,0.2h-17.4v3.5h18.9v2.4H405.9z M426.5,92v16.8h-2.9V92H426.5z"/>
	<path class="st10" d="M448.2,106.5c0,0.3-0.1,0.5-0.2,0.6c-0.1,0.1-0.3,0.2-0.6,0.2h-13.3c-0.3,0-0.5-0.1-0.6-0.2
		c-0.1-0.1-0.2-0.3-0.2-0.6V93.1h2.8v4.6h9.2v-4.6h2.8V106.5z M436.2,104.8h9.2v-4.8h-9.2V104.8z M437,110.5h19.9
		c0.3,0,0.5,0.1,0.6,0.2c0.1,0.1,0.2,0.3,0.2,0.6v6.6c0,0.3-0.1,0.5-0.2,0.6c-0.1,0.1-0.3,0.2-0.6,0.2h-16.8v3.6h18.4v2.4h-20.7
		c-0.3,0-0.5-0.1-0.6-0.2c-0.1-0.1-0.2-0.3-0.2-0.6v-6.6c0-0.3,0.1-0.5,0.2-0.6c0.1-0.1,0.3-0.2,0.6-0.2h16.9v-3.5H437V110.5z
		 M462.1,100.7h-4.5v8.2h-2.9V92h2.9v6.1h4.5V100.7z"/>
	<path class="st10" d="M478.3,109.4c-1.4-0.9-2.7-1.8-3.8-3c-1.1-1.1-2-2.5-2.6-4c-0.6,1.7-1.4,3.2-2.5,4.6
		c-1.1,1.3-2.4,2.5-3.8,3.5l-2.4-2c2.6-1.6,4.4-3.4,5.5-5.3c1.1-1.9,1.7-4.3,1.7-7.1v-3h3v3.1c0,2.7,0.6,4.9,1.8,6.8
		c1.2,1.9,2.9,3.3,5.1,4.4L478.3,109.4z M468.7,118.7c0-2,1-3.6,3.1-4.8c2.1-1.2,4.9-1.8,8.4-1.8c3.6,0,6.4,0.6,8.4,1.8
		c2,1.2,3.1,2.8,3.1,4.8c0,2-1,3.6-3,4.8c-2,1.2-4.8,1.8-8.5,1.8c-3.6,0-6.4-0.6-8.4-1.8S468.7,120.8,468.7,118.7z M471.9,118.7
		c0,0.7,0.2,1.3,0.6,1.9c0.4,0.5,1,1,1.8,1.4c0.8,0.4,1.7,0.6,2.7,0.8c1,0.2,2.1,0.3,3.3,0.3c2.4,0,4.3-0.4,5.9-1.1
		c1.6-0.8,2.4-1.8,2.4-3.2c0-1.4-0.8-2.5-2.4-3.2c-1.6-0.8-3.6-1.1-5.9-1.1c-1.2,0-2.3,0.1-3.3,0.3c-1,0.2-1.9,0.5-2.6,0.8
		c-0.8,0.4-1.4,0.8-1.8,1.4C472.1,117.4,471.9,118.1,471.9,118.7z M484.6,92.6v7.4h4v-8h2.8V112h-2.8v-9.4h-4v8.2h-2.8V92.6H484.6z"
		/>
</g>
<g class="st9">
	<path class="st10" d="M507.2,108.2c0-1.5,0.2-3,0.5-4.6c0.3-1.6,0.8-3.1,1.5-4.7c0.7-1.5,1.5-3,2.4-4.4c0.9-1.4,2-2.8,3.2-4h2.2
		c-2.2,2.9-3.8,5.9-4.9,8.9c-1,3-1.6,6-1.6,8.9c0,2.9,0.5,5.9,1.6,8.9c1,3,2.7,6,4.9,8.9h-2.2c-1.2-1.2-2.2-2.5-3.2-4
		c-0.9-1.4-1.7-2.9-2.4-4.5c-0.6-1.5-1.1-3.1-1.5-4.7C507.4,111.3,507.2,109.8,507.2,108.2z"/>
</g>
<g class="st9">
	<path class="st10" d="M518.7,96.5H537v2.4h-18.3V96.5z M528.2,100.7c2.4,0,4.4,0.5,5.9,1.6c1.5,1.1,2.3,2.5,2.3,4.2
		c0,0.9-0.2,1.7-0.6,2.4c-0.4,0.7-1,1.4-1.7,1.9c-0.7,0.5-1.6,0.9-2.6,1.2s-2.1,0.4-3.2,0.4c-1.2,0-2.3-0.1-3.3-0.4
		s-1.9-0.7-2.6-1.2c-0.7-0.5-1.3-1.2-1.7-1.9c-0.4-0.7-0.6-1.5-0.6-2.4c0-1.7,0.8-3.1,2.3-4.2C523.8,101.2,525.8,100.7,528.2,100.7z
		 M528.2,103c-1.6,0-2.9,0.3-3.8,1s-1.4,1.5-1.4,2.6c0,1.1,0.5,1.9,1.4,2.6s2.2,1,3.8,1c1.6,0,2.9-0.3,3.8-1s1.4-1.6,1.4-2.6
		c0-1-0.5-1.9-1.4-2.6S529.8,103,528.2,103z M532.8,94.3h-9.7V92h9.7V94.3z M525,124.2c-0.3,0-0.5-0.1-0.6-0.2
		c-0.1-0.1-0.2-0.3-0.2-0.6v-8.6h2.9v6.8h19.3v2.5H525z M537.2,100.6h5.4V92h2.9v24.2h-2.9v-6.3h-5.4v-2.4h5.4V103h-5.4V100.6z"/>
	<path class="st10" d="M549.4,116.6c2.7-1.8,4.7-4.1,6-6.8c1.3-2.7,1.9-6.1,1.9-10.3v-2.8h-5.4v-2.5h13.7v2.5h-5.3v2.7
		c0,3.7,0.5,6.9,1.5,9.5s2.8,4.7,5.4,6.2l-2.2,2c-1.2-0.8-2.4-1.9-3.6-3.5c-1.2-1.5-2.1-3.3-2.7-5.2c-0.3,1-0.6,1.9-1.1,2.9
		s-1,1.9-1.6,2.7c-0.6,0.9-1.3,1.7-2,2.4c-0.7,0.8-1.4,1.4-2.1,1.9L549.4,116.6z M568.5,123.3V92.6h2.8v11.4h4.2V92h2.8v32.8h-2.8
		v-18.1h-4.2v16.5H568.5z"/>
</g>
<g class="st9">
	<path class="st10" d="M584.3,125.8h-3.1l12.5-35h2.9L584.3,125.8z"/>
</g>
<g class="st9">
	<path class="st10" d="M611.9,124.8v-11.9h-13.6v-2.5h30v2.5h-13.4v11.9H611.9z M603,105.6c-0.3,0-0.5-0.1-0.6-0.2
		c-0.1-0.1-0.2-0.3-0.2-0.6V93h2.9v10h20.1v2.5H603z"/>
	<path class="st10" d="M649.1,96h-6.4v1.5c0,1.3,0.2,2.4,0.6,3.5c0.4,1,1,2,1.6,2.8c0.8,1,1.8,1.8,2.8,2.5c1.1,0.7,2.2,1.2,3.4,1.6
		c-0.3,0.3-0.7,0.7-1.1,1.1s-0.7,0.8-0.9,1.1c-0.7-0.3-1.4-0.7-2.2-1.2c-0.8-0.5-1.6-1-2.3-1.6c-0.7-0.5-1.3-1.2-2-1.9
		c-0.6-0.7-1.1-1.5-1.6-2.4c-0.3,0.9-0.8,1.7-1.3,2.5c-0.5,0.8-1.1,1.4-1.7,2.1c-0.8,0.7-1.6,1.4-2.5,2c-0.9,0.6-1.7,1.1-2.6,1.6
		c-0.1-0.1-0.3-0.3-0.5-0.4c-0.2-0.2-0.4-0.3-0.6-0.5c-0.2-0.2-0.4-0.3-0.6-0.5c-0.2-0.2-0.4-0.3-0.6-0.5c1.3-0.6,2.5-1.3,3.7-2.1
		c1.2-0.8,2.2-1.8,3.1-3c0.6-0.9,1.2-1.9,1.5-3c0.4-1.1,0.6-2.3,0.6-3.6V96h-6.5v-2.5h16V96z M657.6,113.5c0.3,0,0.5,0.1,0.6,0.2
		c0.1,0.1,0.2,0.3,0.2,0.6V125h-2.9V116h-18.9v-2.5H657.6z M658.4,111.7h-2.9V102h-6.8v-2.6h6.8V92h2.9V111.7z"/>
</g>
<g class="st9">
	<path class="st10" d="M671.1,108.2c0,1.5-0.2,3.1-0.5,4.7c-0.3,1.6-0.8,3.1-1.5,4.7c-0.7,1.6-1.5,3-2.4,4.5c-0.9,1.4-2,2.8-3.1,4
		h-2.2c2.2-2.9,3.8-5.8,4.8-8.9c1.1-3,1.6-6,1.6-8.9c0-2.9-0.5-5.8-1.6-8.9c-1.1-3-2.7-6-4.8-8.9h2.2c1.2,1.2,2.2,2.6,3.1,4
		c0.9,1.4,1.7,2.9,2.4,4.4c0.6,1.6,1.1,3.1,1.5,4.7C671,105.2,671.1,106.7,671.1,108.2z"/>
</g>
<g class="st9">
	<path class="st10" d="M1074.6,74.8h-5.3V38.3h5.3V74.8z"/>
	<path class="st10" d="M1109.1,48.3h-5.6c-0.3-2.1-1.1-3.6-2.4-4.5c-1.3-0.9-2.9-1.4-4.7-1.4c-1.9,0-3.5,0.4-4.7,1.2
		c-1.3,0.8-2.3,1.9-3,3.3c-0.8,1.3-1.3,2.9-1.6,4.6c-0.3,1.7-0.5,3.4-0.5,5.2c0,1.8,0.2,3.5,0.5,5.2c0.3,1.7,0.9,3.2,1.6,4.6
		c0.7,1.3,1.7,2.4,3,3.2c1.3,0.8,2.8,1.2,4.7,1.2c1.8,0,3.4-0.4,4.7-1.3c1.3-0.9,2.2-2.5,2.7-5h5.6c-0.2,1.8-0.7,3.4-1.5,4.8
		c-0.8,1.4-1.7,2.5-2.9,3.4c-1.2,0.9-2.5,1.6-4,2.1c-1.5,0.4-3,0.7-4.7,0.7c-2.7,0-5-0.5-7-1.5c-1.9-1-3.5-2.4-4.8-4.2
		c-1.2-1.7-2.2-3.7-2.7-6c-0.6-2.3-0.9-4.7-0.9-7.2c0-2.4,0.3-4.7,0.9-7c0.6-2.3,1.5-4.3,2.8-6.1s2.8-3.2,4.8-4.2
		c1.9-1.1,4.2-1.6,6.9-1.6c1.5,0,3,0.2,4.5,0.6c1.5,0.4,2.8,1.1,4,1.9c1.2,0.9,2.2,2,3,3.3C1108.4,44.8,1108.9,46.4,1109.1,48.3z"/>
	<path class="st10" d="M1114.4,38.5h5.4V62c0.1,3,0.8,5.3,2.2,6.8c1.4,1.5,3.3,2.2,5.7,2.2c2.4,0,4.3-0.7,5.7-2.2
		c1.4-1.5,2.1-3.7,2.3-6.8V38.5h5.4V62c-0.1,2-0.4,3.8-0.9,5.4c-0.6,1.6-1.4,3.1-2.5,4.3s-2.5,2.2-4.2,2.9c-1.6,0.7-3.6,1-5.8,1
		s-4.1-0.3-5.8-1c-1.7-0.7-3.1-1.6-4.2-2.9c-1.1-1.2-1.9-2.6-2.5-4.3c-0.6-1.6-0.8-3.4-0.8-5.4V38.5z"/>
</g>
<g class="st9">
	<path class="st10" d="M964.5,108.2c0-1.5,0.2-3,0.5-4.6c0.3-1.6,0.8-3.1,1.5-4.7c0.7-1.5,1.5-3,2.4-4.4c0.9-1.4,2-2.8,3.2-4h2.2
		c-2.2,2.9-3.8,5.9-4.9,8.9c-1,3-1.6,6-1.6,8.9c0,2.9,0.5,5.9,1.6,8.9c1,3,2.7,6,4.9,8.9H972c-1.2-1.2-2.2-2.5-3.2-4
		c-0.9-1.4-1.7-2.9-2.4-4.5c-0.6-1.5-1.1-3.1-1.5-4.7C964.7,111.3,964.5,109.8,964.5,108.2z"/>
</g>
<g class="st9">
	<path class="st10" d="M976,96.5h18.3v2.4H976V96.5z M985.5,100.7c2.4,0,4.4,0.5,5.9,1.6c1.5,1.1,2.3,2.5,2.3,4.2
		c0,0.9-0.2,1.7-0.6,2.4c-0.4,0.7-1,1.4-1.7,1.9c-0.7,0.5-1.6,0.9-2.6,1.2s-2.1,0.4-3.2,0.4c-1.2,0-2.3-0.1-3.3-0.4
		s-1.9-0.7-2.6-1.2c-0.7-0.5-1.3-1.2-1.7-1.9c-0.4-0.7-0.6-1.5-0.6-2.4c0-1.7,0.8-3.1,2.3-4.2C981.1,101.2,983,100.7,985.5,100.7z
		 M985.5,103c-1.6,0-2.9,0.3-3.8,1s-1.4,1.5-1.4,2.6c0,1.1,0.5,1.9,1.4,2.6s2.2,1,3.8,1c1.6,0,2.9-0.3,3.8-1s1.4-1.6,1.4-2.6
		c0-1-0.5-1.9-1.4-2.6S987.1,103,985.5,103z M990.1,94.3h-9.7V92h9.7V94.3z M982.3,124.2c-0.3,0-0.5-0.1-0.6-0.2
		c-0.1-0.1-0.2-0.3-0.2-0.6v-8.6h2.9v6.8h19.3v2.5H982.3z M994.4,100.6h5.4V92h2.9v24.2h-2.9v-6.3h-5.4v-2.4h5.4V103h-5.4V100.6z"/>
	<path class="st10" d="M1006.7,116.6c2.7-1.8,4.7-4.1,6-6.8c1.3-2.7,1.9-6.1,1.9-10.3v-2.8h-5.4v-2.5h13.7v2.5h-5.3v2.7
		c0,3.7,0.5,6.9,1.5,9.5s2.8,4.7,5.4,6.2l-2.2,2c-1.2-0.8-2.4-1.9-3.6-3.5c-1.2-1.5-2.1-3.3-2.7-5.2c-0.3,1-0.6,1.9-1.1,2.9
		s-1,1.9-1.6,2.7c-0.6,0.9-1.3,1.7-2,2.4c-0.7,0.8-1.4,1.4-2.1,1.9L1006.7,116.6z M1025.8,123.3V92.6h2.8v11.4h4.2V92h2.8v32.8h-2.8
		v-18.1h-4.2v16.5H1025.8z"/>
</g>
<g class="st9">
	<path class="st10" d="M1041.6,125.8h-3.1l12.5-35h2.9L1041.6,125.8z"/>
</g>
<g class="st9">
	<path class="st10" d="M1066.4,109.6h2.9v5.9c0.8,0,1.6,0,2.5-0.1c0.9,0,1.8-0.1,2.7-0.2c0.9-0.1,1.8-0.2,2.6-0.2
		c0.9-0.1,1.6-0.2,2.3-0.3v2.5c-2.8,0.3-5.8,0.6-8.9,0.7c-3.1,0.1-6.5,0.2-9.9,0.2h-3.6v-2.6h9.4V109.6z M1059.6,98.2h16.6v2.5h-6.7
		v0.1c0,1,0.3,1.8,0.8,2.6c0.5,0.8,1.2,1.4,1.9,2c0.8,0.6,1.7,1.2,2.6,1.6c0.9,0.4,1.8,0.7,2.7,1c-0.3,0.3-0.7,0.7-1,1.1
		c-0.3,0.4-0.6,0.7-0.8,1c-0.7-0.2-1.4-0.5-2.1-0.9c-0.7-0.3-1.4-0.7-2.1-1.2c-0.7-0.4-1.3-1-1.9-1.5c-0.6-0.6-1.1-1.3-1.6-2
		c-0.4,0.8-0.9,1.5-1.4,2.1c-0.5,0.6-1,1.1-1.6,1.6c-0.7,0.6-1.5,1.1-2.4,1.6c-0.9,0.5-1.7,0.9-2.6,1.3c-0.3-0.3-0.7-0.7-1.1-1.1
		s-0.8-0.8-1.1-1c1.1-0.3,2.3-0.8,3.4-1.4c1.1-0.6,2.1-1.3,2.9-2.2c0.7-0.6,1.2-1.3,1.6-2.1c0.4-0.8,0.6-1.6,0.7-2.5h-6.8V98.2z
		 M1063.2,92.6h9.1v2.4h-9.1V92.6z M1080.7,92h2.9v32.8h-2.9V92z"/>
	<path class="st10" d="M1091.4,94.1h10.4v2.5h-8.3v17.2h0.7c0.7,0,1.4,0,2.3,0c0.9,0,1.7-0.1,2.6-0.1c0.9-0.1,1.7-0.2,2.6-0.2
		c0.8-0.1,1.6-0.2,2.2-0.3v2.6c-1.5,0.2-3.2,0.5-5.1,0.6c-1.9,0.2-3.8,0.2-5.7,0.2h-1.7c-0.3,0-0.5,0-0.6-0.1
		c-0.1-0.1-0.1-0.3-0.1-0.6V94.9c0-0.3,0.1-0.5,0.2-0.6S1091.1,94.1,1091.4,94.1z M1108.4,92.6v11.2h4.4V92h2.8v32.8h-2.8v-18.2
		h-4.4v16.7h-2.8V92.6H1108.4z"/>
</g>
<g class="st9">
	<path class="st10" d="M1148,108.6c0,0.3-0.1,0.5-0.2,0.6c-0.1,0.1-0.3,0.2-0.6,0.2H1134c-0.3,0-0.5-0.1-0.6-0.2
		c-0.1-0.1-0.2-0.3-0.2-0.6V93.2h2.9v5.4h9.1v-5.4h2.8v3.8h7.1V92h2.9v20.3h-2.9V106h-7.1V108.6z M1135.7,119c0-2,1-3.6,3-4.8
		c2-1.2,4.8-1.8,8.3-1.8c3.5,0,6.2,0.6,8.3,1.8c2,1.2,3.1,2.8,3.1,4.8c0,2-1,3.6-3.1,4.7c-2,1.1-4.8,1.7-8.3,1.7
		c-3.5,0-6.3-0.6-8.3-1.7C1136.7,122.6,1135.7,121,1135.7,119z M1136.1,106.9h9.1v-5.8h-9.1V106.9z M1138.8,119
		c0,1.3,0.8,2.4,2.3,3.1c1.5,0.7,3.5,1.1,5.9,1.1c2.4,0,4.4-0.4,5.9-1.1c1.6-0.7,2.3-1.7,2.3-3c0-1.3-0.8-2.4-2.3-3.1
		c-1.6-0.7-3.5-1.1-5.9-1.1c-2.4,0-4.4,0.4-5.9,1.1C1139.6,116.6,1138.8,117.6,1138.8,119z M1148,99.4v4.2h7.1v-4.2H1148z"/>
	<path class="st10" d="M1162,108.1c1.3-0.6,2.4-1.2,3.5-2c1.1-0.8,2-1.7,2.8-2.7c0.8-1,1.4-2.1,1.9-3.3c0.5-1.2,0.7-2.6,0.7-4.2v-3
		h3.1v3.1c0,1.4,0.2,2.7,0.7,3.9c0.5,1.2,1.1,2.2,1.9,3.1c0.8,0.9,1.7,1.7,2.7,2.4c1,0.7,2.1,1.2,3.2,1.6l-1.9,2.3
		c-0.7-0.3-1.4-0.8-2.2-1.2s-1.5-1-2.3-1.6c-0.7-0.6-1.4-1.3-2.1-2c-0.6-0.7-1.2-1.6-1.6-2.4c-0.3,0.9-0.8,1.8-1.4,2.6
		c-0.6,0.8-1.3,1.6-2,2.3c-0.7,0.7-1.5,1.3-2.3,1.9c-0.8,0.6-1.6,1.1-2.5,1.5L1162,108.1z M1178.5,125.4c-3.4,0-6.1-0.6-8.1-1.8
		c-2-1.2-3-2.8-3-4.8c0-1,0.3-1.9,0.8-2.7c0.5-0.8,1.3-1.5,2.2-2.1s2.1-1,3.5-1.3c1.4-0.3,2.9-0.5,4.6-0.5c3.4,0,6.1,0.6,8.1,1.8
		c2,1.2,3,2.8,3,4.8c0,2-1,3.7-3,4.8C1184.6,124.9,1181.9,125.4,1178.5,125.4z M1170.5,118.9c0,0.7,0.2,1.3,0.6,1.8
		c0.4,0.5,1,1,1.7,1.4c0.7,0.4,1.6,0.7,2.5,0.9c1,0.2,2,0.3,3.1,0.3c2.3,0,4.2-0.4,5.8-1.1c1.5-0.8,2.3-1.8,2.3-3.1
		s-0.8-2.4-2.3-3.1c-1.5-0.8-3.4-1.1-5.8-1.1c-1.1,0-2.2,0.1-3.2,0.3c-1,0.2-1.8,0.5-2.5,0.8c-0.7,0.4-1.3,0.8-1.7,1.3
		C1170.7,117.6,1170.5,118.2,1170.5,118.9z M1188.9,92v7.7h4.6v2.5h-4.6v9.6h-2.9V92H1188.9z"/>
</g>
<g class="st9">
	<path class="st10" d="M1235.7,112.7h-13.4v12.2h-3v-12.2h-13.6v-2.5h30V112.7z M1207.1,104.3c4-1,7-2.3,9-3.9s3-3.6,3-5.8v-1.7h3.3
		v1.7c0,1.3,0.3,2.5,1,3.6c0.7,1.1,1.6,2,2.7,2.8c1.1,0.8,2.4,1.5,3.8,2.1c1.4,0.6,2.9,1,4.4,1.3l-1.9,2.3c-1.2-0.3-2.3-0.7-3.5-1.2
		c-1.2-0.5-2.3-1.1-3.4-1.7c-1.1-0.7-2-1.4-2.8-2.2c-0.8-0.8-1.4-1.7-1.9-2.7c-0.5,1-1.2,2-2.1,2.8c-0.8,0.8-1.8,1.5-2.8,2.2
		c-1,0.6-2.1,1.2-3.3,1.7c-1.1,0.5-2.3,0.9-3.5,1.2L1207.1,104.3z"/>
</g>
<g class="st9">
	<path class="st10" d="M1246.4,108.2c0,1.5-0.2,3.1-0.5,4.7c-0.3,1.6-0.8,3.1-1.5,4.7c-0.7,1.6-1.5,3-2.4,4.5c-0.9,1.4-2,2.8-3.1,4
		h-2.2c2.2-2.9,3.8-5.8,4.8-8.9c1.1-3,1.6-6,1.6-8.9c0-2.9-0.5-5.8-1.6-8.9c-1.1-3-2.7-6-4.8-8.9h2.2c1.2,1.2,2.2,2.6,3.1,4
		c0.9,1.4,1.7,2.9,2.4,4.4c0.6,1.6,1.1,3.1,1.5,4.7C1246.3,105.2,1246.4,106.7,1246.4,108.2z"/>
</g>
<g class="st9">
	<path class="st10" d="M1666.9,70.5c-2-1.4-4-3.1-5.8-5.1c-1.8-2-3.2-4-4.1-6.1c-0.4,1.1-0.9,2.1-1.5,3.2c-0.7,1.1-1.5,2.2-2.4,3.2
		c-0.9,1.1-1.9,2.1-2.9,3.1c-1,1-2.1,1.9-3.2,2.6l-4.4-3.6c3.9-2.5,6.8-5.5,8.7-9c1.9-3.5,2.8-7.4,2.8-11.6v-9.2h5.7v9.5
		c0,4.2,0.9,7.9,2.7,11.1s4.6,5.9,8.4,8.2L1666.9,70.5z M1673.3,79.4v-43h5.4v16.2h5.9v4.8h-5.9v21.9H1673.3z"/>
	<path class="st10" d="M1689.7,38.2h17.8c0.5,0,0.8,0.1,1,0.3c0.2,0.2,0.3,0.6,0.3,1v17.3c0,0.5-0.1,0.9-0.3,1.1
		c-0.2,0.2-0.6,0.3-1,0.3h-17.8c-0.5,0-0.9-0.1-1-0.3c-0.2-0.2-0.3-0.5-0.3-1V39.5c0-0.5,0.1-0.8,0.3-1
		C1688.8,38.3,1689.2,38.2,1689.7,38.2z M1706.7,62.1c2.2,0,4.2,0.2,6,0.6c1.9,0.4,3.5,1,4.8,1.8c1.3,0.8,2.4,1.7,3.2,2.8
		s1.2,2.4,1.2,3.8c0,1.5-0.4,2.8-1.2,3.9c-0.8,1.1-1.8,2.1-3.2,2.8c-1.4,0.8-3,1.3-4.8,1.7c-1.9,0.4-3.9,0.6-6.1,0.6
		s-4.2-0.2-6.1-0.6c-1.8-0.4-3.4-1-4.8-1.7c-1.3-0.8-2.4-1.7-3.1-2.8c-0.8-1.1-1.1-2.4-1.1-3.9c0-1.4,0.4-2.7,1.2-3.8
		c0.8-1.1,1.8-2.1,3.2-2.9c1.4-0.8,3-1.4,4.8-1.8C1702.6,62.3,1704.6,62.1,1706.7,62.1z M1703.5,53.7v-11h-9.8v11H1703.5z
		 M1706.7,66.4c-2.8,0-5,0.4-6.8,1.2s-2.6,2-2.6,3.5c0,1.5,0.9,2.7,2.6,3.6c1.7,0.9,4,1.3,6.7,1.3c2.8,0,5.1-0.4,6.8-1.3
		c1.7-0.9,2.6-2.1,2.6-3.6c0-1.5-0.8-2.7-2.5-3.5C1711.9,66.8,1709.6,66.4,1706.7,66.4z M1715.6,62.3V36.5h5.4v9.2h5.6v4.6h-5.6v12
		H1715.6z"/>
	<path class="st10" d="M1726.9,67.9c3.8-2.3,6.7-5.1,8.7-8.5c2-3.4,3-7.5,3-12.3v-3.5h-8.6V39h23.2v4.5h-8.8v3.7
		c0,4.4,0.9,8.2,2.8,11.5c1.9,3.2,4.6,5.9,8.3,8l-3.9,3.7c-2-1.3-4-3-5.9-5c-1.9-2-3.2-4.1-4.2-6.3c-0.8,2.2-2.1,4.4-4,6.6
		c-1.9,2.2-3.9,4.1-6.1,5.7L1726.9,67.9z M1763,36.4v16.2h6v4.8h-6v21.9h-5.4v-43H1763z"/>
</g>
<g class="st9">
	<path class="st10" d="M1603.5,108c-1.1,0-2.2-0.2-3.2-0.6c-1-0.4-1.9-0.9-2.6-1.6c-0.8-0.7-1.4-1.5-1.8-2.5c-0.4-0.9-0.6-2-0.6-3.1
		s0.2-2.2,0.6-3.2c0.4-1,1-1.8,1.8-2.5c0.7-0.7,1.6-1.2,2.6-1.6s2.1-0.6,3.2-0.6c1.1,0,2.2,0.2,3.2,0.6s1.9,0.9,2.6,1.6
		c0.8,0.7,1.4,1.6,1.8,2.5s0.7,2,0.7,3.1s-0.2,2.2-0.7,3.1c-0.4,1-1,1.8-1.8,2.5c-0.8,0.7-1.6,1.2-2.6,1.6
		C1605.6,107.8,1604.6,108,1603.5,108z M1598,100.2c0,1.5,0.5,2.7,1.5,3.8c1,1,2.3,1.5,3.9,1.5c1.6,0,2.9-0.5,3.9-1.5
		c1-1,1.5-2.3,1.5-3.8c0-1.5-0.5-2.7-1.6-3.8c-1-1-2.3-1.6-3.9-1.6c-0.8,0-1.5,0.1-2.2,0.4c-0.7,0.3-1.2,0.7-1.7,1.2
		c-0.5,0.5-0.8,1.1-1.1,1.7C1598.2,98.8,1598,99.5,1598,100.2z M1600.6,124.5c-0.3,0-0.5-0.1-0.6-0.2c-0.1-0.1-0.2-0.3-0.2-0.6v-6.5
		c0-0.3,0.1-0.5,0.2-0.6c0.1-0.1,0.3-0.2,0.6-0.2h17.4v-3.3h-18.1v-2.4h20.5c0.3,0,0.5,0.1,0.6,0.2c0.1,0.1,0.2,0.3,0.2,0.6v6.4
		c0,0.3-0.1,0.5-0.2,0.6c-0.1,0.1-0.3,0.2-0.6,0.2H1603v3.5h18.9v2.4H1600.6z M1621.2,92v16.8h-2.9V92H1621.2z"/>
	<path class="st10" d="M1635.7,108c-1.1,0-2.2-0.2-3.2-0.6c-1-0.4-1.9-0.9-2.6-1.6c-0.8-0.7-1.4-1.5-1.8-2.5c-0.4-0.9-0.6-2-0.6-3.1
		s0.2-2.2,0.6-3.2c0.4-1,1-1.8,1.8-2.5s1.6-1.2,2.6-1.6s2.1-0.6,3.2-0.6c1.1,0,2.2,0.2,3.2,0.6s1.9,0.9,2.6,1.6
		c0.8,0.7,1.4,1.6,1.8,2.5c0.4,1,0.7,2,0.7,3.1s-0.2,2.2-0.7,3.1c-0.4,1-1,1.8-1.8,2.5c-0.8,0.7-1.6,1.2-2.6,1.6
		C1637.9,107.8,1636.8,108,1635.7,108z M1630.3,100.2c0,1.5,0.5,2.7,1.5,3.8s2.3,1.5,3.9,1.5c1.6,0,2.9-0.5,3.9-1.5
		c1-1,1.5-2.3,1.5-3.8c0-1.5-0.5-2.7-1.6-3.8c-1-1-2.3-1.6-3.9-1.6c-0.8,0-1.5,0.1-2.2,0.4s-1.2,0.7-1.7,1.2
		c-0.5,0.5-0.8,1.1-1.1,1.7C1630.4,98.8,1630.3,99.5,1630.3,100.2z M1632.9,124.5c-0.3,0-0.5-0.1-0.6-0.2s-0.2-0.3-0.2-0.6v-6.5
		c0-0.3,0.1-0.5,0.2-0.6c0.1-0.1,0.3-0.2,0.6-0.2h17.4v-3.3h-18.1v-2.4h20.5c0.3,0,0.5,0.1,0.6,0.2c0.1,0.1,0.2,0.3,0.2,0.6v6.4
		c0,0.3-0.1,0.5-0.2,0.6c-0.1,0.1-0.3,0.2-0.6,0.2h-17.4v3.5h18.9v2.4H1632.9z M1653.5,92v16.8h-2.9V92H1653.5z"/>
	<path class="st10" d="M1675.2,106.5c0,0.3-0.1,0.5-0.2,0.6s-0.3,0.2-0.6,0.2h-13.3c-0.3,0-0.5-0.1-0.6-0.2s-0.2-0.3-0.2-0.6V93.1
		h2.8v4.6h9.2v-4.6h2.8V106.5z M1663.2,104.8h9.2v-4.8h-9.2V104.8z M1663.9,110.5h19.9c0.3,0,0.5,0.1,0.6,0.2
		c0.1,0.1,0.2,0.3,0.2,0.6v6.6c0,0.3-0.1,0.5-0.2,0.6c-0.1,0.1-0.3,0.2-0.6,0.2H1667v3.6h18.4v2.4h-20.7c-0.3,0-0.5-0.1-0.6-0.2
		c-0.1-0.1-0.2-0.3-0.2-0.6v-6.6c0-0.3,0.1-0.5,0.2-0.6c0.1-0.1,0.3-0.2,0.6-0.2h16.9v-3.5h-17.6V110.5z M1689,100.7h-4.5v8.2h-2.9
		V92h2.9v6.1h4.5V100.7z"/>
	<path class="st10" d="M1705.3,109.4c-1.4-0.9-2.7-1.8-3.8-3s-2-2.5-2.6-4c-0.6,1.7-1.4,3.2-2.5,4.6c-1.1,1.3-2.4,2.5-3.8,3.5
		l-2.4-2c2.6-1.6,4.4-3.4,5.5-5.3c1.1-1.9,1.7-4.3,1.7-7.1v-3h3v3.1c0,2.7,0.6,4.9,1.8,6.8c1.2,1.9,2.9,3.3,5.1,4.4L1705.3,109.4z
		 M1695.7,118.7c0-2,1-3.6,3.1-4.8c2.1-1.2,4.9-1.8,8.4-1.8c3.6,0,6.4,0.6,8.4,1.8c2,1.2,3.1,2.8,3.1,4.8c0,2-1,3.6-3,4.8
		c-2,1.2-4.8,1.8-8.5,1.8c-3.6,0-6.4-0.6-8.4-1.8C1696.7,122.4,1695.7,120.8,1695.7,118.7z M1698.9,118.7c0,0.7,0.2,1.3,0.6,1.9
		c0.4,0.5,1,1,1.8,1.4c0.8,0.4,1.7,0.6,2.7,0.8c1,0.2,2.1,0.3,3.3,0.3c2.4,0,4.3-0.4,5.9-1.1c1.6-0.8,2.4-1.8,2.4-3.2
		c0-1.4-0.8-2.5-2.4-3.2c-1.6-0.8-3.6-1.1-5.9-1.1c-1.2,0-2.3,0.1-3.3,0.3c-1,0.2-1.9,0.5-2.6,0.8c-0.8,0.4-1.4,0.8-1.8,1.4
		C1699.1,117.4,1698.9,118.1,1698.9,118.7z M1711.6,92.6v7.4h4v-8h2.8V112h-2.8v-9.4h-4v8.2h-2.8V92.6H1711.6z"/>
</g>
<g class="st9">
	<path class="st10" d="M1734.2,108.2c0-1.5,0.2-3,0.5-4.6c0.3-1.6,0.8-3.1,1.5-4.7c0.7-1.5,1.5-3,2.4-4.4c0.9-1.4,2-2.8,3.2-4h2.2
		c-2.2,2.9-3.8,5.9-4.9,8.9c-1,3-1.6,6-1.6,8.9c0,2.9,0.5,5.9,1.6,8.9c1,3,2.7,6,4.9,8.9h-2.2c-1.2-1.2-2.2-2.5-3.2-4
		c-0.9-1.4-1.7-2.9-2.4-4.5c-0.6-1.5-1.1-3.1-1.5-4.7C1734.3,111.3,1734.2,109.8,1734.2,108.2z"/>
</g>
<g class="st9">
	<path class="st10" d="M1758.1,124.8v-11.9h-13.6v-2.5h30v2.5h-13.4v11.9H1758.1z M1749.2,105.6c-0.3,0-0.5-0.1-0.6-0.2
		c-0.1-0.1-0.2-0.3-0.2-0.6V93h2.9v10h20.1v2.5H1749.2z"/>
	<path class="st10" d="M1795.3,96h-6.4v1.5c0,1.3,0.2,2.4,0.6,3.5c0.4,1,1,2,1.6,2.8c0.8,1,1.8,1.8,2.8,2.5c1.1,0.7,2.2,1.2,3.4,1.6
		c-0.3,0.3-0.7,0.7-1.1,1.1s-0.7,0.8-0.9,1.1c-0.7-0.3-1.4-0.7-2.2-1.2c-0.8-0.5-1.6-1-2.3-1.6c-0.7-0.5-1.3-1.2-2-1.9
		c-0.6-0.7-1.1-1.5-1.6-2.4c-0.3,0.9-0.8,1.7-1.3,2.5c-0.5,0.8-1.1,1.4-1.7,2.1c-0.8,0.7-1.6,1.4-2.5,2c-0.9,0.6-1.7,1.1-2.6,1.6
		c-0.1-0.1-0.3-0.3-0.5-0.4c-0.2-0.2-0.4-0.3-0.6-0.5c-0.2-0.2-0.4-0.3-0.6-0.5c-0.2-0.2-0.4-0.3-0.6-0.5c1.3-0.6,2.5-1.3,3.7-2.1
		c1.2-0.8,2.2-1.8,3.1-3c0.6-0.9,1.2-1.9,1.5-3c0.4-1.1,0.6-2.3,0.6-3.6V96h-6.5v-2.5h16V96z M1803.8,113.5c0.3,0,0.5,0.1,0.6,0.2
		c0.1,0.1,0.2,0.3,0.2,0.6V125h-2.9V116h-18.9v-2.5H1803.8z M1804.6,111.7h-2.9V102h-6.8v-2.6h6.8V92h2.9V111.7z"/>
</g>
<g class="st9">
	<path class="st10" d="M1817.3,108.2c0,1.5-0.2,3.1-0.5,4.7c-0.3,1.6-0.8,3.1-1.5,4.7c-0.7,1.6-1.5,3-2.4,4.5c-0.9,1.4-2,2.8-3.1,4
		h-2.2c2.2-2.9,3.8-5.8,4.8-8.9c1.1-3,1.6-6,1.6-8.9c0-2.9-0.5-5.8-1.6-8.9c-1.1-3-2.7-6-4.8-8.9h2.2c1.2,1.2,2.2,2.6,3.1,4
		c0.9,1.4,1.7,2.9,2.4,4.4c0.6,1.6,1.1,3.1,1.5,4.7C1817.1,105.2,1817.3,106.7,1817.3,108.2z"/>
</g>
<g class="st9">
	<path class="st10" d="M2283.8,55.5c0.5,0,0.8,0.1,1,0.3c0.2,0.2,0.3,0.5,0.3,1V70c0,0.4-0.1,0.7-0.2,1c-0.1,0.3-0.4,0.6-0.7,0.8
		c-1.5,1.1-3.2,2-5.1,2.7c-1.9,0.7-3.9,1-6,1c-2.6,0-4.9-0.4-7-1.3s-3.7-2.2-5.1-3.8c-1.4-1.6-2.4-3.6-3.1-5.9
		c-0.7-2.3-1.1-4.9-1.1-7.8c0-2.7,0.4-5.2,1.1-7.5c0.7-2.3,1.7-4.3,3-6c1.3-1.7,3-3,4.9-3.9c1.9-1,4.1-1.4,6.5-1.4
		c1.6,0,3.2,0.2,4.7,0.7s2.8,1.1,4,2.1c1.2,0.9,2.1,2,2.9,3.4c0.7,1.4,1.2,3,1.3,4.9h-5.4c-0.4-2.4-1.2-4.1-2.7-5
		c-1.4-0.9-3-1.4-4.8-1.4c-1.8,0-3.3,0.4-4.5,1.1c-1.2,0.8-2.2,1.8-3,3.1c-0.8,1.3-1.3,2.8-1.7,4.5c-0.4,1.7-0.5,3.6-0.5,5.5
		c0,2,0.2,3.9,0.6,5.6c0.4,1.7,1,3.2,1.9,4.5c0.9,1.3,2.1,2.3,3.5,3c1.4,0.7,3.1,1.1,5.2,1.1c1.3,0,2.5-0.2,3.5-0.6
		c1-0.4,1.8-0.8,2.4-1.2c0,0,0.1,0,0.1,0c0,0,0.1,0,0.1-0.1c0,0,0-0.1,0-0.1c0-0.1,0-0.1,0-0.2V60h-7.8v-4.5H2283.8z"/>
	<path class="st10" d="M2293.7,38.5h8.4c5.9,0,10.4,1.6,13.7,4.7c3.3,3.1,4.9,7.6,4.9,13.5c0,6-1.6,10.5-4.9,13.5s-7.8,4.6-13.7,4.6
		h-8.4c-0.5,0-0.9-0.1-1-0.3s-0.3-0.5-0.3-1V39.8c0-0.5,0.1-0.8,0.3-1C2292.8,38.6,2293.1,38.5,2293.7,38.5z M2297.7,70.2h5.6
		c4,0,7-1.2,8.9-3.6s2.8-5.7,2.8-10c0-5-1.2-8.5-3.7-10.7c-2.5-2.1-6-3.1-10.4-3h-3.2V70.2z"/>
	<path class="st10" d="M2327.1,39.8c0-0.5,0.1-0.8,0.3-1c0.2-0.2,0.5-0.3,1-0.3h10.6c1.7,0,3.2,0.2,4.8,0.7c1.5,0.5,2.8,1.1,3.9,2
		c1.1,0.9,2,2,2.7,3.4c0.7,1.3,1,2.9,1,4.7c0,1.8-0.3,3.4-1,4.7c-0.7,1.3-1.5,2.4-2.6,3.3c-1.1,0.9-2.3,1.6-3.8,2
		c-1.4,0.4-2.9,0.6-4.5,0.6h-7.1v14.8h-5.3V39.8z M2345.8,49.3c0-2.2-0.6-3.8-1.9-4.8s-3.1-1.4-5.4-1.4h-6.1v12.4h6.1
		c2.3,0,4.1-0.5,5.4-1.4C2345.2,53.2,2345.8,51.6,2345.8,49.3z"/>
</g>
<g class="st9">
	<path class="st10" d="M2104.6,108c-1.1,0-2.2-0.2-3.2-0.6c-1-0.4-1.9-0.9-2.6-1.6c-0.8-0.7-1.4-1.5-1.8-2.5c-0.4-0.9-0.6-2-0.6-3.1
		s0.2-2.2,0.6-3.2c0.4-1,1-1.8,1.8-2.5c0.7-0.7,1.6-1.2,2.6-1.6c1-0.4,2.1-0.6,3.2-0.6c1.1,0,2.2,0.2,3.2,0.6s1.9,0.9,2.6,1.6
		c0.8,0.7,1.4,1.6,1.8,2.5c0.4,1,0.7,2,0.7,3.1s-0.2,2.2-0.7,3.1c-0.4,1-1,1.8-1.8,2.5c-0.8,0.7-1.6,1.2-2.6,1.6
		C2106.8,107.8,2105.7,108,2104.6,108z M2099.2,100.2c0,1.5,0.5,2.7,1.5,3.8s2.3,1.5,3.9,1.5c1.6,0,2.9-0.5,3.9-1.5
		c1-1,1.5-2.3,1.5-3.8c0-1.5-0.5-2.7-1.6-3.8c-1-1-2.3-1.6-3.9-1.6c-0.8,0-1.5,0.1-2.2,0.4s-1.2,0.7-1.7,1.2
		c-0.5,0.5-0.8,1.1-1.1,1.7C2099.3,98.8,2099.2,99.5,2099.2,100.2z M2101.8,124.5c-0.3,0-0.5-0.1-0.6-0.2c-0.1-0.1-0.2-0.3-0.2-0.6
		v-6.5c0-0.3,0.1-0.5,0.2-0.6c0.1-0.1,0.3-0.2,0.6-0.2h17.4v-3.3H2101v-2.4h20.5c0.3,0,0.5,0.1,0.6,0.2c0.1,0.1,0.2,0.3,0.2,0.6v6.4
		c0,0.3-0.1,0.5-0.2,0.6c-0.1,0.1-0.3,0.2-0.6,0.2h-17.4v3.5h18.9v2.4H2101.8z M2122.4,92v16.8h-2.9V92H2122.4z"/>
	<path class="st10" d="M2136.9,108c-1.1,0-2.2-0.2-3.2-0.6c-1-0.4-1.9-0.9-2.6-1.6c-0.8-0.7-1.4-1.5-1.8-2.5c-0.4-0.9-0.6-2-0.6-3.1
		s0.2-2.2,0.6-3.2c0.4-1,1-1.8,1.8-2.5c0.7-0.7,1.6-1.2,2.6-1.6c1-0.4,2.1-0.6,3.2-0.6c1.1,0,2.2,0.2,3.2,0.6s1.9,0.9,2.6,1.6
		c0.8,0.7,1.4,1.6,1.8,2.5c0.4,1,0.7,2,0.7,3.1s-0.2,2.2-0.7,3.1c-0.4,1-1,1.8-1.8,2.5c-0.8,0.7-1.6,1.2-2.6,1.6
		C2139,107.8,2138,108,2136.9,108z M2131.4,100.2c0,1.5,0.5,2.7,1.5,3.8s2.3,1.5,3.9,1.5c1.6,0,2.9-0.5,3.9-1.5c1-1,1.5-2.3,1.5-3.8
		c0-1.5-0.5-2.7-1.6-3.8c-1-1-2.3-1.6-3.9-1.6c-0.8,0-1.5,0.1-2.2,0.4s-1.2,0.7-1.7,1.2c-0.5,0.5-0.8,1.1-1.1,1.7
		C2131.6,98.8,2131.4,99.5,2131.4,100.2z M2134,124.5c-0.3,0-0.5-0.1-0.6-0.2c-0.1-0.1-0.2-0.3-0.2-0.6v-6.5c0-0.3,0.1-0.5,0.2-0.6
		c0.1-0.1,0.3-0.2,0.6-0.2h17.4v-3.3h-18.1v-2.4h20.5c0.3,0,0.5,0.1,0.6,0.2c0.1,0.1,0.2,0.3,0.2,0.6v6.4c0,0.3-0.1,0.5-0.2,0.6
		c-0.1,0.1-0.3,0.2-0.6,0.2h-17.4v3.5h18.9v2.4H2134z M2154.6,92v16.8h-2.9V92H2154.6z"/>
</g>
<g class="st9">
	<path class="st10" d="M2171.1,108.2c0-1.5,0.2-3,0.5-4.6c0.3-1.6,0.8-3.1,1.5-4.7c0.7-1.5,1.5-3,2.4-4.4c0.9-1.4,2-2.8,3.2-4h2.2
		c-2.2,2.9-3.8,5.9-4.9,8.9c-1,3-1.6,6-1.6,8.9c0,2.9,0.5,5.9,1.6,8.9c1,3,2.7,6,4.9,8.9h-2.2c-1.2-1.2-2.2-2.5-3.2-4
		c-0.9-1.4-1.7-2.9-2.4-4.5c-0.6-1.5-1.1-3.1-1.5-4.7C2171.3,111.3,2171.1,109.8,2171.1,108.2z"/>
</g>
<g class="st9">
	<path class="st10" d="M2198,93.5c0.3,0,0.5,0.1,0.6,0.2c0.1,0.1,0.2,0.3,0.2,0.6c-0.4,4-1.9,7.4-4.5,10.2c-2.6,2.8-6,4.9-10.4,6.3
		l-1.9-2.1c1.6-0.4,3.1-1,4.6-1.7c1.5-0.7,2.8-1.6,4-2.6c1.2-1,2.2-2.2,3.1-3.6c0.9-1.4,1.5-2.9,1.8-4.7h-11.7v-2.6H2198z
		 M2188,112.3h19.1c0.3,0,0.5,0.1,0.6,0.2c0.1,0.1,0.2,0.3,0.2,0.6v10.6c0,0.3-0.1,0.5-0.2,0.6c-0.1,0.1-0.3,0.2-0.6,0.2H2188
		c-0.3,0-0.5-0.1-0.6-0.2s-0.2-0.3-0.2-0.6v-10.6c0-0.3,0.1-0.5,0.2-0.6C2187.5,112.4,2187.8,112.3,2188,112.3z M2190.2,122h14.8
		v-7.3l-14.8,0V122z M2212.3,102.2h-4.6v8.3h-2.9V92h2.9v7.6h4.6V102.2z"/>
</g>
<g class="st9">
	<path class="st10" d="M2214.8,100.6c0-1.1,0.2-2.2,0.6-3.2c0.4-1,1-1.9,1.8-2.6c0.7-0.7,1.6-1.3,2.7-1.8c1-0.4,2.2-0.7,3.5-0.7
		c1.5,0,2.8,0.3,4,0.9c1.2,0.6,2.1,1.4,2.9,2.4h7.8V92h2.9v18.6h-2.9v-5.1h-7.7c-0.7,1-1.7,1.9-2.9,2.5c-1.2,0.6-2.6,0.9-4,0.9
		c-1.3,0-2.4-0.2-3.5-0.6c-1-0.4-1.9-1-2.7-1.8c-0.8-0.7-1.4-1.6-1.8-2.6C2215,102.9,2214.8,101.8,2214.8,100.6z M2217.8,100.6
		c0,1.6,0.5,2.9,1.4,4c1,1.1,2.3,1.7,4.1,1.7c1.7,0,3.1-0.6,4-1.7c1-1.1,1.4-2.5,1.4-4c0-1.6-0.5-2.9-1.4-4c-1-1.1-2.3-1.7-4-1.7
		c-1.8,0-3.1,0.6-4.1,1.7C2218.2,97.7,2217.8,99.1,2217.8,100.6z M2220.4,112.4h19.7c0.3,0,0.5,0.1,0.6,0.2c0.1,0.1,0.2,0.3,0.2,0.6
		v10.5c0,0.3-0.1,0.5-0.2,0.6c-0.1,0.1-0.3,0.2-0.6,0.2h-19.7c-0.3,0-0.5-0.1-0.6-0.2s-0.2-0.3-0.2-0.6v-10.5c0-0.3,0.1-0.5,0.2-0.6
		C2219.9,112.5,2220.1,112.4,2220.4,112.4z M2222.6,122h15.4v-7.2h-15.4V122z M2231.5,98.2c0.1,0.4,0.2,0.8,0.3,1.2
		c0.1,0.4,0.1,0.8,0.1,1.3c0,0.4,0,0.8-0.1,1.2c-0.1,0.4-0.1,0.8-0.2,1.1h6.5v-4.8H2231.5z"/>
	<path class="st10" d="M2263.2,108.6c0,0.3-0.1,0.5-0.2,0.6c-0.1,0.1-0.3,0.2-0.6,0.2h-13.2c-0.3,0-0.5-0.1-0.6-0.2
		c-0.1-0.1-0.2-0.3-0.2-0.6V93.2h2.9v5.4h9.1v-5.4h2.8v3.8h7.1V92h2.9v20.3h-2.9V106h-7.1V108.6z M2250.9,119c0-2,1-3.6,3-4.8
		c2-1.2,4.8-1.8,8.3-1.8c3.5,0,6.2,0.6,8.3,1.8c2,1.2,3.1,2.8,3.1,4.8c0,2-1,3.6-3.1,4.7c-2,1.1-4.8,1.7-8.3,1.7
		c-3.5,0-6.3-0.6-8.3-1.7C2251.9,122.6,2250.9,121,2250.9,119z M2251.2,106.9h9.1v-5.8h-9.1V106.9z M2254,119c0,1.3,0.8,2.4,2.3,3.1
		c1.5,0.7,3.5,1.1,5.9,1.1c2.4,0,4.4-0.4,5.9-1.1c1.6-0.7,2.3-1.7,2.3-3c0-1.3-0.8-2.4-2.3-3.1c-1.6-0.7-3.5-1.1-5.9-1.1
		c-2.4,0-4.4,0.4-5.9,1.1C2254.7,116.6,2254,117.6,2254,119z M2263.2,99.4v4.2h7.1v-4.2H2263.2z"/>
</g>
<g class="st9">
	<path class="st10" d="M2299.8,99.4c2.4,0,4.3,0.4,5.8,1.2c1.5,0.8,2.2,1.9,2.2,3.3c0,1.2-0.6,2.1-1.8,3c-1.2,0.8-2.7,1.3-4.6,1.5
		v2.7c0.6,0,1.3,0,2.2-0.1c0.9,0,1.7-0.1,2.6-0.2c0.9-0.1,1.8-0.2,2.6-0.2c0.9-0.1,1.6-0.2,2.2-0.3v2.3c-0.8,0.1-1.7,0.3-2.8,0.4
		c-1,0.1-2.1,0.2-3.2,0.3c-1.1,0.1-2.2,0.1-3.4,0.2s-2.2,0-3.2,0h-9.4V111h9.2v-2.7c-1.9-0.1-3.5-0.6-4.7-1.5s-1.8-1.8-1.8-3
		c0-1.4,0.7-2.4,2.2-3.3C2295.5,99.8,2297.4,99.4,2299.8,99.4z M2290.6,95.7h18.1v2.1h-18.1V95.7z M2314.3,116.4
		c0.3,0,0.5,0.1,0.6,0.2c0.1,0.1,0.2,0.3,0.2,0.6v7.8h-3v-6.3h-18.9v-2.4H2314.3z M2299.8,101.4c-1.5,0-2.7,0.2-3.6,0.7
		c-0.9,0.5-1.3,1.1-1.3,1.9c0,0.7,0.4,1.3,1.3,1.8c0.9,0.4,2.1,0.6,3.6,0.6c1.5,0,2.7-0.2,3.6-0.6c0.9-0.4,1.3-1,1.3-1.8
		c0-0.8-0.4-1.4-1.3-1.9C2302.5,101.7,2301.3,101.4,2299.8,101.4z M2295.1,91.9h9.2V94h-9.2V91.9z M2315.2,92v10.3h4.6v2.6h-4.6v9.8
		h-2.8V92H2315.2z"/>
	<path class="st10" d="M2338.5,110.2c-0.7-0.3-1.4-0.7-2.2-1.2c-0.8-0.5-1.5-1.1-2.3-1.7c-0.7-0.7-1.4-1.4-2.1-2.2
		c-0.7-0.8-1.2-1.6-1.6-2.5c-0.3,1-0.8,1.9-1.4,2.7c-0.6,0.8-1.3,1.6-2,2.4c-0.7,0.7-1.5,1.4-2.3,2c-0.8,0.6-1.6,1.1-2.5,1.6l-2.3-2
		c1.2-0.6,2.3-1.3,3.4-2.1c1.1-0.8,2-1.7,2.8-2.7c0.8-1,1.5-2.1,1.9-3.4c0.5-1.2,0.7-2.6,0.7-4.1v-4.1h3.1v3.8
		c0,1.4,0.2,2.7,0.7,3.9c0.5,1.2,1.1,2.3,1.9,3.2c0.8,1,1.7,1.8,2.7,2.5c1,0.7,2.1,1.3,3.2,1.7L2338.5,110.2z M2326.3,113.7h2.9v8
		h18.6v2.5h-20.8c-0.3,0-0.5-0.1-0.6-0.2s-0.2-0.3-0.2-0.6V113.7z M2346.8,92v9.8h4.5v2.6h-4.5v11.7h-2.9V92H2346.8z"/>
</g>
<g class="st9">
	<path class="st10" d="M2365.4,105.3c0-2.1,0.2-4,0.6-5.6c0.4-1.6,1-2.9,1.7-3.9c0.7-1,1.6-1.8,2.6-2.3c1-0.5,2.1-0.7,3.2-0.7
		c1.1,0,2.1,0.3,3.1,0.8c1,0.5,1.9,1.3,2.6,2.3c0.7,1,1.3,2.3,1.8,3.9c0.4,1.6,0.6,3.4,0.6,5.5s-0.2,4-0.6,5.5s-1,2.8-1.8,3.9
		c-0.7,1-1.6,1.8-2.6,2.3c-1,0.5-2,0.8-3.1,0.8c-1.1,0-2.2-0.2-3.2-0.7c-1-0.5-1.8-1.3-2.6-2.3s-1.3-2.3-1.7-3.9
		C2365.6,109.2,2365.4,107.4,2365.4,105.3z M2368.3,105.3c0,1.3,0.1,2.6,0.3,3.8c0.2,1.2,0.5,2.2,0.9,3.1c0.4,0.9,1,1.6,1.6,2.1
		c0.7,0.5,1.4,0.8,2.3,0.8c0.9,0,1.7-0.3,2.3-0.8c0.6-0.5,1.2-1.2,1.6-2.1c0.4-0.9,0.7-1.9,0.9-3.1c0.2-1.2,0.3-2.5,0.3-3.8
		c0-1.3-0.1-2.6-0.3-3.7c-0.2-1.2-0.5-2.2-0.9-3.1c-0.4-0.9-1-1.6-1.6-2.1c-0.7-0.5-1.4-0.8-2.3-0.8c-0.9,0-1.7,0.3-2.4,0.8
		c-0.7,0.5-1.2,1.3-1.6,2.2c-0.4,0.9-0.8,2-1,3.1C2368.4,102.8,2368.3,104,2368.3,105.3z M2391,92v32.9h-2.9V92H2391z"/>
	<path class="st10" d="M2398.4,93.5h16V96h-6.5v2c0,1.2,0.2,2.4,0.6,3.4c0.4,1,0.9,2,1.6,2.8c0.8,1.1,1.8,2,2.9,2.8
		c1.1,0.8,2.3,1.3,3.4,1.7c-0.3,0.3-0.7,0.7-1.1,1.1c-0.4,0.4-0.7,0.8-0.9,1.1c-0.7-0.3-1.4-0.7-2.2-1.2c-0.8-0.5-1.5-1.1-2.3-1.8
		c-0.7-0.6-1.4-1.3-2-2c-0.6-0.8-1.2-1.6-1.6-2.5c-0.3,0.9-0.8,1.8-1.3,2.6c-0.5,0.8-1.1,1.5-1.8,2.2c-0.7,0.7-1.5,1.4-2.4,2
		c-0.9,0.6-1.7,1.1-2.6,1.6c-0.2-0.2-0.6-0.6-1.1-1c-0.5-0.4-0.9-0.8-1.2-1c1.3-0.6,2.6-1.3,3.8-2.2c1.2-0.9,2.2-1.9,3-3.1
		c0.6-0.9,1.2-1.9,1.5-3c0.4-1.1,0.6-2.3,0.6-3.6v-2h-6.5V93.5z M2403.4,124.1c-0.3,0-0.5-0.1-0.6-0.2s-0.2-0.3-0.2-0.6v-9.7h3v8
		h19.1v2.5H2403.4z M2420.9,92h2.9v24h-2.9v-13.7h-6.8v-2.6h6.8V92z"/>
</g>
<g class="st9">
	<path class="st10" d="M2442.3,94.1h10.4v2.5h-8.3v17.2h0.7c0.7,0,1.4,0,2.3,0s1.7-0.1,2.6-0.1c0.9-0.1,1.7-0.2,2.6-0.2
		c0.8-0.1,1.6-0.2,2.2-0.3v2.6c-1.5,0.2-3.2,0.5-5.1,0.6c-1.9,0.2-3.8,0.2-5.7,0.2h-1.7c-0.3,0-0.5,0-0.6-0.1
		c-0.1-0.1-0.1-0.3-0.1-0.6V94.9c0-0.3,0.1-0.5,0.2-0.6S2442,94.1,2442.3,94.1z M2459.2,92.6v11.2h4.4V92h2.8v32.8h-2.8v-18.2h-4.4
		v16.7h-2.8V92.6H2459.2z"/>
	<path class="st10" d="M2473.7,115.9V93.6h2.9v8.5h9.3v-8.5h2.8v22.3c0,0.3-0.1,0.5-0.2,0.6c-0.1,0.1-0.3,0.2-0.6,0.2h-13.5
		c-0.3,0-0.5-0.1-0.6-0.2C2473.7,116.4,2473.7,116.2,2473.7,115.9z M2476.6,114.2h9.3v-9.5h-9.3V114.2z M2498.2,92v32.8h-2.9V92
		H2498.2z"/>
</g>
<g class="st9">
	<path class="st10" d="M2511.5,108.2c0,1.5-0.2,3.1-0.5,4.7c-0.3,1.6-0.8,3.1-1.5,4.7c-0.7,1.6-1.5,3-2.4,4.5c-0.9,1.4-2,2.8-3.1,4
		h-2.2c2.2-2.9,3.8-5.8,4.8-8.9c1.1-3,1.6-6,1.6-8.9c0-2.9-0.5-5.8-1.6-8.9c-1.1-3-2.7-6-4.8-8.9h2.2c1.2,1.2,2.2,2.6,3.1,4
		c0.9,1.4,1.7,2.9,2.4,4.4c0.6,1.6,1.1,3.1,1.5,4.7C2511.3,105.2,2511.5,106.7,2511.5,108.2z"/>
</g>
<g class="st9">
	<path class="st10" d="M2865.3,62.6c-0.8,2.7-1.9,4.7-3.3,6c-1.4,1.3-3.1,1.9-5,1.9c-2.8,0-5-1.3-6.8-3.9c-1.7-2.6-2.6-6.7-2.6-12.3
		c0-5.6,0.9-9.7,2.6-12.4c1.7-2.6,4-4,6.8-4c1.9,0,3.5,0.6,5,1.8c1.4,1.2,2.5,3.1,3.3,5.7h4.9v-8.2h5.3v40.2h-5.3V62.6H2865.3z
		 M2852.7,54.1c0,1.6,0.1,3.1,0.2,4.5c0.2,1.4,0.4,2.6,0.8,3.6c0.4,1,0.8,1.8,1.3,2.4c0.5,0.6,1.2,0.9,1.9,0.9
		c0.7,0,1.3-0.3,1.8-0.9c0.5-0.6,1-1.4,1.3-2.4c0.4-1,0.6-2.2,0.8-3.6c0.2-1.4,0.3-2.9,0.3-4.5c0-1.6-0.1-3.1-0.3-4.5
		c-0.2-1.4-0.4-2.6-0.8-3.6c-0.4-1-0.8-1.8-1.3-2.4c-0.5-0.6-1.1-0.9-1.8-0.9c-0.7,0-1.4,0.3-1.9,0.9c-0.5,0.6-1,1.4-1.3,2.4
		c-0.4,1-0.6,2.2-0.8,3.6C2852.8,51,2852.7,52.5,2852.7,54.1z M2866.2,54.2c0,0.6,0,1.2,0,1.8c0,0.6-0.1,1.1-0.1,1.6h4v-7.2h-4
		c0,0.6,0.1,1.2,0.1,1.8S2866.2,53.5,2866.2,54.2z M2878.3,79.4v-43h5.2v43H2878.3z"/>
	<path class="st10" d="M2910.6,60.6c-2.1-1.1-4-2.3-5.9-3.8c-1.8-1.5-3.2-3.1-4-4.7c-0.4,0.9-0.9,1.8-1.6,2.7
		c-0.7,0.9-1.5,1.8-2.3,2.6c-0.9,0.8-1.9,1.6-2.9,2.4c-1,0.8-2,1.4-3,2l-4.2-3.6c1.5-0.7,2.9-1.6,4.3-2.6c1.3-1,2.5-2.1,3.5-3.4
		c1-1.2,1.8-2.6,2.4-4.1c0.6-1.5,0.9-3.1,0.9-4.8v-5.9h5.7v5.8c0,1.5,0.2,2.9,0.8,4.3c0.5,1.4,1.3,2.7,2.3,3.8
		c1,1.2,2.1,2.2,3.4,3.2c1.3,0.9,2.6,1.6,4.1,2.2L2910.6,60.6z M2896.1,78.6c-0.5,0-0.9-0.1-1-0.3c-0.2-0.2-0.3-0.5-0.3-1.1V64.9
		h5.6V74h23.9v4.6H2896.1z M2928.4,53.4h-5.6v14.7h-5.4V36.5h5.4v12.3h5.6V53.4z"/>
</g>
<g class="st9">
	<path class="st10" d="M2828.3,109.4c2.7-1.2,4.9-2.8,6.5-4.8c1.6-2,2.4-4.4,2.4-7.1v-1.4h-6.5v-2.5h16v2.5h-6.5v1.5
		c0,1.3,0.2,2.6,0.7,3.7c0.5,1.2,1.1,2.2,2,3.1c0.8,0.9,1.7,1.7,2.7,2.4s2.1,1.2,3.1,1.5l-1.9,2.2c-0.7-0.3-1.4-0.7-2.1-1.1
		c-0.8-0.5-1.5-1-2.3-1.7c-0.7-0.6-1.4-1.3-2.1-2.1c-0.7-0.8-1.2-1.6-1.6-2.5c-0.3,0.9-0.8,1.8-1.3,2.6c-0.6,0.8-1.2,1.6-2,2.3
		c-0.7,0.7-1.5,1.3-2.4,1.9c-0.8,0.6-1.7,1.1-2.5,1.5L2828.3,109.4z M2834.4,113.8h3v7.8h18.6v2.5h-20.8c-0.3,0-0.5-0.1-0.6-0.2
		s-0.2-0.3-0.2-0.6V113.8z M2852,116.1V92h2.8v9.5h4.5v2.5h-4.5v12H2852z"/>
	<path class="st10" d="M2868.4,109.5c-1.1,0-2.1-0.2-3-0.6c-0.9-0.4-1.7-1-2.3-1.7s-1.1-1.6-1.5-2.6c-0.4-1-0.5-2.1-0.5-3.3
		c0-1.3,0.2-2.4,0.5-3.4c0.4-1,0.9-1.9,1.5-2.6c0.6-0.7,1.4-1.3,2.3-1.7c0.9-0.4,1.9-0.6,3-0.6c1.1,0,2.1,0.2,3,0.6
		c0.9,0.4,1.7,1,2.3,1.7c0.7,0.7,1.2,1.6,1.6,2.6c0.4,1,0.6,2.2,0.6,3.4s-0.2,2.4-0.6,3.4s-0.9,1.9-1.6,2.6
		c-0.6,0.7-1.4,1.3-2.3,1.7C2870.5,109.3,2869.5,109.5,2868.4,109.5z M2868.4,106.9c1.5,0,2.6-0.5,3.4-1.6c0.8-1.1,1.2-2.5,1.2-4.1
		c0-1.7-0.4-3.1-1.2-4.2c-0.8-1.1-2-1.6-3.4-1.6c-1.4,0-2.6,0.5-3.4,1.6c-0.8,1.1-1.2,2.5-1.2,4.2c0,1.7,0.4,3,1.2,4.1
		C2865.8,106.4,2867,106.9,2868.4,106.9z M2887.5,113.1c0.3,0,0.5,0.1,0.6,0.2c0.1,0.1,0.2,0.3,0.2,0.6V125h-2.9v-9.4h-19.3v-2.5
		H2887.5z M2881.3,92.6v6.8h4.1V92h2.8v19.4h-2.8v-9.3h-4.1v9.3h-2.8V92.6H2881.3z"/>
</g>
<g class="st9">
	<path class="st10" d="M2904.4,108.2c0-1.5,0.2-3,0.5-4.6c0.3-1.6,0.8-3.1,1.5-4.7c0.7-1.5,1.5-3,2.4-4.4c0.9-1.4,2-2.8,3.2-4h2.2
		c-2.2,2.9-3.8,5.9-4.9,8.9c-1,3-1.6,6-1.6,8.9c0,2.9,0.5,5.9,1.6,8.9c1,3,2.7,6,4.9,8.9h-2.2c-1.2-1.2-2.2-2.5-3.2-4
		c-0.9-1.4-1.7-2.9-2.4-4.5c-0.6-1.5-1.1-3.1-1.5-4.7C2904.6,111.3,2904.4,109.8,2904.4,108.2z"/>
	<path class="st10" d="M2923.3,107.9c-0.9-0.3-1.7-0.6-2.6-1s-1.6-0.8-2.2-1.4c-0.6-0.5-1.2-1.2-1.5-2c-0.4-0.8-0.6-1.8-0.6-2.9
		c0-1,0.2-1.9,0.6-2.8c0.4-0.8,0.9-1.5,1.5-2.1c0.6-0.6,1.4-1.1,2.2-1.5s1.7-0.6,2.6-0.7v-2.9h2.5v2.8c0.8,0.1,1.5,0.2,2.1,0.4
		c0.6,0.2,1.3,0.5,1.9,0.8c0.9,0.5,1.6,1.2,2.2,2.1c0.6,0.9,0.9,1.9,0.9,3.2h-2.9c-0.1-1.3-0.6-2.3-1.5-2.9c-0.9-0.6-1.9-1-3-1.1
		v9.9c0.1,0.1,0.3,0.1,0.4,0.2c0.1,0,0.3,0.1,0.5,0.1c0.9,0.3,1.8,0.7,2.6,1.1c0.8,0.4,1.6,0.8,2.3,1.3c0.6,0.5,1.2,1.2,1.5,2
		c0.4,0.8,0.6,1.7,0.6,2.8c0,1.3-0.3,2.5-0.8,3.5s-1.2,1.8-2,2.4c-0.8,0.6-1.6,1-2.4,1.2c-0.8,0.2-1.6,0.4-2.6,0.4v4h-2.5v-4
		c-2.4-0.1-4.2-0.9-5.6-2.2c-1.3-1.3-2-3.1-2-5.4h3c0,1.8,0.4,3,1.3,3.8c0.9,0.8,2.1,1.2,3.4,1.3V108c0,0-0.1,0-0.1,0
		C2923.4,108,2923.4,108,2923.3,107.9C2923.4,107.9,2923.3,107.9,2923.3,107.9z M2923.6,95.9c-1.3,0.2-2.3,0.7-3.1,1.5
		c-0.8,0.8-1.2,1.8-1.2,2.9c0,1.4,0.4,2.4,1.2,3.1s1.8,1.3,3.2,1.8V95.9z M2925.5,118.4c0.6-0.1,1.2-0.2,1.8-0.5
		c0.6-0.2,1.1-0.6,1.6-1c0.5-0.4,0.9-0.9,1.1-1.5s0.4-1.2,0.4-2c0-1.4-0.4-2.4-1.3-3c-0.9-0.6-2.1-1.3-3.7-1.9V118.4z"/>
	<path class="st10" d="M2945.2,108.2c0,1.5-0.2,3.1-0.5,4.7c-0.3,1.6-0.8,3.1-1.5,4.7c-0.7,1.6-1.5,3-2.4,4.5c-0.9,1.4-2,2.8-3.1,4
		h-2.2c2.2-2.9,3.8-5.8,4.8-8.9c1.1-3,1.6-6,1.6-8.9c0-2.9-0.5-5.8-1.6-8.9c-1.1-3-2.7-6-4.8-8.9h2.2c1.2,1.2,2.2,2.6,3.1,4
		c0.9,1.4,1.7,2.9,2.4,4.4c0.6,1.6,1.1,3.1,1.5,4.7C2945,105.2,2945.2,106.7,2945.2,108.2z"/>
</g>
<path class="st8" d="M1409.5,187.5v69.3"/>
<path class="st8" d="M2003.5,187.5v69.3"/>
<path class="st8" d="M2597.5,187.5v69.3"/>
</svg>
