<?xml version="1.0" encoding="utf-8"?>
<!-- Generator: Adobe Illustrator 25.3.1, SVG Export Plug-In . SVG Version: 6.00 Build 0)  -->
<svg version="1.1" id="레이어_1" xmlns="http://www.w3.org/2000/svg" xmlns:xlink="http://www.w3.org/1999/xlink" x="0px"
	 y="0px" viewBox="0 0 3240 312" style="enable-background:new 0 0 3240 312;" xml:space="preserve">
<style type="text/css">
	.st0{fill:none;}
	.st1{fill:#EEEFEF;}
	.st2{fill-rule:evenodd;clip-rule:evenodd;fill:#3774B3;}
	.st3{fill:#706092;}
	.st4{fill-rule:evenodd;clip-rule:evenodd;fill:#FFFFFF;}
	.st5{fill-rule:evenodd;clip-rule:evenodd;fill:#9D9D9D;}
	.st6{fill:#4EA5A8;}
	.st7{fill:#4677C2;}
	.st8{fill:none;stroke:#D9D9D9;stroke-width:3.4375;stroke-linecap:round;stroke-miterlimit:8;}
	.st9{enable-background:new    ;}
	.st10{fill:#FFFFFF;}
</style>
<rect class="st0" width="3240" height="312"/>
<g transform="translate(-22 -259)">
	<rect x="22" y="259" class="st1" width="3240" height="312"/>
	<path class="st2" d="M246,296.8c0-9.9,8-17.8,17.8-17.8h2929.3c9.9,0,17.8,8,17.8,17.8v88.3c0,9.9-8,17.8-17.8,17.8H263.8
		c-9.9,0-17.8-8-17.8-17.8L246,296.8L246,296.8z"/>
	<rect x="2026" y="279" class="st3" width="593" height="124"/>
	<path class="st4" d="M246,436.8c0-9.9,8-17.8,17.8-17.8h2929.3c9.9,0,17.8,8,17.8,17.8v88.3c0,9.9-8,17.8-17.8,17.8H263.8
		c-9.9,0-17.8-8-17.8-17.8L246,436.8L246,436.8z"/>
	<path class="st5" d="M261.3,279H837v124H261.3c-8.4,0-15.3-8-15.3-17.8v-88.3C246,287,252.8,279,261.3,279z"/>
	<rect x="837" y="279" class="st6" width="596" height="124"/>
	<rect x="1432" y="279" class="st7" width="593" height="124"/>
	<path class="st8" d="M837.5,446.5v69.3"/>
	<g class="st9">
		<path class="st10" d="M437.5,332v-34.4h6.9V332H437.5z"/>
		<path class="st10" d="M473.6,332H467v-12.7c0-2.7-0.1-4.4-0.4-5.2s-0.7-1.4-1.4-1.8s-1.4-0.7-2.3-0.7c-1.1,0-2.2,0.3-3.1,0.9
			s-1.5,1.5-1.9,2.5s-0.5,2.9-0.5,5.7V332h-6.6v-24.9h6.1v3.7c2.2-2.8,4.9-4.2,8.2-4.2c1.5,0,2.8,0.3,4,0.8s2.1,1.2,2.7,2
			s1,1.7,1.3,2.8s0.4,2.5,0.4,4.4V332z"/>
		<path class="st10" d="M477.4,307.1h3.7v-1.9c0-2.1,0.2-3.7,0.7-4.7s1.3-1.9,2.5-2.5s2.7-1,4.5-1c1.9,0,3.7,0.3,5.5,0.8l-0.9,4.6
			c-1-0.2-2.1-0.4-3-0.4c-1,0-1.6,0.2-2.1,0.7s-0.6,1.3-0.6,2.6v1.8h4.9v5.2h-4.9V332h-6.6v-19.7h-3.7V307.1z"/>
		<path class="st10" d="M510.7,324.1l6.6,1.1c-0.8,2.4-2.2,4.2-4,5.5s-4.1,1.9-6.8,1.9c-4.3,0-7.5-1.4-9.6-4.2
			c-1.6-2.3-2.5-5.1-2.5-8.6c0-4.1,1.1-7.4,3.2-9.7s4.9-3.5,8.2-3.5c3.7,0,6.6,1.2,8.8,3.7s3.2,6.2,3.1,11.2h-16.5
			c0,2,0.6,3.5,1.6,4.6s2.3,1.6,3.8,1.6c1,0,1.9-0.3,2.6-0.8S510.3,325.3,510.7,324.1z M511.1,317.4c0-1.9-0.5-3.4-1.5-4.3
			s-2.1-1.5-3.4-1.5c-1.4,0-2.6,0.5-3.6,1.6s-1.4,2.5-1.4,4.3H511.1z"/>
		<path class="st10" d="M544.7,314.5l-6.5,1.2c-0.2-1.3-0.7-2.3-1.5-2.9s-1.8-1-3-1c-1.6,0-2.9,0.6-3.9,1.7s-1.5,3-1.5,5.7
			c0,3,0.5,5,1.5,6.3s2.3,1.8,4,1.8c1.2,0,2.3-0.4,3.1-1.1s1.4-1.9,1.7-3.7l6.5,1.1c-0.7,3-2,5.2-3.9,6.7s-4.5,2.3-7.7,2.3
			c-3.6,0-6.5-1.1-8.7-3.4s-3.2-5.5-3.2-9.5c0-4.1,1.1-7.3,3.3-9.6s5.1-3.4,8.8-3.4c3,0,5.4,0.7,7.2,2S543.9,311.8,544.7,314.5z"/>
		<path class="st10" d="M561.1,307.1v5.2h-4.5v10c0,2,0,3.2,0.1,3.6s0.3,0.6,0.6,0.8s0.7,0.3,1.1,0.3c0.6,0,1.5-0.2,2.6-0.6l0.6,5.1
			c-1.5,0.7-3.3,1-5.2,1c-1.2,0-2.3-0.2-3.2-0.6s-1.7-0.9-2.1-1.5s-0.8-1.5-0.9-2.6c-0.1-0.8-0.2-2.3-0.2-4.6v-10.9h-3v-5.2h3v-4.9
			l6.6-3.8v8.8H561.1z"/>
		<path class="st10" d="M565.7,303.7v-6.1h6.6v6.1H565.7z M565.7,332v-24.9h6.6V332H565.7z"/>
		<path class="st10" d="M577.5,319.2c0-2.2,0.5-4.3,1.6-6.4s2.6-3.6,4.6-4.7s4.2-1.6,6.6-1.6c3.8,0,6.9,1.2,9.3,3.7s3.6,5.5,3.6,9.3
			c0,3.8-1.2,6.9-3.6,9.4s-5.5,3.7-9.2,3.7c-2.3,0-4.5-0.5-6.5-1.5s-3.6-2.5-4.7-4.5S577.5,322.1,577.5,319.2z M584.2,319.6
			c0,2.5,0.6,4.4,1.8,5.7s2.6,2,4.3,2s3.2-0.7,4.3-2s1.7-3.2,1.7-5.7c0-2.4-0.6-4.3-1.7-5.6s-2.6-2-4.3-2s-3.2,0.7-4.3,2
			S584.2,317.1,584.2,319.6z"/>
		<path class="st10" d="M624.7,332v-3.7c-0.9,1.3-2.1,2.4-3.6,3.1s-3,1.1-4.7,1.1c-1.7,0-3.2-0.4-4.5-1.1s-2.3-1.8-2.9-3.1
			s-0.9-3.2-0.9-5.5v-15.8h6.6v11.4c0,3.5,0.1,5.6,0.4,6.4s0.7,1.4,1.3,1.9s1.5,0.7,2.4,0.7c1.1,0,2.1-0.3,3-0.9s1.5-1.4,1.8-2.3
			s0.5-3.2,0.5-6.7v-10.5h6.6V332H624.7z"/>
		<path class="st10" d="M635.3,324.9l6.6-1c0.3,1.3,0.9,2.3,1.7,2.9s2.1,1,3.6,1c1.7,0,3-0.3,3.8-0.9c0.6-0.4,0.9-1,0.9-1.8
			c0-0.5-0.2-0.9-0.5-1.2c-0.3-0.3-1.1-0.6-2.2-0.9c-5.3-1.2-8.7-2.2-10.1-3.2c-2-1.3-3-3.2-3-5.6c0-2.2,0.9-4,2.6-5.4
			s4.3-2.2,7.9-2.2c3.4,0,5.9,0.6,7.6,1.7s2.8,2.8,3.4,4.9l-6.2,1.1c-0.3-1-0.8-1.7-1.5-2.2s-1.8-0.8-3.2-0.8c-1.7,0-3,0.2-3.7,0.7
			c-0.5,0.3-0.8,0.8-0.8,1.3c0,0.5,0.2,0.9,0.7,1.2c0.6,0.4,2.6,1.1,6.2,1.9s6,1.8,7.3,2.9c1.4,1.2,2.1,2.8,2.1,4.9
			c0,2.3-1,4.2-2.9,5.9s-4.7,2.5-8.5,2.5c-3.4,0-6.1-0.7-8.1-2.1S635.9,327.3,635.3,324.9z"/>
	</g>
	<g class="st9">
		<path class="st10" d="M324.5,379v-26.5h9.1c2.1,0,3.6,0.1,4.7,0.4c1.5,0.3,2.8,1,3.9,1.9c1.4,1.2,2.4,2.7,3.1,4.5
			c0.7,1.8,1,3.9,1,6.3c0,2-0.2,3.8-0.7,5.3c-0.5,1.6-1.1,2.8-1.8,3.9c-0.7,1-1.5,1.8-2.4,2.4s-1.9,1-3.2,1.3
			c-1.2,0.3-2.7,0.5-4.3,0.5H324.5z M328,375.9h5.7c1.7,0,3.1-0.2,4.1-0.5c1-0.3,1.8-0.8,2.4-1.4c0.8-0.8,1.5-1.9,1.9-3.4
			c0.5-1.4,0.7-3.1,0.7-5.1c0-2.8-0.5-4.9-1.4-6.4c-0.9-1.5-2-2.5-3.3-3c-0.9-0.4-2.5-0.5-4.5-0.5H328V375.9z"/>
		<path class="st10" d="M363.3,376.6c-1.2,1-2.4,1.7-3.5,2.2c-1.1,0.4-2.3,0.6-3.6,0.6c-2.1,0-3.7-0.5-4.9-1.5
			c-1.1-1-1.7-2.3-1.7-3.9c0-0.9,0.2-1.8,0.6-2.6c0.4-0.8,1-1.4,1.7-1.9s1.5-0.8,2.3-1.1c0.6-0.2,1.6-0.3,2.9-0.5
			c2.6-0.3,4.6-0.7,5.8-1.1c0-0.4,0-0.7,0-0.8c0-1.3-0.3-2.3-0.9-2.8c-0.8-0.7-2.1-1.1-3.7-1.1c-1.5,0-2.7,0.3-3.4,0.8
			s-1.3,1.5-1.6,2.8l-3.2-0.4c0.3-1.4,0.8-2.5,1.4-3.3c0.7-0.8,1.6-1.5,2.9-1.9c1.3-0.5,2.7-0.7,4.4-0.7c1.6,0,3,0.2,4,0.6
			s1.8,0.9,2.3,1.5c0.5,0.6,0.8,1.3,1,2.2c0.1,0.6,0.2,1.6,0.2,3v4.3c0,3,0.1,4.9,0.2,5.7c0.1,0.8,0.4,1.6,0.8,2.3H364
			C363.6,378.3,363.4,377.5,363.3,376.6z M363,369.4c-1.2,0.5-3,0.9-5.3,1.2c-1.3,0.2-2.3,0.4-2.8,0.7c-0.6,0.2-1,0.6-1.3,1.1
			s-0.5,1-0.5,1.5c0,0.9,0.3,1.6,1,2.2s1.6,0.9,2.9,0.9c1.3,0,2.4-0.3,3.3-0.8s1.7-1.3,2.2-2.2c0.3-0.7,0.5-1.8,0.5-3.3V369.4z"/>
		<path class="st10" d="M371.4,356.3v-3.7h3.3v3.7H371.4z M371.4,379v-19.2h3.3V379H371.4z"/>
		<path class="st10" d="M379.5,379v-26.5h3.3V379H379.5z"/>
		<path class="st10" d="M387.7,386.4l-0.4-3.1c0.7,0.2,1.3,0.3,1.9,0.3c0.7,0,1.3-0.1,1.7-0.4s0.8-0.6,1.1-1c0.2-0.3,0.5-1.1,1-2.4
			c0.1-0.2,0.2-0.4,0.3-0.8l-7.3-19.2h3.5l4,11.1c0.5,1.4,1,2.9,1.4,4.4c0.4-1.5,0.8-3,1.3-4.4l4.1-11.2h3.3l-7.3,19.5
			c-0.8,2.1-1.4,3.6-1.8,4.4c-0.6,1.1-1.2,1.9-2,2.4c-0.7,0.5-1.6,0.8-2.7,0.8C389.1,386.8,388.4,386.7,387.7,386.4z"/>
		<path class="st10" d="M422.8,386.8c-1.8-2.3-3.3-4.9-4.6-7.9s-1.9-6.2-1.9-9.4c0-2.9,0.5-5.6,1.4-8.2c1.1-3,2.8-6.1,5-9.1h2.3
			c-1.5,2.5-2.4,4.3-2.9,5.4c-0.7,1.7-1.3,3.4-1.7,5.2c-0.5,2.3-0.8,4.5-0.8,6.8c0,5.8,1.8,11.6,5.4,17.4H422.8z"/>
		<path class="st10" d="M448.2,369.7l3.5,0.9c-0.7,2.9-2.1,5.1-4,6.6s-4.2,2.3-7,2.3c-2.9,0-5.2-0.6-7-1.7c-1.8-1.2-3.2-2.8-4.1-5
			c-0.9-2.2-1.4-4.6-1.4-7.1c0-2.8,0.5-5.2,1.6-7.2c1.1-2.1,2.6-3.6,4.5-4.7c1.9-1.1,4.1-1.6,6.4-1.6c2.6,0,4.9,0.7,6.7,2
			c1.8,1.3,3.1,3.2,3.8,5.7l-3.5,0.8c-0.6-1.9-1.5-3.3-2.7-4.2c-1.2-0.9-2.6-1.3-4.4-1.3c-2,0-3.7,0.5-5.1,1.5
			c-1.4,1-2.3,2.3-2.9,3.9c-0.6,1.6-0.8,3.3-0.8,5.1c0,2.3,0.3,4.2,1,5.9c0.7,1.7,1.7,2.9,3.1,3.8c1.4,0.8,2.9,1.2,4.5,1.2
			c2,0,3.6-0.6,5-1.7C446.8,373.6,447.7,371.9,448.2,369.7z"/>
		<path class="st10" d="M468.2,379v-2.8c-1.5,2.2-3.5,3.3-6.1,3.3c-1.1,0-2.2-0.2-3.2-0.7c-1-0.4-1.7-1-2.2-1.6s-0.8-1.5-1-2.4
			c-0.1-0.6-0.2-1.7-0.2-3v-11.9h3.3v10.6c0,1.7,0.1,2.8,0.2,3.4c0.2,0.9,0.6,1.5,1.3,2c0.7,0.5,1.5,0.7,2.5,0.7s1.9-0.2,2.7-0.7
			s1.5-1.2,1.8-2c0.4-0.9,0.5-2.1,0.5-3.7v-10.3h3.3V379H468.2z"/>
		<path class="st10" d="M476.2,379v-19.2h2.9v2.9c0.7-1.4,1.4-2.3,2.1-2.7c0.6-0.4,1.3-0.7,2.1-0.7c1.1,0,2.2,0.3,3.3,1l-1.1,3
			c-0.8-0.5-1.6-0.7-2.4-0.7c-0.7,0-1.3,0.2-1.9,0.6c-0.6,0.4-1,1-1.2,1.8c-0.4,1.2-0.5,2.4-0.5,3.8v10H476.2z"/>
		<path class="st10" d="M488.5,379v-19.2h2.9v2.9c0.7-1.4,1.4-2.3,2.1-2.7c0.6-0.4,1.3-0.7,2.1-0.7c1.1,0,2.2,0.3,3.3,1l-1.1,3
			c-0.8-0.5-1.6-0.7-2.4-0.7c-0.7,0-1.3,0.2-1.9,0.6c-0.6,0.4-1,1-1.2,1.8c-0.4,1.2-0.5,2.4-0.5,3.8v10H488.5z"/>
		<path class="st10" d="M514,372.8l3.4,0.4c-0.5,2-1.5,3.5-2.9,4.6s-3.3,1.6-5.5,1.6c-2.8,0-5-0.9-6.7-2.6c-1.6-1.7-2.5-4.2-2.5-7.3
			c0-3.2,0.8-5.7,2.5-7.5s3.8-2.7,6.5-2.7c2.6,0,4.7,0.9,6.3,2.6c1.6,1.7,2.4,4.2,2.4,7.4c0,0.2,0,0.5,0,0.9h-14.3
			c0.1,2.1,0.7,3.7,1.8,4.8c1.1,1.1,2.4,1.7,4,1.7c1.2,0,2.2-0.3,3.1-0.9S513.5,374.2,514,372.8z M503.3,367.6H514
			c-0.1-1.6-0.6-2.8-1.2-3.6c-1-1.3-2.4-1.9-4-1.9c-1.5,0-2.7,0.5-3.8,1.5C504,364.6,503.4,365.9,503.3,367.6z"/>
		<path class="st10" d="M521.4,379v-19.2h2.9v2.7c1.4-2.1,3.4-3.2,6.1-3.2c1.2,0,2.2,0.2,3.2,0.6c1,0.4,1.7,1,2.2,1.6
			c0.5,0.7,0.8,1.5,1,2.4c0.1,0.6,0.2,1.7,0.2,3.2V379h-3.3v-11.7c0-1.3-0.1-2.3-0.4-3s-0.7-1.2-1.3-1.6c-0.6-0.4-1.4-0.6-2.3-0.6
			c-1.4,0-2.6,0.4-3.6,1.3c-1,0.9-1.5,2.5-1.5,5V379H521.4z"/>
		<path class="st10" d="M549.1,376.1l0.5,2.9c-0.9,0.2-1.7,0.3-2.5,0.3c-1.2,0-2.1-0.2-2.7-0.6c-0.7-0.4-1.1-0.9-1.4-1.5
			c-0.3-0.6-0.4-1.9-0.4-3.8v-11h-2.4v-2.5h2.4v-4.8l3.2-2v6.7h3.3v2.5h-3.3v11.2c0,0.9,0.1,1.5,0.2,1.8s0.3,0.5,0.6,0.6
			c0.3,0.2,0.6,0.2,1.1,0.2C548,376.2,548.5,376.2,549.1,376.1z"/>
		<path class="st10" d="M549.8,379.5l7.7-27.4h2.6l-7.7,27.4H549.8z"/>
		<path class="st10" d="M581.9,369.7l3.5,0.9c-0.7,2.9-2.1,5.1-4,6.6s-4.2,2.3-7,2.3c-2.9,0-5.2-0.6-7-1.7c-1.8-1.2-3.2-2.8-4.1-5
			c-0.9-2.2-1.4-4.6-1.4-7.1c0-2.8,0.5-5.2,1.6-7.2c1.1-2.1,2.6-3.6,4.5-4.7c1.9-1.1,4.1-1.6,6.4-1.6c2.6,0,4.9,0.7,6.7,2
			c1.8,1.3,3.1,3.2,3.8,5.7l-3.5,0.8c-0.6-1.9-1.5-3.3-2.7-4.2c-1.2-0.9-2.6-1.3-4.4-1.3c-2,0-3.7,0.5-5.1,1.5
			c-1.4,1-2.3,2.3-2.9,3.9c-0.6,1.6-0.8,3.3-0.8,5.1c0,2.3,0.3,4.2,1,5.9c0.7,1.7,1.7,2.9,3.1,3.8c1.4,0.8,2.9,1.2,4.5,1.2
			c2,0,3.6-0.6,5-1.7C580.5,373.6,581.4,371.9,581.9,369.7z"/>
		<path class="st10" d="M601.9,379v-2.8c-1.5,2.2-3.5,3.3-6.1,3.3c-1.1,0-2.2-0.2-3.2-0.7c-1-0.4-1.7-1-2.2-1.6s-0.8-1.5-1-2.4
			c-0.1-0.6-0.2-1.7-0.2-3v-11.9h3.3v10.6c0,1.7,0.1,2.8,0.2,3.4c0.2,0.9,0.6,1.5,1.3,2c0.7,0.5,1.5,0.7,2.5,0.7s1.9-0.2,2.7-0.7
			s1.5-1.2,1.8-2c0.4-0.9,0.5-2.1,0.5-3.7v-10.3h3.3V379H601.9z"/>
		<path class="st10" d="M609.9,379v-19.2h2.9v2.7c0.6-0.9,1.4-1.7,2.4-2.3s2.1-0.9,3.4-0.9c1.4,0,2.6,0.3,3.5,0.9
			c0.9,0.6,1.5,1.4,1.9,2.5c1.5-2.2,3.5-3.4,5.9-3.4c1.9,0,3.4,0.5,4.4,1.6s1.5,2.7,1.5,4.9V379h-3.2v-12.1c0-1.3-0.1-2.2-0.3-2.8
			c-0.2-0.6-0.6-1-1.1-1.4c-0.6-0.3-1.2-0.5-2-0.5c-1.3,0-2.5,0.4-3.4,1.3c-0.9,0.9-1.3,2.3-1.3,4.3V379h-3.3v-12.5
			c0-1.4-0.3-2.5-0.8-3.3c-0.5-0.7-1.4-1.1-2.6-1.1c-0.9,0-1.8,0.2-2.5,0.7c-0.8,0.5-1.3,1.2-1.7,2.1c-0.3,0.9-0.5,2.3-0.5,4v10
			H609.9z"/>
		<path class="st10" d="M653.3,379v-2.8c-1.5,2.2-3.5,3.3-6.1,3.3c-1.1,0-2.2-0.2-3.2-0.7s-1.7-1-2.2-1.6c-0.5-0.7-0.8-1.5-1-2.4
			c-0.1-0.6-0.2-1.7-0.2-3v-11.9h3.3v10.6c0,1.7,0.1,2.8,0.2,3.4c0.2,0.9,0.6,1.5,1.3,2c0.7,0.5,1.5,0.7,2.5,0.7s1.9-0.2,2.7-0.7
			c0.9-0.5,1.5-1.2,1.8-2c0.4-0.9,0.5-2.1,0.5-3.7v-10.3h3.3V379H653.3z"/>
		<path class="st10" d="M661.2,379v-26.5h3.3V379H661.2z"/>
		<path class="st10" d="M682,376.6c-1.2,1-2.4,1.7-3.5,2.2c-1.1,0.4-2.3,0.6-3.6,0.6c-2.1,0-3.7-0.5-4.9-1.5c-1.1-1-1.7-2.3-1.7-3.9
			c0-0.9,0.2-1.8,0.6-2.6c0.4-0.8,1-1.4,1.7-1.9s1.5-0.8,2.3-1.1c0.6-0.2,1.6-0.3,2.9-0.5c2.6-0.3,4.6-0.7,5.8-1.1
			c0-0.4,0-0.7,0-0.8c0-1.3-0.3-2.3-0.9-2.8c-0.8-0.7-2.1-1.1-3.7-1.1c-1.5,0-2.7,0.3-3.4,0.8s-1.3,1.5-1.6,2.8l-3.2-0.4
			c0.3-1.4,0.8-2.5,1.4-3.3c0.7-0.8,1.6-1.5,2.9-1.9c1.3-0.5,2.7-0.7,4.4-0.7c1.6,0,3,0.2,4,0.6s1.8,0.9,2.3,1.5
			c0.5,0.6,0.8,1.3,1,2.2c0.1,0.6,0.2,1.6,0.2,3v4.3c0,3,0.1,4.9,0.2,5.7c0.1,0.8,0.4,1.6,0.8,2.3h-3.4
			C682.3,378.3,682.1,377.5,682,376.6z M681.7,369.4c-1.2,0.5-3,0.9-5.3,1.2c-1.3,0.2-2.3,0.4-2.8,0.7c-0.6,0.2-1,0.6-1.3,1.1
			s-0.5,1-0.5,1.5c0,0.9,0.3,1.6,1,2.2s1.6,0.9,2.9,0.9c1.3,0,2.4-0.3,3.3-0.8s1.7-1.3,2.2-2.2c0.3-0.7,0.5-1.8,0.5-3.3V369.4z"/>
		<path class="st10" d="M697.2,376.1l0.5,2.9c-0.9,0.2-1.7,0.3-2.5,0.3c-1.2,0-2.1-0.2-2.7-0.6c-0.7-0.4-1.1-0.9-1.4-1.5
			s-0.4-1.9-0.4-3.8v-11h-2.4v-2.5h2.4v-4.8l3.2-2v6.7h3.3v2.5h-3.3v11.2c0,0.9,0.1,1.5,0.2,1.8c0.1,0.3,0.3,0.5,0.6,0.6
			c0.3,0.2,0.6,0.2,1.1,0.2C696.1,376.2,696.6,376.2,697.2,376.1z"/>
		<path class="st10" d="M700.4,356.3v-3.7h3.3v3.7H700.4z M700.4,379v-19.2h3.3V379H700.4z"/>
		<path class="st10" d="M713.9,379l-7.3-19.2h3.4l4.1,11.5c0.4,1.2,0.9,2.5,1.2,3.9c0.3-1,0.7-2.2,1.2-3.6l4.3-11.7h3.3l-7.3,19.2
			H713.9z"/>
		<path class="st10" d="M740.2,372.8l3.4,0.4c-0.5,2-1.5,3.5-2.9,4.6c-1.4,1.1-3.3,1.6-5.5,1.6c-2.8,0-5-0.9-6.7-2.6
			c-1.6-1.7-2.5-4.2-2.5-7.3c0-3.2,0.8-5.7,2.5-7.5s3.8-2.7,6.5-2.7c2.6,0,4.7,0.9,6.3,2.6c1.6,1.7,2.4,4.2,2.4,7.4
			c0,0.2,0,0.5,0,0.9h-14.3c0.1,2.1,0.7,3.7,1.8,4.8c1.1,1.1,2.4,1.7,4,1.7c1.2,0,2.2-0.3,3.1-0.9
			C739,375.2,739.7,374.2,740.2,372.8z M729.5,367.6h10.7c-0.1-1.6-0.6-2.8-1.2-3.6c-1-1.3-2.4-1.9-4-1.9c-1.5,0-2.7,0.5-3.8,1.5
			C730.2,364.6,729.6,365.9,729.5,367.6z"/>
		<path class="st10" d="M749.8,386.8h-2.3c3.6-5.8,5.4-11.6,5.4-17.4c0-2.3-0.3-4.5-0.8-6.7c-0.4-1.8-1-3.5-1.7-5.2
			c-0.5-1.1-1.4-2.9-2.9-5.4h2.3c2.3,3,3.9,6.1,5,9.1c0.9,2.6,1.4,5.4,1.4,8.2c0,3.3-0.6,6.4-1.9,9.4
			C753.1,381.9,751.6,384.5,749.8,386.8z"/>
	</g>
	<g class="st9">
		<path class="st10" d="M1090.4,332v-34.4h6.9V332H1090.4z"/>
		<path class="st10" d="M1126,319.4l6.7,2.1c-1,3.8-2.7,6.5-5.1,8.4s-5.4,2.7-9.1,2.7c-4.6,0-8.3-1.6-11.2-4.7s-4.4-7.4-4.4-12.8
			c0-5.7,1.5-10.2,4.4-13.3s6.8-4.7,11.6-4.7c4.2,0,7.6,1.2,10.2,3.7c1.6,1.5,2.7,3.6,3.5,6.3l-6.9,1.6c-0.4-1.8-1.3-3.2-2.5-4.2
			s-2.9-1.5-4.7-1.5c-2.5,0-4.6,0.9-6.2,2.7s-2.4,4.8-2.4,8.9c0,4.3,0.8,7.4,2.3,9.3s3.6,2.8,6.1,2.8c1.8,0,3.4-0.6,4.8-1.8
			S1125.4,321.9,1126,319.4z"/>
		<path class="st10" d="M1138.6,297.6h6.9v18.6c0,3,0.1,4.9,0.3,5.7c0.3,1.4,1,2.5,2.1,3.4s2.6,1.3,4.6,1.3c2,0,3.5-0.4,4.5-1.2
			s1.6-1.8,1.8-3s0.3-3.1,0.3-5.8v-19h6.9v18c0,4.1-0.2,7-0.6,8.7s-1.1,3.1-2.1,4.3s-2.4,2.1-4,2.8s-3.9,1-6.6,1
			c-3.3,0-5.8-0.4-7.5-1.1s-3-1.7-4-3s-1.6-2.5-1.9-3.8c-0.5-2-0.7-4.9-0.7-8.7V297.6z"/>
	</g>
	<g class="st9">
		<path class="st10" d="M972.6,386.8c-1.8-2.3-3.3-4.9-4.6-7.9c-1.2-3-1.9-6.2-1.9-9.4c0-2.9,0.5-5.6,1.4-8.2c1.1-3,2.8-6.1,5-9.1
			h2.3c-1.5,2.5-2.4,4.3-2.9,5.4c-0.7,1.7-1.3,3.4-1.7,5.2c-0.5,2.3-0.8,4.5-0.8,6.8c0,5.8,1.8,11.6,5.4,17.4H972.6z"/>
		<path class="st10" d="M998,369.7l3.5,0.9c-0.7,2.9-2.1,5.1-4,6.6c-1.9,1.5-4.2,2.3-7,2.3c-2.9,0-5.2-0.6-7-1.7
			c-1.8-1.2-3.1-2.8-4.1-5c-0.9-2.2-1.4-4.6-1.4-7.1c0-2.8,0.5-5.2,1.6-7.2c1.1-2.1,2.6-3.6,4.5-4.7c1.9-1.1,4.1-1.6,6.4-1.6
			c2.6,0,4.9,0.7,6.7,2c1.8,1.3,3.1,3.2,3.8,5.7l-3.5,0.8c-0.6-1.9-1.5-3.3-2.7-4.2c-1.2-0.9-2.6-1.3-4.4-1.3c-2,0-3.7,0.5-5.1,1.5
			c-1.4,1-2.3,2.3-2.9,3.9c-0.6,1.6-0.8,3.3-0.8,5.1c0,2.3,0.3,4.2,1,5.9c0.7,1.7,1.7,2.9,3.1,3.8c1.4,0.8,2.9,1.2,4.5,1.2
			c2,0,3.6-0.6,5-1.7C996.6,373.6,997.6,371.9,998,369.7z"/>
		<path class="st10" d="M1018,379v-2.8c-1.5,2.2-3.5,3.3-6.1,3.3c-1.1,0-2.2-0.2-3.2-0.7c-1-0.4-1.7-1-2.2-1.6
			c-0.5-0.7-0.8-1.5-1-2.4c-0.1-0.6-0.2-1.7-0.2-3v-11.9h3.3v10.6c0,1.7,0.1,2.8,0.2,3.4c0.2,0.9,0.6,1.5,1.3,2
			c0.7,0.5,1.5,0.7,2.5,0.7s1.9-0.2,2.7-0.7c0.9-0.5,1.5-1.2,1.8-2c0.4-0.9,0.5-2.1,0.5-3.7v-10.3h3.3V379H1018z"/>
		<path class="st10" d="M1026,379v-19.2h2.9v2.9c0.7-1.4,1.4-2.3,2.1-2.7c0.6-0.4,1.3-0.7,2.1-0.7c1.1,0,2.2,0.3,3.3,1l-1.1,3
			c-0.8-0.5-1.6-0.7-2.4-0.7c-0.7,0-1.3,0.2-1.9,0.6c-0.6,0.4-1,1-1.2,1.8c-0.4,1.2-0.5,2.4-0.5,3.8v10H1026z"/>
		<path class="st10" d="M1038.3,379v-19.2h2.9v2.9c0.7-1.4,1.4-2.3,2.1-2.7c0.6-0.4,1.3-0.7,2.1-0.7c1.1,0,2.2,0.3,3.3,1l-1.1,3
			c-0.8-0.5-1.6-0.7-2.4-0.7c-0.7,0-1.3,0.2-1.9,0.6c-0.6,0.4-1,1-1.2,1.8c-0.4,1.2-0.5,2.4-0.5,3.8v10H1038.3z"/>
		<path class="st10" d="M1063.8,372.8l3.4,0.4c-0.5,2-1.5,3.5-2.9,4.6c-1.4,1.1-3.3,1.6-5.5,1.6c-2.8,0-5-0.9-6.7-2.6
			c-1.6-1.7-2.5-4.2-2.5-7.3c0-3.2,0.8-5.7,2.5-7.5s3.8-2.7,6.5-2.7c2.6,0,4.7,0.9,6.3,2.6c1.6,1.7,2.4,4.2,2.4,7.4
			c0,0.2,0,0.5,0,0.9h-14.3c0.1,2.1,0.7,3.7,1.8,4.8c1.1,1.1,2.4,1.7,4,1.7c1.2,0,2.2-0.3,3.1-0.9
			C1062.6,375.2,1063.3,374.2,1063.8,372.8z M1053.1,367.6h10.7c-0.1-1.6-0.6-2.8-1.2-3.6c-1-1.3-2.4-1.9-4-1.9
			c-1.5,0-2.7,0.5-3.8,1.5C1053.8,364.6,1053.2,365.9,1053.1,367.6z"/>
		<path class="st10" d="M1071.2,379v-19.2h2.9v2.7c1.4-2.1,3.4-3.2,6.1-3.2c1.2,0,2.2,0.2,3.2,0.6c1,0.4,1.7,1,2.2,1.6
			c0.5,0.7,0.8,1.5,1,2.4c0.1,0.6,0.2,1.7,0.2,3.2V379h-3.3v-11.7c0-1.3-0.1-2.3-0.4-3s-0.7-1.2-1.3-1.6c-0.6-0.4-1.4-0.6-2.3-0.6
			c-1.4,0-2.6,0.4-3.6,1.3c-1,0.9-1.5,2.5-1.5,5V379H1071.2z"/>
		<path class="st10" d="M1098.9,376.1l0.5,2.9c-0.9,0.2-1.7,0.3-2.5,0.3c-1.2,0-2.1-0.2-2.7-0.6c-0.7-0.4-1.1-0.9-1.4-1.5
			c-0.3-0.6-0.4-1.9-0.4-3.8v-11h-2.4v-2.5h2.4v-4.8l3.2-2v6.7h3.3v2.5h-3.3v11.2c0,0.9,0.1,1.5,0.2,1.8c0.1,0.3,0.3,0.5,0.6,0.6
			c0.3,0.2,0.6,0.2,1.1,0.2C1097.9,376.2,1098.3,376.2,1098.9,376.1z"/>
		<path class="st10" d="M1099.7,379.5l7.7-27.4h2.6l-7.7,27.4H1099.7z"/>
		<path class="st10" d="M1112.7,379v-26.5h5.3l6.3,18.8c0.6,1.7,1,3.1,1.3,3.9c0.3-1,0.8-2.4,1.4-4.2l6.3-18.4h4.7V379h-3.4v-22.2
			l-7.7,22.2h-3.2l-7.7-22.5V379H1112.7z"/>
		<path class="st10" d="M1155.7,376.6c-1.2,1-2.4,1.7-3.5,2.2c-1.1,0.4-2.3,0.6-3.6,0.6c-2.1,0-3.7-0.5-4.9-1.5
			c-1.1-1-1.7-2.3-1.7-3.9c0-0.9,0.2-1.8,0.6-2.6c0.4-0.8,1-1.4,1.7-1.9c0.7-0.5,1.5-0.8,2.3-1.1c0.6-0.2,1.6-0.3,2.9-0.5
			c2.6-0.3,4.6-0.7,5.8-1.1c0-0.4,0-0.7,0-0.8c0-1.3-0.3-2.3-0.9-2.8c-0.8-0.7-2.1-1.1-3.7-1.1c-1.5,0-2.7,0.3-3.4,0.8
			c-0.7,0.5-1.3,1.5-1.6,2.8l-3.2-0.4c0.3-1.4,0.8-2.5,1.4-3.3c0.7-0.8,1.6-1.5,2.9-1.9c1.3-0.5,2.7-0.7,4.4-0.7c1.6,0,3,0.2,4,0.6
			c1,0.4,1.8,0.9,2.3,1.5c0.5,0.6,0.8,1.3,1,2.2c0.1,0.6,0.2,1.6,0.2,3v4.3c0,3,0.1,4.9,0.2,5.7c0.1,0.8,0.4,1.6,0.8,2.3h-3.4
			C1156,378.3,1155.8,377.5,1155.7,376.6z M1155.5,369.4c-1.2,0.5-3,0.9-5.3,1.2c-1.3,0.2-2.3,0.4-2.8,0.7c-0.6,0.2-1,0.6-1.3,1.1
			c-0.3,0.5-0.5,1-0.5,1.5c0,0.9,0.3,1.6,1,2.2c0.7,0.6,1.6,0.9,2.9,0.9c1.3,0,2.4-0.3,3.3-0.8s1.7-1.3,2.1-2.2
			c0.3-0.7,0.5-1.8,0.5-3.3V369.4z"/>
		<path class="st10" d="M1161.6,379l7-10l-6.5-9.2h4.1l2.9,4.5c0.6,0.9,1,1.6,1.3,2.1c0.5-0.8,1-1.5,1.5-2.1l3.2-4.5h3.9l-6.6,9
			l7.1,10.2h-4l-3.9-6l-1-1.6l-5,7.6H1161.6z"/>
		<path class="st10" d="M1182.3,356.3v-3.7h3.3v3.7H1182.3z M1182.3,379v-19.2h3.3V379H1182.3z"/>
		<path class="st10" d="M1190.5,379v-19.2h2.9v2.7c0.6-0.9,1.4-1.7,2.4-2.3c1-0.6,2.1-0.9,3.4-0.9c1.4,0,2.6,0.3,3.5,0.9
			c0.9,0.6,1.6,1.4,1.9,2.5c1.5-2.2,3.5-3.4,5.9-3.4c1.9,0,3.4,0.5,4.4,1.6c1,1.1,1.5,2.7,1.5,4.9V379h-3.2v-12.1
			c0-1.3-0.1-2.2-0.3-2.8c-0.2-0.6-0.6-1-1.1-1.4c-0.6-0.3-1.2-0.5-2-0.5c-1.3,0-2.5,0.4-3.4,1.3c-0.9,0.9-1.3,2.3-1.3,4.3V379h-3.3
			v-12.5c0-1.4-0.3-2.5-0.8-3.3c-0.5-0.7-1.4-1.1-2.6-1.1c-0.9,0-1.8,0.2-2.5,0.7c-0.8,0.5-1.3,1.2-1.7,2.1c-0.3,0.9-0.5,2.3-0.5,4
			v10H1190.5z"/>
		<path class="st10" d="M1233.9,379v-2.8c-1.5,2.2-3.5,3.3-6.1,3.3c-1.1,0-2.2-0.2-3.2-0.7c-1-0.4-1.7-1-2.2-1.6
			c-0.5-0.7-0.8-1.5-1-2.4c-0.1-0.6-0.2-1.7-0.2-3v-11.9h3.3v10.6c0,1.7,0.1,2.8,0.2,3.4c0.2,0.9,0.6,1.5,1.3,2
			c0.7,0.5,1.5,0.7,2.5,0.7s1.9-0.2,2.7-0.7c0.9-0.5,1.5-1.2,1.8-2c0.4-0.9,0.5-2.1,0.5-3.7v-10.3h3.3V379H1233.9z"/>
		<path class="st10" d="M1241.9,379v-19.2h2.9v2.7c0.6-0.9,1.4-1.7,2.4-2.3c1-0.6,2.1-0.9,3.4-0.9c1.4,0,2.6,0.3,3.5,0.9
			c0.9,0.6,1.6,1.4,1.9,2.5c1.5-2.2,3.5-3.4,5.9-3.4c1.9,0,3.4,0.5,4.4,1.6c1,1.1,1.5,2.7,1.5,4.9V379h-3.2v-12.1
			c0-1.3-0.1-2.2-0.3-2.8c-0.2-0.6-0.6-1-1.1-1.4c-0.6-0.3-1.2-0.5-2-0.5c-1.3,0-2.5,0.4-3.4,1.3c-0.9,0.9-1.3,2.3-1.3,4.3V379h-3.3
			v-12.5c0-1.4-0.3-2.5-0.8-3.3c-0.5-0.7-1.4-1.1-2.6-1.1c-0.9,0-1.8,0.2-2.5,0.7c-0.8,0.5-1.3,1.2-1.7,2.1c-0.3,0.9-0.5,2.3-0.5,4
			v10H1241.9z"/>
		<path class="st10" d="M1274.9,386.8h-2.3c3.6-5.8,5.4-11.6,5.4-17.4c0-2.3-0.3-4.5-0.8-6.7c-0.4-1.8-1-3.5-1.7-5.2
			c-0.5-1.1-1.4-2.9-2.9-5.4h2.3c2.3,3,3.9,6.1,5,9.1c0.9,2.6,1.4,5.4,1.4,8.2c0,3.3-0.6,6.4-1.9,9.4
			C1278.2,381.9,1276.6,384.5,1274.9,386.8z"/>
	</g>
	<g class="st9">
		<path class="st10" d="M1666.7,297.6h12.7c2.9,0,5,0.2,6.5,0.7c2,0.6,3.7,1.6,5.2,3.2s2.5,3.4,3.3,5.6s1.1,4.9,1.1,8.1
			c0,2.8-0.4,5.3-1.1,7.3c-0.9,2.5-2.1,4.5-3.7,6.1c-1.2,1.2-2.8,2.1-4.9,2.7c-1.5,0.5-3.6,0.7-6.1,0.7h-13.1V297.6z M1673.6,303.5
			v22.8h5.2c1.9,0,3.3-0.1,4.2-0.3c1.1-0.3,2.1-0.8,2.8-1.4s1.3-1.8,1.8-3.3s0.7-3.6,0.7-6.3s-0.2-4.7-0.7-6.1s-1.1-2.5-2-3.3
			s-1.9-1.3-3.2-1.6c-1-0.2-2.9-0.3-5.7-0.3H1673.6z"/>
		<path class="st10" d="M1715.7,324.1l6.6,1.1c-0.8,2.4-2.2,4.2-4,5.5s-4.1,1.9-6.8,1.9c-4.3,0-7.5-1.4-9.6-4.2
			c-1.6-2.3-2.5-5.1-2.5-8.6c0-4.1,1.1-7.4,3.2-9.7s4.9-3.5,8.2-3.5c3.7,0,6.6,1.2,8.8,3.7s3.2,6.2,3.1,11.2h-16.5
			c0,2,0.6,3.5,1.6,4.6s2.3,1.6,3.8,1.6c1,0,1.9-0.3,2.6-0.8S1715.4,325.3,1715.7,324.1z M1716.1,317.4c0-1.9-0.5-3.4-1.5-4.3
			s-2.1-1.5-3.4-1.5c-1.4,0-2.6,0.5-3.6,1.6s-1.4,2.5-1.4,4.3H1716.1z"/>
		<path class="st10" d="M1732.9,314.7l-6-1.1c0.7-2.4,1.8-4.2,3.5-5.3s4.1-1.7,7.3-1.7c2.9,0,5.1,0.3,6.6,1s2.4,1.6,3,2.6
			s0.9,3,0.9,5.9l-0.1,7.7c0,2.2,0.1,3.8,0.3,4.8s0.6,2.2,1.2,3.3h-6.5c-0.2-0.4-0.4-1.1-0.6-1.9c-0.1-0.4-0.2-0.6-0.2-0.8
			c-1.1,1.1-2.3,1.9-3.6,2.5s-2.6,0.8-4.1,0.8c-2.6,0-4.6-0.7-6.1-2.1s-2.2-3.1-2.2-5.3c0-1.4,0.3-2.7,1-3.8s1.6-1.9,2.8-2.5
			s3-1.1,5.2-1.5c3.1-0.6,5.2-1.1,6.4-1.6v-0.7c0-1.3-0.3-2.2-0.9-2.7s-1.8-0.8-3.5-0.8c-1.2,0-2.1,0.2-2.7,0.7
			S1733.3,313.5,1732.9,314.7z M1741.7,320c-0.8,0.3-2.2,0.6-4,1s-3,0.8-3.6,1.1c-0.9,0.6-1.3,1.4-1.3,2.3c0,0.9,0.3,1.7,1,2.4
			s1.6,1,2.6,1c1.2,0,2.3-0.4,3.4-1.2c0.8-0.6,1.3-1.3,1.6-2.2c0.2-0.6,0.3-1.6,0.3-3.2V320z"/>
		<path class="st10" d="M1766.1,307.1v5.2h-4.5v10c0,2,0,3.2,0.1,3.6s0.3,0.6,0.6,0.8s0.7,0.3,1.1,0.3c0.6,0,1.5-0.2,2.6-0.6
			l0.6,5.1c-1.5,0.7-3.3,1-5.2,1c-1.2,0-2.3-0.2-3.2-0.6s-1.7-0.9-2.1-1.5s-0.8-1.5-0.9-2.6c-0.1-0.8-0.2-2.3-0.2-4.6v-10.9h-3v-5.2
			h3v-4.9l6.6-3.8v8.8H1766.1z"/>
		<path class="st10" d="M1777.2,297.6v12.6c2.1-2.5,4.7-3.7,7.6-3.7c1.5,0,2.9,0.3,4.1,0.8s2.1,1.3,2.8,2.2s1,1.8,1.3,2.9
			s0.3,2.7,0.3,4.9V332h-6.6v-13.1c0-2.6-0.1-4.3-0.4-5s-0.7-1.3-1.3-1.7s-1.4-0.6-2.4-0.6c-1.1,0-2.1,0.3-2.9,0.8s-1.5,1.3-1.9,2.4
			s-0.6,2.7-0.6,4.7V332h-6.6v-34.4H1777.2z"/>
	</g>
	<g class="st9">
		<path class="st10" d="M1581.2,379v-26.5h9.1c2.1,0,3.6,0.1,4.7,0.4c1.5,0.3,2.8,1,3.9,1.9c1.4,1.2,2.4,2.7,3.1,4.5
			c0.7,1.8,1,3.9,1,6.3c0,2-0.2,3.8-0.7,5.3c-0.5,1.6-1.1,2.8-1.8,3.9c-0.7,1-1.5,1.8-2.4,2.4c-0.9,0.6-1.9,1-3.2,1.3
			c-1.2,0.3-2.7,0.5-4.3,0.5H1581.2z M1584.8,375.9h5.7c1.7,0,3.1-0.2,4.1-0.5c1-0.3,1.8-0.8,2.4-1.4c0.8-0.8,1.5-1.9,1.9-3.4
			c0.5-1.4,0.7-3.1,0.7-5.1c0-2.8-0.5-4.9-1.4-6.4c-0.9-1.5-2-2.5-3.3-3c-0.9-0.4-2.5-0.5-4.5-0.5h-5.6V375.9z"/>
		<path class="st10" d="M1620.1,376.6c-1.2,1-2.4,1.7-3.5,2.2c-1.1,0.4-2.3,0.6-3.6,0.6c-2.1,0-3.7-0.5-4.9-1.5
			c-1.1-1-1.7-2.3-1.7-3.9c0-0.9,0.2-1.8,0.6-2.6c0.4-0.8,1-1.4,1.7-1.9c0.7-0.5,1.5-0.8,2.3-1.1c0.6-0.2,1.6-0.3,2.9-0.5
			c2.6-0.3,4.6-0.7,5.8-1.1c0-0.4,0-0.7,0-0.8c0-1.3-0.3-2.3-0.9-2.8c-0.8-0.7-2.1-1.1-3.7-1.1c-1.5,0-2.7,0.3-3.4,0.8
			c-0.7,0.5-1.3,1.5-1.6,2.8l-3.2-0.4c0.3-1.4,0.8-2.5,1.4-3.3c0.7-0.8,1.6-1.5,2.9-1.9c1.3-0.5,2.7-0.7,4.4-0.7c1.6,0,3,0.2,4,0.6
			c1,0.4,1.8,0.9,2.3,1.5c0.5,0.6,0.8,1.3,1,2.2c0.1,0.6,0.2,1.6,0.2,3v4.3c0,3,0.1,4.9,0.2,5.7c0.1,0.8,0.4,1.6,0.8,2.3h-3.4
			C1620.4,378.3,1620.2,377.5,1620.1,376.6z M1619.8,369.4c-1.2,0.5-3,0.9-5.3,1.2c-1.3,0.2-2.3,0.4-2.8,0.7c-0.6,0.2-1,0.6-1.3,1.1
			c-0.3,0.5-0.5,1-0.5,1.5c0,0.9,0.3,1.6,1,2.2c0.7,0.6,1.6,0.9,2.9,0.9c1.3,0,2.4-0.3,3.3-0.8s1.7-1.3,2.1-2.2
			c0.3-0.7,0.5-1.8,0.5-3.3V369.4z"/>
		<path class="st10" d="M1628.1,356.3v-3.7h3.3v3.7H1628.1z M1628.1,379v-19.2h3.3V379H1628.1z"/>
		<path class="st10" d="M1636.3,379v-26.5h3.3V379H1636.3z"/>
		<path class="st10" d="M1644.4,386.4l-0.4-3.1c0.7,0.2,1.3,0.3,1.9,0.3c0.7,0,1.3-0.1,1.7-0.4s0.8-0.6,1.1-1c0.2-0.3,0.5-1.1,1-2.4
			c0.1-0.2,0.2-0.4,0.3-0.8l-7.3-19.2h3.5l4,11.1c0.5,1.4,1,2.9,1.4,4.4c0.4-1.5,0.8-3,1.3-4.4l4.1-11.2h3.3l-7.3,19.5
			c-0.8,2.1-1.4,3.6-1.8,4.4c-0.6,1.1-1.2,1.9-2,2.4c-0.7,0.5-1.6,0.8-2.7,0.8C1645.9,386.8,1645.2,386.7,1644.4,386.4z"/>
		<path class="st10" d="M1679.6,386.8c-1.8-2.3-3.3-4.9-4.6-7.9s-1.9-6.2-1.9-9.4c0-2.9,0.5-5.6,1.4-8.2c1.1-3,2.8-6.1,5-9.1h2.3
			c-1.5,2.5-2.4,4.3-2.9,5.4c-0.7,1.7-1.3,3.4-1.7,5.2c-0.5,2.3-0.8,4.5-0.8,6.8c0,5.8,1.8,11.6,5.4,17.4H1679.6z"/>
		<path class="st10" d="M1705,369.7l3.5,0.9c-0.7,2.9-2.1,5.1-4,6.6s-4.2,2.3-7,2.3c-2.9,0-5.2-0.6-7-1.7c-1.8-1.2-3.2-2.8-4.1-5
			c-0.9-2.2-1.4-4.6-1.4-7.1c0-2.8,0.5-5.2,1.6-7.2c1.1-2.1,2.6-3.6,4.5-4.7c1.9-1.1,4.1-1.6,6.4-1.6c2.6,0,4.9,0.7,6.7,2
			c1.8,1.3,3.1,3.2,3.8,5.7l-3.5,0.8c-0.6-1.9-1.5-3.3-2.7-4.2c-1.2-0.9-2.6-1.3-4.4-1.3c-2,0-3.7,0.5-5.1,1.5
			c-1.4,1-2.3,2.3-2.9,3.9c-0.6,1.6-0.8,3.3-0.8,5.1c0,2.3,0.3,4.2,1,5.9c0.7,1.7,1.7,2.9,3.1,3.8c1.4,0.8,2.9,1.2,4.5,1.2
			c2,0,3.6-0.6,5-1.7C1703.6,373.6,1704.5,371.9,1705,369.7z"/>
		<path class="st10" d="M1725,379v-2.8c-1.5,2.2-3.5,3.3-6.1,3.3c-1.1,0-2.2-0.2-3.2-0.7c-1-0.4-1.7-1-2.2-1.6s-0.8-1.5-1-2.4
			c-0.1-0.6-0.2-1.7-0.2-3v-11.9h3.3v10.6c0,1.7,0.1,2.8,0.2,3.4c0.2,0.9,0.6,1.5,1.3,2c0.7,0.5,1.5,0.7,2.5,0.7s1.9-0.2,2.7-0.7
			s1.5-1.2,1.8-2c0.4-0.9,0.5-2.1,0.5-3.7v-10.3h3.3V379H1725z"/>
		<path class="st10" d="M1733,379v-19.2h2.9v2.7c0.6-0.9,1.4-1.7,2.4-2.3s2.1-0.9,3.4-0.9c1.4,0,2.6,0.3,3.5,0.9
			c0.9,0.6,1.5,1.4,1.9,2.5c1.5-2.2,3.5-3.4,5.9-3.4c1.9,0,3.4,0.5,4.4,1.6s1.5,2.7,1.5,4.9V379h-3.2v-12.1c0-1.3-0.1-2.2-0.3-2.8
			c-0.2-0.6-0.6-1-1.1-1.4c-0.6-0.3-1.2-0.5-2-0.5c-1.3,0-2.5,0.4-3.4,1.3c-0.9,0.9-1.3,2.3-1.3,4.3V379h-3.3v-12.5
			c0-1.4-0.3-2.5-0.8-3.3c-0.5-0.7-1.4-1.1-2.6-1.1c-0.9,0-1.8,0.2-2.5,0.7c-0.8,0.5-1.3,1.2-1.7,2.1c-0.3,0.9-0.5,2.3-0.5,4v10
			H1733z"/>
		<path class="st10" d="M1776.4,379v-2.8c-1.5,2.2-3.5,3.3-6.1,3.3c-1.1,0-2.2-0.2-3.2-0.7s-1.7-1-2.2-1.6c-0.5-0.7-0.8-1.5-1-2.4
			c-0.1-0.6-0.2-1.7-0.2-3v-11.9h3.3v10.6c0,1.7,0.1,2.8,0.2,3.4c0.2,0.9,0.6,1.5,1.3,2c0.7,0.5,1.5,0.7,2.5,0.7s1.9-0.2,2.7-0.7
			c0.9-0.5,1.5-1.2,1.8-2c0.4-0.9,0.5-2.1,0.5-3.7v-10.3h3.3V379H1776.4z"/>
		<path class="st10" d="M1784.3,379v-26.5h3.3V379H1784.3z"/>
		<path class="st10" d="M1805.1,376.6c-1.2,1-2.4,1.7-3.5,2.2c-1.1,0.4-2.3,0.6-3.6,0.6c-2.1,0-3.7-0.5-4.9-1.5
			c-1.1-1-1.7-2.3-1.7-3.9c0-0.9,0.2-1.8,0.6-2.6c0.4-0.8,1-1.4,1.7-1.9s1.5-0.8,2.3-1.1c0.6-0.2,1.6-0.3,2.9-0.5
			c2.6-0.3,4.6-0.7,5.8-1.1c0-0.4,0-0.7,0-0.8c0-1.3-0.3-2.3-0.9-2.8c-0.8-0.7-2.1-1.1-3.7-1.1c-1.5,0-2.7,0.3-3.4,0.8
			s-1.3,1.5-1.6,2.8l-3.2-0.4c0.3-1.4,0.8-2.5,1.4-3.3c0.7-0.8,1.6-1.5,2.9-1.9c1.3-0.5,2.7-0.7,4.4-0.7c1.6,0,3,0.2,4,0.6
			s1.8,0.9,2.3,1.5c0.5,0.6,0.8,1.3,1,2.2c0.1,0.6,0.2,1.6,0.2,3v4.3c0,3,0.1,4.9,0.2,5.7c0.1,0.8,0.4,1.6,0.8,2.3h-3.4
			C1805.4,378.3,1805.2,377.5,1805.1,376.6z M1804.8,369.4c-1.2,0.5-3,0.9-5.3,1.2c-1.3,0.2-2.3,0.4-2.8,0.7c-0.6,0.2-1,0.6-1.3,1.1
			s-0.5,1-0.5,1.5c0,0.9,0.3,1.6,1,2.2s1.6,0.9,2.9,0.9c1.3,0,2.4-0.3,3.3-0.8s1.7-1.3,2.2-2.2c0.3-0.7,0.5-1.8,0.5-3.3V369.4z"/>
		<path class="st10" d="M1820.3,376.1l0.5,2.9c-0.9,0.2-1.7,0.3-2.5,0.3c-1.2,0-2.1-0.2-2.7-0.6c-0.7-0.4-1.1-0.9-1.4-1.5
			s-0.4-1.9-0.4-3.8v-11h-2.4v-2.5h2.4v-4.8l3.2-2v6.7h3.3v2.5h-3.3v11.2c0,0.9,0.1,1.5,0.2,1.8c0.1,0.3,0.3,0.5,0.6,0.6
			c0.3,0.2,0.6,0.2,1.1,0.2C1819.2,376.2,1819.7,376.2,1820.3,376.1z"/>
		<path class="st10" d="M1823.5,356.3v-3.7h3.3v3.7H1823.5z M1823.5,379v-19.2h3.3V379H1823.5z"/>
		<path class="st10" d="M1837,379l-7.3-19.2h3.4l4.1,11.5c0.4,1.2,0.9,2.5,1.2,3.9c0.3-1,0.7-2.2,1.2-3.6l4.3-11.7h3.3L1840,379
			H1837z"/>
		<path class="st10" d="M1863.3,372.8l3.4,0.4c-0.5,2-1.5,3.5-2.9,4.6c-1.4,1.1-3.3,1.6-5.5,1.6c-2.8,0-5-0.9-6.7-2.6
			c-1.6-1.7-2.5-4.2-2.5-7.3c0-3.2,0.8-5.7,2.5-7.5s3.8-2.7,6.5-2.7c2.6,0,4.7,0.9,6.3,2.6c1.6,1.7,2.4,4.2,2.4,7.4
			c0,0.2,0,0.5,0,0.9h-14.3c0.1,2.1,0.7,3.7,1.8,4.8c1.1,1.1,2.4,1.7,4,1.7c1.2,0,2.2-0.3,3.1-0.9
			C1862.1,375.2,1862.8,374.2,1863.3,372.8z M1852.6,367.6h10.7c-0.1-1.6-0.6-2.8-1.2-3.6c-1-1.3-2.4-1.9-4-1.9
			c-1.5,0-2.7,0.5-3.8,1.5C1853.3,364.6,1852.7,365.9,1852.6,367.6z"/>
		<path class="st10" d="M1872.9,386.8h-2.3c3.6-5.8,5.4-11.6,5.4-17.4c0-2.3-0.3-4.5-0.8-6.7c-0.4-1.8-1-3.5-1.7-5.2
			c-0.5-1.1-1.4-2.9-2.9-5.4h2.3c2.3,3,3.9,6.1,5,9.1c0.9,2.6,1.4,5.4,1.4,8.2c0,3.3-0.6,6.4-1.9,9.4
			C1876.2,381.9,1874.7,384.5,1872.9,386.8z"/>
	</g>
	<g class="st9">
		<path class="st10" d="M2296.1,319.4v-5.8h15v13.7c-1.5,1.4-3.6,2.6-6.3,3.7s-5.6,1.6-8.4,1.6c-3.6,0-6.7-0.8-9.4-2.3
			s-4.7-3.7-6-6.5s-2-5.9-2-9.2c0-3.6,0.8-6.8,2.2-9.5s3.7-4.9,6.6-6.4c2.2-1.1,4.9-1.7,8.2-1.7c4.3,0,7.6,0.9,10,2.7
			s3.9,4.3,4.6,7.4l-6.9,1.3c-0.5-1.7-1.4-3-2.7-4s-3-1.5-5-1.5c-3,0-5.4,1-7.2,2.9s-2.7,4.8-2.7,8.6c0,4.1,0.9,7.1,2.7,9.2
			s4.2,3.1,7.1,3.1c1.5,0,2.9-0.3,4.4-0.9s2.7-1.3,3.8-2.1v-4.4H2296.1z"/>
		<path class="st10" d="M2317.4,297.6h12.7c2.9,0,5,0.2,6.5,0.7c2,0.6,3.7,1.6,5.2,3.2s2.5,3.4,3.3,5.6s1.1,4.9,1.1,8.1
			c0,2.8-0.4,5.3-1.1,7.3c-0.9,2.5-2.1,4.5-3.7,6.1c-1.2,1.2-2.8,2.1-4.9,2.7c-1.5,0.5-3.6,0.7-6.1,0.7h-13.1V297.6z M2324.4,303.5
			v22.8h5.2c1.9,0,3.3-0.1,4.2-0.3c1.1-0.3,2.1-0.8,2.8-1.4s1.3-1.8,1.8-3.3s0.7-3.6,0.7-6.3s-0.2-4.7-0.7-6.1s-1.1-2.5-2-3.3
			s-1.9-1.3-3.2-1.6c-1-0.2-2.9-0.3-5.7-0.3H2324.4z"/>
		<path class="st10" d="M2352.1,332v-34.4h11.1c4.2,0,7,0.2,8.2,0.5c2,0.5,3.6,1.6,4.9,3.4s2,4,2,6.7c0,2.1-0.4,3.9-1.1,5.3
			s-1.7,2.6-2.9,3.4s-2.4,1.4-3.6,1.6c-1.7,0.3-4.1,0.5-7.2,0.5h-4.5v13H2352.1z M2359,303.5v9.8h3.8c2.7,0,4.6-0.2,5.5-0.5
			s1.6-0.9,2.2-1.7s0.8-1.7,0.8-2.7c0-1.2-0.4-2.3-1.1-3.1s-1.7-1.3-2.8-1.5c-0.8-0.2-2.5-0.2-5-0.2H2359z"/>
	</g>
	<g class="st9">
		<path class="st10" d="M2050.3,379v-26.5h9.1c2.1,0,3.6,0.1,4.7,0.4c1.5,0.3,2.8,1,3.9,1.9c1.4,1.2,2.4,2.7,3.1,4.5
			c0.7,1.8,1,3.9,1,6.3c0,2-0.2,3.8-0.7,5.3c-0.5,1.6-1.1,2.8-1.8,3.9c-0.7,1-1.5,1.8-2.4,2.4c-0.9,0.6-1.9,1-3.2,1.3
			c-1.2,0.3-2.7,0.5-4.3,0.5H2050.3z M2053.8,375.9h5.7c1.7,0,3.1-0.2,4.1-0.5c1-0.3,1.8-0.8,2.4-1.4c0.8-0.8,1.5-1.9,1.9-3.4
			c0.5-1.4,0.7-3.1,0.7-5.1c0-2.8-0.5-4.9-1.4-6.4c-0.9-1.5-2-2.5-3.3-3c-0.9-0.4-2.5-0.5-4.5-0.5h-5.6V375.9z"/>
		<path class="st10" d="M2089.1,376.6c-1.2,1-2.4,1.7-3.5,2.2c-1.1,0.4-2.3,0.6-3.6,0.6c-2.1,0-3.7-0.5-4.9-1.5
			c-1.1-1-1.7-2.3-1.7-3.9c0-0.9,0.2-1.8,0.6-2.6c0.4-0.8,1-1.4,1.7-1.9c0.7-0.5,1.5-0.8,2.3-1.1c0.6-0.2,1.6-0.3,2.9-0.5
			c2.6-0.3,4.6-0.7,5.8-1.1c0-0.4,0-0.7,0-0.8c0-1.3-0.3-2.3-0.9-2.8c-0.8-0.7-2.1-1.1-3.7-1.1c-1.5,0-2.7,0.3-3.4,0.8
			c-0.7,0.5-1.3,1.5-1.6,2.8l-3.2-0.4c0.3-1.4,0.8-2.5,1.4-3.3c0.7-0.8,1.6-1.5,2.9-1.9c1.3-0.5,2.7-0.7,4.4-0.7c1.6,0,3,0.2,4,0.6
			c1,0.4,1.8,0.9,2.3,1.5c0.5,0.6,0.8,1.3,1,2.2c0.1,0.6,0.2,1.6,0.2,3v4.3c0,3,0.1,4.9,0.2,5.7c0.1,0.8,0.4,1.6,0.8,2.3h-3.4
			C2089.4,378.3,2089.2,377.5,2089.1,376.6z M2088.9,369.4c-1.2,0.5-3,0.9-5.3,1.2c-1.3,0.2-2.3,0.4-2.8,0.7c-0.6,0.2-1,0.6-1.3,1.1
			c-0.3,0.5-0.5,1-0.5,1.5c0,0.9,0.3,1.6,1,2.2c0.7,0.6,1.6,0.9,2.9,0.9c1.3,0,2.4-0.3,3.3-0.8s1.7-1.3,2.1-2.2
			c0.3-0.7,0.5-1.8,0.5-3.3V369.4z"/>
		<path class="st10" d="M2097.2,356.3v-3.7h3.3v3.7H2097.2z M2097.2,379v-19.2h3.3V379H2097.2z"/>
		<path class="st10" d="M2105.3,379v-26.5h3.3V379H2105.3z"/>
		<path class="st10" d="M2113.5,386.4l-0.4-3.1c0.7,0.2,1.3,0.3,1.9,0.3c0.7,0,1.3-0.1,1.7-0.4s0.8-0.6,1.1-1c0.2-0.3,0.5-1.1,1-2.4
			c0.1-0.2,0.2-0.4,0.3-0.8l-7.3-19.2h3.5l4,11.1c0.5,1.4,1,2.9,1.4,4.4c0.4-1.5,0.8-3,1.3-4.4l4.1-11.2h3.3l-7.3,19.5
			c-0.8,2.1-1.4,3.6-1.8,4.4c-0.6,1.1-1.2,1.9-2,2.4c-0.7,0.5-1.6,0.8-2.7,0.8C2115,386.8,2114.3,386.7,2113.5,386.4z"/>
		<path class="st10" d="M2148.6,386.8c-1.8-2.3-3.3-4.9-4.6-7.9c-1.2-3-1.9-6.2-1.9-9.4c0-2.9,0.5-5.6,1.4-8.2c1.1-3,2.8-6.1,5-9.1
			h2.3c-1.5,2.5-2.4,4.3-2.9,5.4c-0.7,1.7-1.3,3.4-1.7,5.2c-0.5,2.3-0.8,4.5-0.8,6.8c0,5.8,1.8,11.6,5.4,17.4H2148.6z"/>
		<path class="st10" d="M2174,369.7l3.5,0.9c-0.7,2.9-2.1,5.1-4,6.6c-1.9,1.5-4.2,2.3-7,2.3c-2.9,0-5.2-0.6-7-1.7
			c-1.8-1.2-3.1-2.8-4.1-5c-0.9-2.2-1.4-4.6-1.4-7.1c0-2.8,0.5-5.2,1.6-7.2c1.1-2.1,2.6-3.6,4.5-4.7c1.9-1.1,4.1-1.6,6.4-1.6
			c2.6,0,4.9,0.7,6.7,2c1.8,1.3,3.1,3.2,3.8,5.7l-3.5,0.8c-0.6-1.9-1.5-3.3-2.7-4.2s-2.6-1.3-4.4-1.3c-2,0-3.7,0.5-5.1,1.5
			s-2.3,2.3-2.9,3.9c-0.6,1.6-0.8,3.3-0.8,5.1c0,2.3,0.3,4.2,1,5.9c0.7,1.7,1.7,2.9,3.1,3.8s2.9,1.2,4.5,1.2c2,0,3.6-0.6,5-1.7
			C2172.6,373.6,2173.6,371.9,2174,369.7z"/>
		<path class="st10" d="M2180.2,369.4c0-3.6,1-6.2,3-7.9c1.6-1.4,3.7-2.1,6-2.1c2.6,0,4.8,0.9,6.5,2.6c1.7,1.7,2.5,4.1,2.5,7.2
			c0,2.5-0.4,4.4-1.1,5.8c-0.7,1.4-1.8,2.5-3.2,3.3c-1.4,0.8-3,1.2-4.6,1.2c-2.7,0-4.9-0.9-6.5-2.6
			C2181.1,375.1,2180.2,372.6,2180.2,369.4z M2183.6,369.4c0,2.5,0.5,4.3,1.6,5.5c1.1,1.2,2.4,1.8,4,1.8c1.6,0,3-0.6,4-1.8
			s1.6-3.1,1.6-5.6c0-2.4-0.5-4.2-1.6-5.4c-1.1-1.2-2.4-1.8-4-1.8c-1.6,0-3,0.6-4,1.8C2184.1,365.1,2183.6,366.9,2183.6,369.4z"/>
		<path class="st10" d="M2202,379v-19.2h2.9v2.7c0.6-0.9,1.4-1.7,2.4-2.3c1-0.6,2.1-0.9,3.4-0.9c1.4,0,2.6,0.3,3.5,0.9
			c0.9,0.6,1.6,1.4,1.9,2.5c1.5-2.2,3.5-3.4,5.9-3.4c1.9,0,3.4,0.5,4.4,1.6c1,1.1,1.5,2.7,1.5,4.9V379h-3.2v-12.1
			c0-1.3-0.1-2.2-0.3-2.8s-0.6-1-1.1-1.4c-0.6-0.3-1.2-0.5-2-0.5c-1.3,0-2.5,0.4-3.4,1.3c-0.9,0.9-1.3,2.3-1.3,4.3V379h-3.3v-12.5
			c0-1.4-0.3-2.5-0.8-3.3s-1.4-1.1-2.6-1.1c-0.9,0-1.8,0.2-2.5,0.7c-0.8,0.5-1.3,1.2-1.7,2.1c-0.3,0.9-0.5,2.3-0.5,4v10H2202z"/>
		<path class="st10" d="M2232.8,386.4v-26.5h3v2.5c0.7-1,1.5-1.7,2.4-2.2c0.9-0.5,1.9-0.7,3.2-0.7c1.6,0,3.1,0.4,4.3,1.3
			c1.3,0.8,2.2,2,2.8,3.6c0.6,1.5,1,3.2,1,5c0,2-0.4,3.7-1.1,5.3c-0.7,1.6-1.7,2.8-3.1,3.6c-1.3,0.8-2.8,1.3-4.2,1.3
			c-1.1,0-2.1-0.2-2.9-0.7c-0.9-0.5-1.6-1-2.1-1.7v9.3H2232.8z M2235.8,369.5c0,2.5,0.5,4.3,1.5,5.5c1,1.2,2.2,1.8,3.6,1.8
			c1.4,0,2.7-0.6,3.7-1.8c1-1.2,1.5-3.1,1.5-5.7c0-2.4-0.5-4.3-1.5-5.5s-2.2-1.8-3.6-1.8c-1.4,0-2.6,0.6-3.7,1.9
			C2236.3,365.2,2235.8,367,2235.8,369.5z"/>
		<path class="st10" d="M2265.9,376.6c-1.2,1-2.4,1.7-3.5,2.2c-1.1,0.4-2.3,0.6-3.6,0.6c-2.1,0-3.7-0.5-4.9-1.5
			c-1.1-1-1.7-2.3-1.7-3.9c0-0.9,0.2-1.8,0.6-2.6c0.4-0.8,1-1.4,1.7-1.9s1.5-0.8,2.3-1.1c0.6-0.2,1.6-0.3,2.9-0.5
			c2.6-0.3,4.6-0.7,5.8-1.1c0-0.4,0-0.7,0-0.8c0-1.3-0.3-2.3-0.9-2.8c-0.8-0.7-2.1-1.1-3.7-1.1c-1.5,0-2.7,0.3-3.4,0.8
			s-1.3,1.5-1.6,2.8l-3.2-0.4c0.3-1.4,0.8-2.5,1.4-3.3c0.7-0.8,1.6-1.5,2.9-1.9c1.3-0.5,2.7-0.7,4.4-0.7c1.6,0,3,0.2,4,0.6
			s1.8,0.9,2.3,1.5c0.5,0.6,0.8,1.3,1,2.2c0.1,0.6,0.2,1.6,0.2,3v4.3c0,3,0.1,4.9,0.2,5.7c0.1,0.8,0.4,1.6,0.8,2.3h-3.4
			C2266.3,378.3,2266,377.5,2265.9,376.6z M2265.7,369.4c-1.2,0.5-3,0.9-5.3,1.2c-1.3,0.2-2.3,0.4-2.8,0.7c-0.6,0.2-1,0.6-1.3,1.1
			s-0.5,1-0.5,1.5c0,0.9,0.3,1.6,1,2.2s1.6,0.9,2.9,0.9c1.3,0,2.4-0.3,3.3-0.8s1.7-1.3,2.2-2.2c0.3-0.7,0.5-1.8,0.5-3.3V369.4z"/>
		<path class="st10" d="M2274,379v-19.2h2.9v2.9c0.7-1.4,1.4-2.3,2.1-2.7c0.6-0.4,1.3-0.7,2.1-0.7c1.1,0,2.2,0.3,3.3,1l-1.1,3
			c-0.8-0.5-1.6-0.7-2.4-0.7c-0.7,0-1.3,0.2-1.9,0.6s-1,1-1.2,1.8c-0.4,1.2-0.5,2.4-0.5,3.8v10H2274z"/>
		<path class="st10" d="M2299.5,372.8l3.4,0.4c-0.5,2-1.5,3.5-2.9,4.6c-1.4,1.1-3.3,1.6-5.5,1.6c-2.8,0-5-0.9-6.7-2.6
			c-1.6-1.7-2.5-4.2-2.5-7.3c0-3.2,0.8-5.7,2.5-7.5s3.8-2.7,6.5-2.7c2.6,0,4.7,0.9,6.3,2.6c1.6,1.7,2.4,4.2,2.4,7.4
			c0,0.2,0,0.5,0,0.9h-14.3c0.1,2.1,0.7,3.7,1.8,4.8c1.1,1.1,2.4,1.7,4,1.7c1.2,0,2.2-0.3,3.1-0.9
			C2298.3,375.2,2299,374.2,2299.5,372.8z M2288.8,367.6h10.7c-0.1-1.6-0.6-2.8-1.2-3.6c-1-1.3-2.4-1.9-4-1.9
			c-1.5,0-2.7,0.5-3.8,1.5C2289.5,364.6,2288.9,365.9,2288.8,367.6z"/>
		<path class="st10" d="M2319.4,379v-2.4c-1.2,1.9-3,2.9-5.4,2.9c-1.5,0-2.9-0.4-4.2-1.3c-1.3-0.8-2.3-2-3-3.5
			c-0.7-1.5-1.1-3.2-1.1-5.2c0-1.9,0.3-3.7,1-5.2s1.6-2.8,2.9-3.6c1.3-0.8,2.7-1.2,4.3-1.2c1.2,0,2.2,0.2,3.1,0.7
			c0.9,0.5,1.6,1.1,2.2,1.9v-9.5h3.2V379H2319.4z M2309.1,369.4c0,2.5,0.5,4.3,1.6,5.5c1,1.2,2.3,1.8,3.7,1.8c1.4,0,2.6-0.6,3.6-1.7
			c1-1.2,1.5-2.9,1.5-5.3c0-2.6-0.5-4.6-1.5-5.8s-2.3-1.8-3.7-1.8c-1.4,0-2.7,0.6-3.6,1.8C2309.6,365,2309.1,366.9,2309.1,369.4z"/>
		<path class="st10" d="M2344.9,376.1l0.5,2.9c-0.9,0.2-1.7,0.3-2.5,0.3c-1.2,0-2.1-0.2-2.7-0.6c-0.7-0.4-1.1-0.9-1.4-1.5
			c-0.3-0.6-0.4-1.9-0.4-3.8v-11h-2.4v-2.5h2.4v-4.8l3.2-2v6.7h3.3v2.5h-3.3v11.2c0,0.9,0.1,1.5,0.2,1.8s0.3,0.5,0.6,0.6
			c0.3,0.2,0.6,0.2,1.1,0.2C2343.8,376.2,2344.3,376.2,2344.9,376.1z"/>
		<path class="st10" d="M2346.8,369.4c0-3.6,1-6.2,3-7.9c1.7-1.4,3.7-2.1,6-2.1c2.6,0,4.8,0.9,6.5,2.6s2.5,4.1,2.5,7.2
			c0,2.5-0.4,4.4-1.1,5.8c-0.7,1.4-1.8,2.5-3.2,3.3c-1.4,0.8-3,1.2-4.6,1.2c-2.7,0-4.9-0.9-6.5-2.6
			C2347.7,375.1,2346.8,372.6,2346.8,369.4z M2350.2,369.4c0,2.5,0.5,4.3,1.6,5.5c1.1,1.2,2.4,1.8,4,1.8c1.6,0,3-0.6,4-1.8
			c1.1-1.2,1.6-3.1,1.6-5.6c0-2.4-0.5-4.2-1.6-5.4c-1.1-1.2-2.4-1.8-4-1.8c-1.6,0-3,0.6-4,1.8S2350.2,366.9,2350.2,369.4z"/>
	</g>
	<g class="st9">
		<path class="st10" d="M2376.5,386.4v-26.5h3v2.5c0.7-1,1.5-1.7,2.4-2.2c0.9-0.5,1.9-0.7,3.2-0.7c1.6,0,3.1,0.4,4.3,1.3
			c1.3,0.8,2.2,2,2.8,3.6c0.6,1.5,1,3.2,1,5c0,2-0.4,3.7-1.1,5.3c-0.7,1.6-1.7,2.8-3.1,3.6c-1.3,0.8-2.8,1.3-4.2,1.3
			c-1.1,0-2.1-0.2-2.9-0.7c-0.9-0.5-1.6-1-2.1-1.7v9.3H2376.5z M2379.4,369.5c0,2.5,0.5,4.3,1.5,5.5c1,1.2,2.2,1.8,3.6,1.8
			c1.4,0,2.7-0.6,3.7-1.8c1-1.2,1.5-3.1,1.5-5.7c0-2.4-0.5-4.3-1.5-5.5s-2.2-1.8-3.6-1.8c-1.4,0-2.6,0.6-3.7,1.9
			C2379.9,365.2,2379.4,367,2379.4,369.5z"/>
		<path class="st10" d="M2397,379v-19.2h2.9v2.9c0.7-1.4,1.4-2.3,2.1-2.7c0.6-0.4,1.3-0.7,2.1-0.7c1.1,0,2.2,0.3,3.3,1l-1.1,3
			c-0.8-0.5-1.6-0.7-2.4-0.7c-0.7,0-1.3,0.2-1.9,0.6c-0.6,0.4-1,1-1.2,1.8c-0.4,1.2-0.5,2.4-0.5,3.8v10H2397z"/>
		<path class="st10" d="M2422.5,372.8l3.4,0.4c-0.5,2-1.5,3.5-2.9,4.6s-3.3,1.6-5.5,1.6c-2.8,0-5-0.9-6.7-2.6
			c-1.6-1.7-2.5-4.2-2.5-7.3c0-3.2,0.8-5.7,2.5-7.5s3.8-2.7,6.5-2.7c2.6,0,4.7,0.9,6.3,2.6c1.6,1.7,2.4,4.2,2.4,7.4
			c0,0.2,0,0.5,0,0.9h-14.3c0.1,2.1,0.7,3.7,1.8,4.8c1.1,1.1,2.4,1.7,4,1.7c1.2,0,2.2-0.3,3.1-0.9S2422,374.2,2422.5,372.8z
			 M2411.8,367.6h10.7c-0.1-1.6-0.6-2.8-1.2-3.6c-1-1.3-2.4-1.9-4-1.9c-1.5,0-2.7,0.5-3.8,1.5
			C2412.5,364.6,2411.9,365.9,2411.8,367.6z"/>
	</g>
	<g class="st9">
		<path class="st10" d="M2429,371.1v-3.3h10v3.3H2429z"/>
	</g>
	<g class="st9">
		<path class="st10" d="M2442.3,369.4c0-3.6,1-6.2,3-7.9c1.7-1.4,3.7-2.1,6-2.1c2.6,0,4.8,0.9,6.5,2.6s2.5,4.1,2.5,7.2
			c0,2.5-0.4,4.4-1.1,5.8c-0.7,1.4-1.8,2.5-3.2,3.3c-1.4,0.8-3,1.2-4.6,1.2c-2.7,0-4.9-0.9-6.5-2.6
			C2443.1,375.1,2442.3,372.6,2442.3,369.4z M2445.7,369.4c0,2.5,0.5,4.3,1.6,5.5c1.1,1.2,2.4,1.8,4,1.8c1.6,0,3-0.6,4-1.8
			c1.1-1.2,1.6-3.1,1.6-5.6c0-2.4-0.5-4.2-1.6-5.4c-1.1-1.2-2.4-1.8-4-1.8c-1.6,0-3,0.6-4,1.8
			C2446.2,365.1,2445.7,366.9,2445.7,369.4z"/>
		<path class="st10" d="M2476.7,379v-2.8c-1.5,2.2-3.5,3.3-6.1,3.3c-1.1,0-2.2-0.2-3.2-0.7c-1-0.4-1.7-1-2.2-1.6
			c-0.5-0.7-0.8-1.5-1-2.4c-0.1-0.6-0.2-1.7-0.2-3v-11.9h3.3v10.6c0,1.7,0.1,2.8,0.2,3.4c0.2,0.9,0.6,1.5,1.3,2
			c0.7,0.5,1.5,0.7,2.5,0.7s1.9-0.2,2.7-0.7c0.9-0.5,1.5-1.2,1.8-2c0.4-0.9,0.5-2.1,0.5-3.7v-10.3h3.3V379H2476.7z"/>
		<path class="st10" d="M2491.8,376.1l0.5,2.9c-0.9,0.2-1.7,0.3-2.5,0.3c-1.2,0-2.1-0.2-2.7-0.6c-0.7-0.4-1.1-0.9-1.4-1.5
			c-0.3-0.6-0.4-1.9-0.4-3.8v-11h-2.4v-2.5h2.4v-4.8l3.2-2v6.7h3.3v2.5h-3.3v11.2c0,0.9,0.1,1.5,0.2,1.8c0.1,0.3,0.3,0.5,0.6,0.6
			c0.3,0.2,0.6,0.2,1.1,0.2C2490.7,376.2,2491.2,376.2,2491.8,376.1z"/>
		<path class="st10" d="M2498,379h-3v-26.5h3.3v9.4c1.4-1.7,3.1-2.6,5.3-2.6c1.2,0,2.3,0.2,3.4,0.7c1.1,0.5,1.9,1.1,2.6,2
			c0.7,0.9,1.2,1.9,1.6,3.1c0.4,1.2,0.6,2.5,0.6,3.9c0,3.3-0.8,5.8-2.4,7.6c-1.6,1.8-3.6,2.7-5.9,2.7c-2.3,0-4-0.9-5.3-2.8V379z
			 M2497.9,369.3c0,2.3,0.3,4,0.9,5c1,1.7,2.4,2.5,4.2,2.5c1.4,0,2.7-0.6,3.7-1.9c1-1.2,1.6-3.1,1.6-5.5c0-2.5-0.5-4.4-1.5-5.5
			c-1-1.2-2.2-1.8-3.6-1.8c-1.4,0-2.6,0.6-3.7,1.9C2498.4,365.1,2497.9,366.9,2497.9,369.3z"/>
		<path class="st10" d="M2515.5,379v-19.2h2.9v2.9c0.7-1.4,1.4-2.3,2.1-2.7c0.6-0.4,1.3-0.7,2.1-0.7c1.1,0,2.2,0.3,3.3,1l-1.1,3
			c-0.8-0.5-1.6-0.7-2.4-0.7c-0.7,0-1.3,0.2-1.9,0.6s-1,1-1.2,1.8c-0.4,1.2-0.5,2.4-0.5,3.8v10H2515.5z"/>
		<path class="st10" d="M2541,372.8l3.4,0.4c-0.5,2-1.5,3.5-2.9,4.6c-1.4,1.1-3.3,1.6-5.5,1.6c-2.8,0-5-0.9-6.7-2.6
			c-1.6-1.7-2.5-4.2-2.5-7.3c0-3.2,0.8-5.7,2.5-7.5s3.8-2.7,6.5-2.7c2.6,0,4.7,0.9,6.3,2.6c1.6,1.7,2.4,4.2,2.4,7.4
			c0,0.2,0,0.5,0,0.9h-14.3c0.1,2.1,0.7,3.7,1.8,4.8c1.1,1.1,2.4,1.7,4,1.7c1.2,0,2.2-0.3,3.1-0.9
			C2539.8,375.2,2540.5,374.2,2541,372.8z M2530.3,367.6h10.7c-0.1-1.6-0.6-2.8-1.2-3.6c-1-1.3-2.4-1.9-4-1.9
			c-1.5,0-2.7,0.5-3.8,1.5C2531,364.6,2530.4,365.9,2530.3,367.6z"/>
		<path class="st10" d="M2561,376.6c-1.2,1-2.4,1.7-3.5,2.2c-1.1,0.4-2.3,0.6-3.6,0.6c-2.1,0-3.7-0.5-4.9-1.5
			c-1.1-1-1.7-2.3-1.7-3.9c0-0.9,0.2-1.8,0.6-2.6c0.4-0.8,1-1.4,1.7-1.9c0.7-0.5,1.5-0.8,2.3-1.1c0.6-0.2,1.6-0.3,2.9-0.5
			c2.6-0.3,4.6-0.7,5.8-1.1c0-0.4,0-0.7,0-0.8c0-1.3-0.3-2.3-0.9-2.8c-0.8-0.7-2.1-1.1-3.7-1.1c-1.5,0-2.7,0.3-3.4,0.8
			s-1.3,1.5-1.6,2.8l-3.2-0.4c0.3-1.4,0.8-2.5,1.4-3.3c0.7-0.8,1.6-1.5,2.9-1.9c1.3-0.5,2.7-0.7,4.4-0.7c1.6,0,3,0.2,4,0.6
			s1.8,0.9,2.3,1.5c0.5,0.6,0.8,1.3,1,2.2c0.1,0.6,0.2,1.6,0.2,3v4.3c0,3,0.1,4.9,0.2,5.7c0.1,0.8,0.4,1.6,0.8,2.3h-3.4
			C2561.3,378.3,2561.1,377.5,2561,376.6z M2560.7,369.4c-1.2,0.5-3,0.9-5.3,1.2c-1.3,0.2-2.3,0.4-2.8,0.7c-0.6,0.2-1,0.6-1.3,1.1
			c-0.3,0.5-0.5,1-0.5,1.5c0,0.9,0.3,1.6,1,2.2c0.7,0.6,1.6,0.9,2.9,0.9c1.3,0,2.4-0.3,3.3-0.8c1-0.5,1.7-1.3,2.2-2.2
			c0.3-0.7,0.5-1.8,0.5-3.3V369.4z"/>
		<path class="st10" d="M2569,379v-26.5h3.3v15.1l7.7-7.8h4.2l-7.3,7.1l8.1,12.1h-4l-6.3-9.8l-2.3,2.2v7.6H2569z"/>
		<path class="st10" d="M2589.6,386.8h-2.3c3.6-5.8,5.4-11.6,5.4-17.4c0-2.3-0.3-4.5-0.8-6.7c-0.4-1.8-1-3.5-1.7-5.2
			c-0.5-1.1-1.4-2.9-2.9-5.4h2.3c2.3,3,3.9,6.1,5,9.1c0.9,2.6,1.4,5.4,1.4,8.2c0,3.3-0.6,6.4-1.9,9.4
			C2592.9,381.9,2591.4,384.5,2589.6,386.8z"/>
	</g>
	<g class="st9">
		<path class="st10" d="M2834.3,297.6h13.7c2.7,0,4.7,0.1,6.1,0.3s2.5,0.7,3.6,1.4s1.9,1.7,2.6,2.9s1.1,2.5,1.1,4
			c0,1.6-0.4,3.1-1.3,4.4s-2,2.4-3.5,3c2.1,0.6,3.7,1.6,4.8,3.1s1.7,3.2,1.7,5.2c0,1.6-0.4,3.1-1.1,4.6s-1.7,2.7-3,3.5
			s-2.8,1.4-4.7,1.6c-1.2,0.1-3.9,0.2-8.4,0.2h-11.7V297.6z M2841.3,303.4v7.9h4.5c2.7,0,4.4,0,5-0.1c1.2-0.1,2.1-0.6,2.8-1.2
			s1-1.6,1-2.7c0-1.1-0.3-1.9-0.9-2.6s-1.5-1.1-2.6-1.2c-0.7-0.1-2.7-0.1-5.9-0.1H2841.3z M2841.3,317v9.2h6.4
			c2.5,0,4.1-0.1,4.8-0.2c1-0.2,1.9-0.6,2.5-1.4s1-1.7,1-2.9c0-1-0.2-1.9-0.8-2.6s-1.2-1.2-2.2-1.6s-3-0.5-6.2-0.5H2841.3z"/>
		<path class="st10" d="M2885.3,332v-3.7c-0.9,1.3-2.1,2.4-3.6,3.1s-3,1.1-4.7,1.1c-1.7,0-3.2-0.4-4.5-1.1s-2.3-1.8-2.9-3.1
			s-0.9-3.2-0.9-5.5v-15.8h6.6v11.4c0,3.5,0.1,5.6,0.4,6.4s0.7,1.4,1.3,1.9s1.5,0.7,2.4,0.7c1.1,0,2.1-0.3,3-0.9s1.5-1.4,1.8-2.3
			s0.5-3.2,0.5-6.7v-10.5h6.6V332H2885.3z"/>
		<path class="st10" d="M2921.1,332h-6.1v-3.7c-1,1.4-2.2,2.5-3.6,3.2s-2.8,1-4.2,1c-2.9,0-5.3-1.2-7.3-3.5s-3.1-5.5-3.1-9.6
			c0-4.2,1-7.4,3-9.6s4.5-3.3,7.5-3.3c2.8,0,5.2,1.2,7.2,3.5v-12.4h6.6V332z M2903.5,319c0,2.7,0.4,4.6,1.1,5.8
			c1.1,1.7,2.5,2.6,4.5,2.6c1.5,0,2.8-0.6,3.9-1.9s1.6-3.2,1.6-5.8c0-2.9-0.5-4.9-1.5-6.2s-2.4-1.9-4-1.9c-1.6,0-2.9,0.6-3.9,1.9
			S2903.5,316.5,2903.5,319z"/>
		<path class="st10" d="M2927,333.6l7.5,0.9c0.1,0.9,0.4,1.5,0.9,1.8c0.6,0.5,1.6,0.7,3,0.7c1.7,0,3-0.3,3.9-0.8
			c0.6-0.3,1-0.9,1.3-1.7c0.2-0.5,0.3-1.6,0.3-3V328c-2,2.7-4.5,4-7.5,4c-3.3,0-6-1.4-7.9-4.2c-1.5-2.2-2.3-5-2.3-8.3
			c0-4.2,1-7.4,3-9.6s4.5-3.3,7.5-3.3c3.1,0,5.6,1.4,7.6,4.1v-3.5h6.2v22.3c0,2.9-0.2,5.1-0.7,6.6s-1.2,2.6-2,3.4s-2,1.5-3.5,1.9
			s-3.3,0.7-5.5,0.7c-4.2,0-7.2-0.7-9-2.2s-2.6-3.3-2.6-5.5C2926.9,334.2,2927,334,2927,333.6z M2932.8,319c0,2.6,0.5,4.6,1.5,5.8
			s2.3,1.8,3.8,1.8c1.6,0,3-0.6,4.1-1.9s1.7-3.1,1.7-5.6c0-2.6-0.5-4.5-1.6-5.7s-2.4-1.9-4-1.9c-1.6,0-2.9,0.6-3.9,1.8
			S2932.8,316.5,2932.8,319z"/>
		<path class="st10" d="M2971.3,324.1l6.6,1.1c-0.8,2.4-2.2,4.2-4,5.5s-4.1,1.9-6.8,1.9c-4.3,0-7.5-1.4-9.6-4.2
			c-1.6-2.3-2.5-5.1-2.5-8.6c0-4.1,1.1-7.4,3.2-9.7s4.9-3.5,8.2-3.5c3.7,0,6.6,1.2,8.8,3.7s3.2,6.2,3.1,11.2h-16.5
			c0,2,0.6,3.5,1.6,4.6s2.3,1.6,3.8,1.6c1,0,1.9-0.3,2.6-0.8S2971,325.3,2971.3,324.1z M2971.7,317.4c0-1.9-0.5-3.4-1.5-4.3
			s-2.1-1.5-3.4-1.5c-1.4,0-2.6,0.5-3.6,1.6s-1.4,2.5-1.4,4.3H2971.7z"/>
		<path class="st10" d="M2995,307.1v5.2h-4.5v10c0,2,0,3.2,0.1,3.6s0.3,0.6,0.6,0.8s0.7,0.3,1.1,0.3c0.6,0,1.5-0.2,2.6-0.6l0.6,5.1
			c-1.5,0.7-3.3,1-5.2,1c-1.2,0-2.3-0.2-3.2-0.6s-1.7-0.9-2.1-1.5s-0.8-1.5-0.9-2.6c-0.1-0.8-0.2-2.3-0.2-4.6v-10.9h-3v-5.2h3v-4.9
			l6.6-3.8v8.8H2995z"/>
	</g>
	<g class="st9">
		<path class="st10" d="M2800.2,379v-26.5h11.7c2.4,0,4.2,0.2,5.4,0.7s2.2,1.3,2.9,2.5c0.7,1.2,1.1,2.5,1.1,4c0,1.9-0.6,3.5-1.8,4.8
			c-1.2,1.3-3.1,2.1-5.6,2.5c0.9,0.4,1.6,0.9,2.1,1.3c1,0.9,2,2.1,2.9,3.5l4.6,7.2h-4.4l-3.5-5.5c-1-1.6-1.9-2.8-2.5-3.7
			c-0.7-0.8-1.3-1.4-1.8-1.8c-0.5-0.3-1.1-0.6-1.6-0.7c-0.4-0.1-1-0.1-2-0.1h-4.1V379H2800.2z M2803.7,364.2h7.5
			c1.6,0,2.9-0.2,3.8-0.5s1.6-0.9,2.1-1.6s0.7-1.5,0.7-2.4c0-1.3-0.5-2.3-1.4-3.1c-0.9-0.8-2.3-1.2-4.3-1.2h-8.4V364.2z"/>
		<path class="st10" d="M2839.6,372.8l3.4,0.4c-0.5,2-1.5,3.5-2.9,4.6c-1.4,1.1-3.3,1.6-5.5,1.6c-2.8,0-5-0.9-6.7-2.6
			c-1.6-1.7-2.5-4.2-2.5-7.3c0-3.2,0.8-5.7,2.5-7.5s3.8-2.7,6.5-2.7c2.6,0,4.7,0.9,6.3,2.6c1.6,1.7,2.4,4.2,2.4,7.4
			c0,0.2,0,0.5,0,0.9h-14.3c0.1,2.1,0.7,3.7,1.8,4.8c1.1,1.1,2.4,1.7,4,1.7c1.2,0,2.2-0.3,3.1-0.9
			C2838.4,375.2,2839.1,374.2,2839.6,372.8z M2828.9,367.6h10.7c-0.1-1.6-0.6-2.8-1.2-3.6c-1-1.3-2.4-1.9-4-1.9
			c-1.5,0-2.7,0.5-3.8,1.5C2829.6,364.6,2829,365.9,2828.9,367.6z"/>
		<path class="st10" d="M2847,379v-19.2h2.9v2.7c0.6-0.9,1.4-1.7,2.4-2.3s2.1-0.9,3.4-0.9c1.4,0,2.6,0.3,3.5,0.9
			c0.9,0.6,1.5,1.4,1.9,2.5c1.5-2.2,3.5-3.4,5.9-3.4c1.9,0,3.4,0.5,4.4,1.6s1.5,2.7,1.5,4.9V379h-3.2v-12.1c0-1.3-0.1-2.2-0.3-2.8
			c-0.2-0.6-0.6-1-1.1-1.4c-0.6-0.3-1.2-0.5-2-0.5c-1.3,0-2.5,0.4-3.4,1.3c-0.9,0.9-1.3,2.3-1.3,4.3V379h-3.3v-12.5
			c0-1.4-0.3-2.5-0.8-3.3c-0.5-0.7-1.4-1.1-2.6-1.1c-0.9,0-1.8,0.2-2.5,0.7c-0.8,0.5-1.3,1.2-1.7,2.1c-0.3,0.9-0.5,2.3-0.5,4v10
			H2847z"/>
		<path class="st10" d="M2890.4,376.6c-1.2,1-2.4,1.7-3.5,2.2c-1.1,0.4-2.3,0.6-3.6,0.6c-2.1,0-3.7-0.5-4.9-1.5
			c-1.1-1-1.7-2.3-1.7-3.9c0-0.9,0.2-1.8,0.6-2.6c0.4-0.8,1-1.4,1.7-1.9s1.5-0.8,2.3-1.1c0.6-0.2,1.6-0.3,2.9-0.5
			c2.6-0.3,4.6-0.7,5.8-1.1c0-0.4,0-0.7,0-0.8c0-1.3-0.3-2.3-0.9-2.8c-0.8-0.7-2.1-1.1-3.7-1.1c-1.5,0-2.7,0.3-3.4,0.8
			s-1.3,1.5-1.6,2.8l-3.2-0.4c0.3-1.4,0.8-2.5,1.4-3.3c0.7-0.8,1.6-1.5,2.9-1.9c1.3-0.5,2.7-0.7,4.4-0.7c1.6,0,3,0.2,4,0.6
			s1.8,0.9,2.3,1.5c0.5,0.6,0.8,1.3,1,2.2c0.1,0.6,0.2,1.6,0.2,3v4.3c0,3,0.1,4.9,0.2,5.7c0.1,0.8,0.4,1.6,0.8,2.3h-3.4
			C2890.7,378.3,2890.5,377.5,2890.4,376.6z M2890.1,369.4c-1.2,0.5-3,0.9-5.3,1.2c-1.3,0.2-2.3,0.4-2.8,0.7c-0.6,0.2-1,0.6-1.3,1.1
			s-0.5,1-0.5,1.5c0,0.9,0.3,1.6,1,2.2s1.6,0.9,2.9,0.9c1.3,0,2.4-0.3,3.3-0.8s1.7-1.3,2.2-2.2c0.3-0.7,0.5-1.8,0.5-3.3V369.4z"/>
		<path class="st10" d="M2898.4,356.3v-3.7h3.3v3.7H2898.4z M2898.4,379v-19.2h3.3V379H2898.4z"/>
		<path class="st10" d="M2906.6,379v-19.2h2.9v2.7c1.4-2.1,3.4-3.2,6.1-3.2c1.2,0,2.2,0.2,3.2,0.6c1,0.4,1.7,1,2.2,1.6
			c0.5,0.7,0.8,1.5,1,2.4c0.1,0.6,0.2,1.7,0.2,3.2V379h-3.3v-11.7c0-1.3-0.1-2.3-0.4-3s-0.7-1.2-1.3-1.6c-0.6-0.4-1.4-0.6-2.3-0.6
			c-1.4,0-2.6,0.4-3.6,1.3c-1,0.9-1.5,2.5-1.5,5V379H2906.6z"/>
		<path class="st10" d="M2927.2,356.3v-3.7h3.3v3.7H2927.2z M2927.2,379v-19.2h3.3V379H2927.2z"/>
		<path class="st10" d="M2935.4,379v-19.2h2.9v2.7c1.4-2.1,3.4-3.2,6.1-3.2c1.2,0,2.2,0.2,3.2,0.6c1,0.4,1.7,1,2.2,1.6
			c0.5,0.7,0.8,1.5,1,2.4c0.1,0.6,0.2,1.7,0.2,3.2V379h-3.3v-11.7c0-1.3-0.1-2.3-0.4-3s-0.7-1.2-1.3-1.6c-0.6-0.4-1.4-0.6-2.3-0.6
			c-1.4,0-2.6,0.4-3.6,1.3c-1,0.9-1.5,2.5-1.5,5V379H2935.4z"/>
		<path class="st10" d="M2955.4,380.6l3.2,0.5c0.1,1,0.5,1.7,1.1,2.1c0.8,0.6,1.9,0.9,3.3,0.9c1.5,0,2.7-0.3,3.5-0.9
			s1.4-1.4,1.7-2.5c0.2-0.7,0.2-2.1,0.2-4.2c-1.4,1.7-3.2,2.5-5.3,2.5c-2.6,0-4.7-1-6.1-2.9s-2.2-4.2-2.2-6.8c0-1.8,0.3-3.5,1-5.1
			c0.7-1.5,1.6-2.7,2.9-3.6c1.3-0.8,2.7-1.3,4.4-1.3c2.3,0,4.1,0.9,5.6,2.7v-2.3h3v16.6c0,3-0.3,5.1-0.9,6.4c-0.6,1.2-1.6,2.2-2.9,3
			c-1.3,0.7-2.9,1.1-4.9,1.1c-2.3,0-4.1-0.5-5.5-1.5C2956.1,384.2,2955.4,382.7,2955.4,380.6z M2958.1,369.1c0,2.5,0.5,4.4,1.5,5.5
			s2.3,1.7,3.8,1.7c1.5,0,2.7-0.6,3.8-1.7s1.5-3,1.5-5.4c0-2.3-0.5-4.1-1.6-5.3s-2.3-1.8-3.8-1.8c-1.4,0-2.7,0.6-3.7,1.8
			C2958.6,365,2958.1,366.8,2958.1,369.1z"/>
		<path class="st10" d="M2993.1,386.8c-1.8-2.3-3.3-4.9-4.6-7.9c-1.2-3-1.9-6.2-1.9-9.4c0-2.9,0.5-5.6,1.4-8.2c1.1-3,2.8-6.1,5-9.1
			h2.3c-1.5,2.5-2.4,4.3-2.9,5.4c-0.7,1.7-1.3,3.4-1.7,5.2c-0.5,2.3-0.8,4.5-0.8,6.8c0,5.8,1.8,11.6,5.4,17.4H2993.1z"/>
		<path class="st10" d="M3006,382.8v-3.3c-1.6-0.2-2.9-0.6-4-1.1c-1-0.5-1.9-1.4-2.6-2.5c-0.7-1.2-1.2-2.6-1.3-4.3l3.3-0.6
			c0.3,1.7,0.7,3,1.3,3.8c0.9,1.2,2,1.8,3.3,1.9v-10.4c-1.3-0.3-2.7-0.8-4.1-1.6c-1-0.6-1.8-1.4-2.4-2.4c-0.6-1-0.8-2.2-0.8-3.5
			c0-2.3,0.8-4.2,2.5-5.6c1.1-1,2.7-1.6,4.9-1.8v-1.6h1.9v1.6c1.9,0.2,3.4,0.7,4.5,1.7c1.4,1.2,2.3,2.8,2.6,4.9l-3.4,0.5
			c-0.2-1.3-0.6-2.3-1.2-2.9c-0.6-0.7-1.4-1.1-2.5-1.3v9.4c1.6,0.4,2.7,0.7,3.3,1c1,0.4,1.8,1,2.5,1.6c0.6,0.6,1.1,1.4,1.5,2.3
			c0.3,0.9,0.5,1.8,0.5,2.9c0,2.3-0.7,4.1-2.2,5.6c-1.4,1.5-3.3,2.3-5.6,2.4v3.3H3006z M3006,354.3c-1.3,0.2-2.3,0.7-3,1.5
			c-0.7,0.8-1.1,1.8-1.1,2.9c0,1.1,0.3,2,0.9,2.8s1.7,1.3,3.2,1.8V354.3z M3007.9,376.8c1.3-0.2,2.3-0.7,3.1-1.6s1.2-2.1,1.2-3.5
			c0-1.2-0.3-2.1-0.9-2.8s-1.8-1.4-3.5-1.9V376.8z"/>
		<path class="st10" d="M3021.9,386.8h-2.3c3.6-5.8,5.4-11.6,5.4-17.4c0-2.3-0.3-4.5-0.8-6.7c-0.4-1.8-1-3.5-1.7-5.2
			c-0.5-1.1-1.4-2.9-2.9-5.4h2.3c2.3,3,3.9,6.1,5,9.1c0.9,2.6,1.4,5.4,1.4,8.2c0,3.3-0.6,6.4-1.9,9.4
			C3025.2,381.9,3023.7,384.5,3021.9,386.8z"/>
	</g>
	<path class="st8" d="M1431.5,446.5v69.3"/>
	<path class="st8" d="M2025.5,446.5v69.3"/>
	<path class="st8" d="M2619.5,446.5v69.3"/>
</g>
</svg>
