<?xml version="1.0" encoding="utf-8"?>
<!-- Generator: Adobe Illustrator 25.3.1, SVG Export Plug-In . SVG Version: 6.00 Build 0)  -->
<svg version="1.1" id="레이어_1" xmlns="http://www.w3.org/2000/svg" xmlns:xlink="http://www.w3.org/1999/xlink" x="0px"
	 y="0px" viewBox="0 0 3239 312" style="enable-background:new 0 0 3239 312;" xml:space="preserve">
<style type="text/css">
	.st0{clip-path:url(#SVGID_2_);}
	.st1{fill:#EEEFEF;}
	.st2{fill-rule:evenodd;clip-rule:evenodd;fill:#706092;}
	.st3{fill-rule:evenodd;clip-rule:evenodd;fill:#FFFFFF;}
	.st4{fill-rule:evenodd;clip-rule:evenodd;fill:#9D9D9D;}
	.st5{fill:#4EA5A8;}
	.st6{fill:#4677C2;}
	.st7{fill:none;stroke:#D9D9D9;stroke-width:3.4375;stroke-linecap:round;stroke-miterlimit:8;}
	.st8{enable-background:new    ;}
	.st9{fill:#FFFFFF;}
	.st10{font-family:'ArialMT';}
	.st11{font-size:37px;}
</style>
<g>
	<defs>
		<rect id="SVGID_1_" width="3239" height="312"/>
	</defs>
	<clipPath id="SVGID_2_">
		<use xlink:href="#SVGID_1_"  style="overflow:visible;"/>
	</clipPath>
	<g transform="translate(-15 -259)" class="st0">
		<rect x="15" y="259" class="st1" width="3239" height="312"/>
		<path class="st2" d="M408,296.8c0-9.9,8-17.8,17.8-17.8h2712.3c9.9,0,17.8,8,17.8,17.8v88.3c0,9.9-8,17.8-17.8,17.8H425.8
			c-9.9,0-17.8-8-17.8-17.8V296.8z"/>
		<path class="st3" d="M408,436.8c0-9.9,8-17.8,17.8-17.8h2712.3c9.9,0,17.8,8,17.8,17.8v88.3c0,9.9-8,17.8-17.8,17.8H425.8
			c-9.9,0-17.8-8-17.8-17.8V436.8z"/>
		<path class="st4" d="M425.8,279H1097v124H425.8c-9.8,0-17.8-8-17.8-17.8v-88.3C408,287,416,279,425.8,279z"/>
		<rect x="1097" y="279" class="st5" width="688" height="124"/>
		<rect x="1782" y="279" class="st6" width="688" height="124"/>
		<path class="st7" d="M1097.5,446.5v69.3"/>
		<path class="st7" d="M1782.5,446.5v69.3"/>
		<path class="st7" d="M2467.5,446.5v69.3"/>
		<g class="st8">
			<path class="st9" d="M648.4,332v-34.4h6.9V332H648.4z"/>
			<path class="st9" d="M684.5,332H678v-12.7c0-2.7-0.1-4.4-0.4-5.2s-0.7-1.4-1.4-1.8s-1.4-0.7-2.3-0.7c-1.1,0-2.2,0.3-3.1,0.9
				s-1.5,1.5-1.9,2.5s-0.5,2.9-0.5,5.7V332h-6.6v-24.9h6.1v3.7c2.2-2.8,4.9-4.2,8.2-4.2c1.5,0,2.8,0.3,4,0.8s2.1,1.2,2.7,2
				s1,1.7,1.3,2.8s0.4,2.5,0.4,4.4V332z"/>
			<path class="st9" d="M688.3,307.1h3.7v-1.9c0-2.1,0.2-3.7,0.7-4.7s1.3-1.9,2.5-2.5s2.7-1,4.5-1c1.9,0,3.7,0.3,5.5,0.8l-0.9,4.6
				c-1-0.2-2.1-0.4-3-0.4c-1,0-1.6,0.2-2.1,0.7s-0.6,1.3-0.6,2.6v1.8h4.9v5.2h-4.9V332H692v-19.7h-3.7V307.1z"/>
			<path class="st9" d="M721.6,324.1l6.6,1.1c-0.8,2.4-2.2,4.2-4,5.5s-4.1,1.9-6.8,1.9c-4.3,0-7.5-1.4-9.6-4.2
				c-1.6-2.3-2.5-5.1-2.5-8.6c0-4.1,1.1-7.4,3.2-9.7s4.9-3.5,8.2-3.5c3.7,0,6.6,1.2,8.8,3.7s3.2,6.2,3.1,11.2H712
				c0,2,0.6,3.5,1.6,4.6s2.3,1.6,3.8,1.6c1,0,1.9-0.3,2.6-0.8S721.3,325.3,721.6,324.1z M722,317.4c0-1.9-0.5-3.4-1.5-4.3
				s-2.1-1.5-3.4-1.5c-1.4,0-2.6,0.5-3.6,1.6s-1.4,2.5-1.4,4.3H722z"/>
			<path class="st9" d="M755.6,314.5l-6.5,1.2c-0.2-1.3-0.7-2.3-1.5-2.9s-1.8-1-3-1c-1.6,0-2.9,0.6-3.9,1.7s-1.5,3-1.5,5.7
				c0,3,0.5,5,1.5,6.3s2.3,1.8,4,1.8c1.2,0,2.3-0.4,3.1-1.1s1.4-1.9,1.7-3.7l6.5,1.1c-0.7,3-2,5.2-3.9,6.7s-4.5,2.3-7.7,2.3
				c-3.6,0-6.5-1.1-8.7-3.4s-3.2-5.5-3.2-9.5c0-4.1,1.1-7.3,3.3-9.6s5.1-3.4,8.8-3.4c3,0,5.4,0.7,7.2,2S754.8,311.8,755.6,314.5z"/>
			<path class="st9" d="M772,307.1v5.2h-4.5v10c0,2,0,3.2,0.1,3.6s0.3,0.6,0.6,0.8s0.7,0.3,1.1,0.3c0.6,0,1.5-0.2,2.6-0.6l0.6,5.1
				c-1.5,0.7-3.3,1-5.2,1c-1.2,0-2.3-0.2-3.2-0.6s-1.7-0.9-2.1-1.5s-0.8-1.5-0.9-2.6c-0.1-0.8-0.2-2.3-0.2-4.6v-10.9h-3v-5.2h3v-4.9
				l6.6-3.8v8.8H772z"/>
			<path class="st9" d="M776.6,303.7v-6.1h6.6v6.1H776.6z M776.6,332v-24.9h6.6V332H776.6z"/>
			<path class="st9" d="M788.4,319.2c0-2.2,0.5-4.3,1.6-6.4s2.6-3.6,4.6-4.7s4.2-1.6,6.6-1.6c3.8,0,6.9,1.2,9.3,3.7s3.6,5.5,3.6,9.3
				c0,3.8-1.2,6.9-3.6,9.4s-5.5,3.7-9.2,3.7c-2.3,0-4.5-0.5-6.5-1.5s-3.6-2.5-4.7-4.5S788.4,322.1,788.4,319.2z M795.1,319.6
				c0,2.5,0.6,4.4,1.8,5.7s2.6,2,4.3,2s3.2-0.7,4.3-2s1.7-3.2,1.7-5.7c0-2.4-0.6-4.3-1.7-5.6s-2.6-2-4.3-2s-3.2,0.7-4.3,2
				S795.1,317.1,795.1,319.6z"/>
			<path class="st9" d="M835.6,332v-3.7c-0.9,1.3-2.1,2.4-3.6,3.1s-3,1.1-4.7,1.1c-1.7,0-3.2-0.4-4.5-1.1s-2.3-1.8-2.9-3.1
				s-0.9-3.2-0.9-5.5v-15.8h6.6v11.4c0,3.5,0.1,5.6,0.4,6.4s0.7,1.4,1.3,1.9s1.5,0.7,2.4,0.7c1.1,0,2.1-0.3,3-0.9s1.5-1.4,1.8-2.3
				s0.5-3.2,0.5-6.7v-10.5h6.6V332H835.6z"/>
			<path class="st9" d="M846.2,324.9l6.6-1c0.3,1.3,0.9,2.3,1.7,2.9s2.1,1,3.6,1c1.7,0,3-0.3,3.8-0.9c0.6-0.4,0.9-1,0.9-1.8
				c0-0.5-0.2-0.9-0.5-1.2c-0.3-0.3-1.1-0.6-2.2-0.9c-5.3-1.2-8.7-2.2-10.1-3.2c-2-1.3-3-3.2-3-5.6c0-2.2,0.9-4,2.6-5.4
				s4.3-2.2,7.9-2.2c3.4,0,5.9,0.6,7.6,1.7s2.8,2.8,3.4,4.9l-6.2,1.1c-0.3-1-0.8-1.7-1.5-2.2s-1.8-0.8-3.2-0.8c-1.7,0-3,0.2-3.7,0.7
				c-0.5,0.3-0.8,0.8-0.8,1.3c0,0.5,0.2,0.9,0.7,1.2c0.6,0.4,2.6,1.1,6.2,1.9s6,1.8,7.3,2.9c1.4,1.2,2.1,2.8,2.1,4.9
				c0,2.3-1,4.2-2.9,5.9s-4.7,2.5-8.5,2.5c-3.4,0-6.1-0.7-8.1-2.1S846.8,327.3,846.2,324.9z"/>
		</g>
		<g class="st8">
			<path class="st9" d="M535.4,379v-26.5h9.1c2.1,0,3.6,0.1,4.7,0.4c1.5,0.3,2.8,1,3.9,1.9c1.4,1.2,2.4,2.7,3.1,4.5
				c0.7,1.8,1,3.9,1,6.3c0,2-0.2,3.8-0.7,5.3c-0.5,1.6-1.1,2.8-1.8,3.9c-0.7,1-1.5,1.8-2.4,2.4c-0.9,0.6-1.9,1-3.2,1.3
				c-1.2,0.3-2.7,0.5-4.3,0.5H535.4z M538.9,375.9h5.7c1.7,0,3.1-0.2,4.1-0.5c1-0.3,1.8-0.8,2.4-1.4c0.8-0.8,1.5-1.9,1.9-3.4
				c0.5-1.4,0.7-3.1,0.7-5.1c0-2.8-0.5-4.9-1.4-6.4c-0.9-1.5-2-2.5-3.3-3c-0.9-0.4-2.5-0.5-4.5-0.5h-5.6V375.9z"/>
			<path class="st9" d="M574.2,376.6c-1.2,1-2.4,1.7-3.5,2.2c-1.1,0.4-2.3,0.6-3.6,0.6c-2.1,0-3.7-0.5-4.9-1.5
				c-1.1-1-1.7-2.3-1.7-3.9c0-0.9,0.2-1.8,0.6-2.6c0.4-0.8,1-1.4,1.7-1.9c0.7-0.5,1.5-0.8,2.3-1.1c0.6-0.2,1.6-0.3,2.9-0.5
				c2.6-0.3,4.6-0.7,5.8-1.1c0-0.4,0-0.7,0-0.8c0-1.3-0.3-2.3-0.9-2.8c-0.8-0.7-2.1-1.1-3.7-1.1c-1.5,0-2.7,0.3-3.4,0.8
				c-0.7,0.5-1.3,1.5-1.6,2.8l-3.2-0.4c0.3-1.4,0.8-2.5,1.4-3.3c0.7-0.8,1.6-1.5,2.9-1.9c1.3-0.5,2.7-0.7,4.4-0.7c1.6,0,3,0.2,4,0.6
				c1,0.4,1.8,0.9,2.3,1.5c0.5,0.6,0.8,1.3,1,2.2c0.1,0.6,0.2,1.6,0.2,3v4.3c0,3,0.1,4.9,0.2,5.7c0.1,0.8,0.4,1.6,0.8,2.3h-3.4
				C574.5,378.3,574.3,377.5,574.2,376.6z M573.9,369.4c-1.2,0.5-3,0.9-5.3,1.2c-1.3,0.2-2.3,0.4-2.8,0.7c-0.6,0.2-1,0.6-1.3,1.1
				c-0.3,0.5-0.5,1-0.5,1.5c0,0.9,0.3,1.6,1,2.2c0.7,0.6,1.6,0.9,2.9,0.9c1.3,0,2.4-0.3,3.3-0.8s1.7-1.3,2.1-2.2
				c0.3-0.7,0.5-1.8,0.5-3.3V369.4z"/>
			<path class="st9" d="M582.3,356.3v-3.7h3.3v3.7H582.3z M582.3,379v-19.2h3.3V379H582.3z"/>
			<path class="st9" d="M590.4,379v-26.5h3.3V379H590.4z"/>
			<path class="st9" d="M598.6,386.4l-0.4-3.1c0.7,0.2,1.3,0.3,1.9,0.3c0.7,0,1.3-0.1,1.7-0.4s0.8-0.6,1.1-1c0.2-0.3,0.5-1.1,1-2.4
				c0.1-0.2,0.2-0.4,0.3-0.8l-7.3-19.2h3.5l4,11.1c0.5,1.4,1,2.9,1.4,4.4c0.4-1.5,0.8-3,1.3-4.4l4.1-11.2h3.3l-7.3,19.5
				c-0.8,2.1-1.4,3.6-1.8,4.4c-0.6,1.1-1.2,1.9-2,2.4c-0.7,0.5-1.6,0.8-2.7,0.8C600,386.8,599.3,386.7,598.6,386.4z"/>
		</g>
		<g class="st8">
			<path class="st9" d="M632.3,386.8c-1.8-2.3-3.3-4.9-4.6-7.9c-1.2-3-1.9-6.2-1.9-9.4c0-2.9,0.5-5.6,1.4-8.2c1.1-3,2.8-6.1,5-9.1
				h2.3c-1.5,2.5-2.4,4.3-2.9,5.4c-0.7,1.7-1.3,3.4-1.7,5.2c-0.5,2.3-0.8,4.5-0.8,6.8c0,5.8,1.8,11.6,5.4,17.4H632.3z"/>
			<path class="st9" d="M657.7,369.7l3.5,0.9c-0.7,2.9-2.1,5.1-4,6.6c-1.9,1.5-4.2,2.3-7,2.3c-2.9,0-5.2-0.6-7-1.7
				c-1.8-1.2-3.1-2.8-4.1-5c-0.9-2.2-1.4-4.6-1.4-7.1c0-2.8,0.5-5.2,1.6-7.2c1.1-2.1,2.6-3.6,4.5-4.7c1.9-1.1,4.1-1.6,6.4-1.6
				c2.6,0,4.9,0.7,6.7,2c1.8,1.3,3.1,3.2,3.8,5.7l-3.5,0.8c-0.6-1.9-1.5-3.3-2.7-4.2c-1.2-0.9-2.6-1.3-4.4-1.3c-2,0-3.7,0.5-5.1,1.5
				c-1.4,1-2.3,2.3-2.9,3.9c-0.6,1.6-0.8,3.3-0.8,5.1c0,2.3,0.3,4.2,1,5.9c0.7,1.7,1.7,2.9,3.1,3.8c1.4,0.8,2.9,1.2,4.5,1.2
				c2,0,3.6-0.6,5-1.7C656.3,373.6,657.2,371.9,657.7,369.7z"/>
			<path class="st9" d="M677.7,379v-2.8c-1.5,2.2-3.5,3.3-6.1,3.3c-1.1,0-2.2-0.2-3.2-0.7c-1-0.4-1.7-1-2.2-1.6
				c-0.5-0.7-0.8-1.5-1-2.4c-0.1-0.6-0.2-1.7-0.2-3v-11.9h3.3v10.6c0,1.7,0.1,2.8,0.2,3.4c0.2,0.9,0.6,1.5,1.3,2
				c0.7,0.5,1.5,0.7,2.5,0.7s1.9-0.2,2.7-0.7c0.9-0.5,1.5-1.2,1.8-2c0.4-0.9,0.5-2.1,0.5-3.7v-10.3h3.3V379H677.7z"/>
			<path class="st9" d="M685.6,379v-19.2h2.9v2.9c0.7-1.4,1.4-2.3,2.1-2.7c0.6-0.4,1.3-0.7,2.1-0.7c1.1,0,2.2,0.3,3.3,1l-1.1,3
				c-0.8-0.5-1.6-0.7-2.4-0.7c-0.7,0-1.3,0.2-1.9,0.6c-0.6,0.4-1,1-1.2,1.8c-0.4,1.2-0.5,2.4-0.5,3.8v10H685.6z"/>
			<path class="st9" d="M698,379v-19.2h2.9v2.9c0.7-1.4,1.4-2.3,2.1-2.7c0.6-0.4,1.3-0.7,2.1-0.7c1.1,0,2.2,0.3,3.3,1l-1.1,3
				c-0.8-0.5-1.6-0.7-2.4-0.7c-0.7,0-1.3,0.2-1.9,0.6c-0.6,0.4-1,1-1.2,1.8c-0.4,1.2-0.5,2.4-0.5,3.8v10H698z"/>
			<path class="st9" d="M723.5,372.8l3.4,0.4c-0.5,2-1.5,3.5-2.9,4.6c-1.4,1.1-3.3,1.6-5.5,1.6c-2.8,0-5-0.9-6.7-2.6
				c-1.6-1.7-2.5-4.2-2.5-7.3c0-3.2,0.8-5.7,2.5-7.5s3.8-2.7,6.5-2.7c2.6,0,4.7,0.9,6.3,2.6c1.6,1.7,2.4,4.2,2.4,7.4
				c0,0.2,0,0.5,0,0.9h-14.3c0.1,2.1,0.7,3.7,1.8,4.8c1.1,1.1,2.4,1.7,4,1.7c1.2,0,2.2-0.3,3.1-0.9
				C722.3,375.2,723,374.2,723.5,372.8z M712.8,367.6h10.7c-0.1-1.6-0.6-2.8-1.2-3.6c-1-1.3-2.4-1.9-4-1.9c-1.5,0-2.7,0.5-3.8,1.5
				C713.4,364.6,712.9,365.9,712.8,367.6z"/>
			<path class="st9" d="M730.9,379v-19.2h2.9v2.7c1.4-2.1,3.4-3.2,6.1-3.2c1.2,0,2.2,0.2,3.2,0.6c1,0.4,1.7,1,2.2,1.6
				c0.5,0.7,0.8,1.5,1,2.4c0.1,0.6,0.2,1.7,0.2,3.2V379h-3.3v-11.7c0-1.3-0.1-2.3-0.4-3s-0.7-1.2-1.3-1.6c-0.6-0.4-1.4-0.6-2.3-0.6
				c-1.4,0-2.6,0.4-3.6,1.3c-1,0.9-1.5,2.5-1.5,5V379H730.9z"/>
			<path class="st9" d="M758.6,376.1l0.5,2.9c-0.9,0.2-1.7,0.3-2.5,0.3c-1.2,0-2.1-0.2-2.7-0.6c-0.7-0.4-1.1-0.9-1.4-1.5
				c-0.3-0.6-0.4-1.9-0.4-3.8v-11h-2.4v-2.5h2.4v-4.8l3.2-2v6.7h3.3v2.5h-3.3v11.2c0,0.9,0.1,1.5,0.2,1.8c0.1,0.3,0.3,0.5,0.6,0.6
				c0.3,0.2,0.6,0.2,1.1,0.2C757.5,376.2,758,376.2,758.6,376.1z"/>
			<path class="st9" d="M759.3,379.5l7.7-27.4h2.6l-7.7,27.4H759.3z"/>
			<path class="st9" d="M791.3,369.7l3.5,0.9c-0.7,2.9-2.1,5.1-4,6.6c-1.9,1.5-4.2,2.3-7,2.3c-2.9,0-5.2-0.6-7-1.7
				c-1.8-1.2-3.1-2.8-4.1-5c-0.9-2.2-1.4-4.6-1.4-7.1c0-2.8,0.5-5.2,1.6-7.2c1.1-2.1,2.6-3.6,4.5-4.7c1.9-1.1,4.1-1.6,6.4-1.6
				c2.6,0,4.9,0.7,6.7,2c1.8,1.3,3.1,3.2,3.8,5.7l-3.5,0.8c-0.6-1.9-1.5-3.3-2.7-4.2c-1.2-0.9-2.6-1.3-4.4-1.3c-2,0-3.7,0.5-5.1,1.5
				c-1.4,1-2.3,2.3-2.9,3.9c-0.6,1.6-0.8,3.3-0.8,5.1c0,2.3,0.3,4.2,1,5.9c0.7,1.7,1.7,2.9,3.1,3.8c1.4,0.8,2.9,1.2,4.5,1.2
				c2,0,3.6-0.6,5-1.7C789.9,373.6,790.9,371.9,791.3,369.7z"/>
			<path class="st9" d="M811.3,379v-2.8c-1.5,2.2-3.5,3.3-6.1,3.3c-1.1,0-2.2-0.2-3.2-0.7c-1-0.4-1.7-1-2.2-1.6
				c-0.5-0.7-0.8-1.5-1-2.4c-0.1-0.6-0.2-1.7-0.2-3v-11.9h3.3v10.6c0,1.7,0.1,2.8,0.2,3.4c0.2,0.9,0.6,1.5,1.3,2
				c0.7,0.5,1.5,0.7,2.5,0.7s1.9-0.2,2.7-0.7c0.9-0.5,1.5-1.2,1.8-2c0.4-0.9,0.5-2.1,0.5-3.7v-10.3h3.3V379H811.3z"/>
			<path class="st9" d="M819.3,379v-19.2h2.9v2.7c0.6-0.9,1.4-1.7,2.4-2.3c1-0.6,2.1-0.9,3.4-0.9c1.4,0,2.6,0.3,3.5,0.9
				c0.9,0.6,1.6,1.4,1.9,2.5c1.5-2.2,3.5-3.4,5.9-3.4c1.9,0,3.4,0.5,4.4,1.6c1,1.1,1.5,2.7,1.5,4.9V379h-3.2v-12.1
				c0-1.3-0.1-2.2-0.3-2.8c-0.2-0.6-0.6-1-1.1-1.4c-0.6-0.3-1.2-0.5-2-0.5c-1.3,0-2.5,0.4-3.4,1.3c-0.9,0.9-1.3,2.3-1.3,4.3V379
				h-3.3v-12.5c0-1.4-0.3-2.5-0.8-3.3c-0.5-0.7-1.4-1.1-2.6-1.1c-0.9,0-1.8,0.2-2.5,0.7c-0.8,0.5-1.3,1.2-1.7,2.1
				c-0.3,0.9-0.5,2.3-0.5,4v10H819.3z"/>
			<path class="st9" d="M862.7,379v-2.8c-1.5,2.2-3.5,3.3-6.1,3.3c-1.1,0-2.2-0.2-3.2-0.7c-1-0.4-1.7-1-2.2-1.6
				c-0.5-0.7-0.8-1.5-1-2.4c-0.1-0.6-0.2-1.7-0.2-3v-11.9h3.3v10.6c0,1.7,0.1,2.8,0.2,3.4c0.2,0.9,0.6,1.5,1.3,2
				c0.7,0.5,1.5,0.7,2.5,0.7s1.9-0.2,2.7-0.7c0.9-0.5,1.5-1.2,1.8-2c0.4-0.9,0.5-2.1,0.5-3.7v-10.3h3.3V379H862.7z"/>
			<path class="st9" d="M870.7,379v-26.5h3.3V379H870.7z"/>
			<path class="st9" d="M891.5,376.6c-1.2,1-2.4,1.7-3.5,2.2c-1.1,0.4-2.3,0.6-3.6,0.6c-2.1,0-3.7-0.5-4.9-1.5
				c-1.1-1-1.7-2.3-1.7-3.9c0-0.9,0.2-1.8,0.6-2.6c0.4-0.8,1-1.4,1.7-1.9c0.7-0.5,1.5-0.8,2.3-1.1c0.6-0.2,1.6-0.3,2.9-0.5
				c2.6-0.3,4.6-0.7,5.8-1.1c0-0.4,0-0.7,0-0.8c0-1.3-0.3-2.3-0.9-2.8c-0.8-0.7-2.1-1.1-3.7-1.1c-1.5,0-2.7,0.3-3.4,0.8
				c-0.7,0.5-1.3,1.5-1.6,2.8l-3.2-0.4c0.3-1.4,0.8-2.5,1.4-3.3c0.7-0.8,1.6-1.5,2.9-1.9c1.3-0.5,2.7-0.7,4.4-0.7c1.6,0,3,0.2,4,0.6
				c1,0.4,1.8,0.9,2.3,1.5c0.5,0.6,0.8,1.3,1,2.2c0.1,0.6,0.2,1.6,0.2,3v4.3c0,3,0.1,4.9,0.2,5.7c0.1,0.8,0.4,1.6,0.8,2.3h-3.4
				C891.8,378.3,891.6,377.5,891.5,376.6z M891.2,369.4c-1.2,0.5-3,0.9-5.3,1.2c-1.3,0.2-2.3,0.4-2.8,0.7c-0.6,0.2-1,0.6-1.3,1.1
				c-0.3,0.5-0.5,1-0.5,1.5c0,0.9,0.3,1.6,1,2.2c0.7,0.6,1.6,0.9,2.9,0.9c1.3,0,2.4-0.3,3.3-0.8s1.7-1.3,2.1-2.2
				c0.3-0.7,0.5-1.8,0.5-3.3V369.4z"/>
			<path class="st9" d="M906.6,376.1l0.5,2.9c-0.9,0.2-1.7,0.3-2.5,0.3c-1.2,0-2.1-0.2-2.7-0.6c-0.7-0.4-1.1-0.9-1.4-1.5
				c-0.3-0.6-0.4-1.9-0.4-3.8v-11h-2.4v-2.5h2.4v-4.8l3.2-2v6.7h3.3v2.5h-3.3v11.2c0,0.9,0.1,1.5,0.2,1.8c0.1,0.3,0.3,0.5,0.6,0.6
				c0.3,0.2,0.6,0.2,1.1,0.2C905.6,376.2,906,376.2,906.6,376.1z"/>
			<path class="st9" d="M909.8,356.3v-3.7h3.3v3.7H909.8z M909.8,379v-19.2h3.3V379H909.8z"/>
			<path class="st9" d="M923.4,379l-7.3-19.2h3.4l4.1,11.5c0.4,1.2,0.9,2.5,1.2,3.9c0.3-1,0.7-2.2,1.2-3.6l4.3-11.7h3.3l-7.3,19.2
				H923.4z"/>
			<path class="st9" d="M949.7,372.8l3.4,0.4c-0.5,2-1.5,3.5-2.9,4.6c-1.4,1.1-3.3,1.6-5.5,1.6c-2.8,0-5-0.9-6.7-2.6
				c-1.6-1.7-2.5-4.2-2.5-7.3c0-3.2,0.8-5.7,2.5-7.5s3.8-2.7,6.5-2.7c2.6,0,4.7,0.9,6.3,2.6c1.6,1.7,2.4,4.2,2.4,7.4
				c0,0.2,0,0.5,0,0.9h-14.3c0.1,2.1,0.7,3.7,1.8,4.8c1.1,1.1,2.4,1.7,4,1.7c1.2,0,2.2-0.3,3.1-0.9
				C948.5,375.2,949.2,374.2,949.7,372.8z M939,367.6h10.7c-0.1-1.6-0.6-2.8-1.2-3.6c-1-1.3-2.4-1.9-4-1.9c-1.5,0-2.7,0.5-3.8,1.5
				C939.7,364.6,939.1,365.9,939,367.6z"/>
			<path class="st9" d="M959.2,386.8h-2.3c3.6-5.8,5.4-11.6,5.4-17.4c0-2.3-0.3-4.5-0.8-6.7c-0.4-1.8-1-3.5-1.7-5.2
				c-0.5-1.1-1.4-2.9-2.9-5.4h2.3c2.3,3,3.9,6.1,5,9.1c0.9,2.6,1.4,5.4,1.4,8.2c0,3.3-0.6,6.4-1.9,9.4
				C962.5,381.9,961,384.5,959.2,386.8z"/>
		</g>
		<g class="st8">
			<path class="st9" d="M1402.1,332v-34.4h6.9V332H1402.1z"/>
			<path class="st9" d="M1437.7,319.4l6.7,2.1c-1,3.8-2.7,6.5-5.1,8.4s-5.4,2.7-9.1,2.7c-4.6,0-8.3-1.6-11.2-4.7s-4.4-7.4-4.4-12.8
				c0-5.7,1.5-10.2,4.4-13.3s6.8-4.7,11.6-4.7c4.2,0,7.6,1.2,10.2,3.7c1.6,1.5,2.7,3.6,3.5,6.3l-6.9,1.6c-0.4-1.8-1.3-3.2-2.5-4.2
				s-2.9-1.5-4.7-1.5c-2.5,0-4.6,0.9-6.2,2.7s-2.4,4.8-2.4,8.9c0,4.3,0.8,7.4,2.3,9.3s3.6,2.8,6.1,2.8c1.8,0,3.4-0.6,4.8-1.8
				S1437.1,321.9,1437.7,319.4z"/>
			<path class="st9" d="M1450.3,297.6h6.9v18.6c0,3,0.1,4.9,0.3,5.7c0.3,1.4,1,2.5,2.1,3.4s2.6,1.3,4.6,1.3c2,0,3.5-0.4,4.5-1.2
				s1.6-1.8,1.8-3s0.3-3.1,0.3-5.8v-19h6.9v18c0,4.1-0.2,7-0.6,8.7s-1.1,3.1-2.1,4.3s-2.4,2.1-4,2.8s-3.9,1-6.6,1
				c-3.3,0-5.8-0.4-7.5-1.1s-3-1.7-4-3s-1.6-2.5-1.9-3.8c-0.5-2-0.7-4.9-0.7-8.7V297.6z"/>
		</g>
		<g class="st8">
			<path class="st9" d="M1284.3,386.8c-1.8-2.3-3.3-4.9-4.6-7.9c-1.2-3-1.9-6.2-1.9-9.4c0-2.9,0.5-5.6,1.4-8.2c1.1-3,2.8-6.1,5-9.1
				h2.3c-1.5,2.5-2.4,4.3-2.9,5.4c-0.7,1.7-1.3,3.4-1.7,5.2c-0.5,2.3-0.8,4.5-0.8,6.8c0,5.8,1.8,11.6,5.4,17.4H1284.3z"/>
			<path class="st9" d="M1309.7,369.7l3.5,0.9c-0.7,2.9-2.1,5.1-4,6.6c-1.9,1.5-4.2,2.3-7,2.3c-2.9,0-5.2-0.6-7-1.7
				c-1.8-1.2-3.1-2.8-4.1-5c-0.9-2.2-1.4-4.6-1.4-7.1c0-2.8,0.5-5.2,1.6-7.2c1.1-2.1,2.6-3.6,4.5-4.7c1.9-1.1,4.1-1.6,6.4-1.6
				c2.6,0,4.9,0.7,6.7,2c1.8,1.3,3.1,3.2,3.8,5.7l-3.5,0.8c-0.6-1.9-1.5-3.3-2.7-4.2c-1.2-0.9-2.6-1.3-4.4-1.3c-2,0-3.7,0.5-5.1,1.5
				c-1.4,1-2.3,2.3-2.9,3.9c-0.6,1.6-0.8,3.3-0.8,5.1c0,2.3,0.3,4.2,1,5.9c0.7,1.7,1.7,2.9,3.1,3.8c1.4,0.8,2.9,1.2,4.5,1.2
				c2,0,3.6-0.6,5-1.7C1308.3,373.6,1309.3,371.9,1309.7,369.7z"/>
			<path class="st9" d="M1329.7,379v-2.8c-1.5,2.2-3.5,3.3-6.1,3.3c-1.1,0-2.2-0.2-3.2-0.7c-1-0.4-1.7-1-2.2-1.6
				c-0.5-0.7-0.8-1.5-1-2.4c-0.1-0.6-0.2-1.7-0.2-3v-11.9h3.3v10.6c0,1.7,0.1,2.8,0.2,3.4c0.2,0.9,0.6,1.5,1.3,2
				c0.7,0.5,1.5,0.7,2.5,0.7s1.9-0.2,2.7-0.7c0.9-0.5,1.5-1.2,1.8-2c0.4-0.9,0.5-2.1,0.5-3.7v-10.3h3.3V379H1329.7z"/>
			<path class="st9" d="M1337.7,379v-19.2h2.9v2.9c0.7-1.4,1.4-2.3,2.1-2.7c0.6-0.4,1.3-0.7,2.1-0.7c1.1,0,2.2,0.3,3.3,1l-1.1,3
				c-0.8-0.5-1.6-0.7-2.4-0.7c-0.7,0-1.3,0.2-1.9,0.6c-0.6,0.4-1,1-1.2,1.8c-0.4,1.2-0.5,2.4-0.5,3.8v10H1337.7z"/>
			<path class="st9" d="M1350,379v-19.2h2.9v2.9c0.7-1.4,1.4-2.3,2.1-2.7c0.6-0.4,1.3-0.7,2.1-0.7c1.1,0,2.2,0.3,3.3,1l-1.1,3
				c-0.8-0.5-1.6-0.7-2.4-0.7c-0.7,0-1.3,0.2-1.9,0.6c-0.6,0.4-1,1-1.2,1.8c-0.4,1.2-0.5,2.4-0.5,3.8v10H1350z"/>
			<path class="st9" d="M1375.5,372.8l3.4,0.4c-0.5,2-1.5,3.5-2.9,4.6c-1.4,1.1-3.3,1.6-5.5,1.6c-2.8,0-5-0.9-6.7-2.6
				c-1.6-1.7-2.5-4.2-2.5-7.3c0-3.2,0.8-5.7,2.5-7.5s3.8-2.7,6.5-2.7c2.6,0,4.7,0.9,6.3,2.6c1.6,1.7,2.4,4.2,2.4,7.4
				c0,0.2,0,0.5,0,0.9h-14.3c0.1,2.1,0.7,3.7,1.8,4.8c1.1,1.1,2.4,1.7,4,1.7c1.2,0,2.2-0.3,3.1-0.9
				C1374.3,375.2,1375,374.2,1375.5,372.8z M1364.8,367.6h10.7c-0.1-1.6-0.6-2.8-1.2-3.6c-1-1.3-2.4-1.9-4-1.9
				c-1.5,0-2.7,0.5-3.8,1.5C1365.5,364.6,1364.9,365.9,1364.8,367.6z"/>
			<path class="st9" d="M1382.9,379v-19.2h2.9v2.7c1.4-2.1,3.4-3.2,6.1-3.2c1.2,0,2.2,0.2,3.2,0.6c1,0.4,1.7,1,2.2,1.6
				c0.5,0.7,0.8,1.5,1,2.4c0.1,0.6,0.2,1.7,0.2,3.2V379h-3.3v-11.7c0-1.3-0.1-2.3-0.4-3s-0.7-1.2-1.3-1.6c-0.6-0.4-1.4-0.6-2.3-0.6
				c-1.4,0-2.6,0.4-3.6,1.3c-1,0.9-1.5,2.5-1.5,5V379H1382.9z"/>
			<path class="st9" d="M1410.6,376.1l0.5,2.9c-0.9,0.2-1.7,0.3-2.5,0.3c-1.2,0-2.1-0.2-2.7-0.6c-0.7-0.4-1.1-0.9-1.4-1.5
				c-0.3-0.6-0.4-1.9-0.4-3.8v-11h-2.4v-2.5h2.4v-4.8l3.2-2v6.7h3.3v2.5h-3.3v11.2c0,0.9,0.1,1.5,0.2,1.8c0.1,0.3,0.3,0.5,0.6,0.6
				c0.3,0.2,0.6,0.2,1.1,0.2C1409.6,376.2,1410,376.2,1410.6,376.1z"/>
			<path class="st9" d="M1411.4,379.5l7.7-27.4h2.6l-7.7,27.4H1411.4z"/>
			<path class="st9" d="M1424.4,379v-26.5h5.3l6.3,18.8c0.6,1.7,1,3.1,1.3,3.9c0.3-1,0.8-2.4,1.4-4.2l6.3-18.4h4.7V379h-3.4v-22.2
				l-7.7,22.2h-3.2l-7.7-22.5V379H1424.4z"/>
			<path class="st9" d="M1467.4,376.6c-1.2,1-2.4,1.7-3.5,2.2c-1.1,0.4-2.3,0.6-3.6,0.6c-2.1,0-3.7-0.5-4.9-1.5
				c-1.1-1-1.7-2.3-1.7-3.9c0-0.9,0.2-1.8,0.6-2.6c0.4-0.8,1-1.4,1.7-1.9c0.7-0.5,1.5-0.8,2.3-1.1c0.6-0.2,1.6-0.3,2.9-0.5
				c2.6-0.3,4.6-0.7,5.8-1.1c0-0.4,0-0.7,0-0.8c0-1.3-0.3-2.3-0.9-2.8c-0.8-0.7-2.1-1.1-3.7-1.1c-1.5,0-2.7,0.3-3.4,0.8
				c-0.7,0.5-1.3,1.5-1.6,2.8l-3.2-0.4c0.3-1.4,0.8-2.5,1.4-3.3c0.7-0.8,1.6-1.5,2.9-1.9c1.3-0.5,2.7-0.7,4.4-0.7c1.6,0,3,0.2,4,0.6
				c1,0.4,1.8,0.9,2.3,1.5c0.5,0.6,0.8,1.3,1,2.2c0.1,0.6,0.2,1.6,0.2,3v4.3c0,3,0.1,4.9,0.2,5.7c0.1,0.8,0.4,1.6,0.8,2.3h-3.4
				C1467.7,378.3,1467.5,377.5,1467.4,376.6z M1467.1,369.4c-1.2,0.5-3,0.9-5.3,1.2c-1.3,0.2-2.3,0.4-2.8,0.7
				c-0.6,0.2-1,0.6-1.3,1.1c-0.3,0.5-0.5,1-0.5,1.5c0,0.9,0.3,1.6,1,2.2c0.7,0.6,1.6,0.9,2.9,0.9c1.3,0,2.4-0.3,3.3-0.8
				s1.7-1.3,2.1-2.2c0.3-0.7,0.5-1.8,0.5-3.3V369.4z"/>
			<path class="st9" d="M1473.3,379l7-10l-6.5-9.2h4.1l2.9,4.5c0.6,0.9,1,1.6,1.3,2.1c0.5-0.8,1-1.5,1.5-2.1l3.2-4.5h3.9l-6.6,9
				l7.1,10.2h-4l-3.9-6l-1-1.6l-5,7.6H1473.3z"/>
			<path class="st9" d="M1494,356.3v-3.7h3.3v3.7H1494z M1494,379v-19.2h3.3V379H1494z"/>
			<path class="st9" d="M1502.2,379v-19.2h2.9v2.7c0.6-0.9,1.4-1.7,2.4-2.3c1-0.6,2.1-0.9,3.4-0.9c1.4,0,2.6,0.3,3.5,0.9
				c0.9,0.6,1.6,1.4,1.9,2.5c1.5-2.2,3.5-3.4,5.9-3.4c1.9,0,3.4,0.5,4.4,1.6c1,1.1,1.5,2.7,1.5,4.9V379h-3.2v-12.1
				c0-1.3-0.1-2.2-0.3-2.8c-0.2-0.6-0.6-1-1.1-1.4c-0.6-0.3-1.2-0.5-2-0.5c-1.3,0-2.5,0.4-3.4,1.3c-0.9,0.9-1.3,2.3-1.3,4.3V379
				h-3.3v-12.5c0-1.4-0.3-2.5-0.8-3.3c-0.5-0.7-1.4-1.1-2.6-1.1c-0.9,0-1.8,0.2-2.5,0.7c-0.8,0.5-1.3,1.2-1.7,2.1
				c-0.3,0.9-0.5,2.3-0.5,4v10H1502.2z"/>
			<path class="st9" d="M1545.6,379v-2.8c-1.5,2.2-3.5,3.3-6.1,3.3c-1.1,0-2.2-0.2-3.2-0.7c-1-0.4-1.7-1-2.2-1.6
				c-0.5-0.7-0.8-1.5-1-2.4c-0.1-0.6-0.2-1.7-0.2-3v-11.9h3.3v10.6c0,1.7,0.1,2.8,0.2,3.4c0.2,0.9,0.6,1.5,1.3,2
				c0.7,0.5,1.5,0.7,2.5,0.7s1.9-0.2,2.7-0.7c0.9-0.5,1.5-1.2,1.8-2c0.4-0.9,0.5-2.1,0.5-3.7v-10.3h3.3V379H1545.6z"/>
			<path class="st9" d="M1553.6,379v-19.2h2.9v2.7c0.6-0.9,1.4-1.7,2.4-2.3c1-0.6,2.1-0.9,3.4-0.9c1.4,0,2.6,0.3,3.5,0.9
				c0.9,0.6,1.6,1.4,1.9,2.5c1.5-2.2,3.5-3.4,5.9-3.4c1.9,0,3.4,0.5,4.4,1.6c1,1.1,1.5,2.7,1.5,4.9V379h-3.2v-12.1
				c0-1.3-0.1-2.2-0.3-2.8c-0.2-0.6-0.6-1-1.1-1.4c-0.6-0.3-1.2-0.5-2-0.5c-1.3,0-2.5,0.4-3.4,1.3c-0.9,0.9-1.3,2.3-1.3,4.3V379
				h-3.3v-12.5c0-1.4-0.3-2.5-0.8-3.3c-0.5-0.7-1.4-1.1-2.6-1.1c-0.9,0-1.8,0.2-2.5,0.7c-0.8,0.5-1.3,1.2-1.7,2.1
				c-0.3,0.9-0.5,2.3-0.5,4v10H1553.6z"/>
			<path class="st9" d="M1586.5,386.8h-2.3c3.6-5.8,5.4-11.6,5.4-17.4c0-2.3-0.3-4.5-0.8-6.7c-0.4-1.8-1-3.5-1.7-5.2
				c-0.5-1.1-1.4-2.9-2.9-5.4h2.3c2.3,3,3.9,6.1,5,9.1c0.9,2.6,1.4,5.4,1.4,8.2c0,3.3-0.6,6.4-1.9,9.4
				C1589.8,381.9,1588.3,384.5,1586.5,386.8z"/>
		</g>
		<g class="st8">
			<path class="st9" d="M2064.4,297.6h12.7c2.9,0,5,0.2,6.5,0.7c2,0.6,3.7,1.6,5.2,3.2s2.5,3.4,3.3,5.6s1.1,4.9,1.1,8.1
				c0,2.8-0.4,5.3-1.1,7.3c-0.9,2.5-2.1,4.5-3.7,6.1c-1.2,1.2-2.8,2.1-4.9,2.7c-1.5,0.5-3.6,0.7-6.1,0.7h-13.1V297.6z M2071.3,303.5
				v22.8h5.2c1.9,0,3.3-0.1,4.2-0.3c1.1-0.3,2.1-0.8,2.8-1.4s1.3-1.8,1.8-3.3s0.7-3.6,0.7-6.3s-0.2-4.7-0.7-6.1s-1.1-2.5-2-3.3
				s-1.9-1.3-3.2-1.6c-1-0.2-2.9-0.3-5.7-0.3H2071.3z"/>
			<path class="st9" d="M2113.4,324.1l6.6,1.1c-0.8,2.4-2.2,4.2-4,5.5s-4.1,1.9-6.8,1.9c-4.3,0-7.5-1.4-9.6-4.2
				c-1.6-2.3-2.5-5.1-2.5-8.6c0-4.1,1.1-7.4,3.2-9.7s4.9-3.5,8.2-3.5c3.7,0,6.6,1.2,8.8,3.7s3.2,6.2,3.1,11.2h-16.5
				c0,2,0.6,3.5,1.6,4.6s2.3,1.6,3.8,1.6c1,0,1.9-0.3,2.6-0.8S2113.1,325.3,2113.4,324.1z M2113.8,317.4c0-1.9-0.5-3.4-1.5-4.3
				s-2.1-1.5-3.4-1.5c-1.4,0-2.6,0.5-3.6,1.6s-1.4,2.5-1.4,4.3H2113.8z"/>
			<path class="st9" d="M2130.6,314.7l-6-1.1c0.7-2.4,1.8-4.2,3.5-5.3s4.1-1.7,7.3-1.7c2.9,0,5.1,0.3,6.6,1s2.4,1.6,3,2.6
				s0.9,3,0.9,5.9l-0.1,7.7c0,2.2,0.1,3.8,0.3,4.8s0.6,2.2,1.2,3.3h-6.5c-0.2-0.4-0.4-1.1-0.6-1.9c-0.1-0.4-0.2-0.6-0.2-0.8
				c-1.1,1.1-2.3,1.9-3.6,2.5s-2.6,0.8-4.1,0.8c-2.6,0-4.6-0.7-6.1-2.1s-2.2-3.1-2.2-5.3c0-1.4,0.3-2.7,1-3.8s1.6-1.9,2.8-2.5
				s3-1.1,5.2-1.5c3.1-0.6,5.2-1.1,6.4-1.6v-0.7c0-1.3-0.3-2.2-0.9-2.7s-1.8-0.8-3.5-0.8c-1.2,0-2.1,0.2-2.7,0.7
				S2131,313.5,2130.6,314.7z M2139.4,320c-0.8,0.3-2.2,0.6-4,1s-3,0.8-3.6,1.1c-0.9,0.6-1.3,1.4-1.3,2.3c0,0.9,0.3,1.7,1,2.4
				s1.6,1,2.6,1c1.2,0,2.3-0.4,3.4-1.2c0.8-0.6,1.3-1.3,1.6-2.2c0.2-0.6,0.3-1.6,0.3-3.2V320z"/>
			<path class="st9" d="M2163.8,307.1v5.2h-4.5v10c0,2,0,3.2,0.1,3.6s0.3,0.6,0.6,0.8s0.7,0.3,1.1,0.3c0.6,0,1.5-0.2,2.6-0.6
				l0.6,5.1c-1.5,0.7-3.3,1-5.2,1c-1.2,0-2.3-0.2-3.2-0.6s-1.7-0.9-2.1-1.5s-0.8-1.5-0.9-2.6c-0.1-0.8-0.2-2.3-0.2-4.6v-10.9h-3
				v-5.2h3v-4.9l6.6-3.8v8.8H2163.8z"/>
			<path class="st9" d="M2175,297.6v12.6c2.1-2.5,4.7-3.7,7.6-3.7c1.5,0,2.9,0.3,4.1,0.8s2.1,1.3,2.8,2.2s1,1.8,1.3,2.9
				s0.3,2.7,0.3,4.9V332h-6.6v-13.1c0-2.6-0.1-4.3-0.4-5s-0.7-1.3-1.3-1.7s-1.4-0.6-2.4-0.6c-1.1,0-2.1,0.3-2.9,0.8
				s-1.5,1.3-1.9,2.4s-0.6,2.7-0.6,4.7V332h-6.6v-34.4H2175z"/>
		</g>
		<g class="st8">
			<path class="st9" d="M1979,379v-26.5h9.1c2.1,0,3.6,0.1,4.7,0.4c1.5,0.3,2.8,1,3.9,1.9c1.4,1.2,2.4,2.7,3.1,4.5
				c0.7,1.8,1,3.9,1,6.3c0,2-0.2,3.8-0.7,5.3c-0.5,1.6-1.1,2.8-1.8,3.9c-0.7,1-1.5,1.8-2.4,2.4c-0.9,0.6-1.9,1-3.2,1.3
				c-1.2,0.3-2.7,0.5-4.3,0.5H1979z M1982.5,375.9h5.7c1.7,0,3.1-0.2,4.1-0.5c1-0.3,1.8-0.8,2.4-1.4c0.8-0.8,1.5-1.9,1.9-3.4
				c0.5-1.4,0.7-3.1,0.7-5.1c0-2.8-0.5-4.9-1.4-6.4c-0.9-1.5-2-2.5-3.3-3c-0.9-0.4-2.5-0.5-4.5-0.5h-5.6V375.9z"/>
			<path class="st9" d="M2017.8,376.6c-1.2,1-2.4,1.7-3.5,2.2c-1.1,0.4-2.3,0.6-3.6,0.6c-2.1,0-3.7-0.5-4.9-1.5
				c-1.1-1-1.7-2.3-1.7-3.9c0-0.9,0.2-1.8,0.6-2.6c0.4-0.8,1-1.4,1.7-1.9c0.7-0.5,1.5-0.8,2.3-1.1c0.6-0.2,1.6-0.3,2.9-0.5
				c2.6-0.3,4.6-0.7,5.8-1.1c0-0.4,0-0.7,0-0.8c0-1.3-0.3-2.3-0.9-2.8c-0.8-0.7-2.1-1.1-3.7-1.1c-1.5,0-2.7,0.3-3.4,0.8
				c-0.7,0.5-1.3,1.5-1.6,2.8l-3.2-0.4c0.3-1.4,0.8-2.5,1.4-3.3c0.7-0.8,1.6-1.5,2.9-1.9c1.3-0.5,2.7-0.7,4.4-0.7c1.6,0,3,0.2,4,0.6
				c1,0.4,1.8,0.9,2.3,1.5c0.5,0.6,0.8,1.3,1,2.2c0.1,0.6,0.2,1.6,0.2,3v4.3c0,3,0.1,4.9,0.2,5.7c0.1,0.8,0.4,1.6,0.8,2.3h-3.4
				C2018.1,378.3,2017.9,377.5,2017.8,376.6z M2017.5,369.4c-1.2,0.5-3,0.9-5.3,1.2c-1.3,0.2-2.3,0.4-2.8,0.7
				c-0.6,0.2-1,0.6-1.3,1.1c-0.3,0.5-0.5,1-0.5,1.5c0,0.9,0.3,1.6,1,2.2c0.7,0.6,1.6,0.9,2.9,0.9c1.3,0,2.4-0.3,3.3-0.8
				s1.7-1.3,2.1-2.2c0.3-0.7,0.5-1.8,0.5-3.3V369.4z"/>
			<path class="st9" d="M2025.9,356.3v-3.7h3.3v3.7H2025.9z M2025.9,379v-19.2h3.3V379H2025.9z"/>
			<path class="st9" d="M2034,379v-26.5h3.3V379H2034z"/>
			<path class="st9" d="M2042.1,386.4l-0.4-3.1c0.7,0.2,1.3,0.3,1.9,0.3c0.7,0,1.3-0.1,1.7-0.4s0.8-0.6,1.1-1c0.2-0.3,0.5-1.1,1-2.4
				c0.1-0.2,0.2-0.4,0.3-0.8l-7.3-19.2h3.5l4,11.1c0.5,1.4,1,2.9,1.4,4.4c0.4-1.5,0.8-3,1.3-4.4l4.1-11.2h3.3l-7.3,19.5
				c-0.8,2.1-1.4,3.6-1.8,4.4c-0.6,1.1-1.2,1.9-2,2.4c-0.7,0.5-1.6,0.8-2.7,0.8C2043.6,386.8,2042.9,386.7,2042.1,386.4z"/>
		</g>
		<g class="st8">
			<path class="st9" d="M2075.9,386.8c-1.8-2.3-3.3-4.9-4.6-7.9s-1.9-6.2-1.9-9.4c0-2.9,0.5-5.6,1.4-8.2c1.1-3,2.8-6.1,5-9.1h2.3
				c-1.5,2.5-2.4,4.3-2.9,5.4c-0.7,1.7-1.3,3.4-1.7,5.2c-0.5,2.3-0.8,4.5-0.8,6.8c0,5.8,1.8,11.6,5.4,17.4H2075.9z"/>
			<path class="st9" d="M2101.3,369.7l3.5,0.9c-0.7,2.9-2.1,5.1-4,6.6c-1.9,1.5-4.2,2.3-7,2.3c-2.9,0-5.2-0.6-7-1.7
				c-1.8-1.2-3.2-2.8-4.1-5c-0.9-2.2-1.4-4.6-1.4-7.1c0-2.8,0.5-5.2,1.6-7.2c1.1-2.1,2.6-3.6,4.5-4.7c1.9-1.1,4.1-1.6,6.4-1.6
				c2.6,0,4.9,0.7,6.7,2c1.8,1.3,3.1,3.2,3.8,5.7l-3.5,0.8c-0.6-1.9-1.5-3.3-2.7-4.2c-1.2-0.9-2.6-1.3-4.4-1.3c-2,0-3.7,0.5-5.1,1.5
				c-1.4,1-2.3,2.3-2.9,3.9c-0.6,1.6-0.8,3.3-0.8,5.1c0,2.3,0.3,4.2,1,5.9c0.7,1.7,1.7,2.9,3.1,3.8c1.4,0.8,2.9,1.2,4.5,1.2
				c2,0,3.6-0.6,5-1.7C2099.9,373.6,2100.8,371.9,2101.3,369.7z"/>
			<path class="st9" d="M2121.3,379v-2.8c-1.5,2.2-3.5,3.3-6.1,3.3c-1.1,0-2.2-0.2-3.2-0.7c-1-0.4-1.7-1-2.2-1.6
				c-0.5-0.7-0.8-1.5-1-2.4c-0.1-0.6-0.2-1.7-0.2-3v-11.9h3.3v10.6c0,1.7,0.1,2.8,0.2,3.4c0.2,0.9,0.6,1.5,1.3,2
				c0.7,0.5,1.5,0.7,2.5,0.7c1,0,1.9-0.2,2.7-0.7s1.5-1.2,1.8-2c0.4-0.9,0.5-2.1,0.5-3.7v-10.3h3.3V379H2121.3z"/>
			<path class="st9" d="M2129.3,379v-19.2h2.9v2.7c0.6-0.9,1.4-1.7,2.4-2.3c1-0.6,2.1-0.9,3.4-0.9c1.4,0,2.6,0.3,3.5,0.9
				c0.9,0.6,1.6,1.4,1.9,2.5c1.5-2.2,3.5-3.4,5.9-3.4c1.9,0,3.4,0.5,4.4,1.6c1,1.1,1.5,2.7,1.5,4.9V379h-3.2v-12.1
				c0-1.3-0.1-2.2-0.3-2.8c-0.2-0.6-0.6-1-1.1-1.4c-0.6-0.3-1.2-0.5-2-0.5c-1.3,0-2.5,0.4-3.4,1.3c-0.9,0.9-1.3,2.3-1.3,4.3V379
				h-3.3v-12.5c0-1.4-0.3-2.5-0.8-3.3c-0.5-0.7-1.4-1.1-2.6-1.1c-0.9,0-1.8,0.2-2.5,0.7c-0.8,0.5-1.3,1.2-1.7,2.1
				c-0.3,0.9-0.5,2.3-0.5,4v10H2129.3z"/>
			<path class="st9" d="M2172.7,379v-2.8c-1.5,2.2-3.5,3.3-6.1,3.3c-1.1,0-2.2-0.2-3.2-0.7c-1-0.4-1.7-1-2.2-1.6
				c-0.5-0.7-0.8-1.5-1-2.4c-0.1-0.6-0.2-1.7-0.2-3v-11.9h3.3v10.6c0,1.7,0.1,2.8,0.2,3.4c0.2,0.9,0.6,1.5,1.3,2
				c0.7,0.5,1.5,0.7,2.5,0.7s1.9-0.2,2.7-0.7c0.9-0.5,1.5-1.2,1.8-2c0.4-0.9,0.5-2.1,0.5-3.7v-10.3h3.3V379H2172.7z"/>
			<path class="st9" d="M2180.6,379v-26.5h3.3V379H2180.6z"/>
			<path class="st9" d="M2201.4,376.6c-1.2,1-2.4,1.7-3.5,2.2c-1.1,0.4-2.3,0.6-3.6,0.6c-2.1,0-3.7-0.5-4.9-1.5
				c-1.1-1-1.7-2.3-1.7-3.9c0-0.9,0.2-1.8,0.6-2.6c0.4-0.8,1-1.4,1.7-1.9s1.5-0.8,2.3-1.1c0.6-0.2,1.6-0.3,2.9-0.5
				c2.6-0.3,4.6-0.7,5.8-1.1c0-0.4,0-0.7,0-0.8c0-1.3-0.3-2.3-0.9-2.8c-0.8-0.7-2.1-1.1-3.7-1.1c-1.5,0-2.7,0.3-3.4,0.8
				c-0.7,0.5-1.3,1.5-1.6,2.8l-3.2-0.4c0.3-1.4,0.8-2.5,1.4-3.3c0.7-0.8,1.6-1.5,2.9-1.9c1.3-0.5,2.7-0.7,4.4-0.7c1.6,0,3,0.2,4,0.6
				c1,0.4,1.8,0.9,2.3,1.5c0.5,0.6,0.8,1.3,1,2.2c0.1,0.6,0.2,1.6,0.2,3v4.3c0,3,0.1,4.9,0.2,5.7c0.1,0.8,0.4,1.6,0.8,2.3h-3.4
				C2201.7,378.3,2201.5,377.5,2201.4,376.6z M2201.1,369.4c-1.2,0.5-3,0.9-5.3,1.2c-1.3,0.2-2.3,0.4-2.8,0.7
				c-0.6,0.2-1,0.6-1.3,1.1s-0.5,1-0.5,1.5c0,0.9,0.3,1.6,1,2.2s1.6,0.9,2.9,0.9c1.3,0,2.4-0.3,3.3-0.8c1-0.5,1.7-1.3,2.1-2.2
				c0.3-0.7,0.5-1.8,0.5-3.3V369.4z"/>
			<path class="st9" d="M2216.6,376.1l0.5,2.9c-0.9,0.2-1.7,0.3-2.5,0.3c-1.2,0-2.1-0.2-2.7-0.6c-0.7-0.4-1.1-0.9-1.4-1.5
				c-0.3-0.6-0.4-1.9-0.4-3.8v-11h-2.4v-2.5h2.4v-4.8l3.2-2v6.7h3.3v2.5h-3.3v11.2c0,0.9,0.1,1.5,0.2,1.8c0.1,0.3,0.3,0.5,0.6,0.6
				c0.3,0.2,0.6,0.2,1.1,0.2C2215.5,376.2,2216,376.2,2216.6,376.1z"/>
			<path class="st9" d="M2219.8,356.3v-3.7h3.3v3.7H2219.8z M2219.8,379v-19.2h3.3V379H2219.8z"/>
			<path class="st9" d="M2233.3,379l-7.3-19.2h3.4l4.1,11.5c0.4,1.2,0.9,2.5,1.2,3.9c0.3-1,0.7-2.2,1.2-3.6l4.3-11.7h3.3l-7.3,19.2
				H2233.3z"/>
			<path class="st9" d="M2259.6,372.8l3.4,0.4c-0.5,2-1.5,3.5-2.9,4.6c-1.4,1.1-3.3,1.6-5.5,1.6c-2.8,0-5-0.9-6.7-2.6
				c-1.6-1.7-2.5-4.2-2.5-7.3c0-3.2,0.8-5.7,2.5-7.5s3.8-2.7,6.5-2.7c2.6,0,4.7,0.9,6.3,2.6c1.6,1.7,2.4,4.2,2.4,7.4
				c0,0.2,0,0.5,0,0.9h-14.3c0.1,2.1,0.7,3.7,1.8,4.8c1.1,1.1,2.4,1.7,4,1.7c1.2,0,2.2-0.3,3.1-0.9
				C2258.4,375.2,2259.1,374.2,2259.6,372.8z M2248.9,367.6h10.7c-0.1-1.6-0.6-2.8-1.2-3.6c-1-1.3-2.4-1.9-4-1.9
				c-1.5,0-2.7,0.5-3.8,1.5C2249.6,364.6,2249,365.9,2248.9,367.6z"/>
			<path class="st9" d="M2269.2,386.8h-2.3c3.6-5.8,5.4-11.6,5.4-17.4c0-2.3-0.3-4.5-0.8-6.7c-0.4-1.8-1-3.5-1.7-5.2
				c-0.5-1.1-1.4-2.9-2.9-5.4h2.3c2.3,3,3.9,6.1,5,9.1c0.9,2.6,1.4,5.4,1.4,8.2c0,3.3-0.6,6.4-1.9,9.4
				C2272.5,381.9,2271,384.5,2269.2,386.8z"/>
		</g>
		<g class="st8">
			<path class="st9" d="M2782.8,319.4v-5.8h15v13.7c-1.5,1.4-3.6,2.6-6.3,3.7s-5.6,1.6-8.4,1.6c-3.6,0-6.7-0.8-9.4-2.3
				s-4.7-3.7-6-6.5s-2-5.9-2-9.2c0-3.6,0.8-6.8,2.2-9.5s3.7-4.9,6.6-6.4c2.2-1.1,4.9-1.7,8.2-1.7c4.3,0,7.6,0.9,10,2.7
				s3.9,4.3,4.6,7.4l-6.9,1.3c-0.5-1.7-1.4-3-2.7-4s-3-1.5-5-1.5c-3,0-5.4,1-7.2,2.9s-2.7,4.8-2.7,8.6c0,4.1,0.9,7.1,2.7,9.2
				s4.2,3.1,7.1,3.1c1.5,0,2.9-0.3,4.4-0.9s2.7-1.3,3.8-2.1v-4.4H2782.8z"/>
			<path class="st9" d="M2804.2,297.6h12.7c2.9,0,5,0.2,6.5,0.7c2,0.6,3.7,1.6,5.2,3.2s2.5,3.4,3.3,5.6s1.1,4.9,1.1,8.1
				c0,2.8-0.4,5.3-1.1,7.3c-0.9,2.5-2.1,4.5-3.7,6.1c-1.2,1.2-2.8,2.1-4.9,2.7c-1.5,0.5-3.6,0.7-6.1,0.7h-13.1V297.6z M2811.1,303.5
				v22.8h5.2c1.9,0,3.3-0.1,4.2-0.3c1.1-0.3,2.1-0.8,2.8-1.4s1.3-1.8,1.8-3.3s0.7-3.6,0.7-6.3s-0.2-4.7-0.7-6.1s-1.1-2.5-2-3.3
				s-1.9-1.3-3.2-1.6c-1-0.2-2.9-0.3-5.7-0.3H2811.1z"/>
			<path class="st9" d="M2838.9,332v-34.4h11.1c4.2,0,7,0.2,8.2,0.5c2,0.5,3.6,1.6,4.9,3.4s2,4,2,6.7c0,2.1-0.4,3.9-1.1,5.3
				s-1.7,2.6-2.9,3.4s-2.4,1.4-3.6,1.6c-1.7,0.3-4.1,0.5-7.2,0.5h-4.5v13H2838.9z M2845.8,303.5v9.8h3.8c2.7,0,4.6-0.2,5.5-0.5
				s1.6-0.9,2.2-1.7s0.8-1.7,0.8-2.7c0-1.2-0.4-2.3-1.1-3.1s-1.7-1.3-2.8-1.5c-0.8-0.2-2.5-0.2-5-0.2H2845.8z"/>
		</g>
		<g class="st8">
			<path class="st9" d="M2553.1,379v-26.5h9.1c2.1,0,3.6,0.1,4.7,0.4c1.5,0.3,2.8,1,3.9,1.9c1.4,1.2,2.4,2.7,3.1,4.5
				c0.7,1.8,1,3.9,1,6.3c0,2-0.2,3.8-0.7,5.3c-0.5,1.6-1.1,2.8-1.8,3.9c-0.7,1-1.5,1.8-2.4,2.4c-0.9,0.6-1.9,1-3.2,1.3
				c-1.2,0.3-2.7,0.5-4.3,0.5H2553.1z M2556.6,375.9h5.7c1.7,0,3.1-0.2,4.1-0.5c1-0.3,1.8-0.8,2.4-1.4c0.8-0.8,1.5-1.9,1.9-3.4
				c0.5-1.4,0.7-3.1,0.7-5.1c0-2.8-0.5-4.9-1.4-6.4c-0.9-1.5-2-2.5-3.3-3c-0.9-0.4-2.5-0.5-4.5-0.5h-5.6V375.9z"/>
			<path class="st9" d="M2591.9,376.6c-1.2,1-2.4,1.7-3.5,2.2c-1.1,0.4-2.3,0.6-3.6,0.6c-2.1,0-3.7-0.5-4.9-1.5
				c-1.1-1-1.7-2.3-1.7-3.9c0-0.9,0.2-1.8,0.6-2.6c0.4-0.8,1-1.4,1.7-1.9c0.7-0.5,1.5-0.8,2.3-1.1c0.6-0.2,1.6-0.3,2.9-0.5
				c2.6-0.3,4.6-0.7,5.8-1.1c0-0.4,0-0.7,0-0.8c0-1.3-0.3-2.3-0.9-2.8c-0.8-0.7-2.1-1.1-3.7-1.1c-1.5,0-2.7,0.3-3.4,0.8
				c-0.7,0.5-1.3,1.5-1.6,2.8l-3.2-0.4c0.3-1.4,0.8-2.5,1.4-3.3c0.7-0.8,1.6-1.5,2.9-1.9c1.3-0.5,2.7-0.7,4.4-0.7c1.6,0,3,0.2,4,0.6
				c1,0.4,1.8,0.9,2.3,1.5c0.5,0.6,0.8,1.3,1,2.2c0.1,0.6,0.2,1.6,0.2,3v4.3c0,3,0.1,4.9,0.2,5.7c0.1,0.8,0.4,1.6,0.8,2.3h-3.4
				C2592.2,378.3,2592,377.5,2591.9,376.6z M2591.6,369.4c-1.2,0.5-3,0.9-5.3,1.2c-1.3,0.2-2.3,0.4-2.8,0.7c-0.6,0.2-1,0.6-1.3,1.1
				c-0.3,0.5-0.5,1-0.5,1.5c0,0.9,0.3,1.6,1,2.2c0.7,0.6,1.6,0.9,2.9,0.9c1.3,0,2.4-0.3,3.3-0.8s1.7-1.3,2.1-2.2
				c0.3-0.7,0.5-1.8,0.5-3.3V369.4z"/>
			<path class="st9" d="M2600,356.3v-3.7h3.3v3.7H2600z M2600,379v-19.2h3.3V379H2600z"/>
			<path class="st9" d="M2608.1,379v-26.5h3.3V379H2608.1z"/>
			<path class="st9" d="M2616.3,386.4l-0.4-3.1c0.7,0.2,1.3,0.3,1.9,0.3c0.7,0,1.3-0.1,1.7-0.4s0.8-0.6,1.1-1c0.2-0.3,0.5-1.1,1-2.4
				c0.1-0.2,0.2-0.4,0.3-0.8l-7.3-19.2h3.5l4,11.1c0.5,1.4,1,2.9,1.4,4.4c0.4-1.5,0.8-3,1.3-4.4l4.1-11.2h3.3l-7.3,19.5
				c-0.8,2.1-1.4,3.6-1.8,4.4c-0.6,1.1-1.2,1.9-2,2.4c-0.7,0.5-1.6,0.8-2.7,0.8C2617.7,386.8,2617,386.7,2616.3,386.4z"/>
		</g>
		<g class="st8">
			<path class="st9" d="M2650,386.8c-1.8-2.3-3.3-4.9-4.6-7.9c-1.2-3-1.9-6.2-1.9-9.4c0-2.9,0.5-5.6,1.4-8.2c1.1-3,2.8-6.1,5-9.1
				h2.3c-1.5,2.5-2.4,4.3-2.9,5.4c-0.7,1.7-1.3,3.4-1.7,5.2c-0.5,2.3-0.8,4.5-0.8,6.8c0,5.8,1.8,11.6,5.4,17.4H2650z"/>
			<path class="st9" d="M2675.4,369.7l3.5,0.9c-0.7,2.9-2.1,5.1-4,6.6s-4.2,2.3-7,2.3c-2.9,0-5.2-0.6-7-1.7c-1.8-1.2-3.1-2.8-4.1-5
				c-0.9-2.2-1.4-4.6-1.4-7.1c0-2.8,0.5-5.2,1.6-7.2c1.1-2.1,2.6-3.6,4.5-4.7c1.9-1.1,4.1-1.6,6.4-1.6c2.6,0,4.9,0.7,6.7,2
				c1.8,1.3,3.1,3.2,3.8,5.7l-3.5,0.8c-0.6-1.9-1.5-3.3-2.7-4.2s-2.6-1.3-4.4-1.3c-2,0-3.7,0.5-5.1,1.5s-2.3,2.3-2.9,3.9
				c-0.6,1.6-0.8,3.3-0.8,5.1c0,2.3,0.3,4.2,1,5.9c0.7,1.7,1.7,2.9,3.1,3.8s2.9,1.2,4.5,1.2c2,0,3.6-0.6,5-1.7
				C2674,373.6,2674.9,371.9,2675.4,369.7z"/>
			<path class="st9" d="M2681.6,369.4c0-3.6,1-6.2,3-7.9c1.7-1.4,3.7-2.1,6-2.1c2.6,0,4.8,0.9,6.5,2.6s2.5,4.1,2.5,7.2
				c0,2.5-0.4,4.4-1.1,5.8c-0.7,1.4-1.8,2.5-3.2,3.3c-1.4,0.8-3,1.2-4.6,1.2c-2.7,0-4.9-0.9-6.5-2.6
				C2682.4,375.1,2681.6,372.6,2681.6,369.4z M2684.9,369.4c0,2.5,0.5,4.3,1.6,5.5c1.1,1.2,2.4,1.8,4,1.8c1.6,0,3-0.6,4-1.8
				c1.1-1.2,1.6-3.1,1.6-5.6c0-2.4-0.5-4.2-1.6-5.4c-1.1-1.2-2.4-1.8-4-1.8c-1.6,0-3,0.6-4,1.8
				C2685.5,365.1,2684.9,366.9,2684.9,369.4z"/>
			<path class="st9" d="M2703.4,379v-19.2h2.9v2.7c0.6-0.9,1.4-1.7,2.4-2.3s2.1-0.9,3.4-0.9c1.4,0,2.6,0.3,3.5,0.9
				c0.9,0.6,1.5,1.4,1.9,2.5c1.5-2.2,3.5-3.4,5.9-3.4c1.9,0,3.4,0.5,4.4,1.6s1.5,2.7,1.5,4.9V379h-3.2v-12.1c0-1.3-0.1-2.2-0.3-2.8
				s-0.6-1-1.1-1.4c-0.6-0.3-1.2-0.5-2-0.5c-1.3,0-2.5,0.4-3.4,1.3c-0.9,0.9-1.3,2.3-1.3,4.3V379h-3.3v-12.5c0-1.4-0.3-2.5-0.8-3.3
				s-1.4-1.1-2.6-1.1c-0.9,0-1.8,0.2-2.5,0.7c-0.8,0.5-1.3,1.2-1.7,2.1c-0.3,0.9-0.5,2.3-0.5,4v10H2703.4z"/>
			<path class="st9" d="M2734.2,386.4v-26.5h3v2.5c0.7-1,1.5-1.7,2.4-2.2c0.9-0.5,1.9-0.7,3.2-0.7c1.6,0,3.1,0.4,4.3,1.3
				c1.3,0.8,2.2,2,2.8,3.6c0.6,1.5,1,3.2,1,5c0,2-0.4,3.7-1.1,5.3c-0.7,1.6-1.7,2.8-3.1,3.6c-1.3,0.8-2.8,1.3-4.2,1.3
				c-1.1,0-2.1-0.2-2.9-0.7s-1.6-1-2.1-1.7v9.3H2734.2z M2737.2,369.5c0,2.5,0.5,4.3,1.5,5.5c1,1.2,2.2,1.8,3.6,1.8
				c1.4,0,2.7-0.6,3.7-1.8c1-1.2,1.5-3.1,1.5-5.7c0-2.4-0.5-4.3-1.5-5.5c-1-1.2-2.2-1.8-3.6-1.8c-1.4,0-2.6,0.6-3.7,1.9
				C2737.7,365.2,2737.2,367,2737.2,369.5z"/>
			<path class="st9" d="M2767.3,376.6c-1.2,1-2.4,1.7-3.5,2.2c-1.1,0.4-2.3,0.6-3.6,0.6c-2.1,0-3.7-0.5-4.9-1.5
				c-1.1-1-1.7-2.3-1.7-3.9c0-0.9,0.2-1.8,0.6-2.6c0.4-0.8,1-1.4,1.7-1.9c0.7-0.5,1.5-0.8,2.3-1.1c0.6-0.2,1.6-0.3,2.9-0.5
				c2.6-0.3,4.6-0.7,5.8-1.1c0-0.4,0-0.7,0-0.8c0-1.3-0.3-2.3-0.9-2.8c-0.8-0.7-2.1-1.1-3.7-1.1c-1.5,0-2.7,0.3-3.4,0.8
				c-0.7,0.5-1.3,1.5-1.6,2.8l-3.2-0.4c0.3-1.4,0.8-2.5,1.4-3.3c0.7-0.8,1.6-1.5,2.9-1.9c1.3-0.5,2.7-0.7,4.4-0.7c1.6,0,3,0.2,4,0.6
				c1,0.4,1.8,0.9,2.3,1.5c0.5,0.6,0.8,1.3,1,2.2c0.1,0.6,0.2,1.6,0.2,3v4.3c0,3,0.1,4.9,0.2,5.7c0.1,0.8,0.4,1.6,0.8,2.3h-3.4
				C2767.6,378.3,2767.4,377.5,2767.3,376.6z M2767,369.4c-1.2,0.5-3,0.9-5.3,1.2c-1.3,0.2-2.3,0.4-2.8,0.7c-0.6,0.2-1,0.6-1.3,1.1
				s-0.5,1-0.5,1.5c0,0.9,0.3,1.6,1,2.2s1.6,0.9,2.9,0.9c1.3,0,2.4-0.3,3.3-0.8s1.7-1.3,2.1-2.2c0.3-0.7,0.5-1.8,0.5-3.3V369.4z"/>
			<path class="st9" d="M2775.3,379v-19.2h2.9v2.9c0.7-1.4,1.4-2.3,2.1-2.7c0.6-0.4,1.3-0.7,2.1-0.7c1.1,0,2.2,0.3,3.3,1l-1.1,3
				c-0.8-0.5-1.6-0.7-2.4-0.7c-0.7,0-1.3,0.2-1.9,0.6c-0.6,0.4-1,1-1.2,1.8c-0.4,1.2-0.5,2.4-0.5,3.8v10H2775.3z"/>
			<path class="st9" d="M2800.8,372.8l3.4,0.4c-0.5,2-1.5,3.5-2.9,4.6c-1.4,1.1-3.3,1.6-5.5,1.6c-2.8,0-5-0.9-6.7-2.6
				c-1.6-1.7-2.5-4.2-2.5-7.3c0-3.2,0.8-5.7,2.5-7.5s3.8-2.7,6.5-2.7c2.6,0,4.7,0.9,6.3,2.6c1.6,1.7,2.4,4.2,2.4,7.4
				c0,0.2,0,0.5,0,0.9H2790c0.1,2.1,0.7,3.7,1.8,4.8c1.1,1.1,2.4,1.7,4,1.7c1.2,0,2.2-0.3,3.1-0.9
				C2799.7,375.2,2800.3,374.2,2800.8,372.8z M2790.1,367.6h10.7c-0.1-1.6-0.6-2.8-1.2-3.6c-1-1.3-2.4-1.9-4-1.9
				c-1.5,0-2.8,0.5-3.8,1.5C2790.8,364.6,2790.3,365.9,2790.1,367.6z"/>
			<path class="st9" d="M2820.7,379v-2.4c-1.2,1.9-3,2.9-5.4,2.9c-1.5,0-2.9-0.4-4.2-1.3s-2.3-2-3-3.5c-0.7-1.5-1.1-3.2-1.1-5.2
				c0-1.9,0.3-3.7,1-5.2s1.6-2.8,2.9-3.6c1.3-0.8,2.7-1.2,4.3-1.2c1.2,0,2.2,0.2,3.1,0.7c0.9,0.5,1.6,1.1,2.2,1.9v-9.5h3.2V379
				H2820.7z M2810.4,369.4c0,2.5,0.5,4.3,1.6,5.5c1,1.2,2.3,1.8,3.7,1.8c1.4,0,2.6-0.6,3.6-1.7s1.5-2.9,1.5-5.3
				c0-2.6-0.5-4.6-1.5-5.8s-2.3-1.8-3.7-1.8c-1.4,0-2.7,0.6-3.6,1.8C2810.9,365,2810.4,366.9,2810.4,369.4z"/>
			<path class="st9" d="M2846.2,376.1l0.5,2.9c-0.9,0.2-1.7,0.3-2.5,0.3c-1.2,0-2.1-0.2-2.7-0.6c-0.7-0.4-1.1-0.9-1.4-1.5
				c-0.3-0.6-0.4-1.9-0.4-3.8v-11h-2.4v-2.5h2.4v-4.8l3.2-2v6.7h3.3v2.5h-3.3v11.2c0,0.9,0.1,1.5,0.2,1.8c0.1,0.3,0.3,0.5,0.6,0.6
				c0.3,0.2,0.6,0.2,1.1,0.2C2845.2,376.2,2845.6,376.2,2846.2,376.1z"/>
			<path class="st9" d="M2848.2,369.4c0-3.6,1-6.2,3-7.9c1.6-1.4,3.7-2.1,6-2.1c2.6,0,4.8,0.9,6.5,2.6c1.7,1.7,2.5,4.1,2.5,7.2
				c0,2.5-0.4,4.4-1.1,5.8c-0.7,1.4-1.8,2.5-3.2,3.3c-1.4,0.8-3,1.2-4.6,1.2c-2.7,0-4.9-0.9-6.5-2.6
				C2849,375.1,2848.2,372.6,2848.2,369.4z M2851.5,369.4c0,2.5,0.5,4.3,1.6,5.5c1.1,1.2,2.4,1.8,4,1.8c1.6,0,3-0.6,4-1.8
				c1.1-1.2,1.6-3.1,1.6-5.6c0-2.4-0.5-4.2-1.6-5.4c-1.1-1.2-2.4-1.8-4-1.8c-1.6,0-3,0.6-4,1.8S2851.5,366.9,2851.5,369.4z"/>
			<path class="st9" d="M2880.3,386.4v-26.5h3v2.5c0.7-1,1.5-1.7,2.4-2.2c0.9-0.5,1.9-0.7,3.2-0.7c1.6,0,3.1,0.4,4.3,1.3
				c1.3,0.8,2.2,2,2.8,3.6c0.6,1.5,1,3.2,1,5c0,2-0.4,3.7-1.1,5.3c-0.7,1.6-1.7,2.8-3.1,3.6c-1.3,0.8-2.8,1.3-4.2,1.3
				c-1.1,0-2.1-0.2-2.9-0.7s-1.6-1-2.1-1.7v9.3H2880.3z M2883.2,369.5c0,2.5,0.5,4.3,1.5,5.5c1,1.2,2.2,1.8,3.6,1.8
				c1.4,0,2.7-0.6,3.7-1.8c1-1.2,1.5-3.1,1.5-5.7c0-2.4-0.5-4.3-1.5-5.5c-1-1.2-2.2-1.8-3.6-1.8c-1.4,0-2.6,0.6-3.7,1.9
				C2883.7,365.2,2883.2,367,2883.2,369.5z"/>
			<path class="st9" d="M2900.8,379v-19.2h2.9v2.9c0.7-1.4,1.4-2.3,2.1-2.7s1.3-0.7,2.1-0.7c1.1,0,2.2,0.3,3.3,1l-1.1,3
				c-0.8-0.5-1.6-0.7-2.4-0.7c-0.7,0-1.3,0.2-1.9,0.6c-0.6,0.4-1,1-1.2,1.8c-0.4,1.2-0.5,2.4-0.5,3.8v10H2900.8z"/>
			<path class="st9" d="M2926.3,372.8l3.4,0.4c-0.5,2-1.5,3.5-2.9,4.6s-3.3,1.6-5.5,1.6c-2.8,0-5-0.9-6.7-2.6
				c-1.6-1.7-2.5-4.2-2.5-7.3c0-3.2,0.8-5.7,2.5-7.5s3.8-2.7,6.5-2.7c2.6,0,4.7,0.9,6.3,2.6c1.6,1.7,2.4,4.2,2.4,7.4
				c0,0.2,0,0.5,0,0.9h-14.3c0.1,2.1,0.7,3.7,1.8,4.8c1.1,1.1,2.4,1.7,4,1.7c1.2,0,2.2-0.3,3.1-0.9S2925.8,374.2,2926.3,372.8z
				 M2915.6,367.6h10.7c-0.1-1.6-0.6-2.8-1.2-3.6c-1-1.3-2.4-1.9-4-1.9c-1.5,0-2.7,0.5-3.8,1.5
				C2916.3,364.6,2915.7,365.9,2915.6,367.6z"/>
		</g>
		<text transform="matrix(1 0 0 1 2930.656 379)" class="st9 st10 st11">-</text>
		<g class="st8">
			<path class="st9" d="M2973,369.7l3.5,0.9c-0.7,2.9-2.1,5.1-4,6.6s-4.2,2.3-7,2.3c-2.9,0-5.2-0.6-7-1.7c-1.8-1.2-3.2-2.8-4.1-5
				c-0.9-2.2-1.4-4.6-1.4-7.1c0-2.8,0.5-5.2,1.6-7.2c1.1-2.1,2.6-3.6,4.5-4.7c1.9-1.1,4.1-1.6,6.4-1.6c2.6,0,4.9,0.7,6.7,2
				c1.8,1.3,3.1,3.2,3.8,5.7l-3.5,0.8c-0.6-1.9-1.5-3.3-2.7-4.2c-1.2-0.9-2.6-1.3-4.4-1.3c-2,0-3.7,0.5-5.1,1.5
				c-1.4,1-2.3,2.3-2.9,3.9c-0.6,1.6-0.8,3.3-0.8,5.1c0,2.3,0.3,4.2,1,5.9c0.7,1.7,1.7,2.9,3.1,3.8c1.4,0.8,2.9,1.2,4.5,1.2
				c2,0,3.6-0.6,5-1.7C2971.6,373.6,2972.6,371.9,2973,369.7z"/>
			<path class="st9" d="M2979.8,366.1c0-4.4,1.2-7.8,3.5-10.3c2.4-2.5,5.4-3.7,9.1-3.7c2.4,0,4.6,0.6,6.6,1.8c2,1.2,3.5,2.8,4.5,4.9
				c1,2.1,1.5,4.5,1.5,7.1c0,2.7-0.5,5.1-1.6,7.2s-2.6,3.7-4.6,4.8c-2,1.1-4.1,1.6-6.4,1.6c-2.5,0-4.7-0.6-6.7-1.8
				c-2-1.2-3.5-2.8-4.5-4.9S2979.8,368.4,2979.8,366.1z M2983.4,366.2c0,3.2,0.9,5.7,2.6,7.5c1.7,1.8,3.9,2.8,6.5,2.8
				c2.6,0,4.8-0.9,6.5-2.8c1.7-1.9,2.6-4.5,2.6-7.9c0-2.2-0.4-4-1.1-5.6c-0.7-1.6-1.8-2.9-3.2-3.7c-1.4-0.9-3-1.3-4.7-1.3
				c-2.5,0-4.6,0.9-6.4,2.6C2984.3,359.3,2983.4,362.2,2983.4,366.2z"/>
			<path class="st9" d="M3017.2,379l-10.3-26.5h3.8l6.9,19.2c0.6,1.5,1,3,1.4,4.3c0.4-1.4,0.9-2.9,1.4-4.3l7.2-19.2h3.6l-10.4,26.5
				H3017.2z"/>
			<path class="st9" d="M3034.9,379v-26.5h3.5V379H3034.9z"/>
			<path class="st9" d="M3044.6,379v-26.5h9.1c2.1,0,3.6,0.1,4.7,0.4c1.5,0.3,2.8,1,3.9,1.9c1.4,1.2,2.4,2.7,3.1,4.5
				c0.7,1.8,1,3.9,1,6.3c0,2-0.2,3.8-0.7,5.3c-0.5,1.6-1.1,2.8-1.8,3.9c-0.7,1-1.5,1.8-2.4,2.4s-1.9,1-3.2,1.3
				c-1.2,0.3-2.7,0.5-4.3,0.5H3044.6z M3048.1,375.9h5.7c1.7,0,3.1-0.2,4.1-0.5c1-0.3,1.8-0.8,2.4-1.4c0.8-0.8,1.5-1.9,1.9-3.4
				c0.5-1.4,0.7-3.1,0.7-5.1c0-2.8-0.5-4.9-1.4-6.4c-0.9-1.5-2-2.5-3.3-3c-0.9-0.4-2.5-0.5-4.5-0.5h-5.6V375.9z"/>
			<path class="st9" d="M3073,386.8h-2.3c3.6-5.8,5.4-11.6,5.4-17.4c0-2.3-0.3-4.5-0.8-6.7c-0.4-1.8-1-3.5-1.7-5.2
				c-0.5-1.1-1.4-2.9-2.9-5.4h2.3c2.3,3,3.9,6.1,5,9.1c0.9,2.6,1.4,5.4,1.4,8.2c0,3.3-0.6,6.4-1.9,9.4
				C3076.3,381.9,3074.8,384.5,3073,386.8z"/>
		</g>
	</g>
</g>
</svg>
