<svg width="2931" height="1096" xmlns="http://www.w3.org/2000/svg" xmlns:xlink="http://www.w3.org/1999/xlink" overflow="hidden"><defs><clipPath id="clip0"><rect x="197" y="530" width="2931" height="1096"/></clipPath></defs><g clip-path="url(#clip0)" transform="translate(-197 -530)"><rect x="209.5" y="540.5" width="2882" height="1081" stroke="#7F7F7F" stroke-width="4.58333" stroke-miterlimit="8" fill="none"/><text font-family="KoPubDotum Bold,KoPubDotum Bold_MSFontService,sans-serif" font-weight="700" font-size="83" transform="matrix(1 0 0 1 255.719 1487)">Current Status<tspan font-family="KoPubDotum Light,KoPubDotum Light_MSFontService,sans-serif" font-weight="300" font-size="55" x="0" y="74">Number of people by stage</tspan></text><rect x="203" y="540" width="2888" height="412" fill="#255DF0"/><rect x="209" y="539" width="1241" height="133" fill="#0F3AA8"/><text fill="#FFFFFF" font-family="KoPubDotum Bold,KoPubDotum Bold_MSFontService,sans-serif" font-weight="700" font-size="83" transform="matrix(1 0 0 1 1920.75 631)">Known Information<tspan font-size="73" x="-1612.79" y="135">Latent period</tspan><tspan fill="#255DF0" font-family="KoPubDotum Light,KoPubDotum Light_MSFontService,sans-serif" font-weight="300" font-size="83" x="-1540.59" y="256">9~10 </tspan><tspan font-family="KoPubDotum Light,KoPubDotum Light_MSFontService,sans-serif" font-weight="300" font-size="50" x="-1333.77" y="256">days</tspan><tspan font-size="73" x="-930.126" y="139">Infectious period</tspan><tspan fill="#255DF0" font-family="KoPubDotum Light,KoPubDotum Light_MSFontService,sans-serif" font-weight="300" font-size="83" x="-809.538" y="256">9~10</tspan><tspan font-family="KoPubDotum Light,KoPubDotum Light_MSFontService,sans-serif" font-weight="300" font-size="50" x="-602.716" y="256">days</tspan><tspan font-size="73" x="-101.484" y="142">Infection rate</tspan><tspan fill="#255DF0" font-family="KoPubDotum Light,KoPubDotum Light_MSFontService,sans-serif" font-weight="300" font-size="83" x="56.3103" y="260">14%</tspan><tspan font-size="73" x="713.453" y="146">Severity</tspan><tspan font-size="49" x="980.684" y="124">*</tspan><tspan fill="#255DF0" font-family="KoPubDotum Light,KoPubDotum Light_MSFontService,sans-serif" font-weight="300" font-size="83" x="775.454" y="263">30%</tspan><tspan fill="#000000" font-family="KoPubDotum Light,KoPubDotum Light_MSFontService,sans-serif" font-weight="300" font-size="49" x="-1666.75" y="385">* The proportion of severe cases among patients, which may vary by age group.</tspan></text><path d="M542.5 1162.21 619.235 1162.21 619.235 1166.79 542.5 1166.79ZM614.652 1150.75 642.152 1164.5 614.652 1178.25Z" fill="#1767FF" fill-opacity="0.8"/><path d="M959.5 1162.21 1036.24 1162.21 1036.24 1166.79 959.5 1166.79ZM1031.65 1150.75 1059.15 1164.5 1031.65 1178.25Z" fill="#1767FF" fill-opacity="0.8"/><path d="M1375.5 1162.21 1452.24 1162.21 1452.24 1166.79 1375.5 1166.79ZM1447.65 1150.75 1475.15 1164.5 1447.65 1178.25Z" fill="#1767FF" fill-opacity="0.8"/><path d="M1.69663-1.54051 102.17 109.115 98.7768 112.196-1.69663 1.54051ZM107.572 98.019 115.879 127.622 87.2126 116.505Z" fill="#1767FF" fill-opacity="0.8" transform="matrix(1 0 0 -1 2642.5 1292.12)"/><path d="M1794.31 1163.09 1880.03 1272.66 1876.42 1275.48 1790.7 1165.91ZM1886.23 1261.99 1892.34 1292.12 1864.57 1278.93Z" fill="#1767FF" fill-opacity="0.8"/><text fill="#595959" font-family="KoPubDotum Bold,KoPubDotum Bold_MSFontService,sans-serif" font-weight="700" font-size="50" transform="matrix(1 0 0 1 267.559 1294)">Uninfected<tspan font-size="50" x="409.616" y="0">Latent</tspan><tspan font-size="50" x="568.887" y="0">E1</tspan><tspan font-family="KoPubDotum Light,KoPubDotum Light_MSFontService,sans-serif" font-weight="300" font-size="41" x="370.085" y="52">(not contagious)</tspan><tspan font-size="50" x="832.005" y="0">Latent </tspan><tspan font-size="50" x="991.276" y="0">E2</tspan><tspan font-family="KoPubDotum Light,KoPubDotum Light_MSFontService,sans-serif" font-weight="300" font-size="41" x="828.567" y="52">(contagious)</tspan><tspan font-size="50" x="1201.91" y="0">Infected,</tspan><tspan font-size="50" x="1418.47" y="0">light</tspan><tspan font-family="KoPubDotum Light,KoPubDotum Light_MSFontService,sans-serif" font-weight="300" font-size="41" x="1245.45" y="52">(contagious)</tspan><tspan font-size="50" x="1611.68" y="126">Infected,</tspan><tspan font-size="50" x="1828.24" y="126">severe</tspan><tspan font-family="KoPubDotum Light,KoPubDotum Light_MSFontService,sans-serif" font-weight="300" font-size="41" x="1647.2" y="178">(not contagious)</tspan></text><path d="M2208.5 1290.21 2302.12 1290.21 2302.12 1294.79 2208.5 1294.79ZM2297.54 1278.75 2325.04 1292.5 2297.54 1306.25Z" fill="#1767FF" fill-opacity="0.8"/><path d="M2310.5 1448.21 2734.48 1448.21 2734.48 1452.79 2310.5 1452.79ZM2729.9 1436.75 2757.4 1450.5 2729.9 1464.25Z" fill="#1767FF" fill-opacity="0.8"/><path d="M1792.5 1162.21 2735.41 1162.21 2735.41 1166.79 1792.5 1166.79ZM2730.83 1150.75 2758.33 1164.5 2730.83 1178.25Z" fill="#1767FF" fill-opacity="0.8"/><text fill="#595959" font-family="KoPubDotum Bold,KoPubDotum Bold_MSFontService,sans-serif" font-weight="700" font-size="50" transform="matrix(1 0 0 1 2800.35 1299)">Recovered<tspan font-size="50" x="61.5886" y="282">Dead</tspan><tspan font-size="50" x="-348.832" y="117">ICU</tspan></text><path d="M2208.5 1292.5 2310.8 1450.38" stroke="#1767FF" stroke-width="4.58333" stroke-miterlimit="8" stroke-opacity="0.8" fill="none" fill-rule="evenodd"/><rect x="280" y="1093" width="150" height="142" fill="#98E294"/><path d="M225 1164C225 1124.79 250.072 1093 281 1093 311.928 1093 337 1124.79 337 1164 337 1203.21 311.928 1235 281 1235 250.072 1235 225 1203.21 225 1164Z" fill="#98E294" fill-rule="evenodd"/><text fill="#FFFFFF" font-family="KoPubDotum Bold,KoPubDotum Bold_MSFontService,sans-serif" font-weight="700" font-size="83" transform="matrix(1 0 0 1 246.556 1191)">S</text><path d="M310 1132.21C310 1110.56 327.557 1093 349.215 1093L502.785 1093C524.443 1093 542 1110.56 542 1132.21L542 1195.79C542 1217.44 524.443 1235 502.785 1235L349.215 1235C327.557 1235 310 1217.44 310 1195.79Z" fill="#98E294" fill-rule="evenodd"/><path d="M315 1136.69C315 1118.08 330.084 1103 348.691 1103L502.309 1103C520.916 1103 536 1118.08 536 1136.69L536 1191.31C536 1209.92 520.916 1225 502.309 1225L348.691 1225C330.084 1225 315 1209.92 315 1191.31Z" fill="#FFFFFF" fill-rule="evenodd"/><rect x="697" y="1093" width="150" height="142" fill="#FFE054"/><path d="M642 1164C642 1124.79 667.072 1093 698 1093 728.928 1093 754 1124.79 754 1164 754 1203.21 728.928 1235 698 1235 667.072 1235 642 1203.21 642 1164Z" fill="#FFE054" fill-rule="evenodd"/><text fill="#FFFFFF" font-family="KoPubDotum Bold,KoPubDotum Bold_MSFontService,sans-serif" font-weight="700" font-size="83" transform="matrix(1 0 0 1 662.707 1191)">E</text><path d="M727 1132.21C727 1110.56 744.557 1093 766.215 1093L919.785 1093C941.443 1093 959 1110.56 959 1132.21L959 1195.79C959 1217.44 941.443 1235 919.785 1235L766.215 1235C744.557 1235 727 1217.44 727 1195.79Z" fill="#FFE054" fill-rule="evenodd"/><path d="M731 1136.69C731 1118.08 746.084 1103 764.692 1103L918.309 1103C936.916 1103 952 1118.08 952 1136.69L952 1191.31C952 1209.92 936.916 1225 918.309 1225L764.692 1225C746.084 1225 731 1209.92 731 1191.31Z" fill="#FFFFFF" fill-rule="evenodd"/><rect x="1113" y="1093" width="150" height="142" fill="#FF9900"/><path d="M1058 1164C1058 1124.79 1083.07 1093 1114 1093 1144.93 1093 1170 1124.79 1170 1164 1170 1203.21 1144.93 1235 1114 1235 1083.07 1235 1058 1203.21 1058 1164Z" fill="#FF9900" fill-rule="evenodd"/><text fill="#FFFFFF" font-family="KoPubDotum Bold,KoPubDotum Bold_MSFontService,sans-serif" font-weight="700" font-size="83" transform="matrix(1 0 0 1 1079.15 1191)">E</text><path d="M1143 1132.21C1143 1110.56 1160.56 1093 1182.21 1093L1335.79 1093C1357.44 1093 1375 1110.56 1375 1132.21L1375 1195.79C1375 1217.44 1357.44 1235 1335.79 1235L1182.21 1235C1160.56 1235 1143 1217.44 1143 1195.79Z" fill="#FF9900" fill-rule="evenodd"/><path d="M1148 1136.69C1148 1118.08 1163.08 1103 1181.69 1103L1335.31 1103C1353.92 1103 1369 1118.08 1369 1136.69L1369 1191.31C1369 1209.92 1353.92 1225 1335.31 1225L1181.69 1225C1163.08 1225 1148 1209.92 1148 1191.31Z" fill="#FFFFFF" fill-rule="evenodd"/><rect x="1530" y="1093" width="150" height="142" fill="#C00000"/><path d="M1475 1164C1475 1124.79 1500.07 1093 1531 1093 1561.93 1093 1587 1124.79 1587 1164 1587 1203.21 1561.93 1235 1531 1235 1500.07 1235 1475 1203.21 1475 1164Z" fill="#C00000" fill-rule="evenodd"/><text fill="#FFFFFF" font-family="KoPubDotum Bold,KoPubDotum Bold_MSFontService,sans-serif" font-weight="700" font-size="83" transform="matrix(1 0 0 1 1509.05 1191)">I</text><path d="M1559 1132.21C1559 1110.56 1576.56 1093 1598.21 1093L1752.79 1093C1774.44 1093 1792 1110.56 1792 1132.21L1792 1195.79C1792 1217.44 1774.44 1235 1752.79 1235L1598.21 1235C1576.56 1235 1559 1217.44 1559 1195.79Z" fill="#C00000" fill-rule="evenodd"/><path d="M1564 1136.69C1564 1118.08 1579.08 1103 1597.69 1103L1751.31 1103C1769.92 1103 1785 1118.08 1785 1136.69L1785 1191.31C1785 1209.92 1769.92 1225 1751.31 1225L1597.69 1225C1579.08 1225 1564 1209.92 1564 1191.31Z" fill="#FFFFFF" fill-rule="evenodd"/><rect x="1946" y="1221" width="150" height="141" fill="#FF00FF"/><path d="M1891 1291.5C1891 1252.56 1916.07 1221 1947 1221 1977.93 1221 2003 1252.56 2003 1291.5 2003 1330.44 1977.93 1362 1947 1362 1916.07 1362 1891 1330.44 1891 1291.5Z" fill="#FF00FF" fill-rule="evenodd"/><text fill="#FFFFFF" font-family="KoPubDotum Bold,KoPubDotum Bold_MSFontService,sans-serif" font-weight="700" font-size="83" transform="matrix(1 0 0 1 1925.67 1318)">I</text><path d="M1976 1259.94C1976 1238.43 1993.43 1221 2014.94 1221L2169.06 1221C2190.57 1221 2208 1238.43 2208 1259.94L2208 1323.06C2208 1344.57 2190.57 1362 2169.06 1362L2014.94 1362C1993.43 1362 1976 1344.57 1976 1323.06Z" fill="#FF00FF" fill-rule="evenodd"/><path d="M1981 1263.97C1981 1245.21 1996.21 1230 2014.97 1230L2168.03 1230C2186.79 1230 2202 1245.21 2202 1263.97L2202 1319.03C2202 1337.79 2186.79 1353 2168.03 1353L2014.97 1353C1996.21 1353 1981 1337.79 1981 1319.03Z" fill="#FFFFFF" fill-rule="evenodd"/><rect x="2380" y="1221" width="150" height="141" fill="#5260D0"/><path d="M2325 1291.5C2325 1252.56 2350.07 1221 2381 1221 2411.93 1221 2437 1252.56 2437 1291.5 2437 1330.44 2411.93 1362 2381 1362 2350.07 1362 2325 1330.44 2325 1291.5Z" fill="#5260D0" fill-rule="evenodd"/><text fill="#FFFFFF" font-family="KoPubDotum Bold,KoPubDotum Bold_MSFontService,sans-serif" font-weight="700" font-size="83" transform="matrix(1 0 0 1 2341.23 1318)">H</text><path d="M2409 1259.94C2409 1238.43 2426.43 1221 2447.94 1221L2603.06 1221C2624.57 1221 2642 1238.43 2642 1259.94L2642 1323.06C2642 1344.57 2624.57 1362 2603.06 1362L2447.94 1362C2426.43 1362 2409 1344.57 2409 1323.06Z" fill="#5260D0" fill-rule="evenodd"/><path d="M2415 1263.97C2415 1245.21 2430.21 1230 2448.97 1230L2600.03 1230C2618.79 1230 2634 1245.21 2634 1263.97L2634 1319.03C2634 1337.79 2618.79 1353 2600.03 1353L2448.97 1353C2430.21 1353 2415 1337.79 2415 1319.03Z" fill="#FFFFFF" fill-rule="evenodd"/><rect x="2812" y="1093" width="150" height="142" fill="#254488"/><path d="M2757 1164C2757 1124.79 2782.07 1093 2813 1093 2843.93 1093 2869 1124.79 2869 1164 2869 1203.21 2843.93 1235 2813 1235 2782.07 1235 2757 1203.21 2757 1164Z" fill="#254488" fill-rule="evenodd"/><text fill="#FFFFFF" font-family="KoPubDotum Bold,KoPubDotum Bold_MSFontService,sans-serif" font-weight="700" font-size="83" transform="matrix(1 0 0 1 2775.9 1191)">R</text><path d="M2842 1132.21C2842 1110.56 2859.56 1093 2881.21 1093L3034.79 1093C3056.44 1093 3074 1110.56 3074 1132.21L3074 1195.79C3074 1217.44 3056.44 1235 3034.79 1235L2881.21 1235C2859.56 1235 2842 1217.44 2842 1195.79Z" fill="#254488" fill-rule="evenodd"/><path d="M2847 1136.69C2847 1118.08 2862.08 1103 2880.69 1103L3034.31 1103C3052.92 1103 3068 1118.08 3068 1136.69L3068 1191.31C3068 1209.92 3052.92 1225 3034.31 1225L2880.69 1225C2862.08 1225 2847 1209.92 2847 1191.31Z" fill="#FFFFFF" fill-rule="evenodd"/><rect x="2812" y="1379" width="150" height="141"/><path d="M2757 1449.5C2757 1410.56 2782.07 1379 2813 1379 2843.93 1379 2869 1410.56 2869 1449.5 2869 1488.44 2843.93 1520 2813 1520 2782.07 1520 2757 1488.44 2757 1449.5Z" fill-rule="evenodd"/><text fill="#FFFFFF" font-family="KoPubDotum Bold,KoPubDotum Bold_MSFontService,sans-serif" font-weight="700" font-size="83" transform="matrix(1 0 0 1 2773.9 1476)">D</text><path d="M2842 1417.94C2842 1396.43 2859.43 1379 2880.94 1379L3035.06 1379C3056.57 1379 3074 1396.43 3074 1417.94L3074 1481.06C3074 1502.57 3056.57 1520 3035.06 1520L2880.94 1520C2859.43 1520 2842 1502.57 2842 1481.06Z" fill-rule="evenodd"/><path d="M2847 1421.97C2847 1403.21 2862.21 1388 2880.97 1388L3034.03 1388C3052.79 1388 3068 1403.21 3068 1421.97L3068 1477.03C3068 1495.79 3052.79 1511 3034.03 1511L2880.97 1511C2862.21 1511 2847 1495.79 2847 1477.03Z" fill="#FFFFFF" fill-rule="evenodd"/></g></svg>