<?xml version="1.0" encoding="utf-8"?>
<!-- Generator: Adobe Illustrator 25.3.1, SVG Export Plug-In . SVG Version: 6.00 Build 0)  -->
<svg version="1.1" id="레이어_1" xmlns="http://www.w3.org/2000/svg" xmlns:xlink="http://www.w3.org/1999/xlink" x="0px"
	 y="0px" viewBox="0 0 2423 1046" style="enable-background:new 0 0 2423 1046;" xml:space="preserve">
<style type="text/css">
	.st0{fill:none;}
	.st1{fill:#FFFFFF;}
	.st2{fill:#3774B3;}
	.st3{font-family:'Arial-BoldMT';}
	.st4{font-size:46px;}
	.st5{font-family:'ArialMT';}
	.st6{fill-rule:evenodd;clip-rule:evenodd;fill:#F7FAFF;}
	.st7{fill:none;stroke:#BDD7EE;stroke-width:4.5833;stroke-linejoin:round;stroke-miterlimit:10;}
	.st8{fill:none;stroke:#3774B3;stroke-width:4.5833;stroke-linejoin:round;stroke-miterlimit:10;}
	.st9{fill:none;stroke:#FFFFFF;stroke-width:13.75;stroke-linejoin:round;stroke-miterlimit:10;}
	.st10{fill:none;stroke:#3774B3;stroke-width:6.875;stroke-linejoin:round;stroke-miterlimit:10;}
	.st11{font-size:41px;}
	.st12{fill:#335B8E;}
	.st13{fill:none;stroke:#9DC3E6;stroke-width:4.5833;stroke-linejoin:round;stroke-miterlimit:10;stroke-dasharray:13.75,4.5833;}
	.st14{font-size:62px;}
</style>
<rect class="st0" width="2423" height="1046"/>
<g transform="translate(-421 -488)">
	<rect x="421" y="488" class="st1" width="2423" height="413"/>
	<text transform="matrix(1 0 0 1 453.578 550)" class="st2 st3 st4">Social Distancing Policy</text>
	<text transform="matrix(1 0 0 1 453.578 614)" class="st5 st4">•</text>
	<text transform="matrix(1 0 0 1 515.453 614)" class="st5 st4">You</text>
	<text transform="matrix(1 0 0 1 608.838 614)" class="st5 st4">can</text>
	<text transform="matrix(1 0 0 1 694.776 614)" class="st5 st4">define</text>
	<text transform="matrix(1 0 0 1 831.13 614)" class="st5 st4">the strength of each social</text>
	<text transform="matrix(1 0 0 1 1374.828 614)" class="st5 st4">distancing level (Level 0~3)</text>
	<text transform="matrix(1 0 0 1 453.578 678)" class="st5 st4">•</text>
	<text transform="matrix(1 0 0 1 515.453 678)" class="st5 st4">Social distancing levels can be applied separately to each block</text>
	<text transform="matrix(1 0 0 1 453.578 742)" class="st5 st4">•</text>
	<text transform="matrix(1 0 0 1 515.453 742)" class="st5 st4">At each</text>
	<text transform="matrix(1 0 0 1 682.172 742)" class="st5 st4">social</text>
	<text transform="matrix(1 0 0 1 811.651 742)" class="st5 st4">distancing level, you can define the movement speed by age groups; 0</text>
	<text transform="matrix(1 0 0 1 2233.0581 742)" class="st5 st4">-</text>
	<text transform="matrix(1 0 0 1 2248.5278 742)" class="st5 st4">19, 20</text>
	<text transform="matrix(1 0 0 1 2374.5679 742)" class="st5 st4">-</text>
	<text transform="matrix(1 0 0 1 2390.0381 742)" class="st5 st4">59, 60+</text>
	<text transform="matrix(1 0 0 1 520.7238 806)" class="st5 st4">•</text>
	<text transform="matrix(1 0 0 1 582.599 806)" class="st5 st4">The movement speed for each block applies to the people in the block only at the start of the week</text>
	<text transform="matrix(1 0 0 1 453.578 870)" class="st5 st4">•</text>
	<text transform="matrix(1 0 0 1 515.453 870)" class="st5 st4">Reducing</text>
	<text transform="matrix(1 0 0 1 720.557 870)" class="st5 st4">movement</text>
	<text transform="matrix(1 0 0 1 946.286 870)" class="st5 st4">speed</text>
	<text transform="matrix(1 0 0 1 1082.64 870)" class="st5 st4">may</text>
	<text transform="matrix(1 0 0 1 1181.755 870)" class="st5 st4">slow the spread of disease, but also lowers GDP</text>
	<path class="st6" d="M474.1,931.4h376v197.2h-376V931.4z"/>
	<path class="st6" d="M850.1,931.4h1128v98.6h-1128V931.4z"/>
	<path class="st6" d="M850.1,1030h376v98.6h-376V1030z"/>
	<path class="st6" d="M1226.1,1030h376v98.6h-376V1030z"/>
	<path class="st6" d="M1602.1,1030h376v98.6h-376V1030z"/>
	<path class="st7" d="M850.1,928v598.5"/>
	<path class="st7" d="M1226.1,1027.7v498.7"/>
	<path class="st7" d="M1602.1,1027.7v498.7"/>
	<path class="st7" d="M847.8,1030H1985"/>
	<path class="st8" d="M467.2,1128.6H1985"/>
	<path class="st7" d="M467.2,1227.2H1985"/>
	<path class="st7" d="M467.2,1325.8H1985"/>
	<path class="st7" d="M467.2,1424.4H1985"/>
	<path class="st9" d="M474.1,928v598.5"/>
	<path class="st9" d="M1978.1,928v598.5"/>
	<path class="st10" d="M467.2,931.4H1985"/>
	<path class="st10" d="M467.2,1523H1985"/>
	<text transform="matrix(1 0 0 1 601.344 996)" class="st3 st11">Social </text>
	<text transform="matrix(1 0 0 1 556.6565 1046)" class="st3 st11">Distancing </text>
	<text transform="matrix(1 0 0 1 609.3649 1095)" class="st3 st11">Level</text>
	<text transform="matrix(1 0 0 1 1299.512 996)" class="st3 st11">Age groups</text>
	<text transform="matrix(1 0 0 1 996.834 1095)" class="st12 st3 st11">0</text>
	<text transform="matrix(1 0 0 1 1019.751 1095)" class="st12 st3 st11">-</text>
	<text transform="matrix(1 0 0 1 1033.501 1095)" class="st12 st3 st11">19</text>
	<text transform="matrix(1 0 0 1 1361.387 1095)" class="st12 st3 st11">20</text>
	<text transform="matrix(1 0 0 1 1407.2209 1095)" class="st12 st3 st11">-</text>
	<text transform="matrix(1 0 0 1 1420.9709 1095)" class="st12 st3 st11">59</text>
	<text transform="matrix(1 0 0 1 1755.1541 1095)" class="st12 st3 st11">60+</text>
	<text transform="matrix(1 0 0 1 650.6149 1193)" class="st12 st3 st11">0</text>
	<text transform="matrix(1 0 0 1 1009.439 1193)" class="st5 st11">1.0</text>
	<text transform="matrix(1 0 0 1 1385.45 1193)" class="st5 st11">1.0</text>
	<text transform="matrix(1 0 0 1 1761.464 1193)" class="st5 st11">1.0</text>
	<text transform="matrix(1 0 0 1 650.6149 1292)" class="st12 st3 st11">1</text>
	<text transform="matrix(1 0 0 1 1009.439 1292)" class="st5 st11">0.7</text>
	<text transform="matrix(1 0 0 1 1385.45 1292)" class="st5 st11">0.7</text>
	<text transform="matrix(1 0 0 1 1761.464 1292)" class="st5 st11">0.7</text>
	<text transform="matrix(1 0 0 1 650.6149 1390)" class="st12 st3 st11">2</text>
	<text transform="matrix(1 0 0 1 1009.439 1390)" class="st5 st11">0.5</text>
	<text transform="matrix(1 0 0 1 1385.45 1390)" class="st5 st11">0.5</text>
	<text transform="matrix(1 0 0 1 1761.464 1390)" class="st5 st11">0.5</text>
	<text transform="matrix(1 0 0 1 650.6149 1489)" class="st12 st3 st11">3</text>
	<text transform="matrix(1 0 0 1 1009.439 1489)" class="st5 st11">0.3</text>
	<text transform="matrix(1 0 0 1 1385.45 1489)" class="st5 st11">0.3</text>
	<text transform="matrix(1 0 0 1 1761.464 1489)" class="st5 st11">0.3</text>
	<path class="st13" d="M2429.9,927.6v599.3"/>
	<path class="st13" d="M2031.8,1227.2h796.1"/>
	<path class="st10" d="M2035.2,927.6v599.3"/>
	<path class="st10" d="M2824.5,927.6v599.3"/>
	<path class="st10" d="M2031.8,931h796.1"/>
	<path class="st10" d="M2031.8,1523.4h796.1"/>
	<text transform="matrix(1 0 0 1 2145.3501 1100)" class="st5 st14">Level 0</text>
	<text transform="matrix(1 0 0 1 2539.9751 1100)" class="st5 st14">Level 0</text>
	<text transform="matrix(1 0 0 1 2145.3501 1396)" class="st5 st14">Level 0</text>
	<text transform="matrix(1 0 0 1 2539.9751 1396)" class="st5 st14">Level 0</text>
</g>
</svg>
