<?xml version="1.0" encoding="utf-8"?>
<!-- Generator: Adobe Illustrator 25.3.1, SVG Export Plug-In . SVG Version: 6.00 Build 0)  -->
<svg version="1.1" id="레이어_1" xmlns="http://www.w3.org/2000/svg" xmlns:xlink="http://www.w3.org/1999/xlink" x="0px"
	 y="0px" viewBox="0 0 2426 607" style="enable-background:new 0 0 2426 607;" xml:space="preserve">
<style type="text/css">
	.st0{fill:none;}
	.st1{fill:#EEEFEF;}
	.st2{fill-rule:evenodd;clip-rule:evenodd;fill:#706092;}
	.st3{fill-rule:evenodd;clip-rule:evenodd;fill:#FFFFFF;}
	.st4{fill-rule:evenodd;clip-rule:evenodd;fill:#E8E4DC;}
	.st5{fill:#4EA5A8;}
	.st6{fill:#4677C2;}
	.st7{fill:none;stroke:#D9D9D9;stroke-width:3.4375;stroke-linecap:round;stroke-miterlimit:8;}
	.st8{fill:#262626;}
	.st9{font-family:'Arial-BoldMT';}
	.st10{font-size:48px;}
	.st11{font-family:'KoPubDotumMedium';}
	.st12{font-size:37px;}
	.st13{fill:#9D9D9D;}
	.st14{fill:#FFFFFF;}
	.st15{font-family:'ArialMT';}
	.st16{fill:#858380;}
	.st17{font-size:41px;}
	.st18{fill-rule:evenodd;clip-rule:evenodd;fill:#9D9D9D;}
</style>
<rect class="st0" width="2426" height="607"/>
<g transform="translate(-418 -480)">
	<rect x="418" y="480" class="st1" width="2426" height="607"/>
	<path class="st2" d="M437,586.8c0-9.9,8-17.8,17.8-17.8h2342.3c9.9,0,17.8,8,17.8,17.8v88.3c0,9.9-8,17.8-17.8,17.8H454.8
		c-9.9,0-17.8-8-17.8-17.8V586.8z"/>
	<path class="st3" d="M437,727.9c0-10.4,8.5-18.9,18.9-18.9h2340.2c10.4,0,18.9,8.5,18.9,18.9v199.2c0,10.4-8.4,18.9-18.9,18.9
		H455.9c-10.4,0-18.9-8.5-18.9-18.9V727.9z"/>
	<path class="st4" d="M447.8,569H855v124H447.8c-6,0-10.8-8-10.8-17.8v-88.3C437,577,441.8,569,447.8,569z"/>
	<rect x="1345" y="569" class="st5" width="490" height="124"/>
	<rect x="1835" y="569" class="st6" width="490" height="124"/>
	<path class="st7" d="M1345.5,736.5v69.3"/>
	<path class="st7" d="M1835.5,736.5v69.3"/>
	<path class="st7" d="M2325.5,736.5v69.3"/>
	<text transform="matrix(1 0 0 1 450.218 541)" class="st8 st9 st10">Occurrence Status</text>
	<text transform="matrix(1 0 0 1 887.3229 541)" class="st8 st11 st12">(Week #: Day ### to ###)</text>
	<rect x="855" y="569" class="st13" width="490" height="124"/>
	<text transform="matrix(1 0 0 1 993.024 647)" class="st14 st9 st10">Infectious</text>
	<text transform="matrix(1 0 0 1 1548.527 647)" class="st14 st9 st10">ICU</text>
	<text transform="matrix(1 0 0 1 2015.0239 647)" class="st14 st9 st10">Death</text>
	<text transform="matrix(1 0 0 1 2520.1541 625)" class="st14 st9 st10">GDP</text>
	<text transform="matrix(1 0 0 1 2338.5439 672)" class="st14 st15 st12">(</text>
	<text transform="matrix(1 0 0 1 2350.0039 672)" class="st14 st15 st12">Compared to </text>
	<text transform="matrix(1 0 0 1 2574.0139 672)" class="st14 st15 st12">pre</text>
	<text transform="matrix(1 0 0 1 2627.864 672)" class="st14 st15 st12">-</text>
	<text transform="matrix(1 0 0 1 2641.4939 672)" class="st14 st15 st12">outbreak)</text>
	<path class="st4" d="M437,932.8V722.2c0-7.3,5.9-13.2,13.2-13.2H855v237H450.2C442.9,946,437,940.1,437,932.8z"/>
	<text transform="matrix(1 0 0 1 531.462 787)" class="st16 st9 st17">Weekly total</text>
	<text transform="matrix(1 0 0 1 508.2588 879)" class="st16 st15 st12">Compared to the </text>
	<text transform="matrix(1 0 0 1 527.4629 923)" class="st16 st15 st12">previous week</text>
	<path class="st7" d="M1345.5,852.5v69.3"/>
	<path class="st7" d="M1835.5,852.5v69.3"/>
	<path class="st7" d="M2325.5,852.5v69.3"/>
	<path class="st18" d="M438,985.2c0-8.9,7.2-16.2,16.2-16.2h2344.7c8.9,0,16.2,7.2,16.2,16.2v64.7c0,8.9-7.2,16.2-16.2,16.2H454.2
		c-8.9,0-16.2-7.2-16.2-16.2V985.2z"/>
	<text transform="matrix(1 0 0 1 543.182 1030)" class="st14 st9 st17">Cumulative</text>
	<path class="st7" d="M1835.5,979.5v69.3"/>
	<text transform="matrix(1 0 0 1 1457.8101 1030)" class="st14 st15 st17">Infected</text>
	<text transform="matrix(1 0 0 1 2433.8311 1030)" class="st14 st15 st17">deaths</text>
</g>
</svg>
