<?xml version="1.0" encoding="utf-8"?>
<!-- Generator: Adobe Illustrator 26.0.1, SVG Export Plug-In . SVG Version: 6.00 Build 0)  -->
<svg version="1.1" id="레이어_1" xmlns="http://www.w3.org/2000/svg" xmlns:xlink="http://www.w3.org/1999/xlink" x="0px"
	 y="0px" viewBox="0 0 232 106" style="enable-background:new 0 0 232 106;" xml:space="preserve">
<style type="text/css">
	.st0{fill:none;}
	.st1{fill-rule:evenodd;clip-rule:evenodd;fill:#F5B401;}
	.st2{enable-background:new    ;}
	.st3{fill:#F5B401;}
</style>
<rect class="st0" width="232" height="106"/>
<g transform="translate(-1501 -608)">
	<path class="st1" d="M1501,661.5c0-16.8,13.7-30.5,30.5-30.5s30.5,13.7,30.5,30.5s-13.7,30.5-30.5,30.5S1501,678.3,1501,661.5z"/>
	<g class="st2">
		<path class="st3" d="M1613.7,668.2h-14.4v12.3h-4.7v-12.3h-14.7v-3.9h33.8V668.2z M1583.6,644.9h26.2v3.9h-10.5
			c0.2,1.1,0.8,2.2,1.5,3.1s1.8,1.8,2.9,2.5c1.1,0.7,2.5,1.4,3.9,1.9c1.5,0.5,3,1,4.6,1.3l-2.9,3.3c-1.1-0.3-2.3-0.6-3.6-1.1
			c-1.2-0.4-2.4-1-3.5-1.6c-1.1-0.6-2.2-1.3-3.2-2.1c-1-0.8-1.8-1.7-2.4-2.7c-1.1,1.7-2.8,3.2-4.9,4.4c-2.1,1.3-4.7,2.3-7.7,3
			l-3.2-3.4c1.6-0.4,3.2-0.8,4.7-1.3c1.5-0.5,2.8-1.1,3.9-1.8c1.2-0.7,2.2-1.6,2.9-2.5c0.8-0.9,1.3-2,1.6-3.2h-10.5V644.9z"/>
		<path class="st3" d="M1616.9,669l11.2-0.1c0.6,0,1.5,0,2.6-0.1c1.1-0.1,2.3-0.2,3.6-0.3c1.3-0.1,2.6-0.2,3.9-0.4
			c1.3-0.2,2.5-0.3,3.5-0.5v3.8c-2.5,0.6-5.6,1-9.1,1.3c-3.6,0.3-7.4,0.4-11.4,0.4h-4.2V669z M1628.4,663.7c-1.5,0-2.8-0.2-4-0.7
			c-1.2-0.5-2.2-1.1-3.1-2c-0.8-0.8-1.5-1.8-2-3c-0.5-1.1-0.7-2.4-0.7-3.8c0-1.3,0.2-2.5,0.7-3.7c0.5-1.1,1.1-2.1,2-3
			c0.9-0.8,1.9-1.5,3.1-2c1.2-0.5,2.5-0.7,4-0.7c1.4,0,2.8,0.2,4,0.7c1.2,0.5,2.2,1.1,3.1,2c0.8,0.8,1.5,1.8,2,3
			c0.5,1.1,0.7,2.4,0.7,3.7c0,1.4-0.2,2.6-0.7,3.8c-0.5,1.1-1.1,2.1-2,3c-0.9,0.8-1.9,1.5-3.1,2
			C1631.1,663.5,1629.8,663.7,1628.4,663.7z M1628.4,648.8c-1.6,0-2.9,0.5-3.8,1.6c-0.9,1-1.3,2.4-1.3,3.9c0,1.6,0.4,2.9,1.3,4
			c0.9,1.1,2.2,1.6,3.8,1.6c1.6,0,2.9-0.5,3.8-1.6c0.9-1.1,1.3-2.4,1.3-4c0-1.6-0.4-2.9-1.3-3.9
			C1631.3,649.3,1630,648.8,1628.4,648.8z M1647.2,643.8v36.7h-4.6v-36.7H1647.2z"/>
	</g>
	<g class="st2">
		<path class="st3" d="M1672,655.9h-5.5v-5.2h5.5V655.9z M1672,672.2h-5.5V667h5.5V672.2z"/>
		<path class="st3" d="M1676.9,662c0-1.8,0.2-3.6,0.5-5.4c0.3-1.8,0.9-3.6,1.6-5.3c0.7-1.7,1.5-3.3,2.5-4.8c1-1.5,2.2-2.9,3.5-4.1
			h3.6c-2.7,3.5-4.5,6.9-5.4,10.1c-0.9,3.3-1.4,6.4-1.4,9.5c0,3,0.5,6.2,1.4,9.5c0.9,3.3,2.7,6.7,5.4,10.1h-3.6
			c-1.3-1.2-2.5-2.5-3.5-4c-1-1.5-1.9-3.1-2.5-4.8c-0.7-1.7-1.2-3.5-1.6-5.3C1677,665.6,1676.9,663.8,1676.9,662z"/>
	</g>
</g>
</svg>
