<?xml version="1.0" encoding="utf-8"?>
<!-- Generator: Adobe Illustrator 26.0.1, SVG Export Plug-In . SVG Version: 6.00 Build 0)  -->
<svg version="1.1" id="레이어_1" xmlns="http://www.w3.org/2000/svg" xmlns:xlink="http://www.w3.org/1999/xlink" x="0px"
	 y="0px" viewBox="0 0 2426 607" style="enable-background:new 0 0 2426 607;" xml:space="preserve">
<style type="text/css">
	.st0{fill:none;}
	.st1{fill:#EEEFEF;}
	.st2{fill-rule:evenodd;clip-rule:evenodd;fill:#706092;}
	.st3{fill-rule:evenodd;clip-rule:evenodd;fill:#FFFFFF;}
	.st4{fill-rule:evenodd;clip-rule:evenodd;fill:#E8E4DC;}
	.st5{fill:#4EA5A8;}
	.st6{fill:#4677C2;}
	.st7{fill:none;stroke:#D9D9D9;stroke-width:3.4375;stroke-linecap:round;stroke-miterlimit:8;}
	.st8{enable-background:new    ;}
	.st9{fill:#262626;}
	.st10{fill:#9D9D9D;}
	.st11{fill:#FFFFFF;}
	.st12{fill:#858380;}
	.st13{fill-rule:evenodd;clip-rule:evenodd;fill:#9D9D9D;}
</style>
<rect class="st0" width="2426" height="607"/>
<g transform="translate(-418 -480)">
	<rect x="418" y="480" class="st1" width="2426" height="607"/>
	<path class="st2" d="M437,586.8c0-9.9,8-17.8,17.8-17.8h2342.3c9.9,0,17.8,8,17.8,17.8v88.3c0,9.9-8,17.8-17.8,17.8H454.8
		c-9.9,0-17.8-8-17.8-17.8V586.8z"/>
	<path class="st3" d="M437,727.9c0-10.4,8.5-18.9,18.9-18.9h2340.2c10.4,0,18.9,8.5,18.9,18.9v199.2c0,10.4-8.4,18.9-18.9,18.9
		H455.9c-10.4,0-18.9-8.5-18.9-18.9V727.9z"/>
	<path class="st4" d="M447.8,569H855v124H447.8c-6,0-10.8-8-10.8-17.8v-88.3C437,577,441.8,569,447.8,569z"/>
	<rect x="1345" y="569" class="st5" width="490" height="124"/>
	<rect x="1835" y="569" class="st6" width="490" height="124"/>
	<path class="st7" d="M1345.5,736.5v69.3"/>
	<path class="st7" d="M1835.5,736.5v69.3"/>
	<path class="st7" d="M2325.5,736.5v69.3"/>
	<g class="st8">
		<path class="st9" d="M490.9,533H474v14.4h-5.5V533h-17.2v-4.6h39.6V533z M455.7,505.8h30.7v4.6h-12.2c0.3,1.3,0.9,2.6,1.8,3.7
			c0.9,1.1,2.1,2.1,3.4,3c1.3,0.9,2.9,1.6,4.6,2.3c1.7,0.6,3.5,1.2,5.4,1.5l-3.4,3.8c-1.3-0.3-2.7-0.7-4.2-1.2
			c-1.4-0.5-2.8-1.1-4.1-1.9c-1.3-0.7-2.6-1.5-3.7-2.5c-1.1-0.9-2.1-2-2.9-3.1c-1.3,2-3.2,3.7-5.7,5.2c-2.5,1.5-5.5,2.7-9,3.5
			l-3.7-3.9c1.9-0.4,3.7-0.9,5.4-1.5c1.7-0.6,3.2-1.3,4.6-2.2c1.4-0.9,2.5-1.8,3.4-2.9c0.9-1.1,1.5-2.3,1.8-3.7h-12.2V505.8z"/>
		<path class="st9" d="M515,506.2c0.5,0,0.8,0.1,1,0.3c0.2,0.2,0.3,0.6,0.3,1c-0.5,5.8-2.3,10.6-5.5,14.5c-3.2,3.9-7.8,7-13.9,9.1
			l-3.4-4c5-1.5,8.9-3.7,11.7-6.4c2.8-2.7,4.5-6.1,5.2-10h-14.2v-4.6H515z M501.6,546.6c-0.5,0-0.9-0.1-1-0.3
			c-0.2-0.2-0.3-0.5-0.3-1.1v-12.6h5.6v9.3h23.6v4.6H501.6z M533.9,521.4h-5.6v14h-5.4v-31h5.4v12.4h5.6V521.4z"/>
	</g>
	<g class="st8">
		<path class="st9" d="M570.8,523.8c0,0.5-0.1,0.9-0.3,1.1c-0.2,0.2-0.6,0.3-1,0.3h-17.8c-0.5,0-0.9-0.1-1-0.3
			c-0.2-0.2-0.3-0.5-0.3-1.1v-18.2h5.4v5.7h9.7v-5.7h5.3V523.8z M556.3,535.7h21v-3.2h-22.3v-4.2h26.7c0.5,0,0.8,0.1,1,0.3
			c0.2,0.2,0.3,0.6,0.3,1v8.5c0,0.5-0.1,0.9-0.3,1.1c-0.2,0.2-0.6,0.3-1,0.3h-20.9v3.4H584v4.2h-27.7c-0.5,0-0.9-0.1-1.1-0.3
			c-0.2-0.2-0.3-0.5-0.3-1.1v-8.7c0-0.5,0.1-0.8,0.3-1C555.4,535.8,555.7,535.7,556.3,535.7z M565.5,520.7v-5.1h-9.7v5.1H565.5z
			 M588.5,516.9H583v9.8h-5.5v-22.2h5.5v7.8h5.5V516.9z"/>
		<path class="st9" d="M588.7,525.3c2.9-1.8,5.2-3.9,6.8-6.5c1.6-2.6,2.4-5.7,2.4-9.4v-3.8h5.7v3.8c0,3.4,0.6,6.2,2,8.5
			c1.4,2.3,3.5,4.2,6.3,5.8l-3.6,3.7c-1.6-1.1-3.1-2.3-4.5-3.7c-1.4-1.4-2.4-2.8-3.1-4.3c-0.7,1.6-1.7,3.3-3,4.9
			c-1.3,1.6-2.9,3.1-4.8,4.4L588.7,525.3z M611.9,530.1c2.2,0,4.3,0.2,6.2,0.6c1.9,0.4,3.6,1,5,1.8c1.4,0.8,2.5,1.7,3.3,2.8
			c0.8,1.1,1.2,2.4,1.2,3.8c0,1.5-0.4,2.8-1.2,3.9c-0.8,1.1-1.9,2.1-3.3,2.8c-1.4,0.8-3,1.3-5,1.7c-1.9,0.4-4,0.6-6.3,0.6
			c-2.2,0-4.3-0.2-6.2-0.6c-1.9-0.4-3.5-1-4.9-1.7c-1.4-0.8-2.5-1.7-3.3-2.8c-0.8-1.1-1.2-2.4-1.2-3.9c0-1.4,0.4-2.7,1.2-3.8
			c0.8-1.1,1.9-2.1,3.3-2.9c1.4-0.8,3.1-1.4,5-1.8C607.7,530.3,609.8,530.1,611.9,530.1z M611.9,534.4c-2.8,0-5.2,0.4-7,1.2
			c-1.8,0.8-2.7,2-2.7,3.5c0,1.5,0.9,2.7,2.8,3.6c1.8,0.9,4.2,1.3,7,1.3c2.9,0,5.3-0.4,7.2-1.3c1.8-0.9,2.7-2.1,2.7-3.6
			c0-1.5-0.9-2.7-2.7-3.5C617.3,534.8,614.9,534.4,611.9,534.4z M618.2,505.1v8.6h3.7v-9.3h5.3v26.1h-5.3v-11.9h-3.7v10.5h-5.3v-24
			H618.2z"/>
	</g>
	<g class="st8">
		<path class="st9" d="M646.4,511h23.8v4.2h-23.8V511z M658.7,531.8c-3.6,0-6.3-0.7-8.2-2.2c-1.9-1.5-2.8-3.2-2.8-5.3
			c0-2,0.9-3.8,2.8-5.2c1.8-1.4,4.6-2.2,8.2-2.2c3.6,0,6.3,0.7,8.2,2.2c1.9,1.4,2.8,3.2,2.8,5.2c0,2-0.9,3.8-2.8,5.3
			C665,531.1,662.2,531.8,658.7,531.8z M652.2,504.3h13.2v4.1h-13.2V504.3z M654.5,546.6c-0.5,0-0.9-0.1-1-0.3
			c-0.2-0.2-0.3-0.5-0.3-1.1v-10.8h5.6v7.5h24.3v4.6H654.5z M658.7,521c-1.7,0-3,0.3-4,0.9c-0.9,0.6-1.4,1.4-1.4,2.5
			c0,1.2,0.5,2,1.4,2.5c0.9,0.5,2.3,0.8,4,0.8c1.7,0,3-0.3,4-0.8c1-0.5,1.5-1.4,1.5-2.5c0-1.1-0.5-1.9-1.5-2.5
			C661.7,521.3,660.4,521,658.7,521z M676.7,536.6v-7.1h-6.2v-4.4h6.2v-4.5h-6.1v-4.4h6.1v-11.8h5.4v32.1H676.7z"/>
		<path class="st9" d="M698.4,525.9c-2.6-0.3-4.6-0.9-6-1.8c-1.3-1-2-2.2-2-3.7c0-1.7,0.9-3.1,2.8-4.1s4.6-1.5,8.1-1.5
			s6.3,0.5,8.1,1.5c1.9,1,2.8,2.4,2.8,4.1c0,1.4-0.7,2.6-2,3.6c-1.3,1-3.3,1.6-5.9,1.9v2.5c0.4,0,1,0,1.9-0.1c0.9,0,1.9-0.1,3-0.2
			c1.1-0.1,2.2-0.2,3.3-0.3s2.2-0.2,3-0.4v4.1c-0.8,0.1-1.8,0.2-3,0.4c-1.2,0.1-2.5,0.2-3.9,0.3c-1.4,0.1-2.8,0.2-4.3,0.2
			c-1.5,0.1-3,0.1-4.4,0.1c-0.4,0-1,0-1.9,0c-0.9,0-1.9,0-3.1,0c-1.2,0-2.4,0-3.7,0s-2.6,0-3.9,0v-4.1h11V525.9z M689.2,509.6h24.1
			v3.8h-24.1V509.6z M707.6,548.2c-5.2,0-9.1-0.7-11.6-2c-2.5-1.4-3.8-3-3.8-5c0-2,1.3-3.7,3.8-5c2.5-1.3,6.4-2,11.6-2
			c5.2,0,9,0.7,11.6,2c2.5,1.3,3.8,3,3.8,5c0,2-1.3,3.7-3.8,5C716.6,547.5,712.8,548.2,707.6,548.2z M694.8,504.1h12.7v3.7h-12.7
			V504.1z M701.3,518.2c-1.5,0-2.8,0.2-3.7,0.5s-1.4,0.9-1.4,1.6c0,0.8,0.5,1.3,1.4,1.7s2.1,0.6,3.6,0.6c1.5,0,2.8-0.2,3.7-0.6
			s1.4-0.9,1.4-1.7c0-0.7-0.5-1.3-1.4-1.6S702.8,518.2,701.3,518.2z M707.6,537.9c-2.9,0-5.1,0.3-6.8,0.8c-1.6,0.5-2.5,1.3-2.5,2.4
			c0,1.2,0.8,2,2.5,2.4c1.7,0.5,3.9,0.7,6.8,0.7c2.8,0,5.1-0.2,6.7-0.7c1.7-0.5,2.5-1.3,2.5-2.4c0-1.1-0.8-1.9-2.5-2.4
			C712.7,538.2,710.4,537.9,707.6,537.9z M727.8,522.9h-5.7v11.3h-5.4v-29.7h5.4v13.7h5.7V522.9z"/>
	</g>
	<g class="st8">
		<path class="st9" d="M740,529.2c0-1.5,0.2-3,0.5-4.6c0.3-1.6,0.8-3.1,1.5-4.7c0.7-1.5,1.5-3,2.4-4.4c0.9-1.4,2-2.8,3.2-4h2.2
			c-2.2,2.9-3.8,5.9-4.9,8.9c-1,3-1.6,6-1.6,8.9c0,2.9,0.5,5.9,1.6,8.9c1,3,2.7,6,4.9,8.9h-2.2c-1.2-1.2-2.2-2.5-3.2-4
			c-0.9-1.4-1.7-2.9-2.4-4.5c-0.6-1.5-1.1-3.1-1.5-4.7C740.2,532.3,740,530.8,740,529.2z"/>
	</g>
	<g class="st8">
		<path class="st9" d="M834.8,534h-13.5v11.9h-3V534h-13.5v-2.5h30V534z M831.4,528.2c-1-0.2-2-0.5-3.1-1c-1.1-0.4-2.2-0.9-3.3-1.6
			c-1.1-0.6-2.1-1.4-3-2.2c-0.9-0.9-1.7-1.8-2.2-2.9c-0.6,1-1.3,2-2.2,2.8c-0.9,0.8-1.8,1.5-2.8,2.1c-1,0.6-2.1,1.2-3.2,1.6
			c-1.1,0.4-2.3,0.8-3.4,1.1l-2.1-2.2c1.6-0.3,3-0.8,4.5-1.3c1.4-0.6,2.7-1.2,3.8-2c1.1-0.8,2-1.7,2.6-2.7s1.1-2.1,1.2-3.3h-9.7
			v-2.5h22.6v2.6h-9.7c0.1,1.3,0.5,2.5,1.3,3.5s1.7,1.9,2.9,2.7c1.2,0.8,2.4,1.4,3.8,1.9c1.4,0.5,2.7,0.9,4,1.1L831.4,528.2z"/>
		<path class="st9" d="M837,537.4c2.9-1.7,5.1-3.7,6.6-6c1.5-2.3,2.3-4.8,2.3-7.6v-1.5h-7.2v-2.6h17.4v2.6H849v1.5
			c0.1,2.8,0.8,5.3,2.2,7.4c1.4,2.1,3.4,4,6,5.4l-2.1,2.1c-1.8-1.1-3.3-2.4-4.6-3.9c-1.3-1.5-2.3-3.2-3.1-5.2
			c-0.8,2-1.9,3.9-3.2,5.5c-1.3,1.6-2.9,3.1-4.8,4.3L837,537.4z M852.3,516.1h-9.8v-2.5h9.8V516.1z M860.5,545.8V513h2.9v12.7h4.9
			v2.7h-4.9v17.4L860.5,545.8z"/>
	</g>
	<g class="st8">
		<path class="st9" d="M875.8,523.3H872v-3.8h3.8V523.3z M875.8,538.4H872v-3.8h3.8V538.4z"/>
	</g>
	<g class="st8">
		<path class="st9" d="M966.2,529c-1.1,0-2.2-0.2-3.2-0.6c-1-0.4-1.9-0.9-2.6-1.6c-0.8-0.7-1.4-1.5-1.8-2.5c-0.4-0.9-0.6-2-0.6-3.1
			s0.2-2.2,0.6-3.2c0.4-1,1-1.8,1.8-2.5s1.6-1.2,2.6-1.6s2.1-0.6,3.2-0.6c1.1,0,2.2,0.2,3.2,0.6s1.9,0.9,2.6,1.6
			c0.8,0.7,1.4,1.6,1.8,2.5c0.4,1,0.7,2,0.7,3.1s-0.2,2.2-0.7,3.1c-0.4,1-1,1.8-1.8,2.5c-0.8,0.7-1.6,1.2-2.6,1.6
			C968.4,528.8,967.3,529,966.2,529z M960.8,521.2c0,1.5,0.5,2.7,1.5,3.8s2.3,1.5,3.9,1.5c1.6,0,2.9-0.5,3.9-1.5
			c1-1,1.5-2.3,1.5-3.8c0-1.5-0.5-2.7-1.6-3.8c-1-1-2.3-1.6-3.9-1.6c-0.8,0-1.5,0.1-2.2,0.4s-1.2,0.7-1.7,1.2
			c-0.5,0.5-0.8,1.1-1.1,1.7C960.9,519.8,960.8,520.5,960.8,521.2z M963.4,545.5c-0.3,0-0.5-0.1-0.6-0.2s-0.2-0.3-0.2-0.6v-6.5
			c0-0.3,0.1-0.5,0.2-0.6c0.1-0.1,0.3-0.2,0.6-0.2h17.4v-3.3h-18.1v-2.4h20.5c0.3,0,0.5,0.1,0.6,0.2c0.1,0.1,0.2,0.3,0.2,0.6v6.4
			c0,0.3-0.1,0.5-0.2,0.6c-0.1,0.1-0.3,0.2-0.6,0.2h-17.4v3.5h18.9v2.4H963.4z M984,513v16.8h-2.9V513H984z"/>
	</g>
	<g class="st8">
		<path class="st9" d="M1017.7,527.1v2.6h-17v-2.6H1017.7z"/>
	</g>
	<g class="st8">
		<path class="st9" d="M1106,529c-1.1,0-2.2-0.2-3.2-0.6c-1-0.4-1.9-0.9-2.6-1.6c-0.8-0.7-1.4-1.5-1.8-2.5c-0.4-0.9-0.6-2-0.6-3.1
			s0.2-2.2,0.6-3.2c0.4-1,1-1.8,1.8-2.5s1.6-1.2,2.6-1.6s2.1-0.6,3.2-0.6c1.1,0,2.2,0.2,3.2,0.6s1.9,0.9,2.6,1.6
			c0.8,0.7,1.4,1.6,1.8,2.5c0.4,1,0.7,2,0.7,3.1s-0.2,2.2-0.7,3.1c-0.4,1-1,1.8-1.8,2.5c-0.8,0.7-1.6,1.2-2.6,1.6
			C1108.2,528.8,1107.1,529,1106,529z M1100.6,521.2c0,1.5,0.5,2.7,1.5,3.8s2.3,1.5,3.9,1.5c1.6,0,2.9-0.5,3.9-1.5
			c1-1,1.5-2.3,1.5-3.8c0-1.5-0.5-2.7-1.6-3.8c-1-1-2.3-1.6-3.9-1.6c-0.8,0-1.5,0.1-2.2,0.4s-1.2,0.7-1.7,1.2
			c-0.5,0.5-0.8,1.1-1.1,1.7C1100.7,519.8,1100.6,520.5,1100.6,521.2z M1103.2,545.5c-0.3,0-0.5-0.1-0.6-0.2s-0.2-0.3-0.2-0.6v-6.5
			c0-0.3,0.1-0.5,0.2-0.6c0.1-0.1,0.3-0.2,0.6-0.2h17.4v-3.3h-18.1v-2.4h20.5c0.3,0,0.5,0.1,0.6,0.2c0.1,0.1,0.2,0.3,0.2,0.6v6.4
			c0,0.3-0.1,0.5-0.2,0.6c-0.1,0.1-0.3,0.2-0.6,0.2h-17.4v3.5h18.9v2.4H1103.2z M1123.8,513v16.8h-2.9V513H1123.8z"/>
	</g>
	<g class="st8">
		<path class="st9" d="M1137.1,529.2c0,1.5-0.2,3.1-0.5,4.7c-0.3,1.6-0.8,3.1-1.5,4.7c-0.7,1.6-1.5,3-2.4,4.5c-0.9,1.4-2,2.8-3.1,4
			h-2.2c2.2-2.9,3.8-5.8,4.8-8.9c1.1-3,1.6-6,1.6-8.9c0-2.9-0.5-5.8-1.6-8.9c-1.1-3-2.7-6-4.8-8.9h2.2c1.2,1.2,2.2,2.6,3.1,4
			c0.9,1.4,1.7,2.9,2.4,4.4c0.6,1.6,1.1,3.1,1.5,4.7C1136.9,526.2,1137.1,527.7,1137.1,529.2z"/>
	</g>
	<rect x="855" y="569" class="st10" width="490" height="124"/>
	<g class="st8">
		<path class="st11" d="M1081.4,612.2c0.5,0,0.8,0.1,1,0.3c0.2,0.2,0.3,0.6,0.3,1c-0.6,5.3-2.4,9.7-5.6,13.3
			c-3.2,3.6-7.7,6.4-13.6,8.3l-3.4-3.9c4.6-1.2,8.3-3.1,11-5.5c2.8-2.4,4.6-5.4,5.4-9h-14.1v-4.6H1081.4z M1067.9,636.4h25.3
			c0.5,0,0.8,0.1,1,0.3c0.2,0.2,0.3,0.6,0.3,1v13.8c0,0.5-0.1,0.9-0.3,1.1c-0.2,0.2-0.6,0.3-1,0.3h-25.3c-0.5,0-0.9-0.1-1.1-0.3
			s-0.3-0.5-0.3-1.1v-13.8c0-0.5,0.1-0.8,0.3-1C1067.1,636.5,1067.4,636.4,1067.9,636.4z M1089.3,648.5V641H1072v7.5H1089.3z
			 M1094.6,610.4v9.5h5.6v4.6h-5.6v10.3h-5.4v-24.3H1094.6z"/>
		<path class="st11" d="M1102.6,621.9c0-1.5,0.3-3,0.8-4.3c0.6-1.3,1.3-2.5,2.3-3.5c1-1,2.2-1.8,3.6-2.4c1.4-0.6,2.9-0.9,4.6-0.9
			c1.9,0,3.6,0.4,5.2,1.1s2.8,1.8,3.8,3h9.1v-4.5h5.5V635h-5.5v-6.2h-8.9c-1,1.3-2.3,2.4-3.9,3.1c-1.6,0.8-3.3,1.1-5.3,1.1
			c-1.7,0-3.2-0.3-4.6-0.8c-1.4-0.6-2.6-1.3-3.6-2.3c-1-1-1.8-2.2-2.3-3.5C1102.9,625,1102.6,623.5,1102.6,621.9z M1114,628.4
			c1.8,0,3.3-0.6,4.3-1.9c1.1-1.3,1.6-2.8,1.6-4.5c0-1.8-0.5-3.3-1.6-4.6c-1.1-1.3-2.5-1.9-4.3-1.9c-1.9,0-3.3,0.6-4.4,1.9
			c-1.1,1.2-1.6,2.8-1.6,4.6c0,1.7,0.5,3.2,1.6,4.5C1110.7,627.8,1112.1,628.4,1114,628.4z M1110,636.7h26.2c0.5,0,0.8,0.1,1,0.3
			c0.2,0.2,0.3,0.6,0.3,1v13.5c0,0.5-0.1,0.9-0.3,1.1c-0.2,0.2-0.6,0.3-1,0.3H1110c-0.5,0-0.9-0.1-1.1-0.3c-0.2-0.2-0.3-0.5-0.3-1.1
			v-13.5c0-0.5,0.1-0.8,0.3-1C1109.1,636.8,1109.5,636.7,1110,636.7z M1132.2,648.5v-7.3H1114v7.3H1132.2z M1125.1,619.4
			c0.1,0.4,0.2,0.8,0.2,1.2s0.1,0.8,0.1,1.2s0,0.8-0.1,1.2c0,0.4-0.1,0.8-0.2,1.1h6.9v-4.8H1125.1z"/>
	</g>
	<g class="st8">
		<path class="st11" d="M1558,648.8h-5.3v-36.4h5.3V648.8z"/>
		<path class="st11" d="M1592.5,622.3h-5.6c-0.3-2.1-1.1-3.6-2.4-4.5c-1.3-0.9-2.9-1.4-4.7-1.4c-1.9,0-3.5,0.4-4.7,1.2
			c-1.3,0.8-2.3,1.9-3,3.3c-0.8,1.3-1.3,2.9-1.6,4.6s-0.5,3.4-0.5,5.2c0,1.8,0.2,3.5,0.5,5.2s0.9,3.2,1.6,4.6c0.7,1.3,1.7,2.4,3,3.2
			c1.3,0.8,2.8,1.2,4.7,1.2c1.8,0,3.4-0.4,4.7-1.3c1.3-0.9,2.2-2.5,2.7-5h5.6c-0.2,1.8-0.7,3.4-1.5,4.8c-0.8,1.4-1.7,2.5-2.9,3.4
			c-1.2,0.9-2.5,1.6-4,2.1c-1.5,0.4-3,0.7-4.7,0.7c-2.7,0-5-0.5-7-1.5c-1.9-1-3.5-2.4-4.8-4.2c-1.2-1.7-2.2-3.7-2.7-6
			c-0.6-2.3-0.9-4.7-0.9-7.2c0-2.4,0.3-4.7,0.9-7c0.6-2.3,1.5-4.3,2.8-6.1s2.8-3.2,4.8-4.2c1.9-1.1,4.2-1.6,6.9-1.6
			c1.5,0,3,0.2,4.5,0.6c1.5,0.4,2.8,1.1,4,1.9s2.2,2,3,3.3C1591.8,618.8,1592.3,620.4,1592.5,622.3z"/>
		<path class="st11" d="M1597.8,612.5h5.4V636c0.1,3,0.8,5.3,2.2,6.8c1.4,1.5,3.3,2.2,5.7,2.2s4.3-0.7,5.7-2.2
			c1.4-1.5,2.1-3.7,2.3-6.8v-23.5h5.4V636c-0.1,2-0.4,3.8-0.9,5.4c-0.6,1.6-1.4,3.1-2.5,4.3s-2.5,2.2-4.2,2.9c-1.6,0.7-3.6,1-5.8,1
			s-4.1-0.3-5.8-1c-1.7-0.7-3.1-1.6-4.2-2.9c-1.1-1.2-1.9-2.6-2.5-4.3c-0.6-1.6-0.8-3.4-0.8-5.4V612.5z"/>
	</g>
	<g class="st8">
		<path class="st11" d="M2061.6,644.5c-2-1.4-4-3.1-5.8-5.1c-1.8-2-3.2-4-4.1-6.1c-0.4,1.1-0.9,2.1-1.5,3.2
			c-0.7,1.1-1.5,2.2-2.4,3.2c-0.9,1.1-1.9,2.1-2.9,3.1c-1,1-2.1,1.9-3.2,2.6l-4.4-3.6c3.9-2.5,6.8-5.5,8.7-9
			c1.9-3.5,2.8-7.4,2.8-11.6v-9.2h5.7v9.5c0,4.2,0.9,7.9,2.7,11.1s4.6,5.9,8.4,8.2L2061.6,644.5z M2068,653.4v-43h5.4v16.2h5.9v4.8
			h-5.9v21.9H2068z"/>
		<path class="st11" d="M2084.5,612.2h17.8c0.5,0,0.8,0.1,1,0.3c0.2,0.2,0.3,0.6,0.3,1v17.3c0,0.5-0.1,0.9-0.3,1.1
			c-0.2,0.2-0.6,0.3-1,0.3h-17.8c-0.5,0-0.9-0.1-1-0.3c-0.2-0.2-0.3-0.5-0.3-1v-17.4c0-0.5,0.1-0.8,0.3-1
			C2083.6,612.3,2083.9,612.2,2084.5,612.2z M2101.5,636.1c2.2,0,4.2,0.2,6,0.6c1.9,0.4,3.5,1,4.8,1.8c1.3,0.8,2.4,1.7,3.2,2.8
			s1.2,2.4,1.2,3.8c0,1.5-0.4,2.8-1.2,3.9c-0.8,1.1-1.8,2.1-3.2,2.8c-1.4,0.8-3,1.3-4.8,1.7c-1.9,0.4-3.9,0.6-6.1,0.6
			s-4.2-0.2-6.1-0.6c-1.8-0.4-3.4-1-4.8-1.7c-1.3-0.8-2.4-1.7-3.1-2.8c-0.8-1.1-1.1-2.4-1.1-3.9c0-1.4,0.4-2.7,1.2-3.8
			c0.8-1.1,1.8-2.1,3.2-2.9c1.4-0.8,3-1.4,4.8-1.8C2097.4,636.3,2099.4,636.1,2101.5,636.1z M2098.3,627.7v-11h-9.8v11H2098.3z
			 M2101.5,640.4c-2.8,0-5,0.4-6.8,1.2s-2.6,2-2.6,3.5c0,1.5,0.9,2.7,2.6,3.6c1.7,0.9,4,1.3,6.7,1.3c2.8,0,5.1-0.4,6.8-1.3
			c1.7-0.9,2.6-2.1,2.6-3.6c0-1.5-0.8-2.7-2.5-3.5C2106.6,640.8,2104.3,640.4,2101.5,640.4z M2110.3,636.3v-25.8h5.4v9.2h5.6v4.6
			h-5.6v12H2110.3z"/>
	</g>
	<g class="st8">
		<path class="st11" d="M2551.4,607.5c0.5,0,0.8,0.1,1,0.3c0.2,0.2,0.3,0.5,0.3,1V622c0,0.4-0.1,0.7-0.2,1c-0.1,0.3-0.4,0.6-0.7,0.8
			c-1.5,1.1-3.2,2-5.1,2.7c-1.9,0.7-3.9,1-6,1c-2.6,0-4.9-0.4-7-1.3c-2-0.9-3.7-2.2-5.1-3.8c-1.4-1.6-2.4-3.6-3.1-5.9
			c-0.7-2.3-1.1-4.9-1.1-7.8c0-2.7,0.4-5.2,1.1-7.5c0.7-2.3,1.7-4.3,3-6c1.3-1.7,3-3,4.9-3.9c1.9-1,4.1-1.4,6.5-1.4
			c1.6,0,3.2,0.2,4.7,0.7c1.5,0.4,2.8,1.1,4,2.1c1.2,0.9,2.1,2,2.9,3.4c0.7,1.4,1.2,3,1.3,4.9h-5.4c-0.4-2.4-1.2-4.1-2.7-5
			c-1.4-0.9-3-1.4-4.8-1.4c-1.8,0-3.3,0.4-4.5,1.1c-1.2,0.8-2.2,1.8-3,3.1c-0.8,1.3-1.3,2.8-1.7,4.5c-0.4,1.7-0.5,3.6-0.5,5.5
			c0,2,0.2,3.9,0.6,5.6c0.4,1.7,1,3.2,1.9,4.5c0.9,1.3,2.1,2.3,3.5,3s3.1,1.1,5.2,1.1c1.3,0,2.5-0.2,3.5-0.6c1-0.4,1.8-0.8,2.4-1.2
			c0,0,0.1,0,0.1,0c0,0,0.1,0,0.1-0.1c0,0,0-0.1,0-0.1c0-0.1,0-0.1,0-0.2V612h-7.8v-4.5H2551.4z"/>
		<path class="st11" d="M2561.2,590.5h8.4c5.9,0,10.4,1.6,13.7,4.7c3.3,3.1,4.9,7.6,4.9,13.5c0,6-1.6,10.5-4.9,13.5
			c-3.3,3.1-7.8,4.6-13.7,4.6h-8.4c-0.5,0-0.9-0.1-1-0.3c-0.2-0.2-0.3-0.5-0.3-1v-33.7c0-0.5,0.1-0.8,0.3-1
			C2560.3,590.6,2560.7,590.5,2561.2,590.5z M2565.3,622.2h5.6c4,0,7-1.2,8.9-3.6c1.9-2.4,2.8-5.7,2.8-10c0-5-1.2-8.5-3.7-10.7
			c-2.5-2.1-6-3.1-10.4-3h-3.2V622.2z"/>
		<path class="st11" d="M2594.6,591.8c0-0.5,0.1-0.8,0.3-1c0.2-0.2,0.5-0.3,1-0.3h10.6c1.7,0,3.2,0.2,4.8,0.7c1.5,0.5,2.8,1.1,3.9,2
			c1.1,0.9,2,2,2.7,3.4c0.7,1.3,1,2.9,1,4.7c0,1.8-0.3,3.4-1,4.7c-0.7,1.3-1.5,2.4-2.6,3.3c-1.1,0.9-2.3,1.6-3.8,2
			c-1.4,0.4-2.9,0.6-4.5,0.6h-7.1v14.8h-5.3V591.8z M2613.4,601.3c0-2.2-0.6-3.8-1.9-4.8c-1.3-1-3.1-1.4-5.4-1.4h-6.1v12.4h6.1
			c2.3,0,4.1-0.5,5.4-1.4C2612.7,605.2,2613.4,603.6,2613.4,601.3z"/>
	</g>
	<g class="st8">
		<path class="st11" d="M2401.2,660.2c0-1.5,0.2-3,0.5-4.6c0.3-1.6,0.8-3.1,1.5-4.7c0.7-1.5,1.5-3,2.4-4.4c0.9-1.4,2-2.8,3.2-4h2.2
			c-2.2,2.9-3.8,5.9-4.9,8.9c-1,3-1.6,6-1.6,8.9c0,2.9,0.5,5.9,1.6,8.9c1,3,2.7,6,4.9,8.9h-2.2c-1.2-1.2-2.2-2.5-3.2-4
			c-0.9-1.4-1.7-2.9-2.4-4.5c-0.6-1.5-1.1-3.1-1.5-4.7C2401.3,663.3,2401.2,661.8,2401.2,660.2z"/>
	</g>
	<g class="st8">
		<path class="st11" d="M2428.1,645.5c0.3,0,0.5,0.1,0.6,0.2c0.1,0.1,0.2,0.3,0.2,0.6c-0.4,4-1.9,7.4-4.5,10.2
			c-2.6,2.8-6,4.9-10.4,6.3l-1.9-2.1c1.6-0.4,3.1-1,4.6-1.7c1.5-0.7,2.8-1.6,4-2.6c1.2-1,2.2-2.2,3.1-3.6c0.9-1.4,1.5-2.9,1.8-4.7
			h-11.7v-2.6H2428.1z M2418.1,664.3h19.1c0.3,0,0.5,0.1,0.6,0.2c0.1,0.1,0.2,0.3,0.2,0.6v10.6c0,0.3-0.1,0.5-0.2,0.6
			s-0.3,0.2-0.6,0.2h-19.1c-0.3,0-0.5-0.1-0.6-0.2c-0.1-0.1-0.2-0.3-0.2-0.6v-10.6c0-0.3,0.1-0.5,0.2-0.6
			C2417.6,664.4,2417.8,664.3,2418.1,664.3z M2420.2,674h14.8v-7.3l-14.8,0V674z M2442.3,654.2h-4.6v8.3h-2.9V644h2.9v7.6h4.6V654.2
			z"/>
		<path class="st11" d="M2445,652.6c0-1.1,0.2-2.2,0.6-3.2c0.4-1,1-1.9,1.8-2.6c0.7-0.7,1.6-1.3,2.7-1.8c1-0.4,2.2-0.7,3.5-0.7
			c1.5,0,2.8,0.3,4,0.9s2.1,1.4,2.9,2.4h7.8V644h2.9v18.6h-2.9v-5.1h-7.7c-0.7,1-1.7,1.9-2.9,2.5c-1.2,0.6-2.6,0.9-4,0.9
			c-1.3,0-2.4-0.2-3.5-0.6c-1-0.4-1.9-1-2.7-1.8c-0.8-0.7-1.4-1.6-1.8-2.6S2445,653.8,2445,652.6z M2448,652.6c0,1.6,0.5,2.9,1.4,4
			c1,1.1,2.3,1.7,4.1,1.7c1.7,0,3.1-0.6,4-1.7c1-1.1,1.4-2.5,1.4-4c0-1.6-0.5-2.9-1.4-4c-1-1.1-2.3-1.7-4-1.7
			c-1.8,0-3.1,0.6-4.1,1.7C2448.4,649.7,2448,651.1,2448,652.6z M2450.6,664.4h19.7c0.3,0,0.5,0.1,0.6,0.2c0.1,0.1,0.2,0.3,0.2,0.6
			v10.5c0,0.3-0.1,0.5-0.2,0.6c-0.1,0.1-0.3,0.2-0.6,0.2h-19.7c-0.3,0-0.5-0.1-0.6-0.2c-0.1-0.1-0.2-0.3-0.2-0.6v-10.5
			c0-0.3,0.1-0.5,0.2-0.6C2450.1,664.5,2450.3,664.4,2450.6,664.4z M2452.8,674h15.4v-7.2h-15.4V674z M2461.7,650.2
			c0.1,0.4,0.2,0.8,0.3,1.2c0.1,0.4,0.1,0.8,0.1,1.3c0,0.4,0,0.8-0.1,1.2c-0.1,0.4-0.1,0.8-0.2,1.1h6.5v-4.8H2461.7z"/>
		<path class="st11" d="M2493.4,660.6c0,0.3-0.1,0.5-0.2,0.6c-0.1,0.1-0.3,0.2-0.6,0.2h-13.2c-0.3,0-0.5-0.1-0.6-0.2
			c-0.1-0.1-0.2-0.3-0.2-0.6v-15.4h2.9v5.4h9.1v-5.4h2.8v3.8h7.1V644h2.9v20.3h-2.9V658h-7.1V660.6z M2481.1,671c0-2,1-3.6,3-4.8
			c2-1.2,4.8-1.8,8.3-1.8s6.2,0.6,8.3,1.8c2,1.2,3.1,2.8,3.1,4.8c0,2-1,3.6-3.1,4.7c-2,1.1-4.8,1.7-8.3,1.7c-3.5,0-6.3-0.6-8.3-1.7
			C2482.1,674.6,2481.1,673,2481.1,671z M2481.5,658.9h9.1v-5.8h-9.1V658.9z M2484.2,671c0,1.3,0.8,2.4,2.3,3.1
			c1.5,0.7,3.5,1.1,5.9,1.1c2.4,0,4.4-0.4,5.9-1.1s2.3-1.7,2.3-3c0-1.3-0.8-2.4-2.3-3.1s-3.5-1.1-5.9-1.1c-2.4,0-4.4,0.4-5.9,1.1
			C2485,668.6,2484.2,669.6,2484.2,671z M2493.4,651.4v4.2h7.1v-4.2H2493.4z"/>
	</g>
	<g class="st8">
		<path class="st11" d="M2529.8,651.4c2.4,0,4.3,0.4,5.8,1.2c1.5,0.8,2.2,1.9,2.2,3.3c0,1.2-0.6,2.1-1.8,3c-1.2,0.8-2.7,1.3-4.6,1.5
			v2.7c0.6,0,1.4,0,2.2-0.1c0.9,0,1.7-0.1,2.6-0.2c0.9-0.1,1.8-0.2,2.6-0.2c0.9-0.1,1.6-0.2,2.2-0.3v2.3c-0.8,0.1-1.7,0.3-2.8,0.4
			c-1,0.1-2.1,0.2-3.2,0.3c-1.1,0.1-2.2,0.1-3.4,0.2c-1.1,0-2.2,0-3.2,0h-9.4V663h9.2v-2.7c-1.9-0.1-3.5-0.6-4.7-1.5
			c-1.2-0.8-1.8-1.8-1.8-3c0-1.4,0.7-2.4,2.2-3.3C2525.5,651.8,2527.4,651.4,2529.8,651.4z M2520.6,647.7h18.1v2.1h-18.1V647.7z
			 M2544.3,668.4c0.3,0,0.5,0.1,0.6,0.2c0.1,0.1,0.2,0.3,0.2,0.6v7.8h-3v-6.3h-18.9v-2.4H2544.3z M2529.8,653.4
			c-1.5,0-2.7,0.2-3.6,0.7c-0.9,0.5-1.3,1.1-1.3,1.9c0,0.7,0.4,1.3,1.3,1.8c0.9,0.4,2.1,0.6,3.6,0.6s2.7-0.2,3.6-0.6
			c0.9-0.4,1.3-1,1.3-1.8c0-0.8-0.4-1.4-1.3-1.9C2532.5,653.7,2531.3,653.4,2529.8,653.4z M2525.1,643.9h9.2v2.1h-9.2V643.9z
			 M2545.2,644v10.3h4.6v2.6h-4.6v9.8h-2.8V644H2545.2z"/>
		<path class="st11" d="M2568.5,662.2c-0.7-0.3-1.4-0.7-2.2-1.2c-0.8-0.5-1.5-1.1-2.3-1.7c-0.7-0.7-1.4-1.4-2.1-2.2
			c-0.7-0.8-1.2-1.6-1.6-2.5c-0.3,1-0.8,1.9-1.4,2.7c-0.6,0.8-1.3,1.6-2,2.4c-0.7,0.7-1.5,1.4-2.3,2c-0.8,0.6-1.6,1.1-2.5,1.6
			l-2.3-2c1.2-0.6,2.3-1.3,3.4-2.1c1.1-0.8,2-1.7,2.8-2.7c0.8-1,1.5-2.1,1.9-3.4c0.5-1.2,0.7-2.6,0.7-4.1v-4.1h3.1v3.8
			c0,1.4,0.2,2.7,0.7,3.9c0.5,1.2,1.1,2.3,1.9,3.2c0.8,1,1.7,1.8,2.7,2.5c1,0.7,2.1,1.3,3.2,1.7L2568.5,662.2z M2556.3,665.7h2.9v8
			h18.6v2.5h-20.8c-0.3,0-0.5-0.1-0.6-0.2c-0.1-0.1-0.2-0.3-0.2-0.6V665.7z M2576.9,644v9.8h4.5v2.6h-4.5v11.7h-2.9v-24H2576.9z"/>
	</g>
	<g class="st8">
		<path class="st11" d="M2595.4,657.3c0-2.1,0.2-4,0.6-5.6c0.4-1.6,1-2.9,1.7-3.9c0.7-1,1.6-1.8,2.6-2.3c1-0.5,2.1-0.7,3.2-0.7
			c1.1,0,2.1,0.3,3.1,0.8c1,0.5,1.9,1.3,2.6,2.3c0.7,1,1.3,2.3,1.8,3.9c0.4,1.6,0.6,3.4,0.6,5.5s-0.2,4-0.6,5.5s-1,2.8-1.8,3.9
			c-0.7,1-1.6,1.8-2.6,2.3c-1,0.5-2,0.8-3.1,0.8c-1.1,0-2.2-0.2-3.2-0.7c-1-0.5-1.9-1.3-2.6-2.3c-0.7-1-1.3-2.3-1.7-3.9
			C2595.6,661.2,2595.4,659.4,2595.4,657.3z M2598.3,657.3c0,1.3,0.1,2.6,0.3,3.8c0.2,1.2,0.5,2.2,0.9,3.1c0.4,0.9,1,1.6,1.6,2.1
			c0.7,0.5,1.4,0.8,2.3,0.8c0.9,0,1.7-0.3,2.3-0.8c0.6-0.5,1.2-1.2,1.6-2.1c0.4-0.9,0.7-1.9,0.9-3.1c0.2-1.2,0.3-2.5,0.3-3.8
			c0-1.3-0.1-2.6-0.3-3.7c-0.2-1.2-0.5-2.2-0.9-3.1c-0.4-0.9-1-1.6-1.6-2.1c-0.7-0.5-1.4-0.8-2.3-0.8c-0.9,0-1.7,0.3-2.4,0.8
			c-0.7,0.5-1.2,1.3-1.6,2.2c-0.4,0.9-0.8,2-1,3.1C2598.4,654.8,2598.3,656,2598.3,657.3z M2621,644v32.9h-2.9V644H2621z"/>
		<path class="st11" d="M2628.4,645.5h16v2.5h-6.5v2c0,1.2,0.2,2.4,0.6,3.4c0.4,1,0.9,2,1.6,2.8c0.8,1.1,1.8,2,2.9,2.8
			s2.3,1.3,3.4,1.7c-0.3,0.3-0.7,0.7-1.1,1.1c-0.4,0.4-0.7,0.8-0.9,1.1c-0.7-0.3-1.4-0.7-2.2-1.2s-1.5-1.1-2.3-1.8
			c-0.7-0.6-1.4-1.3-2-2c-0.6-0.8-1.2-1.6-1.6-2.5c-0.3,0.9-0.8,1.8-1.3,2.6s-1.1,1.5-1.8,2.2c-0.7,0.7-1.5,1.4-2.4,2
			c-0.9,0.6-1.7,1.1-2.6,1.6c-0.2-0.2-0.6-0.6-1.1-1c-0.5-0.4-0.9-0.8-1.2-1c1.3-0.6,2.6-1.3,3.8-2.2s2.2-1.9,3-3.1
			c0.6-0.9,1.2-1.9,1.5-3c0.4-1.1,0.6-2.3,0.6-3.6v-2h-6.5V645.5z M2633.4,676.1c-0.3,0-0.5-0.1-0.6-0.2s-0.2-0.3-0.2-0.6v-9.7h3v8
			h19.1v2.5H2633.4z M2650.9,644h2.9v24h-2.9v-13.7h-6.8v-2.6h6.8V644z"/>
	</g>
	<g class="st8">
		<path class="st11" d="M2672.3,646.1h10.4v2.5h-8.3v17.2h0.7c0.7,0,1.4,0,2.3,0c0.9,0,1.7-0.1,2.6-0.1c0.9-0.1,1.7-0.2,2.6-0.2
			c0.8-0.1,1.6-0.2,2.2-0.3v2.6c-1.5,0.2-3.2,0.5-5.1,0.6c-1.9,0.2-3.8,0.2-5.7,0.2h-1.7c-0.3,0-0.5,0-0.6-0.1
			c-0.1-0.1-0.1-0.3-0.1-0.6v-20.8c0-0.3,0.1-0.5,0.2-0.6C2671.8,646.2,2672,646.1,2672.3,646.1z M2689.3,644.6v11.2h4.4V644h2.8
			v32.8h-2.8v-18.2h-4.4v16.7h-2.8v-30.7H2689.3z"/>
		<path class="st11" d="M2703.7,667.9v-22.3h2.9v8.5h9.3v-8.5h2.8v22.3c0,0.3-0.1,0.5-0.2,0.6c-0.1,0.1-0.3,0.2-0.6,0.2h-13.5
			c-0.3,0-0.5-0.1-0.6-0.2C2703.7,668.4,2703.7,668.2,2703.7,667.9z M2706.6,666.2h9.3v-9.5h-9.3V666.2z M2728.2,644v32.8h-2.9V644
			H2728.2z"/>
	</g>
	<g class="st8">
		<path class="st11" d="M2741.5,660.2c0,1.5-0.2,3.1-0.5,4.7c-0.3,1.6-0.8,3.1-1.5,4.7c-0.7,1.6-1.5,3-2.4,4.5c-0.9,1.4-2,2.8-3.1,4
			h-2.2c2.2-2.9,3.8-5.8,4.8-8.9c1.1-3,1.6-6,1.6-8.9c0-2.9-0.5-5.8-1.6-8.9c-1.1-3-2.7-6-4.8-8.9h2.2c1.2,1.2,2.2,2.6,3.1,4
			c0.9,1.4,1.7,2.9,2.4,4.4c0.6,1.6,1.1,3.1,1.5,4.7C2741.4,657.2,2741.5,658.7,2741.5,660.2z"/>
	</g>
	<path class="st4" d="M437,932.8V722.2c0-7.3,5.9-13.2,13.2-13.2H855v237H450.2C442.9,946,437,940.1,437,932.8z"/>
	<g class="st8">
		<path class="st12" d="M604,781.2h-14.4v12.3h-4.7v-12.3h-14.7v-3.9H604V781.2z M573.9,757.9h26.2v3.9h-10.5
			c0.2,1.1,0.8,2.2,1.5,3.1c0.8,0.9,1.8,1.8,2.9,2.5c1.1,0.7,2.5,1.4,3.9,1.9c1.5,0.5,3,1,4.6,1.3l-2.9,3.3
			c-1.1-0.3-2.3-0.6-3.6-1.1s-2.4-1-3.5-1.6c-1.1-0.6-2.2-1.3-3.2-2.1c-1-0.8-1.8-1.7-2.4-2.7c-1.1,1.7-2.8,3.2-4.9,4.4
			c-2.1,1.3-4.7,2.3-7.7,3l-3.2-3.4c1.6-0.4,3.2-0.8,4.7-1.3c1.5-0.5,2.8-1.1,3.9-1.8c1.2-0.7,2.2-1.6,2.9-2.5
			c0.8-0.9,1.3-2,1.6-3.2h-10.5V757.9z"/>
		<path class="st12" d="M624.6,758.3c0.4,0,0.7,0.1,0.9,0.3c0.2,0.2,0.3,0.5,0.3,0.9c-0.4,4.9-2,9.1-4.7,12.4
			c-2.7,3.4-6.7,6-11.8,7.8l-2.9-3.4c4.3-1.3,7.6-3.1,10-5.5c2.4-2.3,3.9-5.2,4.4-8.5h-12.1v-3.9H624.6z M613.2,792.8
			c-0.4,0-0.7-0.1-0.9-0.2c-0.2-0.2-0.2-0.5-0.2-0.9v-10.7h4.8v8H637v3.9H613.2z M640.8,771.3H636v11.9h-4.6v-26.4h4.6v10.6h4.8
			V771.3z"/>
	</g>
	<g class="st8">
		<path class="st12" d="M655.1,762.1h21.4v3.4h-21.4V762.1z M665.8,777.8c-3.1,0-5.4-0.5-7.1-1.6s-2.5-2.4-2.5-3.9
			c0-1.5,0.8-2.8,2.5-3.9c1.6-1.1,4-1.6,7.1-1.6c3.1,0,5.4,0.5,7.1,1.6c1.7,1.1,2.5,2.4,2.5,3.9c0,1.5-0.8,2.8-2.5,3.9
			C671.2,777.3,668.8,777.8,665.8,777.8z M660,756.6h11.4v3.4H660V756.6z M660.1,792v-12.5h4.6v3.2h14.7v-3.2h4.6V792
			c0,0.4-0.1,0.7-0.3,0.9c-0.2,0.2-0.5,0.2-0.9,0.2h-21.6c-0.4,0-0.7-0.1-0.9-0.2S660.1,792.5,660.1,792z M665.8,769.9
			c-1.4,0-2.6,0.2-3.5,0.7c-0.9,0.4-1.3,1-1.3,1.8c0,0.8,0.4,1.4,1.3,1.7c0.9,0.4,2,0.5,3.5,0.5c1.4,0,2.6-0.2,3.5-0.5
			c0.9-0.4,1.3-0.9,1.3-1.7c0-0.7-0.4-1.3-1.3-1.8S667.2,769.9,665.8,769.9z M679.4,789.6v-3.4h-14.7v3.4H679.4z M684,756.8v9h4.8
			v3.9H684v8.3h-4.6v-21.2H684z"/>
		<path class="st12" d="M704.1,759.2c0.4,0,0.7,0.1,0.9,0.3s0.3,0.5,0.3,0.9c0,0.7-0.1,1.4-0.1,2s-0.1,1.3-0.1,1.9h4.4v-6.9h4.5
			v34.4h-4.5v-13.5h-5.7v-4h5.7v-5.9h-5c-0.7,3.7-2,7-3.8,9.9c-1.8,3-4.1,5.6-7.1,7.8l-4.1-2.7c3.7-2.5,6.4-5.4,8.2-8.8
			c1.8-3.4,2.7-7.2,2.8-11.5h-9v-3.9H704.1z M716.6,793.5v-36.7h4.5v36.7H716.6z"/>
	</g>
	<g class="st8">
		<path class="st12" d="M581.4,874.5h16v2.5h-6.5v2c0,1.2,0.2,2.4,0.6,3.4c0.4,1,0.9,2,1.6,2.8c0.8,1.1,1.8,2,2.9,2.8
			c1.1,0.8,2.3,1.3,3.4,1.7c-0.3,0.3-0.7,0.7-1.1,1.1c-0.4,0.4-0.7,0.8-0.9,1.1c-0.7-0.3-1.4-0.7-2.2-1.2s-1.5-1.1-2.3-1.8
			c-0.7-0.6-1.4-1.3-2-2c-0.6-0.8-1.2-1.6-1.6-2.5c-0.3,0.9-0.8,1.8-1.3,2.6c-0.5,0.8-1.1,1.5-1.8,2.2c-0.7,0.7-1.5,1.4-2.4,2
			s-1.7,1.1-2.6,1.6c-0.2-0.2-0.6-0.6-1.1-1c-0.5-0.4-0.9-0.8-1.2-1c1.3-0.6,2.6-1.3,3.8-2.2c1.2-0.9,2.2-1.9,3-3.1
			c0.6-0.9,1.2-1.9,1.5-3c0.4-1.1,0.6-2.3,0.6-3.6v-2h-6.5V874.5z M586.3,905.1c-0.3,0-0.5-0.1-0.6-0.2c-0.1-0.1-0.2-0.3-0.2-0.6
			v-9.7h3v8h19.1v2.5H586.3z M603.9,873h2.9v24h-2.9v-13.7H597v-2.6h6.8V873z"/>
		<path class="st12" d="M641.2,894h-13.5v11.9h-3V894h-13.5v-2.5h30V894z M637.8,888.2c-1-0.2-2-0.5-3.1-1c-1.1-0.4-2.2-0.9-3.3-1.6
			c-1.1-0.6-2.1-1.4-3-2.2c-0.9-0.9-1.7-1.8-2.2-2.9c-0.6,1-1.3,2-2.2,2.8c-0.9,0.8-1.8,1.5-2.8,2.1c-1,0.6-2.1,1.2-3.2,1.6
			c-1.1,0.4-2.3,0.8-3.4,1.1l-2.1-2.2c1.6-0.3,3-0.8,4.5-1.3c1.4-0.6,2.7-1.2,3.8-2c1.1-0.8,2-1.7,2.6-2.7s1.1-2.1,1.2-3.3h-9.7
			v-2.5h22.6v2.6h-9.7c0.1,1.3,0.5,2.5,1.3,3.5s1.7,1.9,2.9,2.7c1.2,0.8,2.4,1.4,3.8,1.9c1.4,0.5,2.7,0.9,4,1.1L637.8,888.2z"/>
	</g>
	<g class="st8">
		<path class="st12" d="M656.9,875.1h10.4v2.5H659v17.2h0.7c0.7,0,1.4,0,2.3,0c0.9,0,1.7-0.1,2.6-0.1c0.9-0.1,1.7-0.2,2.6-0.2
			c0.8-0.1,1.6-0.2,2.2-0.3v2.6c-1.5,0.2-3.2,0.5-5.1,0.6c-1.9,0.2-3.8,0.2-5.7,0.2h-1.7c-0.3,0-0.5,0-0.6-0.1
			c-0.1-0.1-0.1-0.3-0.1-0.6v-20.8c0-0.3,0.1-0.5,0.2-0.6S656.6,875.1,656.9,875.1z M673.9,873.6v11.2h4.4V873h2.8v32.8h-2.8v-18.2
			h-4.4v16.7h-2.8v-30.7H673.9z"/>
		<path class="st12" d="M688.3,896.9v-22.3h2.9v8.5h9.3v-8.5h2.8v22.3c0,0.3-0.1,0.5-0.2,0.6c-0.1,0.1-0.3,0.2-0.6,0.2h-13.5
			c-0.3,0-0.5-0.1-0.6-0.2C688.4,897.4,688.3,897.2,688.3,896.9z M691.3,895.2h9.3v-9.5h-9.3V895.2z M712.8,873v32.8H710V873H712.8z
			"/>
	</g>
	<path class="st7" d="M1345.5,852.5v69.3"/>
	<path class="st7" d="M1835.5,852.5v69.3"/>
	<path class="st7" d="M2325.5,852.5v69.3"/>
	<path class="st13" d="M438,985.2c0-8.9,7.2-16.2,16.2-16.2h2344.7c8.9,0,16.2,7.2,16.2,16.2v64.7c0,8.9-7.2,16.2-16.2,16.2H454.2
		c-8.9,0-16.2-7.2-16.2-16.2V985.2z"/>
	<g class="st8">
		<path class="st11" d="M563.7,1017c0-1.8,0.2-3.6,0.5-5.4c0.3-1.8,0.9-3.6,1.6-5.3c0.7-1.7,1.5-3.3,2.5-4.8c1-1.5,2.2-2.9,3.5-4.1
			h3.6c-2.7,3.5-4.5,6.9-5.4,10.1c-0.9,3.3-1.4,6.4-1.4,9.5c0,3,0.5,6.2,1.4,9.5c0.9,3.3,2.7,6.7,5.4,10.1h-3.6
			c-1.3-1.2-2.5-2.5-3.5-4c-1-1.5-1.9-3.1-2.5-4.8c-0.7-1.7-1.2-3.5-1.6-5.3C563.9,1020.6,563.7,1018.8,563.7,1017z"/>
	</g>
	<g class="st8">
		<path class="st11" d="M590.5,1035.5v-12.6h-14.6v-3.9h33.8v3.9h-14.5v12.6H590.5z M581.1,1014.5c-0.4,0-0.7-0.1-0.9-0.2
			c-0.2-0.2-0.2-0.5-0.2-0.9v-13.5h4.6v10.7h21.8v3.9H581.1z"/>
		<path class="st11" d="M614.3,1000.4h18.2v3.9h-6.7v1.6c0,1.2,0.2,2.3,0.6,3.4c0.4,1.1,1,2,1.8,2.9c0.8,0.9,1.7,1.6,2.7,2.3
			c1.1,0.7,2.2,1.2,3.5,1.6l-2.9,3.4c-1.7-0.7-3.3-1.7-4.9-2.9c-1.5-1.2-2.7-2.4-3.4-3.7c-0.3,0.7-0.7,1.4-1.3,2.1
			c-0.6,0.7-1.3,1.4-2,2c-0.8,0.7-1.6,1.3-2.5,1.9c-0.9,0.6-1.8,1.1-2.7,1.5l-3.4-3.1c3-1.2,5.3-2.8,7-4.8c1.7-2,2.5-4.2,2.5-6.7
			v-1.4h-6.6V1000.4z M642.2,1022.5c0.4,0,0.7,0.1,0.9,0.3c0.2,0.2,0.3,0.5,0.3,0.9v12.1h-4.6v-9.4h-20.6v-3.9H642.2z M631.9,1006.9
			h6.8v-8.1h4.6v22.1h-4.6v-10h-6.8V1006.9z"/>
		<path class="st11" d="M666.8,1015.3c0,0.4-0.1,0.7-0.3,0.9s-0.5,0.2-0.9,0.2h-15.2c-0.4,0-0.7-0.1-0.9-0.2
			c-0.2-0.2-0.2-0.5-0.2-0.9v-15.5h4.6v4.8h8.3v-4.8h4.5V1015.3z M654.4,1025.5h17.9v-2.7h-19.1v-3.6H676c0.4,0,0.7,0.1,0.9,0.3
			s0.3,0.5,0.3,0.9v7.3c0,0.4-0.1,0.7-0.3,0.9s-0.5,0.2-0.9,0.2h-17.9v2.9H678v3.6h-23.7c-0.4,0-0.7-0.1-0.9-0.2
			c-0.2-0.2-0.2-0.5-0.2-0.9v-7.5c0-0.4,0.1-0.7,0.2-0.9C653.6,1025.6,653.9,1025.5,654.4,1025.5z M662.3,1012.7v-4.3h-8.3v4.3
			H662.3z M681.9,1009.4h-4.7v8.4h-4.7v-19h4.7v6.6h4.7V1009.4z"/>
		<path class="st11" d="M682.1,1016.6c2.5-1.5,4.4-3.4,5.8-5.6c1.4-2.2,2-4.9,2-8.1v-3.2h4.8v3.2c0,2.9,0.6,5.3,1.7,7.3s3,3.6,5.4,5
			l-3,3.2c-1.4-0.9-2.6-1.9-3.8-3.1c-1.2-1.2-2-2.4-2.6-3.7c-0.6,1.4-1.4,2.8-2.6,4.2c-1.1,1.4-2.5,2.7-4.1,3.8L682.1,1016.6z
			 M701.9,1020.7c1.9,0,3.7,0.2,5.3,0.5c1.6,0.4,3.1,0.9,4.3,1.5c1.2,0.7,2.1,1.5,2.8,2.4c0.7,1,1,2,1,3.3c0,1.3-0.3,2.4-1,3.3
			c-0.7,1-1.6,1.8-2.8,2.4c-1.2,0.7-2.6,1.1-4.2,1.5s-3.4,0.5-5.4,0.5c-1.9,0-3.7-0.2-5.3-0.5c-1.6-0.3-3-0.8-4.2-1.5
			c-1.2-0.7-2.1-1.5-2.8-2.4c-0.7-1-1-2.1-1-3.3c0-1.2,0.3-2.3,1-3.2c0.7-1,1.6-1.8,2.8-2.5c1.2-0.7,2.6-1.2,4.2-1.5
			C698.3,1020.9,700.1,1020.7,701.9,1020.7z M701.9,1024.3c-2.4,0-4.4,0.4-6,1.1c-1.6,0.7-2.3,1.7-2.3,3c0,1.3,0.8,2.3,2.4,3.1
			s3.6,1.1,6,1.1c2.5,0,4.6-0.4,6.1-1.1c1.6-0.8,2.3-1.8,2.3-3c0-1.3-0.8-2.3-2.3-3C706.5,1024.7,704.4,1024.3,701.9,1024.3z
			 M707.3,999.4v7.3h3.2v-7.9h4.5v22.3h-4.5v-10.2h-3.2v8.9h-4.5v-20.5H707.3z"/>
	</g>
	<g class="st8">
		<path class="st11" d="M730.8,1017c0,1.8-0.2,3.7-0.5,5.5c-0.4,1.8-0.9,3.6-1.6,5.3c-0.7,1.7-1.5,3.3-2.5,4.8c-1,1.5-2.2,2.8-3.5,4
			h-3.6c2.7-3.4,4.4-6.8,5.4-10.1c0.9-3.3,1.4-6.5,1.4-9.5c0-3-0.5-6.2-1.4-9.5c-0.9-3.3-2.7-6.7-5.4-10.1h3.6
			c1.3,1.2,2.5,2.6,3.5,4.1c1,1.5,1.9,3.1,2.5,4.8c0.7,1.7,1.2,3.5,1.6,5.3C730.6,1013.3,730.8,1015.2,730.8,1017z"/>
	</g>
	<path class="st7" d="M1835.5,979.5v69.3"/>
	<g class="st8">
		<path class="st11" d="M1477.3,1000.7c0.3,0,0.6,0.1,0.7,0.2s0.2,0.3,0.2,0.7c-0.5,4.5-2.1,8.2-5,11.3c-2.8,3-6.7,5.4-11.5,7
			l-2.1-2.3c1.7-0.5,3.4-1.1,5-1.9c1.6-0.8,3.1-1.8,4.5-2.9c1.3-1.1,2.5-2.5,3.4-4c1-1.5,1.6-3.2,2-5.2h-13v-2.8H1477.3z
			 M1466.3,1021.5h21.1c0.3,0,0.6,0.1,0.7,0.2s0.2,0.3,0.2,0.7v11.7c0,0.3-0.1,0.6-0.2,0.7s-0.3,0.2-0.7,0.2h-21.1
			c-0.3,0-0.6-0.1-0.7-0.2s-0.2-0.3-0.2-0.7v-11.7c0-0.3,0.1-0.6,0.2-0.7S1465.9,1021.5,1466.3,1021.5z M1468.6,1032.3h16.4v-8.1
			l-16.4,0V1032.3z M1493.2,1010.3h-5v9.2h-3.2V999h3.2v8.4h5V1010.3z"/>
		<path class="st11" d="M1496.1,1008.6c0-1.3,0.2-2.4,0.7-3.6c0.5-1.1,1.1-2.1,1.9-2.9c0.8-0.8,1.8-1.5,3-2c1.2-0.5,2.4-0.7,3.8-0.7
			c1.6,0,3.1,0.3,4.4,1s2.4,1.6,3.2,2.7h8.7V999h3.2v20.6h-3.2v-5.7h-8.6c-0.8,1.1-1.9,2.1-3.2,2.7c-1.3,0.7-2.8,1-4.5,1
			c-1.4,0-2.7-0.2-3.8-0.7c-1.2-0.5-2.2-1.1-3-1.9c-0.8-0.8-1.5-1.8-1.9-2.9C1496.3,1011,1496.1,1009.8,1496.1,1008.6z
			 M1499.4,1008.5c0,1.8,0.5,3.2,1.6,4.5c1.1,1.2,2.6,1.8,4.6,1.8c1.9,0,3.4-0.6,4.5-1.8c1.1-1.2,1.6-2.7,1.6-4.5
			c0-1.7-0.5-3.2-1.6-4.4c-1.1-1.2-2.6-1.9-4.5-1.9c-2,0-3.5,0.6-4.6,1.9C1499.9,1005.3,1499.4,1006.8,1499.4,1008.5z
			 M1502.3,1021.6h21.9c0.3,0,0.6,0.1,0.7,0.2c0.1,0.1,0.2,0.3,0.2,0.7v11.6c0,0.3-0.1,0.6-0.2,0.7c-0.1,0.1-0.3,0.2-0.7,0.2h-21.9
			c-0.3,0-0.6-0.1-0.7-0.2s-0.2-0.3-0.2-0.7v-11.6c0-0.3,0.1-0.6,0.2-0.7S1502,1021.6,1502.3,1021.6z M1504.7,1032.3h17.1v-8h-17.1
			V1032.3z M1514.6,1005.8c0.1,0.4,0.2,0.9,0.3,1.4c0.1,0.5,0.1,0.9,0.1,1.4c0,0.5,0,0.9-0.1,1.3c-0.1,0.4-0.2,0.8-0.3,1.2h7.2v-5.3
			H1514.6z"/>
	</g>
	<g class="st8">
		<path class="st11" d="M1532.4,1017c0-1.7,0.2-3.4,0.6-5.1c0.4-1.7,0.9-3.5,1.6-5.2c0.7-1.7,1.6-3.3,2.6-4.9c1-1.6,2.2-3.1,3.5-4.4
			h2.5c-2.4,3.2-4.2,6.5-5.4,9.9c-1.2,3.4-1.7,6.6-1.7,9.8c0,3.2,0.6,6.5,1.7,9.9c1.2,3.4,3,6.6,5.4,9.8h-2.5
			c-1.3-1.3-2.5-2.8-3.5-4.4c-1-1.6-1.9-3.2-2.6-5c-0.7-1.7-1.3-3.4-1.6-5.2C1532.6,1020.4,1532.4,1018.7,1532.4,1017z"/>
	</g>
	<g class="st8">
		<path class="st11" d="M1562.9,1001.5v2.3h8V999h3.2v22h-3.2v-6.8h-8v2.7c0,0.3-0.1,0.6-0.2,0.7s-0.3,0.2-0.7,0.2h-14.6
			c-0.3,0-0.6-0.1-0.7-0.2s-0.2-0.3-0.2-0.7v-15.3c0-0.3,0.1-0.6,0.2-0.7s0.3-0.2,0.7-0.2h14.6c0.3,0,0.6,0.1,0.7,0.2
			S1562.9,1001.2,1562.9,1001.5z M1549.4,1028.7c0-2.2,1.1-4,3.4-5.3c2.3-1.3,5.3-2,9.2-2s6.9,0.7,9.2,2c2.3,1.3,3.4,3.1,3.4,5.3
			c0,2.2-1.1,4-3.4,5.3c-2.3,1.3-5.4,1.9-9.2,1.9c-3.9,0-6.9-0.7-9.2-1.9S1549.4,1031,1549.4,1028.7z M1549.8,1015h10v-11.5h-10
			V1015z M1552.8,1028.7c0,1.5,0.9,2.6,2.6,3.5s3.9,1.3,6.6,1.3c2.7,0,4.9-0.4,6.6-1.2c1.7-0.8,2.6-1.9,2.6-3.4
			c0-1.5-0.9-2.6-2.6-3.5c-1.7-0.8-4-1.3-6.6-1.3c-2.7,0-4.9,0.4-6.6,1.2C1553.7,1026.1,1552.8,1027.2,1552.8,1028.7z
			 M1562.9,1006.6v4.8h8v-4.8H1562.9z"/>
	</g>
	<g class="st8">
		<path class="st11" d="M1589.4,1017c0,1.7-0.2,3.4-0.6,5.2c-0.4,1.8-0.9,3.5-1.6,5.2c-0.7,1.7-1.6,3.4-2.6,5c-1,1.6-2.2,3-3.5,4.4
			h-2.5c2.4-3.2,4.2-6.4,5.4-9.8c1.2-3.4,1.8-6.7,1.8-9.9c0-3.2-0.6-6.4-1.8-9.8c-1.2-3.4-3-6.7-5.4-9.9h2.5
			c1.3,1.4,2.4,2.8,3.5,4.4c1,1.6,1.9,3.2,2.6,4.9c0.7,1.7,1.3,3.5,1.6,5.2C1589.2,1013.6,1589.4,1015.3,1589.4,1017z"/>
	</g>
	<g class="st8">
		<path class="st11" d="M2447.5,1007.8c0,1.9,0.2,3.6,0.6,5.3c0.4,1.6,1,3.1,1.8,4.4c0.9,1.5,2,2.9,3.3,4.2c1.3,1.2,2.7,2.3,4.4,3.3
			c-0.2,0.2-0.4,0.4-0.7,0.6c-0.2,0.2-0.5,0.4-0.7,0.6c-0.2,0.2-0.4,0.4-0.6,0.6s-0.4,0.4-0.5,0.5c-0.8-0.6-1.7-1.2-2.6-2
			c-0.9-0.8-1.7-1.6-2.5-2.5c-0.8-1-1.6-2-2.3-3.2c-0.7-1.1-1.3-2.4-1.8-3.7c-0.3,1.2-0.8,2.4-1.5,3.6c-0.7,1.2-1.4,2.3-2.2,3.4
			c-0.8,1.1-1.8,2.1-2.7,3.1c-1,0.9-1.9,1.7-2.8,2.3c-0.3-0.3-0.8-0.7-1.3-1.1c-0.5-0.4-1.1-0.8-1.5-1.1c1.6-1,3.1-2.2,4.4-3.5
			c1.3-1.4,2.4-2.8,3.3-4.4c0.8-1.6,1.5-3.2,1.9-5.1c0.4-1.8,0.7-3.7,0.7-5.8v-6.8h3.4V1007.8z M2463.8,1035.4h-3.2V999h3.2v13.9
			h5.4v2.9h-5.4V1035.4z"/>
		<path class="st11" d="M2472.9,1016.1v-14.6c0-0.3,0.1-0.6,0.2-0.7s0.3-0.2,0.7-0.2h14.8c0.3,0,0.6,0.1,0.7,0.2s0.2,0.3,0.2,0.7
			v14.6c0,0.3-0.1,0.6-0.2,0.7s-0.3,0.2-0.7,0.2h-14.8c-0.3,0-0.6-0.1-0.7-0.2S2472.9,1016.5,2472.9,1016.1z M2488.2,1035.9
			c-1.9,0-3.6-0.2-5.1-0.5c-1.5-0.3-2.8-0.8-3.9-1.5c-1.1-0.6-1.9-1.4-2.5-2.3s-0.9-1.9-0.9-3.1c0-1.1,0.3-2.1,0.9-3
			c0.6-0.9,1.4-1.7,2.5-2.3c1.1-0.7,2.4-1.2,3.9-1.5c1.5-0.3,3.2-0.5,5.1-0.5c3.8,0,6.8,0.7,9,2s3.3,3.1,3.3,5.3
			c0,2.3-1.1,4.1-3.4,5.4C2495,1035.3,2492,1035.9,2488.2,1035.9z M2476.1,1014.3h10.2v-10.8h-10.2V1014.3z M2479.3,1028.6
			c0,0.7,0.2,1.4,0.7,2c0.5,0.6,1.1,1.1,1.9,1.5c0.8,0.4,1.7,0.7,2.8,0.9c1.1,0.2,2.2,0.3,3.5,0.3c1.3,0,2.5-0.1,3.6-0.3
			c1.1-0.2,2.1-0.5,2.9-0.9c0.8-0.4,1.4-0.9,1.9-1.5c0.5-0.6,0.7-1.3,0.7-2c0-1.5-0.9-2.6-2.6-3.5c-1.7-0.8-3.9-1.3-6.5-1.3
			c-1.3,0-2.4,0.1-3.5,0.3c-1.1,0.2-2,0.5-2.8,0.9c-0.8,0.4-1.4,0.9-1.9,1.5C2479.6,1027.2,2479.3,1027.9,2479.3,1028.6z
			 M2499.8,999v8h5.1v2.8h-5.1v11h-3.2V999H2499.8z"/>
	</g>
	<g class="st8">
		<path class="st11" d="M2509.7,1017c0-1.7,0.2-3.4,0.6-5.1c0.4-1.7,0.9-3.5,1.6-5.2c0.7-1.7,1.6-3.3,2.6-4.9c1-1.6,2.2-3.1,3.5-4.4
			h2.5c-2.4,3.2-4.2,6.5-5.4,9.9c-1.2,3.4-1.7,6.6-1.7,9.8c0,3.2,0.6,6.5,1.7,9.9c1.2,3.4,3,6.6,5.4,9.8h-2.5
			c-1.3-1.3-2.5-2.8-3.5-4.4s-1.9-3.2-2.6-5c-0.7-1.7-1.3-3.4-1.6-5.2C2509.9,1020.4,2509.7,1018.7,2509.7,1017z"/>
	</g>
	<g class="st8">
		<path class="st11" d="M2537.9,1001.5v2.3h8V999h3.2v22h-3.2v-6.8h-8v2.7c0,0.3-0.1,0.6-0.2,0.7s-0.3,0.2-0.7,0.2h-14.6
			c-0.3,0-0.6-0.1-0.7-0.2s-0.2-0.3-0.2-0.7v-15.3c0-0.3,0.1-0.6,0.2-0.7s0.3-0.2,0.7-0.2h14.6c0.3,0,0.6,0.1,0.7,0.2
			S2537.9,1001.2,2537.9,1001.5z M2524.4,1028.7c0-2.2,1.1-4,3.4-5.3c2.3-1.3,5.3-2,9.2-2c3.9,0,6.9,0.7,9.2,2
			c2.3,1.3,3.4,3.1,3.4,5.3c0,2.2-1.1,4-3.4,5.3c-2.3,1.3-5.4,1.9-9.2,1.9c-3.9,0-6.9-0.7-9.2-1.9S2524.4,1031,2524.4,1028.7z
			 M2524.8,1015h10v-11.5h-10V1015z M2527.8,1028.7c0,1.5,0.9,2.6,2.6,3.5s3.9,1.3,6.6,1.3c2.7,0,4.9-0.4,6.6-1.2
			c1.7-0.8,2.6-1.9,2.6-3.4c0-1.5-0.9-2.6-2.6-3.5c-1.8-0.8-4-1.3-6.6-1.3c-2.7,0-4.9,0.4-6.6,1.2
			C2528.7,1026.1,2527.8,1027.2,2527.8,1028.7z M2537.9,1006.6v4.8h8v-4.8H2537.9z"/>
	</g>
	<g class="st8">
		<path class="st11" d="M2560.1,1017c0,1.7-0.2,3.4-0.6,5.2c-0.4,1.8-0.9,3.5-1.6,5.2c-0.7,1.7-1.6,3.4-2.6,5s-2.2,3-3.5,4.4h-2.5
			c2.4-3.2,4.2-6.4,5.4-9.8c1.2-3.4,1.8-6.7,1.8-9.9c0-3.2-0.6-6.4-1.8-9.8c-1.2-3.4-3-6.7-5.4-9.9h2.5c1.3,1.4,2.4,2.8,3.5,4.4
			c1,1.6,1.9,3.2,2.6,4.9c0.7,1.7,1.3,3.5,1.6,5.2C2559.9,1013.6,2560.1,1015.3,2560.1,1017z"/>
	</g>
</g>
</svg>
