<?xml version="1.0" encoding="utf-8"?>
<!-- Generator: Adobe Illustrator 25.3.1, SVG Export Plug-In . SVG Version: 6.00 Build 0)  -->
<svg version="1.1" id="레이어_1" xmlns="http://www.w3.org/2000/svg" xmlns:xlink="http://www.w3.org/1999/xlink" x="0px"
	 y="0px" viewBox="0 0 2305 425" style="enable-background:new 0 0 2305 425;" xml:space="preserve">
<style type="text/css">
	.st0{fill:none;}
	.st1{enable-background:new    ;}
	.st2{fill:#DEEBF7;}
	.st3{fill:#FFFFFF;}
	.st4{fill:none;stroke:#3774B3;stroke-width:3.4375;stroke-miterlimit:8;stroke-dasharray:13.75,10.3125;}
	.st5{fill:#D9D9D9;}
</style>
<rect class="st0" width="2305" height="425"/>
<g transform="translate(-496 -1125)">
	<g class="st1">
		<path d="M603.1,1526v-20h6.9c1.6,0,2.7,0.1,3.6,0.3c1.1,0.3,2.1,0.7,2.9,1.4c1.1,0.9,1.8,2,2.4,3.4c0.5,1.4,0.8,3,0.8,4.8
			c0,1.5-0.2,2.9-0.5,4s-0.8,2.1-1.4,2.9c-0.6,0.8-1.2,1.4-1.8,1.8c-0.7,0.4-1.5,0.8-2.4,1c-0.9,0.2-2,0.3-3.2,0.3H603.1z
			 M605.7,1523.6h4.3c1.3,0,2.4-0.1,3.1-0.4s1.4-0.6,1.8-1c0.6-0.6,1.1-1.5,1.5-2.5c0.4-1.1,0.5-2.3,0.5-3.9c0-2.1-0.3-3.7-1-4.8
			c-0.7-1.1-1.5-1.9-2.5-2.3c-0.7-0.3-1.9-0.4-3.4-0.4h-4.2V1523.6z"/>
		<path d="M628.1,1522.8v-5.5h-5.5v-2.3h5.5v-5.5h2.3v5.5h5.5v2.3h-5.5v5.5H628.1z"/>
		<path d="M647.9,1526h-2.5v-15.7c-0.6,0.6-1.4,1.1-2.3,1.7c-1,0.6-1.8,1-2.6,1.3v-2.4c1.4-0.6,2.6-1.4,3.6-2.4
			c1-0.9,1.8-1.8,2.2-2.7h1.6V1526z"/>
		<path d="M662.1,1526v-4.8h-8.7v-2.3l9.1-13h2v13h2.7v2.3h-2.7v4.8H662.1z M662.1,1518.9v-9l-6.3,9H662.1z"/>
	</g>
	<g class="st1">
		<path d="M760,1526v-20h6.9c1.6,0,2.7,0.1,3.6,0.3c1.1,0.3,2.1,0.7,2.9,1.4c1.1,0.9,1.8,2,2.4,3.4c0.5,1.4,0.8,3,0.8,4.8
			c0,1.5-0.2,2.9-0.5,4s-0.8,2.1-1.4,2.9c-0.6,0.8-1.2,1.4-1.8,1.8c-0.7,0.4-1.5,0.8-2.4,1c-0.9,0.2-2,0.3-3.2,0.3H760z
			 M762.6,1523.6h4.3c1.3,0,2.4-0.1,3.1-0.4s1.4-0.6,1.8-1c0.6-0.6,1.1-1.5,1.5-2.5c0.4-1.1,0.5-2.3,0.5-3.9c0-2.1-0.3-3.7-1-4.8
			c-0.7-1.1-1.5-1.9-2.5-2.3c-0.7-0.3-1.9-0.4-3.4-0.4h-4.2V1523.6z"/>
		<path d="M785.1,1522.8v-5.5h-5.5v-2.3h5.5v-5.5h2.3v5.5h5.5v2.3h-5.5v5.5H785.1z"/>
		<path d="M804.8,1526h-2.5v-15.7c-0.6,0.6-1.4,1.1-2.3,1.7c-1,0.6-1.8,1-2.6,1.3v-2.4c1.4-0.6,2.6-1.4,3.6-2.4
			c1-0.9,1.8-1.8,2.2-2.7h1.6V1526z"/>
		<path d="M811.1,1520.7l2.5-0.3c0.3,1.4,0.8,2.4,1.4,3c0.7,0.6,1.5,0.9,2.5,0.9c1.2,0,2.1-0.4,2.9-1.2c0.8-0.8,1.2-1.8,1.2-3
			c0-1.1-0.4-2.1-1.1-2.8s-1.7-1.1-2.8-1.1c-0.5,0-1,0.1-1.7,0.3l0.3-2.2c0.2,0,0.3,0,0.4,0c1,0,2-0.3,2.8-0.8
			c0.8-0.5,1.3-1.4,1.3-2.5c0-0.9-0.3-1.6-0.9-2.2c-0.6-0.6-1.4-0.9-2.4-0.9c-1,0-1.8,0.3-2.4,0.9c-0.6,0.6-1,1.5-1.2,2.7l-2.5-0.4
			c0.3-1.6,1-2.9,2.1-3.8s2.4-1.4,4-1.4c1.1,0,2.1,0.2,3,0.7c0.9,0.5,1.6,1.1,2.1,1.9c0.5,0.8,0.7,1.7,0.7,2.6
			c0,0.9-0.2,1.7-0.7,2.4s-1.2,1.3-2.1,1.7c1.2,0.3,2.1,0.8,2.8,1.7s1,1.9,1,3.2c0,1.8-0.6,3.2-1.9,4.5c-1.3,1.2-2.9,1.8-4.8,1.8
			c-1.8,0-3.2-0.5-4.4-1.6S811.3,1522.4,811.1,1520.7z"/>
	</g>
	<g class="st1">
		<path d="M916.9,1526v-20h6.9c1.6,0,2.7,0.1,3.6,0.3c1.1,0.3,2.1,0.7,2.9,1.4c1.1,0.9,1.8,2,2.4,3.4s0.8,3,0.8,4.8
			c0,1.5-0.2,2.9-0.5,4s-0.8,2.1-1.4,2.9s-1.2,1.4-1.8,1.8s-1.5,0.8-2.4,1s-2,0.3-3.2,0.3H916.9z M919.5,1523.6h4.3
			c1.3,0,2.4-0.1,3.1-0.4s1.4-0.6,1.8-1c0.6-0.6,1.1-1.5,1.5-2.5s0.5-2.3,0.5-3.9c0-2.1-0.3-3.7-1-4.8s-1.5-1.9-2.5-2.3
			c-0.7-0.3-1.9-0.4-3.4-0.4h-4.2V1523.6z"/>
		<path d="M942,1522.8v-5.5h-5.5v-2.3h5.5v-5.5h2.3v5.5h5.5v2.3h-5.5v5.5H942z"/>
		<path d="M961.7,1526h-2.5v-15.7c-0.6,0.6-1.4,1.1-2.3,1.7s-1.8,1-2.6,1.3v-2.4c1.4-0.6,2.6-1.4,3.6-2.4s1.8-1.8,2.2-2.7h1.6V1526z
			"/>
		<path d="M981,1523.6v2.4h-13.2c0-0.6,0.1-1.2,0.3-1.7c0.3-0.9,0.9-1.8,1.6-2.7s1.8-1.9,3.2-3c2.2-1.8,3.7-3.2,4.4-4.2s1.1-2,1.1-3
			c0-1-0.3-1.8-1-2.5s-1.6-1-2.7-1c-1.2,0-2.1,0.4-2.8,1.1s-1.1,1.7-1.1,3l-2.5-0.3c0.2-1.9,0.8-3.3,2-4.3s2.6-1.5,4.6-1.5
			c1.9,0,3.4,0.5,4.6,1.6s1.7,2.4,1.7,4c0,0.8-0.2,1.6-0.5,2.4s-0.9,1.6-1.6,2.4s-2,2-3.8,3.5c-1.5,1.2-2.4,2.1-2.8,2.5
			s-0.8,0.9-1,1.3H981z"/>
	</g>
	<g class="st1">
		<path d="M1073.8,1526v-20h6.9c1.6,0,2.7,0.1,3.6,0.3c1.1,0.3,2.1,0.7,2.9,1.4c1.1,0.9,1.8,2,2.4,3.4c0.5,1.4,0.8,3,0.8,4.8
			c0,1.5-0.2,2.9-0.5,4s-0.8,2.1-1.4,2.9c-0.6,0.8-1.2,1.4-1.8,1.8c-0.7,0.4-1.5,0.8-2.4,1c-0.9,0.2-2,0.3-3.2,0.3H1073.8z
			 M1076.4,1523.6h4.3c1.3,0,2.4-0.1,3.1-0.4s1.4-0.6,1.8-1c0.6-0.6,1.1-1.5,1.5-2.5c0.4-1.1,0.5-2.3,0.5-3.9c0-2.1-0.3-3.7-1-4.8
			c-0.7-1.1-1.5-1.9-2.5-2.3c-0.7-0.3-1.9-0.4-3.4-0.4h-4.2V1523.6z"/>
		<path d="M1098.9,1522.8v-5.5h-5.5v-2.3h5.5v-5.5h2.3v5.5h5.5v2.3h-5.5v5.5H1098.9z"/>
		<path d="M1118.6,1526h-2.5v-15.7c-0.6,0.6-1.4,1.1-2.3,1.7c-1,0.6-1.8,1-2.6,1.3v-2.4c1.4-0.6,2.6-1.4,3.6-2.4
			c1-0.9,1.8-1.8,2.2-2.7h1.6V1526z"/>
		<path d="M1132.1,1526h-2.5v-15.7c-0.6,0.6-1.4,1.1-2.3,1.7c-1,0.6-1.8,1-2.6,1.3v-2.4c1.4-0.6,2.6-1.4,3.6-2.4
			c1-0.9,1.8-1.8,2.2-2.7h1.6V1526z"/>
	</g>
	<g class="st1">
		<path d="M1230.7,1526v-20h6.9c1.6,0,2.7,0.1,3.6,0.3c1.1,0.3,2.1,0.7,2.9,1.4c1.1,0.9,1.8,2,2.4,3.4c0.5,1.4,0.8,3,0.8,4.8
			c0,1.5-0.2,2.9-0.5,4s-0.8,2.1-1.4,2.9c-0.6,0.8-1.2,1.4-1.8,1.8c-0.7,0.4-1.5,0.8-2.4,1c-0.9,0.2-2,0.3-3.2,0.3H1230.7z
			 M1233.3,1523.6h4.3c1.3,0,2.4-0.1,3.1-0.4s1.4-0.6,1.8-1c0.6-0.6,1.1-1.5,1.5-2.5c0.4-1.1,0.5-2.3,0.5-3.9c0-2.1-0.3-3.7-1-4.8
			c-0.7-1.1-1.5-1.9-2.5-2.3c-0.7-0.3-1.9-0.4-3.4-0.4h-4.2V1523.6z"/>
		<path d="M1255.8,1522.8v-5.5h-5.5v-2.3h5.5v-5.5h2.3v5.5h5.5v2.3h-5.5v5.5H1255.8z"/>
		<path d="M1275.5,1526h-2.5v-15.7c-0.6,0.6-1.4,1.1-2.3,1.7c-1,0.6-1.8,1-2.6,1.3v-2.4c1.4-0.6,2.6-1.4,3.6-2.4
			c1-0.9,1.8-1.8,2.2-2.7h1.6V1526z"/>
		<path d="M1281.8,1516.1c0-2.4,0.2-4.3,0.7-5.7c0.5-1.4,1.2-2.6,2.2-3.3c1-0.8,2.2-1.2,3.6-1.2c1.1,0,2,0.2,2.8,0.6
			c0.8,0.4,1.5,1.1,2,1.9c0.5,0.8,0.9,1.8,1.2,3s0.5,2.8,0.5,4.7c0,2.4-0.2,4.2-0.7,5.7c-0.5,1.4-1.2,2.6-2.2,3.3
			c-1,0.8-2.2,1.2-3.6,1.2c-1.9,0-3.5-0.7-4.6-2.1C1282.5,1522.6,1281.8,1519.9,1281.8,1516.1z M1284.4,1516.1
			c0,3.3,0.4,5.5,1.2,6.6c0.8,1.1,1.7,1.6,2.9,1.6c1.1,0,2.1-0.5,2.9-1.6c0.8-1.1,1.2-3.3,1.2-6.6c0-3.3-0.4-5.5-1.2-6.6
			c-0.8-1.1-1.7-1.6-2.9-1.6c-1.1,0-2,0.5-2.7,1.4C1284.8,1510.6,1284.4,1512.8,1284.4,1516.1z"/>
	</g>
	<g class="st1">
		<path d="M1394.5,1526v-20h6.9c1.6,0,2.7,0.1,3.6,0.3c1.1,0.3,2.1,0.7,2.9,1.4c1.1,0.9,1.8,2,2.4,3.4s0.8,3,0.8,4.8
			c0,1.5-0.2,2.9-0.5,4s-0.8,2.1-1.4,2.9s-1.2,1.4-1.8,1.8s-1.5,0.8-2.4,1s-2,0.3-3.2,0.3H1394.5z M1397.1,1523.6h4.3
			c1.3,0,2.4-0.1,3.1-0.4s1.4-0.6,1.8-1c0.6-0.6,1.1-1.5,1.5-2.5s0.5-2.3,0.5-3.9c0-2.1-0.3-3.7-1-4.8s-1.5-1.9-2.5-2.3
			c-0.7-0.3-1.9-0.4-3.4-0.4h-4.2V1523.6z"/>
		<path d="M1419.5,1522.8v-5.5h-5.5v-2.3h5.5v-5.5h2.3v5.5h5.5v2.3h-5.5v5.5H1419.5z"/>
		<path d="M1430.4,1521.4l2.4-0.2c0.2,1.1,0.6,1.9,1.1,2.4s1.3,0.8,2.2,0.8c0.8,0,1.4-0.2,2-0.5s1-0.8,1.4-1.4s0.7-1.4,0.9-2.3
			s0.4-2,0.4-3c0-0.1,0-0.3,0-0.5c-0.5,0.8-1.2,1.4-2,1.9s-1.8,0.7-2.8,0.7c-1.7,0-3.1-0.6-4.2-1.8s-1.7-2.8-1.7-4.8
			c0-2,0.6-3.7,1.8-4.9s2.7-1.9,4.5-1.9c1.3,0,2.5,0.4,3.6,1.1s1.9,1.7,2.5,3s0.8,3.2,0.8,5.6c0,2.6-0.3,4.6-0.8,6.1
			s-1.4,2.7-2.5,3.5s-2.4,1.2-3.9,1.2c-1.6,0-2.8-0.4-3.8-1.3S1430.6,1522.9,1430.4,1521.4z M1440.5,1512.5c0-1.4-0.4-2.5-1.1-3.4
			s-1.7-1.2-2.7-1.2c-1.1,0-2,0.4-2.9,1.3s-1.2,2.1-1.2,3.5c0,1.3,0.4,2.3,1.2,3.1s1.7,1.2,2.9,1.2c1.1,0,2.1-0.4,2.8-1.2
			S1440.5,1513.9,1440.5,1512.5z"/>
	</g>
	<g class="st1">
		<path d="M1551.4,1526v-20h6.9c1.6,0,2.7,0.1,3.6,0.3c1.1,0.3,2.1,0.7,2.9,1.4c1.1,0.9,1.8,2,2.4,3.4c0.5,1.4,0.8,3,0.8,4.8
			c0,1.5-0.2,2.9-0.5,4s-0.8,2.1-1.4,2.9c-0.6,0.8-1.2,1.4-1.8,1.8c-0.7,0.4-1.5,0.8-2.4,1c-0.9,0.2-2,0.3-3.2,0.3H1551.4z
			 M1554,1523.6h4.3c1.3,0,2.4-0.1,3.1-0.4s1.4-0.6,1.8-1c0.6-0.6,1.1-1.5,1.5-2.5c0.4-1.1,0.5-2.3,0.5-3.9c0-2.1-0.3-3.7-1-4.8
			c-0.7-1.1-1.5-1.9-2.5-2.3c-0.7-0.3-1.9-0.4-3.4-0.4h-4.2V1523.6z"/>
		<path d="M1576.4,1522.8v-5.5h-5.5v-2.3h5.5v-5.5h2.3v5.5h5.5v2.3h-5.5v5.5H1576.4z"/>
		<path d="M1590.7,1515.1c-1-0.4-1.8-0.9-2.3-1.6s-0.7-1.5-0.7-2.5c0-1.5,0.5-2.7,1.6-3.7c1-1,2.4-1.5,4.2-1.5
			c1.8,0,3.2,0.5,4.2,1.5s1.6,2.3,1.6,3.7c0,0.9-0.2,1.7-0.7,2.4c-0.5,0.7-1.2,1.2-2.2,1.6c1.2,0.4,2.2,1,2.8,1.9s1,2,1,3.2
			c0,1.7-0.6,3.2-1.8,4.3c-1.2,1.2-2.8,1.8-4.8,1.8c-2,0-3.6-0.6-4.8-1.8c-1.2-1.2-1.8-2.6-1.8-4.4c0-1.3,0.3-2.4,1-3.3
			C1588.6,1516,1589.5,1515.5,1590.7,1515.1z M1589.4,1520.2c0,0.7,0.2,1.4,0.5,2c0.3,0.7,0.8,1.2,1.5,1.5s1.4,0.5,2.1,0.5
			c1.2,0,2.1-0.4,2.9-1.1s1.1-1.7,1.1-2.9c0-1.2-0.4-2.2-1.2-2.9c-0.8-0.8-1.8-1.2-3-1.2c-1.2,0-2.1,0.4-2.9,1.1
			C1589.8,1518.1,1589.4,1519.1,1589.4,1520.2z M1590.2,1511c0,0.9,0.3,1.7,0.9,2.3c0.6,0.6,1.4,0.9,2.4,0.9c0.9,0,1.7-0.3,2.3-0.9
			c0.6-0.6,0.9-1.3,0.9-2.2c0-0.9-0.3-1.7-0.9-2.3c-0.6-0.6-1.4-0.9-2.3-0.9c-0.9,0-1.7,0.3-2.3,0.9
			C1590.5,1509.4,1590.2,1510.1,1590.2,1511z"/>
	</g>
	<g class="st1">
		<path d="M1708.3,1526v-20h6.9c1.6,0,2.7,0.1,3.6,0.3c1.1,0.3,2.1,0.7,2.9,1.4c1.1,0.9,1.8,2,2.4,3.4c0.5,1.4,0.8,3,0.8,4.8
			c0,1.5-0.2,2.9-0.5,4s-0.8,2.1-1.4,2.9c-0.6,0.8-1.2,1.4-1.8,1.8c-0.7,0.4-1.5,0.8-2.4,1c-0.9,0.2-2,0.3-3.2,0.3H1708.3z
			 M1710.9,1523.6h4.3c1.3,0,2.4-0.1,3.1-0.4s1.4-0.6,1.8-1c0.6-0.6,1.1-1.5,1.5-2.5c0.3-1.1,0.5-2.3,0.5-3.9c0-2.1-0.3-3.7-1-4.8
			c-0.7-1.1-1.5-1.9-2.5-2.3c-0.7-0.3-1.9-0.4-3.4-0.4h-4.2V1523.6z"/>
		<path d="M1733.3,1522.8v-5.5h-5.5v-2.3h5.5v-5.5h2.3v5.5h5.5v2.3h-5.5v5.5H1733.3z"/>
		<path d="M1744,1508.6v-2.4h13v1.9c-1.3,1.4-2.5,3.2-3.8,5.4c-1.3,2.3-2.2,4.6-2.9,6.9c-0.5,1.7-0.8,3.5-0.9,5.5h-2.5
			c0-1.6,0.3-3.5,0.9-5.7c0.6-2.2,1.4-4.4,2.6-6.5s2.3-3.8,3.5-5.2H1744z"/>
	</g>
	<g class="st1">
		<path d="M1865.2,1526v-20h6.9c1.6,0,2.7,0.1,3.6,0.3c1.1,0.3,2.1,0.7,2.9,1.4c1.1,0.9,1.8,2,2.4,3.4s0.8,3,0.8,4.8
			c0,1.5-0.2,2.9-0.5,4s-0.8,2.1-1.4,2.9s-1.2,1.4-1.8,1.8s-1.5,0.8-2.4,1s-2,0.3-3.2,0.3H1865.2z M1867.8,1523.6h4.3
			c1.3,0,2.4-0.1,3.1-0.4s1.4-0.6,1.8-1c0.6-0.6,1.1-1.5,1.5-2.5s0.5-2.3,0.5-3.9c0-2.1-0.3-3.7-1-4.8s-1.5-1.9-2.5-2.3
			c-0.7-0.3-1.9-0.4-3.4-0.4h-4.2V1523.6z"/>
		<path d="M1890.2,1522.8v-5.5h-5.5v-2.3h5.5v-5.5h2.3v5.5h5.5v2.3h-5.5v5.5H1890.2z"/>
		<path d="M1913.5,1510.9l-2.4,0.2c-0.2-1-0.5-1.7-0.9-2.1c-0.7-0.7-1.5-1.1-2.5-1.1c-0.8,0-1.5,0.2-2.1,0.7
			c-0.8,0.6-1.4,1.4-1.8,2.5s-0.7,2.6-0.7,4.6c0.6-0.9,1.3-1.6,2.2-2s1.8-0.7,2.7-0.7c1.6,0,3,0.6,4.2,1.8s1.7,2.8,1.7,4.7
			c0,1.3-0.3,2.4-0.8,3.5s-1.3,1.9-2.2,2.5s-2,0.9-3.2,0.9c-2.1,0-3.7-0.8-5-2.3s-1.9-4-1.9-7.5c0-3.9,0.7-6.7,2.1-8.4
			c1.2-1.5,2.9-2.3,5-2.3c1.6,0,2.9,0.4,3.9,1.3S1913.3,1509.3,1913.5,1510.9z M1903.5,1519.5c0,0.8,0.2,1.7,0.5,2.4
			s0.9,1.4,1.5,1.8s1.3,0.6,2,0.6c1,0,1.9-0.4,2.7-1.3s1.1-2,1.1-3.4c0-1.4-0.4-2.5-1.1-3.3s-1.7-1.2-2.8-1.2
			c-1.1,0-2.1,0.4-2.8,1.2S1903.5,1518.2,1903.5,1519.5z"/>
	</g>
	<g class="st1">
		<path d="M2022.1,1526v-20h6.9c1.6,0,2.7,0.1,3.6,0.3c1.1,0.3,2.1,0.7,2.9,1.4c1.1,0.9,1.8,2,2.4,3.4s0.8,3,0.8,4.8
			c0,1.5-0.2,2.9-0.5,4s-0.8,2.1-1.4,2.9c-0.6,0.8-1.2,1.4-1.8,1.8s-1.5,0.8-2.4,1s-2,0.3-3.2,0.3H2022.1z M2024.7,1523.6h4.3
			c1.3,0,2.4-0.1,3.1-0.4s1.4-0.6,1.8-1c0.6-0.6,1.1-1.5,1.5-2.5s0.5-2.3,0.5-3.9c0-2.1-0.3-3.7-1-4.8s-1.5-1.9-2.5-2.3
			c-0.7-0.3-1.9-0.4-3.4-0.4h-4.2V1523.6z"/>
		<path d="M2047.1,1522.8v-5.5h-5.5v-2.3h5.5v-5.5h2.3v5.5h5.5v2.3h-5.5v5.5H2047.1z"/>
		<path d="M2057.6,1520.8l2.6-0.2c0.2,1.3,0.6,2.2,1.3,2.8s1.5,1,2.5,1c1.2,0,2.2-0.4,3-1.3s1.2-2.1,1.2-3.6c0-1.4-0.4-2.5-1.2-3.3
			s-1.8-1.2-3.1-1.2c-0.8,0-1.5,0.2-2.1,0.5c-0.6,0.4-1.1,0.8-1.5,1.4l-2.3-0.3l1.9-10.3h10v2.4h-8l-1.1,5.4
			c1.2-0.8,2.5-1.3,3.8-1.3c1.8,0,3.2,0.6,4.4,1.8s1.8,2.8,1.8,4.7c0,1.8-0.5,3.4-1.6,4.7c-1.3,1.6-3,2.4-5.3,2.4
			c-1.8,0-3.3-0.5-4.5-1.5S2057.8,1522.4,2057.6,1520.8z"/>
	</g>
	<g class="st1">
		<path d="M2179,1526v-20h6.9c1.6,0,2.7,0.1,3.6,0.3c1.1,0.3,2.1,0.7,2.9,1.4c1.1,0.9,1.8,2,2.4,3.4c0.5,1.4,0.8,3,0.8,4.8
			c0,1.5-0.2,2.9-0.5,4s-0.8,2.1-1.4,2.9c-0.6,0.8-1.2,1.4-1.8,1.8c-0.7,0.4-1.5,0.8-2.4,1c-0.9,0.2-2,0.3-3.2,0.3H2179z
			 M2181.6,1523.6h4.3c1.3,0,2.4-0.1,3.1-0.4s1.4-0.6,1.8-1c0.6-0.6,1.1-1.5,1.5-2.5c0.4-1.1,0.5-2.3,0.5-3.9c0-2.1-0.3-3.7-1-4.8
			c-0.7-1.1-1.5-1.9-2.5-2.3c-0.7-0.3-1.9-0.4-3.4-0.4h-4.2V1523.6z"/>
		<path d="M2204,1522.8v-5.5h-5.5v-2.3h5.5v-5.5h2.3v5.5h5.5v2.3h-5.5v5.5H2204z"/>
		<path d="M2222.4,1526v-4.8h-8.7v-2.3l9.1-13h2v13h2.7v2.3h-2.7v4.8H2222.4z M2222.4,1518.9v-9l-6.3,9H2222.4z"/>
	</g>
	<g class="st1">
		<path d="M2335.9,1526v-20h6.9c1.6,0,2.7,0.1,3.6,0.3c1.1,0.3,2.1,0.7,2.9,1.4c1.1,0.9,1.8,2,2.4,3.4s0.8,3,0.8,4.8
			c0,1.5-0.2,2.9-0.5,4s-0.8,2.1-1.4,2.9s-1.2,1.4-1.8,1.8s-1.5,0.8-2.4,1s-2,0.3-3.2,0.3H2335.9z M2338.5,1523.6h4.3
			c1.3,0,2.4-0.1,3.1-0.4s1.4-0.6,1.8-1c0.6-0.6,1.1-1.5,1.5-2.5s0.5-2.3,0.5-3.9c0-2.1-0.3-3.7-1-4.8s-1.5-1.9-2.5-2.3
			c-0.7-0.3-1.9-0.4-3.4-0.4h-4.2V1523.6z"/>
		<path d="M2360.9,1522.8v-5.5h-5.5v-2.3h5.5v-5.5h2.3v5.5h5.5v2.3h-5.5v5.5H2360.9z"/>
		<path d="M2371.5,1520.7l2.5-0.3c0.3,1.4,0.8,2.4,1.4,3s1.5,0.9,2.5,0.9c1.2,0,2.1-0.4,2.9-1.2s1.2-1.8,1.2-3
			c0-1.1-0.4-2.1-1.1-2.8s-1.7-1.1-2.8-1.1c-0.5,0-1,0.1-1.7,0.3l0.3-2.2c0.2,0,0.3,0,0.4,0c1,0,2-0.3,2.8-0.8s1.3-1.4,1.3-2.5
			c0-0.9-0.3-1.6-0.9-2.2s-1.4-0.9-2.4-0.9c-1,0-1.8,0.3-2.4,0.9s-1,1.5-1.2,2.7l-2.5-0.4c0.3-1.6,1-2.9,2.1-3.8s2.4-1.4,4-1.4
			c1.1,0,2.1,0.2,3,0.7s1.6,1.1,2.1,1.9s0.7,1.7,0.7,2.6c0,0.9-0.2,1.7-0.7,2.4s-1.2,1.3-2.1,1.7c1.2,0.3,2.1,0.8,2.8,1.7
			s1,1.9,1,3.2c0,1.8-0.6,3.2-1.9,4.5s-2.9,1.8-4.8,1.8c-1.8,0-3.2-0.5-4.4-1.6S2371.6,1522.4,2371.5,1520.7z"/>
	</g>
	<g class="st1">
		<path d="M2492.8,1526v-20h6.9c1.6,0,2.7,0.1,3.6,0.3c1.1,0.3,2.1,0.7,2.9,1.4c1.1,0.9,1.8,2,2.4,3.4c0.5,1.4,0.8,3,0.8,4.8
			c0,1.5-0.2,2.9-0.5,4s-0.8,2.1-1.4,2.9s-1.2,1.4-1.8,1.8c-0.7,0.4-1.5,0.8-2.4,1c-0.9,0.2-2,0.3-3.2,0.3H2492.8z M2495.4,1523.6
			h4.3c1.3,0,2.4-0.1,3.1-0.4s1.4-0.6,1.8-1c0.6-0.6,1.1-1.5,1.5-2.5c0.4-1.1,0.5-2.3,0.5-3.9c0-2.1-0.3-3.7-1-4.8
			c-0.7-1.1-1.5-1.9-2.5-2.3c-0.7-0.3-1.9-0.4-3.4-0.4h-4.2V1523.6z"/>
		<path d="M2517.9,1522.8v-5.5h-5.5v-2.3h5.5v-5.5h2.3v5.5h5.5v2.3h-5.5v5.5H2517.9z"/>
		<path d="M2541.3,1523.6v2.4H2528c0-0.6,0.1-1.2,0.3-1.7c0.3-0.9,0.9-1.8,1.6-2.7c0.7-0.9,1.8-1.9,3.2-3c2.2-1.8,3.7-3.2,4.4-4.2
			s1.1-2,1.1-3c0-1-0.3-1.8-1-2.5s-1.6-1-2.7-1c-1.2,0-2.1,0.4-2.8,1.1s-1.1,1.7-1.1,3l-2.5-0.3c0.2-1.9,0.8-3.3,2-4.3
			s2.6-1.5,4.6-1.5c1.9,0,3.4,0.5,4.6,1.6s1.7,2.4,1.7,4c0,0.8-0.2,1.6-0.5,2.4s-0.9,1.6-1.6,2.4c-0.8,0.9-2,2-3.8,3.5
			c-1.5,1.2-2.4,2.1-2.8,2.5s-0.8,0.9-1,1.3H2541.3z"/>
	</g>
	<g class="st1">
		<path d="M2649.7,1526v-20h6.9c1.6,0,2.7,0.1,3.6,0.3c1.1,0.3,2.1,0.7,2.9,1.4c1.1,0.9,1.8,2,2.4,3.4c0.5,1.4,0.8,3,0.8,4.8
			c0,1.5-0.2,2.9-0.5,4s-0.8,2.1-1.4,2.9c-0.6,0.8-1.2,1.4-1.8,1.8c-0.7,0.4-1.5,0.8-2.4,1c-0.9,0.2-2,0.3-3.2,0.3H2649.7z
			 M2652.3,1523.6h4.3c1.3,0,2.4-0.1,3.1-0.4s1.4-0.6,1.8-1c0.6-0.6,1.1-1.5,1.5-2.5c0.3-1.1,0.5-2.3,0.5-3.9c0-2.1-0.3-3.7-1-4.8
			c-0.7-1.1-1.5-1.9-2.5-2.3c-0.7-0.3-1.9-0.4-3.4-0.4h-4.2V1523.6z"/>
		<path d="M2674.8,1522.8v-5.5h-5.5v-2.3h5.5v-5.5h2.3v5.5h5.5v2.3h-5.5v5.5H2674.8z"/>
		<path d="M2694.5,1526h-2.5v-15.7c-0.6,0.6-1.4,1.1-2.3,1.7c-1,0.6-1.8,1-2.6,1.3v-2.4c1.4-0.6,2.6-1.4,3.6-2.4
			c1-0.9,1.8-1.8,2.2-2.7h1.6V1526z"/>
	</g>
	<rect x="1645" y="1126" class="st2" width="1156" height="361"/>
	<g class="st1">
		<path class="st3" d="M2113.7,1327v-34.7h-13v-4.6h31.2v4.6h-13v34.7H2113.7z"/>
		<path class="st3" d="M2136.7,1327v-39.4h4.8v14.1c2.3-2.6,5.1-3.9,8.5-3.9c2.1,0,3.9,0.4,5.5,1.2c1.6,0.8,2.7,2,3.3,3.5
			c0.7,1.5,1,3.6,1,6.4v18.1h-4.8v-18.1c0-2.4-0.5-4.2-1.6-5.3c-1-1.1-2.5-1.7-4.4-1.7c-1.4,0-2.8,0.4-4,1.1c-1.3,0.7-2.2,1.8-2.7,3
			c-0.5,1.3-0.8,3-0.8,5.3v15.6H2136.7z"/>
		<path class="st3" d="M2167.3,1293.2v-5.6h4.8v5.6H2167.3z M2167.3,1327v-28.5h4.8v28.5H2167.3z"/>
		<path class="st3" d="M2177.6,1318.5l4.8-0.8c0.3,1.9,1,3.4,2.2,4.4c1.2,1,2.9,1.5,5.1,1.5c2.2,0,3.9-0.5,4.9-1.4
			c1.1-0.9,1.6-2,1.6-3.2c0-1.1-0.5-2-1.4-2.6c-0.7-0.4-2.3-1-4.9-1.6c-3.5-0.9-6-1.7-7.4-2.3c-1.4-0.7-2.4-1.6-3.1-2.7
			c-0.7-1.2-1.1-2.4-1.1-3.8c0-1.3,0.3-2.4,0.9-3.5s1.4-2,2.4-2.7c0.8-0.6,1.8-1,3.1-1.4c1.3-0.4,2.7-0.6,4.2-0.6
			c2.2,0,4.2,0.3,5.9,1c1.7,0.6,2.9,1.5,3.7,2.6c0.8,1.1,1.4,2.6,1.7,4.4l-4.7,0.6c-0.2-1.5-0.8-2.6-1.9-3.4c-1-0.8-2.5-1.2-4.4-1.2
			c-2.2,0-3.8,0.4-4.8,1.1c-0.9,0.7-1.4,1.6-1.4,2.6c0,0.6,0.2,1.2,0.6,1.7c0.4,0.5,1,0.9,1.9,1.3c0.5,0.2,1.9,0.6,4.3,1.2
			c3.4,0.9,5.8,1.7,7.2,2.2c1.4,0.6,2.4,1.4,3.2,2.5s1.2,2.5,1.2,4.1c0,1.6-0.5,3.1-1.4,4.6c-0.9,1.4-2.3,2.5-4.1,3.3
			c-1.8,0.8-3.8,1.2-6,1.2c-3.7,0-6.5-0.8-8.5-2.3C2179.4,1323.8,2178.1,1321.5,2177.6,1318.5z"/>
		<path class="st3" d="M2227.6,1327l-8.7-28.5h5l4.5,16.5l1.7,6.1c0.1-0.3,0.6-2.3,1.5-5.9l4.5-16.7h5l4.3,16.5l1.4,5.5l1.6-5.5
			l4.9-16.5h4.7l-8.9,28.5h-5l-4.5-17.1l-1.1-4.9l-5.8,21.9H2227.6z"/>
		<path class="st3" d="M2281.5,1317.8l5,0.6c-0.8,2.9-2.2,5.2-4.4,6.8s-4.9,2.4-8.2,2.4c-4.2,0-7.5-1.3-9.9-3.9
			c-2.4-2.6-3.7-6.2-3.7-10.8c0-4.8,1.2-8.5,3.7-11.2s5.7-4,9.6-4c3.8,0,6.9,1.3,9.3,3.9c2.4,2.6,3.6,6.2,3.6,11c0,0.3,0,0.7,0,1.3
			h-21.3c0.2,3.1,1.1,5.5,2.7,7.2c1.6,1.7,3.6,2.5,6,2.5c1.8,0,3.3-0.5,4.5-1.4C2279.8,1321.3,2280.8,1319.9,2281.5,1317.8z
			 M2265.7,1310h15.9c-0.2-2.4-0.8-4.2-1.8-5.4c-1.5-1.9-3.5-2.8-6-2.8c-2.2,0-4.1,0.7-5.6,2.2
			C2266.7,1305.5,2265.8,1307.5,2265.7,1310z"/>
		<path class="st3" d="M2312.1,1317.8l5,0.6c-0.8,2.9-2.2,5.2-4.4,6.8c-2.1,1.6-4.9,2.4-8.2,2.4c-4.2,0-7.5-1.3-9.9-3.9
			s-3.7-6.2-3.7-10.8c0-4.8,1.2-8.5,3.7-11.2s5.7-4,9.6-4c3.8,0,6.9,1.3,9.3,3.9c2.4,2.6,3.6,6.2,3.6,11c0,0.3,0,0.7,0,1.3H2296
			c0.2,3.1,1.1,5.5,2.7,7.2c1.6,1.7,3.6,2.5,6,2.5c1.8,0,3.3-0.5,4.5-1.4C2310.4,1321.3,2311.4,1319.9,2312.1,1317.8z M2296.2,1310
			h15.9c-0.2-2.4-0.8-4.2-1.8-5.4c-1.5-1.9-3.5-2.8-6-2.8c-2.2,0-4.1,0.7-5.6,2.2C2297.2,1305.5,2296.4,1307.5,2296.2,1310z"/>
		<path class="st3" d="M2323.2,1327v-39.4h4.8v22.5l11.4-11.6h6.3l-10.9,10.6l12,17.9h-6l-9.4-14.6l-3.4,3.3v11.3H2323.2z"/>
	</g>
	<path class="st4" d="M1645.5,1487.1v-360.6"/>
	<rect x="496" y="1126" class="st3" width="1149" height="361"/>
	<g class="st1">
		<path class="st5" d="M951.3,1327v-39.4h5.2v34.7h19.4v4.6H951.3z"/>
		<path class="st5" d="M1000.1,1323.5c-1.8,1.5-3.5,2.6-5.2,3.2c-1.7,0.6-3.4,0.9-5.3,0.9c-3.1,0-5.5-0.8-7.2-2.3
			c-1.7-1.5-2.5-3.5-2.5-5.9c0-1.4,0.3-2.7,1-3.8c0.6-1.2,1.5-2.1,2.5-2.8c1-0.7,2.2-1.2,3.5-1.6c0.9-0.2,2.4-0.5,4.3-0.7
			c3.9-0.5,6.8-1,8.6-1.7c0-0.7,0-1.1,0-1.3c0-2-0.5-3.4-1.4-4.2c-1.2-1.1-3.1-1.6-5.5-1.6c-2.3,0-4,0.4-5,1.2
			c-1.1,0.8-1.9,2.2-2.4,4.2l-4.7-0.6c0.4-2,1.1-3.7,2.1-4.9c1-1.2,2.4-2.2,4.3-2.9c1.9-0.7,4-1,6.5-1c2.4,0,4.4,0.3,5.9,0.9
			s2.6,1.3,3.4,2.2c0.7,0.9,1.2,2,1.5,3.3c0.2,0.8,0.2,2.3,0.2,4.5v6.4c0,4.5,0.1,7.3,0.3,8.5c0.2,1.2,0.6,2.3,1.2,3.4h-5
			C1000.6,1326,1000.2,1324.8,1000.1,1323.5z M999.7,1312.7c-1.8,0.7-4.4,1.3-7.9,1.8c-2,0.3-3.4,0.6-4.2,1
			c-0.8,0.4-1.5,0.9-1.9,1.6c-0.4,0.7-0.7,1.5-0.7,2.3c0,1.3,0.5,2.4,1.5,3.2c1,0.9,2.4,1.3,4.3,1.3c1.9,0,3.5-0.4,5-1.2
			c1.5-0.8,2.5-1.9,3.2-3.3c0.5-1.1,0.8-2.7,0.8-4.8V1312.7z"/>
		<path class="st5" d="M1010.1,1318.5l4.8-0.8c0.3,1.9,1,3.4,2.2,4.4c1.2,1,2.9,1.5,5.1,1.5c2.2,0,3.9-0.5,4.9-1.4
			c1.1-0.9,1.6-2,1.6-3.2c0-1.1-0.5-2-1.4-2.6c-0.7-0.4-2.3-1-4.9-1.6c-3.5-0.9-6-1.7-7.4-2.3c-1.4-0.7-2.4-1.6-3.1-2.7
			c-0.7-1.2-1.1-2.4-1.1-3.8c0-1.3,0.3-2.4,0.9-3.5c0.6-1.1,1.4-2,2.4-2.7c0.8-0.6,1.8-1,3.1-1.4c1.3-0.4,2.7-0.6,4.2-0.6
			c2.2,0,4.2,0.3,5.9,1c1.7,0.6,2.9,1.5,3.7,2.6c0.8,1.1,1.4,2.6,1.7,4.4l-4.7,0.6c-0.2-1.5-0.8-2.6-1.9-3.4c-1-0.8-2.5-1.2-4.4-1.2
			c-2.2,0-3.8,0.4-4.8,1.1c-0.9,0.7-1.4,1.6-1.4,2.6c0,0.6,0.2,1.2,0.6,1.7c0.4,0.5,1,0.9,1.9,1.3c0.5,0.2,1.9,0.6,4.3,1.2
			c3.4,0.9,5.8,1.7,7.2,2.2c1.4,0.6,2.4,1.4,3.2,2.5s1.2,2.5,1.2,4.1c0,1.6-0.5,3.1-1.4,4.6c-0.9,1.4-2.3,2.5-4.1,3.3
			c-1.8,0.8-3.8,1.2-6,1.2c-3.7,0-6.5-0.8-8.5-2.3C1011.9,1323.8,1010.7,1321.5,1010.1,1318.5z"/>
		<path class="st5" d="M1050.1,1322.7l0.7,4.3c-1.4,0.3-2.6,0.4-3.7,0.4c-1.8,0-3.1-0.3-4.1-0.8c-1-0.6-1.6-1.3-2-2.2
			c-0.4-0.9-0.6-2.8-0.6-5.7v-16.4h-3.5v-3.8h3.5v-7.1l4.8-2.9v10h4.9v3.8h-4.9v16.7c0,1.4,0.1,2.3,0.3,2.7s0.4,0.7,0.8,0.9
			c0.4,0.2,0.9,0.3,1.7,0.3C1048.5,1322.9,1049.2,1322.8,1050.1,1322.7z"/>
		<path class="st5" d="M1075.4,1327l-8.7-28.5h5l4.5,16.5l1.7,6.1c0.1-0.3,0.6-2.3,1.5-5.9l4.5-16.7h5l4.3,16.5l1.4,5.5l1.6-5.5
			l4.9-16.5h4.7l-8.9,28.5h-5l-4.5-17.1l-1.1-4.9l-5.8,21.9H1075.4z"/>
		<path class="st5" d="M1129.4,1317.8l5,0.6c-0.8,2.9-2.2,5.2-4.4,6.8s-4.9,2.4-8.2,2.4c-4.2,0-7.5-1.3-9.9-3.9
			c-2.4-2.6-3.7-6.2-3.7-10.8c0-4.8,1.2-8.5,3.7-11.2s5.7-4,9.6-4c3.8,0,6.9,1.3,9.3,3.9c2.4,2.6,3.6,6.2,3.6,11c0,0.3,0,0.7,0,1.3
			h-21.3c0.2,3.1,1.1,5.5,2.7,7.2c1.6,1.7,3.6,2.5,6,2.5c1.8,0,3.3-0.5,4.5-1.4S1128.6,1319.9,1129.4,1317.8z M1113.5,1310h15.9
			c-0.2-2.4-0.8-4.2-1.8-5.4c-1.5-1.9-3.5-2.8-6-2.8c-2.2,0-4.1,0.7-5.6,2.2C1114.5,1305.5,1113.7,1307.5,1113.5,1310z"/>
		<path class="st5" d="M1160,1317.8l5,0.6c-0.8,2.9-2.2,5.2-4.4,6.8c-2.1,1.6-4.9,2.4-8.2,2.4c-4.2,0-7.5-1.3-9.9-3.9
			c-2.4-2.6-3.7-6.2-3.7-10.8c0-4.8,1.2-8.5,3.7-11.2s5.7-4,9.6-4c3.8,0,6.9,1.3,9.3,3.9c2.4,2.6,3.6,6.2,3.6,11c0,0.3,0,0.7,0,1.3
			h-21.3c0.2,3.1,1.1,5.5,2.7,7.2c1.6,1.7,3.6,2.5,6,2.5c1.8,0,3.3-0.5,4.5-1.4C1158.2,1321.3,1159.2,1319.9,1160,1317.8z
			 M1144.1,1310h15.9c-0.2-2.4-0.8-4.2-1.8-5.4c-1.5-1.9-3.5-2.8-6-2.8c-2.2,0-4.1,0.7-5.6,2.2
			C1145.1,1305.5,1144.2,1307.5,1144.1,1310z"/>
		<path class="st5" d="M1171,1327v-39.4h4.8v22.5l11.4-11.6h6.3l-10.9,10.6l12,17.9h-6l-9.4-14.6l-3.4,3.3v11.3H1171z"/>
	</g>
</g>
</svg>
